<?xml version="1.0" standalone="no"?>
<!DOCTYPE svg PUBLIC "-//W3C//DTD SVG 1.1//EN" "http://www.w3.org/Graphics/SVG/1.1/DTD/svg11.dtd" >
<svg xmlns="http://www.w3.org/2000/svg" xmlns:xlink="http://www.w3.org/1999/xlink" version="1.1">
<metadata>
Created by FontForge 20170731 at Wed Dec 14 11:11:57 2016
 By Aleksey,,,
Copyright 2011 The Philosopher Project Authors (lemonad@jovanny.ru)
</metadata>
<defs>
<font id="Philosopher-Italic" horiz-adv-x="0" >
  <font-face 
    font-family="Philosopher"
    font-weight="400"
    font-style="italic"
    font-stretch="normal"
    units-per-em="1000"
    panose-1="0 0 5 0 0 0 0 0 0 0"
    ascent="800"
    descent="-200"
    x-height="470"
    cap-height="660"
    bbox="-419 -325 994 989"
    underline-thickness="50"
    underline-position="-150"
    slope="-10"
    unicode-range="U+000D-2215"
  />
<missing-glyph horiz-adv-x="542" 
d="M444 864v-1084h-343v1084h343zM361 791h-179v-35h71v-41h-72v-35h180v35h-72v41h72v35zM289 652h-108v-113h180v37h-72v76zM253 615v-39h-36v39h36zM361 510h-180v-36h72v-40h-72v-36h108v76h72v36zM361 444h-36v-71h-144v-37h180v108zM361 312h-108v-60h36v24h36v-50
h-108v86h-36v-122h180v122zM361 125h-180v-123h180v123zM325 89v-51h-108v51h108zM361 -23h-180v-35h76l-76 -51v-36h180v36h-111l76 51h35v35z" />
    <glyph glyph-name=".notdef" horiz-adv-x="542" 
d="M444 864v-1084h-343v1084h343zM361 791h-179v-35h71v-41h-72v-35h180v35h-72v41h72v35zM289 652h-108v-113h180v37h-72v76zM253 615v-39h-36v39h36zM361 510h-180v-36h72v-40h-72v-36h108v76h72v36zM361 444h-36v-71h-144v-37h180v108zM361 312h-108v-60h36v24h36v-50
h-108v86h-36v-122h180v122zM361 125h-180v-123h180v123zM325 89v-51h-108v51h108zM361 -23h-180v-35h76l-76 -51v-36h180v36h-111l76 51h35v35z" />
    <glyph glyph-name=".null" 
 />
    <glyph glyph-name="nonmarkingreturn" unicode="&#xd;" horiz-adv-x="250" 
 />
    <glyph glyph-name="NULL" 
 />
    <glyph glyph-name="NULL" 
 />
    <glyph glyph-name="space" unicode=" " horiz-adv-x="250" 
 />
    <glyph glyph-name="exclam" unicode="!" horiz-adv-x="239" 
d="M69 155l71 505h94l-107 -505h-58zM35.5 -1.5q-12.5 12.5 -12.5 32.5q0 24 19 43.5t45 19.5q20 0 33 -13t13 -32q0 -23 -20 -43t-45 -20q-20 0 -32.5 12.5z" />
    <glyph glyph-name="quotedbl" unicode="&#x22;" horiz-adv-x="368" 
d="M102 390l18 270h100l-78 -270h-40zM262 390l18 270h100l-78 -270h-40z" />
    <glyph glyph-name="numbersign" unicode="#" horiz-adv-x="669" 
d="M78 0l65 175h-130l11 60h144l68 180h-120l10 60h133l78 200h65l-78 -200h145l78 200h65l-78 -200h137l-10 -60h-150l-69 -180h127l-11 -60h-140l-65 -175h-65l65 175h-145l-65 -175h-65zM232 235h146l68 180h-145z" />
    <glyph glyph-name="dollar" unicode="$" horiz-adv-x="524" 
d="M185 -15q-70 6 -118.5 36t-48.5 73q0 12 20 118h18v-4q0 -88 33 -132t103 -52l47 270l-62 42q-49 33 -69.5 63.5t-20.5 72.5q0 58 29 103.5t79 72t112 30.5l10 57h40l-10 -59q66 -6 114.5 -34.5t48.5 -71.5q0 -5 -4 -27l-16 -92h-18v4q0 86 -32.5 129.5t-99.5 51.5
l-45 -253l76 -50q51 -34 74.5 -64.5t23.5 -70.5q0 -62 -33.5 -110t-89.5 -75t-121 -30l-12 -63h-40zM300 638q-51 -4 -90 -37t-39 -84q0 -33 20.5 -56t67.5 -54zM300 40q33 15 54 42t21 64q0 33 -21 59t-67 58l-12 7l-43 -247q35 2 68 17z" />
    <glyph glyph-name="percent" unicode="%" horiz-adv-x="676" 
d="M107 422.5q-32 27.5 -32 77.5q0 46 22.5 83.5t61.5 59.5t88 22q60 0 92 -27.5t32 -77.5q0 -46 -22.5 -83.5t-61.5 -59.5t-88 -22q-60 0 -92 27.5zM25 0l571 660h75l-571 -660h-75zM282.5 468q28.5 38 28.5 91q0 71 -70 71q-49 0 -77.5 -38.5t-28.5 -91.5q0 -70 70 -70
q49 0 77.5 38zM356.5 22q-32.5 27 -32.5 78q0 46 22.5 83.5t61.5 59.5t88 22q60 0 92 -27.5t32 -77.5q0 -46 -22 -83.5t-61 -59.5t-88 -22q-60 0 -92.5 27zM532 68.5q28 38.5 28 91.5q0 70 -70 70q-49 0 -77.5 -38t-28.5 -91q0 -71 71 -71q49 0 77 38.5z" />
    <glyph glyph-name="ampersand" unicode="&#x26;" horiz-adv-x="614" 
d="M62 16.5q-47 36.5 -47 95.5q0 46 25 83t60 64.5t94 66.5q-18 18 -36 46q-35 53 -35 118q0 54 28 97.5t76 68t106 24.5q68 0 105.5 -31t37.5 -83q0 -70 -50 -122.5t-134 -103.5l163 -220q47 44 81 85q17 20 31 40l17 -15l-30 -42q-40 -53 -82 -91l72 -97h-110l-33 43
q-96 -63 -201 -63q-91 0 -138 36.5zM357 461q33 45 33 103q0 41 -18.5 61t-44.5 20q-32 0 -57 -22t-38 -56t-13 -69q0 -42 18 -76t31 -47q56 41 89 86zM384 66l-166 225q-107 -78 -107 -179q0 -97 114 -97q85 0 159 51z" />
    <glyph glyph-name="quotesingle" unicode="'" horiz-adv-x="208" 
d="M102 390l18 270h100l-78 -270h-40z" />
    <glyph glyph-name="parenleft" unicode="(" horiz-adv-x="310" 
d="M64 -49q-45 84 -45 189q0 172 87.5 304t250.5 246l8 -15q-125 -98 -192.5 -251t-67.5 -323q0 -187 106 -296l-13 -15q-89 77 -134 161z" />
    <glyph glyph-name="parenright" unicode=")" horiz-adv-x="310" 
d="M-68 -195q124 99 191.5 251.5t67.5 321.5q0 183 -106 297l12 15q90 -77 135 -161.5t45 -189.5q0 -171 -88 -304.5t-250 -244.5z" />
    <glyph glyph-name="asterisk" unicode="*" horiz-adv-x="425" 
d="M181 330l56 150l-133 -105l-28 70l154 50l-136 50l52 70l96 -105l-3 150h80l-57 -150l134 105l28 -70l-154 -50l136 -50l-52 -70l-97 105l4 -150h-80z" />
    <glyph glyph-name="plus" unicode="+" horiz-adv-x="529" 
d="M203 100l35 200h-200l11 60h200l35 200h60l-35 -200h200l-11 -60h-200l-35 -200h-60z" />
    <glyph glyph-name="comma" unicode="," horiz-adv-x="241" 
d="M-10 -140q44 28 70 60t34 75l-32 -10q-20 0 -33 13t-13 32q0 27 21 48.5t50 21.5q55 0 55 -52q0 -61 -41.5 -115t-103.5 -88z" />
    <glyph glyph-name="hyphen" unicode="-" horiz-adv-x="389" 
d="M59 230l12 70h255l-12 -70h-255z" />
    <glyph glyph-name="period" unicode="." horiz-adv-x="225" 
d="M29.5 -1.5q-12.5 12.5 -12.5 32.5q0 25 19 44.5t45 19.5q21 0 33.5 -13t12.5 -32q0 -24 -19.5 -44t-45.5 -20q-20 0 -32.5 12.5z" />
    <glyph glyph-name="slash" unicode="/" horiz-adv-x="445" 
d="M-23 0l437 660h73l-437 -660h-73z" />
    <glyph glyph-name="zero" unicode="0" horiz-adv-x="587" 
d="M50 201q0 104 31 214t101.5 187.5t181.5 77.5q191 0 191 -222q0 -104 -31 -214t-101.5 -187t-181.5 -77q-191 0 -191 221zM364 96q49 76 73.5 188t24.5 215q0 73 -24.5 107t-80.5 34q-67 0 -115.5 -76.5t-73 -188.5t-24.5 -215q0 -72 24.5 -106t79.5 -34q67 0 116 76z
" />
    <glyph glyph-name="one" unicode="1" horiz-adv-x="306" 
d="M80 0l98 560l-108 -63l-14 23l180 140h50l-116 -660h-90z" />
    <glyph glyph-name="two" unicode="2" horiz-adv-x="532" 
d="M3 50q54 49 170 144q92 75 137.5 119t72.5 96t27 119q0 55 -30 83.5t-78 28.5q-61 0 -113.5 -44t-81.5 -126h-20q9 49 18.5 79t28.5 51q34 34 90.5 57t114.5 23q69 0 120 -31.5t51 -112.5q0 -80 -50.5 -154.5t-120.5 -134.5t-178 -140q-80 -60 -89 -67h225q61 0 97.5 26
t45.5 79h20l-11 -65q-7 -36 -29 -58t-70 -22h-355z" />
    <glyph glyph-name="three" unicode="3" horiz-adv-x="531" 
d="M7 87l19 18q30 -43 72 -64t98 -21q52 0 93.5 28t65 74.5t23.5 99.5q0 56 -32 87t-74 31q-36 0 -55.5 -2.5t-39 -6.5t-27.5 -6l-19 42l316 253h-185q-61 0 -97.5 -26t-46.5 -79h-20l12 65q7 36 29 58t70 22h318l-7 -40l-312 -250q34 10 92 10q35 0 76 -13t72 -47.5
t31 -93.5q0 -68 -35 -124.5t-96 -89t-134 -32.5q-136 0 -207 107z" />
    <glyph glyph-name="four" unicode="4" horiz-adv-x="549" 
d="M291 0l29 170h-320l8 40l409 450h80l-79 -450h90l-8 -40h-90l-29 -170h-90zM68 210h260l62 354z" />
    <glyph glyph-name="five" unicode="5" horiz-adv-x="533" 
d="M90 6q-45 26 -81 79l22 17q31 -42 71.5 -62t95.5 -20q56 0 97.5 28t63.5 74.5t22 102.5q0 115 -137 115q-46 0 -86 -5l-40 -5l-33 40l61 290h375l-7 -40h-293l-52 -245l33 2q57 3 70 3q85 0 147 -35t62 -119q0 -72 -37.5 -128t-100.5 -87t-137 -31q-71 0 -116 26z" />
    <glyph glyph-name="six" unicode="6" horiz-adv-x="538" 
d="M93.5 33q-44.5 53 -44.5 160q0 109 31.5 221t104.5 189t189 77q76 0 150 -30l-8 -20q-62 10 -129 10q-87 0 -143 -67.5t-77 -187.5q34 21 71.5 33t86.5 12q84 0 125 -42t41 -118q0 -72 -31.5 -139t-90.5 -109t-138 -42q-93 0 -137.5 53zM324 61q36 41 54.5 99.5
t18.5 108.5q0 121 -109 121q-36 0 -66 -12.5t-63 -37.5q-16 -92 -16 -157q0 -163 95 -163q50 0 86 41z" />
    <glyph glyph-name="seven" unicode="7" horiz-adv-x="477" 
d="M431 620h-200q-61 0 -97.5 -26t-46.5 -79h-20l12 65q7 36 29 58t70 22h350l-7 -40l-359 -620h-90z" />
    <glyph glyph-name="eight" unicode="8" horiz-adv-x="556" 
d="M78.5 14.5q-56.5 34.5 -56.5 103.5q0 74 52 125t144 92q-50 31 -78.5 65t-28.5 82q0 63 32 108t85.5 67.5t119.5 22.5q82 0 131 -30t49 -96q0 -64 -42.5 -114t-114.5 -85q40 -27 63 -47t39.5 -49t16.5 -67q0 -67 -37 -115t-98 -72.5t-130 -24.5q-90 0 -146.5 34.5z
M433 552q0 47 -26.5 67.5t-65.5 20.5q-34 0 -64 -16t-48 -44.5t-18 -65.5q0 -73 120 -134q102 67 102 172zM308.5 38q36.5 18 59 51t22.5 75q0 48 -33 81t-98 70q-62 -28 -102 -78t-40 -116q0 -49 32.5 -75t82.5 -26q40 0 76.5 18z" />
    <glyph glyph-name="nine" unicode="9" horiz-adv-x="539" 
d="M104 -12q-35 8 -71 22l9 20q58 -10 128 -10q87 0 143 67.5t77 187.5q-33 -21 -71 -33t-87 -12q-85 0 -125.5 41.5t-40.5 118.5q0 72 31.5 139t90.5 109t138 42q93 0 137.5 -53.5t44.5 -161.5q0 -110 -31.5 -221t-104.5 -187.5t-189 -76.5q-44 0 -79 8zM335.5 282.5
q30.5 12.5 62.5 37.5q16 92 16 157q0 163 -95 163q-50 0 -86 -41t-54.5 -100t-18.5 -109q0 -120 109 -120q36 0 66.5 12.5z" />
    <glyph glyph-name="colon" unicode=":" horiz-adv-x="243" 
d="M102 365.5q-13 12.5 -13 32.5q0 24 20 43.5t45 19.5q21 0 33 -12.5t12 -31.5q0 -25 -19 -44.5t-45 -19.5q-20 0 -33 12.5zM36.5 -1.5q-12.5 12.5 -12.5 32.5q0 25 19 44.5t45 19.5q21 0 34 -13t13 -32q0 -24 -20 -44t-46 -20q-20 0 -32.5 12.5z" />
    <glyph glyph-name="semicolon" unicode=";" horiz-adv-x="259" 
d="M112 366q-13 12 -13 31q0 25 19 44.5t46 19.5q20 0 33 -13t13 -32q0 -23 -20 -42.5t-45 -19.5q-20 0 -33 12zM-3 -140q48 33 73 63.5t33 76.5q-1 -1 -10.5 -8t-27.5 -7q-20 0 -30.5 12t-10.5 31q0 29 22.5 50.5t53.5 21.5q22 0 35 -15t13 -42q0 -60 -38.5 -107.5
t-104.5 -89.5z" />
    <glyph glyph-name="less" unicode="&#x3c;" horiz-adv-x="620" 
d="M518 95l-480 225l5 30l560 225l-11 -60l-448 -180l385 -180z" />
    <glyph glyph-name="equal" unicode="=" horiz-adv-x="662" 
d="M87 390l11 60h525l-11 -60h-525zM56 210l10 60h525l-10 -60h-525z" />
    <glyph glyph-name="greater" unicode="&#x3e;" horiz-adv-x="620" 
d="M37 95l11 60l449 180l-386 180l11 60l480 -225l-5 -30z" />
    <glyph glyph-name="question" unicode="?" horiz-adv-x="481" 
d="M222.5 244q25.5 38 68.5 86q33 38 52.5 64t32.5 60t13 74q0 55 -30 83.5t-78 28.5q-61 0 -114 -44.5t-82 -125.5h-20q9 51 18 80t30 50q34 34 90.5 57t114.5 23q69 0 120 -31.5t51 -112.5q0 -54 -18.5 -94t-45.5 -67.5t-72 -64.5q-53 -43 -82.5 -75t-44.5 -79h-40
q11 50 36.5 88zM143 -0.5q-12 12.5 -12 31.5q0 25 19 45t45 20q21 0 34 -13t13 -33q0 -24 -20 -43.5t-46 -19.5q-21 0 -33 12.5z" />
    <glyph glyph-name="at" unicode="@" horiz-adv-x="855" 
d="M112 -97q-87 83 -87 237q0 136 56.5 260.5t164 202t254.5 77.5q100 0 173.5 -36.5t113.5 -107t40 -169.5q0 -82 -25 -165t-81.5 -140t-144.5 -57q-40 0 -62 12.5t-34 37.5h-5q-53 -55 -139 -55q-75 0 -112.5 48t-37.5 125q0 68 28.5 142.5t83 124.5t129.5 50
q82 0 115 -55h5l43 45h50l-66 -375q-1 -3 -1 -15q0 -20 10 -32.5t30 -12.5q56 0 95 54.5t58.5 129.5t19.5 133q0 134 -78 206t-215 72q-132 0 -229 -69.5t-148 -183.5t-51 -242q0 -139 77 -212t214 -73q97 0 176.5 21t148.5 64l15 -30q-154 -95 -347 -95q-150 0 -237 83z
M433.5 57.5q26.5 17.5 50.5 47.5l50 285q-13 28 -31.5 44t-52.5 16q-56 0 -94.5 -47t-57 -113.5t-18.5 -123.5q0 -58 21.5 -92t66.5 -34q39 0 65.5 17.5z" />
    <glyph glyph-name="A" unicode="A" horiz-adv-x="634" 
d="M486.5 21.5q-41.5 26.5 -57.5 103.5l-14 65h-280l-113 -190h-45l396 660h30l126 -535q12 -57 31 -79t60 -26l-3 -20q-20 -5 -41 -5q-48 0 -89.5 26.5zM157 230h245l-69 290z" />
    <glyph glyph-name="B" unicode="B" horiz-adv-x="624" 
d="M154 540q4 21 4 43q0 28 -13 42.5t-44 14.5h-20l4 20h260q99 0 170.5 -29.5t71.5 -112.5q0 -64 -44 -109t-115 -69q75 -12 108 -43.5t33 -79.5q0 -112 -89.5 -164.5t-220.5 -52.5h-200zM306 355q44 0 87 19t71 55t28 83q0 55 -47.5 84t-110.5 29q-35 0 -77 -10l-46 -260
h95zM353.5 53q49.5 18 81.5 56t32 95q0 54 -42.5 82.5t-125.5 28.5h-95l-47 -266q45 -14 93 -14q54 0 103.5 18z" />
    <glyph glyph-name="C" unicode="C" horiz-adv-x="666" 
d="M164 14q-58 34 -88.5 94t-30.5 137q0 97 50.5 199t137.5 169t192 67q48 0 99.5 -11.5t89.5 -40.5t38 -78q0 -23 -8 -73l-4 -27h-20q-2 97 -45 143.5t-127 46.5q-97 0 -165.5 -58.5t-103 -150.5t-34.5 -190q0 -97 47.5 -159t146.5 -62q73 0 134 35t116 105l17 -15
q-64 -90 -136.5 -127.5t-167.5 -37.5q-80 0 -138 34z" />
    <glyph glyph-name="D" unicode="D" horiz-adv-x="716" 
d="M154 540q4 21 4 43q0 28 -13 42.5t-44 14.5h-20l4 20h262q170 0 256 -67t86 -188q0 -115 -56 -207.5t-154.5 -145t-221.5 -52.5h-198zM424 87q73 52 114 135.5t41 175.5q0 104 -58.5 165.5t-158.5 61.5q-46 0 -103 -16l-99 -561q56 -13 100 -13q91 0 164 52z" />
    <glyph glyph-name="E" unicode="E" horiz-adv-x="593" 
d="M120 348q10 61 24.5 144t14.5 91q0 28 -13 42.5t-44 14.5h-20l4 20h426q73 0 73 -58q0 -2 -4 -26l-11 -71h-20q3 17 3 30q0 85 -108 85h-186l-46 -260h270l-7 -40h-270l-49 -280h175q69 0 112.5 25t76.5 85l19 -5l-52 -95q-26 -50 -83 -50h-345z" />
    <glyph glyph-name="F" unicode="F" horiz-adv-x="531" 
d="M120 348q10 61 24.5 144t14.5 91q0 28 -13 42.5t-44 14.5h-20l4 20h399q73 0 73 -58q0 -2 -4 -26l-11 -71h-20q3 17 3 30q0 85 -108 85h-159l-47 -265h226l-7 -40h-226l-55 -315h-90z" />
    <glyph glyph-name="G" unicode="G" horiz-adv-x="720" 
d="M182 17.5q-64 37.5 -98.5 103t-34.5 148.5q0 100 48 195t134 155.5t194 60.5q87 0 162 -28t75 -102q0 -31 -10 -85h-20q-6 175 -184 175q-97 0 -165.5 -60.5t-103 -153.5t-34.5 -190q0 -113 53 -164.5t141 -51.5q51 0 88.5 9t72.5 26l31 174q6 34 21.5 59t55 41.5
t109.5 16.5l-4 -20q-45 0 -64 -23t-28 -72l-33 -188q-60 -33 -121.5 -48t-134.5 -15q-86 0 -150 37.5z" />
    <glyph glyph-name="H" unicode="H" horiz-adv-x="696" 
d="M154 540q4 21 4 43q0 28 -13 42.5t-44 14.5h-20l4 20h90q42 0 58.5 -12t16.5 -49q0 -23 -6 -59l-32 -180h300l53 300h90l-95 -540q-5 -32 -5 -45q0 -28 13 -41.5t44 -13.5h20l-3 -20h-90q-41 0 -58.5 12.5t-17.5 48.5q0 17 7 59l35 200h-300l-56 -320h-90z" />
    <glyph glyph-name="I" unicode="I" horiz-adv-x="289" 
d="M73.5 12.5q-17.5 12.5 -17.5 48.5q0 17 7 59l95 540h90l-95 -540q-5 -32 -5 -45q0 -28 13 -41.5t44 -13.5h20l-3 -20h-90q-41 0 -58.5 12.5z" />
    <glyph glyph-name="J" unicode="J" horiz-adv-x="264" 
d="M-76 -117q47 0 79.5 51t48.5 144l103 582h90l-103 -582q-14 -78 -38.5 -124.5t-68 -68.5t-115.5 -22z" />
    <glyph glyph-name="K" unicode="K" horiz-adv-x="678" 
d="M478.5 15.5q-46.5 25.5 -99.5 94.5l-171 220l-58 -330h-90l60 348q10 61 24.5 144t14.5 91q0 28 -13 42.5t-44 14.5h-20l4 20h90q41 0 58.5 -12.5t17.5 -48.5q0 -13 -7.5 -58t-34.5 -196l247 210q19 16 20 17q49 44 85.5 66t83.5 22h50l-5 -25q-43 0 -76.5 -14.5
t-80.5 -55.5l-229 -195l187 -240q34 -45 75 -75.5t76 -35.5l-3 -19q-32 -10 -67 -10q-48 0 -94.5 25.5z" />
    <glyph glyph-name="L" unicode="L" horiz-adv-x="557" 
d="M120 348q10 61 24.5 144t14.5 91q0 28 -13 42.5t-44 14.5h-20l4 20h90q42 0 58.5 -12t16.5 -49q0 -14 -15.5 -106.5t-78.5 -452.5h355l-7 -40h-445z" />
    <glyph glyph-name="M" unicode="M" horiz-adv-x="857" 
d="M664 -14.5q-36 30.5 -36 100.5q0 36 9 84l68 385l-347 -555h-20l-161 565l-99 -565h-40l116 660h95l148 -520l327 520h90l-87 -490q-9 -48 -9 -86q0 -109 70 -109l-3 -20q-85 0 -121 30.5z" />
    <glyph glyph-name="N" unicode="N" horiz-adv-x="687" 
d="M194 525l-92 -525h-40l44 253q54 308 54 319q0 34 -17.5 51t-58.5 17h-10l4 20h65q47 0 76.5 -15.5t47.5 -44.5l274 -435l87 495h40l-118 -670h-20z" />
    <glyph glyph-name="O" unicode="O" horiz-adv-x="712" 
d="M165.5 15q-57.5 35 -87.5 96t-30 140q0 102 47.5 201.5t133.5 163.5t197 64q80 0 138 -35t88 -97t30 -141q0 -102 -47.5 -201t-134 -162.5t-197.5 -63.5q-80 0 -137.5 35zM461 84.5q62 64.5 92.5 159t30.5 183.5q0 101 -42.5 157t-122.5 56q-90 0 -151.5 -65t-91.5 -160
t-30 -184q0 -101 42 -156t122 -55q89 0 151 64.5z" />
    <glyph glyph-name="P" unicode="P" horiz-adv-x="555" 
d="M120 348q10 61 24.5 144t14.5 91q0 28 -13 42.5t-44 14.5h-20l4 20h260q84 0 151.5 -32.5t67.5 -124.5q0 -68 -35 -121t-94 -82.5t-129 -29.5h-110l-47 -270h-90zM360.5 327q43.5 22 73.5 66t30 106q0 43 -21 71.5t-51 41.5t-57 13q-35 0 -77 -10l-53 -300q38 -10 73 -10
q39 0 82.5 22z" />
    <glyph glyph-name="Q" unicode="Q" horiz-adv-x="711" 
d="M377 -160q-94 45 -162 153q-80 24 -123.5 92.5t-43.5 165.5q0 102 47.5 201.5t133.5 163.5t197 64q80 0 137.5 -35t87.5 -96t30 -140q0 -91 -35 -176.5t-101.5 -150t-157.5 -91.5q6 -48 39 -88.5t79 -64t89 -23.5l-4 -20q-119 0 -213 45zM461 84.5q62 64.5 92.5 159
t30.5 183.5q0 101 -42.5 157t-122.5 56q-90 0 -151.5 -65t-91.5 -160t-30 -184q0 -101 42 -156t122 -55q89 0 151 64.5z" />
    <glyph glyph-name="R" unicode="R" horiz-adv-x="595" 
d="M411 21.5q-34 31.5 -68 113.5l-70 170h-70l-53 -305h-90l60 348q10 61 24.5 144t14.5 91q0 28 -13 42.5t-44 14.5h-20l4 20h260q85 0 153 -30.5t68 -114.5q0 -79 -53 -132t-140 -73l74 -175q25 -61 51 -86t64 -29l-3 -20q-9 -4 -26.5 -7t-35.5 -3q-53 0 -87 31.5z
M370.5 362q42.5 22 69.5 60.5t27 84.5q0 40 -21 66.5t-52 39t-59 12.5q-35 0 -77 -10l-47 -265q38 -10 73 -10q44 0 86.5 22z" />
    <glyph glyph-name="S" unicode="S" horiz-adv-x="534" 
d="M130 -3q-48 14 -77.5 39t-29.5 58q0 12 20 118h18v-7q0 -95 41.5 -138.5t126.5 -43.5q36 0 71 14.5t57.5 42.5t22.5 66q0 33 -21 59t-67 58l-110 73q-49 33 -69.5 63.5t-20.5 72.5q0 58 30.5 105t82.5 74t114 27q48 0 93 -13t74 -38t29 -57q0 -5 -4 -27l-16 -92h-18v7
q0 95 -40 137.5t-125 42.5q-33 0 -64.5 -15.5t-51.5 -43t-20 -61.5q0 -32 20.5 -55t69.5 -57l110 -73q51 -34 74.5 -64.5t23.5 -70.5q0 -61 -33.5 -110t-89.5 -77t-120 -28q-53 0 -101 14z" />
    <glyph glyph-name="T" unicode="T" horiz-adv-x="585" 
d="M315 620h-90q-123 0 -145 -115h-20l13 75q7 36 29 58t70 22h465l-7 -40h-225l-109 -620h-90z" />
    <glyph glyph-name="U" unicode="U" horiz-adv-x="687" 
d="M138 36q-50 46 -50 141q0 45 11 108l45 255q4 21 4 43q0 28 -13 42.5t-44 14.5h-20l4 20h90q41 0 58.5 -12.5t17.5 -48.5q0 -17 -7 -59l-51 -285q-8 -46 -8 -78q0 -72 35 -109.5t111 -37.5t125 27t78 82t45 146l66 375h40l-66 -375q-19 -104 -51.5 -167.5t-94 -95.5
t-161.5 -32q-114 0 -164 46z" />
    <glyph glyph-name="V" unicode="V" horiz-adv-x="639" 
d="M123 543q-15 58 -33 79.5t-58 25.5l3 20q5 0 15 1t20 1q122 0 151 -127l100 -403q8 14 15 24q88 145 135.5 225.5t161.5 270.5h48l-405 -670h-18z" />
    <glyph glyph-name="W" unicode="W" horiz-adv-x="867" 
d="M121 543q-11 58 -29 79.5t-62 25.5l3 20q5 0 15 1t20 1q56 0 94.5 -24.5t53.5 -102.5l66 -386l163 317l-12 69q-11 58 -29 79.5t-62 25.5l3 20q5 0 15 1t20 1q56 0 94.5 -24.5t53.5 -102.5l66 -386l260 503h43l-347 -670h-20l-74 421l-218 -421h-20z" />
    <glyph glyph-name="X" unicode="X" horiz-adv-x="663" 
d="M298 325l-104 205q-16 33 -31 54.5t-42 37.5t-68 18l4 20h120q43 0 69.5 -29.5t50.5 -80.5l74 -150l246 260h50l-277 -295l118 -235q25 -47 54 -77t72 -33l-3 -20h-105q-43 0 -70 29.5t-51 80.5l-88 180l-276 -290h-50z" />
    <glyph glyph-name="Y" unicode="Y" horiz-adv-x="629" 
d="M286 273l-125 257q-27 54 -52.5 80.5t-73.5 29.5l4 20h90q50 0 79 -29.5t51 -80.5l106 -225l268 335h45l-301 -380l-49 -280h-90z" />
    <glyph glyph-name="Z" unicode="Z" horiz-adv-x="594" 
d="M-19 20l521 600h-240q-123 0 -145 -115h-20l13 75q7 36 29 58t70 22h435l-534 -620h410l-7 -40h-535z" />
    <glyph glyph-name="bracketleft" unicode="[" horiz-adv-x="317" 
d="M-8 -200l155 880h215l-7 -40h-135l-141 -800h135l-7 -40h-215z" />
    <glyph glyph-name="backslash" unicode="\" horiz-adv-x="440" 
d="M295 0l-205 660h73l205 -660h-73z" />
    <glyph glyph-name="bracketright" unicode="]" horiz-adv-x="317" 
d="M-57 -200l7 40h134l141 800h-135l7 40h215l-155 -880h-214z" />
    <glyph glyph-name="asciicircum" unicode="^" horiz-adv-x="490" 
d="M38 330l276 350h20l154 -350h-67l-113 257l-203 -257h-67z" />
    <glyph glyph-name="underscore" unicode="_" horiz-adv-x="430" 
d="M-41 -60l11 60h400l-11 -60h-400z" />
    <glyph glyph-name="grave" unicode="`" horiz-adv-x="200" 
d="M174 480l-75 200h100l25 -200h-50z" />
    <glyph glyph-name="a" unicode="a" horiz-adv-x="525" 
d="M68.5 38q-36.5 48 -36.5 125q0 73 27.5 143.5t82 119t131.5 54.5q82 0 115 -55h5l43 45h50l-67 -383l-15 -87h-50l-28 45h-5q-23 -24 -56.5 -39.5t-87.5 -15.5q-72 0 -108.5 48zM280.5 46q25.5 16 48.5 44l52 290q-17 30 -34 45t-51 15q-57 0 -95 -46.5t-56 -113
t-18 -123.5q0 -58 21 -92.5t66 -34.5q41 0 66.5 16z" />
    <glyph glyph-name="b" unicode="b" horiz-adv-x="526" 
d="M167 6q-30 16 -45 39h-5l-42 -45h-50l60 348q10 61 24.5 144t14.5 91q0 28 -13 42.5t-44 14.5h-20l4 20h90q42 0 58.5 -12t16.5 -49q0 -23 -6 -59l-16 -90q64 30 130 30q77 0 115.5 -47.5t38.5 -127.5q0 -67 -26 -140.5t-78.5 -124t-125.5 -50.5q-51 0 -81 16zM314.5 77
q35.5 47 52 112.5t16.5 121.5q0 60 -23 94.5t-73 34.5q-36 0 -100 -30l-57 -320q13 -27 35 -43.5t60 -16.5q54 0 89.5 47z" />
    <glyph glyph-name="c" unicode="c" horiz-adv-x="484" 
d="M77.5 40q-45.5 50 -45.5 134q0 75 32.5 146t93.5 115.5t143 44.5q63 0 108 -14t45 -64q0 -23 -11 -80l-1 -7h-20q1 8 1 22q0 51 -29.5 77t-79.5 26q-61 0 -103.5 -41.5t-63 -103.5t-20.5 -124q0 -66 28.5 -103.5t86.5 -37.5q51 0 87.5 19.5t71.5 60.5l17 -15
q-43 -56 -92 -80.5t-111 -24.5q-92 0 -137.5 50z" />
    <glyph glyph-name="d" unicode="d" horiz-adv-x="525" 
d="M69.5 38q-36.5 48 -36.5 127q0 71 27 144t81.5 122t131.5 49q38 0 66 -8t54 -22q11 64 15.5 92.5t4.5 40.5q0 28 -13 42.5t-44 14.5h-20l4 20h90q42 0 58.5 -12t16.5 -49q0 -15 -17 -117.5t-84 -481.5h-50l-28 45h-5q-23 -24 -56.5 -39.5t-87.5 -15.5q-71 0 -107.5 48z
M280.5 46q25.5 16 48.5 44l57 320q-26 14 -47.5 22t-42.5 8q-58 0 -96 -46t-55 -111.5t-17 -125.5t21 -93.5t65 -33.5q41 0 66.5 16z" />
    <glyph glyph-name="e" unicode="e" horiz-adv-x="487" 
d="M76.5 40.5q-44.5 50.5 -44.5 132.5q0 72 31 143.5t90 117.5t138 46q85 0 126 -31.5t41 -82.5q0 -52 -29.5 -89.5t-77.5 -57t-104 -19.5h-120q-4 -20 -4 -41q0 -56 28.5 -92.5t80.5 -36.5q47 0 83 20t71 60l17 -15q-43 -56 -91 -80.5t-107 -24.5q-84 0 -128.5 50.5z
M249 240q49 2 81.5 36.5t32.5 87.5q0 36 -20.5 56t-58.5 20q-53 0 -93 -53t-57 -147h115z" />
    <glyph glyph-name="f" unicode="f" horiz-adv-x="340" 
d="M-81 -170q47 0 79.5 51t48.5 144l71 405h-70l7 40h70l6 30q33 170 205 170q63 0 82 -15q18 -13 27 -45l-34 -25q-11 23 -32 34t-55 11q-36 0 -62.5 -30t-40.5 -100l-6 -30h140l-7 -40h-140l-71 -405q-14 -78 -38.5 -124.5t-68.5 -68.5t-115 -22z" />
    <glyph glyph-name="g" unicode="g" horiz-adv-x="524" 
d="M74.5 -175.5q-40.5 24.5 -63.5 80.5l22 15q22 -41 51 -60.5t80 -19.5q57 0 97.5 49t55.5 136l1 5q-66 -30 -130 -30q-77 0 -115.5 48t-38.5 126q0 66 26 137.5t78 120t124 48.5q51 0 81 -16t44 -39h5l43 45h50l-78 -445q-18 -103 -79.5 -164t-150.5 -61
q-62 0 -102.5 24.5zM270 48q24 8 55 22l55 310q-14 27 -36 43.5t-59 16.5q-53 0 -88.5 -45t-52 -108.5t-16.5 -118.5q0 -59 23.5 -93.5t73.5 -34.5q21 0 45 8z" />
    <glyph glyph-name="h" unicode="h" horiz-adv-x="532" 
d="M85 348q10 61 24.5 144t14.5 91q0 28 -13 42.5t-44 14.5h-20l4 20h90q42 0 58.5 -12t16.5 -49q0 -13 -5.5 -50.5t-20.5 -118.5q27 22 62.5 36t76.5 14q143 0 143 -128q0 -14 -9.5 -74t-47.5 -278h-90q56 313 56 339q0 49 -25.5 72.5t-64.5 23.5q-50 0 -109 -53l-67 -382
h-90z" />
    <glyph glyph-name="i" unicode="i" horiz-adv-x="251" 
d="M140 545q-13 15 -13 37q0 24 15 40.5t40 16.5q20 0 33 -15t13 -37q0 -24 -15 -40.5t-40 -16.5q-20 0 -33 15zM94 300q14 85 14 95q0 28 -13 41.5t-44 13.5h-20l3 20h90q41 0 58.5 -12.5t17.5 -48.5q0 -9 -6.5 -50.5t-23.5 -138.5l-38 -220h-90q38 215 52 300z" />
    <glyph glyph-name="j" unicode="j" horiz-adv-x="251" 
d="M140 545q-13 15 -13 37q0 24 15 40.5t40 16.5q20 0 33 -15t13 -37q0 -24 -15 -40.5t-40 -16.5q-20 0 -33 15zM-82 -170q47 0 79.5 51t48.5 144q35 200 48.5 280t13.5 90q0 28 -13 41.5t-44 13.5h-20l3 20h90q41 0 58.5 -12.5t17.5 -48.5q0 -9 -6 -46.5t-21 -122.5
l-37 -215q-14 -78 -38.5 -124.5t-68.5 -68.5t-115 -22z" />
    <glyph glyph-name="k" unicode="k" horiz-adv-x="485" 
d="M303.5 8.5q-32.5 18.5 -57.5 61.5l-92 160l-40 -230h-90l95 540q4 21 4 43q0 28 -13 42.5t-44 14.5h-20l4 20h90q42 0 58.5 -12t16.5 -49q0 -23 -6 -59l-52 -295l153 160q31 32 63 48.5t78 16.5h30l-4 -25q-58 0 -103 -45l-135 -140l97 -160q24 -39 45.5 -57.5
t50.5 -23.5l-3 -19q-22 -10 -52 -10q-41 0 -73.5 18.5z" />
    <glyph glyph-name="l" unicode="l" horiz-adv-x="244" 
d="M89 348q10 61 24.5 144t14.5 91q0 28 -13 42.5t-44 14.5h-20l4 20h90q42 0 58.5 -12t16.5 -49q0 -15 -17 -117.5t-84 -481.5h-90z" />
    <glyph glyph-name="m" unicode="m" horiz-adv-x="789" 
d="M94 300q14 85 14 95q0 28 -13 41.5t-44 13.5h-20l3 20h90q70 0 78 -40h5q27 22 62.5 36t76.5 14t69 -16t39 -54q32 33 75.5 51.5t86.5 18.5q53 0 83.5 -26t30.5 -91q0 -16 -9.5 -77.5t-48.5 -285.5h-90q38 219 48 281.5t10 76.5q0 41 -16 59t-46 18q-28 0 -62.5 -20.5
t-53.5 -44.5v-7q0 -13 -13.5 -94t-46.5 -269h-90q38 219 48 281.5t10 76.5q0 41 -16 59t-46 18q-50 0 -109 -53l-67 -382h-90q38 215 52 300z" />
    <glyph glyph-name="n" unicode="n" horiz-adv-x="549" 
d="M94 300q14 85 14 95q0 28 -13 41.5t-44 13.5h-20l3 20h90q70 0 78 -40h5q27 22 62.5 36t76.5 14q143 0 143 -128q0 -14 -9.5 -74t-47.5 -278h-90q56 313 56 339q0 49 -25.5 72.5t-64.5 23.5q-50 0 -109 -53l-67 -382h-90q38 215 52 300z" />
    <glyph glyph-name="o" unicode="o" horiz-adv-x="529" 
d="M79.5 42.5q-47.5 52.5 -47.5 136.5q0 73 33.5 142.5t94.5 114t140 44.5q87 0 134.5 -52.5t47.5 -136.5q0 -73 -33.5 -142.5t-94.5 -114t-140 -44.5q-87 0 -134.5 52.5zM311 74.5q38 44.5 57.5 107.5t19.5 115q0 64 -25 103.5t-70 39.5q-52 0 -90 -44.5t-57.5 -107.5
t-19.5 -115q0 -64 25 -103.5t70 -39.5q52 0 90 44.5z" />
    <glyph glyph-name="p" unicode="p" horiz-adv-x="543" 
d="M83 241q25 149 25 154q0 28 -13 41.5t-44 13.5h-20l3 20h90q38 0 56 -11t21 -34h5q55 55 145 55q71 0 107.5 -48t36.5 -127q0 -71 -27 -144t-81.5 -122t-131.5 -49q-66 0 -120 30l-37 -210h-90zM328 76q38 46 55 111.5t17 125.5t-21 93.5t-65 33.5q-38 0 -65.5 -16.5
t-49.5 -43.5l-57 -320q54 -30 90 -30q58 0 96 46z" />
    <glyph glyph-name="q" unicode="q" horiz-adv-x="524" 
d="M316 20q-66 -30 -130 -30q-77 0 -115.5 47.5t-38.5 127.5q0 67 26.5 140.5t78.5 124t125 50.5q51 0 81 -16t44 -39h5l43 45h50l-116 -660h-90zM268 38q24 8 55 22l57 320q-14 27 -36 43.5t-59 16.5q-54 0 -89.5 -47t-52 -112.5t-16.5 -121.5q0 -60 23 -94.5t73 -34.5
q21 0 45 8z" />
    <glyph glyph-name="r" unicode="r" horiz-adv-x="403" 
d="M88 300q14 85 14 95q0 28 -13 41.5t-44 13.5h-10l3 20h80q38 0 56 -11t21 -34h5q23 23 56 39t74 16q39 0 57 -15q10 -8 16 -18t12 -27l-46 -30q-8 15 -27.5 22.5t-46.5 7.5q-30 0 -57.5 -13.5t-46.5 -36.5l-65 -370h-90q38 215 52 300z" />
    <glyph glyph-name="s" unicode="s" horiz-adv-x="449" 
d="M65.5 6q-48.5 16 -48.5 69q0 14 3.5 33.5t4.5 26.5h20v-2q0 -49 30 -76t92 -27q45 0 84 20t39 63q0 24 -17.5 41.5t-57.5 35.5l-56 25q-48 21 -73 48.5t-25 65.5q0 46 27.5 80.5t71 52.5t91.5 18q157 0 157 -83q0 -16 -3 -36t-4 -26h-20v2q0 49 -29 76t-88 27
q-41 0 -77 -19.5t-36 -60.5q0 -46 66 -75l55 -25q56 -25 82 -51t26 -65q0 -48 -28.5 -83t-74.5 -53t-97 -18q-66 0 -114.5 16z" />
    <glyph glyph-name="t" unicode="t" horiz-adv-x="336" 
d="M85.5 14q-26.5 24 -26.5 71q0 16 57 345h-70l7 40h70l16 90l61 60h40l-27 -150h120l-7 -40h-120q-57 -327 -57 -340q0 -60 57 -60q24 0 41.5 5t36.5 15l7 -20q-27 -18 -56.5 -29t-75.5 -11q-47 0 -73.5 24z" />
    <glyph glyph-name="u" unicode="u" horiz-adv-x="537" 
d="M50 120q0 12 8 62t29 168q5 32 5 45q0 28 -13 41.5t-44 13.5h-10l3 20h80q41 0 58.5 -12.5t17.5 -48.5q0 -17 -7 -59q-35 -194 -35 -218q0 -50 25.5 -73.5t64.5 -23.5q50 0 109 53l67 382h90l-82 -470h-50l-28 40h-5q-27 -22 -62.5 -36t-76.5 -14q-144 0 -144 130z" />
    <glyph glyph-name="v" unicode="v" horiz-adv-x="498" 
d="M110 355q-14 56 -32 78.5t-54 24.5l4 20q5 0 14.5 1t19.5 1q53 0 91 -27t57 -98l52 -215l198 330h50l-289 -480h-20z" />
    <glyph glyph-name="w" unicode="w" horiz-adv-x="749" 
d="M110 355q-13 56 -31.5 78.5t-55.5 24.5l4 20q5 0 15 1t20 1q54 0 91 -27.5t52 -97.5l48 -210l123 215q-15 53 -32.5 74.5t-50.5 23.5l4 20q5 0 15 1t20 1q54 0 91 -27.5t52 -97.5l48 -210l187 325h50l-279 -480h-20l-71 310l-179 -310h-20z" />
    <glyph glyph-name="x" unicode="x" horiz-adv-x="490" 
d="M189 225l-61 145q-30 72 -89 80l3 20h85q33 0 58.5 -21t40.5 -59l44 -105l162 185h50l-199 -225l61 -145q30 -73 94 -80l-3 -20h-90q-33 0 -58.5 21t-40.5 59l-44 105l-162 -185h-50z" />
    <glyph glyph-name="y" unicode="y" horiz-adv-x="514" 
d="M23 -170q49 0 85 22.5t68 82.5l30 55l-91 390q-17 72 -96 80l3 20h85q87 0 106 -80l65 -277l187 347h50l-289 -535q-42 -79 -82.5 -107t-96.5 -28h-30z" />
    <glyph glyph-name="z" unicode="z" horiz-adv-x="468" 
d="M0 19l332 411h-115q-62 0 -97.5 -23.5t-43.5 -66.5h-20l9 50q7 36 29 58t70 22h305l-345 -430h270l-7 -40h-390z" />
    <glyph glyph-name="braceleft" unicode="{" horiz-adv-x="304" 
d="M85 -157q-33 35 -33 88q0 28 6.5 59t8.5 38q17 66 17 109q0 35 -20 58.5t-63 29.5l5 30q101 14 121 115l24 140q12 70 58.5 113.5t138.5 66.5l-5 -30q-53 -15 -74.5 -39t-30.5 -71l-29 -170q-11 -59 -42.5 -92t-87.5 -48q43 -13 63.5 -37.5t20.5 -65.5q0 -27 -4.5 -52.5
t-13.5 -66.5q-19 -76 -19 -123q0 -30 15 -46.5t54 -28.5l-6 -30q-71 18 -104 53z" />
    <glyph glyph-name="bar" unicode="|" horiz-adv-x="242" 
d="M-6 -190l153 870h90l-153 -870h-90z" />
    <glyph glyph-name="braceright" unicode="}" horiz-adv-x="304" 
d="M-51 -180q52 14 73.5 38.5t29.5 71.5l30 170q11 59 42 92t88 48q-43 13 -63.5 37t-20.5 65q0 26 4.5 51.5t13.5 66.5q10 46 14.5 71.5t4.5 54.5q0 28 -15.5 45t-53.5 29l5 30q71 -18 104 -53.5t33 -87.5q0 -22 -4.5 -49t-10.5 -52q-8 -35 -12 -58.5t-4 -47.5
q0 -35 19.5 -58t62.5 -29l-5 -30q-100 -14 -120 -115l-25 -140q-12 -70 -58 -113.5t-138 -66.5z" />
    <glyph glyph-name="asciitilde" unicode="~" horiz-adv-x="632" 
d="M367 191q-32 11 -75 32q-38 19 -63.5 28t-50.5 9q-37 0 -62 -19.5t-30 -50.5h-40q13 70 54 105t91 35q35 0 67 -11t76 -32q38 -19 63 -28t50 -9q37 0 62 19.5t30 50.5h40q-13 -70 -54.5 -105t-90.5 -35q-35 0 -67 11z" />
    <glyph glyph-name="uni00A0" unicode="&#xa0;" horiz-adv-x="250" 
 />
    <glyph glyph-name="exclamdown" unicode="&#xa1;" horiz-adv-x="222" 
d="M95 385q-13 13 -13 32q0 23 20 43t45 20q20 0 32.5 -12.5t12.5 -32.5q0 -24 -19 -43.5t-45 -19.5q-20 0 -33 13zM-19 -194l107 505h58l-71 -505h-94z" />
    <glyph glyph-name="cent" unicode="&#xa2;" horiz-adv-x="485" 
d="M190 -10q-81 6 -122 56t-41 129q0 73 29.5 139.5t86 111t133.5 54.5l7 40h40l-7 -40q52 0 92.5 -16.5t40.5 -61.5q0 -23 -5 -50t-7 -37h-20q1 8 1 22q0 51 -29.5 77t-79.5 26l-72 -410q51 0 87.5 19.5t71.5 60.5l17 -15q-39 -51 -83.5 -76t-99.5 -29l-7 -40h-40zM268 435
q-49 -15 -82 -57t-48.5 -97t-15.5 -110q0 -53 19 -89t57 -47z" />
    <glyph glyph-name="sterling" unicode="&#xa3;" horiz-adv-x="531" 
d="M-10 25q46 12 74 55.5t45 139.5l18 100h-70l7 40h70l18 100q22 123 76 166.5t136 43.5q65 0 111.5 -14.5t46.5 -66.5q0 -17 -5 -44h-45q-3 47 -26.5 66t-68.5 19q-51 0 -84.5 -36t-50.5 -134l-18 -100h140l-7 -40h-140l-18 -100q-12 -69 -33.5 -112.5t-52.5 -67.5h185
q123 0 145 115h20l-13 -75q-7 -36 -29 -58t-70 -22h-365z" />
    <glyph glyph-name="currency" unicode="&#xa4;" horiz-adv-x="577" 
d="M111 200h-60l7 40h60l9 50h-60l7 40h60l37 210q4 21 4 43q0 28 -13 42.5t-44 14.5h-20l4 20h260q97 0 159 -34.5t62 -110.5q0 -74 -39.5 -125t-104.5 -75.5t-142 -24.5h-80l-9 -50h260l-7 -40h-260l-35 -200h-90zM304 330q49 1 90 25t65 65t24 93q0 55 -36.5 83.5
t-95.5 28.5q-35 0 -77 -10l-50 -285h80z" />
    <glyph glyph-name="yen" unicode="&#xa5;" horiz-adv-x="692" 
d="M315 145h-95l7 40h95l7 40h-95l7 40h95l2 8l-125 257q-27 54 -52.5 80.5t-73.5 29.5l4 20h90q50 0 79 -29.5t51 -80.5l106 -225l268 335h45l-301 -380l-3 -15h95l-7 -40h-95l-7 -40h95l-7 -40h-95l-25 -145h-90z" />
    <glyph glyph-name="brokenbar" unicode="&#xa6;" horiz-adv-x="249" 
d="M89 330l61 350h90l-61 -350h-90zM-3 -190l62 350h90l-62 -350h-90z" />
    <glyph glyph-name="section" unicode="&#xa7;" horiz-adv-x="433" 
d="M32.5 -181q-42.5 19 -42.5 65q0 13 3.5 33t4.5 28h20v-6q0 -47 23 -73t63 -26q49 0 83.5 30.5t34.5 80.5q0 37 -22 62t-66 56q-32 24 -50 40t-31 39t-13 53q0 57 36.5 100.5t96.5 68.5q-67 48 -67 122q0 49 24.5 89.5t67 64.5t93.5 24q52 0 94.5 -19t42.5 -65
q0 -13 -3.5 -33t-4.5 -28h-20v6q0 47 -23 73t-63 26q-49 0 -83.5 -30.5t-34.5 -80.5q0 -37 22 -62t66 -56q32 -24 50 -40t31 -39t13 -53q0 -58 -36.5 -102t-97.5 -67q68 -51 68 -122q0 -49 -24.5 -89.5t-67 -64.5t-93.5 -24q-52 0 -94.5 19zM272.5 163.5
q24.5 28.5 24.5 68.5q0 33 -23 60.5t-66 54.5q-37 -10 -62 -39t-25 -69q0 -33 23 -61t66 -55q38 12 62.5 40.5z" />
    <glyph glyph-name="dieresis" unicode="&#xa8;" horiz-adv-x="310" 
d="M120 701q-11 11 -11 29q0 24 17 42t43 18q20 0 31 -11t11 -29q0 -24 -17 -42t-43 -18q-20 0 -31 11zM290 701q-11 11 -11 29q0 24 17 42t43 18q20 0 31 -11t11 -29q0 -24 -17 -42t-43 -18q-20 0 -31 11z" />
    <glyph glyph-name="copyright" unicode="&#xa9;" horiz-adv-x="789" 
d="M184.5 11q-67.5 36 -104.5 101t-37 149q0 108 56.5 206t153.5 158t213 60q89 0 157 -36t105 -101t37 -149q0 -108 -57 -206t-154.5 -158t-212.5 -60q-89 0 -156.5 36zM534.5 66q86.5 51 138.5 138t52 189q0 76 -32.5 133t-92.5 88t-141 31q-100 0 -186.5 -51.5
t-138 -138.5t-51.5 -190q0 -74 32.5 -130.5t92.5 -88t140 -31.5q100 0 186.5 51zM242.5 153q-43.5 48 -43.5 125q0 63 32 129.5t88.5 110.5t125.5 44q53 0 100 -19.5t47 -66.5q0 -21 -7 -61l-1 -3h-13q-1 124 -111 124q-62 0 -107 -38.5t-68 -98t-23 -122.5
q0 -64 31.5 -104.5t95.5 -40.5q48 0 87 22.5t75 68.5l11 -10q-40 -59 -88 -83.5t-110 -24.5q-78 0 -121.5 48z" />
    <glyph glyph-name="ordfeminine" unicode="&#xaa;" horiz-adv-x="321" 
d="M102.5 408q-20.5 12 -20.5 43q0 51 46.5 73.5t107.5 22.5h16q4 17 4 39q0 30 -11.5 41t-32.5 11q-24 0 -40 -10t-27 -35h-25q3 17 7 27.5t16 20.5q19 19 83 19q37 0 59.5 -16t22.5 -60q0 -9 -11 -72q-3 -17 -7.5 -44t-11.5 -67h-30l-17 25q-30 -30 -81 -30
q-27 0 -47.5 12zM235 453l13 72h-16q-36 0 -66.5 -18.5t-30.5 -53.5q0 -17 10 -26t28 -9q34 0 62 35z" />
    <glyph glyph-name="guillemotleft" unicode="&#xab;" horiz-adv-x="375" 
d="M148 30l-121 195l190 195h40l-130 -195l61 -195h-40zM242 80l-75 145l126 145h40l-86 -145l35 -145h-40z" />
    <glyph glyph-name="logicalnot" unicode="&#xac;" horiz-adv-x="656" 
d="M502 130l18 100h-460l11 60h520l-29 -160h-60z" />
    <glyph glyph-name="uni00AD" unicode="&#xad;" horiz-adv-x="389" 
d="M59 230l12 70h255l-12 -70h-255z" />
    <glyph glyph-name="registered" unicode="&#xae;" horiz-adv-x="789" 
d="M184.5 11q-67.5 36 -104.5 101t-37 149q0 108 56.5 206t153.5 158t213 60q89 0 157 -36t105 -101t37 -149q0 -108 -57 -206t-154.5 -158t-212.5 -60q-89 0 -156.5 36zM534.5 66q86.5 51 138.5 138t52 189q0 76 -32.5 133t-92.5 88t-141 31q-100 0 -186.5 -51.5
t-138 -138.5t-51.5 -190q0 -74 32.5 -130.5t92.5 -88t140 -31.5q100 0 186.5 51zM473 138q-20 20 -43 73l-48 112h-48l-34 -198h-58l61 349q3 17 3 30q0 18 -8 26.5t-28 8.5h-13l2 13h168q56 0 99.5 -19.5t43.5 -74.5q0 -52 -34 -86.5t-90 -44.5l52 -116q18 -40 33 -55.5
t39 -18.5l-2 -12q-12 -7 -44 -7q-31 0 -51 20zM441.5 359q27.5 14 45.5 39.5t18 55.5q0 36 -27.5 56t-57.5 20q-20 0 -50 -7l-30 -171q28 -7 47 -7q27 0 54.5 14z" />
    <glyph glyph-name="macron" unicode="&#xaf;" horiz-adv-x="250" 
d="M100 560v60h255v-60h-255z" />
    <glyph glyph-name="degree" unicode="&#xb0;" horiz-adv-x="412" 
d="M122.5 397q-37.5 37 -37.5 94q0 47 26 91t70 71t95 27q60 0 97.5 -37t37.5 -94q0 -47 -26 -91t-70 -71t-95 -27q-60 0 -97.5 37zM288.5 432.5q27.5 17.5 44.5 47t17 61.5q0 37 -23.5 60.5t-59.5 23.5q-30 0 -58.5 -17.5t-45.5 -46t-17 -60.5q0 -38 23.5 -62t60.5 -24
q31 0 58.5 17.5z" />
    <glyph glyph-name="plusminus" unicode="&#xb1;" horiz-adv-x="575" 
d="M21 60l11 60h200l31 180h-200l11 60h200l35 200h60l-35 -200h200l-11 -60h-200l-31 -180h200l-11 -60h-460z" />
    <glyph glyph-name="uni00B2" unicode="&#xb2;" horiz-adv-x="322" 
d="M82 400l33 27q69 54 109 98.5t40 94.5q0 24 -12.5 35.5t-33.5 11.5q-58 0 -86 -74h-12q4 24 8 37t14 23q16 16 41.5 26t51.5 10q33 0 57 -14.5t24 -51.5q0 -38 -23 -72.5t-54.5 -61.5t-80.5 -63q-19 -13 -36 -27h91q28 0 44 10t21 34h12l-6 -30q-6 -36 -45 -36h-161z" />
    <glyph glyph-name="uni00B3" unicode="&#xb3;" horiz-adv-x="312" 
d="M111.5 379q-20.5 12 -35.5 37l11 9q27 -36 78 -36q33 0 55.5 26.5t22.5 62.5q0 25 -13.5 38t-33.5 13q-31 0 -54 -6l-10 24l143 111h-84q-58 0 -65 -45h-9l5 30q6 37 45 37h151l-3 -18l-148 -115q17 4 42 4q33 0 60 -17.5t27 -53.5q0 -50 -39 -81.5t-92 -31.5
q-33 0 -53.5 12z" />
    <glyph glyph-name="acute" unicode="&#xb4;" horiz-adv-x="175" 
d="M103 700l63 130h95l-118 -130h-40z" />
    <glyph glyph-name="uni00B5" unicode="&#xb5;" horiz-adv-x="531" 
d="M108 470h90l-41 -235q-7 -39 -7 -78q0 -60 21 -93.5t65 -33.5q38 0 65.5 16.5t49.5 43.5l67 380h90l-82 -470h-50l-28 45h-5q-24 -25 -52.5 -40t-71.5 -15q-61 0 -97 45l-40 -225h-90z" />
    <glyph glyph-name="paragraph" unicode="&#xb6;" horiz-adv-x="603" 
d="M261 290q-89 0 -145 41t-56 112q0 64 38 113.5t99.5 76.5t128.5 27h300l-7 -40h-55l-143 -810h-90l143 810h-65l-143 -810h-90z" />
    <glyph glyph-name="periodcentered" unicode="&#xb7;" horiz-adv-x="232" 
d="M81.5 288.5q-12.5 12.5 -12.5 32.5q0 25 19 44.5t45 19.5q21 0 33.5 -13t12.5 -32q0 -24 -19.5 -44t-45.5 -20q-20 0 -32.5 12.5z" />
    <glyph glyph-name="cedilla" unicode="&#xb8;" horiz-adv-x="180" 
d="M-28 -155h50q19 0 33 10.5t14 29.5q0 25 -35 25h-45l16 90h45l-9 -50h10q31 0 49.5 -15t18.5 -43q0 -38 -27 -63t-67 -25h-60z" />
    <glyph glyph-name="uni00B9" unicode="&#xb9;" horiz-adv-x="211" 
d="M106 377l44 247l-46 -24l-8 16l76 64h39l-53 -303h-52z" />
    <glyph glyph-name="ordmasculine" unicode="&#xba;" horiz-adv-x="336" 
d="M91 474q0 55 17.5 104.5t51 80t79.5 30.5q47 0 70 -28t23 -80q0 -55 -18 -104t-52 -79.5t-80 -30.5q-91 0 -91 107zM235 420.5q22 31.5 34.5 79.5t12.5 94q0 73 -47 73q-26 0 -47.5 -32t-34 -80.5t-12.5 -93.5q0 -72 45 -72q27 0 49 31.5z" />
    <glyph glyph-name="guillemotright" unicode="&#xbb;" horiz-adv-x="375" 
d="M100 30l129 195l-60 195h40l120 -195l-189 -195h-40zM24 80l85 145l-34 145h40l74 -145l-125 -145h-40z" />
    <glyph glyph-name="onequarter" unicode="&#xbc;" horiz-adv-x="597" 
d="M124 377l44 247l-46 -24l-8 16l76 64h39l-53 -303h-52zM-19 0l571 660h65l-571 -660h-65zM412 0l13 78h-152l4 19l193 207h47l-36 -204h41l-4 -22h-41l-13 -78h-52zM311 100h118l27 155z" />
    <glyph glyph-name="onehalf" unicode="&#xbd;" horiz-adv-x="613" 
d="M124 377l44 247l-46 -24l-8 16l76 64h39l-53 -303h-52zM-19 0l571 660h65l-571 -660h-65zM319 23q32 30 77 67q42 35 61.5 54.5t31 43.5t11.5 56q0 23 -12 34.5t-33 11.5q-29 0 -51.5 -18.5t-34.5 -55.5h-12q4 22 8 36t13 24q16 16 42 26t52 10q31 0 55.5 -14.5
t24.5 -51.5q0 -34 -15 -61t-39 -49t-68 -56q-38 -28 -72 -58h91q28 0 44 10t21 34h12l-5 -30q-6 -36 -45 -36h-161z" />
    <glyph glyph-name="threequarters" unicode="&#xbe;" horiz-adv-x="617" 
d="M102.5 379q-20.5 12 -35.5 37l11 9q27 -36 78 -36q31 0 54.5 24.5t23.5 64.5q0 25 -13.5 38t-33.5 13q-31 0 -54 -6l-10 24l143 111h-84q-58 0 -65 -45h-9l5 30q6 37 45 37h151l-3 -18l-148 -115q17 4 42 4q33 0 60 -17.5t27 -53.5q0 -42 -22 -67t-52 -35.5t-57 -10.5
q-33 0 -53.5 12zM10 0l571 660h65l-571 -660h-65zM430 0l13 78h-152l4 19l193 207h47l-36 -204h41l-4 -22h-41l-13 -78h-52zM329 100h118l27 155z" />
    <glyph glyph-name="questiondown" unicode="&#xbf;" horiz-adv-x="478" 
d="M245 384q-13 12 -13 32q0 26 19.5 45.5t45.5 19.5q21 0 33.5 -13t12.5 -32q0 -26 -20 -45t-45 -19q-20 0 -33 12zM25 -180.5q-51 31.5 -51 111.5q0 56 19.5 96.5t47 67.5t75.5 64q54 42 85 74.5t47 78.5h40q-11 -51 -38 -89.5t-72 -85.5q-35 -37 -55.5 -63t-34 -59.5
t-13.5 -74.5q0 -54 30 -83t77 -29q62 0 114.5 44.5t81.5 125.5h20q0 -28 -14 -69t-34 -61q-34 -34 -90.5 -57t-114.5 -23q-69 0 -120 31.5z" />
    <glyph glyph-name="Agrave" unicode="&#xc0;" horiz-adv-x="634" 
d="M486.5 21.5q-41.5 26.5 -57.5 103.5l-14 65h-280l-113 -190h-45l396 660h30l126 -535q12 -57 31 -79t60 -26l-3 -20q-20 -5 -41 -5q-48 0 -89.5 26.5zM157 230h245l-69 290zM371 715l-72 130h95l17 -130h-40z" />
    <glyph glyph-name="Aacute" unicode="&#xc1;" horiz-adv-x="634" 
d="M486.5 21.5q-41.5 26.5 -57.5 103.5l-14 65h-280l-113 -190h-45l396 660h30l126 -535q12 -57 31 -79t60 -26l-3 -20q-20 -5 -41 -5q-48 0 -89.5 26.5zM157 230h245l-69 290zM380 700l63 130h95l-118 -130h-40z" />
    <glyph glyph-name="Acircumflex" unicode="&#xc2;" horiz-adv-x="634" 
d="M486.5 21.5q-41.5 26.5 -57.5 103.5l-14 65h-280l-113 -190h-45l396 660h30l126 -535q12 -57 31 -79t60 -26l-3 -20q-20 -5 -41 -5q-48 0 -89.5 26.5zM157 230h245l-69 290zM257 685l100 115h110l60 -115h-50l-71 80l-99 -80h-50z" />
    <glyph glyph-name="Atilde" unicode="&#xc3;" horiz-adv-x="634" 
d="M486.5 21.5q-41.5 26.5 -57.5 103.5l-14 65h-280l-113 -190h-45l396 660h30l126 -535q12 -57 31 -79t60 -26l-3 -20q-20 -5 -41 -5q-48 0 -89.5 26.5zM157 230h245l-69 290zM315 773.5q18 21.5 49 21.5q15 0 26.5 -5.5t24.5 -15.5q2 -1 11 -7t18 -9t18 -3q11 0 23 13.5
t14 26.5h30q-9 -52 -27.5 -73.5t-49.5 -21.5q-14 0 -24 5t-26 15q-14 10 -24.5 15t-23.5 5q-11 0 -23 -13.5t-14 -26.5h-30q10 52 28 73.5z" />
    <glyph glyph-name="Adieresis" unicode="&#xc4;" horiz-adv-x="634" 
d="M486.5 21.5q-41.5 26.5 -57.5 103.5l-14 65h-280l-113 -190h-45l396 660h30l126 -535q12 -57 31 -79t60 -26l-3 -20q-20 -5 -41 -5q-48 0 -89.5 26.5zM157 230h245l-69 290zM290.5 735q-10.5 10 -10.5 26q0 21 15.5 37.5t38.5 16.5q17 0 27.5 -10.5t10.5 -26.5
q0 -20 -16.5 -36.5t-37.5 -16.5q-17 0 -27.5 10zM460.5 735q-10.5 10 -10.5 26q0 21 15.5 37.5t38.5 16.5q17 0 27.5 -10.5t10.5 -26.5q0 -20 -16.5 -36.5t-37.5 -16.5q-17 0 -27.5 10z" />
    <glyph glyph-name="Aring" unicode="&#xc5;" horiz-adv-x="634" 
d="M486.5 21.5q-41.5 26.5 -57.5 103.5l-14 65h-280l-113 -190h-45l375 625q-18 8 -30.5 23.5t-12.5 39.5q0 25 14.5 48.5t38 38.5t49.5 15q30 0 50.5 -21t20.5 -51t-19 -54t-51 -39l117 -500q12 -57 31 -79t60 -26l-3 -20q-20 -5 -41 -5q-48 0 -89.5 26.5zM408 660
q15 9 24.5 23.5t9.5 32.5t-10 28.5t-27 10.5q-22 0 -38.5 -18t-16.5 -42q0 -21 18 -35h40zM157 230h245l-69 290z" />
    <glyph glyph-name="AE" unicode="&#xc6;" horiz-adv-x="870" 
d="M428 660h361q73 0 73 -58q0 -2 -4 -26l-11 -71h-20q3 17 3 30q0 85 -108 85h-186l-46 -260h270l-7 -40h-270l-49 -280h175q69 0 112.5 25t76.5 85l19 -5l-52 -95q-26 -50 -83 -50h-345l33 190h-240l-138 -190h-50zM162 230h215l68 385z" />
    <glyph glyph-name="Ccedilla" unicode="&#xc7;" horiz-adv-x="666" 
d="M248 -155h50q19 0 33 10.5t14 29.5q0 25 -35 25h-45l12 70q-72 4 -124.5 39t-80 94t-27.5 132q0 97 50.5 199t137.5 169t192 67q48 0 99.5 -11.5t89.5 -40.5t38 -78q0 -23 -8 -73l-4 -27h-20q-2 97 -45 143.5t-127 46.5q-97 0 -165.5 -58.5t-103 -150.5t-34.5 -190
q0 -97 47.5 -159t146.5 -62q73 0 134 35t116 105l17 -15q-60 -85 -128.5 -123t-155.5 -42l-5 -30h10q31 0 49.5 -15t18.5 -43q0 -38 -26.5 -62t-67.5 -26h-60z" />
    <glyph glyph-name="Egrave" unicode="&#xc8;" horiz-adv-x="593" 
d="M120 348q10 61 24.5 144t14.5 91q0 28 -13 42.5t-44 14.5h-20l4 20h426q73 0 73 -58q0 -2 -4 -26l-11 -71h-20q3 17 3 30q0 85 -108 85h-186l-46 -260h270l-7 -40h-270l-49 -280h175q69 0 112.5 25t76.5 85l19 -5l-52 -95q-26 -50 -83 -50h-345zM351 715l-72 130h95
l17 -130h-40z" />
    <glyph glyph-name="Eacute" unicode="&#xc9;" horiz-adv-x="593" 
d="M120 348q10 61 24.5 144t14.5 91q0 28 -13 42.5t-44 14.5h-20l4 20h426q73 0 73 -58q0 -2 -4 -26l-11 -71h-20q3 17 3 30q0 85 -108 85h-186l-46 -260h270l-7 -40h-270l-49 -280h175q69 0 112.5 25t76.5 85l19 -5l-52 -95q-26 -50 -83 -50h-345zM353 700l63 130h95
l-118 -130h-40z" />
    <glyph glyph-name="Ecircumflex" unicode="&#xca;" horiz-adv-x="593" 
d="M120 348q10 61 24.5 144t14.5 91q0 28 -13 42.5t-44 14.5h-20l4 20h426q73 0 73 -58q0 -2 -4 -26l-11 -71h-20q3 17 3 30q0 85 -108 85h-186l-46 -260h270l-7 -40h-270l-49 -280h175q69 0 112.5 25t76.5 85l19 -5l-52 -95q-26 -50 -83 -50h-345zM247 721l100 115h110
l60 -115h-50l-71 80l-99 -80h-50z" />
    <glyph glyph-name="Edieresis" unicode="&#xcb;" horiz-adv-x="593" 
d="M120 348q10 61 24.5 144t14.5 91q0 28 -13 42.5t-44 14.5h-20l4 20h426q73 0 73 -58q0 -2 -4 -26l-11 -71h-20q3 17 3 30q0 85 -108 85h-186l-46 -260h270l-7 -40h-270l-49 -280h175q69 0 112.5 25t76.5 85l19 -5l-52 -95q-26 -50 -83 -50h-345zM258 741q-11 11 -11 29
q0 24 17 42t43 18q20 0 31 -11t11 -29q0 -24 -17 -42t-43 -18q-20 0 -31 11zM428 741q-11 11 -11 29q0 24 17 42t43 18q20 0 31 -11t11 -29q0 -24 -17 -42t-43 -18q-20 0 -31 11z" />
    <glyph glyph-name="Igrave" unicode="&#xcc;" horiz-adv-x="289" 
d="M73.5 12.5q-17.5 12.5 -17.5 48.5q0 17 7 59l95 540h90l-95 -540q-5 -32 -5 -45q0 -28 13 -41.5t44 -13.5h20l-3 -20h-90q-41 0 -58.5 12.5zM183 715l-72 130h95l17 -130h-40z" />
    <glyph glyph-name="Iacute" unicode="&#xcd;" horiz-adv-x="289" 
d="M73.5 12.5q-17.5 12.5 -17.5 48.5q0 17 7 59l95 540h90l-95 -540q-5 -32 -5 -45q0 -28 13 -41.5t44 -13.5h20l-3 -20h-90q-41 0 -58.5 12.5zM185 700l63 130h95l-118 -130h-40z" />
    <glyph glyph-name="Icircumflex" unicode="&#xce;" horiz-adv-x="289" 
d="M73.5 12.5q-17.5 12.5 -17.5 48.5q0 17 7 59l95 540h90l-95 -540q-5 -32 -5 -45q0 -28 13 -41.5t44 -13.5h20l-3 -20h-90q-41 0 -58.5 12.5zM75 695l100 115h110l60 -115h-50l-71 80l-99 -80h-50z" />
    <glyph glyph-name="Idieresis" unicode="&#xcf;" horiz-adv-x="289" 
d="M73.5 12.5q-17.5 12.5 -17.5 48.5q0 17 7 59l95 540h90l-95 -540q-5 -32 -5 -45q0 -28 13 -41.5t44 -13.5h20l-3 -20h-90q-41 0 -58.5 12.5zM102.5 735q-10.5 10 -10.5 26q0 21 15.5 37.5t38.5 16.5q17 0 27.5 -10.5t10.5 -26.5q0 -20 -16.5 -36.5t-37.5 -16.5
q-17 0 -27.5 10zM272.5 735q-10.5 10 -10.5 26q0 21 15.5 37.5t38.5 16.5q17 0 27.5 -10.5t10.5 -26.5q0 -20 -16.5 -36.5t-37.5 -16.5q-17 0 -27.5 10z" />
    <glyph glyph-name="Eth" unicode="&#xd0;" horiz-adv-x="716" 
d="M113 310h-75l7 40h75l34 190q4 21 4 43q0 28 -13 42.5t-44 14.5h-20l4 20h262q170 0 256 -67t86 -188q0 -115 -56 -207.5t-154.5 -145t-221.5 -52.5h-198zM424 87q73 52 114 135.5t41 175.5q0 104 -58.5 165.5t-158.5 61.5q-46 0 -103 -16l-46 -259h87l-7 -40h-87
l-46 -262q56 -13 100 -13q91 0 164 52z" />
    <glyph glyph-name="Ntilde" unicode="&#xd1;" horiz-adv-x="687" 
d="M194 525l-92 -525h-40l44 253q54 308 54 319q0 34 -17.5 51t-58.5 17h-10l4 20h65q47 0 76.5 -15.5t47.5 -44.5l274 -435l87 495h40l-118 -670h-20zM339 767.5q18 21.5 49 21.5q15 0 26.5 -5.5t24.5 -15.5q2 -1 11 -7t18 -9t18 -3q11 0 23 13.5t14 26.5h30
q-9 -52 -27.5 -73.5t-49.5 -21.5q-14 0 -24 5t-26 15q-14 10 -24.5 15t-23.5 5q-11 0 -23 -13.5t-14 -26.5h-30q10 52 28 73.5z" />
    <glyph glyph-name="Ograve" unicode="&#xd2;" horiz-adv-x="712" 
d="M165.5 15q-57.5 35 -87.5 96t-30 140q0 102 47.5 201.5t133.5 163.5t197 64q80 0 138 -35t88 -97t30 -141q0 -102 -47.5 -201t-134 -162.5t-197.5 -63.5q-80 0 -137.5 35zM461 84.5q62 64.5 92.5 159t30.5 183.5q0 101 -42.5 157t-122.5 56q-90 0 -151.5 -65t-91.5 -160
t-30 -184q0 -101 42 -156t122 -55q89 0 151 64.5zM410 715l-72 130h95l17 -130h-40z" />
    <glyph glyph-name="Oacute" unicode="&#xd3;" horiz-adv-x="712" 
d="M165.5 15q-57.5 35 -87.5 96t-30 140q0 102 47.5 201.5t133.5 163.5t197 64q80 0 138 -35t88 -97t30 -141q0 -102 -47.5 -201t-134 -162.5t-197.5 -63.5q-80 0 -137.5 35zM461 84.5q62 64.5 92.5 159t30.5 183.5q0 101 -42.5 157t-122.5 56q-90 0 -151.5 -65t-91.5 -160
t-30 -184q0 -101 42 -156t122 -55q89 0 151 64.5zM412 720l63 130h95l-118 -130h-40z" />
    <glyph glyph-name="Ocircumflex" unicode="&#xd4;" horiz-adv-x="712" 
d="M165.5 15q-57.5 35 -87.5 96t-30 140q0 102 47.5 201.5t133.5 163.5t197 64q80 0 138 -35t88 -97t30 -141q0 -102 -47.5 -201t-134 -162.5t-197.5 -63.5q-80 0 -137.5 35zM461 84.5q62 64.5 92.5 159t30.5 183.5q0 101 -42.5 157t-122.5 56q-90 0 -151.5 -65t-91.5 -160
t-30 -184q0 -101 42 -156t122 -55q89 0 151 64.5zM293 720l100 115h110l60 -115h-50l-71 80l-99 -80h-50z" />
    <glyph glyph-name="Otilde" unicode="&#xd5;" horiz-adv-x="712" 
d="M165.5 15q-57.5 35 -87.5 96t-30 140q0 102 47.5 201.5t133.5 163.5t197 64q80 0 138 -35t88 -97t30 -141q0 -102 -47.5 -201t-134 -162.5t-197.5 -63.5q-80 0 -137.5 35zM461 84.5q62 64.5 92.5 159t30.5 183.5q0 101 -42.5 157t-122.5 56q-90 0 -151.5 -65t-91.5 -160
t-30 -184q0 -101 42 -156t122 -55q89 0 151 64.5zM351 811.5q18 21.5 49 21.5q15 0 26.5 -5.5t24.5 -15.5q2 -1 11 -7t18 -9t18 -3q11 0 23 13.5t14 26.5h30q-9 -52 -27.5 -73.5t-49.5 -21.5q-14 0 -24 5t-26 15q-14 10 -24.5 15t-23.5 5q-11 0 -23 -13.5t-14 -26.5h-30
q10 52 28 73.5z" />
    <glyph glyph-name="Odieresis" unicode="&#xd6;" horiz-adv-x="712" 
d="M165.5 15q-57.5 35 -87.5 96t-30 140q0 102 47.5 201.5t133.5 163.5t197 64q80 0 138 -35t88 -97t30 -141q0 -102 -47.5 -201t-134 -162.5t-197.5 -63.5q-80 0 -137.5 35zM461 84.5q62 64.5 92.5 159t30.5 183.5q0 101 -42.5 157t-122.5 56q-90 0 -151.5 -65t-91.5 -160
t-30 -184q0 -101 42 -156t122 -55q89 0 151 64.5zM329.5 735q-10.5 10 -10.5 26q0 21 15.5 37.5t38.5 16.5q17 0 27.5 -10.5t10.5 -26.5q0 -20 -16.5 -36.5t-37.5 -16.5q-17 0 -27.5 10zM499.5 735q-10.5 10 -10.5 26q0 21 15.5 37.5t38.5 16.5q17 0 27.5 -10.5t10.5 -26.5
q0 -20 -16.5 -36.5t-37.5 -16.5q-17 0 -27.5 10z" />
    <glyph glyph-name="multiply" unicode="&#xd7;" horiz-adv-x="471" 
d="M71 149l-35 43l166 141l-116 142l50 42l117 -142l166 142l34 -43l-166 -141l116 -142l-49 -42l-117 142z" />
    <glyph glyph-name="Oslash" unicode="&#xd8;" horiz-adv-x="712" 
d="M122 48q-36 37 -55 88.5t-19 114.5q0 102 47.5 201.5t133.5 163.5t197 64q72 0 129 -30l22 30h73l-47 -65q38 -37 58.5 -90t20.5 -118q0 -102 -47.5 -201t-134 -162.5t-197.5 -63.5q-78 0 -134 32l-23 -32h-73zM522 604q-40 36 -103 36q-90 0 -152 -65.5t-92 -161
t-30 -184.5q0 -70 22 -118zM461 84q62 64 92.5 158.5t30.5 183.5q0 77 -25 128l-356 -495q42 -39 107 -39q89 0 151 64z" />
    <glyph glyph-name="Ugrave" unicode="&#xd9;" horiz-adv-x="687" 
d="M138 36q-50 46 -50 141q0 45 11 108l45 255q4 21 4 43q0 28 -13 42.5t-44 14.5h-20l4 20h90q41 0 58.5 -12.5t17.5 -48.5q0 -17 -7 -59l-51 -285q-8 -46 -8 -78q0 -72 35 -109.5t111 -37.5t125 27t78 82t45 146l66 375h40l-66 -375q-19 -104 -51.5 -167.5t-94 -95.5
t-161.5 -32q-114 0 -164 46zM398 715l-72 130h95l17 -130h-40z" />
    <glyph glyph-name="Uacute" unicode="&#xda;" horiz-adv-x="687" 
d="M138 36q-50 46 -50 141q0 45 11 108l45 255q4 21 4 43q0 28 -13 42.5t-44 14.5h-20l4 20h90q41 0 58.5 -12.5t17.5 -48.5q0 -17 -7 -59l-51 -285q-8 -46 -8 -78q0 -72 35 -109.5t111 -37.5t125 27t78 82t45 146l66 375h40l-66 -375q-19 -104 -51.5 -167.5t-94 -95.5
t-161.5 -32q-114 0 -164 46zM398 681l63 130h95l-118 -130h-40z" />
    <glyph glyph-name="Ucircumflex" unicode="&#xdb;" horiz-adv-x="687" 
d="M138 36q-50 46 -50 141q0 45 11 108l45 255q4 21 4 43q0 28 -13 42.5t-44 14.5h-20l4 20h90q41 0 58.5 -12.5t17.5 -48.5q0 -17 -7 -59l-51 -285q-8 -46 -8 -78q0 -72 35 -109.5t111 -37.5t125 27t78 82t45 146l66 375h40l-66 -375q-19 -104 -51.5 -167.5t-94 -95.5
t-161.5 -32q-114 0 -164 46zM307 671l100 115h110l60 -115h-50l-71 80l-99 -80h-50z" />
    <glyph glyph-name="Udieresis" unicode="&#xdc;" horiz-adv-x="687" 
d="M138 36q-50 46 -50 141q0 45 11 108l45 255q4 21 4 43q0 28 -13 42.5t-44 14.5h-20l4 20h90q41 0 58.5 -12.5t17.5 -48.5q0 -17 -7 -59l-51 -285q-8 -46 -8 -78q0 -72 35 -109.5t111 -37.5t125 27t78 82t45 146l66 375h40l-66 -375q-19 -104 -51.5 -167.5t-94 -95.5
t-161.5 -32q-114 0 -164 46zM317.5 735q-10.5 10 -10.5 26q0 21 15.5 37.5t38.5 16.5q17 0 27.5 -10.5t10.5 -26.5q0 -20 -16.5 -36.5t-37.5 -16.5q-17 0 -27.5 10zM487.5 735q-10.5 10 -10.5 26q0 21 15.5 37.5t38.5 16.5q17 0 27.5 -10.5t10.5 -26.5q0 -20 -16.5 -36.5
t-37.5 -16.5q-17 0 -27.5 10z" />
    <glyph glyph-name="Yacute" unicode="&#xdd;" horiz-adv-x="629" 
d="M286 273l-125 257q-27 54 -52.5 80.5t-73.5 29.5l4 20h90q50 0 79 -29.5t51 -80.5l106 -225l268 335h45l-301 -380l-49 -280h-90zM381 671l63 130h95l-118 -130h-40z" />
    <glyph glyph-name="Thorn" unicode="&#xde;" horiz-adv-x="537" 
d="M82 115q88 502 88 508q0 47 -59 47h-20l3 20h90q43 0 60.5 -12t17.5 -42q0 -12 -9 -62l-4 -24q135 0 204 -46.5t69 -139.5q0 -140 -99.5 -210t-255.5 -74l-20 -110h-90q24 138 25 145zM302.5 149q56.5 29 88 84t31.5 130q0 70 -43.5 108.5t-136.5 38.5l-68 -390
q72 0 128.5 29z" />
    <glyph glyph-name="germandbls" unicode="&#xdf;" horiz-adv-x="554" 
d="M240.5 9.5q-41.5 19.5 -41.5 65.5q0 20 4 35h20v-3q0 -31 27 -54t69 -23q36 0 64.5 23.5t28.5 61.5q0 29 -19 49.5t-57 46.5q-44 31 -66 55.5t-22 62.5q0 39 19.5 65t59.5 60q37 30 56 55t19 60q0 61 -77 61q-51 0 -81 -29t-42 -101l-88 -500h-90l88 500
q17 97 75.5 133.5t149.5 36.5q74 0 113.5 -23.5t39.5 -62.5q0 -35 -19.5 -60.5t-58.5 -58.5q-37 -31 -55.5 -54.5t-18.5 -55.5q0 -29 19 -49.5t57 -46.5q43 -29 65.5 -54t22.5 -64q0 -44 -23 -78.5t-62 -53.5t-85 -19q-50 0 -91.5 19.5z" />
    <glyph glyph-name="agrave" unicode="&#xe0;" horiz-adv-x="525" 
d="M68.5 38q-36.5 48 -36.5 125q0 73 27.5 143.5t82 119t131.5 54.5q82 0 115 -55h5l43 45h50l-67 -383l-15 -87h-50l-28 45h-5q-23 -24 -56.5 -39.5t-87.5 -15.5q-72 0 -108.5 48zM280.5 46q25.5 16 48.5 44l52 290q-17 30 -34 45t-51 15q-57 0 -95 -46.5t-56 -113
t-18 -123.5q0 -58 21 -92.5t66 -34.5q41 0 66.5 16zM303 525l-72 130h95l17 -130h-40z" />
    <glyph glyph-name="aacute" unicode="&#xe1;" horiz-adv-x="525" 
d="M68.5 38q-36.5 48 -36.5 125q0 73 27.5 143.5t82 119t131.5 54.5q82 0 115 -55h5l43 45h50l-67 -383l-15 -87h-50l-28 45h-5q-23 -24 -56.5 -39.5t-87.5 -15.5q-72 0 -108.5 48zM280.5 46q25.5 16 48.5 44l52 290q-17 30 -34 45t-51 15q-57 0 -95 -46.5t-56 -113
t-18 -123.5q0 -58 21 -92.5t66 -34.5q41 0 66.5 16zM281 526l63 130h95l-118 -130h-40z" />
    <glyph glyph-name="acircumflex" unicode="&#xe2;" horiz-adv-x="525" 
d="M68.5 38q-36.5 48 -36.5 125q0 73 27.5 143.5t82 119t131.5 54.5q82 0 115 -55h5l43 45h50l-67 -383l-15 -87h-50l-28 45h-5q-23 -24 -56.5 -39.5t-87.5 -15.5q-72 0 -108.5 48zM280.5 46q25.5 16 48.5 44l52 290q-17 30 -34 45t-51 15q-57 0 -95 -46.5t-56 -113
t-18 -123.5q0 -58 21 -92.5t66 -34.5q41 0 66.5 16zM179 531l100 115h110l60 -115h-50l-71 80l-99 -80h-50z" />
    <glyph glyph-name="atilde" unicode="&#xe3;" horiz-adv-x="525" 
d="M68.5 38q-36.5 48 -36.5 125q0 73 27.5 143.5t82 119t131.5 54.5q82 0 115 -55h5l43 45h50l-67 -383l-15 -87h-50l-28 45h-5q-23 -24 -56.5 -39.5t-87.5 -15.5q-72 0 -108.5 48zM280.5 46q25.5 16 48.5 44l52 290q-17 30 -34 45t-51 15q-57 0 -95 -46.5t-56 -113
t-18 -123.5q0 -58 21 -92.5t66 -34.5q41 0 66.5 16zM225 609.5q18 21.5 49 21.5q15 0 26.5 -5.5t24.5 -15.5q2 -1 11 -7t18 -9t18 -3q11 0 23 13.5t14 26.5h30q-9 -52 -27.5 -73.5t-49.5 -21.5q-14 0 -24 5t-26 15q-14 10 -24.5 15t-23.5 5q-11 0 -23 -13.5t-14 -26.5h-30
q10 52 28 73.5z" />
    <glyph glyph-name="adieresis" unicode="&#xe4;" horiz-adv-x="525" 
d="M68.5 38q-36.5 48 -36.5 125q0 73 27.5 143.5t82 119t131.5 54.5q82 0 115 -55h5l43 45h50l-67 -383l-15 -87h-50l-28 45h-5q-23 -24 -56.5 -39.5t-87.5 -15.5q-72 0 -108.5 48zM280.5 46q25.5 16 48.5 44l52 290q-17 30 -34 45t-51 15q-57 0 -95 -46.5t-56 -113
t-18 -123.5q0 -58 21 -92.5t66 -34.5q41 0 66.5 16zM222.5 545q-10.5 10 -10.5 26q0 21 15.5 37.5t38.5 16.5q17 0 27.5 -10.5t10.5 -26.5q0 -20 -16.5 -36.5t-37.5 -16.5q-17 0 -27.5 10zM392.5 545q-10.5 10 -10.5 26q0 21 15.5 37.5t38.5 16.5q17 0 27.5 -10.5
t10.5 -26.5q0 -20 -16.5 -36.5t-37.5 -16.5q-17 0 -27.5 10z" />
    <glyph glyph-name="aring" unicode="&#xe5;" horiz-adv-x="525" 
d="M68.5 38q-36.5 48 -36.5 125q0 73 27.5 143.5t82 119t131.5 54.5q82 0 115 -55h5l43 45h50l-67 -383l-15 -87h-50l-28 45h-5q-23 -24 -56.5 -39.5t-87.5 -15.5q-72 0 -108.5 48zM280.5 46q25.5 16 48.5 44l52 290q-17 30 -34 45t-51 15q-57 0 -95 -46.5t-56 -113
t-18 -123.5q0 -58 21 -92.5t66 -34.5q41 0 66.5 16zM256.5 551q-20.5 21 -20.5 51q0 24 14.5 46.5t38 37t48.5 14.5q30 0 50.5 -21t20.5 -51q0 -24 -14.5 -46.5t-38 -37t-48.5 -14.5q-30 0 -50.5 21zM352 583q16 18 16 43q0 18 -10 28.5t-27 10.5q-23 0 -39 -18t-16 -43
q0 -18 10 -28.5t27 -10.5q23 0 39 18z" />
    <glyph glyph-name="ae" unicode="&#xe6;" horiz-adv-x="752" 
d="M51.5 15q-41.5 25 -41.5 82q0 89 83 126t198 37h30q9 50 9 82q0 56 -21 77t-61 21q-45 0 -75.5 -19t-49.5 -66h-45q7 35 14.5 54t26.5 36q21 18 63.5 26.5t92.5 8.5q51 0 83 -25t41 -65q22 39 65 64.5t91 25.5q84 0 123 -31t39 -83q0 -77 -61 -116.5t-150 -39.5h-104
q-3 -24 -3 -45q0 -62 27.5 -98.5t79.5 -36.5q47 0 83 20t71 60l17 -15q-43 -56 -91 -80.5t-107 -24.5q-117 0 -155 85q-32 -43 -72 -64t-103 -21q-56 0 -97.5 25zM508 250q49 0 81.5 30.5t32.5 83.5q0 36 -17 53.5t-53 17.5q-30 0 -59 -23t-51 -63t-31 -89l-2 -10h99z
M245.5 51q23.5 16 46.5 44l22 125h-30q-67 0 -122.5 -26.5t-55.5 -87.5q0 -34 23 -52.5t58 -18.5t58.5 16z" />
    <glyph glyph-name="ccedilla" unicode="&#xe7;" horiz-adv-x="486" 
d="M161 -151q37 0 62.5 9t25.5 40q0 17 -16.5 24t-57.5 7l11 61q-77 8 -115 58t-38 126q0 75 32.5 146t93.5 115.5t143 44.5q63 0 108 -14t45 -64q0 -23 -5 -50t-7 -37h-20q1 8 1 22q0 51 -29.5 77t-79.5 26q-61 0 -103.5 -41.5t-63 -103.5t-20.5 -124q0 -66 28.5 -103.5
t86.5 -37.5q51 0 87.5 19.5t71.5 60.5l17 -15q-41 -52 -87.5 -76.5t-105.5 -28.5l-6 -31q35 -2 52.5 -14t17.5 -38q0 -88 -134 -88z" />
    <glyph glyph-name="egrave" unicode="&#xe8;" horiz-adv-x="487" 
d="M76.5 40.5q-44.5 50.5 -44.5 132.5q0 72 31 143.5t90 117.5t138 46q85 0 126 -31.5t41 -82.5q0 -52 -29.5 -89.5t-77.5 -57t-104 -19.5h-120q-4 -20 -4 -41q0 -56 28.5 -92.5t80.5 -36.5q47 0 83 20t71 60l17 -15q-43 -56 -91 -80.5t-107 -24.5q-84 0 -128.5 50.5z
M249 240q49 2 81.5 36.5t32.5 87.5q0 36 -20.5 56t-58.5 20q-53 0 -93 -53t-57 -147h115zM284 525l-72 130h95l17 -130h-40z" />
    <glyph glyph-name="eacute" unicode="&#xe9;" horiz-adv-x="487" 
d="M76.5 40.5q-44.5 50.5 -44.5 132.5q0 72 31 143.5t90 117.5t138 46q85 0 126 -31.5t41 -82.5q0 -52 -29.5 -89.5t-77.5 -57t-104 -19.5h-120q-4 -20 -4 -41q0 -56 28.5 -92.5t80.5 -36.5q47 0 83 20t71 60l17 -15q-43 -56 -91 -80.5t-107 -24.5q-84 0 -128.5 50.5z
M249 240q49 2 81.5 36.5t32.5 87.5q0 36 -20.5 56t-58.5 20q-53 0 -93 -53t-57 -147h115zM269 527l63 130h95l-118 -130h-40z" />
    <glyph glyph-name="ecircumflex" unicode="&#xea;" horiz-adv-x="487" 
d="M76.5 40.5q-44.5 50.5 -44.5 132.5q0 72 31 143.5t90 117.5t138 46q85 0 126 -31.5t41 -82.5q0 -52 -29.5 -89.5t-77.5 -57t-104 -19.5h-120q-4 -20 -4 -41q0 -56 28.5 -92.5t80.5 -36.5q47 0 83 20t71 60l17 -15q-43 -56 -91 -80.5t-107 -24.5q-84 0 -128.5 50.5z
M249 240q49 2 81.5 36.5t32.5 87.5q0 36 -20.5 56t-58.5 20q-53 0 -93 -53t-57 -147h115zM169 526l100 115h110l60 -115h-50l-71 80l-99 -80h-50z" />
    <glyph glyph-name="edieresis" unicode="&#xeb;" horiz-adv-x="487" 
d="M76.5 40.5q-44.5 50.5 -44.5 132.5q0 72 31 143.5t90 117.5t138 46q85 0 126 -31.5t41 -82.5q0 -52 -29.5 -89.5t-77.5 -57t-104 -19.5h-120q-4 -20 -4 -41q0 -56 28.5 -92.5t80.5 -36.5q47 0 83 20t71 60l17 -15q-43 -56 -91 -80.5t-107 -24.5q-84 0 -128.5 50.5z
M249 240q49 2 81.5 36.5t32.5 87.5q0 36 -20.5 56t-58.5 20q-53 0 -93 -53t-57 -147h115zM203.5 545q-10.5 10 -10.5 26q0 21 15.5 37.5t38.5 16.5q17 0 27.5 -10.5t10.5 -26.5q0 -20 -16.5 -36.5t-37.5 -16.5q-17 0 -27.5 10zM373.5 545q-10.5 10 -10.5 26q0 21 15.5 37.5
t38.5 16.5q17 0 27.5 -10.5t10.5 -26.5q0 -20 -16.5 -36.5t-37.5 -16.5q-17 0 -27.5 10z" />
    <glyph glyph-name="igrave" unicode="&#xec;" horiz-adv-x="251" 
d="M94 300q14 85 14 95q0 28 -13 41.5t-44 13.5h-20l3 20h90q41 0 58.5 -12.5t17.5 -48.5q0 -9 -6.5 -50.5t-23.5 -138.5l-38 -220h-90q38 215 52 300zM116 525l-72 130h95l17 -130h-40z" />
    <glyph glyph-name="iacute" unicode="&#xed;" horiz-adv-x="251" 
d="M94 300q14 85 14 95q0 28 -13 41.5t-44 13.5h-20l3 20h90q41 0 58.5 -12.5t17.5 -48.5q0 -9 -6.5 -50.5t-23.5 -138.5l-38 -220h-90q38 215 52 300zM139 526l63 130h95l-118 -130h-40z" />
    <glyph glyph-name="icircumflex" unicode="&#xee;" horiz-adv-x="251" 
d="M94 300q14 85 14 95q0 28 -13 41.5t-44 13.5h-20l3 20h90q41 0 58.5 -12.5t17.5 -48.5q0 -9 -6.5 -50.5t-23.5 -138.5l-38 -220h-90q38 215 52 300zM46 531l100 115h110l60 -115h-50l-71 80l-99 -80h-50z" />
    <glyph glyph-name="idieresis" unicode="&#xef;" horiz-adv-x="251" 
d="M94 300q14 85 14 95q0 28 -13 41.5t-44 13.5h-20l3 20h90q41 0 58.5 -12.5t17.5 -48.5q0 -9 -6.5 -50.5t-23.5 -138.5l-38 -220h-90q38 215 52 300zM35.5 545q-10.5 10 -10.5 26q0 21 15.5 37.5t38.5 16.5q17 0 27.5 -10.5t10.5 -26.5q0 -20 -16.5 -36.5t-37.5 -16.5
q-17 0 -27.5 10zM205.5 545q-10.5 10 -10.5 26q0 21 15.5 37.5t38.5 16.5q17 0 27.5 -10.5t10.5 -26.5q0 -20 -16.5 -36.5t-37.5 -16.5q-17 0 -27.5 10z" />
    <glyph glyph-name="eth" unicode="&#xf0;" horiz-adv-x="537" 
d="M79.5 42.5q-47.5 52.5 -47.5 136.5q0 73 33.5 142.5t94.5 114t140 44.5q42 0 73 -21t43 -59q-2 55 -12 93t-30 67l-47 -40l-25 30l48 40q-19 24 -42.5 34.5t-60.5 10.5q-27 0 -45 -6l-4 19q21 13 43.5 17.5t52.5 4.5q58 0 108 -40l42 40l24 -30l-41 -35q67 -79 67 -220
q0 -90 -28.5 -181t-91.5 -152.5t-160 -61.5q-87 0 -134.5 52.5zM311 74.5q38 44.5 57.5 107.5t19.5 115q0 64 -25 103.5t-70 39.5q-52 0 -90 -44.5t-57.5 -107.5t-19.5 -115q0 -64 25 -103.5t70 -39.5q52 0 90 44.5z" />
    <glyph glyph-name="ntilde" unicode="&#xf1;" horiz-adv-x="549" 
d="M94 300q14 85 14 95q0 28 -13 41.5t-44 13.5h-20l3 20h90q70 0 78 -40h5q27 22 62.5 36t76.5 14q143 0 143 -128q0 -14 -9.5 -74t-47.5 -278h-90q56 313 56 339q0 49 -25.5 72.5t-64.5 23.5q-50 0 -109 -53l-67 -382h-90q38 215 52 300zM247 618.5q18 21.5 49 21.5
q15 0 26.5 -5.5t24.5 -15.5q2 -1 11 -7t18 -9t18 -3q11 0 23 13.5t14 26.5h30q-9 -52 -27.5 -73.5t-49.5 -21.5q-14 0 -24 5t-26 15q-14 10 -24.5 15t-23.5 5q-11 0 -23 -13.5t-14 -26.5h-30q10 52 28 73.5z" />
    <glyph glyph-name="ograve" unicode="&#xf2;" horiz-adv-x="529" 
d="M79.5 42.5q-47.5 52.5 -47.5 136.5q0 73 33.5 142.5t94.5 114t140 44.5q87 0 134.5 -52.5t47.5 -136.5q0 -73 -33.5 -142.5t-94.5 -114t-140 -44.5q-87 0 -134.5 52.5zM311 74.5q38 44.5 57.5 107.5t19.5 115q0 64 -25 103.5t-70 39.5q-52 0 -90 -44.5t-57.5 -107.5
t-19.5 -115q0 -64 25 -103.5t70 -39.5q52 0 90 44.5zM358 525l-72 130h95l17 -130h-40z" />
    <glyph glyph-name="oacute" unicode="&#xf3;" horiz-adv-x="529" 
d="M79.5 42.5q-47.5 52.5 -47.5 136.5q0 73 33.5 142.5t94.5 114t140 44.5q87 0 134.5 -52.5t47.5 -136.5q0 -73 -33.5 -142.5t-94.5 -114t-140 -44.5q-87 0 -134.5 52.5zM311 74.5q38 44.5 57.5 107.5t19.5 115q0 64 -25 103.5t-70 39.5q-52 0 -90 -44.5t-57.5 -107.5
t-19.5 -115q0 -64 25 -103.5t70 -39.5q52 0 90 44.5zM273 526l63 130h95l-118 -130h-40z" />
    <glyph glyph-name="ocircumflex" unicode="&#xf4;" horiz-adv-x="529" 
d="M79.5 42.5q-47.5 52.5 -47.5 136.5q0 73 33.5 142.5t94.5 114t140 44.5q87 0 134.5 -52.5t47.5 -136.5q0 -73 -33.5 -142.5t-94.5 -114t-140 -44.5q-87 0 -134.5 52.5zM311 74.5q38 44.5 57.5 107.5t19.5 115q0 64 -25 103.5t-70 39.5q-52 0 -90 -44.5t-57.5 -107.5
t-19.5 -115q0 -64 25 -103.5t70 -39.5q52 0 90 44.5zM173 526l100 115h110l60 -115h-50l-71 80l-99 -80h-50z" />
    <glyph glyph-name="otilde" unicode="&#xf5;" horiz-adv-x="529" 
d="M79.5 42.5q-47.5 52.5 -47.5 136.5q0 73 33.5 142.5t94.5 114t140 44.5q87 0 134.5 -52.5t47.5 -136.5q0 -73 -33.5 -142.5t-94.5 -114t-140 -44.5q-87 0 -134.5 52.5zM311 74.5q38 44.5 57.5 107.5t19.5 115q0 64 -25 103.5t-70 39.5q-52 0 -90 -44.5t-57.5 -107.5
t-19.5 -115q0 -64 25 -103.5t70 -39.5q52 0 90 44.5zM225 609.5q18 21.5 49 21.5q15 0 26.5 -5.5t24.5 -15.5q2 -1 11 -7t18 -9t18 -3q11 0 23 13.5t14 26.5h30q-9 -52 -27.5 -73.5t-49.5 -21.5q-14 0 -24 5t-26 15q-14 10 -24.5 15t-23.5 5q-11 0 -23 -13.5t-14 -26.5h-30
q10 52 28 73.5z" />
    <glyph glyph-name="odieresis" unicode="&#xf6;" horiz-adv-x="529" 
d="M79.5 42.5q-47.5 52.5 -47.5 136.5q0 73 33.5 142.5t94.5 114t140 44.5q87 0 134.5 -52.5t47.5 -136.5q0 -73 -33.5 -142.5t-94.5 -114t-140 -44.5q-87 0 -134.5 52.5zM311 74.5q38 44.5 57.5 107.5t19.5 115q0 64 -25 103.5t-70 39.5q-52 0 -90 -44.5t-57.5 -107.5
t-19.5 -115q0 -64 25 -103.5t70 -39.5q52 0 90 44.5zM269.5 545q-10.5 10 -10.5 26q0 21 15.5 37.5t38.5 16.5q17 0 27.5 -10.5t10.5 -26.5q0 -20 -16.5 -36.5t-37.5 -16.5q-17 0 -27.5 10zM439.5 545q-10.5 10 -10.5 26q0 21 15.5 37.5t38.5 16.5q17 0 27.5 -10.5
t10.5 -26.5q0 -20 -16.5 -36.5t-37.5 -16.5q-17 0 -27.5 10z" />
    <glyph glyph-name="divide" unicode="&#xf7;" horiz-adv-x="565" 
d="M278.5 435.5q-10.5 10.5 -10.5 26.5q0 21 16.5 37t37.5 16q17 0 27.5 -10t10.5 -26q0 -21 -15.5 -37.5t-38.5 -16.5q-17 0 -27.5 10.5zM64 300l11 60h440l-11 -60h-440zM229.5 155.5q-10.5 10.5 -10.5 26.5q0 21 16.5 37t37.5 16q17 0 27.5 -10.5t10.5 -26.5
q0 -20 -16 -36.5t-38 -16.5q-17 0 -27.5 10.5z" />
    <glyph glyph-name="oslash" unicode="&#xf8;" horiz-adv-x="528" 
d="M105 20l-16 -20h-73l50 58q-34 50 -34 121q0 73 33.5 142.5t94.5 114t140 44.5q65 0 108 -30l17 20h73l-51 -59q35 -50 35 -123q0 -72 -34 -141t-95 -113t-139 -44q-63 0 -109 30zM364 399q-27 41 -71 41q-52 0 -89.5 -44t-57.5 -106.5t-20 -113.5q0 -25 4 -45zM310.5 74
q37.5 44 57.5 106.5t20 113.5q0 25 -4 45l-234 -268q24 -41 71 -41q52 0 89.5 44z" />
    <glyph glyph-name="ugrave" unicode="&#xf9;" horiz-adv-x="537" 
d="M50 120q0 12 8 62t29 168q5 32 5 45q0 28 -13 41.5t-44 13.5h-10l3 20h80q41 0 58.5 -12.5t17.5 -48.5q0 -17 -7 -59q-35 -194 -35 -218q0 -50 25.5 -73.5t64.5 -23.5q50 0 109 53l67 382h90l-82 -470h-50l-28 40h-5q-27 -22 -62.5 -36t-76.5 -14q-144 0 -144 130z
M289 525l-72 130h95l17 -130h-40z" />
    <glyph glyph-name="uacute" unicode="&#xfa;" horiz-adv-x="537" 
d="M50 120q0 12 8 62t29 168q5 32 5 45q0 28 -13 41.5t-44 13.5h-10l3 20h80q41 0 58.5 -12.5t17.5 -48.5q0 -17 -7 -59q-35 -194 -35 -218q0 -50 25.5 -73.5t64.5 -23.5q50 0 109 53l67 382h90l-82 -470h-50l-28 40h-5q-27 -22 -62.5 -36t-76.5 -14q-144 0 -144 130z
M280 501l63 130h95l-118 -130h-40z" />
    <glyph glyph-name="ucircumflex" unicode="&#xfb;" horiz-adv-x="537" 
d="M50 120q0 12 8 62t29 168q5 32 5 45q0 28 -13 41.5t-44 13.5h-10l3 20h80q41 0 58.5 -12.5t17.5 -48.5q0 -17 -7 -59q-35 -194 -35 -218q0 -50 25.5 -73.5t64.5 -23.5q50 0 109 53l67 382h90l-82 -470h-50l-28 40h-5q-27 -22 -62.5 -36t-76.5 -14q-144 0 -144 130z
M168 526l100 115h110l60 -115h-50l-71 80l-99 -80h-50z" />
    <glyph glyph-name="udieresis" unicode="&#xfc;" horiz-adv-x="537" 
d="M50 120q0 12 8 62t29 168q5 32 5 45q0 28 -13 41.5t-44 13.5h-10l3 20h80q41 0 58.5 -12.5t17.5 -48.5q0 -17 -7 -59q-35 -194 -35 -218q0 -50 25.5 -73.5t64.5 -23.5q50 0 109 53l67 382h90l-82 -470h-50l-28 40h-5q-27 -22 -62.5 -36t-76.5 -14q-144 0 -144 130z
M208.5 545q-10.5 10 -10.5 26q0 21 15.5 37.5t38.5 16.5q17 0 27.5 -10.5t10.5 -26.5q0 -20 -16.5 -36.5t-37.5 -16.5q-17 0 -27.5 10zM378.5 545q-10.5 10 -10.5 26q0 21 15.5 37.5t38.5 16.5q17 0 27.5 -10.5t10.5 -26.5q0 -20 -16.5 -36.5t-37.5 -16.5q-17 0 -27.5 10z
" />
    <glyph glyph-name="yacute" unicode="&#xfd;" horiz-adv-x="514" 
d="M23 -170q49 0 85 22.5t68 82.5l30 55l-91 390q-17 72 -96 80l3 20h85q87 0 106 -80l65 -277l187 347h50l-289 -535q-42 -79 -82.5 -107t-96.5 -28h-30zM296 501l63 130h95l-118 -130h-40z" />
    <glyph glyph-name="thorn" unicode="&#xfe;" horiz-adv-x="526" 
d="M102 442.5q22 128.5 22 140.5q0 28 -13 42.5t-44 14.5h-15l4 20h85q42 0 58.5 -12t16.5 -49q0 -12 -6 -51t-21 -123q55 55 145 55q71 0 107.5 -48t36.5 -127q0 -71 -27 -144t-81.5 -122t-131.5 -49q-66 0 -120 30l-37 -210h-90q89 504 111 632.5zM311 76q38 46 55 111.5
t17 125.5t-21 93.5t-65 33.5q-38 0 -65.5 -16.5t-49.5 -43.5l-57 -320q54 -30 90 -30q58 0 96 46z" />
    <glyph glyph-name="ydieresis" unicode="&#xff;" horiz-adv-x="514" 
d="M23 -170q49 0 85 22.5t68 82.5l30 55l-91 390q-17 72 -96 80l3 20h85q87 0 106 -80l65 -277l187 347h50l-289 -535q-42 -79 -82.5 -107t-96.5 -28h-30zM216.5 545q-10.5 10 -10.5 26q0 21 15.5 37.5t38.5 16.5q17 0 27.5 -10.5t10.5 -26.5q0 -20 -16.5 -36.5t-37.5 -16.5
q-17 0 -27.5 10zM386.5 545q-10.5 10 -10.5 26q0 21 15.5 37.5t38.5 16.5q17 0 27.5 -10.5t10.5 -26.5q0 -20 -16.5 -36.5t-37.5 -16.5q-17 0 -27.5 10z" />
    <glyph glyph-name="Abreve" unicode="&#x102;" horiz-adv-x="634" 
d="M486.5 21.5q-41.5 26.5 -57.5 103.5l-14 65h-280l-113 -190h-45l396 660h30l126 -535q12 -57 31 -79t60 -26l-3 -20q-20 -5 -41 -5q-48 0 -89.5 26.5zM157 230h245l-69 290zM322.5 732q-27.5 21 -43.5 59l23 15q17 -20 40 -30t63 -10t67 10t50 30l17 -15
q-57 -80 -144 -80q-45 0 -72.5 21z" />
    <glyph glyph-name="abreve" unicode="&#x103;" horiz-adv-x="525" 
d="M68.5 38q-36.5 48 -36.5 125q0 73 27.5 143.5t82 119t131.5 54.5q82 0 115 -55h5l43 45h50l-67 -383l-15 -87h-50l-28 45h-5q-23 -24 -56.5 -39.5t-87.5 -15.5q-72 0 -108.5 48zM280.5 46q25.5 16 48.5 44l52 290q-17 30 -34 45t-51 15q-57 0 -95 -46.5t-56 -113
t-18 -123.5q0 -58 21 -92.5t66 -34.5q41 0 66.5 16zM254.5 542q-27.5 21 -43.5 59l23 15q17 -20 40 -30t63 -10t67 10t50 30l17 -15q-57 -80 -144 -80q-45 0 -72.5 21z" />
    <glyph glyph-name="Dcroat" unicode="&#x110;" horiz-adv-x="716" 
d="M113 310h-75l7 40h75l34 190q4 21 4 43q0 28 -13 42.5t-44 14.5h-20l4 20h262q170 0 256 -67t86 -188q0 -115 -56 -207.5t-154.5 -145t-221.5 -52.5h-198zM424 87q73 52 114 135.5t41 175.5q0 104 -58.5 165.5t-158.5 61.5q-46 0 -103 -16l-46 -259h87l-7 -40h-87
l-46 -262q56 -13 100 -13q91 0 164 52z" />
    <glyph glyph-name="dcroat" unicode="&#x111;" horiz-adv-x="527" 
d="M538 527h-42q-38 -221 -92 -527h-50l-28 45h-5q-23 -24 -56.5 -39.5t-87.5 -15.5q-71 0 -107.5 48t-36.5 127q0 71 27 144t81.5 122t131.5 49q38 0 66 -8t54 -22l13 77h-148l7 40h147q1 7 1 16q0 28 -13 42.5t-44 14.5h-20l4 20h90q42 0 58.5 -12t16.5 -49q0 -10 -3 -32
h43zM386 410q-26 14 -47.5 22t-42.5 8q-58 0 -96 -46t-55 -111.5t-17 -125.5t21 -93.5t65 -33.5q41 0 66.5 16t48.5 44z" />
    <glyph glyph-name="Gbreve" unicode="&#x11e;" horiz-adv-x="720" 
d="M182 17.5q-64 37.5 -98.5 103t-34.5 148.5q0 100 48 195t134 155.5t194 60.5q87 0 162 -28t75 -102q0 -31 -10 -85h-20q-6 175 -184 175q-97 0 -165.5 -60.5t-103 -153.5t-34.5 -190q0 -113 53 -164.5t141 -51.5q51 0 88.5 9t72.5 26l31 174q6 34 21.5 59t55 41.5
t109.5 16.5l-4 -20q-45 0 -64 -23t-28 -72l-33 -188q-60 -33 -121.5 -48t-134.5 -15q-86 0 -150 37.5zM330 820l22 15q29 -45 102 -45q75 0 118 45l18 -15q-56 -90 -146 -90t-114 90z" />
    <glyph glyph-name="gbreve" unicode="&#x11f;" horiz-adv-x="524" 
d="M74.5 -175.5q-40.5 24.5 -63.5 80.5l22 15q22 -41 51 -60.5t80 -19.5q57 0 97.5 49t55.5 136l1 5q-66 -30 -130 -30q-77 0 -115.5 48t-38.5 126q0 66 26 137.5t78 120t124 48.5q51 0 81 -16t44 -39h5l43 45h50l-78 -445q-18 -103 -79.5 -164t-150.5 -61
q-62 0 -102.5 24.5zM270 48q24 8 55 22l55 310q-14 27 -36 43.5t-59 16.5q-53 0 -88.5 -45t-52 -108.5t-16.5 -118.5q0 -59 23.5 -93.5t73.5 -34.5q21 0 45 8zM182 621l22 15q29 -45 102 -45q75 0 118 45l18 -15q-56 -90 -146 -90t-114 90z" />
    <glyph glyph-name="Itilde" unicode="&#x128;" horiz-adv-x="289" 
d="M73.5 12.5q-17.5 12.5 -17.5 48.5q0 17 7 59l95 540h90l-95 -540q-5 -32 -5 -45q0 -28 13 -41.5t44 -13.5h20l-3 -20h-90q-41 0 -58.5 12.5zM125 823.5q18 21.5 49 21.5q15 0 26.5 -5.5t24.5 -15.5q2 -1 11 -7t18 -9t18 -3q11 0 23 13.5t14 26.5h30q-9 -52 -27.5 -73.5
t-49.5 -21.5q-14 0 -24 5t-26 15q-14 10 -24.5 15t-23.5 5q-11 0 -23 -13.5t-14 -26.5h-30q10 52 28 73.5z" />
    <glyph glyph-name="itilde" unicode="&#x129;" horiz-adv-x="251" 
d="M94 300q14 85 14 95q0 28 -13 41.5t-44 13.5h-20l3 20h90q41 0 58.5 -12.5t17.5 -48.5q0 -9 -6.5 -50.5t-23.5 -138.5l-38 -220h-90q38 215 52 300zM58 633.5q18 21.5 49 21.5q15 0 26.5 -5.5t24.5 -15.5q2 -1 11 -7t18 -9t18 -3q11 0 23 13.5t14 26.5h30
q-9 -52 -27.5 -73.5t-49.5 -21.5q-14 0 -24 5t-26 15q-14 10 -24.5 15t-23.5 5q-11 0 -23 -13.5t-14 -26.5h-30q10 52 28 73.5z" />
    <glyph glyph-name="Idotaccent" unicode="&#x130;" horiz-adv-x="289" 
d="M182 725q-13 15 -13 37q0 24 15 40.5t40 16.5q20 0 33 -15t13 -37q0 -24 -15 -40.5t-40 -16.5q-20 0 -33 15zM73.5 12.5q-17.5 12.5 -17.5 48.5q0 17 7 59l95 540h90l-95 -540q-5 -32 -5 -45q0 -28 13 -41.5t44 -13.5h20l-3 -20h-90q-41 0 -58.5 12.5z" />
    <glyph glyph-name="dotlessi" unicode="&#x131;" horiz-adv-x="251" 
d="M94 300q14 85 14 95q0 28 -13 41.5t-44 13.5h-20l3 20h90q41 0 58.5 -12.5t17.5 -48.5q0 -9 -6.5 -50.5t-23.5 -138.5l-38 -220h-90q38 215 52 300z" />
    <glyph glyph-name="OE" unicode="&#x152;" horiz-adv-x="945" 
d="M165.5 15q-57.5 35 -87.5 96t-30 140q0 102 47.5 201.5t133.5 163.5t197 64q64 0 107 -20h331q73 0 73 -58q0 -2 -4 -26l-11 -71h-20q3 17 3 30q0 85 -108 85h-186l-46 -260h270l-7 -40h-270l-49 -280h175q69 0 112.5 25t76.5 85l19 -5l-52 -95q-26 -50 -83 -50h-340
q-52 -20 -114 -20q-80 0 -137.5 35zM421 52l98 558q-39 30 -100 30q-90 0 -151.5 -65t-91.5 -160t-30 -184q0 -101 42 -156t122 -55q61 0 111 32z" />
    <glyph glyph-name="oe" unicode="&#x153;" horiz-adv-x="787" 
d="M79.5 42.5q-47.5 52.5 -47.5 136.5q0 73 33.5 142.5t94.5 114t140 44.5q97 0 141 -59q62 59 144 59q88 0 127.5 -31t39.5 -83q0 -77 -61 -116.5t-150 -39.5h-104q-3 -21 -3 -45q0 -62 27.5 -98.5t79.5 -36.5q47 0 83 20t71 60l17 -15q-43 -56 -91 -80.5t-107 -24.5
q-90 0 -140 60q-70 -60 -160 -60q-87 0 -134.5 52.5zM289 54q31 24 59 71q-6 30 -6 55q0 83 44 165q-9 44 -32.5 69.5t-60.5 25.5q-52 0 -90 -44.5t-57.5 -107.5t-19.5 -115q0 -64 25 -103.5t70 -39.5q37 0 68 24zM543 250q49 0 81.5 30.5t32.5 83.5q0 36 -17 53.5t-53 17.5
q-30 0 -59 -23t-51 -63t-31 -89l-2 -10h99z" />
    <glyph glyph-name="Scedilla" unicode="&#x15e;" horiz-adv-x="534" 
d="M158 -145h50q19 0 33 10t14 29q0 26 -36 26h-45l12 66q-71 9 -117 37.5t-46 70.5q0 12 20 118h18v-7q0 -95 41.5 -138.5t126.5 -43.5q36 0 71 14.5t57.5 42.5t22.5 66q0 33 -21 59t-67 58l-110 73q-49 33 -69.5 63.5t-20.5 72.5q0 58 30.5 105t82.5 74t114 27
q48 0 93 -13t74 -38t29 -57q0 -5 -4 -27l-16 -92h-18v7q0 95 -40 137.5t-125 42.5q-33 0 -64.5 -15.5t-51.5 -43t-20 -61.5q0 -32 20.5 -55t69.5 -57l110 -73q51 -34 74.5 -64.5t23.5 -70.5q0 -62 -33.5 -110t-89 -75t-120.5 -30l-5 -23h10q31 0 50 -14.5t19 -42.5
q0 -37 -27 -63t-67 -26h-60z" />
    <glyph glyph-name="scedilla" unicode="&#x15f;" horiz-adv-x="449" 
d="M115 -135h50q19 0 32.5 10.5t13.5 29.5q0 25 -35 25h-45l11 61q-50 3 -87.5 22t-37.5 62q0 14 3.5 33.5t4.5 26.5h20v-2q0 -49 30 -76t92 -27q55 0 85.5 19t36.5 51q1 4 1 13q0 24 -17.5 41.5t-57.5 35.5l-56 25q-48 21 -73 48.5t-25 65.5q0 36 19.5 68t46.5 49
q49 34 124 34q157 0 157 -83q0 -16 -3 -36t-4 -26h-20v2q0 49 -29 76t-88 27q-41 0 -77 -19.5t-36 -60.5q0 -46 66 -75l55 -25q56 -25 82 -51t26 -65q0 -8 -2 -24q-12 -61 -64 -94.5t-127 -35.5l-4 -20h10q31 0 50 -14.5t19 -42.5q0 -38 -27.5 -63.5t-67.5 -25.5h-60z" />
    <glyph glyph-name="Scaron" unicode="&#x160;" horiz-adv-x="534" 
d="M130 -3q-48 14 -77.5 39t-29.5 58q0 12 20 118h18v-7q0 -95 41.5 -138.5t126.5 -43.5q36 0 71 14.5t57.5 42.5t22.5 66q0 33 -21 59t-67 58l-110 73q-49 33 -69.5 63.5t-20.5 72.5q0 58 30.5 105t82.5 74t114 27q48 0 93 -13t74 -38t29 -57q0 -5 -4 -27l-16 -92h-18v7
q0 95 -40 137.5t-125 42.5q-33 0 -64.5 -15.5t-51.5 -43t-20 -61.5q0 -32 20.5 -55t69.5 -57l110 -73q51 -34 74.5 -64.5t23.5 -70.5q0 -61 -33.5 -110t-89.5 -77t-120 -28q-53 0 -101 14zM279 720l-60 115h50l71 -80l99 80h50l-100 -115h-110z" />
    <glyph glyph-name="scaron" unicode="&#x161;" horiz-adv-x="449" 
d="M65.5 6q-48.5 16 -48.5 69q0 14 3.5 33.5t4.5 26.5h20v-2q0 -49 30 -76t92 -27q45 0 84 20t39 63q0 24 -17.5 41.5t-57.5 35.5l-56 25q-48 21 -73 48.5t-25 65.5q0 46 27.5 80.5t71 52.5t91.5 18q157 0 157 -83q0 -16 -3 -36t-4 -26h-20v2q0 49 -29 76t-88 27
q-41 0 -77 -19.5t-36 -60.5q0 -46 66 -75l55 -25q56 -25 82 -51t26 -65q0 -48 -28.5 -83t-74.5 -53t-97 -18q-66 0 -114.5 16zM203 520l-60 115h50l71 -80l99 80h50l-100 -115h-110z" />
    <glyph glyph-name="Utilde" unicode="&#x168;" horiz-adv-x="687" 
d="M138 36q-50 46 -50 141q0 45 11 108l45 255q4 21 4 43q0 28 -13 42.5t-44 14.5h-20l4 20h90q41 0 58.5 -12.5t17.5 -48.5q0 -17 -7 -59l-51 -285q-8 -46 -8 -78q0 -72 35 -109.5t111 -37.5t125 27t78 82t45 146l66 375h40l-66 -375q-19 -104 -51.5 -167.5t-94 -95.5
t-161.5 -32q-114 0 -164 46zM340 823.5q18 21.5 49 21.5q15 0 26.5 -5.5t24.5 -15.5q2 -1 11 -7t18 -9t18 -3q11 0 23 13.5t14 26.5h30q-9 -52 -27.5 -73.5t-49.5 -21.5q-14 0 -24 5t-26 15q-14 10 -24.5 15t-23.5 5q-11 0 -23 -13.5t-14 -26.5h-30q10 52 28 73.5z" />
    <glyph glyph-name="utilde" unicode="&#x169;" horiz-adv-x="537" 
d="M50 120q0 12 8 62t29 168q5 32 5 45q0 28 -13 41.5t-44 13.5h-10l3 20h80q41 0 58.5 -12.5t17.5 -48.5q0 -17 -7 -59q-35 -194 -35 -218q0 -50 25.5 -73.5t64.5 -23.5q50 0 109 53l67 382h90l-82 -470h-50l-28 40h-5q-27 -22 -62.5 -36t-76.5 -14q-144 0 -144 130z
M231 633.5q18 21.5 49 21.5q15 0 26.5 -5.5t24.5 -15.5q2 -1 11 -7t18 -9t18 -3q11 0 23 13.5t14 26.5h30q-9 -52 -27.5 -73.5t-49.5 -21.5q-14 0 -24 5t-26 15q-14 10 -24.5 15t-23.5 5q-11 0 -23 -13.5t-14 -26.5h-30q10 52 28 73.5z" />
    <glyph glyph-name="Ydieresis" unicode="&#x178;" horiz-adv-x="629" 
d="M286 273l-125 257q-27 54 -52.5 80.5t-73.5 29.5l4 20h90q50 0 79 -29.5t51 -80.5l106 -225l268 335h45l-301 -380l-49 -280h-90zM303 701q-11 11 -11 29q0 24 17 42t43 18q20 0 31 -11t11 -29q0 -24 -17 -42t-43 -18q-20 0 -31 11zM473 701q-11 11 -11 29q0 24 17 42
t43 18q20 0 31 -11t11 -29q0 -24 -17 -42t-43 -18q-20 0 -31 11z" />
    <glyph glyph-name="Zcaron" unicode="&#x17d;" horiz-adv-x="594" 
d="M-19 20l521 600h-240q-123 0 -145 -115h-20l13 75q7 36 29 58t70 22h435l-534 -620h410l-7 -40h-535zM333 710l-60 115h50l71 -80l99 80h50l-100 -115h-110z" />
    <glyph glyph-name="zcaron" unicode="&#x17e;" horiz-adv-x="468" 
d="M0 19l332 411h-115q-62 0 -97.5 -23.5t-43.5 -66.5h-20l9 50q7 36 29 58t70 22h305l-345 -430h270l-7 -40h-390zM232 520l-60 115h50l71 -80l99 80h50l-100 -115h-110z" />
    <glyph glyph-name="florin" unicode="&#x192;" horiz-adv-x="340" 
d="M-81 -170q47 0 79.5 51t48.5 144l71 405h-70l7 40h70l6 30q33 170 205 170q63 0 82 -15q18 -13 27 -45l-34 -25q-11 23 -32 34t-55 11q-36 0 -62.5 -30t-40.5 -100l-6 -30h140l-7 -40h-140l-71 -405q-14 -78 -38.5 -124.5t-68.5 -68.5t-115 -22z" />
    <glyph glyph-name="Ohorn" unicode="&#x1a0;" horiz-adv-x="712" 
d="M165.5 15q-57.5 35 -87.5 96t-30 140q0 102 47.5 201.5t133.5 163.5t197 64q80 0 138 -35t88 -97t30 -141q0 -102 -47.5 -201t-134 -162.5t-197.5 -63.5q-80 0 -137.5 35zM461 84.5q62 64.5 92.5 159t30.5 183.5q0 101 -42.5 157t-122.5 56q-90 0 -151.5 -65t-91.5 -160
t-30 -184q0 -101 42 -156t122 -55q89 0 151 64.5zM680 660q50 0 81 31t40 73h57q-26 -130 -183 -130z" />
    <glyph glyph-name="ohorn" unicode="&#x1a1;" horiz-adv-x="529" 
d="M407 451q37 -24 56 -65.5t19 -94.5q0 -73 -33.5 -142.5t-94.5 -114t-140 -44.5q-87 0 -134.5 52.5t-47.5 136.5q0 73 33.5 142.5t94.5 114t140 44.5q35 0 64 -9q43 6 70 35.5t35 67.5h57q-20 -101 -119 -123zM311 74.5q38 44.5 57.5 107.5t19.5 115q0 64 -25 103.5
t-70 39.5q-52 0 -90 -44.5t-57.5 -107.5t-19.5 -115q0 -64 25 -103.5t70 -39.5q52 0 90 44.5z" />
    <glyph glyph-name="Uhorn" unicode="&#x1af;" horiz-adv-x="687" 
d="M671 635l-62 -350q-19 -104 -51.5 -167.5t-94 -95.5t-161.5 -32q-114 0 -164 46t-50 141q0 45 11 108l45 255q4 21 4 43q0 28 -13 42.5t-44 14.5h-20l4 20h90q41 0 58.5 -12.5t17.5 -48.5q0 -17 -7 -59l-51 -285q-8 -46 -8 -78q0 -72 35 -109.5t111 -37.5t125 27t78 82
t45 146l66 375h20q50 0 81 31t40 73h57q-24 -121 -162 -129z" />
    <glyph glyph-name="uhorn" unicode="&#x1b0;" horiz-adv-x="537" 
d="M494 445l-78 -445h-50l-28 40h-5q-27 -22 -62.5 -36t-76.5 -14q-144 0 -144 130q0 12 8 62t29 168q5 32 5 45q0 28 -13 41.5t-44 13.5h-10l3 20h80q41 0 58.5 -12.5t17.5 -48.5q0 -17 -7 -59q-35 -194 -35 -218q0 -50 25.5 -73.5t64.5 -23.5q50 0 109 53l67 382h63
q50 0 81 31t40 73h57q-24 -118 -155 -129z" />
    <glyph glyph-name="uni02BC" unicode="&#x2bc;" horiz-adv-x="176" 
d="M57 530q44 28 70 60t34 75l-32 -10q-20 0 -33 13t-13 32q0 27 21 48.5t50 21.5q55 0 55 -52q0 -61 -41.5 -115t-103.5 -88z" />
    <glyph glyph-name="circumflex" unicode="&#x2c6;" horiz-adv-x="310" 
d="M96 660l100 115h110l60 -115h-50l-71 80l-99 -80h-50z" />
    <glyph glyph-name="caron" unicode="&#x2c7;" horiz-adv-x="187" 
d="M53 520l-60 115h50l71 -80l99 80h50l-100 -115h-110z" />
    <glyph glyph-name="breve" unicode="&#x2d8;" horiz-adv-x="187" 
d="M29.5 542q-27.5 21 -43.5 59l23 15q17 -20 40 -30t63 -10t67 10t50 30l17 -15q-57 -80 -144 -80q-45 0 -72.5 21z" />
    <glyph glyph-name="ring" unicode="&#x2da;" horiz-adv-x="200" 
d="M115.5 551q-20.5 21 -20.5 51q0 24 14.5 46.5t38 37t48.5 14.5q30 0 50.5 -21t20.5 -51q0 -24 -14.5 -46.5t-38 -37t-48.5 -14.5q-30 0 -50.5 21zM211 583q16 18 16 43q0 18 -10 28.5t-27 10.5q-23 0 -39 -18t-16 -43q0 -18 10 -28.5t27 -10.5q23 0 39 18z" />
    <glyph glyph-name="tilde" unicode="&#x2dc;" horiz-adv-x="265" 
d="M127 753.5q18 21.5 49 21.5q15 0 26.5 -5.5t24.5 -15.5q2 -1 11 -7t18 -9t18 -3q11 0 23 13.5t14 26.5h30q-9 -52 -27.5 -73.5t-49.5 -21.5q-14 0 -24 5t-26 15q-14 10 -24.5 15t-23.5 5q-11 0 -23 -13.5t-14 -26.5h-30q10 52 28 73.5z" />
    <glyph glyph-name="gravecomb" unicode="&#x300;" 
d="M-39 525l-72 130h95l17 -130h-40z" />
    <glyph glyph-name="acutecomb" unicode="&#x301;" 
d="M-152 540l91 115h85l-126 -115h-50z" />
    <glyph glyph-name="uni0302" unicode="&#x302;" 
d="M-270 520l100 115h110l60 -115h-50l-71 80l-99 -80h-50z" />
    <glyph glyph-name="tildecomb" unicode="&#x303;" 
d="M-190 633.5q18 21.5 49 21.5q15 0 26.5 -5.5t24.5 -15.5q2 -1 11 -7t18 -9t18 -3q11 0 23 13.5t14 26.5h30q-9 -52 -27.5 -73.5t-49.5 -21.5q-14 0 -24 5t-26 15q-14 10 -24.5 15t-23.5 5q-11 0 -23 -13.5t-14 -26.5h-30q10 52 28 73.5z" />
    <glyph glyph-name="uni0304" unicode="&#x304;" 
d="M-248 560v60h255v-60h-255z" />
    <glyph glyph-name="uni0306" unicode="&#x306;" 
d="M-201.5 542q-27.5 21 -43.5 59l23 15q17 -20 40 -30t63 -10t67 10t50 30l17 -15q-57 -80 -144 -80q-45 0 -72.5 21z" />
    <glyph glyph-name="uni0308" unicode="&#x308;" 
d="M-239.5 545q-10.5 10 -10.5 26q0 21 15.5 37.5t38.5 16.5q17 0 27.5 -10.5t10.5 -26.5q0 -20 -16.5 -36.5t-37.5 -16.5q-17 0 -27.5 10zM-69.5 545q-10.5 10 -10.5 26q0 21 15.5 37.5t38.5 16.5q17 0 27.5 -10.5t10.5 -26.5q0 -20 -16.5 -36.5t-37.5 -16.5
q-17 0 -27.5 10z" />
    <glyph glyph-name="hookabovecomb" unicode="&#x309;" 
d="M-125.5 550.5q7.5 11.5 21.5 29.5q17 21 19 31t2 14q0 26 -27 26q-20 0 -33.5 -11t-24.5 -39l-41 1q5 29 21 47q19 22 38.5 30.5t46.5 8.5q29 0 50 -15.5t21 -44.5q0 -5 -2 -17q-2 -11 -9 -18.5t-23 -20.5q-17 -14 -26.5 -24.5t-13.5 -26.5h-31q4 18 11.5 29.5z" />
    <glyph glyph-name="uni030A" unicode="&#x30a;" 
d="M-133.5 551q-20.5 21 -20.5 51q0 24 14.5 46.5t38 37t48.5 14.5q30 0 50.5 -21t20.5 -51q0 -24 -14.5 -46.5t-38 -37t-48.5 -14.5q-30 0 -50.5 21zM-38 583q16 18 16 43q0 18 -10 28.5t-27 10.5q-23 0 -39 -18t-16 -43q0 -18 10 -28.5t27 -10.5q23 0 39 18z" />
    <glyph glyph-name="uni030B" unicode="&#x30b;" 
d="M-181 525l40 130h65l-75 -130h-30zM-81 525l40 130h65l-75 -130h-30z" />
    <glyph glyph-name="uni030C" unicode="&#x30c;" 
d="M-189 520l-60 115h50l71 -80l99 80h50l-100 -115h-110z" />
    <glyph glyph-name="uni031B" unicode="&#x31b;" 
d="M-218 470q50 0 81 31t40 73h57q-26 -130 -183 -130z" />
    <glyph glyph-name="dotbelowcomb" unicode="&#x323;" 
d="M-218 -150.5q-10 10.5 -10 27.5q0 20 16 36t37 16q17 0 27.5 -10.5t10.5 -26.5q0 -20 -16.5 -36.5t-37.5 -16.5q-17 0 -27 10.5z" />
    <glyph glyph-name="uni0326" unicode="&#x326;" 
d="M-268 -310q44 28 70 60t34 75l-32 -10q-20 0 -33 13t-13 32q0 27 21 48.5t50 21.5q55 0 55 -52q0 -61 -41.5 -115t-103.5 -88z" />
    <glyph glyph-name="uni0327" unicode="&#x327;" 
d="M-259 -155h50q19 0 33 10.5t14 29.5q0 25 -35 25h-45l16 90h45l-9 -50h10q31 0 49.5 -15t18.5 -43q0 -38 -27 -63t-67 -25h-60z" />
    <glyph glyph-name="uni0335" unicode="&#x335;" 
d="M-332 225l7 40h280l-7 -40h-280z" />
    <glyph glyph-name="uni0400" unicode="&#x400;" horiz-adv-x="593" 
d="M120 348q10 61 24.5 144t14.5 91q0 28 -13 42.5t-44 14.5h-20l4 20h426q73 0 73 -58q0 -2 -4 -26l-11 -71h-20q3 17 3 30q0 85 -108 85h-186l-46 -260h270l-7 -40h-270l-49 -280h175q69 0 112.5 25t76.5 85l19 -5l-52 -95q-26 -50 -83 -50h-345zM351 715l-72 130h95
l17 -130h-40z" />
    <glyph glyph-name="uni0401" unicode="&#x401;" horiz-adv-x="593" 
d="M120 348q10 61 24.5 144t14.5 91q0 28 -13 42.5t-44 14.5h-20l4 20h426q73 0 73 -58q0 -2 -4 -26l-11 -71h-20q3 17 3 30q0 85 -108 85h-186l-46 -260h270l-7 -40h-270l-49 -280h175q69 0 112.5 25t76.5 85l19 -5l-52 -95q-26 -50 -83 -50h-345zM270.5 735
q-10.5 10 -10.5 26q0 21 15.5 37.5t38.5 16.5q17 0 27.5 -10.5t10.5 -26.5q0 -20 -16.5 -36.5t-37.5 -16.5q-17 0 -27.5 10zM440.5 735q-10.5 10 -10.5 26q0 21 15.5 37.5t38.5 16.5q17 0 27.5 -10.5t10.5 -26.5q0 -20 -16.5 -36.5t-37.5 -16.5q-17 0 -27.5 10z" />
    <glyph glyph-name="uni0402" unicode="&#x402;" horiz-adv-x="673" 
d="M586 397q45 -33 45 -121q0 -85 -22.5 -157.5t-69 -116.5t-114.5 -44q-7 0 -29 2l4 20q48 0 79.5 50.5t46 117.5t14.5 116q0 67 -30.5 94t-83.5 27q-36 0 -77.5 -12t-69.5 -28l-60 -345h-90l109 620h-13q-125 0 -145 -115h-20l13 75q14 80 99 80h445l-7 -40h-282l-41 -230
q28 16 77.5 28t99.5 12q77 0 122 -33z" />
    <glyph glyph-name="uni0403" unicode="&#x403;" horiz-adv-x="541" 
d="M120 348q10 61 24.5 144t14.5 91q0 28 -13 42.5t-44 14.5h-20l4 20h415q73 0 73 -59q0 -2 -4 -27l-11 -69h-20q3 17 3 30q0 85 -108 85h-175l-109 -620h-90zM356 730l91 115h85l-126 -115h-50z" />
    <glyph glyph-name="uni0404" unicode="&#x404;" horiz-adv-x="667" 
d="M164 14.5q-58 34.5 -88 95t-30 137.5q0 113 55 213t143 160t182 60q109 0 168 -36.5t59 -93.5q0 -40 -12 -100h-20q-2 98 -44.5 144t-127.5 46q-101 0 -179 -69.5t-112 -220.5h331l-7 -40h-331q-5 -35 -5 -63q0 -99 47.5 -163t146.5 -64q74 0 134.5 35t115.5 105l17 -15
q-61 -90 -135 -127.5t-169 -37.5q-81 0 -139 34.5z" />
    <glyph glyph-name="uni0405" unicode="&#x405;" horiz-adv-x="534" 
d="M130 -3q-48 14 -77.5 39t-29.5 58q0 12 20 118h18v-7q0 -95 41.5 -138.5t126.5 -43.5q36 0 71 14.5t57.5 42.5t22.5 66q0 33 -21 59t-67 58l-110 73q-49 33 -69.5 63.5t-20.5 72.5q0 58 30.5 105t82.5 74t114 27q48 0 93 -13t74 -38t29 -57q0 -5 -4 -27l-16 -92h-18v7
q0 95 -40 137.5t-125 42.5q-33 0 -64.5 -15.5t-51.5 -43t-20 -61.5q0 -32 20.5 -55t69.5 -57l110 -73q51 -34 74.5 -64.5t23.5 -70.5q0 -61 -33.5 -110t-89.5 -77t-120 -28q-53 0 -101 14z" />
    <glyph glyph-name="uni0406" unicode="&#x406;" horiz-adv-x="289" 
d="M73.5 12.5q-17.5 12.5 -17.5 48.5q0 17 7 59l95 540h90l-95 -540q-5 -32 -5 -45q0 -28 13 -41.5t44 -13.5h20l-3 -20h-90q-41 0 -58.5 12.5z" />
    <glyph glyph-name="uni0407" unicode="&#x407;" horiz-adv-x="289" 
d="M73.5 12.5q-17.5 12.5 -17.5 48.5q0 17 7 59l95 540h90l-95 -540q-5 -32 -5 -45q0 -28 13 -41.5t44 -13.5h20l-3 -20h-90q-41 0 -58.5 12.5zM102.5 735q-10.5 10 -10.5 26q0 21 15.5 37.5t38.5 16.5q17 0 27.5 -10.5t10.5 -26.5q0 -20 -16.5 -36.5t-37.5 -16.5
q-17 0 -27.5 10zM272.5 735q-10.5 10 -10.5 26q0 21 15.5 37.5t38.5 16.5q17 0 27.5 -10.5t10.5 -26.5q0 -20 -16.5 -36.5t-37.5 -16.5q-17 0 -27.5 10z" />
    <glyph glyph-name="uni0408" unicode="&#x408;" horiz-adv-x="264" 
d="M-76 -117q47 0 79.5 51t48.5 144l103 582h90l-103 -582q-14 -78 -38.5 -124.5t-68 -68.5t-115.5 -22z" />
    <glyph glyph-name="uni0409" unicode="&#x409;" horiz-adv-x="965" 
d="M-53 -1l4 25q51 2 93.5 42.5t83.5 153t79 320.5q4 21 4 43q0 28 -13 42.5t-44 14.5h-10l4 20h485l-49 -280h110q99 0 166.5 -33t67.5 -119q0 -129 -91 -178.5t-210 -49.5h-200l109 620h-240l-14 -80q-38 -215 -85 -337t-96.5 -167.5t-105.5 -45.5q-25 0 -48 9zM724 57
q48 22 76 65t28 104q0 59 -41 89t-115 30q-52 0 -97 -15l-50 -280q40 -15 93 -15q58 0 106 22z" />
    <glyph glyph-name="uni040A" unicode="&#x40a;" horiz-adv-x="976" 
d="M120 348q10 61 24.5 144t14.5 91q0 28 -13 42.5t-44 14.5h-20l4 20h90q41 0 58 -12.5t17 -48.5q0 -12 -8.5 -65t-29.5 -174h290l53 300h90l-53 -300h110q99 0 167.5 -32t68.5 -113q0 -120 -91 -167.5t-208 -47.5h-200l56 320h-290l-56 -320h-90zM732.5 55
q47.5 20 77 59.5t29.5 95.5t-41 85.5t-116 29.5q-53 0 -98 -15l-46 -260q40 -15 93 -15q54 0 101.5 20z" />
    <glyph glyph-name="uni040B" unicode="&#x40b;" horiz-adv-x="681" 
d="M591 400q47 -30 47 -104q0 -29 -48 -296h-90q5 34 17 96q30 175 30 186q0 54 -33 78.5t-87 24.5q-36 0 -77.5 -12t-69.5 -28l-60 -345h-90l109 620h-14q-125 0 -145 -115h-20l13 75q14 80 99 80h445l-7 -40h-281l-41 -230q28 16 77.5 28t99.5 12q79 0 126 -30z" />
    <glyph glyph-name="uni040C" unicode="&#x40c;" horiz-adv-x="678" 
d="M478.5 15.5q-46.5 25.5 -99.5 94.5l-171 220l-58 -330h-90l60 348q10 61 24.5 144t14.5 91q0 28 -13 42.5t-44 14.5h-20l4 20h90q41 0 58.5 -12.5t17.5 -48.5q0 -13 -7.5 -58t-34.5 -196l247 210q19 16 20 17q49 44 85.5 66t83.5 22h50l-5 -25q-43 0 -76.5 -14.5
t-80.5 -55.5l-229 -195l187 -240q34 -45 75 -75.5t76 -35.5l-3 -19q-32 -10 -67 -10q-48 0 -94.5 25.5zM385 730l91 115h85l-126 -115h-50z" />
    <glyph glyph-name="uni040D" unicode="&#x40d;" horiz-adv-x="696" 
d="M120 348q10 61 24.5 144t14.5 91q0 28 -13 42.5t-44 14.5h-20l4 20h90q41 0 58 -12.5t17 -48.5q0 -14 -18.5 -123t-67.5 -386l421 570h90l-116 -660h-90l100 570l-420 -570h-90zM382 715l-72 130h95l17 -130h-40z" />
    <glyph glyph-name="uni040E" unicode="&#x40e;" horiz-adv-x="608" 
d="M84 20q115 0 163 75l15 25l-113 410q-11 38 -20.5 58t-32 35t-63.5 17l4 20h120q44 0 64.5 -28.5t35.5 -81.5l83 -300l252 410h60l-346 -565q-65 -105 -177 -105h-50zM259 800l22 15q29 -45 102 -45q75 0 118 45l18 -15q-56 -90 -146 -90t-114 90z" />
    <glyph glyph-name="uni040F" unicode="&#x40f;" horiz-adv-x="676" 
d="M260 0h-200l60 348q10 61 24.5 144t14.5 91q0 28 -13 42.5t-44 14.5h-20l4 20h90q41 0 58 -12.5t17 -48.5q0 -14 -15.5 -106.5t-78.5 -452.5h300l109 620h90l-116 -660h-200l-46 -175h-50z" />
    <glyph glyph-name="uni0410" unicode="&#x410;" horiz-adv-x="634" 
d="M486.5 21.5q-41.5 26.5 -57.5 103.5l-14 65h-280l-113 -190h-45l396 660h30l126 -535q12 -57 31 -79t60 -26l-3 -20q-20 -5 -41 -5q-48 0 -89.5 26.5zM157 230h245l-69 290z" />
    <glyph glyph-name="uni0411" unicode="&#x411;" horiz-adv-x="612" 
d="M120 348q10 61 24.5 144t14.5 91q0 28 -13 42.5t-44 14.5h-20l4 20h421q73 0 73 -59q0 -2 -4 -27l-11 -69h-20q3 17 3 30q0 85 -108 85h-181l-42 -240h110q99 0 166.5 -33t67.5 -119q0 -129 -91 -178.5t-210 -49.5h-200zM357 57q48 22 76 65t28 104q0 59 -41 89t-115 30
q-46 0 -97 -14l-50 -282q48 -14 93 -14q58 0 106 22z" />
    <glyph glyph-name="uni0412" unicode="&#x412;" horiz-adv-x="624" 
d="M154 540q4 21 4 43q0 28 -13 42.5t-44 14.5h-20l4 20h260q99 0 170.5 -29.5t71.5 -112.5q0 -64 -44 -109t-115 -69q75 -12 108 -43.5t33 -79.5q0 -112 -89.5 -164.5t-220.5 -52.5h-200zM306 355q44 0 87 19t71 55t28 83q0 55 -47.5 84t-110.5 29q-35 0 -77 -10l-46 -260
h95zM353.5 53q49.5 18 81.5 56t32 95q0 54 -42.5 82.5t-125.5 28.5h-95l-47 -266q45 -14 93 -14q54 0 103.5 18z" />
    <glyph glyph-name="uni0413" unicode="&#x413;" horiz-adv-x="541" 
d="M120 348q10 61 24.5 144t14.5 91q0 28 -13 42.5t-44 14.5h-20l4 20h415q73 0 73 -59q0 -2 -4 -27l-11 -69h-20q3 17 3 30q0 85 -108 85h-175l-109 -620h-90z" />
    <glyph glyph-name="uni0414" unicode="&#x414;" horiz-adv-x="689" 
d="M-44 5q2 15 14.5 25t27.5 10h40q63 100 104 222.5t69 277.5q4 21 4 43q0 28 -13 42.5t-44 14.5h-15l4 20h500l-109 -620h55q13 0 21 -7.5t8 -20.5l-33 -192h-45q1 15 1 40q0 77 -22.5 108.5t-71.5 31.5h-325q-55 0 -91.5 -40.5t-65.5 -139.5h-44zM448 40l102 580h-260
q-37 -208 -79 -344t-103 -236h340z" />
    <glyph glyph-name="uni0415" unicode="&#x415;" horiz-adv-x="593" 
d="M120 348q10 61 24.5 144t14.5 91q0 28 -13 42.5t-44 14.5h-20l4 20h426q73 0 73 -58q0 -2 -4 -26l-11 -71h-20q3 17 3 30q0 85 -108 85h-186l-46 -260h270l-7 -40h-270l-49 -280h175q69 0 112.5 25t76.5 85l19 -5l-52 -95q-26 -50 -83 -50h-345z" />
    <glyph glyph-name="uni0416" unicode="&#x416;" horiz-adv-x="948" 
d="M-57 0l4 19q35 4 84 35t94 76l233 240l-121 195q-24 40 -54.5 55t-68.5 15l5 25h50q47 0 78 -27t63 -78l133 -210l56 315h87l-56 -315l207 210q47 50 89.5 77.5t89.5 27.5h50l-5 -25q-38 0 -73 -15t-74 -55l-189 -195l147 -240q28 -45 67.5 -76t73.5 -35l-3 -19
q-32 -10 -67 -10q-45 0 -94 25.5t-90 94.5l-131 220l-58 -330h-87l58 330l-209 -220q-65 -69 -123 -94.5t-103 -25.5q-33 0 -63 10z" />
    <glyph glyph-name="uni0417" unicode="&#x417;" horiz-adv-x="572" 
d="M84.5 8.5q-53.5 28.5 -84.5 96.5l23 15q28 -48 73 -74t114 -26q58 0 104.5 21.5t73 61.5t26.5 94q0 57 -42 87.5t-125 30.5h-75l7 40h75q50 0 95.5 20.5t74 59.5t28.5 92q0 54 -37 83.5t-91 29.5q-71 0 -128.5 -42t-89.5 -118h-20q10 57 18.5 83t29.5 47q31 31 89.5 50.5
t112.5 19.5q88 0 150 -31t62 -114q0 -65 -41.5 -116t-130.5 -79q74 -14 106.5 -47.5t32.5 -84.5q0 -86 -47.5 -137t-114.5 -71t-135 -20q-80 0 -133.5 28.5z" />
    <glyph glyph-name="uni0418" unicode="&#x418;" horiz-adv-x="696" 
d="M120 348q10 61 24.5 144t14.5 91q0 28 -13 42.5t-44 14.5h-20l4 20h90q41 0 58 -12.5t17 -48.5q0 -14 -18.5 -123t-67.5 -386l421 570h90l-116 -660h-90l100 570l-420 -570h-90z" />
    <glyph glyph-name="uni0419" unicode="&#x419;" horiz-adv-x="696" 
d="M120 348q10 61 24.5 144t14.5 91q0 28 -13 42.5t-44 14.5h-20l4 20h90q41 0 58 -12.5t17 -48.5q0 -14 -18.5 -123t-67.5 -386l421 570h90l-116 -660h-90l100 570l-420 -570h-90zM291 800l22 15q29 -45 102 -45q75 0 118 45l18 -15q-56 -90 -146 -90t-114 90z" />
    <glyph glyph-name="uni041A" unicode="&#x41a;" horiz-adv-x="678" 
d="M478.5 15.5q-46.5 25.5 -99.5 94.5l-171 220l-58 -330h-90l60 348q10 61 24.5 144t14.5 91q0 28 -13 42.5t-44 14.5h-20l4 20h90q41 0 58.5 -12.5t17.5 -48.5q0 -13 -7.5 -58t-34.5 -196l247 210q19 16 20 17q49 44 85.5 66t83.5 22h50l-5 -25q-43 0 -76.5 -14.5
t-80.5 -55.5l-229 -195l187 -240q34 -45 75 -75.5t76 -35.5l-3 -19q-32 -10 -67 -10q-48 0 -94.5 25.5z" />
    <glyph glyph-name="uni041B" unicode="&#x41b;" horiz-adv-x="663" 
d="M-53 -1l4 25q51 2 93.5 42.5t83.5 153t79 320.5q4 21 4 43q0 28 -13 42.5t-44 14.5h-10l4 20h495l-116 -660h-90l109 620h-250l-14 -80q-38 -215 -85 -337t-96.5 -167.5t-105.5 -45.5q-25 0 -48 9z" />
    <glyph glyph-name="uni041C" unicode="&#x41c;" horiz-adv-x="857" 
d="M664 -14.5q-36 30.5 -36 100.5q0 36 9 84l68 385l-347 -555h-20l-161 565l-99 -565h-40l116 660h95l148 -520l327 520h90l-87 -490q-9 -48 -9 -86q0 -109 70 -109l-3 -20q-85 0 -121 30.5z" />
    <glyph glyph-name="uni041D" unicode="&#x41d;" horiz-adv-x="696" 
d="M154 540q4 21 4 43q0 28 -13 42.5t-44 14.5h-20l4 20h90q42 0 58.5 -12t16.5 -49q0 -23 -6 -59l-32 -180h300l53 300h90l-95 -540q-5 -32 -5 -45q0 -28 13 -41.5t44 -13.5h20l-3 -20h-90q-41 0 -58.5 12.5t-17.5 48.5q0 17 7 59l35 200h-300l-56 -320h-90z" />
    <glyph glyph-name="uni041E" unicode="&#x41e;" horiz-adv-x="712" 
d="M165.5 15q-57.5 35 -87.5 96t-30 140q0 102 47.5 201.5t133.5 163.5t197 64q80 0 138 -35t88 -97t30 -141q0 -102 -47.5 -201t-134 -162.5t-197.5 -63.5q-80 0 -137.5 35zM461 84.5q62 64.5 92.5 159t30.5 183.5q0 101 -42.5 157t-122.5 56q-90 0 -151.5 -65t-91.5 -160
t-30 -184q0 -101 42 -156t122 -55q89 0 151 64.5z" />
    <glyph glyph-name="uni041F" unicode="&#x41f;" horiz-adv-x="675" 
d="M154 540q4 21 4 43q0 28 -13 42.5t-44 14.5h-20l4 20h570l-116 -660h-90l109 620h-300l-109 -620h-90z" />
    <glyph glyph-name="uni0420" unicode="&#x420;" horiz-adv-x="555" 
d="M120 348q10 61 24.5 144t14.5 91q0 28 -13 42.5t-44 14.5h-20l4 20h260q84 0 151.5 -32.5t67.5 -124.5q0 -68 -35 -121t-94 -82.5t-129 -29.5h-110l-47 -270h-90zM360.5 327q43.5 22 73.5 66t30 106q0 43 -21 71.5t-51 41.5t-57 13q-35 0 -77 -10l-53 -300q38 -10 73 -10
q39 0 82.5 22z" />
    <glyph glyph-name="uni0421" unicode="&#x421;" horiz-adv-x="666" 
d="M164 14q-58 34 -88.5 94t-30.5 137q0 97 50.5 199t137.5 169t192 67q48 0 99.5 -11.5t89.5 -40.5t38 -78q0 -23 -8 -73l-4 -27h-20q-2 97 -45 143.5t-127 46.5q-97 0 -165.5 -58.5t-103 -150.5t-34.5 -190q0 -97 47.5 -159t146.5 -62q73 0 134 35t116 105l17 -15
q-64 -90 -136.5 -127.5t-167.5 -37.5q-80 0 -138 34z" />
    <glyph glyph-name="uni0422" unicode="&#x422;" horiz-adv-x="585" 
d="M315 620h-90q-123 0 -145 -115h-20l13 75q7 36 29 58t70 22h465l-7 -40h-225l-109 -620h-90z" />
    <glyph glyph-name="uni0423" unicode="&#x423;" horiz-adv-x="608" 
d="M84 20q115 0 163 75l15 25l-113 410q-11 38 -20.5 58t-32 35t-63.5 17l4 20h120q44 0 64.5 -28.5t35.5 -81.5l83 -300l252 410h60l-346 -565q-65 -105 -177 -105h-50z" />
    <glyph glyph-name="uni0424" unicode="&#x424;" horiz-adv-x="783" 
d="M305 35q-134 0 -200.5 56.5t-66.5 158.5q0 103 43.5 181t126 121t195.5 43q3 21 3 29q0 25 -13.5 35.5t-45.5 10.5h-20l3 20h90q42 0 59.5 -12t17.5 -43q0 -15 -4 -40q133 0 200 -56.5t67 -158.5t-44 -180.5t-126.5 -121.5t-194.5 -43l-12 -65h-90zM396 555
q-83 -1 -141.5 -43.5t-88 -112.5t-29.5 -155q0 -78 41 -123.5t134 -45.5zM543.5 118.5q58.5 42.5 88 112.5t29.5 155q0 78 -41 123.5t-134 45.5l-84 -480q83 1 141.5 43.5z" />
    <glyph glyph-name="uni0425" unicode="&#x425;" horiz-adv-x="663" 
d="M298 325l-104 205q-16 33 -31 54.5t-42 37.5t-68 18l4 20h120q43 0 69.5 -29.5t50.5 -80.5l74 -150l246 260h50l-277 -295l118 -235q25 -47 54 -77t72 -33l-3 -20h-105q-43 0 -70 29.5t-51 80.5l-88 180l-276 -290h-50z" />
    <glyph glyph-name="uni0426" unicode="&#x426;" horiz-adv-x="698" 
d="M554 -140q0 77 -22.5 108.5t-71.5 31.5h-400l60 348q10 61 24.5 144t14.5 91q0 28 -13 42.5t-44 14.5h-20l4 20h90q41 0 58 -12.5t17 -48.5q0 -14 -15.5 -106.5t-78.5 -452.5h300l109 620h90l-109 -620h55q13 0 21 -7.5t8 -20.5l-33 -192h-45q1 15 1 40z" />
    <glyph glyph-name="uni0427" unicode="&#x427;" horiz-adv-x="638" 
d="M459 270q-47 -20 -138 -20q-103 0 -158.5 31t-55.5 119q0 29 12 87q12 62 12 96q0 28 -13 42.5t-44 14.5h-10l4 20h90q41 0 58 -12.5t17 -48.5q0 -23 -4.5 -49.5t-9.5 -51.5q-7 -35 -10.5 -58.5t-3.5 -48.5q0 -58 31 -79.5t97 -21.5q35 0 71 5t62 15l62 350h90l-116 -660
h-90z" />
    <glyph glyph-name="uni0428" unicode="&#x428;" horiz-adv-x="936" 
d="M120 348q10 61 24.5 144t14.5 91q0 28 -13 42.5t-44 14.5h-20l4 20h90q41 0 58 -12.5t17 -48.5q0 -14 -15.5 -106.5t-78.5 -452.5h235l109 620h90l-109 -620h235l109 620h90l-116 -660h-740z" />
    <glyph glyph-name="uni0429" unicode="&#x429;" horiz-adv-x="958" 
d="M814 -140q0 77 -22.5 108.5t-71.5 31.5h-660l60 348q10 61 24.5 144t14.5 91q0 28 -13 42.5t-44 14.5h-20l4 20h90q41 0 58 -12.5t17 -48.5q0 -14 -15.5 -106.5t-78.5 -452.5h235l109 620h90l-109 -620h235l109 620h90l-109 -620h55q13 0 21 -7.5t8 -20.5l-1 -7l-32 -185
h-45q1 15 1 40z" />
    <glyph glyph-name="uni042A" unicode="&#x42a;" horiz-adv-x="703" 
d="M274 620h-30q-45 0 -73 -13.5t-46.5 -46t-32.5 -90.5h-30l28 155q2 15 13.5 25t27.5 10h240l-49 -280h110q99 0 166.5 -33t67.5 -119q0 -129 -91 -178.5t-210 -49.5h-200zM495.5 74q53.5 39 67.5 116q3 20 3 36q0 59 -41 89t-115 30q-46 0 -97 -14l-50 -282
q48 -14 93 -14q86 0 139.5 39z" />
    <glyph glyph-name="uni042B" unicode="&#x42b;" horiz-adv-x="836" 
d="M120 348q10 61 24.5 144t14.5 91q0 28 -13 42.5t-44 14.5h-20l4 20h90q41 0 58 -12.5t17 -48.5q0 -13 -7.5 -61t-26.5 -158h110q88 0 153.5 -33.5t65.5 -118.5q0 -89 -47 -139.5t-111.5 -69.5t-127.5 -19h-200zM621 12.5q-17 12.5 -17 47.5q0 14 17 114.5t85 485.5h90
q-100 -555 -100 -585q0 -28 12.5 -41.5t44.5 -13.5h20l-3 -20h-90q-42 0 -59 12.5zM349.5 59q44.5 24 70.5 67t26 100q0 58 -38 88.5t-103 30.5q-46 0 -97 -14l-50 -282q48 -14 93 -14q54 0 98.5 24z" />
    <glyph glyph-name="uni042C" unicode="&#x42c;" horiz-adv-x="598" 
d="M120 348q10 61 24.5 144t14.5 91q0 28 -13 42.5t-44 14.5h-20l4 20h90q41 0 58 -12.5t17 -48.5q0 -13 -7.5 -61t-26.5 -158h110q99 0 166.5 -33t67.5 -119q0 -129 -91 -178.5t-210 -49.5h-200zM357 57q48 22 76 65t28 104q0 59 -41 89t-115 30q-46 0 -97 -14l-50 -282
q48 -14 93 -14q58 0 106 22z" />
    <glyph glyph-name="uni042D" unicode="&#x42d;" horiz-adv-x="666" 
d="M103 17.5q-60 37.5 -91 127.5l23 15q31 -71 79 -105.5t121 -34.5q78 0 138.5 40.5t98.5 106.5t54 143h-331l7 40h331q5 42 5 71q0 114 -53 166.5t-141 52.5q-85 0 -143.5 -46t-94.5 -144h-20q12 64 21.5 97t29.5 53q34 35 99 57.5t145 22.5q73 0 131 -37.5t90 -103.5
t32 -147q0 -109 -50 -204t-136.5 -151.5t-189.5 -56.5q-95 0 -155 37.5z" />
    <glyph glyph-name="uni042E" unicode="&#x42e;" horiz-adv-x="878" 
d="M376.5 12.5q-51.5 32.5 -79 92t-27.5 139.5q0 37 6 76h-70l-56 -320h-90l60 348q10 61 24.5 144t14.5 91q0 28 -13 42.5t-44 14.5h-20l4 20h90q41 0 58 -12.5t17 -48.5q0 -12 -8.5 -65t-29.5 -174h71q24 96 73.5 168.5t117.5 112t144 39.5q68 0 119 -32.5t79.5 -92
t28.5 -139.5q0 -124 -50 -224t-131 -156t-169 -56q-68 0 -119.5 32.5zM638.5 90.5q55.5 70.5 82.5 168.5t27 177q0 98 -37 151t-99 53q-80 0 -135.5 -70.5t-82.5 -169t-27 -178.5q0 -97 37 -149.5t99 -52.5q80 0 135.5 70.5z" />
    <glyph glyph-name="uni042F" unicode="&#x42f;" horiz-adv-x="611" 
d="M-32 1l3 19q36 4 66 24t58 56l137 180q-50 13 -83.5 45.5t-33.5 93.5q0 142 93 191.5t196 49.5h250l-4 -20h-10q-42 0 -60 -24.5t-27 -75.5l-95 -540h-90l47 270h-97l-138 -190q-38 -51 -73 -70.5t-81 -19.5q-25 0 -58 11zM423 315l53 300q-38 10 -73 10q-34 0 -78 -20
t-76.5 -63.5t-32.5 -109.5q0 -44 21 -72.5t51 -41.5t58 -13q35 0 77 10z" />
    <glyph glyph-name="uni0430" unicode="&#x430;" horiz-adv-x="525" 
d="M68.5 38q-36.5 48 -36.5 125q0 73 27.5 143.5t82 119t131.5 54.5q82 0 115 -55h5l43 45h50l-67 -383l-15 -87h-50l-28 45h-5q-23 -24 -56.5 -39.5t-87.5 -15.5q-72 0 -108.5 48zM280.5 46q25.5 16 48.5 44l52 290q-17 30 -34 45t-51 15q-57 0 -95 -46.5t-56 -113
t-18 -123.5q0 -58 21 -92.5t66 -34.5q41 0 66.5 16z" />
    <glyph glyph-name="uni0431" unicode="&#x431;" horiz-adv-x="534" 
d="M95.5 32q-46.5 42 -46.5 130q0 116 28.5 211t78 154.5t110.5 72.5l156 35q39 9 58 18.5t25 26.5h20l-11 -65q-6 -37 -38 -45l-182 -40q-48 -11 -80 -33.5t-56.5 -69t-44.5 -127.5h5q32 74 80.5 107t124.5 33q68 0 112 -42t44 -123q0 -93 -36 -157.5t-94 -96t-125 -31.5
q-82 0 -128.5 42zM319 71q35 41 50.5 99.5t15.5 113.5q0 60 -24.5 88t-64.5 28q-53 0 -88 -41t-51 -100t-16 -114q0 -115 90 -115q53 0 88 41z" />
    <glyph glyph-name="uni0432" unicode="&#x432;" horiz-adv-x="506" 
d="M103 395q0 28 -13 41.5t-44 13.5h-10l3 20h245q77 0 124 -23t47 -76q0 -102 -120 -126q48 -10 74.5 -34.5t26.5 -60.5q0 -81 -65 -115.5t-169 -34.5h-165q66 376 66 395zM228 265q59 0 95 26t36 75q0 34 -24 51.5t-67 17.5q-15 0 -35 -3t-32 -7l-28 -160h55zM303 63.5
q38 28.5 38 86.5q0 75 -120 75h-55l-32 -180q12 -4 31 -7t33 -3q67 0 105 28.5z" />
    <glyph glyph-name="uni0433" unicode="&#x433;" horiz-adv-x="426" 
d="M33.5 19.5q-41.5 29.5 -41.5 86.5q0 96 156 154l65 25q46 18 71 42.5t25 53.5q0 27 -22.5 43t-66.5 16q-59 0 -98 -27.5t-55 -77.5h-20q8 55 27 85.5t59.5 45t113.5 14.5q65 0 104.5 -27.5t39.5 -79.5q0 -56 -37 -92.5t-109 -65.5l-64 -25q-55 -22 -81 -44.5t-26 -56.5
q0 -27 24.5 -43t74.5 -16q62 0 102 27.5t56 77.5h20q-8 -55 -28 -86t-61 -45t-116 -14q-71 0 -112.5 29.5z" />
    <glyph glyph-name="uni0434" unicode="&#x434;" horiz-adv-x="540" 
d="M80.5 40.5q-47.5 50.5 -47.5 133.5q0 79 34.5 147t95.5 108.5t137 40.5q44 0 79 -21.5t47 -58.5q2 32 2 40q0 60 -20 104.5t-54 67.5t-76 23q-38 0 -81 -13t-55 -23l-13 36q29 18 72.5 31.5t94.5 13.5q94 0 147 -74.5t53 -201.5q0 -118 -34.5 -209.5t-97.5 -143
t-148 -51.5q-88 0 -135.5 50.5zM312.5 72.5q37.5 42.5 56.5 103t19 114.5q0 64 -25 102t-70 38q-42 0 -80.5 -35.5t-62 -96t-23.5 -130.5q0 -64 25.5 -101t70.5 -37q52 0 89.5 42.5z" />
    <glyph glyph-name="uni0435" unicode="&#x435;" horiz-adv-x="487" 
d="M76.5 40.5q-44.5 50.5 -44.5 132.5q0 72 31 143.5t90 117.5t138 46q85 0 126 -31.5t41 -82.5q0 -52 -29.5 -89.5t-77.5 -57t-104 -19.5h-120q-4 -20 -4 -41q0 -56 28.5 -92.5t80.5 -36.5q47 0 83 20t71 60l17 -15q-43 -56 -91 -80.5t-107 -24.5q-84 0 -128.5 50.5z
M249 240q49 2 81.5 36.5t32.5 87.5q0 36 -20.5 56t-58.5 20q-53 0 -93 -53t-57 -147h115z" />
    <glyph glyph-name="uni0436" unicode="&#x436;" horiz-adv-x="686" 
d="M-40 0l3 19q35 5 65.5 24.5t63.5 56.5l131 145l-68 155q-22 45 -87 45l4 25h25q89 0 119 -65l74 -175l42 240h90l-42 -240l136 175q51 65 141 65h25l-4 -25q-31 0 -58.5 -11.5t-44.5 -33.5l-122 -155l79 -145q21 -37 44.5 -56.5t56.5 -24.5l-3 -19q-24 -10 -52 -10
q-39 0 -68.5 19t-52.5 61l-80 145l-37 -215h-90l37 215l-130 -145q-38 -42 -74 -61t-75 -19q-26 0 -48 10z" />
    <glyph glyph-name="uni0437" unicode="&#x437;" horiz-adv-x="456" 
d="M60.5 11q-37.5 21 -60.5 59l22 15q22 -26 49 -40.5t77 -14.5q66 0 105 28.5t39 85.5q0 76 -126 76h-45l7 40h45q67 0 105 28t38 81q0 34 -24 52.5t-62 18.5q-54 0 -95 -28.5t-53 -76.5h-20q10 60 29.5 91t56.5 42.5t104 11.5q69 0 114 -25t45 -80t-32.5 -88.5
t-88.5 -46.5q46 -10 71 -34.5t25 -61.5q0 -82 -65.5 -118t-159.5 -36q-63 0 -100.5 21z" />
    <glyph glyph-name="uni0438" unicode="&#x438;" horiz-adv-x="537" 
d="M50 120q0 12 8 62t29 168q5 32 5 45q0 28 -13 41.5t-44 13.5h-10l3 20h80q41 0 58.5 -12.5t17.5 -48.5q0 -17 -7 -59q-35 -194 -35 -218q0 -50 25.5 -73.5t64.5 -23.5q50 0 109 53l67 382h90l-82 -470h-50l-28 40h-5q-27 -22 -62.5 -36t-76.5 -14q-144 0 -144 130z" />
    <glyph glyph-name="uni0439" unicode="&#x439;" horiz-adv-x="537" 
d="M50 120q0 12 8 62t29 168q5 32 5 45q0 28 -13 41.5t-44 13.5h-10l3 20h80q41 0 58.5 -12.5t17.5 -48.5q0 -17 -7 -59q-35 -194 -35 -218q0 -50 25.5 -73.5t64.5 -23.5q50 0 109 53l67 382h90l-82 -470h-50l-28 40h-5q-27 -22 -62.5 -36t-76.5 -14q-144 0 -144 130z
M238.5 542q-27.5 21 -43.5 59l23 15q17 -20 40 -30t63 -10t67 10t50 30l17 -15q-57 -80 -144 -80q-45 0 -72.5 21z" />
    <glyph glyph-name="uni043A" unicode="&#x43a;" horiz-adv-x="499" 
d="M260 70l-90 145l-37 -215h-90q66 376 66 395q0 28 -13 41.5t-44 13.5h-20l3 20h90q41 0 58.5 -12.5t17.5 -48.5q0 -10 -6.5 -47t-9.5 -58l-12 -74l156 175q29 32 62 48.5t79 16.5h25l-4 -25q-58 0 -98 -45l-137 -155l89 -145q21 -36 45 -56t56 -25l-3 -19
q-24 -10 -52 -10q-81 0 -131 80z" />
    <glyph glyph-name="uni043B" unicode="&#x43b;" horiz-adv-x="548" 
d="M-13.5 -7q-14.5 3 -24.5 6l4 25q58 0 106 69.5t81 256.5q5 27 5 44q0 28 -13 42t-45 14l3 20h406l-82 -470h-90l75 430h-176l-14 -80q-36 -205 -91 -282.5t-122 -77.5q-8 0 -22.5 3z" />
    <glyph glyph-name="uni043C" unicode="&#x43c;" horiz-adv-x="650" 
d="M472.5 9.5q-32.5 29.5 -32.5 88.5q0 12 7.5 57t25.5 151l10 59l-229 -365h-20l-104 375l-66 -375h-40l82 470h95l92 -330l208 330h90q-40 -223 -50 -287.5t-10 -80.5q0 -44 14 -73t39 -29l-4 -20q-75 0 -107.5 29.5z" />
    <glyph glyph-name="uni043D" unicode="&#x43d;" horiz-adv-x="555" 
d="M105 395q0 28 -13 41.5t-44 13.5h-15l3 20h85q41 0 58.5 -12.5t17.5 -48.5q0 -12 -5.5 -47t-18.5 -107h200l38 215h90q-38 -215 -52 -300t-14 -95q0 -28 12.5 -41.5t44.5 -13.5h15l-3 -20h-85q-42 0 -59 12.5t-17 47.5q0 25 23 155h-200l-37 -215h-90q66 376 66 395z" />
    <glyph glyph-name="uni043E" unicode="&#x43e;" horiz-adv-x="529" 
d="M79.5 42.5q-47.5 52.5 -47.5 136.5q0 73 33.5 142.5t94.5 114t140 44.5q87 0 134.5 -52.5t47.5 -136.5q0 -73 -33.5 -142.5t-94.5 -114t-140 -44.5q-87 0 -134.5 52.5zM311 74.5q38 44.5 57.5 107.5t19.5 115q0 64 -25 103.5t-70 39.5q-52 0 -90 -44.5t-57.5 -107.5
t-19.5 -115q0 -64 25 -103.5t70 -39.5q52 0 90 44.5z" />
    <glyph glyph-name="uni043F" unicode="&#x43f;" horiz-adv-x="549" 
d="M94 300q14 85 14 95q0 28 -13 41.5t-44 13.5h-20l3 20h90q70 0 78 -40h5q27 22 62.5 36t76.5 14q143 0 143 -128q0 -14 -9.5 -74t-47.5 -278h-90q56 313 56 339q0 49 -25.5 72.5t-64.5 23.5q-50 0 -109 -53l-67 -382h-90q38 215 52 300z" />
    <glyph glyph-name="uni0440" unicode="&#x440;" horiz-adv-x="543" 
d="M83 241q25 149 25 154q0 28 -13 41.5t-44 13.5h-20l3 20h90q38 0 56 -11t21 -34h5q55 55 145 55q71 0 107.5 -48t36.5 -127q0 -71 -27 -144t-81.5 -122t-131.5 -49q-66 0 -120 30l-37 -210h-90zM328 76q38 46 55 111.5t17 125.5t-21 93.5t-65 33.5q-38 0 -65.5 -16.5
t-49.5 -43.5l-57 -320q54 -30 90 -30q58 0 96 46z" />
    <glyph glyph-name="uni0441" unicode="&#x441;" horiz-adv-x="484" 
d="M77.5 40q-45.5 50 -45.5 134q0 75 32.5 146t93.5 115.5t143 44.5q63 0 108 -14t45 -64q0 -23 -11 -80l-1 -7h-20q1 8 1 22q0 51 -29.5 77t-79.5 26q-61 0 -103.5 -41.5t-63 -103.5t-20.5 -124q0 -66 28.5 -103.5t86.5 -37.5q51 0 87.5 19.5t71.5 60.5l17 -15
q-43 -56 -92 -80.5t-111 -24.5q-92 0 -137.5 50z" />
    <glyph glyph-name="uni0442" unicode="&#x442;" horiz-adv-x="789" 
d="M94 300q14 85 14 95q0 28 -13 41.5t-44 13.5h-20l3 20h90q70 0 78 -40h5q27 22 62.5 36t76.5 14t69 -16t39 -54q32 33 75.5 51.5t86.5 18.5q53 0 83.5 -26t30.5 -91q0 -16 -9.5 -77.5t-48.5 -285.5h-90q38 219 48 281.5t10 76.5q0 41 -16 59t-46 18q-28 0 -62.5 -20.5
t-53.5 -44.5v-7q0 -13 -13.5 -94t-46.5 -269h-90q38 219 48 281.5t10 76.5q0 41 -16 59t-46 18q-50 0 -109 -53l-67 -382h-90q38 215 52 300z" />
    <glyph glyph-name="uni0443" unicode="&#x443;" horiz-adv-x="515" 
d="M23 -170q49 0 85 22.5t68 82.5l30 55l-91 391q-17 72 -96 80l3 20h85q87 0 106 -80l66 -278l187 348h50l-290 -536q-42 -79 -82.5 -107t-96.5 -28h-30z" />
    <glyph glyph-name="uni0444" unicode="&#x444;" horiz-adv-x="663" 
d="M236 -10q-98 2 -150 54.5t-52 136.5q0 80 35 147.5t100.5 108.5t152.5 43q15 87 15 103q0 28 -13 42.5t-44 14.5h-15l4 20h85q41 0 58 -12.5t17 -48.5q0 -31 -17 -119q99 -4 150.5 -55t51.5 -136q0 -81 -35 -148t-100.5 -108t-152.5 -43l-32 -180h-90zM317 445
q-87 -10 -138 -84.5t-51 -191.5q0 -131 115 -144zM430.5 66.5q42.5 36.5 66 97t23.5 137.5q0 131 -115 144l-74 -420q57 5 99.5 41.5z" />
    <glyph glyph-name="uni0445" unicode="&#x445;" horiz-adv-x="490" 
d="M189 225l-61 145q-30 72 -89 80l3 20h85q33 0 58.5 -21t40.5 -59l44 -105l162 185h50l-199 -225l61 -145q30 -73 94 -80l-3 -20h-90q-33 0 -58.5 21t-40.5 59l-44 105l-162 -185h-50z" />
    <glyph glyph-name="uni0446" unicode="&#x446;" horiz-adv-x="564" 
d="M428 -88q0 42 -12 60.5t-45 27.5q-30 9 -30 40h-5q-27 -22 -62.5 -36t-76.5 -14q-144 0 -144 130q0 18 5 50q21 116 29 165t8 60q0 28 -13 41.5t-44 13.5h-10l3 20h80q42 0 59 -12.5t17 -47.5q0 -12 -10.5 -72.5t-13.5 -79.5l-15 -88q-3 -21 -3 -37q0 -51 25 -74.5
t65 -23.5q50 0 109 53l67 382h90l-75 -430h39q13 0 21 -7.5t8 -20.5q0 -1 -4 -21t-25 -146h-40q3 40 3 67z" />
    <glyph glyph-name="uni0447" unicode="&#x447;" horiz-adv-x="530" 
d="M353 193q-52 -18 -104 -18q-157 0 -157 112q0 17 6 51q7 32 7 57q0 28 -13 41.5t-44 13.5h-10l3 20h85q41 0 58.5 -12.5t17.5 -48.5q0 -19 -8 -59t-8 -64q0 -37 21 -54t54 -17q47 0 99 18l41 237h90l-82 -470h-90z" />
    <glyph glyph-name="uni0448" unicode="&#x448;" horiz-adv-x="771" 
d="M43 109q0 14 13 92t46 269h90q-33 -189 -46 -267t-13 -90q0 -41 16 -59.5t47 -18.5q28 0 62.5 20.5t53.5 44.5q0 16 11.5 87t40.5 237q3 12 4.5 24t3.5 22h90q-33 -189 -46 -267t-13 -90q0 -41 16 -59.5t47 -18.5q50 0 109 53l67 382h90l-82 -470h-50l-28 40h-5
q-27 -22 -62.5 -36t-76.5 -14q-42 0 -69.5 15.5t-38.5 54.5q-32 -33 -75.5 -51.5t-86.5 -18.5q-115 0 -115 119z" />
    <glyph glyph-name="uni0449" unicode="&#x449;" horiz-adv-x="795" 
d="M659 -88q0 42 -12 61t-45 27q-30 9 -30 40h-5q-27 -22 -62.5 -36t-76.5 -14q-42 0 -69.5 15.5t-38.5 54.5q-32 -33 -75.5 -51.5t-86.5 -18.5q-115 0 -115 119q0 14 13 92t46 269h90q-33 -189 -46 -267t-13 -90q0 -41 16 -59.5t47 -18.5q28 0 62.5 20.5t53.5 44.5
q0 16 11.5 87t40.5 237q3 12 4.5 24t3.5 22h90q-33 -189 -46 -267t-13 -90q0 -41 16 -59.5t47 -18.5q50 0 109 53l67 382h90l-75 -430h39q13 0 21 -7.5t8 -20.5q0 -1 -4 -21t-25 -146h-40q3 40 3 67z" />
    <glyph glyph-name="uni044A" unicode="&#x44a;" horiz-adv-x="584" 
d="M211 430h-10q-55 0 -88.5 -31t-49.5 -99h-25l24 135q2 15 14 25t27 10h205l-33 -190h75q183 0 183 -111q0 -92 -64.5 -130.5t-167.5 -38.5h-165zM400 67q38 32 38 101q0 41 -26 59t-78 18q-15 0 -35 -3t-32 -7l-34 -190q12 -4 31 -7t33 -3q65 0 103 32z" />
    <glyph glyph-name="uni044B" unicode="&#x44b;" horiz-adv-x="690" 
d="M105 395q0 28 -13 41.5t-44 13.5h-15l3 20h85q41 0 58.5 -12.5t17.5 -48.5q0 -17 -19 -129h75q173 0 173 -111q0 -91 -64 -130t-158 -39h-165q66 376 66 395zM495 12.5q-17 12.5 -17 47.5q0 10 7 53t25 145l36 212h90q-38 -215 -52 -300t-14 -95q0 -28 12.5 -41.5
t44.5 -13.5h15l-3 -20h-85q-42 0 -59 12.5zM293.5 67.5q37.5 32.5 37.5 100.5q0 77 -94 77q-15 0 -35 -3t-32 -7l-34 -190q12 -4 31 -7t33 -3q56 0 93.5 32.5z" />
    <glyph glyph-name="uni044C" unicode="&#x44c;" horiz-adv-x="461" 
d="M105 395q0 28 -13 41.5t-44 13.5h-15l3 20h85q41 0 58.5 -12.5t17.5 -48.5q0 -17 -19 -129h75q183 0 183 -111q0 -92 -64.5 -130.5t-167.5 -38.5h-165q66 376 66 395zM303 67q38 32 38 101q0 41 -26 59t-78 18q-15 0 -35 -3t-32 -7l-34 -190q12 -4 31 -7t33 -3
q65 0 103 32z" />
    <glyph glyph-name="uni044D" unicode="&#x44d;" horiz-adv-x="490" 
d="M71 14.5q-41 24.5 -64 80.5l23 15q22 -41 51 -60.5t80 -19.5q67 0 112.5 49.5t64.5 130.5h-210l7 40h210q3 23 3 44q0 67 -28.5 106.5t-86.5 39.5q-56 0 -96.5 -31.5t-55.5 -93.5h-20q11 63 19.5 88t28.5 42q41 35 151 35q91 0 136.5 -50.5t45.5 -134.5q0 -81 -32.5 -151
t-93.5 -112t-142 -42q-62 0 -103 24.5z" />
    <glyph glyph-name="uni044E" unicode="&#x44e;" horiz-adv-x="695" 
d="M267.5 38q-44.5 48 -44.5 132q0 21 3 45h-60l-37 -215h-90q66 376 66 395q0 28 -13 41.5t-44 13.5h-15l3 20h85q41 0 58.5 -12.5t17.5 -48.5q0 -12 -5.5 -47t-18.5 -107h60q22 102 89 163.5t156 61.5q79 0 123.5 -49.5t44.5 -133.5q0 -86 -34.5 -156.5t-92.5 -110.5
t-127 -40q-80 0 -124.5 48zM470.5 63.5q35.5 33.5 59 98t23.5 153.5q0 62 -21.5 93.5t-60.5 31.5q-36 0 -71.5 -34t-59 -99t-23.5 -153q0 -61 21.5 -92.5t60.5 -31.5q36 0 71.5 33.5z" />
    <glyph glyph-name="uni044F" unicode="&#x44f;" horiz-adv-x="512" 
d="M-30 0l3 20q32 5 58.5 26.5t50.5 53.5l79 105q-41 7 -68 34t-27 70q0 86 64 123.5t162 37.5h235l-3 -20q-42 0 -61.5 -25t-26.5 -75l-61 -350h-90l35 200h-78l-81 -120q-31 -47 -64 -68.5t-74 -21.5q-23 0 -53 10zM296 238q20 3 32 7l31 180q-12 4 -30.5 7t-32.5 3
q-61 0 -98 -30.5t-37 -94.5q0 -75 100 -75q15 0 35 3z" />
    <glyph glyph-name="uni0450" unicode="&#x450;" horiz-adv-x="487" 
d="M76.5 40.5q-44.5 50.5 -44.5 132.5q0 72 31 143.5t90 117.5t138 46q85 0 126 -31.5t41 -82.5q0 -52 -29.5 -89.5t-77.5 -57t-104 -19.5h-120q-4 -20 -4 -41q0 -56 28.5 -92.5t80.5 -36.5q47 0 83 20t71 60l17 -15q-43 -56 -91 -80.5t-107 -24.5q-84 0 -128.5 50.5z
M249 240q49 2 81.5 36.5t32.5 87.5q0 36 -20.5 56t-58.5 20q-53 0 -93 -53t-57 -147h115zM264 525l-72 130h95l17 -130h-40z" />
    <glyph glyph-name="uni0451" unicode="&#x451;" horiz-adv-x="487" 
d="M76.5 40.5q-44.5 50.5 -44.5 132.5q0 72 31 143.5t90 117.5t138 46q85 0 126 -31.5t41 -82.5q0 -52 -29.5 -89.5t-77.5 -57t-104 -19.5h-120q-4 -20 -4 -41q0 -56 28.5 -92.5t80.5 -36.5q47 0 83 20t71 60l17 -15q-43 -56 -91 -80.5t-107 -24.5q-84 0 -128.5 50.5z
M249 240q49 2 81.5 36.5t32.5 87.5q0 36 -20.5 56t-58.5 20q-53 0 -93 -53t-57 -147h115zM183.5 545q-10.5 10 -10.5 26q0 21 15.5 37.5t38.5 16.5q17 0 27.5 -10.5t10.5 -26.5q0 -20 -16.5 -36.5t-37.5 -16.5q-17 0 -27.5 10zM353.5 545q-10.5 10 -10.5 26q0 21 15.5 37.5
t38.5 16.5q17 0 27.5 -10.5t10.5 -26.5q0 -20 -16.5 -36.5t-37.5 -16.5q-17 0 -27.5 10z" />
    <glyph glyph-name="uni0452" unicode="&#x452;" horiz-adv-x="531" 
d="M207 -120q47 0 79.5 51t50.5 144q2 12 4 22t3 17q6 38 16.5 101.5t10.5 71.5q0 50 -25.5 74t-64.5 24q-50 0 -109 -53l-58 -332h-90l88 500h-70l7 40h70l10 60l61 60h40l-21 -120h170l-7 -40h-170l-21 -120q25 21 60.5 35.5t77.5 14.5q144 0 144 -130q0 -14 -6 -54
t-30 -171q-14 -78 -39 -124.5t-69 -68.5t-115 -22z" />
    <glyph glyph-name="uni0453" unicode="&#x453;" horiz-adv-x="426" 
d="M33.5 19.5q-41.5 29.5 -41.5 86.5q0 96 156 154l65 25q46 18 71 42.5t25 53.5q0 27 -22.5 43t-66.5 16q-59 0 -98 -27.5t-55 -77.5h-20q8 55 27 85.5t59.5 45t113.5 14.5q65 0 104.5 -27.5t39.5 -79.5q0 -56 -37 -92.5t-109 -65.5l-64 -25q-55 -22 -81 -44.5t-26 -56.5
q0 -27 24.5 -43t74.5 -16q62 0 102 27.5t56 77.5h20q-8 -55 -28 -86t-61 -45t-116 -14q-71 0 -112.5 29.5zM216 540l91 115h85l-126 -115h-50z" />
    <glyph glyph-name="uni0454" unicode="&#x454;" horiz-adv-x="492" 
d="M79.5 40.5q-46.5 50.5 -46.5 133.5q0 82 33 152t94 112t142 42q80 0 116.5 -17.5t36.5 -60.5q0 -18 -12 -87h-20q1 8 1 22q0 51 -29.5 77t-79.5 26q-68 0 -113.5 -52.5t-64.5 -137.5h210l-7 -40h-210q-3 -22 -3 -42q0 -65 29 -101.5t87 -36.5q51 0 87.5 19.5t71.5 60.5
l17 -15q-43 -56 -92 -80.5t-111 -24.5q-90 0 -136.5 50.5z" />
    <glyph glyph-name="uni0455" unicode="&#x455;" horiz-adv-x="449" 
d="M65.5 6q-48.5 16 -48.5 69q0 14 3.5 33.5t4.5 26.5h20v-2q0 -49 30 -76t92 -27q45 0 84 20t39 63q0 24 -17.5 41.5t-57.5 35.5l-56 25q-48 21 -73 48.5t-25 65.5q0 46 27.5 80.5t71 52.5t91.5 18q157 0 157 -83q0 -16 -3 -36t-4 -26h-20v2q0 49 -29 76t-88 27
q-41 0 -77 -19.5t-36 -60.5q0 -46 66 -75l55 -25q56 -25 82 -51t26 -65q0 -48 -28.5 -83t-74.5 -53t-97 -18q-66 0 -114.5 16z" />
    <glyph glyph-name="uni0456" unicode="&#x456;" horiz-adv-x="251" 
d="M140 545q-13 15 -13 37q0 24 15 40.5t40 16.5q20 0 33 -15t13 -37q0 -24 -15 -40.5t-40 -16.5q-20 0 -33 15zM94 300q14 85 14 95q0 28 -13 41.5t-44 13.5h-20l3 20h90q41 0 58.5 -12.5t17.5 -48.5q0 -9 -6.5 -50.5t-23.5 -138.5l-38 -220h-90q38 215 52 300z" />
    <glyph glyph-name="uni0457" unicode="&#x457;" horiz-adv-x="251" 
d="M94 300q14 85 14 95q0 28 -13 41.5t-44 13.5h-20l3 20h90q41 0 58.5 -12.5t17.5 -48.5q0 -9 -6.5 -50.5t-23.5 -138.5l-38 -220h-90q38 215 52 300zM35.5 545q-10.5 10 -10.5 26q0 21 15.5 37.5t38.5 16.5q17 0 27.5 -10.5t10.5 -26.5q0 -20 -16.5 -36.5t-37.5 -16.5
q-17 0 -27.5 10zM205.5 545q-10.5 10 -10.5 26q0 21 15.5 37.5t38.5 16.5q17 0 27.5 -10.5t10.5 -26.5q0 -20 -16.5 -36.5t-37.5 -16.5q-17 0 -27.5 10z" />
    <glyph glyph-name="uni0458" unicode="&#x458;" horiz-adv-x="251" 
d="M140 545q-13 15 -13 37q0 24 15 40.5t40 16.5q20 0 33 -15t13 -37q0 -24 -15 -40.5t-40 -16.5q-20 0 -33 15zM-82 -170q47 0 79.5 51t48.5 144q35 200 48.5 280t13.5 90q0 28 -13 41.5t-44 13.5h-20l3 20h90q41 0 58.5 -12.5t17.5 -48.5q0 -9 -6 -46.5t-21 -122.5
l-37 -215q-14 -78 -38.5 -124.5t-68.5 -68.5t-115 -22z" />
    <glyph glyph-name="uni0459" unicode="&#x459;" horiz-adv-x="774" 
d="M-13.5 -7q-14.5 3 -24.5 6l4 25q58 0 106 69.5t81 256.5q5 27 5 44q0 28 -13 42t-45 14l3 20h395l-33 -190h75q183 0 183 -111q0 -92 -64.5 -130.5t-167.5 -38.5h-165l75 430h-165l-14 -80q-36 -205 -91 -282.5t-122 -77.5q-8 0 -22.5 3zM590 67q38 32 38 101
q0 41 -26 59t-78 18q-15 0 -35 -3t-32 -7l-34 -190q12 -4 31 -7t33 -3q65 0 103 32z" />
    <glyph glyph-name="uni045A" unicode="&#x45a;" horiz-adv-x="764" 
d="M105 395q0 28 -13 41.5t-44 13.5h-15l3 20h85q41 0 58.5 -12.5t17.5 -48.5q0 -12 -10 -73l-13 -76h190l37 210h90l-37 -210h75q184 0 184 -105q0 -84 -63.5 -119.5t-165.5 -35.5h-165l38 220h-190l-38 -220h-90q66 376 66 395zM580.5 64.5q37.5 29.5 37.5 87.5
q0 73 -105 73q-15 0 -35 -3t-32 -7l-30 -170q12 -4 31 -7t33 -3q63 0 100.5 29.5z" />
    <glyph glyph-name="uni045B" unicode="&#x45b;" horiz-adv-x="532" 
d="M112 500h-70l7 40h70l10 60l61 60h40l-21 -120h120l-7 -40h-120l-21 -120q25 21 60.5 35.5t77.5 14.5q144 0 144 -130q0 -27 -49 -300h-90q26 155 36.5 217t10.5 70q0 50 -25.5 74t-64.5 24q-50 0 -109 -53l-58 -332h-90z" />
    <glyph glyph-name="uni045C" unicode="&#x45c;" horiz-adv-x="499" 
d="M260 70l-90 145l-37 -215h-90q66 376 66 395q0 28 -13 41.5t-44 13.5h-20l3 20h90q41 0 58.5 -12.5t17.5 -48.5q0 -10 -6.5 -47t-9.5 -58l-12 -74l156 175q29 32 62 48.5t79 16.5h25l-4 -25q-58 0 -98 -45l-137 -155l89 -145q21 -36 45 -56t56 -25l-3 -19
q-24 -10 -52 -10q-81 0 -131 80zM243 540l91 115h85l-126 -115h-50z" />
    <glyph glyph-name="uni045D" unicode="&#x45d;" horiz-adv-x="537" 
d="M50 120q0 12 8 62t29 168q5 32 5 45q0 28 -13 41.5t-44 13.5h-10l3 20h80q41 0 58.5 -12.5t17.5 -48.5q0 -17 -7 -59q-35 -194 -35 -218q0 -50 25.5 -73.5t64.5 -23.5q50 0 109 53l67 382h90l-82 -470h-50l-28 40h-5q-27 -22 -62.5 -36t-76.5 -14q-144 0 -144 130z
M259 525l-72 130h95l17 -130h-40z" />
    <glyph glyph-name="uni045E" unicode="&#x45e;" horiz-adv-x="514" 
d="M265.5 533q-27.5 21 -43.5 59l23 15q17 -20 40 -30t63 -10t67 10t50 30l17 -15q-57 -80 -144 -80q-45 0 -72.5 21zM23 -170q49 0 85 22.5t68 82.5l30 55l-91 391q-17 72 -96 80l3 20h85q87 0 106 -80l66 -278l187 348h50l-290 -536q-42 -79 -82.5 -107t-96.5 -28h-30z
" />
    <glyph glyph-name="uni045F" unicode="&#x45f;" horiz-adv-x="540" 
d="M194 0h-155q66 376 66 395q0 28 -13 41.5t-44 13.5h-15l3 20h85q41 0 58.5 -12.5t17.5 -48.5q0 -7 -15 -96l-46 -273h200l75 430h90l-82 -470h-155l-42 -150h-40z" />
    <glyph glyph-name="uni0462" unicode="&#x462;" horiz-adv-x="668" 
d="M563.5 347q67.5 -33 67.5 -119q0 -129 -91 -178.5t-210 -49.5h-200l90 520h-12q-124 0 -146 -115h-20l14 75q14 80 99 80h71q3 15 3 23q0 28 -13 42.5t-44 14.5h-20l4 20h90q41 0 58 -12.5t17 -48.5q0 -15 -4 -39h223l-7 -40h-222l-24 -140h110q99 0 166.5 -33zM427 57
q48 22 76 65t28 104q0 59 -41 89t-115 30q-46 0 -97 -14l-50 -282q48 -14 93 -14q58 0 106 22z" />
    <glyph glyph-name="uni0463" unicode="&#x463;" horiz-adv-x="650" 
d="M94 300q14 85 14 95q0 28 -13 41.5t-44 13.5h-20l3 20h90q70 0 78 -40h5q21 22 48.5 36t60.5 14q113 0 113 -128q0 -17 -9 -72h53q153 0 153 -111q0 -54 -28 -92.5t-74 -57.5t-100 -19q-61 0 -89.5 24t-28.5 84q0 31 5 60l27 171q3 17 3 31q0 32 -13.5 48.5t-39.5 16.5
q-47 0 -89 -53l-67 -382h-90q38 215 52 300zM502.5 67.5q28.5 32.5 28.5 100.5q0 41 -18.5 59t-55.5 18q-19 0 -44 -9l-22 -123q-3 -18 -3 -32q0 -46 42 -46q44 0 72.5 32.5z" />
    <glyph glyph-name="uni046A" unicode="&#x46a;" horiz-adv-x="948" 
d="M-57 0l3 19q36 4 87 35t93 76l164 170q29 29 56 42t69 16l-138 206q-31 39 -59.5 55t-62.5 16l4 25h737l-4 -25q-33 0 -65 -16t-82 -54l-199 -205q85 0 113 -44l114 -186q29 -45 68 -76t72 -35l-3 -19q-32 -10 -67 -10q-45 0 -94 25.5t-90 94.5l-131 220l-58 -330h-87
l58 330l-209 -220q-65 -69 -123 -94.5t-103 -25.5q-35 0 -63 10zM482 350l262 270h-443z" />
    <glyph glyph-name="uni046B" unicode="&#x46b;" horiz-adv-x="686" 
d="M-40 0l3 19q35 5 66 24.5t64 56.5l89 100q26 30 45 42t48 13l-99 145q-31 45 -88 45l5 25h570l-5 -25q-57 0 -102 -45l-150 -145h7q19 0 36.5 -16t36.5 -54l37 -75q19 -37 48.5 -61.5t61.5 -29.5l-3 -19q-24 -10 -52 -10q-78 0 -121 80l-79 145l-38 -215h-90l38 215
l-131 -145q-71 -80 -149 -80q-28 0 -48 10zM341 251l184 179h-303z" />
    <glyph glyph-name="uni0472" unicode="&#x472;" horiz-adv-x="712" 
d="M564 645q58 -35 88 -97t30 -141q0 -102 -47.5 -201t-134 -162.5t-197.5 -63.5q-80 0 -137.5 35t-87.5 96t-30 140q0 102 47.5 201.5t133.5 163.5t197 64q80 0 138 -35zM252.5 559q-65.5 -81 -91.5 -199h419q4 31 4 67q0 101 -42.5 157t-122.5 56q-101 0 -166.5 -81z
M436.5 63q54.5 43 88 111t48.5 146h-420q-7 -43 -7 -89q0 -101 42 -156t122 -55q72 0 126.5 43z" />
    <glyph glyph-name="uni0473" unicode="&#x473;" horiz-adv-x="600" 
d="M434.5 427.5q47.5 -52.5 47.5 -136.5q0 -73 -33.5 -142.5t-94.5 -114t-140 -44.5q-87 0 -134.5 52.5t-47.5 136.5q0 73 33.5 142.5t94.5 114t140 44.5q87 0 134.5 -52.5zM311 74.5q38 44.5 57.5 107.5t19.5 115q0 64 -25 103.5t-70 39.5q-58 0 -98.5 -54.5t-58.5 -130.5
h225l-7 -40h-225q-3 -22 -3 -42q0 -64 25 -103.5t70 -39.5q52 0 90 44.5z" />
    <glyph glyph-name="uni0474" unicode="&#x474;" horiz-adv-x="658" 
d="M712 660l-3 -20q-43 -4 -70 -25.5t-59 -79.5l-304 -545h-18l-134 553q-15 58 -33.5 79.5t-58.5 25.5l4 20q5 0 14.5 1t19.5 1q50 0 91.5 -25.5t60.5 -101.5l99 -399l213 391q41 74 77 100.5t68 26.5q15 0 33 -2z" />
    <glyph glyph-name="uni0475" unicode="&#x475;" horiz-adv-x="526" 
d="M542 470l-3 -20q-35 -4 -59 -26.5t-58 -81.5l-201 -351l-20 -1l-90 365q-14 56 -32.5 78.5t-53.5 24.5l3 20q5 0 15 1t20 1q53 0 91 -26.5t57 -98.5l49 -207l112 192q43 76 73 103.5t63 27.5q25 0 34 -1z" />
    <glyph glyph-name="uni0490" unicode="&#x490;" horiz-adv-x="539" 
d="M120 348q10 61 24.5 144t14.5 91q0 28 -13 42.5t-44 14.5h-20l4 20h355q123 0 145 115h20l-19 -110q-3 -19 -19 -32t-34 -13h-275l-109 -620h-90z" />
    <glyph glyph-name="uni0491" unicode="&#x491;" horiz-adv-x="437" 
d="M103 395q0 28 -13 41.5t-44 13.5h-10l3 20h280q47 0 81 26.5t42 73.5h20l-18 -100q-7 -40 -47 -40h-195l-75 -430h-90q66 376 66 395z" />
    <glyph glyph-name="uni0492" unicode="&#x492;" horiz-adv-x="541" 
d="M574 601q0 -2 -4 -27l-11 -69h-20q3 17 3 30q0 85 -108 85h-175l-47 -270h120l-7 -40h-120l-55 -310h-90l54 310h-69l7 40h68q5 28 9.5 54.5t8.5 51.5q21 118 21 127q0 28 -13 42.5t-44 14.5h-20l4 20h415q73 0 73 -59z" />
    <glyph glyph-name="uni0493" unicode="&#x493;" horiz-adv-x="481" 
d="M478 412q0 -6 -2 -22l-11 -60h-20q2 16 2 22q0 37 -24 57.5t-65 20.5h-110l-29 -165h116l-7 -40h-116l-40 -225h-90l40 225h-74l7 40h74l15 85q4 21 4 43q0 28 -13 42.5t-44 14.5h-10l4 20h330q63 0 63 -58z" />
    <glyph glyph-name="uni0494" unicode="&#x494;" horiz-adv-x="595" 
d="M538 505q3 17 3 30q0 85 -108 85h-175l-39 -224q31 14 73 24t88 10q76 0 125.5 -40t49.5 -127q0 -28 -6 -63q-25 -141 -107 -224t-244 -103l3 20q212 40 258 307q5 32 5 52q0 65 -33.5 98.5t-91.5 33.5t-128 -29l-62 -355h-90l60 348q10 61 24.5 144t14.5 91
q0 28 -13 42.5t-44 14.5h-20l4 20h415q73 0 73 -59q0 -2 -4 -27l-11 -69h-20z" />
    <glyph glyph-name="uni0495" unicode="&#x495;" horiz-adv-x="470" 
d="M397 330q2 16 2 22q0 37 -24 57.5t-65 20.5h-110l-26 -147q50 8 86 8q80 0 121.5 -38t41.5 -114q0 -29 -6 -64q-11 -61 -47 -110t-95 -77t-136 -28l4 20q48 0 87 28.5t64 73.5t33 93q7 42 7 65q0 54 -26.5 79t-83.5 25q-23 0 -58 -5l-42 -239h-90l62 350q4 21 4 43
q0 28 -13 42.5t-44 14.5h-10l4 20h330q63 0 63 -58q0 -6 -2 -22l-11 -60h-20z" />
    <glyph glyph-name="uni0496" unicode="&#x496;" horiz-adv-x="945" 
d="M888 620q-35 -15 -74 -55l-189 -195l147 -240q25 -42 62 -72q15 -11 30.5 -14.5t40.5 -3.5q15 0 23.5 -10t5.5 -25l-33 -185h-45q1 15 1 42q0 58 -13.5 89.5t-40.5 42.5q-88 20 -144 116l-131 220l-58 -330h-87l58 330l-209 -220q-65 -69 -123 -94.5t-103 -25.5
q-33 0 -63 10l4 19q35 4 84 35t94 76l233 240l-121 195q-24 40 -54.5 55t-68.5 15l5 25h50q47 0 78 -27t63 -78l133 -210l56 315h87l-56 -315l207 210q47 50 89.5 77.5t89.5 27.5h50l-5 -25q-38 0 -73 -15z" />
    <glyph glyph-name="uni0497" unicode="&#x497;" horiz-adv-x="693" 
d="M619.5 433.5q-27.5 -11.5 -44.5 -33.5l-122 -155l79 -145q13 -22 17 -27q15 -20 31 -26.5t43 -6.5q15 0 23 -10t6 -25l-28 -160h-40q2 30 2 42q0 46 -11 72t-34 36q-50 13 -84 75l-80 145l-37 -215h-90l37 215l-130 -145q-38 -42 -74 -61t-75 -19q-26 0 -48 10l3 19
q35 5 65.5 24.5t63.5 56.5l131 145l-68 155q-22 45 -87 45l4 25h25q89 0 119 -65l74 -175l42 240h90l-42 -240l136 175q51 65 141 65h25l-4 -25q-31 0 -58.5 -11.5z" />
    <glyph glyph-name="uni0498" unicode="&#x498;" horiz-adv-x="572" 
d="M482.5 292.5q32.5 -33.5 32.5 -84.5q0 -112 -76.5 -165t-180.5 -61l-30 -167h-40q6 51 6 83q0 45 -10.5 63t-32.5 25q-52 9 -89.5 37.5t-61.5 81.5l23 15q28 -48 73 -74t114 -26q58 0 104.5 21.5t73 61.5t26.5 94q0 57 -42 87.5t-125 30.5h-75l7 40h75q50 0 95.5 20.5
t74 59.5t28.5 92q0 54 -37 83.5t-91 29.5q-71 0 -128.5 -42t-89.5 -118h-20q10 57 18.5 83t29.5 47q31 31 89.5 50.5t112.5 19.5q88 0 150 -31t62 -114q0 -65 -41.5 -116t-130.5 -79q74 -14 106.5 -47.5z" />
    <glyph glyph-name="uni0499" unicode="&#x499;" horiz-adv-x="456" 
d="M361 205.5q25 -24.5 25 -61.5q0 -72 -51.5 -108.5t-131.5 -43.5l-28 -152h-35q8 58 8 84q0 32 -10 47t-34 25q-67 14 -104 74l22 15q22 -26 49 -40.5t77 -14.5q66 0 105 28.5t39 85.5q0 76 -126 76h-45l7 40h45q67 0 105 28t38 81q0 34 -24 52.5t-62 18.5
q-54 0 -95 -28.5t-53 -76.5h-20q10 60 29.5 91t56.5 42.5t104 11.5q69 0 114 -25t45 -80t-32.5 -88.5t-88.5 -46.5q46 -10 71 -34.5z" />
    <glyph glyph-name="uni049A" unicode="&#x49a;" horiz-adv-x="673" 
d="M614.5 620.5q-33.5 -14.5 -80.5 -55.5l-229 -195l187 -240q34 -45 74 -74q14 -10 29 -13t38 -3q15 0 23.5 -10t5.5 -25l-33 -185h-45q1 15 1 42q0 58 -13.5 90t-41.5 43q-75 17 -151 115l-171 220l-58 -330h-90l60 348q10 61 24.5 144t14.5 91q0 28 -13 42.5t-44 14.5
h-20l4 20h90q41 0 58.5 -12.5t17.5 -48.5q0 -13 -7.5 -58t-34.5 -196l247 210q19 16 20 17q49 44 85.5 66t83.5 22h50l-5 -25q-43 0 -76.5 -14.5z" />
    <glyph glyph-name="uni049B" unicode="&#x49b;" horiz-adv-x="507" 
d="M393 400l-137 -155l89 -145q14 -23 25 -35q13 -15 28 -20t39 -5q15 0 23 -10t6 -25l-28 -160h-40q2 30 2 41q0 49 -12.5 75.5t-38.5 34.5q-52 15 -89 74l-90 145l-37 -215h-90q66 376 66 395q0 28 -13 41.5t-44 13.5h-20l3 20h90q41 0 58.5 -12.5t17.5 -48.5
q0 -10 -6.5 -47t-9.5 -58l-12 -74l156 175q29 32 62 48.5t79 16.5h25l-4 -25q-58 0 -98 -45z" />
    <glyph glyph-name="uni049C" unicode="&#x49c;" horiz-adv-x="727" 
d="M665 620q-34 -15 -81 -55l-230 -195l188 -240q36 -45 75.5 -75.5t74.5 -35.5l-3 -19q-32 -10 -67 -10q-47 0 -93.5 25.5t-100.5 94.5l-151 196l-18 -100h-43l20 111h-31l-56 -317h-90l95 540q5 28 5 45q0 27 -13 41t-44 14h-20l3 20h90q42 0 59 -12.5t17 -48.5
q0 -17 -7 -59l-32 -183h31l18 104h43l-16 -93l219 187q24 21 25 22q48 43 82.5 63t80.5 20h50l-4 -25q-42 0 -76 -15z" />
    <glyph glyph-name="uni049D" unicode="&#x49d;" horiz-adv-x="560" 
d="M455 400l-138 -155l90 -145q21 -36 45 -56t55 -25l-3 -19q-24 -10 -52 -10q-81 0 -131 80l-78 127l-17 -93h-40l18 99h-34l-36 -203h-90l62 350q4 21 4 43q0 28 -13 42.5t-44 14.5h-20l4 20h90q41 0 58 -12.5t17 -48.5q0 -23 -6 -59l-19 -107h34l17 96h40l-16 -89
l138 155q29 32 62.5 48.5t79.5 16.5h25l-5 -25q-57 0 -97 -45z" />
    <glyph glyph-name="uni04A0" unicode="&#x4a0;" horiz-adv-x="779" 
d="M717 620q-34 -15 -81 -55l-230 -195l188 -240q36 -45 75.5 -75.5t74.5 -35.5l-3 -19q-32 -10 -67 -10q-47 0 -93.5 25.5t-100.5 94.5l-171 220l-58 -330h-90l109 620h-45q-125 0 -145 -115h-20l13 75q14 80 99 80h195l-55 -315l247 210q24 21 25 22q48 43 82.5 63
t80.5 20h50l-4 -25q-42 0 -76 -15z" />
    <glyph glyph-name="uni04A1" unicode="&#x4a1;" horiz-adv-x="561" 
d="M322 70l-89 145l-38 -215h-90l76 430h-28q-46 0 -80 -26.5t-43 -73.5h-20l11 60q14 80 89 80h168l-42 -240l155 175q29 32 62.5 48.5t79.5 16.5h25l-5 -25q-57 0 -97 -45l-138 -155l90 -145q21 -36 45 -56t55 -25l-3 -19q-24 -10 -52 -10q-81 0 -131 80z" />
    <glyph glyph-name="uni04A2" unicode="&#x4a2;" horiz-adv-x="698" 
d="M553 -140q0 77 -22.5 108.5t-71.5 31.5h-10l56 320h-300l-56 -320h-90l95 540q5 28 5 45q0 27 -13 41t-44 14h-20l3 20h90q42 0 59 -12.5t17 -48.5q0 -17 -7 -59l-32 -180h300l53 300h90l-109 -620h55q15 0 23 -10t6 -25l-33 -185h-45q1 14 1 40z" />
    <glyph glyph-name="uni04A3" unicode="&#x4a3;" horiz-adv-x="566" 
d="M429 -114q0 61 -19 87.5t-61 26.5h-20l38 215h-200l-38 -215h-90l62 350q4 21 4 43q0 28 -13 42.5t-44 14.5h-15l4 20h85q41 0 58 -12.5t17 -48.5q0 -23 -6 -59l-17 -95h200l38 215h90l-76 -430h40q15 0 23 -10t6 -25l-28 -160h-40q2 30 2 41z" />
    <glyph glyph-name="uni04A4" unicode="&#x4a4;" horiz-adv-x="900" 
d="M933 601q0 -7 -2 -21l-13 -75h-20q3 17 3 30q0 85 -108 85h-145l-88 -500q-5 -32 -5 -45q0 -28 13 -41.5t44 -13.5h20l-3 -20h-90q-41 0 -58.5 12.5t-17.5 48.5q0 17 7 59l35 200h-300l-56 -320h-90l95 540q4 21 4 43q0 28 -13 42.5t-44 14.5h-20l4 20h90q42 0 58.5 -12
t16.5 -49q0 -23 -6 -59l-32 -180h300l35 196q2 20 2 28q0 28 -13 42t-44 14h-20l3 20h385q73 0 73 -59z" />
    <glyph glyph-name="uni04A5" unicode="&#x4a5;" horiz-adv-x="742" 
d="M714 412q0 -6 -2 -22l-11 -60h-20q2 16 2 22q0 37 -24 57.5t-65 20.5h-100q-33 -192 -46 -268.5t-13 -86.5q0 -28 12.5 -41.5t44.5 -13.5h15l-3 -20h-85q-42 0 -59 12.5t-17 47.5q0 25 23 155h-200l-37 -215h-90q66 376 66 395q0 28 -13 41.5t-44 13.5h-15l3 20h85
q41 0 58.5 -12.5t17.5 -48.5q0 -12 -5.5 -47t-18.5 -107h200l19 105q2 12 2 33q0 28 -12.5 42.5t-44.5 14.5h-10l4 20h320q63 0 63 -58z" />
    <glyph glyph-name="uni04AA" unicode="&#x4aa;" horiz-adv-x="666" 
d="M524.5 668.5q51.5 -11.5 89.5 -40.5t38 -78q0 -23 -8 -73l-4 -27h-20q-2 97 -45 143.5t-127 46.5q-97 0 -165.5 -58.5t-103 -150.5t-34.5 -190q0 -97 47.5 -159t146.5 -62q73 0 134 35t116 105l17 -15q-56 -79 -118.5 -117t-140.5 -46l-30 -167h-40q6 52 6 84
q0 46 -11 63.5t-35 24.5q-91 18 -141.5 88t-50.5 170q0 97 50.5 199t137.5 169t192 67q48 0 99.5 -11.5z" />
    <glyph glyph-name="uni04AB" unicode="&#x4ab;" horiz-adv-x="484" 
d="M409 466q45 -14 45 -64q0 -23 -11 -80l-1 -7h-20q1 8 1 22q0 51 -29.5 77t-79.5 26q-61 0 -103.5 -41.5t-63 -103.5t-20.5 -124q0 -66 28.5 -103.5t86.5 -37.5q51 0 87.5 19.5t71.5 60.5l17 -15q-67 -87 -157 -101l-28 -154h-35q8 58 8 83q0 32 -9.5 47t-32.5 25
q-67 13 -99.5 60.5t-32.5 118.5q0 75 32.5 146t93.5 115.5t143 44.5q63 0 108 -14z" />
    <glyph glyph-name="uni04AE" unicode="&#x4ae;" horiz-adv-x="629" 
d="M286 273l-125 257q-27 54 -52.5 80.5t-73.5 29.5l4 20h90q50 0 79 -29.5t51 -80.5l106 -225l268 335h45l-301 -380l-49 -280h-90z" />
    <glyph glyph-name="uni04AF" unicode="&#x4af;" horiz-adv-x="484" 
d="M157 0l-61 355q-14 56 -32.5 78.5t-53.5 24.5l3 20q5 0 15 1t20 1q53 0 91 -26.5t57 -98.5l41 -278l209 393h50l-246 -452l-37 -208h-90z" />
    <glyph glyph-name="uni04B0" unicode="&#x4b0;" horiz-adv-x="629" 
d="M377 280h99l-7 -40h-99l-42 -240h-90l42 240h-91l7 40h87l-122 250q-27 54 -52.5 80.5t-73.5 29.5l4 20h90q50 0 79 -29.5t51 -80.5l106 -225l268 335h45z" />
    <glyph glyph-name="uni04B1" unicode="&#x4b1;" horiz-adv-x="484" 
d="M251 20h93l-7 -40h-94l-30 -170h-90l30 170h-96l7 40h90l-58 335q-14 56 -32.5 78.5t-53.5 24.5l3 20q5 0 15 1t20 1q53 0 91 -26.5t57 -98.5l41 -278l209 393h50z" />
    <glyph glyph-name="uni04B6" unicode="&#x4b6;" horiz-adv-x="638" 
d="M587.5 30q8.5 -10 5.5 -25l-32 -185h-45q1 13 1 36q0 79 -23 111.5t-72 32.5h-10l7 41l40 229q-47 -20 -138 -20q-103 0 -158.5 31t-55.5 119q0 29 12 87q12 62 12 96q0 28 -13 42.5t-44 14.5h-10l4 20h90q41 0 58 -12.5t17 -48.5q0 -23 -4.5 -49.5t-9.5 -51.5
q-7 -35 -10.5 -58.5t-3.5 -48.5q0 -58 31 -79.5t97 -21.5q35 0 71 5t62 15l62 350h90l-109 -620h55q15 0 23.5 -10z" />
    <glyph glyph-name="uni04B7" unicode="&#x4b7;" horiz-adv-x="530" 
d="M489.5 30q8.5 -10 5.5 -25l-28 -160h-40q2 30 2 41q0 61 -19 87.5t-61 26.5h-30l7 40l27 153q-52 -18 -104 -18q-157 0 -157 112q0 17 6 51q7 32 7 57q0 28 -13 41.5t-44 13.5h-10l3 20h85q41 0 58.5 -12.5t17.5 -48.5q0 -19 -8 -59t-8 -64q0 -37 21 -54t54 -17
q47 0 99 18l41 237h90l-75 -430h50q15 0 23.5 -10z" />
    <glyph glyph-name="uni04B8" unicode="&#x4b8;" horiz-adv-x="638" 
d="M618 660l-116 -660h-90l47 270q-42 -18 -120 -20l-18 -98h-40l18 98q-93 3 -142.5 35t-49.5 115q0 29 12 87q12 62 12 96q0 28 -13 42.5t-44 14.5h-10l4 20h90q41 0 58 -12.5t17 -48.5q0 -23 -4.5 -49.5t-9.5 -51.5q-7 -35 -10.5 -58.5t-3.5 -48.5q0 -52 24.5 -74.5
t76.5 -25.5l17 96h40l-17 -97q74 2 120 20l62 350h90z" />
    <glyph glyph-name="uni04B9" unicode="&#x4b9;" horiz-adv-x="530" 
d="M491 470l-82 -470h-90l34 193q-41 -14 -77 -17l-14 -80h-40l14 79q-144 4 -144 112q0 17 6 51q7 32 7 57q0 28 -13 41.5t-44 13.5h-10l3 20h85q41 0 58.5 -12.5t17.5 -48.5q0 -19 -8 -59t-8 -64q0 -31 15.5 -48.5t41.5 -21.5l15 83h40l-15 -83q33 3 77 17l41 237h90z" />
    <glyph glyph-name="uni04BA" unicode="&#x4ba;" horiz-adv-x="638" 
d="M213 390q48 20 138 20q103 0 158.5 -31t55.5 -119q0 -29 -12 -87q-12 -62 -12 -96q0 -28 13 -42.5t44 -14.5h10l-4 -20h-90q-41 0 -58 12.5t-17 48.5q0 23 4.5 49.5t9.5 51.5q7 35 10.5 58.5t3.5 48.5q0 58 -31 79.5t-97 21.5q-35 0 -71 -5t-62 -15l-62 -350h-90l116 660
h90z" />
    <glyph glyph-name="uni04BB" unicode="&#x4bb;" horiz-adv-x="532" 
d="M85 348q10 61 24.5 144t14.5 91q0 28 -13 42.5t-44 14.5h-20l4 20h90q42 0 58.5 -12t16.5 -49q0 -13 -5.5 -50.5t-20.5 -118.5q27 22 62.5 36t76.5 14q143 0 143 -128q0 -14 -9.5 -74t-47.5 -278h-90q56 313 56 339q0 49 -25.5 72.5t-64.5 23.5q-50 0 -109 -53l-67 -382
h-90z" />
    <glyph glyph-name="uni04C0" unicode="&#x4c0;" horiz-adv-x="289" 
d="M73.5 12.5q-17.5 12.5 -17.5 48.5q0 17 7 59l95 540h90l-95 -540q-5 -32 -5 -45q0 -28 13 -41.5t44 -13.5h20l-3 -20h-90q-41 0 -58.5 12.5z" />
    <glyph glyph-name="uni04C1" unicode="&#x4c1;" horiz-adv-x="948" 
d="M-57 0l4 19q35 4 84 35t94 76l233 240l-121 195q-24 40 -54.5 55t-68.5 15l5 25h50q47 0 78 -27t63 -78l133 -210l56 315h87l-56 -315l207 210q47 50 89.5 77.5t89.5 27.5h50l-5 -25q-38 0 -73 -15t-74 -55l-189 -195l147 -240q28 -45 67.5 -76t73.5 -35l-3 -19
q-32 -10 -67 -10q-45 0 -94 25.5t-90 94.5l-131 220l-58 -330h-87l58 330l-209 -220q-65 -69 -123 -94.5t-103 -25.5q-33 0 -63 10zM425 800l22 15q29 -45 102 -45q75 0 118 45l18 -15q-56 -90 -146 -90t-114 90z" />
    <glyph glyph-name="uni04C2" unicode="&#x4c2;" horiz-adv-x="686" 
d="M-40 0l3 19q35 5 65.5 24.5t63.5 56.5l131 145l-68 155q-22 45 -87 45l4 25h25q89 0 119 -65l74 -175l42 240h90l-42 -240l136 175q51 65 141 65h25l-4 -25q-31 0 -58.5 -11.5t-44.5 -33.5l-122 -155l79 -145q21 -37 44.5 -56.5t56.5 -24.5l-3 -19q-24 -10 -52 -10
q-39 0 -68.5 19t-52.5 61l-80 145l-37 -215h-90l37 215l-130 -145q-38 -42 -74 -61t-75 -19q-26 0 -48 10zM318.5 542q-27.5 21 -43.5 59l23 15q17 -20 40 -30t63 -10t67 10t50 30l17 -15q-57 -80 -144 -80q-45 0 -72.5 21z" />
    <glyph glyph-name="uni04CB" unicode="&#x4cb;" horiz-adv-x="623" 
d="M618 660l-116 -660h-10q-55 0 -91.5 -40.5t-65.5 -139.5h-45l33 185q3 15 14.5 25t26.5 10h55l40 230q-47 -20 -138 -20q-103 0 -158.5 31t-55.5 119q0 29 12 87q12 62 12 96q0 28 -13 42.5t-44 14.5h-10l4 20h90q41 0 58 -12.5t17 -48.5q0 -23 -4.5 -49.5t-9.5 -51.5
q-7 -35 -10.5 -58.5t-3.5 -48.5q0 -58 31 -79.5t97 -21.5q35 0 71 5t62 15l62 350h90z" />
    <glyph glyph-name="uni04CC" unicode="&#x4cc;" horiz-adv-x="520" 
d="M416 40l-7 -40h-20q-49 0 -79 -36t-53 -119h-40l28 160q2 15 14 25t27 10h40l27 153q-52 -18 -104 -18q-157 0 -157 112q0 17 6 51q7 32 7 57q0 28 -13 41.5t-44 13.5h-10l3 20h85q41 0 58.5 -12.5t17.5 -48.5q0 -19 -8 -59t-8 -64q0 -37 21 -54t54 -17q47 0 99 18
l41 237h90z" />
    <glyph glyph-name="uni04CF" unicode="&#x4cf;" horiz-adv-x="244" 
d="M89 348q10 61 24.5 144t14.5 91q0 28 -13 42.5t-44 14.5h-20l4 20h90q42 0 58.5 -12t16.5 -49q0 -15 -17 -117.5t-84 -481.5h-90z" />
    <glyph glyph-name="uni04D0" unicode="&#x4d0;" horiz-adv-x="634" 
d="M486.5 21.5q-41.5 26.5 -57.5 103.5l-14 65h-280l-113 -190h-45l396 660h30l126 -535q12 -57 31 -79t60 -26l-3 -20q-20 -5 -41 -5q-48 0 -89.5 26.5zM157 230h245l-69 290zM272 800l22 15q29 -45 102 -45q75 0 118 45l18 -15q-56 -90 -146 -90t-114 90z" />
    <glyph glyph-name="uni04D1" unicode="&#x4d1;" horiz-adv-x="525" 
d="M68.5 38q-36.5 48 -36.5 125q0 73 27.5 143.5t82 119t131.5 54.5q82 0 115 -55h5l43 45h50l-67 -383l-15 -87h-50l-28 45h-5q-23 -24 -56.5 -39.5t-87.5 -15.5q-72 0 -108.5 48zM280.5 46q25.5 16 48.5 44l52 290q-17 30 -34 45t-51 15q-57 0 -95 -46.5t-56 -113
t-18 -123.5q0 -58 21 -92.5t66 -34.5q41 0 66.5 16zM244.5 542q-27.5 21 -43.5 59l23 15q17 -20 40 -30t63 -10t67 10t50 30l17 -15q-57 -80 -144 -80q-45 0 -72.5 21z" />
    <glyph glyph-name="uni04D2" unicode="&#x4d2;" horiz-adv-x="634" 
d="M486.5 21.5q-41.5 26.5 -57.5 103.5l-14 65h-280l-113 -190h-45l396 660h30l126 -535q12 -57 31 -79t60 -26l-3 -20q-20 -5 -41 -5q-48 0 -89.5 26.5zM157 230h245l-69 290zM290.5 735q-10.5 10 -10.5 26q0 21 15.5 37.5t38.5 16.5q17 0 27.5 -10.5t10.5 -26.5
q0 -20 -16.5 -36.5t-37.5 -16.5q-17 0 -27.5 10zM460.5 735q-10.5 10 -10.5 26q0 21 15.5 37.5t38.5 16.5q17 0 27.5 -10.5t10.5 -26.5q0 -20 -16.5 -36.5t-37.5 -16.5q-17 0 -27.5 10z" />
    <glyph glyph-name="uni04D3" unicode="&#x4d3;" horiz-adv-x="525" 
d="M68.5 38q-36.5 48 -36.5 125q0 73 27.5 143.5t82 119t131.5 54.5q82 0 115 -55h5l43 45h50l-67 -383l-15 -87h-50l-28 45h-5q-23 -24 -56.5 -39.5t-87.5 -15.5q-72 0 -108.5 48zM280.5 46q25.5 16 48.5 44l52 290q-17 30 -34 45t-51 15q-57 0 -95 -46.5t-56 -113
t-18 -123.5q0 -58 21 -92.5t66 -34.5q41 0 66.5 16zM202.5 545q-10.5 10 -10.5 26q0 21 15.5 37.5t38.5 16.5q17 0 27.5 -10.5t10.5 -26.5q0 -20 -16.5 -36.5t-37.5 -16.5q-17 0 -27.5 10zM372.5 545q-10.5 10 -10.5 26q0 21 15.5 37.5t38.5 16.5q17 0 27.5 -10.5
t10.5 -26.5q0 -20 -16.5 -36.5t-37.5 -16.5q-17 0 -27.5 10z" />
    <glyph glyph-name="uni04D4" unicode="&#x4d4;" horiz-adv-x="870" 
d="M428 660h361q73 0 73 -58q0 -2 -4 -26l-11 -71h-20q3 17 3 30q0 85 -108 85h-186l-46 -260h270l-7 -40h-270l-49 -280h175q69 0 112.5 25t76.5 85l19 -5l-52 -95q-26 -50 -83 -50h-345l33 190h-240l-138 -190h-50zM162 230h215l68 385z" />
    <glyph glyph-name="uni04D5" unicode="&#x4d5;" horiz-adv-x="752" 
d="M51.5 15q-41.5 25 -41.5 82q0 89 83 126t198 37h30q9 50 9 82q0 56 -21 77t-61 21q-45 0 -75.5 -19t-49.5 -66h-45q7 35 14.5 54t26.5 36q21 18 63.5 26.5t92.5 8.5q51 0 83 -25t41 -65q22 39 65 64.5t91 25.5q84 0 123 -31t39 -83q0 -77 -61 -116.5t-150 -39.5h-104
q-3 -24 -3 -45q0 -62 27.5 -98.5t79.5 -36.5q47 0 83 20t71 60l17 -15q-43 -56 -91 -80.5t-107 -24.5q-117 0 -155 85q-32 -43 -72 -64t-103 -21q-56 0 -97.5 25zM508 250q49 0 81.5 30.5t32.5 83.5q0 36 -17 53.5t-53 17.5q-30 0 -59 -23t-51 -63t-31 -89l-2 -10h99z
M245.5 51q23.5 16 46.5 44l22 125h-30q-67 0 -122.5 -26.5t-55.5 -87.5q0 -34 23 -52.5t58 -18.5t58.5 16z" />
    <glyph glyph-name="uni04D6" unicode="&#x4d6;" horiz-adv-x="593" 
d="M120 348q10 61 24.5 144t14.5 91q0 28 -13 42.5t-44 14.5h-20l4 20h426q73 0 73 -58q0 -2 -4 -26l-11 -71h-20q3 17 3 30q0 85 -108 85h-186l-46 -260h270l-7 -40h-270l-49 -280h175q69 0 112.5 25t76.5 85l19 -5l-52 -95q-26 -50 -83 -50h-345zM252 800l22 15
q29 -45 102 -45q75 0 118 45l18 -15q-56 -90 -146 -90t-114 90z" />
    <glyph glyph-name="uni04D7" unicode="&#x4d7;" horiz-adv-x="487" 
d="M76.5 40.5q-44.5 50.5 -44.5 132.5q0 72 31 143.5t90 117.5t138 46q85 0 126 -31.5t41 -82.5q0 -52 -29.5 -89.5t-77.5 -57t-104 -19.5h-120q-4 -20 -4 -41q0 -56 28.5 -92.5t80.5 -36.5q47 0 83 20t71 60l17 -15q-43 -56 -91 -80.5t-107 -24.5q-84 0 -128.5 50.5z
M249 240q49 2 81.5 36.5t32.5 87.5q0 36 -20.5 56t-58.5 20q-53 0 -93 -53t-57 -147h115zM225.5 542q-27.5 21 -43.5 59l23 15q17 -20 40 -30t63 -10t67 10t50 30l17 -15q-57 -80 -144 -80q-45 0 -72.5 21z" />
    <glyph glyph-name="uni04D8" unicode="&#x4d8;" horiz-adv-x="673" 
d="M99 36q-59 56 -59 165q0 42 9 90l13 56h477q7 38 7 78q0 97 -46 154.5t-129 57.5q-77 0 -133 -33t-109 -101l-23 22q60 82 129 118.5t152 36.5q126 0 191 -73.5t65 -193.5q0 -38 -8 -86q-17 -97 -67 -176t-125.5 -125t-165.5 -46q-119 0 -178 56zM392 55q51 35 87.5 97
t49.5 139h-389q-9 -51 -9 -92q0 -88 38.5 -133.5t115.5 -45.5q56 0 107 35z" />
    <glyph glyph-name="uni04D9" unicode="&#x4d9;" horiz-adv-x="489" 
d="M27 145q0 31 6 65l9 40h303q5 32 5 55q0 62 -27.5 98.5t-78.5 36.5q-47 0 -83.5 -20t-71.5 -60l-17 15q43 56 91.5 80.5t107.5 24.5q85 0 128.5 -50t43.5 -133q0 -29 -6 -62q-12 -68 -46 -124t-85 -88.5t-112 -32.5q-167 0 -167 155zM259 53.5q28 23.5 49 64.5t30 92
h-210q-7 -38 -7 -73q0 -107 80 -107q30 0 58 23.5z" />
    <glyph glyph-name="uni04DC" unicode="&#x4dc;" horiz-adv-x="948" 
d="M-57 0l4 19q35 4 84 35t94 76l233 240l-121 195q-24 40 -54.5 55t-68.5 15l5 25h50q47 0 78 -27t63 -78l133 -210l56 315h87l-56 -315l207 210q47 50 89.5 77.5t89.5 27.5h50l-5 -25q-38 0 -73 -15t-74 -55l-189 -195l147 -240q28 -45 67.5 -76t73.5 -35l-3 -19
q-32 -10 -67 -10q-45 0 -94 25.5t-90 94.5l-131 220l-58 -330h-87l58 330l-209 -220q-65 -69 -123 -94.5t-103 -25.5q-33 0 -63 10zM443.5 735q-10.5 10 -10.5 26q0 21 15.5 37.5t38.5 16.5q17 0 27.5 -10.5t10.5 -26.5q0 -20 -16.5 -36.5t-37.5 -16.5q-17 0 -27.5 10z
M613.5 735q-10.5 10 -10.5 26q0 21 15.5 37.5t38.5 16.5q17 0 27.5 -10.5t10.5 -26.5q0 -20 -16.5 -36.5t-37.5 -16.5q-17 0 -27.5 10z" />
    <glyph glyph-name="uni04DD" unicode="&#x4dd;" horiz-adv-x="686" 
d="M-40 0l3 19q35 5 65.5 24.5t63.5 56.5l131 145l-68 155q-22 45 -87 45l4 25h25q89 0 119 -65l74 -175l42 240h90l-42 -240l136 175q51 65 141 65h25l-4 -25q-31 0 -58.5 -11.5t-44.5 -33.5l-122 -155l79 -145q21 -37 44.5 -56.5t56.5 -24.5l-3 -19q-24 -10 -52 -10
q-39 0 -68.5 19t-52.5 61l-80 145l-37 -215h-90l37 215l-130 -145q-38 -42 -74 -61t-75 -19q-26 0 -48 10zM276.5 545q-10.5 10 -10.5 26q0 21 15.5 37.5t38.5 16.5q17 0 27.5 -10.5t10.5 -26.5q0 -20 -16.5 -36.5t-37.5 -16.5q-17 0 -27.5 10zM446.5 545q-10.5 10 -10.5 26
q0 21 15.5 37.5t38.5 16.5q17 0 27.5 -10.5t10.5 -26.5q0 -20 -16.5 -36.5t-37.5 -16.5q-17 0 -27.5 10z" />
    <glyph glyph-name="uni04DE" unicode="&#x4de;" horiz-adv-x="572" 
d="M84.5 8.5q-53.5 28.5 -84.5 96.5l23 15q28 -48 73 -74t114 -26q58 0 104.5 21.5t73 61.5t26.5 94q0 57 -42 87.5t-125 30.5h-75l7 40h75q50 0 95.5 20.5t74 59.5t28.5 92q0 54 -37 83.5t-91 29.5q-71 0 -128.5 -42t-89.5 -118h-20q10 57 18.5 83t29.5 47q31 31 89.5 50.5
t112.5 19.5q88 0 150 -31t62 -114q0 -65 -41.5 -116t-130.5 -79q74 -14 106.5 -47.5t32.5 -84.5q0 -86 -47.5 -137t-114.5 -71t-135 -20q-80 0 -133.5 28.5zM229.5 735q-10.5 10 -10.5 26q0 21 15.5 37.5t38.5 16.5q17 0 27.5 -10.5t10.5 -26.5q0 -20 -16.5 -36.5
t-37.5 -16.5q-17 0 -27.5 10zM399.5 735q-10.5 10 -10.5 26q0 21 15.5 37.5t38.5 16.5q17 0 27.5 -10.5t10.5 -26.5q0 -20 -16.5 -36.5t-37.5 -16.5q-17 0 -27.5 10z" />
    <glyph glyph-name="uni04DF" unicode="&#x4df;" horiz-adv-x="456" 
d="M60.5 11q-37.5 21 -60.5 59l22 15q22 -26 49 -40.5t77 -14.5q66 0 105 28.5t39 85.5q0 76 -126 76h-45l7 40h45q67 0 105 28t38 81q0 34 -24 52.5t-62 18.5q-54 0 -95 -28.5t-53 -76.5h-20q10 60 29.5 91t56.5 42.5t104 11.5q69 0 114 -25t45 -80t-32.5 -88.5
t-88.5 -46.5q46 -10 71 -34.5t25 -61.5q0 -82 -65.5 -118t-159.5 -36q-63 0 -100.5 21zM137.5 545q-10.5 10 -10.5 26q0 21 15.5 37.5t38.5 16.5q17 0 27.5 -10.5t10.5 -26.5q0 -20 -16.5 -36.5t-37.5 -16.5q-17 0 -27.5 10zM307.5 545q-10.5 10 -10.5 26q0 21 15.5 37.5
t38.5 16.5q17 0 27.5 -10.5t10.5 -26.5q0 -20 -16.5 -36.5t-37.5 -16.5q-17 0 -27.5 10z" />
    <glyph glyph-name="uni04E2" unicode="&#x4e2;" horiz-adv-x="696" 
d="M120 348q10 61 24.5 144t14.5 91q0 28 -13 42.5t-44 14.5h-20l4 20h90q41 0 58 -12.5t17 -48.5q0 -14 -18.5 -123t-67.5 -386l421 570h90l-116 -660h-90l100 570l-420 -570h-90zM287 750v60h255v-60h-255z" />
    <glyph glyph-name="uni04E3" unicode="&#x4e3;" horiz-adv-x="537" 
d="M50 120q0 12 8 62t29 168q5 32 5 45q0 28 -13 41.5t-44 13.5h-10l3 20h80q41 0 58.5 -12.5t17.5 -48.5q0 -17 -7 -59q-35 -194 -35 -218q0 -50 25.5 -73.5t64.5 -23.5q50 0 109 53l67 382h90l-82 -470h-50l-28 40h-5q-27 -22 -62.5 -36t-76.5 -14q-144 0 -144 130z
M164 560v60h255v-60h-255z" />
    <glyph glyph-name="uni04E4" unicode="&#x4e4;" horiz-adv-x="696" 
d="M120 348q10 61 24.5 144t14.5 91q0 28 -13 42.5t-44 14.5h-20l4 20h90q41 0 58 -12.5t17 -48.5q0 -14 -18.5 -123t-67.5 -386l421 570h90l-116 -660h-90l100 570l-420 -570h-90zM301.5 735q-10.5 10 -10.5 26q0 21 15.5 37.5t38.5 16.5q17 0 27.5 -10.5t10.5 -26.5
q0 -20 -16.5 -36.5t-37.5 -16.5q-17 0 -27.5 10zM471.5 735q-10.5 10 -10.5 26q0 21 15.5 37.5t38.5 16.5q17 0 27.5 -10.5t10.5 -26.5q0 -20 -16.5 -36.5t-37.5 -16.5q-17 0 -27.5 10z" />
    <glyph glyph-name="uni04E5" unicode="&#x4e5;" horiz-adv-x="537" 
d="M50 120q0 12 8 62t29 168q5 32 5 45q0 28 -13 41.5t-44 13.5h-10l3 20h80q41 0 58.5 -12.5t17.5 -48.5q0 -17 -7 -59q-35 -194 -35 -218q0 -50 25.5 -73.5t64.5 -23.5q50 0 109 53l67 382h90l-82 -470h-50l-28 40h-5q-27 -22 -62.5 -36t-76.5 -14q-144 0 -144 130z
M178.5 545q-10.5 10 -10.5 26q0 21 15.5 37.5t38.5 16.5q17 0 27.5 -10.5t10.5 -26.5q0 -20 -16.5 -36.5t-37.5 -16.5q-17 0 -27.5 10zM348.5 545q-10.5 10 -10.5 26q0 21 15.5 37.5t38.5 16.5q17 0 27.5 -10.5t10.5 -26.5q0 -20 -16.5 -36.5t-37.5 -16.5q-17 0 -27.5 10z
" />
    <glyph glyph-name="uni04E6" unicode="&#x4e6;" horiz-adv-x="712" 
d="M165.5 15q-57.5 35 -87.5 96t-30 140q0 102 47.5 201.5t133.5 163.5t197 64q80 0 138 -35t88 -97t30 -141q0 -102 -47.5 -201t-134 -162.5t-197.5 -63.5q-80 0 -137.5 35zM461 84.5q62 64.5 92.5 159t30.5 183.5q0 101 -42.5 157t-122.5 56q-90 0 -151.5 -65t-91.5 -160
t-30 -184q0 -101 42 -156t122 -55q89 0 151 64.5zM329.5 735q-10.5 10 -10.5 26q0 21 15.5 37.5t38.5 16.5q17 0 27.5 -10.5t10.5 -26.5q0 -20 -16.5 -36.5t-37.5 -16.5q-17 0 -27.5 10zM499.5 735q-10.5 10 -10.5 26q0 21 15.5 37.5t38.5 16.5q17 0 27.5 -10.5t10.5 -26.5
q0 -20 -16.5 -36.5t-37.5 -16.5q-17 0 -27.5 10z" />
    <glyph glyph-name="uni04E7" unicode="&#x4e7;" horiz-adv-x="529" 
d="M79.5 42.5q-47.5 52.5 -47.5 136.5q0 73 33.5 142.5t94.5 114t140 44.5q87 0 134.5 -52.5t47.5 -136.5q0 -73 -33.5 -142.5t-94.5 -114t-140 -44.5q-87 0 -134.5 52.5zM311 74.5q38 44.5 57.5 107.5t19.5 115q0 64 -25 103.5t-70 39.5q-52 0 -90 -44.5t-57.5 -107.5
t-19.5 -115q0 -64 25 -103.5t70 -39.5q52 0 90 44.5zM204.5 545q-10.5 10 -10.5 26q0 21 15.5 37.5t38.5 16.5q17 0 27.5 -10.5t10.5 -26.5q0 -20 -16.5 -36.5t-37.5 -16.5q-17 0 -27.5 10zM374.5 545q-10.5 10 -10.5 26q0 21 15.5 37.5t38.5 16.5q17 0 27.5 -10.5
t10.5 -26.5q0 -20 -16.5 -36.5t-37.5 -16.5q-17 0 -27.5 10z" />
    <glyph glyph-name="uni04E8" unicode="&#x4e8;" horiz-adv-x="712" 
d="M564 645q58 -35 88 -97t30 -141q0 -102 -47.5 -201t-134 -162.5t-197.5 -63.5q-80 0 -137.5 35t-87.5 96t-30 140q0 102 47.5 201.5t133.5 163.5t197 64q80 0 138 -35zM252.5 559q-65.5 -81 -91.5 -199h419q4 31 4 67q0 101 -42.5 157t-122.5 56q-101 0 -166.5 -81z
M436.5 63q54.5 43 88 111t48.5 146h-420q-7 -43 -7 -89q0 -101 42 -156t122 -55q72 0 126.5 43z" />
    <glyph glyph-name="uni04E9" unicode="&#x4e9;" horiz-adv-x="600" 
d="M434.5 427.5q47.5 -52.5 47.5 -136.5q0 -73 -33.5 -142.5t-94.5 -114t-140 -44.5q-87 0 -134.5 52.5t-47.5 136.5q0 73 33.5 142.5t94.5 114t140 44.5q87 0 134.5 -52.5zM311 74.5q38 44.5 57.5 107.5t19.5 115q0 64 -25 103.5t-70 39.5q-58 0 -98.5 -54.5t-58.5 -130.5
h225l-7 -40h-225q-3 -22 -3 -42q0 -64 25 -103.5t70 -39.5q52 0 90 44.5z" />
    <glyph glyph-name="uni04EE" unicode="&#x4ee;" horiz-adv-x="608" 
d="M84 20q115 0 163 75l15 25l-113 410q-11 38 -20.5 58t-32 35t-63.5 17l4 20h120q44 0 64.5 -28.5t35.5 -81.5l83 -300l252 410h60l-346 -565q-65 -105 -177 -105h-50zM263 750v60h255v-60h-255z" />
    <glyph glyph-name="uni04EF" unicode="&#x4ef;" horiz-adv-x="515" 
d="M23 -170q49 0 85 22.5t68 82.5l30 55l-91 391q-17 72 -96 80l3 20h85q87 0 106 -80l66 -278l187 348h50l-290 -536q-42 -79 -82.5 -107t-96.5 -28h-30zM183 560v60h255v-60h-255z" />
    <glyph glyph-name="uni04F0" unicode="&#x4f0;" horiz-adv-x="608" 
d="M84 20q115 0 163 75l15 25l-113 410q-11 38 -20.5 58t-32 35t-63.5 17l4 20h120q44 0 64.5 -28.5t35.5 -81.5l83 -300l252 410h60l-346 -565q-65 -105 -177 -105h-50zM277.5 735q-10.5 10 -10.5 26q0 21 15.5 37.5t38.5 16.5q17 0 27.5 -10.5t10.5 -26.5
q0 -20 -16.5 -36.5t-37.5 -16.5q-17 0 -27.5 10zM447.5 735q-10.5 10 -10.5 26q0 21 15.5 37.5t38.5 16.5q17 0 27.5 -10.5t10.5 -26.5q0 -20 -16.5 -36.5t-37.5 -16.5q-17 0 -27.5 10z" />
    <glyph glyph-name="uni04F1" unicode="&#x4f1;" horiz-adv-x="515" 
d="M23 -170q49 0 85 22.5t68 82.5l30 55l-91 391q-17 72 -96 80l3 20h85q87 0 106 -80l66 -278l187 348h50l-290 -536q-42 -79 -82.5 -107t-96.5 -28h-30zM197.5 545q-10.5 10 -10.5 26q0 21 15.5 37.5t38.5 16.5q17 0 27.5 -10.5t10.5 -26.5q0 -20 -16.5 -36.5t-37.5 -16.5
q-17 0 -27.5 10zM367.5 545q-10.5 10 -10.5 26q0 21 15.5 37.5t38.5 16.5q17 0 27.5 -10.5t10.5 -26.5q0 -20 -16.5 -36.5t-37.5 -16.5q-17 0 -27.5 10z" />
    <glyph glyph-name="uni04F2" unicode="&#x4f2;" horiz-adv-x="608" 
d="M84 20q115 0 163 75l15 25l-113 410q-11 38 -20.5 58t-32 35t-63.5 17l4 20h120q44 0 64.5 -28.5t35.5 -81.5l83 -300l252 410h60l-346 -565q-65 -105 -177 -105h-50zM321 715l40 130h65l-75 -130h-30zM421 715l40 130h65l-75 -130h-30z" />
    <glyph glyph-name="uni04F3" unicode="&#x4f3;" horiz-adv-x="515" 
d="M23 -170q49 0 85 22.5t68 82.5l30 55l-91 391q-17 72 -96 80l3 20h85q87 0 106 -80l66 -278l187 348h50l-290 -536q-42 -79 -82.5 -107t-96.5 -28h-30zM241 525l40 130h65l-75 -130h-30zM341 525l40 130h65l-75 -130h-30z" />
    <glyph glyph-name="uni04F4" unicode="&#x4f4;" horiz-adv-x="638" 
d="M459 270q-47 -20 -138 -20q-103 0 -158.5 31t-55.5 119q0 29 12 87q12 62 12 96q0 28 -13 42.5t-44 14.5h-10l4 20h90q41 0 58 -12.5t17 -48.5q0 -23 -4.5 -49.5t-9.5 -51.5q-7 -35 -10.5 -58.5t-3.5 -48.5q0 -58 31 -79.5t97 -21.5q35 0 71 5t62 15l62 350h90l-116 -660
h-90zM263.5 735q-10.5 10 -10.5 26q0 21 15.5 37.5t38.5 16.5q17 0 27.5 -10.5t10.5 -26.5q0 -20 -16.5 -36.5t-37.5 -16.5q-17 0 -27.5 10zM433.5 735q-10.5 10 -10.5 26q0 21 15.5 37.5t38.5 16.5q17 0 27.5 -10.5t10.5 -26.5q0 -20 -16.5 -36.5t-37.5 -16.5
q-17 0 -27.5 10z" />
    <glyph glyph-name="uni04F5" unicode="&#x4f5;" horiz-adv-x="530" 
d="M353 193q-52 -18 -104 -18q-157 0 -157 112q0 17 6 51q7 32 7 57q0 28 -13 41.5t-44 13.5h-10l3 20h85q41 0 58.5 -12.5t17.5 -48.5q0 -19 -8 -59t-8 -64q0 -37 21 -54t54 -17q47 0 99 18l41 237h90l-82 -470h-90zM191.5 545q-10.5 10 -10.5 26q0 21 15.5 37.5t38.5 16.5
q17 0 27.5 -10.5t10.5 -26.5q0 -20 -16.5 -36.5t-37.5 -16.5q-17 0 -27.5 10zM361.5 545q-10.5 10 -10.5 26q0 21 15.5 37.5t38.5 16.5q17 0 27.5 -10.5t10.5 -26.5q0 -20 -16.5 -36.5t-37.5 -16.5q-17 0 -27.5 10z" />
    <glyph glyph-name="uni04F6" unicode="&#x4f6;" horiz-adv-x="541" 
d="M574 601q0 -2 -4 -27l-11 -69h-20q3 17 3 30q0 85 -108 85h-175l-102 -580h55q15 0 23.5 -10t5.5 -25l-32 -185h-45q1 13 1 36q0 79 -23 111.5t-72 32.5h-10l7 41l61 351q31 179 31 191q0 28 -13 42.5t-44 14.5h-20l4 20h415q73 0 73 -59z" />
    <glyph glyph-name="uni04F7" unicode="&#x4f7;" horiz-adv-x="441" 
d="M144 -114q0 61 -19 87.5t-61 26.5h-30l7 40l55 310q5 27 5 44q0 28 -13 42t-45 14h-10l4 20h330q63 0 63 -58q0 -6 -2 -22l-11 -60h-20q2 16 2 22q0 37 -24 57.5t-65 20.5h-110l-69 -390h50q15 0 23.5 -10t5.5 -25l-28 -160h-40q2 30 2 41z" />
    <glyph glyph-name="uni04F8" unicode="&#x4f8;" horiz-adv-x="836" 
d="M120 348q10 61 24.5 144t14.5 91q0 28 -13 42.5t-44 14.5h-20l4 20h90q41 0 58 -12.5t17 -48.5q0 -13 -7.5 -61t-26.5 -158h110q88 0 153.5 -33.5t65.5 -118.5q0 -89 -47 -139.5t-111.5 -69.5t-127.5 -19h-200zM621 12.5q-17 12.5 -17 47.5q0 14 17 114.5t85 485.5h90
q-100 -555 -100 -585q0 -28 12.5 -41.5t44.5 -13.5h20l-3 -20h-90q-42 0 -59 12.5zM349.5 59q44.5 24 70.5 67t26 100q0 58 -38 88.5t-103 30.5q-46 0 -97 -14l-50 -282q48 -14 93 -14q54 0 98.5 24zM391.5 735q-10.5 10 -10.5 26q0 21 15.5 37.5t38.5 16.5q17 0 27.5 -10.5
t10.5 -26.5q0 -20 -16.5 -36.5t-37.5 -16.5q-17 0 -27.5 10zM561.5 735q-10.5 10 -10.5 26q0 21 15.5 37.5t38.5 16.5q17 0 27.5 -10.5t10.5 -26.5q0 -20 -16.5 -36.5t-37.5 -16.5q-17 0 -27.5 10z" />
    <glyph glyph-name="uni04F9" unicode="&#x4f9;" horiz-adv-x="690" 
d="M105 395q0 28 -13 41.5t-44 13.5h-15l3 20h85q41 0 58.5 -12.5t17.5 -48.5q0 -17 -19 -129h75q173 0 173 -111q0 -91 -64 -130t-158 -39h-165q66 376 66 395zM495 12.5q-17 12.5 -17 47.5q0 10 7 53t25 145l36 212h90q-38 -215 -52 -300t-14 -95q0 -28 12.5 -41.5
t44.5 -13.5h15l-3 -20h-85q-42 0 -59 12.5zM293.5 67.5q37.5 32.5 37.5 100.5q0 77 -94 77q-15 0 -35 -3t-32 -7l-34 -190q12 -4 31 -7t33 -3q56 0 93.5 32.5zM284.5 545q-10.5 10 -10.5 26q0 21 15.5 37.5t38.5 16.5q17 0 27.5 -10.5t10.5 -26.5q0 -20 -16.5 -36.5
t-37.5 -16.5q-17 0 -27.5 10zM454.5 545q-10.5 10 -10.5 26q0 21 15.5 37.5t38.5 16.5q17 0 27.5 -10.5t10.5 -26.5q0 -20 -16.5 -36.5t-37.5 -16.5q-17 0 -27.5 10z" />
    <glyph glyph-name="uni051A" unicode="&#x51a;" horiz-adv-x="711" 
d="M377 -160q-94 45 -162 153q-80 24 -123.5 92.5t-43.5 165.5q0 102 47.5 201.5t133.5 163.5t197 64q80 0 137.5 -35t87.5 -96t30 -140q0 -91 -35 -176.5t-101.5 -150t-157.5 -91.5q6 -48 39 -88.5t79 -64t89 -23.5l-4 -20q-119 0 -213 45zM461 84.5q62 64.5 92.5 159
t30.5 183.5q0 101 -42.5 157t-122.5 56q-90 0 -151.5 -65t-91.5 -160t-30 -184q0 -101 42 -156t122 -55q89 0 151 64.5z" />
    <glyph glyph-name="uni051B" unicode="&#x51b;" horiz-adv-x="524" 
d="M316 20q-66 -30 -130 -30q-77 0 -115.5 47.5t-38.5 127.5q0 67 26.5 140.5t78.5 124t125 50.5q51 0 81 -16t44 -39h5l43 45h50l-116 -660h-90zM268 38q24 8 55 22l57 320q-14 27 -36 43.5t-59 16.5q-54 0 -89.5 -47t-52 -112.5t-16.5 -121.5q0 -60 23 -94.5t73 -34.5
q21 0 45 8z" />
    <glyph glyph-name="uni051C" unicode="&#x51c;" horiz-adv-x="867" 
d="M121 543q-11 58 -29 79.5t-62 25.5l3 20q5 0 15 1t20 1q56 0 94.5 -24.5t53.5 -102.5l66 -386l163 317l-12 69q-11 58 -29 79.5t-62 25.5l3 20q5 0 15 1t20 1q56 0 94.5 -24.5t53.5 -102.5l66 -386l260 503h43l-347 -670h-20l-74 421l-218 -421h-20z" />
    <glyph glyph-name="uni051D" unicode="&#x51d;" horiz-adv-x="749" 
d="M110 355q-13 56 -31.5 78.5t-55.5 24.5l4 20q5 0 15 1t20 1q54 0 91 -27.5t52 -97.5l48 -210l123 215q-15 53 -32.5 74.5t-50.5 23.5l4 20q5 0 15 1t20 1q54 0 91 -27.5t52 -97.5l48 -210l187 325h50l-279 -480h-20l-71 310l-179 -310h-20z" />
    <glyph glyph-name="uni0524" unicode="&#x524;" horiz-adv-x="698" 
d="M624.5 30q8.5 -10 5.5 -25l-32 -185h-45q1 13 1 36q0 79 -23 111.5t-72 32.5h-10l7 41l102 579h-300l-109 -620h-90l95 540q4 21 4 43q0 28 -13 42.5t-44 14.5h-20l4 20h570l-109 -620h55q15 0 23.5 -10z" />
    <glyph glyph-name="uni0525" unicode="&#x525;" horiz-adv-x="589" 
d="M512.5 30q8.5 -10 5.5 -25l-28 -160h-40q2 30 2 41q0 61 -19 87.5t-61 26.5h-30l7 40q49 274 49 299q0 49 -25.5 72.5t-64.5 23.5q-50 0 -109 -53l-67 -382h-90q38 215 52 300t14 95q0 28 -13 41.5t-44 13.5h-20l3 20h90q70 0 78 -40h5q27 22 62.5 36t76.5 14
q143 0 143 -128q0 -14 -8.5 -67.5t-41.5 -244.5h50q15 0 23.5 -10z" />
    <glyph glyph-name="uni1EA0" unicode="&#x1ea0;" horiz-adv-x="634" 
d="M486.5 21.5q-41.5 26.5 -57.5 103.5l-14 65h-280l-113 -190h-45l396 660h30l126 -535q12 -57 31 -79t60 -26l-3 -20q-20 -5 -41 -5q-48 0 -89.5 26.5zM157 230h245l-69 290zM220 -150.5q-10 10.5 -10 27.5q0 20 16 36t37 16q17 0 27.5 -10.5t10.5 -26.5
q0 -20 -16.5 -36.5t-37.5 -16.5q-17 0 -27 10.5z" />
    <glyph glyph-name="uni1EA1" unicode="&#x1ea1;" horiz-adv-x="525" 
d="M68.5 38q-36.5 48 -36.5 125q0 73 27.5 143.5t82 119t131.5 54.5q82 0 115 -55h5l43 45h50l-67 -383l-15 -87h-50l-28 45h-5q-23 -24 -56.5 -39.5t-87.5 -15.5q-72 0 -108.5 48zM280.5 46q25.5 16 48.5 44l52 290q-17 30 -34 45t-51 15q-57 0 -95 -46.5t-56 -113
t-18 -123.5q0 -58 21 -92.5t66 -34.5q41 0 66.5 16zM166 -150.5q-10 10.5 -10 27.5q0 20 16 36t37 16q17 0 27.5 -10.5t10.5 -26.5q0 -20 -16.5 -36.5t-37.5 -16.5q-17 0 -27 10.5z" />
    <glyph glyph-name="uni1EA2" unicode="&#x1ea2;" horiz-adv-x="634" 
d="M486.5 21.5q-41.5 26.5 -57.5 103.5l-14 65h-280l-113 -190h-45l396 660h30l126 -535q12 -57 31 -79t60 -26l-3 -20q-20 -5 -41 -5q-48 0 -89.5 26.5zM157 230h245l-69 290zM410.5 740.5q7.5 11.5 21.5 29.5q17 21 19 31t2 14q0 26 -27 26q-20 0 -33.5 -11t-24.5 -39
l-41 1q5 29 21 47q19 22 38.5 30.5t46.5 8.5q29 0 50 -15.5t21 -44.5q0 -5 -2 -17q-2 -11 -9 -18.5t-23 -20.5q-17 -14 -26.5 -24.5t-13.5 -26.5h-31q4 18 11.5 29.5z" />
    <glyph glyph-name="uni1EA3" unicode="&#x1ea3;" horiz-adv-x="525" 
d="M68.5 38q-36.5 48 -36.5 125q0 73 27.5 143.5t82 119t131.5 54.5q82 0 115 -55h5l43 45h50l-67 -383l-15 -87h-50l-28 45h-5q-23 -24 -56.5 -39.5t-87.5 -15.5q-72 0 -108.5 48zM280.5 46q25.5 16 48.5 44l52 290q-17 30 -34 45t-51 15q-57 0 -95 -46.5t-56 -113
t-18 -123.5q0 -58 21 -92.5t66 -34.5q41 0 66.5 16zM342.5 550.5q7.5 11.5 21.5 29.5q17 21 19 31t2 14q0 26 -27 26q-20 0 -33.5 -11t-24.5 -39l-41 1q5 29 21 47q19 22 38.5 30.5t46.5 8.5q29 0 50 -15.5t21 -44.5q0 -5 -2 -17q-2 -11 -9 -18.5t-23 -20.5
q-17 -14 -26.5 -24.5t-13.5 -26.5h-31q4 18 11.5 29.5z" />
    <glyph glyph-name="uni1EA4" unicode="&#x1ea4;" horiz-adv-x="634" 
d="M486.5 21.5q-41.5 26.5 -57.5 103.5l-14 65h-280l-113 -190h-45l396 660h30l126 -535q12 -57 31 -79t60 -26l-3 -20q-20 -5 -41 -5q-48 0 -89.5 26.5zM157 230h245l-69 290zM259 710l100 115h110l60 -115h-50l-71 80l-99 -80h-50zM534 773l91 115h85l-126 -115h-50z" />
    <glyph glyph-name="uni1EA5" unicode="&#x1ea5;" horiz-adv-x="525" 
d="M68.5 38q-36.5 48 -36.5 125q0 73 27.5 143.5t82 119t131.5 54.5q82 0 115 -55h5l43 45h50l-67 -383l-15 -87h-50l-28 45h-5q-23 -24 -56.5 -39.5t-87.5 -15.5q-72 0 -108.5 48zM280.5 46q25.5 16 48.5 44l52 290q-17 30 -34 45t-51 15q-57 0 -95 -46.5t-56 -113
t-18 -123.5q0 -58 21 -92.5t66 -34.5q41 0 66.5 16zM191 520l100 115h110l60 -115h-50l-71 80l-99 -80h-50zM466 583l91 115h85l-126 -115h-50z" />
    <glyph glyph-name="uni1EA6" unicode="&#x1ea6;" horiz-adv-x="634" 
d="M486.5 21.5q-41.5 26.5 -57.5 103.5l-14 65h-280l-113 -190h-45l396 660h30l126 -535q12 -57 31 -79t60 -26l-3 -20q-20 -5 -41 -5q-48 0 -89.5 26.5zM157 230h245l-69 290zM259 710l100 115h110l60 -115h-50l-71 80l-99 -80h-50zM550 789l-72 130h95l17 -130h-40z" />
    <glyph glyph-name="uni1EA7" unicode="&#x1ea7;" horiz-adv-x="525" 
d="M68.5 38q-36.5 48 -36.5 125q0 73 27.5 143.5t82 119t131.5 54.5q82 0 115 -55h5l43 45h50l-67 -383l-15 -87h-50l-28 45h-5q-23 -24 -56.5 -39.5t-87.5 -15.5q-72 0 -108.5 48zM280.5 46q25.5 16 48.5 44l52 290q-17 30 -34 45t-51 15q-57 0 -95 -46.5t-56 -113
t-18 -123.5q0 -58 21 -92.5t66 -34.5q41 0 66.5 16zM191 520l100 115h110l60 -115h-50l-71 80l-99 -80h-50zM482 599l-72 130h95l17 -130h-40z" />
    <glyph glyph-name="uni1EA8" unicode="&#x1ea8;" horiz-adv-x="634" 
d="M486.5 21.5q-41.5 26.5 -57.5 103.5l-14 65h-280l-113 -190h-45l396 660h30l126 -535q12 -57 31 -79t60 -26l-3 -20q-20 -5 -41 -5q-48 0 -89.5 26.5zM157 230h245l-69 290zM259 710l100 115h110l60 -115h-50l-71 80l-99 -80h-50zM557.5 823.5q7.5 11.5 21.5 29.5
q17 21 19 31t2 14q0 26 -27 26q-20 0 -33.5 -11t-24.5 -39l-41 1q5 29 21 47q19 22 38.5 30.5t46.5 8.5q29 0 50 -15.5t21 -44.5q0 -5 -2 -17q-2 -11 -9 -18.5t-23 -20.5q-17 -14 -26.5 -24.5t-13.5 -26.5h-31q4 18 11.5 29.5z" />
    <glyph glyph-name="uni1EA9" unicode="&#x1ea9;" horiz-adv-x="525" 
d="M68.5 38q-36.5 48 -36.5 125q0 73 27.5 143.5t82 119t131.5 54.5q82 0 115 -55h5l43 45h50l-67 -383l-15 -87h-50l-28 45h-5q-23 -24 -56.5 -39.5t-87.5 -15.5q-72 0 -108.5 48zM280.5 46q25.5 16 48.5 44l52 290q-17 30 -34 45t-51 15q-57 0 -95 -46.5t-56 -113
t-18 -123.5q0 -58 21 -92.5t66 -34.5q41 0 66.5 16zM191 520l100 115h110l60 -115h-50l-71 80l-99 -80h-50zM489.5 633.5q7.5 11.5 21.5 29.5q17 21 19 31t2 14q0 26 -27 26q-20 0 -33.5 -11t-24.5 -39l-41 1q5 29 21 47q19 22 38.5 30.5t46.5 8.5q29 0 50 -15.5t21 -44.5
q0 -5 -2 -17q-2 -11 -9 -18.5t-23 -20.5q-17 -14 -26.5 -24.5t-13.5 -26.5h-31q4 18 11.5 29.5z" />
    <glyph glyph-name="uni1EAA" unicode="&#x1eaa;" horiz-adv-x="634" 
d="M486.5 21.5q-41.5 26.5 -57.5 103.5l-14 65h-280l-113 -190h-45l396 660h30l126 -535q12 -57 31 -79t60 -26l-3 -20q-20 -5 -41 -5q-48 0 -89.5 26.5zM157 230h245l-69 290zM259 710l100 115h110l60 -115h-50l-71 80l-99 -80h-50zM342 932.5q18 21.5 49 21.5
q15 0 26.5 -5.5t24.5 -15.5q2 -1 11 -7t18 -9t18 -3q11 0 23 13.5t14 26.5h30q-9 -52 -27.5 -73.5t-49.5 -21.5q-14 0 -24 5t-26 15q-14 10 -24.5 15t-23.5 5q-11 0 -23 -13.5t-14 -26.5h-30q10 52 28 73.5z" />
    <glyph glyph-name="uni1EAB" unicode="&#x1eab;" horiz-adv-x="525" 
d="M68.5 38q-36.5 48 -36.5 125q0 73 27.5 143.5t82 119t131.5 54.5q82 0 115 -55h5l43 45h50l-67 -383l-15 -87h-50l-28 45h-5q-23 -24 -56.5 -39.5t-87.5 -15.5q-72 0 -108.5 48zM280.5 46q25.5 16 48.5 44l52 290q-17 30 -34 45t-51 15q-57 0 -95 -46.5t-56 -113
t-18 -123.5q0 -58 21 -92.5t66 -34.5q41 0 66.5 16zM191 520l100 115h110l60 -115h-50l-71 80l-99 -80h-50zM274 742.5q18 21.5 49 21.5q15 0 26.5 -5.5t24.5 -15.5q2 -1 11 -7t18 -9t18 -3q11 0 23 13.5t14 26.5h30q-9 -52 -27.5 -73.5t-49.5 -21.5q-14 0 -24 5t-26 15
q-14 10 -24.5 15t-23.5 5q-11 0 -23 -13.5t-14 -26.5h-30q10 52 28 73.5z" />
    <glyph glyph-name="uni1EAC" unicode="&#x1eac;" horiz-adv-x="634" 
d="M486.5 21.5q-41.5 26.5 -57.5 103.5l-14 65h-280l-113 -190h-45l396 660h30l126 -535q12 -57 31 -79t60 -26l-3 -20q-20 -5 -41 -5q-48 0 -89.5 26.5zM157 230h245l-69 290zM220 -150.5q-10 10.5 -10 27.5q0 20 16 36t37 16q17 0 27.5 -10.5t10.5 -26.5
q0 -20 -16.5 -36.5t-37.5 -16.5q-17 0 -27 10.5zM259 710l100 115h110l60 -115h-50l-71 80l-99 -80h-50z" />
    <glyph glyph-name="uni1EAD" unicode="&#x1ead;" horiz-adv-x="525" 
d="M68.5 38q-36.5 48 -36.5 125q0 73 27.5 143.5t82 119t131.5 54.5q82 0 115 -55h5l43 45h50l-67 -383l-15 -87h-50l-28 45h-5q-23 -24 -56.5 -39.5t-87.5 -15.5q-72 0 -108.5 48zM280.5 46q25.5 16 48.5 44l52 290q-17 30 -34 45t-51 15q-57 0 -95 -46.5t-56 -113
t-18 -123.5q0 -58 21 -92.5t66 -34.5q41 0 66.5 16zM166 -150.5q-10 10.5 -10 27.5q0 20 16 36t37 16q17 0 27.5 -10.5t10.5 -26.5q0 -20 -16.5 -36.5t-37.5 -16.5q-17 0 -27 10.5zM191 520l100 115h110l60 -115h-50l-71 80l-99 -80h-50z" />
    <glyph glyph-name="uni1EAE" unicode="&#x1eae;" horiz-adv-x="634" 
d="M486.5 21.5q-41.5 26.5 -57.5 103.5l-14 65h-280l-113 -190h-45l396 660h30l126 -535q12 -57 31 -79t60 -26l-3 -20q-20 -5 -41 -5q-48 0 -89.5 26.5zM157 230h245l-69 290zM322.5 732q-27.5 21 -43.5 59l23 15q17 -20 40 -30t63 -10t67 10t50 30l17 -15
q-57 -80 -144 -80q-45 0 -72.5 21zM389 829l91 115h85l-126 -115h-50z" />
    <glyph glyph-name="uni1EAF" unicode="&#x1eaf;" horiz-adv-x="525" 
d="M68.5 38q-36.5 48 -36.5 125q0 73 27.5 143.5t82 119t131.5 54.5q82 0 115 -55h5l43 45h50l-67 -383l-15 -87h-50l-28 45h-5q-23 -24 -56.5 -39.5t-87.5 -15.5q-72 0 -108.5 48zM280.5 46q25.5 16 48.5 44l52 290q-17 30 -34 45t-51 15q-57 0 -95 -46.5t-56 -113
t-18 -123.5q0 -58 21 -92.5t66 -34.5q41 0 66.5 16zM254.5 542q-27.5 21 -43.5 59l23 15q17 -20 40 -30t63 -10t67 10t50 30l17 -15q-57 -80 -144 -80q-45 0 -72.5 21zM321 639l91 115h85l-126 -115h-50z" />
    <glyph glyph-name="uni1EB0" unicode="&#x1eb0;" horiz-adv-x="634" 
d="M486.5 21.5q-41.5 26.5 -57.5 103.5l-14 65h-280l-113 -190h-45l396 660h30l126 -535q12 -57 31 -79t60 -26l-3 -20q-20 -5 -41 -5q-48 0 -89.5 26.5zM157 230h245l-69 290zM322.5 732q-27.5 21 -43.5 59l23 15q17 -20 40 -30t63 -10t67 10t50 30l17 -15
q-57 -80 -144 -80q-45 0 -72.5 21zM396 824l-72 130h95l17 -130h-40z" />
    <glyph glyph-name="uni1EB1" unicode="&#x1eb1;" horiz-adv-x="525" 
d="M68.5 38q-36.5 48 -36.5 125q0 73 27.5 143.5t82 119t131.5 54.5q82 0 115 -55h5l43 45h50l-67 -383l-15 -87h-50l-28 45h-5q-23 -24 -56.5 -39.5t-87.5 -15.5q-72 0 -108.5 48zM280.5 46q25.5 16 48.5 44l52 290q-17 30 -34 45t-51 15q-57 0 -95 -46.5t-56 -113
t-18 -123.5q0 -58 21 -92.5t66 -34.5q41 0 66.5 16zM254.5 542q-27.5 21 -43.5 59l23 15q17 -20 40 -30t63 -10t67 10t50 30l17 -15q-57 -80 -144 -80q-45 0 -72.5 21zM328 634l-72 130h95l17 -130h-40z" />
    <glyph glyph-name="uni1EB2" unicode="&#x1eb2;" horiz-adv-x="634" 
d="M486.5 21.5q-41.5 26.5 -57.5 103.5l-14 65h-280l-113 -190h-45l396 660h30l126 -535q12 -57 31 -79t60 -26l-3 -20q-20 -5 -41 -5q-48 0 -89.5 26.5zM157 230h245l-69 290zM322.5 732q-27.5 21 -43.5 59l23 15q17 -20 40 -30t63 -10t67 10t50 30l17 -15
q-57 -80 -144 -80q-45 0 -72.5 21zM404.5 851.5q7.5 11.5 21.5 29.5q17 21 19 31t2 14q0 26 -27 26q-20 0 -33.5 -11t-24.5 -39l-41 1q5 29 21 47q19 22 38.5 30.5t46.5 8.5q29 0 50 -15.5t21 -44.5q0 -5 -2 -17q-2 -11 -9 -18.5t-23 -20.5q-17 -14 -26.5 -24.5t-13.5 -26.5
h-31q4 18 11.5 29.5z" />
    <glyph glyph-name="uni1EB3" unicode="&#x1eb3;" horiz-adv-x="525" 
d="M68.5 38q-36.5 48 -36.5 125q0 73 27.5 143.5t82 119t131.5 54.5q82 0 115 -55h5l43 45h50l-67 -383l-15 -87h-50l-28 45h-5q-23 -24 -56.5 -39.5t-87.5 -15.5q-72 0 -108.5 48zM280.5 46q25.5 16 48.5 44l52 290q-17 30 -34 45t-51 15q-57 0 -95 -46.5t-56 -113
t-18 -123.5q0 -58 21 -92.5t66 -34.5q41 0 66.5 16zM254.5 542q-27.5 21 -43.5 59l23 15q17 -20 40 -30t63 -10t67 10t50 30l17 -15q-57 -80 -144 -80q-45 0 -72.5 21zM336.5 661.5q7.5 11.5 21.5 29.5q17 21 19 31t2 14q0 26 -27 26q-20 0 -33.5 -11t-24.5 -39l-41 1
q5 29 21 47q19 22 38.5 30.5t46.5 8.5q29 0 50 -15.5t21 -44.5q0 -5 -2 -17q-2 -11 -9 -18.5t-23 -20.5q-17 -14 -26.5 -24.5t-13.5 -26.5h-31q4 18 11.5 29.5z" />
    <glyph glyph-name="uni1EB4" unicode="&#x1eb4;" horiz-adv-x="634" 
d="M486.5 21.5q-41.5 26.5 -57.5 103.5l-14 65h-280l-113 -190h-45l396 660h30l126 -535q12 -57 31 -79t60 -26l-3 -20q-20 -5 -41 -5q-48 0 -89.5 26.5zM157 230h245l-69 290zM322.5 732q-27.5 21 -43.5 59l23 15q17 -20 40 -30t63 -10t67 10t50 30l17 -15
q-57 -80 -144 -80q-45 0 -72.5 21zM338 918.5q18 21.5 49 21.5q15 0 26.5 -5.5t24.5 -15.5q2 -1 11 -7t18 -9t18 -3q11 0 23 13.5t14 26.5h30q-9 -52 -27.5 -73.5t-49.5 -21.5q-14 0 -24 5t-26 15q-14 10 -24.5 15t-23.5 5q-11 0 -23 -13.5t-14 -26.5h-30q10 52 28 73.5z
" />
    <glyph glyph-name="uni1EB5" unicode="&#x1eb5;" horiz-adv-x="525" 
d="M68.5 38q-36.5 48 -36.5 125q0 73 27.5 143.5t82 119t131.5 54.5q82 0 115 -55h5l43 45h50l-67 -383l-15 -87h-50l-28 45h-5q-23 -24 -56.5 -39.5t-87.5 -15.5q-72 0 -108.5 48zM280.5 46q25.5 16 48.5 44l52 290q-17 30 -34 45t-51 15q-57 0 -95 -46.5t-56 -113
t-18 -123.5q0 -58 21 -92.5t66 -34.5q41 0 66.5 16zM254.5 542q-27.5 21 -43.5 59l23 15q17 -20 40 -30t63 -10t67 10t50 30l17 -15q-57 -80 -144 -80q-45 0 -72.5 21zM270 728.5q18 21.5 49 21.5q15 0 26.5 -5.5t24.5 -15.5q2 -1 11 -7t18 -9t18 -3q11 0 23 13.5t14 26.5
h30q-9 -52 -27.5 -73.5t-49.5 -21.5q-14 0 -24 5t-26 15q-14 10 -24.5 15t-23.5 5q-11 0 -23 -13.5t-14 -26.5h-30q10 52 28 73.5z" />
    <glyph glyph-name="uni1EB6" unicode="&#x1eb6;" horiz-adv-x="634" 
d="M486.5 21.5q-41.5 26.5 -57.5 103.5l-14 65h-280l-113 -190h-45l396 660h30l126 -535q12 -57 31 -79t60 -26l-3 -20q-20 -5 -41 -5q-48 0 -89.5 26.5zM157 230h245l-69 290zM220 -150.5q-10 10.5 -10 27.5q0 20 16 36t37 16q17 0 27.5 -10.5t10.5 -26.5
q0 -20 -16.5 -36.5t-37.5 -16.5q-17 0 -27 10.5zM322.5 732q-27.5 21 -43.5 59l23 15q17 -20 40 -30t63 -10t67 10t50 30l17 -15q-57 -80 -144 -80q-45 0 -72.5 21z" />
    <glyph glyph-name="uni1EB7" unicode="&#x1eb7;" horiz-adv-x="525" 
d="M68.5 38q-36.5 48 -36.5 125q0 73 27.5 143.5t82 119t131.5 54.5q82 0 115 -55h5l43 45h50l-67 -383l-15 -87h-50l-28 45h-5q-23 -24 -56.5 -39.5t-87.5 -15.5q-72 0 -108.5 48zM280.5 46q25.5 16 48.5 44l52 290q-17 30 -34 45t-51 15q-57 0 -95 -46.5t-56 -113
t-18 -123.5q0 -58 21 -92.5t66 -34.5q41 0 66.5 16zM166 -150.5q-10 10.5 -10 27.5q0 20 16 36t37 16q17 0 27.5 -10.5t10.5 -26.5q0 -20 -16.5 -36.5t-37.5 -16.5q-17 0 -27 10.5zM254.5 542q-27.5 21 -43.5 59l23 15q17 -20 40 -30t63 -10t67 10t50 30l17 -15
q-57 -80 -144 -80q-45 0 -72.5 21z" />
    <glyph glyph-name="uni1EB8" unicode="&#x1eb8;" horiz-adv-x="593" 
d="M120 348q10 61 24.5 144t14.5 91q0 28 -13 42.5t-44 14.5h-20l4 20h426q73 0 73 -58q0 -2 -4 -26l-11 -71h-20q3 17 3 30q0 85 -108 85h-186l-46 -260h270l-7 -40h-270l-49 -280h175q69 0 112.5 25t76.5 85l19 -5l-52 -95q-26 -50 -83 -50h-345zM200 -150.5
q-10 10.5 -10 27.5q0 20 16 36t37 16q17 0 27.5 -10.5t10.5 -26.5q0 -20 -16.5 -36.5t-37.5 -16.5q-17 0 -27 10.5z" />
    <glyph glyph-name="uni1EB9" unicode="&#x1eb9;" horiz-adv-x="487" 
d="M76.5 40.5q-44.5 50.5 -44.5 132.5q0 72 31 143.5t90 117.5t138 46q85 0 126 -31.5t41 -82.5q0 -52 -29.5 -89.5t-77.5 -57t-104 -19.5h-120q-4 -20 -4 -41q0 -56 28.5 -92.5t80.5 -36.5q47 0 83 20t71 60l17 -15q-43 -56 -91 -80.5t-107 -24.5q-84 0 -128.5 50.5z
M249 240q49 2 81.5 36.5t32.5 87.5q0 36 -20.5 56t-58.5 20q-53 0 -93 -53t-57 -147h115zM147 -150.5q-10 10.5 -10 27.5q0 20 16 36t37 16q17 0 27.5 -10.5t10.5 -26.5q0 -20 -16.5 -36.5t-37.5 -16.5q-17 0 -27 10.5z" />
    <glyph glyph-name="uni1EBA" unicode="&#x1eba;" horiz-adv-x="593" 
d="M120 348q10 61 24.5 144t14.5 91q0 28 -13 42.5t-44 14.5h-20l4 20h426q73 0 73 -58q0 -2 -4 -26l-11 -71h-20q3 17 3 30q0 85 -108 85h-186l-46 -260h270l-7 -40h-270l-49 -280h175q69 0 112.5 25t76.5 85l19 -5l-52 -95q-26 -50 -83 -50h-345zM390.5 740.5
q7.5 11.5 21.5 29.5q17 21 19 31t2 14q0 26 -27 26q-20 0 -33.5 -11t-24.5 -39l-41 1q5 29 21 47q19 22 38.5 30.5t46.5 8.5q29 0 50 -15.5t21 -44.5q0 -5 -2 -17q-2 -11 -9 -18.5t-23 -20.5q-17 -14 -26.5 -24.5t-13.5 -26.5h-31q4 18 11.5 29.5z" />
    <glyph glyph-name="uni1EBB" unicode="&#x1ebb;" horiz-adv-x="487" 
d="M76.5 40.5q-44.5 50.5 -44.5 132.5q0 72 31 143.5t90 117.5t138 46q85 0 126 -31.5t41 -82.5q0 -52 -29.5 -89.5t-77.5 -57t-104 -19.5h-120q-4 -20 -4 -41q0 -56 28.5 -92.5t80.5 -36.5q47 0 83 20t71 60l17 -15q-43 -56 -91 -80.5t-107 -24.5q-84 0 -128.5 50.5z
M249 240q49 2 81.5 36.5t32.5 87.5q0 36 -20.5 56t-58.5 20q-53 0 -93 -53t-57 -147h115zM323.5 550.5q7.5 11.5 21.5 29.5q17 21 19 31t2 14q0 26 -27 26q-20 0 -33.5 -11t-24.5 -39l-41 1q5 29 21 47q19 22 38.5 30.5t46.5 8.5q29 0 50 -15.5t21 -44.5q0 -5 -2 -17
q-2 -11 -9 -18.5t-23 -20.5q-17 -14 -26.5 -24.5t-13.5 -26.5h-31q4 18 11.5 29.5z" />
    <glyph glyph-name="uni1EBC" unicode="&#x1ebc;" horiz-adv-x="593" 
d="M120 348q10 61 24.5 144t14.5 91q0 28 -13 42.5t-44 14.5h-20l4 20h426q73 0 73 -58q0 -2 -4 -26l-11 -71h-20q3 17 3 30q0 85 -108 85h-186l-46 -260h270l-7 -40h-270l-49 -280h175q69 0 112.5 25t76.5 85l19 -5l-52 -95q-26 -50 -83 -50h-345zM293 823.5
q18 21.5 49 21.5q15 0 26.5 -5.5t24.5 -15.5q2 -1 11 -7t18 -9t18 -3q11 0 23 13.5t14 26.5h30q-9 -52 -27.5 -73.5t-49.5 -21.5q-14 0 -24 5t-26 15q-14 10 -24.5 15t-23.5 5q-11 0 -23 -13.5t-14 -26.5h-30q10 52 28 73.5z" />
    <glyph glyph-name="uni1EBD" unicode="&#x1ebd;" horiz-adv-x="487" 
d="M76.5 40.5q-44.5 50.5 -44.5 132.5q0 72 31 143.5t90 117.5t138 46q85 0 126 -31.5t41 -82.5q0 -52 -29.5 -89.5t-77.5 -57t-104 -19.5h-120q-4 -20 -4 -41q0 -56 28.5 -92.5t80.5 -36.5q47 0 83 20t71 60l17 -15q-43 -56 -91 -80.5t-107 -24.5q-84 0 -128.5 50.5z
M249 240q49 2 81.5 36.5t32.5 87.5q0 36 -20.5 56t-58.5 20q-53 0 -93 -53t-57 -147h115zM226 633.5q18 21.5 49 21.5q15 0 26.5 -5.5t24.5 -15.5q2 -1 11 -7t18 -9t18 -3q11 0 23 13.5t14 26.5h30q-9 -52 -27.5 -73.5t-49.5 -21.5q-14 0 -24 5t-26 15q-14 10 -24.5 15
t-23.5 5q-11 0 -23 -13.5t-14 -26.5h-30q10 52 28 73.5z" />
    <glyph glyph-name="uni1EBE" unicode="&#x1ebe;" horiz-adv-x="593" 
d="M120 348q10 61 24.5 144t14.5 91q0 28 -13 42.5t-44 14.5h-20l4 20h426q73 0 73 -58q0 -2 -4 -26l-11 -71h-20q3 17 3 30q0 85 -108 85h-186l-46 -260h270l-7 -40h-270l-49 -280h175q69 0 112.5 25t76.5 85l19 -5l-52 -95q-26 -50 -83 -50h-345zM239 710l100 115h110
l60 -115h-50l-71 80l-99 -80h-50zM514 773l91 115h85l-126 -115h-50z" />
    <glyph glyph-name="uni1EBF" unicode="&#x1ebf;" horiz-adv-x="487" 
d="M76.5 40.5q-44.5 50.5 -44.5 132.5q0 72 31 143.5t90 117.5t138 46q85 0 126 -31.5t41 -82.5q0 -52 -29.5 -89.5t-77.5 -57t-104 -19.5h-120q-4 -20 -4 -41q0 -56 28.5 -92.5t80.5 -36.5q47 0 83 20t71 60l17 -15q-43 -56 -91 -80.5t-107 -24.5q-84 0 -128.5 50.5z
M249 240q49 2 81.5 36.5t32.5 87.5q0 36 -20.5 56t-58.5 20q-53 0 -93 -53t-57 -147h115zM172 520l100 115h110l60 -115h-50l-71 80l-99 -80h-50zM447 583l91 115h85l-126 -115h-50z" />
    <glyph glyph-name="uni1EC0" unicode="&#x1ec0;" horiz-adv-x="593" 
d="M120 348q10 61 24.5 144t14.5 91q0 28 -13 42.5t-44 14.5h-20l4 20h426q73 0 73 -58q0 -2 -4 -26l-11 -71h-20q3 17 3 30q0 85 -108 85h-186l-46 -260h270l-7 -40h-270l-49 -280h175q69 0 112.5 25t76.5 85l19 -5l-52 -95q-26 -50 -83 -50h-345zM239 710l100 115h110
l60 -115h-50l-71 80l-99 -80h-50zM530 789l-72 130h95l17 -130h-40z" />
    <glyph glyph-name="uni1EC1" unicode="&#x1ec1;" horiz-adv-x="487" 
d="M76.5 40.5q-44.5 50.5 -44.5 132.5q0 72 31 143.5t90 117.5t138 46q85 0 126 -31.5t41 -82.5q0 -52 -29.5 -89.5t-77.5 -57t-104 -19.5h-120q-4 -20 -4 -41q0 -56 28.5 -92.5t80.5 -36.5q47 0 83 20t71 60l17 -15q-43 -56 -91 -80.5t-107 -24.5q-84 0 -128.5 50.5z
M249 240q49 2 81.5 36.5t32.5 87.5q0 36 -20.5 56t-58.5 20q-53 0 -93 -53t-57 -147h115zM172 520l100 115h110l60 -115h-50l-71 80l-99 -80h-50zM463 599l-72 130h95l17 -130h-40z" />
    <glyph glyph-name="uni1EC2" unicode="&#x1ec2;" horiz-adv-x="593" 
d="M120 348q10 61 24.5 144t14.5 91q0 28 -13 42.5t-44 14.5h-20l4 20h426q73 0 73 -58q0 -2 -4 -26l-11 -71h-20q3 17 3 30q0 85 -108 85h-186l-46 -260h270l-7 -40h-270l-49 -280h175q69 0 112.5 25t76.5 85l19 -5l-52 -95q-26 -50 -83 -50h-345zM239 710l100 115h110
l60 -115h-50l-71 80l-99 -80h-50zM537.5 823.5q7.5 11.5 21.5 29.5q17 21 19 31t2 14q0 26 -27 26q-20 0 -33.5 -11t-24.5 -39l-41 1q5 29 21 47q19 22 38.5 30.5t46.5 8.5q29 0 50 -15.5t21 -44.5q0 -5 -2 -17q-2 -11 -9 -18.5t-23 -20.5q-17 -14 -26.5 -24.5t-13.5 -26.5
h-31q4 18 11.5 29.5z" />
    <glyph glyph-name="uni1EC3" unicode="&#x1ec3;" horiz-adv-x="487" 
d="M76.5 40.5q-44.5 50.5 -44.5 132.5q0 72 31 143.5t90 117.5t138 46q85 0 126 -31.5t41 -82.5q0 -52 -29.5 -89.5t-77.5 -57t-104 -19.5h-120q-4 -20 -4 -41q0 -56 28.5 -92.5t80.5 -36.5q47 0 83 20t71 60l17 -15q-43 -56 -91 -80.5t-107 -24.5q-84 0 -128.5 50.5z
M249 240q49 2 81.5 36.5t32.5 87.5q0 36 -20.5 56t-58.5 20q-53 0 -93 -53t-57 -147h115zM172 520l100 115h110l60 -115h-50l-71 80l-99 -80h-50zM470.5 633.5q7.5 11.5 21.5 29.5q17 21 19 31t2 14q0 26 -27 26q-20 0 -33.5 -11t-24.5 -39l-41 1q5 29 21 47
q19 22 38.5 30.5t46.5 8.5q29 0 50 -15.5t21 -44.5q0 -5 -2 -17q-2 -11 -9 -18.5t-23 -20.5q-17 -14 -26.5 -24.5t-13.5 -26.5h-31q4 18 11.5 29.5z" />
    <glyph glyph-name="uni1EC4" unicode="&#x1ec4;" horiz-adv-x="593" 
d="M120 348q10 61 24.5 144t14.5 91q0 28 -13 42.5t-44 14.5h-20l4 20h426q73 0 73 -58q0 -2 -4 -26l-11 -71h-20q3 17 3 30q0 85 -108 85h-186l-46 -260h270l-7 -40h-270l-49 -280h175q69 0 112.5 25t76.5 85l19 -5l-52 -95q-26 -50 -83 -50h-345zM239 710l100 115h110
l60 -115h-50l-71 80l-99 -80h-50zM322 932.5q18 21.5 49 21.5q15 0 26.5 -5.5t24.5 -15.5q2 -1 11 -7t18 -9t18 -3q11 0 23 13.5t14 26.5h30q-9 -52 -27.5 -73.5t-49.5 -21.5q-14 0 -24 5t-26 15q-14 10 -24.5 15t-23.5 5q-11 0 -23 -13.5t-14 -26.5h-30q10 52 28 73.5z" />
    <glyph glyph-name="uni1EC5" unicode="&#x1ec5;" horiz-adv-x="487" 
d="M76.5 40.5q-44.5 50.5 -44.5 132.5q0 72 31 143.5t90 117.5t138 46q85 0 126 -31.5t41 -82.5q0 -52 -29.5 -89.5t-77.5 -57t-104 -19.5h-120q-4 -20 -4 -41q0 -56 28.5 -92.5t80.5 -36.5q47 0 83 20t71 60l17 -15q-43 -56 -91 -80.5t-107 -24.5q-84 0 -128.5 50.5z
M249 240q49 2 81.5 36.5t32.5 87.5q0 36 -20.5 56t-58.5 20q-53 0 -93 -53t-57 -147h115zM172 520l100 115h110l60 -115h-50l-71 80l-99 -80h-50zM255 742.5q18 21.5 49 21.5q15 0 26.5 -5.5t24.5 -15.5q2 -1 11 -7t18 -9t18 -3q11 0 23 13.5t14 26.5h30q-9 -52 -27.5 -73.5
t-49.5 -21.5q-14 0 -24 5t-26 15q-14 10 -24.5 15t-23.5 5q-11 0 -23 -13.5t-14 -26.5h-30q10 52 28 73.5z" />
    <glyph glyph-name="uni1EC6" unicode="&#x1ec6;" horiz-adv-x="593" 
d="M120 348q10 61 24.5 144t14.5 91q0 28 -13 42.5t-44 14.5h-20l4 20h426q73 0 73 -58q0 -2 -4 -26l-11 -71h-20q3 17 3 30q0 85 -108 85h-186l-46 -260h270l-7 -40h-270l-49 -280h175q69 0 112.5 25t76.5 85l19 -5l-52 -95q-26 -50 -83 -50h-345zM200 -150.5
q-10 10.5 -10 27.5q0 20 16 36t37 16q17 0 27.5 -10.5t10.5 -26.5q0 -20 -16.5 -36.5t-37.5 -16.5q-17 0 -27 10.5zM239 710l100 115h110l60 -115h-50l-71 80l-99 -80h-50z" />
    <glyph glyph-name="uni1EC7" unicode="&#x1ec7;" horiz-adv-x="487" 
d="M76.5 40.5q-44.5 50.5 -44.5 132.5q0 72 31 143.5t90 117.5t138 46q85 0 126 -31.5t41 -82.5q0 -52 -29.5 -89.5t-77.5 -57t-104 -19.5h-120q-4 -20 -4 -41q0 -56 28.5 -92.5t80.5 -36.5q47 0 83 20t71 60l17 -15q-43 -56 -91 -80.5t-107 -24.5q-84 0 -128.5 50.5z
M249 240q49 2 81.5 36.5t32.5 87.5q0 36 -20.5 56t-58.5 20q-53 0 -93 -53t-57 -147h115zM147 -150.5q-10 10.5 -10 27.5q0 20 16 36t37 16q17 0 27.5 -10.5t10.5 -26.5q0 -20 -16.5 -36.5t-37.5 -16.5q-17 0 -27 10.5zM172 520l100 115h110l60 -115h-50l-71 80l-99 -80h-50
z" />
    <glyph glyph-name="uni1EC8" unicode="&#x1ec8;" horiz-adv-x="289" 
d="M73.5 12.5q-17.5 12.5 -17.5 48.5q0 17 7 59l95 540h90l-95 -540q-5 -32 -5 -45q0 -28 13 -41.5t44 -13.5h20l-3 -20h-90q-41 0 -58.5 12.5zM222.5 740.5q7.5 11.5 21.5 29.5q17 21 19 31t2 14q0 26 -27 26q-20 0 -33.5 -11t-24.5 -39l-41 1q5 29 21 47q19 22 38.5 30.5
t46.5 8.5q29 0 50 -15.5t21 -44.5q0 -5 -2 -17q-2 -11 -9 -18.5t-23 -20.5q-17 -14 -26.5 -24.5t-13.5 -26.5h-31q4 18 11.5 29.5z" />
    <glyph glyph-name="uni1EC9" unicode="&#x1ec9;" horiz-adv-x="251" 
d="M94 300q14 85 14 95q0 28 -13 41.5t-44 13.5h-20l3 20h90q41 0 58.5 -12.5t17.5 -48.5q0 -9 -6.5 -50.5t-23.5 -138.5l-38 -220h-90q38 215 52 300zM155.5 550.5q7.5 11.5 21.5 29.5q17 21 19 31t2 14q0 26 -27 26q-20 0 -33.5 -11t-24.5 -39l-41 1q5 29 21 47
q19 22 38.5 30.5t46.5 8.5q29 0 50 -15.5t21 -44.5q0 -5 -2 -17q-2 -11 -9 -18.5t-23 -20.5q-17 -14 -26.5 -24.5t-13.5 -26.5h-31q4 18 11.5 29.5z" />
    <glyph glyph-name="uni1ECA" unicode="&#x1eca;" horiz-adv-x="289" 
d="M73.5 12.5q-17.5 12.5 -17.5 48.5q0 17 7 59l95 540h90l-95 -540q-5 -32 -5 -45q0 -28 13 -41.5t44 -13.5h20l-3 -20h-90q-41 0 -58.5 12.5zM48 -150.5q-10 10.5 -10 27.5q0 20 16 36t37 16q17 0 27.5 -10.5t10.5 -26.5q0 -20 -16.5 -36.5t-37.5 -16.5q-17 0 -27 10.5z
" />
    <glyph glyph-name="uni1ECB" unicode="&#x1ecb;" horiz-adv-x="251" 
d="M140 545q-13 15 -13 37q0 24 15 40.5t40 16.5q20 0 33 -15t13 -37q0 -24 -15 -40.5t-40 -16.5q-20 0 -33 15zM94 300q14 85 14 95q0 28 -13 41.5t-44 13.5h-20l3 20h90q41 0 58.5 -12.5t17.5 -48.5q0 -9 -6.5 -50.5t-23.5 -138.5l-38 -220h-90q38 215 52 300zM29 -150.5
q-10 10.5 -10 27.5q0 20 16 36t37 16q17 0 27.5 -10.5t10.5 -26.5q0 -20 -16.5 -36.5t-37.5 -16.5q-17 0 -27 10.5z" />
    <glyph glyph-name="uni1ECC" unicode="&#x1ecc;" horiz-adv-x="712" 
d="M165.5 15q-57.5 35 -87.5 96t-30 140q0 102 47.5 201.5t133.5 163.5t197 64q80 0 138 -35t88 -97t30 -141q0 -102 -47.5 -201t-134 -162.5t-197.5 -63.5q-80 0 -137.5 35zM461 84.5q62 64.5 92.5 159t30.5 183.5q0 101 -42.5 157t-122.5 56q-90 0 -151.5 -65t-91.5 -160
t-30 -184q0 -101 42 -156t122 -55q89 0 151 64.5zM259 -150.5q-10 10.5 -10 27.5q0 20 16 36t37 16q17 0 27.5 -10.5t10.5 -26.5q0 -20 -16.5 -36.5t-37.5 -16.5q-17 0 -27 10.5z" />
    <glyph glyph-name="uni1ECD" unicode="&#x1ecd;" horiz-adv-x="529" 
d="M79.5 42.5q-47.5 52.5 -47.5 136.5q0 73 33.5 142.5t94.5 114t140 44.5q87 0 134.5 -52.5t47.5 -136.5q0 -73 -33.5 -142.5t-94.5 -114t-140 -44.5q-87 0 -134.5 52.5zM311 74.5q38 44.5 57.5 107.5t19.5 115q0 64 -25 103.5t-70 39.5q-52 0 -90 -44.5t-57.5 -107.5
t-19.5 -115q0 -64 25 -103.5t70 -39.5q52 0 90 44.5zM168 -150.5q-10 10.5 -10 27.5q0 20 16 36t37 16q17 0 27.5 -10.5t10.5 -26.5q0 -20 -16.5 -36.5t-37.5 -16.5q-17 0 -27 10.5z" />
    <glyph glyph-name="uni1ECE" unicode="&#x1ece;" horiz-adv-x="712" 
d="M165.5 15q-57.5 35 -87.5 96t-30 140q0 102 47.5 201.5t133.5 163.5t197 64q80 0 138 -35t88 -97t30 -141q0 -102 -47.5 -201t-134 -162.5t-197.5 -63.5q-80 0 -137.5 35zM461 84.5q62 64.5 92.5 159t30.5 183.5q0 101 -42.5 157t-122.5 56q-90 0 -151.5 -65t-91.5 -160
t-30 -184q0 -101 42 -156t122 -55q89 0 151 64.5zM449.5 740.5q7.5 11.5 21.5 29.5q17 21 19 31t2 14q0 26 -27 26q-20 0 -33.5 -11t-24.5 -39l-41 1q5 29 21 47q19 22 38.5 30.5t46.5 8.5q29 0 50 -15.5t21 -44.5q0 -5 -2 -17q-2 -11 -9 -18.5t-23 -20.5
q-17 -14 -26.5 -24.5t-13.5 -26.5h-31q4 18 11.5 29.5z" />
    <glyph glyph-name="uni1ECF" unicode="&#x1ecf;" horiz-adv-x="529" 
d="M79.5 42.5q-47.5 52.5 -47.5 136.5q0 73 33.5 142.5t94.5 114t140 44.5q87 0 134.5 -52.5t47.5 -136.5q0 -73 -33.5 -142.5t-94.5 -114t-140 -44.5q-87 0 -134.5 52.5zM311 74.5q38 44.5 57.5 107.5t19.5 115q0 64 -25 103.5t-70 39.5q-52 0 -90 -44.5t-57.5 -107.5
t-19.5 -115q0 -64 25 -103.5t70 -39.5q52 0 90 44.5zM324.5 550.5q7.5 11.5 21.5 29.5q17 21 19 31t2 14q0 26 -27 26q-20 0 -33.5 -11t-24.5 -39l-41 1q5 29 21 47q19 22 38.5 30.5t46.5 8.5q29 0 50 -15.5t21 -44.5q0 -5 -2 -17q-2 -11 -9 -18.5t-23 -20.5
q-17 -14 -26.5 -24.5t-13.5 -26.5h-31q4 18 11.5 29.5z" />
    <glyph glyph-name="uni1ED0" unicode="&#x1ed0;" horiz-adv-x="712" 
d="M165.5 15q-57.5 35 -87.5 96t-30 140q0 102 47.5 201.5t133.5 163.5t197 64q80 0 138 -35t88 -97t30 -141q0 -102 -47.5 -201t-134 -162.5t-197.5 -63.5q-80 0 -137.5 35zM461 84.5q62 64.5 92.5 159t30.5 183.5q0 101 -42.5 157t-122.5 56q-90 0 -151.5 -65t-91.5 -160
t-30 -184q0 -101 42 -156t122 -55q89 0 151 64.5zM298 710l100 115h110l60 -115h-50l-71 80l-99 -80h-50zM573 773l91 115h85l-126 -115h-50z" />
    <glyph glyph-name="uni1ED1" unicode="&#x1ed1;" horiz-adv-x="529" 
d="M79.5 42.5q-47.5 52.5 -47.5 136.5q0 73 33.5 142.5t94.5 114t140 44.5q87 0 134.5 -52.5t47.5 -136.5q0 -73 -33.5 -142.5t-94.5 -114t-140 -44.5q-87 0 -134.5 52.5zM311 74.5q38 44.5 57.5 107.5t19.5 115q0 64 -25 103.5t-70 39.5q-52 0 -90 -44.5t-57.5 -107.5
t-19.5 -115q0 -64 25 -103.5t70 -39.5q52 0 90 44.5zM173 520l100 115h110l60 -115h-50l-71 80l-99 -80h-50zM448 583l91 115h85l-126 -115h-50z" />
    <glyph glyph-name="uni1ED2" unicode="&#x1ed2;" horiz-adv-x="712" 
d="M165.5 15q-57.5 35 -87.5 96t-30 140q0 102 47.5 201.5t133.5 163.5t197 64q80 0 138 -35t88 -97t30 -141q0 -102 -47.5 -201t-134 -162.5t-197.5 -63.5q-80 0 -137.5 35zM461 84.5q62 64.5 92.5 159t30.5 183.5q0 101 -42.5 157t-122.5 56q-90 0 -151.5 -65t-91.5 -160
t-30 -184q0 -101 42 -156t122 -55q89 0 151 64.5zM298 710l100 115h110l60 -115h-50l-71 80l-99 -80h-50zM589 789l-72 130h95l17 -130h-40z" />
    <glyph glyph-name="uni1ED3" unicode="&#x1ed3;" horiz-adv-x="529" 
d="M79.5 42.5q-47.5 52.5 -47.5 136.5q0 73 33.5 142.5t94.5 114t140 44.5q87 0 134.5 -52.5t47.5 -136.5q0 -73 -33.5 -142.5t-94.5 -114t-140 -44.5q-87 0 -134.5 52.5zM311 74.5q38 44.5 57.5 107.5t19.5 115q0 64 -25 103.5t-70 39.5q-52 0 -90 -44.5t-57.5 -107.5
t-19.5 -115q0 -64 25 -103.5t70 -39.5q52 0 90 44.5zM173 520l100 115h110l60 -115h-50l-71 80l-99 -80h-50zM464 599l-72 130h95l17 -130h-40z" />
    <glyph glyph-name="uni1ED4" unicode="&#x1ed4;" horiz-adv-x="712" 
d="M165.5 15q-57.5 35 -87.5 96t-30 140q0 102 47.5 201.5t133.5 163.5t197 64q80 0 138 -35t88 -97t30 -141q0 -102 -47.5 -201t-134 -162.5t-197.5 -63.5q-80 0 -137.5 35zM461 84.5q62 64.5 92.5 159t30.5 183.5q0 101 -42.5 157t-122.5 56q-90 0 -151.5 -65t-91.5 -160
t-30 -184q0 -101 42 -156t122 -55q89 0 151 64.5zM298 710l100 115h110l60 -115h-50l-71 80l-99 -80h-50zM596.5 823.5q7.5 11.5 21.5 29.5q17 21 19 31t2 14q0 26 -27 26q-20 0 -33.5 -11t-24.5 -39l-41 1q5 29 21 47q19 22 38.5 30.5t46.5 8.5q29 0 50 -15.5t21 -44.5
q0 -5 -2 -17q-2 -11 -9 -18.5t-23 -20.5q-17 -14 -26.5 -24.5t-13.5 -26.5h-31q4 18 11.5 29.5z" />
    <glyph glyph-name="uni1ED5" unicode="&#x1ed5;" horiz-adv-x="529" 
d="M79.5 42.5q-47.5 52.5 -47.5 136.5q0 73 33.5 142.5t94.5 114t140 44.5q87 0 134.5 -52.5t47.5 -136.5q0 -73 -33.5 -142.5t-94.5 -114t-140 -44.5q-87 0 -134.5 52.5zM311 74.5q38 44.5 57.5 107.5t19.5 115q0 64 -25 103.5t-70 39.5q-52 0 -90 -44.5t-57.5 -107.5
t-19.5 -115q0 -64 25 -103.5t70 -39.5q52 0 90 44.5zM173 520l100 115h110l60 -115h-50l-71 80l-99 -80h-50zM471.5 633.5q7.5 11.5 21.5 29.5q17 21 19 31t2 14q0 26 -27 26q-20 0 -33.5 -11t-24.5 -39l-41 1q5 29 21 47q19 22 38.5 30.5t46.5 8.5q29 0 50 -15.5t21 -44.5
q0 -5 -2 -17q-2 -11 -9 -18.5t-23 -20.5q-17 -14 -26.5 -24.5t-13.5 -26.5h-31q4 18 11.5 29.5z" />
    <glyph glyph-name="uni1ED6" unicode="&#x1ed6;" horiz-adv-x="712" 
d="M165.5 15q-57.5 35 -87.5 96t-30 140q0 102 47.5 201.5t133.5 163.5t197 64q80 0 138 -35t88 -97t30 -141q0 -102 -47.5 -201t-134 -162.5t-197.5 -63.5q-80 0 -137.5 35zM461 84.5q62 64.5 92.5 159t30.5 183.5q0 101 -42.5 157t-122.5 56q-90 0 -151.5 -65t-91.5 -160
t-30 -184q0 -101 42 -156t122 -55q89 0 151 64.5zM298 710l100 115h110l60 -115h-50l-71 80l-99 -80h-50zM381 932.5q18 21.5 49 21.5q15 0 26.5 -5.5t24.5 -15.5q2 -1 11 -7t18 -9t18 -3q11 0 23 13.5t14 26.5h30q-9 -52 -27.5 -73.5t-49.5 -21.5q-14 0 -24 5t-26 15
q-14 10 -24.5 15t-23.5 5q-11 0 -23 -13.5t-14 -26.5h-30q10 52 28 73.5z" />
    <glyph glyph-name="uni1ED7" unicode="&#x1ed7;" horiz-adv-x="529" 
d="M79.5 42.5q-47.5 52.5 -47.5 136.5q0 73 33.5 142.5t94.5 114t140 44.5q87 0 134.5 -52.5t47.5 -136.5q0 -73 -33.5 -142.5t-94.5 -114t-140 -44.5q-87 0 -134.5 52.5zM311 74.5q38 44.5 57.5 107.5t19.5 115q0 64 -25 103.5t-70 39.5q-52 0 -90 -44.5t-57.5 -107.5
t-19.5 -115q0 -64 25 -103.5t70 -39.5q52 0 90 44.5zM173 520l100 115h110l60 -115h-50l-71 80l-99 -80h-50zM256 742.5q18 21.5 49 21.5q15 0 26.5 -5.5t24.5 -15.5q2 -1 11 -7t18 -9t18 -3q11 0 23 13.5t14 26.5h30q-9 -52 -27.5 -73.5t-49.5 -21.5q-14 0 -24 5t-26 15
q-14 10 -24.5 15t-23.5 5q-11 0 -23 -13.5t-14 -26.5h-30q10 52 28 73.5z" />
    <glyph glyph-name="uni1ED8" unicode="&#x1ed8;" horiz-adv-x="712" 
d="M165.5 15q-57.5 35 -87.5 96t-30 140q0 102 47.5 201.5t133.5 163.5t197 64q80 0 138 -35t88 -97t30 -141q0 -102 -47.5 -201t-134 -162.5t-197.5 -63.5q-80 0 -137.5 35zM461 84.5q62 64.5 92.5 159t30.5 183.5q0 101 -42.5 157t-122.5 56q-90 0 -151.5 -65t-91.5 -160
t-30 -184q0 -101 42 -156t122 -55q89 0 151 64.5zM259 -150.5q-10 10.5 -10 27.5q0 20 16 36t37 16q17 0 27.5 -10.5t10.5 -26.5q0 -20 -16.5 -36.5t-37.5 -16.5q-17 0 -27 10.5zM298 710l100 115h110l60 -115h-50l-71 80l-99 -80h-50z" />
    <glyph glyph-name="uni1ED9" unicode="&#x1ed9;" horiz-adv-x="529" 
d="M79.5 42.5q-47.5 52.5 -47.5 136.5q0 73 33.5 142.5t94.5 114t140 44.5q87 0 134.5 -52.5t47.5 -136.5q0 -73 -33.5 -142.5t-94.5 -114t-140 -44.5q-87 0 -134.5 52.5zM311 74.5q38 44.5 57.5 107.5t19.5 115q0 64 -25 103.5t-70 39.5q-52 0 -90 -44.5t-57.5 -107.5
t-19.5 -115q0 -64 25 -103.5t70 -39.5q52 0 90 44.5zM168 -150.5q-10 10.5 -10 27.5q0 20 16 36t37 16q17 0 27.5 -10.5t10.5 -26.5q0 -20 -16.5 -36.5t-37.5 -16.5q-17 0 -27 10.5zM173 520l100 115h110l60 -115h-50l-71 80l-99 -80h-50z" />
    <glyph glyph-name="uni1EDA" unicode="&#x1eda;" horiz-adv-x="712" 
d="M165.5 15q-57.5 35 -87.5 96t-30 140q0 102 47.5 201.5t133.5 163.5t197 64q80 0 138 -35t88 -97t30 -141q0 -102 -47.5 -201t-134 -162.5t-197.5 -63.5q-80 0 -137.5 35zM461 84.5q62 64.5 92.5 159t30.5 183.5q0 101 -42.5 157t-122.5 56q-90 0 -151.5 -65t-91.5 -160
t-30 -184q0 -101 42 -156t122 -55q89 0 151 64.5zM680 660q50 0 81 31t40 73h57q-26 -130 -183 -130zM403 730l91 115h85l-126 -115h-50z" />
    <glyph glyph-name="uni1EDB" unicode="&#x1edb;" horiz-adv-x="529" 
d="M407 451q37 -24 56 -65.5t19 -94.5q0 -73 -33.5 -142.5t-94.5 -114t-140 -44.5q-87 0 -134.5 52.5t-47.5 136.5q0 73 33.5 142.5t94.5 114t140 44.5q35 0 64 -9q43 6 70 35.5t35 67.5h57q-20 -101 -119 -123zM311 74.5q38 44.5 57.5 107.5t19.5 115q0 64 -25 103.5
t-70 39.5q-52 0 -90 -44.5t-57.5 -107.5t-19.5 -115q0 -64 25 -103.5t70 -39.5q52 0 90 44.5zM278 540l91 115h85l-126 -115h-50z" />
    <glyph glyph-name="uni1EDC" unicode="&#x1edc;" horiz-adv-x="712" 
d="M165.5 15q-57.5 35 -87.5 96t-30 140q0 102 47.5 201.5t133.5 163.5t197 64q80 0 138 -35t88 -97t30 -141q0 -102 -47.5 -201t-134 -162.5t-197.5 -63.5q-80 0 -137.5 35zM461 84.5q62 64.5 92.5 159t30.5 183.5q0 101 -42.5 157t-122.5 56q-90 0 -151.5 -65t-91.5 -160
t-30 -184q0 -101 42 -156t122 -55q89 0 151 64.5zM680 660q50 0 81 31t40 73h57q-26 -130 -183 -130zM410 715l-72 130h95l17 -130h-40z" />
    <glyph glyph-name="uni1EDD" unicode="&#x1edd;" horiz-adv-x="529" 
d="M407 451q37 -24 56 -65.5t19 -94.5q0 -73 -33.5 -142.5t-94.5 -114t-140 -44.5q-87 0 -134.5 52.5t-47.5 136.5q0 73 33.5 142.5t94.5 114t140 44.5q35 0 64 -9q43 6 70 35.5t35 67.5h57q-20 -101 -119 -123zM311 74.5q38 44.5 57.5 107.5t19.5 115q0 64 -25 103.5
t-70 39.5q-52 0 -90 -44.5t-57.5 -107.5t-19.5 -115q0 -64 25 -103.5t70 -39.5q52 0 90 44.5zM285 525l-72 130h95l17 -130h-40z" />
    <glyph glyph-name="uni1EDE" unicode="&#x1ede;" horiz-adv-x="712" 
d="M165.5 15q-57.5 35 -87.5 96t-30 140q0 102 47.5 201.5t133.5 163.5t197 64q80 0 138 -35t88 -97t30 -141q0 -102 -47.5 -201t-134 -162.5t-197.5 -63.5q-80 0 -137.5 35zM461 84.5q62 64.5 92.5 159t30.5 183.5q0 101 -42.5 157t-122.5 56q-90 0 -151.5 -65t-91.5 -160
t-30 -184q0 -101 42 -156t122 -55q89 0 151 64.5zM680 660q50 0 81 31t40 73h57q-26 -130 -183 -130zM449.5 740.5q7.5 11.5 21.5 29.5q17 21 19 31t2 14q0 26 -27 26q-20 0 -33.5 -11t-24.5 -39l-41 1q5 29 21 47q19 22 38.5 30.5t46.5 8.5q29 0 50 -15.5t21 -44.5
q0 -5 -2 -17q-2 -11 -9 -18.5t-23 -20.5q-17 -14 -26.5 -24.5t-13.5 -26.5h-31q4 18 11.5 29.5z" />
    <glyph glyph-name="uni1EDF" unicode="&#x1edf;" horiz-adv-x="529" 
d="M407 451q37 -24 56 -65.5t19 -94.5q0 -73 -33.5 -142.5t-94.5 -114t-140 -44.5q-87 0 -134.5 52.5t-47.5 136.5q0 73 33.5 142.5t94.5 114t140 44.5q35 0 64 -9q43 6 70 35.5t35 67.5h57q-20 -101 -119 -123zM311 74.5q38 44.5 57.5 107.5t19.5 115q0 64 -25 103.5
t-70 39.5q-52 0 -90 -44.5t-57.5 -107.5t-19.5 -115q0 -64 25 -103.5t70 -39.5q52 0 90 44.5zM324.5 550.5q7.5 11.5 21.5 29.5q17 21 19 31t2 14q0 26 -27 26q-20 0 -33.5 -11t-24.5 -39l-41 1q5 29 21 47q19 22 38.5 30.5t46.5 8.5q29 0 50 -15.5t21 -44.5q0 -5 -2 -17
q-2 -11 -9 -18.5t-23 -20.5q-17 -14 -26.5 -24.5t-13.5 -26.5h-31q4 18 11.5 29.5z" />
    <glyph glyph-name="uni1EE0" unicode="&#x1ee0;" horiz-adv-x="712" 
d="M165.5 15q-57.5 35 -87.5 96t-30 140q0 102 47.5 201.5t133.5 163.5t197 64q80 0 138 -35t88 -97t30 -141q0 -102 -47.5 -201t-134 -162.5t-197.5 -63.5q-80 0 -137.5 35zM461 84.5q62 64.5 92.5 159t30.5 183.5q0 101 -42.5 157t-122.5 56q-90 0 -151.5 -65t-91.5 -160
t-30 -184q0 -101 42 -156t122 -55q89 0 151 64.5zM680 660q50 0 81 31t40 73h57q-26 -130 -183 -130zM352 823.5q18 21.5 49 21.5q15 0 26.5 -5.5t24.5 -15.5q2 -1 11 -7t18 -9t18 -3q11 0 23 13.5t14 26.5h30q-9 -52 -27.5 -73.5t-49.5 -21.5q-14 0 -24 5t-26 15
q-14 10 -24.5 15t-23.5 5q-11 0 -23 -13.5t-14 -26.5h-30q10 52 28 73.5z" />
    <glyph glyph-name="uni1EE1" unicode="&#x1ee1;" horiz-adv-x="529" 
d="M407 451q37 -24 56 -65.5t19 -94.5q0 -73 -33.5 -142.5t-94.5 -114t-140 -44.5q-87 0 -134.5 52.5t-47.5 136.5q0 73 33.5 142.5t94.5 114t140 44.5q35 0 64 -9q43 6 70 35.5t35 67.5h57q-20 -101 -119 -123zM311 74.5q38 44.5 57.5 107.5t19.5 115q0 64 -25 103.5
t-70 39.5q-52 0 -90 -44.5t-57.5 -107.5t-19.5 -115q0 -64 25 -103.5t70 -39.5q52 0 90 44.5zM227 633.5q18 21.5 49 21.5q15 0 26.5 -5.5t24.5 -15.5q2 -1 11 -7t18 -9t18 -3q11 0 23 13.5t14 26.5h30q-9 -52 -27.5 -73.5t-49.5 -21.5q-14 0 -24 5t-26 15q-14 10 -24.5 15
t-23.5 5q-11 0 -23 -13.5t-14 -26.5h-30q10 52 28 73.5z" />
    <glyph glyph-name="uni1EE2" unicode="&#x1ee2;" horiz-adv-x="712" 
d="M165.5 15q-57.5 35 -87.5 96t-30 140q0 102 47.5 201.5t133.5 163.5t197 64q80 0 138 -35t88 -97t30 -141q0 -102 -47.5 -201t-134 -162.5t-197.5 -63.5q-80 0 -137.5 35zM461 84.5q62 64.5 92.5 159t30.5 183.5q0 101 -42.5 157t-122.5 56q-90 0 -151.5 -65t-91.5 -160
t-30 -184q0 -101 42 -156t122 -55q89 0 151 64.5zM680 660q50 0 81 31t40 73h57q-26 -130 -183 -130zM259 -150.5q-10 10.5 -10 27.5q0 20 16 36t37 16q17 0 27.5 -10.5t10.5 -26.5q0 -20 -16.5 -36.5t-37.5 -16.5q-17 0 -27 10.5z" />
    <glyph glyph-name="uni1EE3" unicode="&#x1ee3;" horiz-adv-x="529" 
d="M407 451q37 -24 56 -65.5t19 -94.5q0 -73 -33.5 -142.5t-94.5 -114t-140 -44.5q-87 0 -134.5 52.5t-47.5 136.5q0 73 33.5 142.5t94.5 114t140 44.5q35 0 64 -9q43 6 70 35.5t35 67.5h57q-20 -101 -119 -123zM311 74.5q38 44.5 57.5 107.5t19.5 115q0 64 -25 103.5
t-70 39.5q-52 0 -90 -44.5t-57.5 -107.5t-19.5 -115q0 -64 25 -103.5t70 -39.5q52 0 90 44.5zM168 -150.5q-10 10.5 -10 27.5q0 20 16 36t37 16q17 0 27.5 -10.5t10.5 -26.5q0 -20 -16.5 -36.5t-37.5 -16.5q-17 0 -27 10.5z" />
    <glyph glyph-name="uni1EE4" unicode="&#x1ee4;" horiz-adv-x="687" 
d="M138 36q-50 46 -50 141q0 45 11 108l45 255q4 21 4 43q0 28 -13 42.5t-44 14.5h-20l4 20h90q41 0 58.5 -12.5t17.5 -48.5q0 -17 -7 -59l-51 -285q-8 -46 -8 -78q0 -72 35 -109.5t111 -37.5t125 27t78 82t45 146l66 375h40l-66 -375q-19 -104 -51.5 -167.5t-94 -95.5
t-161.5 -32q-114 0 -164 46zM247 -150.5q-10 10.5 -10 27.5q0 20 16 36t37 16q17 0 27.5 -10.5t10.5 -26.5q0 -20 -16.5 -36.5t-37.5 -16.5q-17 0 -27 10.5z" />
    <glyph glyph-name="uni1EE5" unicode="&#x1ee5;" horiz-adv-x="537" 
d="M50 120q0 12 8 62t29 168q5 32 5 45q0 28 -13 41.5t-44 13.5h-10l3 20h80q41 0 58.5 -12.5t17.5 -48.5q0 -17 -7 -59q-35 -194 -35 -218q0 -50 25.5 -73.5t64.5 -23.5q50 0 109 53l67 382h90l-82 -470h-50l-28 40h-5q-27 -22 -62.5 -36t-76.5 -14q-144 0 -144 130z
M172 -150.5q-10 10.5 -10 27.5q0 20 16 36t37 16q17 0 27.5 -10.5t10.5 -26.5q0 -20 -16.5 -36.5t-37.5 -16.5q-17 0 -27 10.5z" />
    <glyph glyph-name="uni1EE6" unicode="&#x1ee6;" horiz-adv-x="687" 
d="M138 36q-50 46 -50 141q0 45 11 108l45 255q4 21 4 43q0 28 -13 42.5t-44 14.5h-20l4 20h90q41 0 58.5 -12.5t17.5 -48.5q0 -17 -7 -59l-51 -285q-8 -46 -8 -78q0 -72 35 -109.5t111 -37.5t125 27t78 82t45 146l66 375h40l-66 -375q-19 -104 -51.5 -167.5t-94 -95.5
t-161.5 -32q-114 0 -164 46zM437.5 740.5q7.5 11.5 21.5 29.5q17 21 19 31t2 14q0 26 -27 26q-20 0 -33.5 -11t-24.5 -39l-41 1q5 29 21 47q19 22 38.5 30.5t46.5 8.5q29 0 50 -15.5t21 -44.5q0 -5 -2 -17q-2 -11 -9 -18.5t-23 -20.5q-17 -14 -26.5 -24.5t-13.5 -26.5h-31
q4 18 11.5 29.5z" />
    <glyph glyph-name="uni1EE7" unicode="&#x1ee7;" horiz-adv-x="537" 
d="M50 120q0 12 8 62t29 168q5 32 5 45q0 28 -13 41.5t-44 13.5h-10l3 20h80q41 0 58.5 -12.5t17.5 -48.5q0 -17 -7 -59q-35 -194 -35 -218q0 -50 25.5 -73.5t64.5 -23.5q50 0 109 53l67 382h90l-82 -470h-50l-28 40h-5q-27 -22 -62.5 -36t-76.5 -14q-144 0 -144 130z
M328.5 550.5q7.5 11.5 21.5 29.5q17 21 19 31t2 14q0 26 -27 26q-20 0 -33.5 -11t-24.5 -39l-41 1q5 29 21 47q19 22 38.5 30.5t46.5 8.5q29 0 50 -15.5t21 -44.5q0 -5 -2 -17q-2 -11 -9 -18.5t-23 -20.5q-17 -14 -26.5 -24.5t-13.5 -26.5h-31q4 18 11.5 29.5z" />
    <glyph glyph-name="uni1EE8" unicode="&#x1ee8;" horiz-adv-x="687" 
d="M671 635l-62 -350q-19 -104 -51.5 -167.5t-94 -95.5t-161.5 -32q-114 0 -164 46t-50 141q0 45 11 108l45 255q4 21 4 43q0 28 -13 42.5t-44 14.5h-20l4 20h90q41 0 58.5 -12.5t17.5 -48.5q0 -17 -7 -59l-51 -285q-8 -46 -8 -78q0 -72 35 -109.5t111 -37.5t125 27t78 82
t45 146l66 375h20q50 0 81 31t40 73h57q-24 -121 -162 -129zM391 730l91 115h85l-126 -115h-50z" />
    <glyph glyph-name="uni1EE9" unicode="&#x1ee9;" horiz-adv-x="537" 
d="M494 445l-78 -445h-50l-28 40h-5q-27 -22 -62.5 -36t-76.5 -14q-144 0 -144 130q0 12 8 62t29 168q5 32 5 45q0 28 -13 41.5t-44 13.5h-10l3 20h80q41 0 58.5 -12.5t17.5 -48.5q0 -17 -7 -59q-35 -194 -35 -218q0 -50 25.5 -73.5t64.5 -23.5q50 0 109 53l67 382h63
q50 0 81 31t40 73h57q-24 -118 -155 -129zM282 540l91 115h85l-126 -115h-50z" />
    <glyph glyph-name="uni1EEA" unicode="&#x1eea;" horiz-adv-x="687" 
d="M671 635l-62 -350q-19 -104 -51.5 -167.5t-94 -95.5t-161.5 -32q-114 0 -164 46t-50 141q0 45 11 108l45 255q4 21 4 43q0 28 -13 42.5t-44 14.5h-20l4 20h90q41 0 58.5 -12.5t17.5 -48.5q0 -17 -7 -59l-51 -285q-8 -46 -8 -78q0 -72 35 -109.5t111 -37.5t125 27t78 82
t45 146l66 375h20q50 0 81 31t40 73h57q-24 -121 -162 -129zM398 715l-72 130h95l17 -130h-40z" />
    <glyph glyph-name="uni1EEB" unicode="&#x1eeb;" horiz-adv-x="537" 
d="M494 445l-78 -445h-50l-28 40h-5q-27 -22 -62.5 -36t-76.5 -14q-144 0 -144 130q0 12 8 62t29 168q5 32 5 45q0 28 -13 41.5t-44 13.5h-10l3 20h80q41 0 58.5 -12.5t17.5 -48.5q0 -17 -7 -59q-35 -194 -35 -218q0 -50 25.5 -73.5t64.5 -23.5q50 0 109 53l67 382h63
q50 0 81 31t40 73h57q-24 -118 -155 -129zM289 525l-72 130h95l17 -130h-40z" />
    <glyph glyph-name="uni1EEC" unicode="&#x1eec;" horiz-adv-x="687" 
d="M671 635l-62 -350q-19 -104 -51.5 -167.5t-94 -95.5t-161.5 -32q-114 0 -164 46t-50 141q0 45 11 108l45 255q4 21 4 43q0 28 -13 42.5t-44 14.5h-20l4 20h90q41 0 58.5 -12.5t17.5 -48.5q0 -17 -7 -59l-51 -285q-8 -46 -8 -78q0 -72 35 -109.5t111 -37.5t125 27t78 82
t45 146l66 375h20q50 0 81 31t40 73h57q-24 -121 -162 -129zM437.5 740.5q7.5 11.5 21.5 29.5q17 21 19 31t2 14q0 26 -27 26q-20 0 -33.5 -11t-24.5 -39l-41 1q5 29 21 47q19 22 38.5 30.5t46.5 8.5q29 0 50 -15.5t21 -44.5q0 -5 -2 -17q-2 -11 -9 -18.5t-23 -20.5
q-17 -14 -26.5 -24.5t-13.5 -26.5h-31q4 18 11.5 29.5z" />
    <glyph glyph-name="uni1EED" unicode="&#x1eed;" horiz-adv-x="537" 
d="M494 445l-78 -445h-50l-28 40h-5q-27 -22 -62.5 -36t-76.5 -14q-144 0 -144 130q0 12 8 62t29 168q5 32 5 45q0 28 -13 41.5t-44 13.5h-10l3 20h80q41 0 58.5 -12.5t17.5 -48.5q0 -17 -7 -59q-35 -194 -35 -218q0 -50 25.5 -73.5t64.5 -23.5q50 0 109 53l67 382h63
q50 0 81 31t40 73h57q-24 -118 -155 -129zM328.5 550.5q7.5 11.5 21.5 29.5q17 21 19 31t2 14q0 26 -27 26q-20 0 -33.5 -11t-24.5 -39l-41 1q5 29 21 47q19 22 38.5 30.5t46.5 8.5q29 0 50 -15.5t21 -44.5q0 -5 -2 -17q-2 -11 -9 -18.5t-23 -20.5q-17 -14 -26.5 -24.5
t-13.5 -26.5h-31q4 18 11.5 29.5z" />
    <glyph glyph-name="uni1EEE" unicode="&#x1eee;" horiz-adv-x="687" 
d="M671 635l-62 -350q-19 -104 -51.5 -167.5t-94 -95.5t-161.5 -32q-114 0 -164 46t-50 141q0 45 11 108l45 255q4 21 4 43q0 28 -13 42.5t-44 14.5h-20l4 20h90q41 0 58.5 -12.5t17.5 -48.5q0 -17 -7 -59l-51 -285q-8 -46 -8 -78q0 -72 35 -109.5t111 -37.5t125 27t78 82
t45 146l66 375h20q50 0 81 31t40 73h57q-24 -121 -162 -129zM340 823.5q18 21.5 49 21.5q15 0 26.5 -5.5t24.5 -15.5q2 -1 11 -7t18 -9t18 -3q11 0 23 13.5t14 26.5h30q-9 -52 -27.5 -73.5t-49.5 -21.5q-14 0 -24 5t-26 15q-14 10 -24.5 15t-23.5 5q-11 0 -23 -13.5
t-14 -26.5h-30q10 52 28 73.5z" />
    <glyph glyph-name="uni1EEF" unicode="&#x1eef;" horiz-adv-x="537" 
d="M494 445l-78 -445h-50l-28 40h-5q-27 -22 -62.5 -36t-76.5 -14q-144 0 -144 130q0 12 8 62t29 168q5 32 5 45q0 28 -13 41.5t-44 13.5h-10l3 20h80q41 0 58.5 -12.5t17.5 -48.5q0 -17 -7 -59q-35 -194 -35 -218q0 -50 25.5 -73.5t64.5 -23.5q50 0 109 53l67 382h63
q50 0 81 31t40 73h57q-24 -118 -155 -129zM231 633.5q18 21.5 49 21.5q15 0 26.5 -5.5t24.5 -15.5q2 -1 11 -7t18 -9t18 -3q11 0 23 13.5t14 26.5h30q-9 -52 -27.5 -73.5t-49.5 -21.5q-14 0 -24 5t-26 15q-14 10 -24.5 15t-23.5 5q-11 0 -23 -13.5t-14 -26.5h-30
q10 52 28 73.5z" />
    <glyph glyph-name="uni1EF0" unicode="&#x1ef0;" horiz-adv-x="687" 
d="M671 635l-62 -350q-19 -104 -51.5 -167.5t-94 -95.5t-161.5 -32q-114 0 -164 46t-50 141q0 45 11 108l45 255q4 21 4 43q0 28 -13 42.5t-44 14.5h-20l4 20h90q41 0 58.5 -12.5t17.5 -48.5q0 -17 -7 -59l-51 -285q-8 -46 -8 -78q0 -72 35 -109.5t111 -37.5t125 27t78 82
t45 146l66 375h20q50 0 81 31t40 73h57q-24 -121 -162 -129zM247 -150.5q-10 10.5 -10 27.5q0 20 16 36t37 16q17 0 27.5 -10.5t10.5 -26.5q0 -20 -16.5 -36.5t-37.5 -16.5q-17 0 -27 10.5z" />
    <glyph glyph-name="uni1EF1" unicode="&#x1ef1;" horiz-adv-x="537" 
d="M494 445l-78 -445h-50l-28 40h-5q-27 -22 -62.5 -36t-76.5 -14q-144 0 -144 130q0 12 8 62t29 168q5 32 5 45q0 28 -13 41.5t-44 13.5h-10l3 20h80q41 0 58.5 -12.5t17.5 -48.5q0 -17 -7 -59q-35 -194 -35 -218q0 -50 25.5 -73.5t64.5 -23.5q50 0 109 53l67 382h63
q50 0 81 31t40 73h57q-24 -118 -155 -129zM172 -150.5q-10 10.5 -10 27.5q0 20 16 36t37 16q17 0 27.5 -10.5t10.5 -26.5q0 -20 -16.5 -36.5t-37.5 -16.5q-17 0 -27 10.5z" />
    <glyph glyph-name="Ygrave" unicode="&#x1ef2;" horiz-adv-x="629" 
d="M286 273l-125 257q-27 54 -52.5 80.5t-73.5 29.5l4 20h90q50 0 79 -29.5t51 -80.5l106 -225l268 335h45l-301 -380l-49 -280h-90zM369 715l-72 130h95l17 -130h-40z" />
    <glyph glyph-name="ygrave" unicode="&#x1ef3;" horiz-adv-x="514" 
d="M23 -170q49 0 85 22.5t68 82.5l30 55l-91 390q-17 72 -96 80l3 20h85q87 0 106 -80l65 -277l187 347h50l-289 -535q-42 -79 -82.5 -107t-96.5 -28h-30zM297 525l-72 130h95l17 -130h-40z" />
    <glyph glyph-name="uni1EF4" unicode="&#x1ef4;" horiz-adv-x="629" 
d="M286 273l-125 257q-27 54 -52.5 80.5t-73.5 29.5l4 20h90q50 0 79 -29.5t51 -80.5l106 -225l268 335h45l-301 -380l-49 -280h-90zM218 -150.5q-10 10.5 -10 27.5q0 20 16 36t37 16q17 0 27.5 -10.5t10.5 -26.5q0 -20 -16.5 -36.5t-37.5 -16.5q-17 0 -27 10.5z" />
    <glyph glyph-name="uni1EF5" unicode="&#x1ef5;" horiz-adv-x="514" 
d="M241 -108q0 -20 -16.5 -36.5t-37.5 -16.5q-12 0 -23 7q-26 -26 -53.5 -36t-63.5 -10h-30l6 30q49 0 85 22.5t68 82.5l30 55l-91 390q-17 72 -96 80l3 20h85q87 0 106 -80l65 -277l187 347h50l-289 -535l-5 -10q20 -10 20 -33z" />
    <glyph glyph-name="uni1EF6" unicode="&#x1ef6;" horiz-adv-x="629" 
d="M286 273l-125 257q-27 54 -52.5 80.5t-73.5 29.5l4 20h90q50 0 79 -29.5t51 -80.5l106 -225l268 335h45l-301 -380l-49 -280h-90zM408.5 740.5q7.5 11.5 21.5 29.5q17 21 19 31t2 14q0 26 -27 26q-20 0 -33.5 -11t-24.5 -39l-41 1q5 29 21 47q19 22 38.5 30.5t46.5 8.5
q29 0 50 -15.5t21 -44.5q0 -5 -2 -17q-2 -11 -9 -18.5t-23 -20.5q-17 -14 -26.5 -24.5t-13.5 -26.5h-31q4 18 11.5 29.5z" />
    <glyph glyph-name="uni1EF7" unicode="&#x1ef7;" horiz-adv-x="514" 
d="M23 -170q49 0 85 22.5t68 82.5l30 55l-91 390q-17 72 -96 80l3 20h85q87 0 106 -80l65 -277l187 347h50l-289 -535q-42 -79 -82.5 -107t-96.5 -28h-30zM336.5 550.5q7.5 11.5 21.5 29.5q17 21 19 31t2 14q0 26 -27 26q-20 0 -33.5 -11t-24.5 -39l-41 1q5 29 21 47
q19 22 38.5 30.5t46.5 8.5q29 0 50 -15.5t21 -44.5q0 -5 -2 -17q-2 -11 -9 -18.5t-23 -20.5q-17 -14 -26.5 -24.5t-13.5 -26.5h-31q4 18 11.5 29.5z" />
    <glyph glyph-name="uni1EF8" unicode="&#x1ef8;" horiz-adv-x="629" 
d="M286 273l-125 257q-27 54 -52.5 80.5t-73.5 29.5l4 20h90q50 0 79 -29.5t51 -80.5l106 -225l268 335h45l-301 -380l-49 -280h-90zM311 823.5q18 21.5 49 21.5q15 0 26.5 -5.5t24.5 -15.5q2 -1 11 -7t18 -9t18 -3q11 0 23 13.5t14 26.5h30q-9 -52 -27.5 -73.5t-49.5 -21.5
q-14 0 -24 5t-26 15q-14 10 -24.5 15t-23.5 5q-11 0 -23 -13.5t-14 -26.5h-30q10 52 28 73.5z" />
    <glyph glyph-name="uni1EF9" unicode="&#x1ef9;" horiz-adv-x="514" 
d="M23 -170q49 0 85 22.5t68 82.5l30 55l-91 390q-17 72 -96 80l3 20h85q87 0 106 -80l65 -277l187 347h50l-289 -535q-42 -79 -82.5 -107t-96.5 -28h-30zM239 633.5q18 21.5 49 21.5q15 0 26.5 -5.5t24.5 -15.5q2 -1 11 -7t18 -9t18 -3q11 0 23 13.5t14 26.5h30
q-9 -52 -27.5 -73.5t-49.5 -21.5q-14 0 -24 5t-26 15q-14 10 -24.5 15t-23.5 5q-11 0 -23 -13.5t-14 -26.5h-30q10 52 28 73.5z" />
    <glyph glyph-name="endash" unicode="&#x2013;" horiz-adv-x="613" 
d="M62 230l11 60h470l-11 -60h-470z" />
    <glyph glyph-name="emdash" unicode="&#x2014;" horiz-adv-x="883" 
d="M62 230l11 60h740l-11 -60h-740z" />
    <glyph glyph-name="quoteleft" unicode="&#x2018;" horiz-adv-x="229" 
d="M102 438.5q-14 13.5 -14 38.5q0 62 40.5 115t103.5 88l8 -15q-44 -28 -70 -60t-34 -75l32 10q20 0 33 -13t13 -33q0 -27 -21.5 -48t-50.5 -21q-26 0 -40 13.5z" />
    <glyph glyph-name="quoteright" unicode="&#x2019;" horiz-adv-x="230" 
d="M90 440q44 28 70 60t34 75l-32 -10q-20 0 -33 13t-13 33q0 27 21 48t50 21q55 0 55 -52q0 -61 -41.5 -115t-103.5 -88z" />
    <glyph glyph-name="quotesinglbase" unicode="&#x201a;" horiz-adv-x="241" 
d="M-10 -140q44 28 70 60t34 75l-32 -10q-20 0 -33 13t-13 32q0 27 21 48.5t50 21.5q55 0 55 -52q0 -61 -41.5 -115t-103.5 -88z" />
    <glyph glyph-name="quotedblleft" unicode="&#x201c;" horiz-adv-x="409" 
d="M102 438.5q-14 13.5 -14 38.5q0 62 40.5 115t103.5 88l8 -15q-44 -28 -70 -60t-34 -75l32 10q20 0 33 -13t13 -33q0 -27 -21.5 -48t-50.5 -21q-26 0 -40 13.5zM282 438.5q-14 13.5 -14 38.5q0 62 40.5 115t103.5 88l8 -15q-44 -28 -70 -60t-34 -75l32 10q20 0 33 -13
t13 -33q0 -27 -21.5 -48t-50.5 -21q-26 0 -40 13.5z" />
    <glyph glyph-name="quotedblright" unicode="&#x201d;" horiz-adv-x="410" 
d="M90 440q44 28 70 60t34 75l-32 -10q-20 0 -33 13t-13 33q0 27 21 48t50 21q55 0 55 -52q0 -61 -41.5 -115t-103.5 -88zM270 440q44 28 70 60t34 75l-32 -10q-20 0 -33 13t-13 33q0 27 21 48t50 21q55 0 55 -52q0 -61 -41.5 -115t-103.5 -88z" />
    <glyph glyph-name="quotedblbase" unicode="&#x201e;" horiz-adv-x="421" 
d="M-10 -140q44 28 70 60t34 75l-32 -10q-20 0 -33 13t-13 32q0 27 21 48.5t50 21.5q55 0 55 -52q0 -61 -41.5 -115t-103.5 -88zM170 -140q44 28 70 60t34 75l-32 -10q-20 0 -33 13t-13 32q0 27 21 48.5t50 21.5q55 0 55 -52q0 -61 -41.5 -115t-103.5 -88z" />
    <glyph glyph-name="dagger" unicode="&#x2020;" horiz-adv-x="524" 
d="M134 -190l106 600h-189l10 60h189l37 210h90l-37 -210h190l-10 -60h-190l-106 -600h-90z" />
    <glyph glyph-name="daggerdbl" unicode="&#x2021;" horiz-adv-x="554" 
d="M149 -190l37 210h-189l11 60h189l58 330h-189l10 60h189l37 210h90l-37 -210h190l-10 -60h-190l-58 -330h190l-11 -60h-190l-37 -210h-90z" />
    <glyph glyph-name="bullet" unicode="&#x2022;" horiz-adv-x="339" 
d="M83.5 236q-27.5 26 -27.5 69q0 37 19 70.5t51.5 54t72.5 20.5q47 0 74 -26.5t27 -69.5q0 -37 -19 -70.5t-52 -53.5t-72 -20q-46 0 -73.5 26z" />
    <glyph glyph-name="ellipsis" unicode="&#x2026;" horiz-adv-x="645" 
d="M29.5 -1.5q-12.5 12.5 -12.5 32.5q0 25 19 44.5t45 19.5q21 0 33.5 -13t12.5 -32q0 -24 -19.5 -44t-45.5 -20q-20 0 -32.5 12.5zM239.5 -1.5q-12.5 12.5 -12.5 32.5q0 25 19 44.5t45 19.5q21 0 33.5 -13t12.5 -32q0 -24 -19.5 -44t-45.5 -20q-20 0 -32.5 12.5z
M449.5 -1.5q-12.5 12.5 -12.5 32.5q0 25 19 44.5t45 19.5q21 0 33.5 -13t12.5 -32q0 -24 -19.5 -44t-45.5 -20q-20 0 -32.5 12.5z" />
    <glyph glyph-name="perthousand" unicode="&#x2030;" horiz-adv-x="1008" 
d="M112 422.5q-32 27.5 -32 77.5q0 46 22.5 83.5t61.5 59.5t88 22q60 0 92 -27.5t32 -77.5q0 -46 -22.5 -83.5t-61.5 -59.5t-88 -22q-60 0 -92 27.5zM30 0l571 660h75l-571 -660h-75zM287.5 468q28.5 38 28.5 91q0 71 -70 71q-49 0 -77.5 -38.5t-28.5 -91.5q0 -70 70 -70
q49 0 77.5 38zM361.5 22q-32.5 27 -32.5 78q0 46 22.5 83.5t61.5 59.5t88 22q60 0 92 -27.5t32 -77.5q0 -46 -22 -83.5t-61 -59.5t-88 -22q-60 0 -92.5 27zM691.5 22q-32.5 27 -32.5 78q0 46 22.5 83.5t61.5 59.5t88 22q60 0 92 -27.5t32 -77.5q0 -46 -22 -83.5t-61 -59.5
t-88 -22q-60 0 -92.5 27zM537 68.5q28 38.5 28 91.5q0 70 -70 70q-49 0 -77.5 -38t-28.5 -91q0 -71 71 -71q49 0 77 38.5zM867 68.5q28 38.5 28 91.5q0 70 -70 70q-49 0 -77.5 -38t-28.5 -91q0 -71 71 -71q49 0 77 38.5z" />
    <glyph glyph-name="guilsinglleft" unicode="&#x2039;" horiz-adv-x="305" 
d="M167 30l-141 195l210 195h40l-145 -195l76 -195h-40z" />
    <glyph glyph-name="guilsinglright" unicode="&#x203a;" horiz-adv-x="303" 
d="M10 30l144 195l-75 195h40l140 -195l-209 -195h-40z" />
    <glyph glyph-name="fraction" unicode="&#x2044;" horiz-adv-x="420" 
d="M-91 0l571 660h65l-571 -660h-65z" />
    <glyph glyph-name="uni2074" unicode="&#x2074;" horiz-adv-x="325" 
d="M204 356l13 78h-152l4 19l193 207h47l-36 -204h41l-4 -22h-41l-13 -78h-52zM103 456h118l27 155z" />
    </font>
</defs>
</svg>
