<svg xmlns="http://www.w3.org/2000/svg" width="1000" height="1000" viewBox="0 0 264.583 264.583"><path d="M1.721 256.725c0-7.968 75.855-83.292 83.88-83.292 12.796 0 4.697 22.694-14.554 40.78-11.214 10.535-20.39 22.186-20.39 25.89 0 3.703 47.713 6.734 106.028 6.734 65.247 0 106.027 3.137 106.027 8.156 0 5.097-48.936 8.156-130.495 8.156-71.773 0-130.496-2.89-130.496-6.424zM172.997 81.061c0-5.946 9.175-19.432 20.39-29.967 11.214-10.536 20.39-22.186 20.39-25.89 0-3.704-47.713-6.734-106.028-6.734C42.5 18.47 1.72 15.333 1.72 10.314c0-5.097 48.936-8.156 130.496-8.156 71.772 0 130.495 2.89 130.495 6.424 0 7.968-75.854 83.292-83.879 83.292-3.21 0-5.836-4.866-5.836-10.813z" fill="#e22838"/></svg>