<?xml version="1.0" standalone="no"?>
<!DOCTYPE svg PUBLIC "-//W3C//DTD SVG 1.1//EN" "http://www.w3.org/Graphics/SVG/1.1/DTD/svg11.dtd" >
<svg xmlns="http://www.w3.org/2000/svg" xmlns:xlink="http://www.w3.org/1999/xlink" version="1.1">
<metadata>
Created by FontForge 20170731 at Wed Dec 14 11:11:58 2016
 By Aleksey,,,
Copyright 2011 The Philosopher Project Authors (lemonad@jovanny.ru)
</metadata>
<defs>
<font id="Philosopher-BoldItalic" horiz-adv-x="0" >
  <font-face 
    font-family="Philosopher"
    font-weight="700"
    font-style="italic"
    font-stretch="normal"
    units-per-em="1000"
    panose-1="0 0 8 0 0 0 0 0 0 0"
    ascent="800"
    descent="-200"
    x-height="470"
    cap-height="660"
    bbox="-432 -330 1047 1020"
    underline-thickness="50"
    underline-position="-150"
    slope="-10"
    unicode-range="U+000D-2215"
  />
<missing-glyph horiz-adv-x="542" 
d="M444 864v-1084h-343v1084h343zM361 791h-179v-35h71v-41h-72v-35h180v35h-72v41h72v35zM289 652h-108v-113h180v37h-72v76zM253 615v-39h-36v39h36zM361 510h-180v-36h72v-40h-72v-36h108v76h72v36zM361 444h-36v-71h-144v-37h180v108zM361 312h-108v-60h36v24h36v-50
h-108v86h-36v-122h180v122zM361 125h-180v-123h180v123zM325 89v-51h-108v51h108zM361 -23h-180v-35h76l-76 -51v-36h180v36h-111l76 51h35v35z" />
    <glyph glyph-name=".notdef" horiz-adv-x="542" 
d="M444 864v-1084h-343v1084h343zM361 791h-179v-35h71v-41h-72v-35h180v35h-72v41h72v35zM289 652h-108v-113h180v37h-72v76zM253 615v-39h-36v39h36zM361 510h-180v-36h72v-40h-72v-36h108v76h72v36zM361 444h-36v-71h-144v-37h180v108zM361 312h-108v-60h36v24h36v-50
h-108v86h-36v-122h180v122zM361 125h-180v-123h180v123zM325 89v-51h-108v51h108zM361 -23h-180v-35h76l-76 -51v-36h180v36h-111l76 51h35v35z" />
    <glyph glyph-name=".null" 
 />
    <glyph glyph-name="nonmarkingreturn" unicode="&#xd;" horiz-adv-x="250" 
 />
    <glyph glyph-name="NULL" 
 />
    <glyph glyph-name="NULL" 
 />
    <glyph glyph-name="space" unicode=" " horiz-adv-x="250" 
 />
    <glyph glyph-name="exclam" unicode="!" horiz-adv-x="248" 
d="M55 155l70 505h133l-109 -505h-94zM34.5 -1.5q-13.5 12.5 -13.5 33.5q0 31 20 53.5t53 22.5q26 0 38.5 -12.5t12.5 -34.5q0 -30 -20.5 -52.5t-52.5 -22.5q-24 0 -37.5 12.5z" />
    <glyph glyph-name="quotedbl" unicode="&#x22;" horiz-adv-x="392" 
d="M94 390l18 270h130l-78 -270h-70zM264 390l18 270h130l-78 -270h-70z" />
    <glyph glyph-name="numbersign" unicode="#" horiz-adv-x="702" 
d="M69 0l66 172h-123l11 65h136l68 176h-113l12 65h127l76 197h99l-76 -197h127l76 197h99l-76 -197h128l-12 -65h-142l-67 -176h118l-11 -65h-132l-66 -172h-99l66 172h-127l-66 -172h-99zM259 237h126l68 176h-127z" />
    <glyph glyph-name="dollar" unicode="$" horiz-adv-x="552" 
d="M184 -15q-74 6 -123.5 33.5t-49.5 71.5q0 11 21 130h28v-8q0 -89 32 -132t100 -51l45 258l-61 41q-50 33 -72.5 67t-22.5 77q0 58 30.5 102t81.5 70t113 33l10 58h70l-10 -59q70 -6 119 -34.5t49 -71.5q0 -8 -22 -129h-28v8q0 88 -31.5 131.5t-94.5 50.5l-43 -241l75 -49
q54 -37 78.5 -69.5t24.5 -73.5q0 -62 -35 -108t-91.5 -72.5t-122.5 -33.5l-12 -64h-70zM297 628q-39 -12 -65.5 -41t-26.5 -69q0 -26 14 -44.5t44 -41.5zM337.5 69q31.5 30 31.5 75q0 30 -17 52.5t-52 48.5l-38 -214q44 8 75.5 38z" />
    <glyph glyph-name="percent" unicode="%" horiz-adv-x="758" 
d="M108.5 417.5q-36.5 28.5 -36.5 81.5q0 48 25.5 86t68.5 59t94 21q64 0 100 -28.5t36 -79.5q0 -48 -24.5 -86.5t-67 -60t-93.5 -21.5q-66 0 -102.5 28.5zM36 0l600 660h106l-600 -660h-106zM290 467.5q26 38.5 26 90.5q0 67 -65 67q-45 0 -72 -39t-27 -89q0 -68 65 -68
q47 0 73 38.5zM417.5 23.5q-36.5 28.5 -36.5 81.5q0 48 25.5 86t68.5 59t93 21q66 0 101.5 -28.5t35.5 -81.5q0 -48 -24.5 -86t-67 -59t-93.5 -21q-66 0 -102.5 28.5zM598 72.5q27 37.5 27 89.5q0 33 -17 51t-49 18q-46 0 -72 -39t-26 -89q0 -68 65 -68q45 0 72 37.5z" />
    <glyph glyph-name="ampersand" unicode="&#x26;" horiz-adv-x="633" 
d="M498 103l79 -103h-136l-32 38q0 -2 -28.5 -17t-69 -28t-84.5 -13q-117 0 -169.5 34.5t-52.5 93.5q0 73 52 122.5t142 95.5q-23 23 -50.5 70t-27.5 100q0 57 32 98.5t85 63.5t112 22q79 0 121 -31.5t42 -84.5q0 -68 -53 -120t-140 -104l150 -200q35 33 75 81q18 22 31 40
l33 -25q-11 -17 -30 -43q-40 -52 -81 -90zM272.5 593.5q-22.5 -46.5 -22.5 -103.5q0 -36 12.5 -63.5t28.5 -45.5q47 37 74.5 84t27.5 104q0 36 -14.5 53.5t-35.5 17.5q-48 0 -70.5 -46.5zM385 72l-66 88q-53 69 -88 118q-95 -76 -95 -163q0 -45 27 -70t80 -25q51 0 101 26
q18 9 41 26z" />
    <glyph glyph-name="quotesingle" unicode="'" horiz-adv-x="222" 
d="M94 390l18 270h130l-78 -270h-70z" />
    <glyph glyph-name="parenleft" unicode="(" horiz-adv-x="321" 
d="M60 -53q-50 91 -50 201q0 168 98 308t264 244l10 -20q-122 -97 -186 -261t-64 -340q0 -178 95 -279l-17 -20q-100 76 -150 167z" />
    <glyph glyph-name="parenright" unicode=")" horiz-adv-x="321" 
d="M-74 -200q123 97 186.5 260.5t63.5 339.5q0 178 -96 280l18 20q100 -76 150 -167t50 -202q0 -167 -98 -308t-263 -243z" />
    <glyph glyph-name="asterisk" unicode="*" horiz-adv-x="436" 
d="M170 324l45 121l-114 -89l-34 86l153 50l-135 50l64 86l83 -89l-3 121h112l-45 -121l113 89l34 -86l-153 -50l135 -50l-64 -86l-83 90l4 -122h-112z" />
    <glyph glyph-name="plus" unicode="+" horiz-adv-x="547" 
d="M197 100l35 195h-197l12 70h197l34 195h90l-34 -195h197l-12 -70h-197l-35 -195h-90z" />
    <glyph glyph-name="comma" unicode="," horiz-adv-x="230" 
d="M-26 -136q36 21 66.5 53t37.5 72l-16 -3q-24 0 -37.5 12.5t-13.5 33.5q0 31 20 53.5t53 22.5q26 0 40 -17t14 -43q0 -113 -151 -208z" />
    <glyph glyph-name="hyphen" unicode="-" horiz-adv-x="397" 
d="M48 217l17 95h279l-17 -95h-279z" />
    <glyph glyph-name="period" unicode="." horiz-adv-x="226" 
d="M24.5 -1.5q-13.5 12.5 -13.5 33.5q0 31 20 53.5t53 22.5q26 0 38.5 -12.5t12.5 -34.5q0 -30 -20.5 -52.5t-52.5 -22.5q-24 0 -37.5 12.5z" />
    <glyph glyph-name="slash" unicode="/" horiz-adv-x="480" 
d="M-25 0l437 660h112l-437 -660h-112z" />
    <glyph glyph-name="zero" unicode="0" horiz-adv-x="609" 
d="M42 208q0 108 33.5 216.5t108.5 182t191 73.5q211 0 211 -229q0 -108 -34 -216t-109 -181.5t-191 -73.5q-210 0 -210 228zM358 102q44 77 69 188t25 205q0 140 -85 140q-54 0 -98 -77.5t-68.5 -189t-24.5 -205.5q0 -71 20.5 -104.5t63.5 -33.5q54 0 98 77z" />
    <glyph glyph-name="one" unicode="1" horiz-adv-x="324" 
d="M70 0l95 542l-97 -56l-18 31l179 143h87l-116 -660h-130z" />
    <glyph glyph-name="two" unicode="2" horiz-adv-x="540" 
d="M5 65q22 19 46 37q95 75 164.5 139t123 141t53.5 149q0 51 -25 77.5t-63 26.5q-65 0 -114.5 -43t-79.5 -132h-35q8 49 18.5 84t29.5 56q35 35 91.5 57.5t117.5 22.5q81 0 140.5 -33t59.5 -117q0 -79 -60.5 -159t-135.5 -141t-179 -135q-49 -34 -69 -50h207
q60 0 97.5 28.5t47.5 81.5h30l-13 -75q-7 -36 -29 -58t-70 -22h-364z" />
    <glyph glyph-name="three" unicode="3" horiz-adv-x="543" 
d="M536 615l-290 -234q7 1 25.5 2.5t38.5 1.5q45 0 88.5 -16.5t72 -53t28.5 -91.5q0 -69 -38.5 -125t-102 -87.5t-134.5 -31.5q-90 0 -141.5 27t-89.5 81l33 29q33 -46 75.5 -69t86.5 -23q51 0 90 28.5t60 75t21 99.5q0 55 -29 83.5t-76 28.5q-39 0 -77 -10l-31 -9l-17 38
l318 256h-179q-60 0 -97.5 -28.5t-46.5 -81.5h-30l13 75q7 36 29 58t70 22h338z" />
    <glyph glyph-name="four" unicode="4" horiz-adv-x="574" 
d="M282 0l29 170h-320l8 40l425 450h104l-79 -445h90l-8 -45h-90l-29 -170h-130zM68 215h251l58 328z" />
    <glyph glyph-name="five" unicode="5" horiz-adv-x="549" 
d="M87 7q-49 27 -83 81l34 26q28 -45 71 -67t89 -22q52 0 91 29t59.5 76t20.5 99q0 57 -34.5 86t-100.5 29q-42 0 -85 -12q-11 -2 -44 -11l-33 39l64 300h389l-8 -44h-273l-50 -231l31 2q10 1 24 2t33 1q89 0 158 -38t69 -124q0 -79 -40 -135t-107.5 -84.5t-148.5 -28.5
q-77 0 -126 27z" />
    <glyph glyph-name="six" unicode="6" horiz-adv-x="561" 
d="M42 208q0 116 35.5 223.5t114.5 178t203 70.5q54 0 111 -17q19 -6 43 -17l-11 -28l-44 8q-61 9 -87 9q-77 0 -131.5 -62.5t-77.5 -187.5q18 14 42 24q54 24 107 24q93 0 135 -41t42 -118t-35 -144.5t-99.5 -108.5t-147.5 -41q-200 0 -200 228zM328.5 69.5
q31.5 44.5 46.5 105t15 108.5q0 105 -81 105q-27 0 -53.5 -11t-46 -24.5t-19.5 -15.5q-17 -96 -17 -168q0 -144 77 -144q47 0 78.5 44.5z" />
    <glyph glyph-name="seven" unicode="7" horiz-adv-x="476" 
d="M405 615h-170q-60 0 -97.5 -28.5t-46.5 -81.5h-30l13 75q7 36 29 58t70 22h361l-8 -45l-358 -615h-121z" />
    <glyph glyph-name="eight" unicode="8" horiz-adv-x="580" 
d="M76 15.5q-62 35.5 -62 106.5q0 76 56.5 126t146.5 87q-55 32 -84.5 65.5t-29.5 80.5q0 66 35.5 111t94 66.5t127.5 21.5q91 0 145.5 -30.5t54.5 -99.5q0 -122 -166 -192q61 -37 94.5 -74t33.5 -91q0 -71 -40.5 -119t-105.5 -71t-139 -23q-99 0 -161 35.5zM404.5 455
q20.5 45 20.5 97q0 44 -22 63.5t-51 19.5q-30 0 -55.5 -18t-40 -47t-14.5 -60q0 -68 104 -126q38 26 58.5 71zM314.5 43.5q31.5 18.5 50 51t18.5 71.5q0 46 -30.5 79t-87.5 66q-55 -28 -85.5 -78.5t-30.5 -114.5q0 -47 25 -70t71 -23q38 0 69.5 18.5z" />
    <glyph glyph-name="nine" unicode="9" horiz-adv-x="561" 
d="M72 -3q-27 9 -43 17l11 28l44 -9q54 -8 87 -8q77 0 131.5 62.5t77.5 187.5q-20 -14 -42 -24q-54 -24 -106 -24q-93 0 -135 41t-42 118t35 144.5t99 108.5t147 41q201 0 201 -229q0 -116 -36 -223t-115.5 -177.5t-202.5 -70.5q-60 0 -111 17zM322.5 283q26.5 11 46 24.5
t19.5 15.5q18 102 18 168q0 144 -78 144q-48 0 -79 -44.5t-45.5 -105.5t-14.5 -110q0 -52 19.5 -77.5t60.5 -25.5q27 0 53.5 11z" />
    <glyph glyph-name="colon" unicode=":" horiz-adv-x="239" 
d="M91.5 351.5q-12.5 12.5 -12.5 34.5q0 30 20.5 52.5t52.5 22.5q26 0 38.5 -12.5t12.5 -34.5q0 -30 -20.5 -52.5t-52.5 -22.5q-26 0 -38.5 12.5zM30.5 -1.5q-13.5 12.5 -13.5 33.5q0 31 20 53.5t53 22.5q26 0 38.5 -12.5t12.5 -34.5q0 -30 -20.5 -52.5t-52.5 -22.5
q-24 0 -37.5 12.5z" />
    <glyph glyph-name="semicolon" unicode=";" horiz-adv-x="251" 
d="M96.5 351.5q-12.5 12.5 -12.5 34.5q0 30 20.5 52.5t52.5 22.5q26 0 38.5 -12.5t12.5 -34.5q0 -30 -20.5 -52.5t-52.5 -22.5q-26 0 -38.5 12.5zM-15 -136q36 21 66.5 53t37.5 72l-16 -3q-24 0 -37.5 12.5t-13.5 33.5q0 31 20 53.5t53 22.5q26 0 40 -17t14 -43
q0 -113 -151 -208z" />
    <glyph glyph-name="less" unicode="&#x3c;" horiz-adv-x="611" 
d="M514 74l-481 226l13 70l560 226l-16 -91l-422 -170l362 -170z" />
    <glyph glyph-name="equal" unicode="=" horiz-adv-x="670" 
d="M78 385l13 70h549l-13 -70h-549zM47 205l12 70h549l-12 -70h-549z" />
    <glyph glyph-name="greater" unicode="&#x3e;" horiz-adv-x="610" 
d="M25 74l16 91l422 170l-362 170l16 91l480 -226l-13 -70z" />
    <glyph glyph-name="question" unicode="?" horiz-adv-x="500" 
d="M213.5 234q21.5 35 59.5 84q33 42 52 71.5t32.5 68t13.5 83.5q0 51 -21.5 72.5t-61.5 21.5q-131 0 -199 -188h-30l2 8q12 61 21.5 92t29.5 52q35 34 94.5 57.5t119.5 23.5q83 0 133.5 -40.5t50.5 -113.5q0 -50 -17.5 -87t-43.5 -63.5t-71 -63.5q-52 -43 -82.5 -76.5
t-46.5 -79.5h-68q11 43 32.5 78zM147.5 -1.5q-13.5 12.5 -13.5 33.5q0 31 20 53.5t53 22.5q26 0 38.5 -12.5t12.5 -34.5q0 -30 -20.5 -52.5t-52.5 -22.5q-24 0 -37.5 12.5z" />
    <glyph glyph-name="at" unicode="@" horiz-adv-x="877" 
d="M111 -96.5q-91 83.5 -91 239.5q0 139 59 262.5t170.5 199t261.5 75.5q105 0 182 -37t119 -108t42 -171q0 -85 -27.5 -167.5t-88 -137t-151.5 -54.5q-40 0 -71.5 10t-43.5 45q-14 -15 -33 -28q-38 -27 -92 -27q-86 0 -129.5 49t-43.5 129q0 73 31 145.5t90 119.5t139 47
q52 0 82 -28q15 -13 23 -27h5l43 45h85l-68 -383q-1 -3 -1 -15q0 -36 32 -36q54 0 87.5 54t47.5 126.5t14 131.5q0 132 -74.5 202t-206.5 70q-129 0 -222.5 -68.5t-142 -181.5t-48.5 -242q0 -137 73.5 -207.5t204.5 -70.5q93 0 175 24t158 71l19 -40q-77 -48 -165 -74
t-195 -26q-158 0 -249 83.5zM413 58.5q17 8.5 35 23.5q14 12 29 33l47 270q-6 18 -17 32q-25 33 -61 33q-48 0 -79.5 -52t-46 -121t-14.5 -120q0 -107 69 -107q21 0 38 8.5z" />
    <glyph glyph-name="A" unicode="A" horiz-adv-x="647" 
d="M472.5 23q-47.5 27 -64.5 103l-13 56h-266l-114 -182h-52l411 660h45l130 -534q24 -93 86 -100l-4 -25q-18 -5 -49 -5q-62 0 -109.5 27zM158 227h226l-64 261z" />
    <glyph glyph-name="B" unicode="B" horiz-adv-x="646" 
d="M125 441q21 123 21 134q0 28 -13 41.5t-44 13.5h-10l5 30h270q115 0 191 -28.5t76 -113.5q0 -65 -47.5 -111.5t-119.5 -65.5q144 -15 144 -124q0 -115 -95.5 -166t-234.5 -51h-220q56 318 77 441zM316 361q46 0 83.5 19t60 54.5t22.5 83.5q0 54 -38.5 78t-96.5 24
q-28 0 -43 -4l-18 -3l-45 -252h75zM260 40q52 0 97 19t72.5 57.5t27.5 93.5q0 106 -149 106h-75l-47 -266q9 -4 19 -5q22 -5 50 -5h5z" />
    <glyph glyph-name="C" unicode="C" horiz-adv-x="680" 
d="M163.5 13.5q-62.5 33.5 -94 94t-31.5 138.5q0 104 52.5 204.5t144 165t203.5 64.5q88 0 161 -29.5t73 -105.5q0 -38 -12 -98h-30q-2 92 -45 140t-125 48q-94 0 -158 -61t-94.5 -154t-30.5 -188q0 -94 42.5 -150.5t133.5 -56.5q70 0 135.5 37t112.5 106l30 -27
q-62 -84 -137 -122.5t-179 -38.5q-89 0 -151.5 33.5z" />
    <glyph glyph-name="D" unicode="D" horiz-adv-x="737" 
d="M141 530q5 32 5 45q0 28 -13 41.5t-44 13.5h-10l5 30h272q178 0 269.5 -67.5t91.5 -190.5q0 -118 -59.5 -209.5t-162.5 -142t-229 -50.5h-218zM270 40q88 0 156 53t105 137.5t37 172.5q0 100 -52.5 158.5t-145.5 58.5h-8q-33 0 -53 -4l-23 -3l-100 -566l22 -4
q13 -3 52 -3h10z" />
    <glyph glyph-name="E" unicode="E" horiz-adv-x="602" 
d="M125 441q21 123 21 134q0 28 -13 41.5t-44 13.5h-10l5 30h441q73 0 73 -58q0 -9 -17 -107h-30q3 18 3 33q0 87 -107 87h-161l-44 -250h260l-8 -45h-260l-49 -275h171q57 0 99.5 25.5t79.5 88.5l25 -10l-43 -79q-20 -37 -40.5 -53.5t-58.5 -16.5h-370q56 318 77 441z" />
    <glyph glyph-name="F" unicode="F" horiz-adv-x="542" 
d="M141 530q5 32 5 45q0 28 -13 41.5t-44 13.5h-10l5 30h419q73 0 73 -58q0 -9 -17 -107h-30q3 18 3 33q0 46 -27 66.5t-80 20.5h-139l-45 -255h220l-8 -45h-220l-55 -315h-130z" />
    <glyph glyph-name="G" unicode="G" horiz-adv-x="734" 
d="M184 17.5q-69 37.5 -106.5 104.5t-37.5 151q0 102 52 196t143 152.5t201 58.5q89 0 164.5 -30t75.5 -107q0 -33 -10 -83h-30q-3 91 -46.5 133t-131.5 42q-95 0 -159 -62.5t-94 -157t-30 -189.5q0 -206 175 -206q80 0 140 26l31 178q10 53 56 87.5t160 34.5l-5 -25
q-64 0 -81 -95l-31 -179q-63 -35 -131 -51t-146 -16q-90 0 -159 37.5z" />
    <glyph glyph-name="H" unicode="H" horiz-adv-x="723" 
d="M141 530q5 32 5 45q0 28 -13 41.5t-44 13.5h-10l5 30h120q40 0 57 -15t17 -52q0 -31 -7 -63l-29 -165h270l52 295h130l-94 -530q-4 -21 -4 -43q0 -28 13 -42.5t44 -14.5h10l-5 -30h-120q-40 0 -57 15.5t-17 53.5q0 25 6 61l34 190h-270l-56 -320h-130z" />
    <glyph glyph-name="I" unicode="I" horiz-adv-x="307" 
d="M65 15.5q-17 15.5 -17 53.5q0 25 6 61l94 530h130l-94 -530q-4 -21 -4 -43q0 -28 13 -42.5t44 -14.5h10l-5 -30h-120q-40 0 -57 15.5z" />
    <glyph glyph-name="J" unicode="J" horiz-adv-x="280" 
d="M-84 -107q48 6 78 47.5t47 142.5l102 577h130l-102 -577q-15 -88 -42 -134.5t-77.5 -66t-141.5 -19.5z" />
    <glyph glyph-name="K" unicode="K" horiz-adv-x="694" 
d="M465.5 15.5q-53.5 25.5 -106.5 94.5l-131 168l-49 -278h-130q65 368 81 465.5t16 109.5q0 28 -13 41.5t-44 13.5h-10l5 30h120q40 0 57.5 -15t17.5 -53q0 -11 -9 -62t-14 -83l-18 -107l211 215q46 49 93.5 77t102.5 28h70l-6 -35q-62 0 -109 -15.5t-87 -55.5l-181 -184
l188 -240q32 -41 72.5 -71.5t68.5 -34.5l-4 -24q-32 -10 -75 -10q-63 0 -116.5 25.5z" />
    <glyph glyph-name="L" unicode="L" horiz-adv-x="567" 
d="M141 530q5 32 5 45q0 28 -13 41.5t-44 13.5h-10l5 30h120q40 0 57 -15t17 -52q0 -31 -7 -63l-86 -485h345l-7 -45h-475z" />
    <glyph glyph-name="M" unicode="M" horiz-adv-x="869" 
d="M659.5 -10q-41.5 35 -41.5 110q0 23 7 70l63 354l-311 -524h-33l-173 544l-95 -544h-50l116 660h122l155 -491l292 491h131l-87 -490q-11 -63 -11 -100q0 -80 51 -90l-4 -25q-90 0 -131.5 35z" />
    <glyph glyph-name="N" unicode="N" horiz-adv-x="695" 
d="M188 495l-87 -495h-50l53 302q45 257 45 264q0 64 -77 64h-5l5 30h70q56 0 89 -14.5t51 -45.5l274 -400l81 460h50l-117 -663h-46z" />
    <glyph glyph-name="O" unicode="O" horiz-adv-x="735" 
d="M168 15q-62 35 -95 97.5t-33 143.5q0 105 51 203t142.5 159.5t204.5 61.5q85 0 147 -35t95 -97.5t33 -143.5q0 -105 -51 -203t-142.5 -159.5t-204.5 -61.5q-85 0 -147 35zM467.5 92q57.5 67 84 162.5t26.5 183.5q0 95 -38 146t-110 51q-86 0 -143.5 -67.5t-84 -164
t-26.5 -182.5q0 -94 37.5 -145t109.5 -51q87 0 144.5 67z" />
    <glyph glyph-name="P" unicode="P" horiz-adv-x="580" 
d="M125 441q21 123 21 134q0 28 -13 41.5t-44 13.5h-10l5 30h275q92 0 165.5 -33t73.5 -127q0 -72 -39 -124.5t-103 -80.5t-136 -28h-95l-47 -267h-130q56 318 77 441zM292 307q52 0 90 28.5t57.5 75t19.5 100.5q0 58 -30.5 83.5t-76.5 25.5q-29 0 -45 -4l-21 -3l-54 -306
h60z" />
    <glyph glyph-name="Q" unicode="Q" horiz-adv-x="737" 
d="M384 -157q-101 48 -169 153q-82 25 -128 95t-46 165q0 105 51 203t142.5 159.5t204.5 61.5q85 0 147 -35t95 -97.5t33 -143.5q0 -90 -37 -174t-105 -147t-159 -90q8 -47 39.5 -86.5t75 -62.5t85.5 -23l-5 -26q-123 0 -224 48zM468.5 92q57.5 67 84 162.5t26.5 183.5
q0 95 -38 146t-110 51q-86 0 -143.5 -67.5t-84 -164t-26.5 -182.5q0 -94 37.5 -145t109.5 -51q87 0 144.5 67z" />
    <glyph glyph-name="R" unicode="R" horiz-adv-x="616" 
d="M416.5 22.5q-39.5 32.5 -74.5 112.5l-70 167h-40l-53 -302h-131q56 318 77 441t21 134q0 28 -13 41.5t-44 13.5h-10l5 30h276q94 0 167 -31t73 -118q0 -79 -54 -129t-140 -72l74 -175q41 -98 105 -110l-4 -25q-8 -4 -29.5 -7t-40.5 -3q-55 0 -94.5 32.5zM299 342
q46 0 83 23t58 63t21 88q0 53 -31.5 78.5t-76.5 25.5q-29 0 -45 -4l-21 -3l-48 -271h60z" />
    <glyph glyph-name="S" unicode="S" horiz-adv-x="562" 
d="M121.5 -4q-47.5 13 -76.5 37.5t-29 57.5q0 9 21 129h28v-7q0 -98 39.5 -141.5t123.5 -43.5q36 0 69.5 13t55 39t21.5 64q0 33 -20 56.5t-63 53.5l-110 74q-50 33 -72.5 67t-22.5 77q0 63 36 110t95 71.5t126 24.5q53 0 100.5 -13t76.5 -37.5t29 -57.5q0 -8 -22 -129h-28
v11q0 96 -38 138.5t-115 42.5q-34 0 -65 -13.5t-51 -39.5t-20 -62q0 -31 19 -52t65 -52l111 -73q54 -37 78.5 -69.5t24.5 -73.5q0 -69 -41.5 -117.5t-107 -73t-137.5 -24.5q-53 0 -100.5 13z" />
    <glyph glyph-name="T" unicode="T" horiz-adv-x="577" 
d="M290 615h-71q-56 0 -90 -28t-46 -92h-30l15 85q7 36 29 58t70 22h470l-8 -45h-209l-108 -615h-130z" />
    <glyph glyph-name="U" unicode="U" horiz-adv-x="697" 
d="M141 40.5q-55 50.5 -55 154.5q0 22 9 79.5t43 255.5q5 32 5 45q0 28 -13 41.5t-44 13.5l5 30h110q40 0 57 -15t17 -52q0 -31 -7 -63q-36 -212 -45.5 -273.5t-9.5 -82.5q0 -71 28.5 -107.5t90.5 -36.5q109 0 166.5 61t81.5 197l66 372h50l-66 -372q-25 -148 -99 -223
t-218 -75q-117 0 -172 50.5z" />
    <glyph glyph-name="V" unicode="V" horiz-adv-x="637" 
d="M109 543q-14 55 -32 78t-48 27l3 20l43 2q66 0 110.5 -25t64.5 -102l92 -374l298 491h51l-406 -670h-40z" />
    <glyph glyph-name="W" unicode="W" horiz-adv-x="905" 
d="M103 543q-12 55 -30.5 78t-49.5 27l3 20l43 2q67 0 113 -24.5t62 -102.5l74 -345l136 256l-20 89q-11 54 -33 77.5t-54 27.5l3 20l40 2q68 0 113.5 -24.5t61.5 -102.5l79 -364l256 481h48l-355 -669h-40l-85 392l-206 -392h-40z" />
    <glyph glyph-name="X" unicode="X" horiz-adv-x="645" 
d="M268 311l-103 219q-19 41 -51 73.5t-64 36.5l4 20h110q51 0 86 -31.5t57 -78.5l64 -134l236 244h65l-280 -289l114 -241q19 -42 51 -74t64 -36l-3 -20h-110q-51 0 -86.5 32t-57.5 78l-74 156l-257 -266h-65z" />
    <glyph glyph-name="Y" unicode="Y" horiz-adv-x="639" 
d="M273 264l-130 266q-19 42 -51 74t-63 36l4 20h109q51 0 86 -31.5t57 -78.5l100 -205l250 315h65l-292 -369l-51 -291h-130z" />
    <glyph glyph-name="Z" unicode="Z" horiz-adv-x="599" 
d="M-12 32l475 584h-217q-56 0 -90.5 -28t-45.5 -93h-30l15 85q7 36 29 58t70 22h455l-501 -615h387l-7 -45h-545z" />
    <glyph glyph-name="bracketleft" unicode="[" horiz-adv-x="332" 
d="M-17 -200l155 880h245l-8 -45h-125l-139 -790h125l-8 -45h-245z" />
    <glyph glyph-name="backslash" unicode="\" horiz-adv-x="475" 
d="M293 0l-205 660h112l205 -660h-112z" />
    <glyph glyph-name="bracketright" unicode="]" horiz-adv-x="332" 
d="M-64 -200l8 45h124l139 790h-125l8 45h245l-155 -880h-244z" />
    <glyph glyph-name="asciicircum" unicode="^" horiz-adv-x="514" 
d="M28 330l276 350h44l154 -350h-98l-99 227l-179 -227h-98z" />
    <glyph glyph-name="underscore" unicode="_" horiz-adv-x="434" 
d="M-51 -70l13 70h420l-13 -70h-420z" />
    <glyph glyph-name="grave" unicode="`" horiz-adv-x="227" 
d="M167 477l-78 203h125l27 -203h-74z" />
    <glyph glyph-name="a" unicode="a" horiz-adv-x="550" 
d="M68 40q-44 50 -44 130q0 72 31.5 144t91 119t137.5 47q52 0 82 -28q15 -13 23 -27h5l43 45h85l-65 -370l-17 -100h-85l-28 45h-5q-12 -15 -32 -28q-38 -27 -92 -27q-86 0 -130 50zM264 43.5q17 8.5 35 23.5q15 13 28 33l48 270q-6 18 -17 32q-25 33 -62 33
q-48 0 -79.5 -51.5t-46 -120.5t-14.5 -119q0 -109 70 -109q21 0 38 8.5z" />
    <glyph glyph-name="b" unicode="b" horiz-adv-x="550" 
d="M168 17q-16 13 -23 28h-5l-42 -45h-85q56 318 77 441t21 134q0 28 -13 41.5t-44 13.5h-10l5 30h120q40 0 57 -15t17 -52q0 -28 -21 -143q9 5 31 15q41 15 79 15q89 0 133.5 -49.5t44.5 -133.5q0 -73 -31 -144.5t-89.5 -117t-138.5 -45.5q-54 0 -83 27zM319.5 86
q31.5 51 45 119t13.5 120q0 54 -17 82t-57 28q-30 0 -64 -15l-26 -15l-54 -305q6 -18 17 -33q24 -32 62 -32q49 0 80.5 51z" />
    <glyph glyph-name="c" unicode="c" horiz-adv-x="498" 
d="M76 42.5q-51 52.5 -51 137.5q0 82 36 150.5t101.5 109t150.5 40.5q68 0 115 -14.5t47 -65.5q0 -28 -13 -95h-30q1 8 1 24q0 53 -29 79.5t-84 26.5q-56 0 -92.5 -46t-53.5 -110.5t-17 -121.5q0 -122 98 -122q48 0 84 21.5t73 61.5l27 -23q-38 -46 -86.5 -75.5
t-125.5 -29.5q-100 0 -151 52.5z" />
    <glyph glyph-name="d" unicode="d" horiz-adv-x="550" 
d="M69 40q-44 50 -44 133q0 75 31 146t91 116t142 45q38 0 74 -15q17 -8 26 -15l8 47q11 68 11 78q0 28 -13 41.5t-44 13.5h-10l5 30h120q40 0 57 -15t17 -52q0 -11 -15.5 -104t-55.5 -324l-29 -165h-85l-28 45h-5q-12 -15 -32 -28q-38 -27 -92 -27q-85 0 -129 50zM264 43.5
q17 8.5 35 23.5q15 13 28 33l54 305q-9 7 -21 15q-32 15 -59 15q-52 0 -84 -50.5t-46 -118t-14 -122.5q0 -53 16 -81t53 -28q21 0 38 8.5z" />
    <glyph glyph-name="e" unicode="e" horiz-adv-x="508" 
d="M76 43q-51 53 -51 139q0 77 34.5 145.5t98 110.5t145.5 42q89 0 138 -32.5t49 -89.5q0 -80 -67 -119t-159 -39h-105q-6 -31 -6 -56q0 -54 23 -81.5t64 -27.5q48 0 84 21.5t73 61.5l27 -23q-37 -45 -85.5 -75t-121.5 -30q-90 0 -141 53zM272 245q37 0 60 37t23 80
q0 36 -17.5 54.5t-42.5 18.5q-96 0 -128 -190h105z" />
    <glyph glyph-name="f" unicode="f" horiz-adv-x="345" 
d="M-92 -165q48 9 76 50.5t45 139.5l70 400h-60l8 45h60l5 27q15 85 71.5 129t154.5 44q27 0 51.5 -4.5t36.5 -12.5q24 -16 31 -43l-46 -35q-12 24 -31 37t-45 13q-35 0 -58 -29t-35 -99l-5 -27h130l-8 -45h-130l-70 -400q-15 -84 -43 -130t-78 -65.5t-134 -19.5z" />
    <glyph glyph-name="g" unicode="g" horiz-adv-x="550" 
d="M62.5 -170q-38.5 30 -59.5 75l35 23q24 -40 51.5 -61.5t72.5 -21.5q57 0 97 46.5t57 143.5l1 5q-14 -9 -31 -15q-37 -15 -80 -15q-89 0 -134 47t-45 128q0 72 31 140.5t89 111.5t137 43q52 0 82 -28q15 -13 23 -27h5l43 45h85l-76 -435q-18 -107 -90.5 -171t-181.5 -64
q-73 0 -111.5 30zM298 70q15 7 26 15l51 285q-6 18 -17 32q-25 33 -62 33q-49 0 -80 -48t-44 -112.5t-13 -116.5q0 -50 17.5 -76.5t57.5 -26.5q34 0 64 15z" />
    <glyph glyph-name="h" unicode="h" horiz-adv-x="546" 
d="M105 530q5 32 5 45q0 28 -13 41.5t-44 13.5h-10l5 30h120q40 0 57 -15t17 -52q0 -31 -7 -63l-16 -88q15 9 34 19q44 19 83 19q71 0 116.5 -31t45.5 -105q0 -15 -9.5 -75t-46.5 -269h-130q32 182 44 255.5t12 84.5q0 47 -19.5 68.5t-51.5 21.5q-28 0 -60 -18
q-13 -7 -26 -17l-69 -395h-130z" />
    <glyph glyph-name="i" unicode="i" horiz-adv-x="271" 
d="M143 541q-16 17 -16 43q0 29 18.5 50.5t47.5 21.5q31 0 47 -17t16 -43q0 -32 -16.5 -52t-49.5 -20q-31 0 -47 17zM92 340q5 32 5 45q0 28 -13 41.5t-44 13.5h-10l5 30h120q40 0 57 -15t17 -52q0 -19 -7 -63l-59 -340h-130z" />
    <glyph glyph-name="j" unicode="j" horiz-adv-x="270" 
d="M143 541q-16 17 -16 43q0 29 18.5 50.5t47.5 21.5q31 0 47 -17t16 -43q0 -29 -18.5 -50.5t-47.5 -21.5q-31 0 -47 17zM-84 -165q48 9 76 50.5t45 139.5l47 275q13 75 13 85q0 28 -13 41.5t-44 13.5h-10l5 30h120q40 0 57 -15t17 -52q0 -14 -10.5 -80t-51.5 -298
q-15 -84 -43 -130t-78 -65.5t-134 -19.5z" />
    <glyph glyph-name="k" unicode="k" horiz-adv-x="507" 
d="M308.5 8.5q-33.5 18.5 -57.5 61.5l-74 126l-34 -196h-130q56 318 77 441t21 134q0 28 -13 41.5t-44 13.5h-10l5 30h120q40 0 57 -15t17 -52q0 -17 -10 -79t-47 -269l147 148q41 41 74.5 59t82.5 18h20l-4 -26q-30 0 -56.5 -12t-52.5 -38l-118 -118l102 -176
q37 -67 80 -76l-4 -24q-8 -4 -30 -7t-41 -3q-44 0 -77.5 18.5z" />
    <glyph glyph-name="l" unicode="l" horiz-adv-x="261" 
d="M94 441q21 123 21 134q0 28 -13 41.5t-44 13.5h-10l5 30h120q40 0 57 -15t17 -52q0 -11 -15.5 -104t-55.5 -324l-29 -165h-130q56 318 77 441z" />
    <glyph glyph-name="m" unicode="m" horiz-adv-x="827" 
d="M78 272q18 108 18 114q0 28 -12.5 41t-43.5 13h-10l5 30h99q67 0 79 -38h4q62 48 134 48q49 0 81 -18.5t47 -38.5q28 26 63.5 41.5t88.5 15.5q148 0 148 -132q0 -15 -9.5 -74.5t-47.5 -273.5h-130q38 214 47.5 274t9.5 74q0 82 -62 82q-27 0 -51.5 -10.5t-40.5 -27.5
l2 -9q3 -21 3 -29q0 -13 -12.5 -89.5t-45.5 -264.5h-130q38 214 47.5 274t9.5 74q0 82 -62 82q-21 0 -45.5 -12.5t-38.5 -27.5v-5q0 -2 0.5 -5t0.5 -10q0 -29 -62 -370h-130q41 242 46 272z" />
    <glyph glyph-name="n" unicode="n" horiz-adv-x="577" 
d="M91 340q5 32 5 47q0 26 -12.5 39.5t-43.5 13.5h-10l5 30h99q34 0 52 -8.5t26 -28.5q55 47 154 47q82 0 122.5 -32t40.5 -100q0 -20 -5 -52l-52 -296h-130l52 297q4 20 4 46q0 87 -76 87q-31 0 -56 -8.5t-41 -22.5q1 -7 1 -20q0 -18 -3 -33l-61 -346h-130z" />
    <glyph glyph-name="o" unicode="o" horiz-adv-x="553" 
d="M77 43.5q-53 53.5 -53 140.5q0 75 37.5 143.5t103.5 110.5t147 42q96 0 149 -53.5t53 -140.5q0 -75 -37.5 -143.5t-103.5 -110.5t-147 -42q-96 0 -149 53.5zM317 82.5q33 47.5 48.5 113t15.5 117.5q0 58 -19 90t-58 32q-50 0 -83 -47.5t-48.5 -113t-15.5 -117.5
q0 -58 19 -90t58 -32q50 0 83 47.5z" />
    <glyph glyph-name="p" unicode="p" horiz-adv-x="569" 
d="M75 252q21 123 21 134q0 28 -12.5 41t-43.5 13h-10l5 30h99q35 0 53 -9.5t24 -32.5q64 52 145 52q85 0 129 -50t44 -133q0 -79 -33 -149.5t-93 -114t-138 -43.5q-42 0 -74 15q-16 6 -26 15l-37 -210h-130q56 319 77 442zM337 87q32 52 46 120t14 119q0 53 -16 81t-53 28
q-56 0 -104 -41v-5l1 -14q0 -18 -52 -310q9 -9 21 -15q28 -15 59 -15q52 0 84 52z" />
    <glyph glyph-name="q" unicode="q" horiz-adv-x="549" 
d="M312 20q-12 -8 -31 -15q-36 -15 -79 -15q-89 0 -133.5 49.5t-44.5 133.5q0 73 31 144.5t89.5 117t138.5 45.5q52 0 82 -28q15 -13 23 -27h5l43 45h85l-116 -660h-130zM294 50q15 7 26 15l54 305q-6 18 -17 32q-25 33 -62 33q-49 0 -80.5 -51t-45 -119t-13.5 -120
q0 -54 17 -82t57 -28q34 0 64 15z" />
    <glyph glyph-name="r" unicode="r" horiz-adv-x="420" 
d="M432.5 434q7.5 -16 7.5 -19l-58 -39q-4 9 -14 19q-20 20 -48 20q-59 0 -95 -31q-1 -5 -1 -15q0 -5 -0.5 -15t-2.5 -18l-59 -336h-130q41 242 46 272q18 108 18 114q0 28 -12.5 41t-43.5 13h-10l5 30h99q34 0 52 -8.5t26 -28.5q63 47 134 47q43 0 68 -20q11 -10 18.5 -26z
" />
    <glyph glyph-name="s" unicode="s" horiz-adv-x="469" 
d="M62.5 6q-49.5 16 -49.5 69q0 25 9 75h35v-3q0 -51 27 -81.5t83 -30.5q43 0 78 18t35 58q0 23 -19.5 39t-57.5 34l-48 22q-52 25 -78.5 53t-26.5 66q0 51 31.5 86t81 52t102.5 17q67 0 116.5 -16t49.5 -69q0 -25 -9 -75h-35v3q0 51 -27 81.5t-83 30.5q-38 0 -68 -20.5
t-30 -58.5q0 -21 14.5 -35.5t44.5 -27.5l56 -25q60 -26 87.5 -53.5t27.5 -67.5q0 -53 -34 -88.5t-87 -52t-109 -16.5q-67 0 -116.5 16z" />
    <glyph glyph-name="t" unicode="t" horiz-adv-x="355" 
d="M85.5 17.5q-31.5 27.5 -31.5 81.5q0 8 11.5 78.5t42.5 247.5h-60l8 45h60l16 90l61 60h80l-27 -150h110l-8 -45h-110q-57 -319 -57 -339q0 -28 10.5 -39.5t30.5 -11.5q30 0 58 13q9 4 25 14l9 -28q-12 -10 -35 -22q-46 -22 -102 -22q-60 0 -91.5 27.5z" />
    <glyph glyph-name="u" unicode="u" horiz-adv-x="567" 
d="M85.5 20.5q-38.5 30.5 -38.5 98.5q0 14 7.5 62t26.5 159q5 32 5 45q0 28 -13 41.5t-44 13.5h-10l5 30h120q40 0 57 -15t17 -52q0 -31 -7 -63q-19 -113 -27 -163.5t-8 -62.5q0 -43 16.5 -61t50.5 -18q21 0 38 8.5t35 23.5q15 13 28 33l65 370h130l-82 -470h-85l-28 45h-5
q-14 -14 -37 -28q-43 -27 -97 -27q-81 0 -119.5 30.5z" />
    <glyph glyph-name="v" unicode="v" horiz-adv-x="502" 
d="M88 355q-16 56 -31.5 78.5t-39.5 24.5l4 20l37 2q67 0 108.5 -26t61.5 -99l54 -192l190 307h54l-297 -480h-36z" />
    <glyph glyph-name="w" unicode="w" horiz-adv-x="776" 
d="M89 355q-15 56 -31.5 79t-43.5 25l4 19l48 2q66 0 103.5 -27t56.5 -98l51 -191l96 160l-9 31q-15 54 -31.5 78t-38.5 26l4 19l38 2q69 0 110 -27.5t60 -97.5l57 -201l177 316h53l-268 -480h-46l-81 281l-165 -281h-45z" />
    <glyph glyph-name="x" unicode="x" horiz-adv-x="497" 
d="M180 209l-67 161q-15 35 -35.5 55.5t-43.5 24.5l3 20h95q46 0 72 -20t42 -60l34 -81l159 161h67l-205 -208l68 -162q15 -35 35.5 -55.5t43.5 -24.5l-3 -20h-95q-46 0 -72 20t-42 60l-35 81l-159 -161h-67z" />
    <glyph glyph-name="y" unicode="y" horiz-adv-x="509" 
d="M10 -165q55 0 92 21t70 76l30 54l-110 394q-11 38 -30 57t-49 23l3 20h88q44 0 74.5 -21.5t41.5 -58.5l71 -252l178 322h53l-296 -535q-44 -78 -85 -106.5t-97 -28.5h-40z" />
    <glyph glyph-name="z" unicode="z" horiz-adv-x="495" 
d="M-3 31l332 394h-118q-63 0 -93 -22.5t-38 -72.5h-30l10 60q7 36 29 58t70 22h356l-359 -425h263l-7 -45h-420z" />
    <glyph glyph-name="braceleft" unicode="{" horiz-adv-x="312" 
d="M83 -166.5q-39 38.5 -39 98.5q0 23 4 46t12 57q6 25 10.5 52t4.5 49q0 35 -19.5 58.5t-62.5 29.5l6 32q100 14 120 114l24 140q13 74 67.5 123.5t154.5 57.5l-6 -35q-34 -6 -51.5 -31t-26.5 -73l-30 -172q-10 -57 -44.5 -90t-100.5 -50q98 -29 98 -108q0 -29 -4.5 -54.5
t-14.5 -71.5q-9 -41 -13.5 -66.5t-4.5 -52.5t10.5 -42.5t34.5 -20.5l-6 -35q-84 6 -123 44.5z" />
    <glyph glyph-name="bar" unicode="|" horiz-adv-x="264" 
d="M-15 -190l153 870h130l-153 -870h-130z" />
    <glyph glyph-name="braceright" unicode="}" horiz-adv-x="312" 
d="M-60 -176q34 6 51.5 31t26.5 73l30 172q10 57 44.5 90t100.5 50q-98 29 -98 108q0 27 4.5 53t13.5 67q19 76 19 124q0 28 -11 43.5t-35 20.5l6 35q84 -6 123 -44.5t39 -98.5q0 -23 -4.5 -50t-10.5 -52q-8 -34 -12 -57t-4 -47q0 -35 20 -57.5t63 -28.5l-6 -32
q-54 -8 -83.5 -38.5t-36.5 -75.5l-25 -140q-13 -74 -67 -123.5t-154 -57.5z" />
    <glyph glyph-name="asciitilde" unicode="~" horiz-adv-x="614" 
d="M355.5 178q-32.5 11 -77.5 33q-37 18 -62 27t-49 9q-41 0 -63 -15t-28 -45h-40q14 79 50 117.5t98 38.5q35 0 66.5 -11t77.5 -33q41 -19 64.5 -27.5t47.5 -8.5q41 0 63 15t27 45h40q-14 -79 -49.5 -117.5t-97.5 -38.5q-35 0 -67.5 11z" />
    <glyph glyph-name="uni00A0" unicode="&#xa0;" horiz-adv-x="250" 
 />
    <glyph glyph-name="exclamdown" unicode="&#xa1;" horiz-adv-x="241" 
d="M96 371q-13 13 -13 35q0 30 21 52t52 22q24 0 37.5 -12.5t13.5 -33.5q0 -31 -20 -53.5t-52 -22.5q-26 0 -39 13zM-29 -194l108 505h94l-69 -505h-133z" />
    <glyph glyph-name="cent" unicode="&#xa2;" horiz-adv-x="496" 
d="M190 -8q-85 8 -128.5 58.5t-43.5 129.5q0 74 32 138t90.5 107t135.5 53l7 42h60l-7 -41q59 -3 95.5 -17.5t36.5 -61.5q0 -28 -13 -95h-30q1 8 1 23q0 49 -25 75.5t-73 30.5l-70 -399q43 2 77 23.5t70 59.5l27 -23q-37 -43 -78 -70.5t-104 -32.5l-7 -42h-60zM266 424
q-61 -31 -88.5 -107.5t-27.5 -161.5q0 -86 49 -110z" />
    <glyph glyph-name="sterling" unicode="&#xa3;" horiz-adv-x="536" 
d="M-7 30q27 9 44 28.5t29.5 57t24.5 104.5l18 100h-60l8 45h60l17 95q20 115 89.5 162.5t152.5 47.5q66 0 111.5 -15t45.5 -67q0 -19 -6 -53h-55q-3 48 -24 69t-60 21q-94 0 -124 -165l-17 -95h130l-8 -45h-130l-18 -100q-20 -118 -101 -175h190q59 0 92.5 29.5t44.5 90.5
h30l-15 -85q-7 -36 -29 -58t-70 -22h-375z" />
    <glyph glyph-name="currency" unicode="&#xa4;" horiz-adv-x="607" 
d="M101 190h-50l8 45h50l9 50h-50l8 45h50q40 219 40 245q0 27 -13 41t-44 14h-10l5 30h275q106 0 171 -37.5t65 -111.5q0 -73 -45 -124.5t-115.5 -76.5t-146.5 -25h-60l-9 -50h250l-8 -45h-250l-33 -190h-130zM316 330q47 1 83.5 26.5t56 66.5t19.5 90q0 53 -31 80t-72 27
q-45 0 -66 -5l-50 -285h60z" />
    <glyph glyph-name="yen" unicode="&#xa5;" horiz-adv-x="716" 
d="M306 135h-84l8 45h84l7 40h-84l8 45h83l-129 265q-19 42 -51 74t-63 36l4 20h109q51 0 86 -31.5t57 -78.5l100 -205l250 315h65l-292 -369l-5 -26h86l-8 -45h-86l-7 -40h86l-8 -45h-86l-23 -135h-130z" />
    <glyph glyph-name="brokenbar" unicode="&#xa6;" horiz-adv-x="267" 
d="M77 327l62 353h130l-62 -353h-130zM-14 -190l62 353h130l-62 -353h-130z" />
    <glyph glyph-name="section" unicode="&#xa7;" horiz-adv-x="452" 
d="M31.5 -180q-46.5 20 -46.5 71q0 14 3.5 33.5t4.5 26.5h32v-6q0 -48 22.5 -74t66.5 -26q45 0 72 31t27 79q0 21 -10 38.5t-22 28.5t-43 38l-24 18q-42 31 -63.5 57.5t-21.5 67.5q0 54 41 98.5t99 68.5q-34 26 -53.5 55.5t-19.5 66.5q0 51 28 92t75 63.5t101 22.5
q58 0 104 -20.5t46 -71.5q0 -17 -7 -59h-32v3q0 49 -22.5 76t-66.5 27q-45 0 -71.5 -31t-26.5 -79q0 -34 19 -56.5t59 -50.5q52 -38 78.5 -68.5t26.5 -73.5q0 -54 -40 -97t-102 -69q75 -54 75 -123q0 -52 -28 -92.5t-75 -62.5t-101 -22q-58 0 -104.5 20zM275.5 165.5
q15.5 29.5 15.5 65.5q0 33 -23 60t-64 53q-27 -11 -43.5 -40.5t-16.5 -63.5q0 -33 23.5 -61t64.5 -54q28 11 43.5 40.5z" />
    <glyph glyph-name="dieresis" unicode="&#xa8;" horiz-adv-x="282" 
d="M92 702.5q-12 12.5 -12 33.5q0 27 20 46.5t47 19.5q23 0 35 -12t12 -32q0 -27 -19.5 -47.5t-47.5 -20.5q-23 0 -35 12.5zM262 702.5q-12 12.5 -12 33.5q0 27 20 46.5t47 19.5q23 0 35 -12t12 -32q0 -27 -19.5 -47.5t-47.5 -20.5q-23 0 -35 12.5z" />
    <glyph glyph-name="copyright" unicode="&#xa9;" horiz-adv-x="806" 
d="M184 8.5q-71 36.5 -109.5 102.5t-38.5 151q0 111 59 209t160 157.5t220 59.5q94 0 165 -36.5t109.5 -103t38.5 -151.5q0 -110 -59.5 -208t-160.5 -157.5t-219 -59.5q-94 0 -165 36.5zM536.5 69.5q83.5 52.5 132.5 139.5t49 186q0 74 -30.5 130t-87.5 87t-133 31
q-98 0 -181 -52.5t-131.5 -140t-48.5 -187.5q0 -73 30.5 -129t87 -86.5t132.5 -30.5q97 0 180.5 52.5zM239.5 151.5q-47.5 49.5 -47.5 128.5q0 67 34.5 133.5t94.5 109t132 42.5q62 0 111.5 -21t49.5 -75q0 -17 -6 -55q0 -2 -0.5 -2.5t-0.5 -2.5h-31q-1 64 -26.5 94
t-82.5 30q-60 0 -100.5 -40t-60.5 -100t-20 -121t27 -99.5t84 -38.5q86 0 161 96l22 -18q-42 -59 -92 -84.5t-117 -25.5q-84 0 -131.5 49.5z" />
    <glyph glyph-name="ordfeminine" unicode="&#xaa;" horiz-adv-x="323" 
d="M94 409.5q-21 13.5 -21 41.5q0 51 45.5 73.5t107.5 22.5h16q4 21 4 39q0 49 -35 49q-26 0 -42.5 -13t-26.5 -39h-29q7 42 25 58q19 19 88 19q44 0 68 -16t24 -60q0 -9 -11 -72q-3 -17 -7.5 -44t-11.5 -67h-46l-17 25q-35 -30 -75 -30q-35 0 -56 13.5zM226 455l12 67h-16
q-30 0 -53.5 -18.5t-23.5 -50.5q0 -17 8 -24.5t21 -7.5q27 0 52 34z" />
    <glyph glyph-name="guillemotleft" unicode="&#xab;" horiz-adv-x="428" 
d="M147 30l-124 195l193 195h64l-132 -194l63 -196h-64zM275 80l-77 145l128 145h64l-88 -145l37 -145h-64z" />
    <glyph glyph-name="logicalnot" unicode="&#xac;" horiz-adv-x="665" 
d="M486 115l18 105h-455l13 70h545l-31 -175h-90z" />
    <glyph glyph-name="uni00AD" unicode="&#xad;" horiz-adv-x="397" 
d="M48 217l17 95h279l-17 -95h-279z" />
    <glyph glyph-name="registered" unicode="&#xae;" horiz-adv-x="806" 
d="M184 11q-71 36 -109.5 101.5t-38.5 149.5q0 111 59 208.5t160 156t219 58.5q93 0 164.5 -36t110.5 -101.5t39 -150.5q0 -110 -59.5 -207.5t-160.5 -156t-219 -58.5q-94 0 -165 36zM537 71.5q83 51.5 132 138t49 185.5q0 74 -30.5 129t-87.5 85.5t-134 30.5
q-98 0 -180.5 -51.5t-131 -138t-48.5 -186.5q0 -73 30.5 -128.5t87 -85.5t133.5 -30q97 0 180 51.5zM465 138q-23 20 -46 74l-48 108h-20l-34 -195h-88l62 352q4 17 4 33q0 29 -23 29h-18l2 16h173q71 0 114.5 -22t43.5 -75q0 -51 -33.5 -84t-90.5 -48l49 -110
q17 -38 32.5 -56t37.5 -21l-2 -14q-2 -2 -17 -4.5t-37 -2.5q-38 0 -61 20zM465 380.5q28 31.5 28 80.5q0 65 -72 65l-24 -1q-3 -1 -10 -1l-31 -173q4 -1 11 -1q7 -1 23 -1q47 0 75 31.5z" />
    <glyph glyph-name="macron" unicode="&#xaf;" horiz-adv-x="494" 
d="M171 557v85h279v-85h-279z" />
    <glyph glyph-name="degree" unicode="&#xb0;" horiz-adv-x="418" 
d="M115.5 394.5q-37.5 34.5 -37.5 92.5q0 53 25 97t71 70t105 26q70 0 107.5 -34.5t37.5 -92.5q0 -53 -25 -97t-71 -70t-105 -26q-70 0 -107.5 34.5zM287.5 436.5q25.5 16.5 40.5 44.5t15 61q0 35 -20.5 56.5t-53.5 21.5q-28 0 -53.5 -16.5t-41 -44t-15.5 -60.5
q0 -36 20.5 -57.5t53.5 -21.5q29 0 54.5 16.5z" />
    <glyph glyph-name="plusminus" unicode="&#xb1;" horiz-adv-x="583" 
d="M12 55l13 70h197l30 170h-197l12 70h197l34 195h90l-34 -195h197l-12 -70h-197l-30 -170h197l-13 -70h-484z" />
    <glyph glyph-name="uni00B2" unicode="&#xb2;" horiz-adv-x="319" 
d="M74 400q20 18 36 31.5t27 23.5q46 39 68 61t34 47.5t12 60.5q0 21 -9.5 29.5t-27.5 8.5q-58 0 -87 -79h-16q5 27 9.5 43.5t14.5 26.5q16 16 42 26t55 10q39 0 65 -15.5t26 -52.5q0 -33 -14 -58t-35.5 -44.5t-62.5 -50.5q-9 -7 -33.5 -26t-45.5 -38h81q29 0 44.5 10.5
t19.5 33.5h15l-6 -35q-6 -36 -45 -36h-171z" />
    <glyph glyph-name="uni00B3" unicode="&#xb3;" horiz-adv-x="305" 
d="M106.5 380q-23.5 13 -39.5 38l16 12q27 -36 77 -36q24 0 45.5 23.5t21.5 60.5q0 46 -50 46q-21 0 -44 -6l-11 28l137 107h-78q-51 0 -58 -43h-13l6 33q6 37 45 37h153l-3 -18l-148 -115q17 4 40 4q39 0 67.5 -18.5t28.5 -54.5q0 -39 -22.5 -64t-52.5 -36t-55 -11
q-39 0 -62.5 13z" />
    <glyph glyph-name="acute" unicode="&#xb4;" horiz-adv-x="201" 
d="M93 700l67 140h119l-131 -140h-55z" />
    <glyph glyph-name="uni00B5" unicode="&#xb5;" horiz-adv-x="552" 
d="M97 470h130l-41 -235q-9 -52 -9 -91q0 -109 69 -109q57 0 96 65l65 370h130l-82 -470h-85l-28 45h-5q-13 -16 -31 -28q-36 -27 -83 -27q-30 0 -52 11t-40 34l-40 -225h-110z" />
    <glyph glyph-name="paragraph" unicode="&#xb6;" horiz-adv-x="636" 
d="M255 270q-58 0 -103 20.5t-70.5 58t-25.5 84.5q0 64 37.5 116t99.5 81.5t131 29.5h340l-8 -45h-55l-142 -805h-120l142 805h-45l-142 -805h-120z" />
    <glyph glyph-name="periodcentered" unicode="&#xb7;" horiz-adv-x="227" 
d="M72.5 282.5q-12.5 12.5 -12.5 34.5q0 30 20.5 52.5t52.5 22.5q26 0 38.5 -12.5t12.5 -34.5q0 -30 -20.5 -52.5t-52.5 -22.5q-26 0 -38.5 12.5z" />
    <glyph glyph-name="cedilla" unicode="&#xb8;" horiz-adv-x="200" 
d="M-39 -160h50q19 0 31.5 10t14.5 27q0 13 -8.5 20.5t-25.5 7.5h-45l17 95h65l-9 -50q37 0 57 -17t20 -46q0 -42 -32 -67.5t-73 -25.5h-70z" />
    <glyph glyph-name="uni00B9" unicode="&#xb9;" horiz-adv-x="213" 
d="M96 377l42 237l-38 -20l-12 22l79 64h54l-53 -303h-72z" />
    <glyph glyph-name="ordmasculine" unicode="&#xba;" horiz-adv-x="338" 
d="M106.5 398.5q-24.5 31.5 -24.5 83.5q0 47 17.5 95t53 80t87.5 32t77 -31t25 -82q0 -48 -17.5 -96t-53.5 -80.5t-88 -32.5t-76.5 31.5zM238 430q19 38 27 87.5t8 83.5t-9.5 48.5t-27.5 14.5q-30 0 -49.5 -38.5t-27.5 -87.5t-8 -83q0 -63 37 -63q31 0 50 38z" />
    <glyph glyph-name="guillemotright" unicode="&#xbb;" horiz-adv-x="427" 
d="M130 30l131 196l-62 194h64l123 -195l-192 -195h-64zM20 80l87 145l-36 145h64l76 -145l-127 -145h-64z" />
    <glyph glyph-name="onequarter" unicode="&#xbc;" horiz-adv-x="619" 
d="M131 377l42 237l-38 -20l-12 22l79 64h54l-53 -303h-72zM-22 0l571 660h95l-571 -660h-95zM419 0l12 73h-145l5 24l186 207h67l-36 -204h34l-5 -27h-34l-12 -73h-72zM330 100h106l26 146z" />
    <glyph glyph-name="onehalf" unicode="&#xbd;" horiz-adv-x="633" 
d="M131 377l42 237l-38 -20l-12 22l79 64h54l-53 -303h-72zM-22 0l571 660h95l-571 -660h-95zM328 23l29 24q68 55 107.5 101.5t39.5 99.5q0 20 -9 28.5t-27 8.5q-58 0 -87 -79h-16q9 54 23 70q17 16 43 26t55 10q38 0 64 -16t26 -52q0 -35 -21 -67t-50 -57t-76 -60
q-27 -18 -44 -33h81q28 0 44 10t21 34h15l-6 -35q-6 -36 -45 -36h-171z" />
    <glyph glyph-name="threequarters" unicode="&#xbe;" horiz-adv-x="627" 
d="M101.5 380q-23.5 13 -39.5 38l16 12q27 -36 77 -36q29 0 48 25t19 59q0 46 -50 46q-21 0 -44 -6l-11 28l137 107h-78q-51 0 -58 -43h-13l6 33q6 37 45 37h153l-3 -18l-148 -115q17 4 40 4q39 0 67.5 -18.5t28.5 -54.5q0 -49 -39 -80t-91 -31q-39 0 -62.5 13zM-3 0
l571 660h95l-571 -660h-95zM428 0l12 73h-145l5 24l186 207h67l-36 -204h34l-5 -27h-34l-12 -73h-72zM339 100h106l26 146z" />
    <glyph glyph-name="questiondown" unicode="&#xbf;" horiz-adv-x="492" 
d="M236.5 372.5q-13.5 12.5 -13.5 33.5q0 31 20 53.5t52 22.5q26 0 39 -13t13 -35q0 -30 -21 -52t-52 -22q-24 0 -37.5 12.5zM20.5 -171.5q-50.5 40.5 -50.5 113.5q0 49 19 87.5t46 66t74 65.5q55 45 83.5 76.5t39.5 74.5h68q-11 -43 -33 -79t-59 -83q-49 -62 -74 -110
t-25 -113q0 -51 22 -72.5t61 -21.5q61 0 112.5 45.5t86.5 142.5h30q-11 -61 -21.5 -95t-32.5 -56q-33 -34 -93 -58t-120 -24q-83 0 -133.5 40.5z" />
    <glyph glyph-name="Agrave" unicode="&#xc0;" horiz-adv-x="647" 
d="M472.5 23q-47.5 27 -64.5 103l-13 56h-266l-114 -182h-52l411 660h45l130 -534q24 -93 86 -100l-4 -25q-18 -5 -49 -5q-62 0 -109.5 27zM158 227h226l-64 261zM373 715l-81 140h119l17 -140h-55z" />
    <glyph glyph-name="Aacute" unicode="&#xc1;" horiz-adv-x="647" 
d="M472.5 23q-47.5 27 -64.5 103l-13 56h-266l-114 -182h-52l411 660h45l130 -534q24 -93 86 -100l-4 -25q-18 -5 -49 -5q-62 0 -109.5 27zM158 227h226l-64 261zM379 700l67 140h119l-131 -140h-55z" />
    <glyph glyph-name="Acircumflex" unicode="&#xc2;" horiz-adv-x="647" 
d="M472.5 23q-47.5 27 -64.5 103l-13 56h-266l-114 -182h-52l411 660h45l130 -534q24 -93 86 -100l-4 -25q-18 -5 -49 -5q-62 0 -109.5 27zM158 227h226l-64 261zM253 685l102 125h130l58 -125h-60l-71 80l-99 -80h-60z" />
    <glyph glyph-name="Atilde" unicode="&#xc3;" horiz-adv-x="647" 
d="M472.5 23q-47.5 27 -64.5 103l-13 56h-266l-114 -182h-52l411 660h45l130 -534q24 -93 86 -100l-4 -25q-18 -5 -49 -5q-62 0 -109.5 27zM158 227h226l-64 261zM320 778q21 22 54 22q17 0 28 -6t25 -18q10 -8 17 -12t15 -4q16 0 28 12t14 28h40q-11 -56 -31.5 -78
t-53.5 -22q-17 0 -29 6.5t-25 17.5q-2 2 -8.5 6.5t-12 7t-11.5 2.5q-16 0 -27.5 -12t-14.5 -28h-40q11 56 32 78z" />
    <glyph glyph-name="Adieresis" unicode="&#xc4;" horiz-adv-x="647" 
d="M472.5 23q-47.5 27 -64.5 103l-13 56h-266l-114 -182h-52l411 660h45l130 -534q24 -93 86 -100l-4 -25q-18 -5 -49 -5q-62 0 -109.5 27zM158 227h226l-64 261zM285 737.5q-12 12.5 -12 31.5q0 27 19.5 47.5t47.5 20.5q23 0 35 -12.5t12 -33.5q0 -26 -20 -46t-47 -20
q-23 0 -35 12.5zM465 737.5q-12 12.5 -12 31.5q0 27 19.5 47.5t47.5 20.5q23 0 35 -12.5t12 -33.5q0 -26 -20 -46t-47 -20q-23 0 -35 12.5z" />
    <glyph glyph-name="Aring" unicode="&#xc5;" horiz-adv-x="647" 
d="M472.5 23q-47.5 27 -64.5 103l-13 56h-266l-114 -182h-52l385 619q-17 10 -29 27.5t-12 41.5q0 29 15.5 54.5t42 41.5t56.5 16q36 0 58 -21t22 -55q0 -33 -19.5 -61t-52.5 -44l120 -493q24 -93 86 -100l-4 -25q-18 -5 -49 -5q-62 0 -109.5 27zM419 660q15 8 23 23t8 33
t-10 28.5t-27 10.5q-23 0 -39 -18.5t-16 -43.5q0 -20 16 -33h45zM158 227h226l-64 261z" />
    <glyph glyph-name="AE" unicode="&#xc6;" horiz-adv-x="873" 
d="M420 660h376q73 0 73 -58q0 -9 -17 -107h-30q3 18 3 33q0 87 -107 87h-161l-44 -250h260l-8 -45h-260l-49 -275h171q57 0 99.5 25.5t79.5 88.5l25 -10l-43 -79q-20 -37 -40.5 -53.5t-58.5 -16.5h-370l33 190h-218l-140 -190h-60zM167 235h193l61 344z" />
    <glyph glyph-name="Ccedilla" unicode="&#xc7;" horiz-adv-x="680" 
d="M240 -160h50q19 0 31.5 10t14.5 27q0 13 -8.5 20.5t-25.5 7.5h-45l14 78q-112 12 -172.5 83t-60.5 180q0 104 52.5 204.5t144 165t203.5 64.5q88 0 161 -29.5t73 -105.5q0 -38 -12 -98h-30q-2 92 -45 140t-125 48q-94 0 -158 -61t-94.5 -154t-30.5 -188
q0 -94 42.5 -150.5t133.5 -56.5q70 0 135.5 37t112.5 106l30 -27q-60 -81 -130 -119t-166 -41l-5 -31q37 0 57 -17t20 -46q0 -41 -30.5 -67t-74.5 -26h-70z" />
    <glyph glyph-name="Egrave" unicode="&#xc8;" horiz-adv-x="602" 
d="M125 441q21 123 21 134q0 28 -13 41.5t-44 13.5h-10l5 30h441q73 0 73 -58q0 -9 -17 -107h-30q3 18 3 33q0 87 -107 87h-161l-44 -250h260l-8 -45h-260l-49 -275h171q57 0 99.5 25.5t79.5 88.5l25 -10l-43 -79q-20 -37 -40.5 -53.5t-58.5 -16.5h-370q56 318 77 441z
M350 715l-81 140h119l17 -140h-55z" />
    <glyph glyph-name="Eacute" unicode="&#xc9;" horiz-adv-x="602" 
d="M125 441q21 123 21 134q0 28 -13 41.5t-44 13.5h-10l5 30h441q73 0 73 -58q0 -9 -17 -107h-30q3 18 3 33q0 87 -107 87h-161l-44 -250h260l-8 -45h-260l-49 -275h171q57 0 99.5 25.5t79.5 88.5l25 -10l-43 -79q-20 -37 -40.5 -53.5t-58.5 -16.5h-370q56 318 77 441z
M357 700l67 140h119l-131 -140h-55z" />
    <glyph glyph-name="Ecircumflex" unicode="&#xca;" horiz-adv-x="602" 
d="M125 441q21 123 21 134q0 28 -13 41.5t-44 13.5h-10l5 30h441q73 0 73 -58q0 -9 -17 -107h-30q3 18 3 33q0 87 -107 87h-161l-44 -250h260l-8 -45h-260l-49 -275h171q57 0 99.5 25.5t79.5 88.5l25 -10l-43 -79q-20 -37 -40.5 -53.5t-58.5 -16.5h-370q56 318 77 441z
M241 722l102 125h130l58 -125h-60l-71 80l-99 -80h-60z" />
    <glyph glyph-name="Edieresis" unicode="&#xcb;" horiz-adv-x="602" 
d="M125 441q21 123 21 134q0 28 -13 41.5t-44 13.5h-10l5 30h441q73 0 73 -58q0 -9 -17 -107h-30q3 18 3 33q0 87 -107 87h-161l-44 -250h260l-8 -45h-260l-49 -275h171q57 0 99.5 25.5t79.5 88.5l25 -10l-43 -79q-20 -37 -40.5 -53.5t-58.5 -16.5h-370q56 318 77 441z
M262 737.5q-12 12.5 -12 31.5q0 27 19.5 47.5t47.5 20.5q23 0 35 -12.5t12 -33.5q0 -26 -20 -46t-47 -20q-23 0 -35 12.5zM442 737.5q-12 12.5 -12 31.5q0 27 19.5 47.5t47.5 20.5q23 0 35 -12.5t12 -33.5q0 -26 -20 -46t-47 -20q-23 0 -35 12.5z" />
    <glyph glyph-name="Igrave" unicode="&#xcc;" horiz-adv-x="307" 
d="M65 15.5q-17 15.5 -17 53.5q0 25 6 61l94 530h130l-94 -530q-4 -21 -4 -43q0 -28 13 -42.5t44 -14.5h10l-5 -30h-120q-40 0 -57 15.5zM183 715l-81 140h119l17 -140h-55z" />
    <glyph glyph-name="Iacute" unicode="&#xcd;" horiz-adv-x="307" 
d="M65 15.5q-17 15.5 -17 53.5q0 25 6 61l94 530h130l-94 -530q-4 -21 -4 -43q0 -28 13 -42.5t44 -14.5h10l-5 -30h-120q-40 0 -57 15.5zM188 700l67 140h119l-131 -140h-55z" />
    <glyph glyph-name="Icircumflex" unicode="&#xce;" horiz-adv-x="307" 
d="M65 15.5q-17 15.5 -17 53.5q0 25 6 61l94 530h130l-94 -530q-4 -21 -4 -43q0 -28 13 -42.5t44 -14.5h10l-5 -30h-120q-40 0 -57 15.5zM73 685l102 125h130l58 -125h-60l-71 80l-99 -80h-60z" />
    <glyph glyph-name="Idieresis" unicode="&#xcf;" horiz-adv-x="307" 
d="M65 15.5q-17 15.5 -17 53.5q0 25 6 61l94 530h130l-94 -530q-4 -21 -4 -43q0 -28 13 -42.5t44 -14.5h10l-5 -30h-120q-40 0 -57 15.5zM95 737.5q-12 12.5 -12 31.5q0 27 19.5 47.5t47.5 20.5q23 0 35 -12.5t12 -33.5q0 -26 -20 -46t-47 -20q-23 0 -35 12.5zM275 737.5
q-12 12.5 -12 31.5q0 27 19.5 47.5t47.5 20.5q23 0 35 -12.5t12 -33.5q0 -26 -20 -46t-47 -20q-23 0 -35 12.5z" />
    <glyph glyph-name="Eth" unicode="&#xd0;" horiz-adv-x="737" 
d="M101 305h-70l9 50h70q36 197 36 220q0 28 -13 41.5t-44 13.5h-10l5 30h272q178 0 269.5 -67.5t91.5 -190.5q0 -118 -59.5 -209.5t-162.5 -142t-229 -50.5h-218zM270 40q88 0 156 53t105 137.5t37 172.5q0 100 -52.5 158.5t-145.5 58.5h-8q-33 0 -53 -4l-23 -3l-46 -258
h75l-9 -50h-75l-45 -258l22 -4q13 -3 52 -3h10z" />
    <glyph glyph-name="Ntilde" unicode="&#xd1;" horiz-adv-x="695" 
d="M188 495l-87 -495h-50l53 302q45 257 45 264q0 64 -77 64h-5l5 30h70q56 0 89 -14.5t51 -45.5l274 -400l81 460h50l-117 -663h-46zM343 772q21 22 54 22q17 0 28 -6t25 -18q10 -8 17 -12t15 -4q16 0 28 12t14 28h40q-11 -56 -31.5 -78t-53.5 -22q-17 0 -29 6.5t-25 17.5
q-2 2 -8.5 6.5t-12 7t-11.5 2.5q-16 0 -27.5 -12t-14.5 -28h-40q11 56 32 78z" />
    <glyph glyph-name="Ograve" unicode="&#xd2;" horiz-adv-x="735" 
d="M168 15q-62 35 -95 97.5t-33 143.5q0 105 51 203t142.5 159.5t204.5 61.5q85 0 147 -35t95 -97.5t33 -143.5q0 -105 -51 -203t-142.5 -159.5t-204.5 -61.5q-85 0 -147 35zM467.5 92q57.5 67 84 162.5t26.5 183.5q0 95 -38 146t-110 51q-86 0 -143.5 -67.5t-84 -164
t-26.5 -182.5q0 -94 37.5 -145t109.5 -51q87 0 144.5 67zM417 715l-81 140h119l17 -140h-55z" />
    <glyph glyph-name="Oacute" unicode="&#xd3;" horiz-adv-x="735" 
d="M168 15q-62 35 -95 97.5t-33 143.5q0 105 51 203t142.5 159.5t204.5 61.5q85 0 147 -35t95 -97.5t33 -143.5q0 -105 -51 -203t-142.5 -159.5t-204.5 -61.5q-85 0 -147 35zM467.5 92q57.5 67 84 162.5t26.5 183.5q0 95 -38 146t-110 51q-86 0 -143.5 -67.5t-84 -164
t-26.5 -182.5q0 -94 37.5 -145t109.5 -51q87 0 144.5 67zM417 724l67 140h119l-131 -140h-55z" />
    <glyph glyph-name="Ocircumflex" unicode="&#xd4;" horiz-adv-x="735" 
d="M168 15q-62 35 -95 97.5t-33 143.5q0 105 51 203t142.5 159.5t204.5 61.5q85 0 147 -35t95 -97.5t33 -143.5q0 -105 -51 -203t-142.5 -159.5t-204.5 -61.5q-85 0 -147 35zM467.5 92q57.5 67 84 162.5t26.5 183.5q0 95 -38 146t-110 51q-86 0 -143.5 -67.5t-84 -164
t-26.5 -182.5q0 -94 37.5 -145t109.5 -51q87 0 144.5 67zM307 730l102 125h130l58 -125h-60l-71 80l-99 -80h-60z" />
    <glyph glyph-name="Otilde" unicode="&#xd5;" horiz-adv-x="735" 
d="M168 15q-62 35 -95 97.5t-33 143.5q0 105 51 203t142.5 159.5t204.5 61.5q85 0 147 -35t95 -97.5t33 -143.5q0 -105 -51 -203t-142.5 -159.5t-204.5 -61.5q-85 0 -147 35zM467.5 92q57.5 67 84 162.5t26.5 183.5q0 95 -38 146t-110 51q-86 0 -143.5 -67.5t-84 -164
t-26.5 -182.5q0 -94 37.5 -145t109.5 -51q87 0 144.5 67zM363 816q21 22 54 22q17 0 28 -6t25 -18q10 -8 17 -12t15 -4q16 0 28 12t14 28h40q-11 -56 -31.5 -78t-53.5 -22q-17 0 -29 6.5t-25 17.5q-2 2 -8.5 6.5t-12 7t-11.5 2.5q-16 0 -27.5 -12t-14.5 -28h-40q11 56 32 78
z" />
    <glyph glyph-name="Odieresis" unicode="&#xd6;" horiz-adv-x="735" 
d="M168 15q-62 35 -95 97.5t-33 143.5q0 105 51 203t142.5 159.5t204.5 61.5q85 0 147 -35t95 -97.5t33 -143.5q0 -105 -51 -203t-142.5 -159.5t-204.5 -61.5q-85 0 -147 35zM467.5 92q57.5 67 84 162.5t26.5 183.5q0 95 -38 146t-110 51q-86 0 -143.5 -67.5t-84 -164
t-26.5 -182.5q0 -94 37.5 -145t109.5 -51q87 0 144.5 67zM329 737.5q-12 12.5 -12 31.5q0 27 19.5 47.5t47.5 20.5q23 0 35 -12.5t12 -33.5q0 -26 -20 -46t-47 -20q-23 0 -35 12.5zM509 737.5q-12 12.5 -12 31.5q0 27 19.5 47.5t47.5 20.5q23 0 35 -12.5t12 -33.5
q0 -26 -20 -46t-47 -20q-23 0 -35 12.5z" />
    <glyph glyph-name="multiply" unicode="&#xd7;" horiz-adv-x="490" 
d="M80 132l-52 63l163 139l-113 138l75 64l114 -138l163 139l53 -63l-165 -140l114 -138l-75 -63l-113 138z" />
    <glyph glyph-name="Oslash" unicode="&#xd8;" horiz-adv-x="734" 
d="M113 56q-36 36 -54.5 86.5t-18.5 111.5q0 105 51 203.5t142.5 160.5t204.5 62q79 0 138 -31l23 31h92l-56 -73q38 -37 57.5 -89t19.5 -115q0 -105 -51 -202.5t-142 -159t-204 -61.5q-81 0 -142 33l-26 -33h-92zM532 593q-39 42 -102 42q-87 0 -144 -68t-83.5 -165
t-26.5 -184q0 -33 7 -73zM467.5 92q57.5 67 84 163t26.5 183q0 48 -9 84l-352 -452q38 -45 106 -45q87 0 144.5 67z" />
    <glyph glyph-name="Ugrave" unicode="&#xd9;" horiz-adv-x="697" 
d="M141 40.5q-55 50.5 -55 154.5q0 22 9 79.5t43 255.5q5 32 5 45q0 28 -13 41.5t-44 13.5l5 30h110q40 0 57 -15t17 -52q0 -31 -7 -63q-36 -212 -45.5 -273.5t-9.5 -82.5q0 -71 28.5 -107.5t90.5 -36.5q109 0 166.5 61t81.5 197l66 372h50l-66 -372q-25 -148 -99 -223
t-218 -75q-117 0 -172 50.5zM398 715l-81 140h119l17 -140h-55z" />
    <glyph glyph-name="Uacute" unicode="&#xda;" horiz-adv-x="697" 
d="M141 40.5q-55 50.5 -55 154.5q0 22 9 79.5t43 255.5q5 32 5 45q0 28 -13 41.5t-44 13.5l5 30h110q40 0 57 -15t17 -52q0 -31 -7 -63q-36 -212 -45.5 -273.5t-9.5 -82.5q0 -71 28.5 -107.5t90.5 -36.5q109 0 166.5 61t81.5 197l66 372h50l-66 -372q-25 -148 -99 -223
t-218 -75q-117 0 -172 50.5zM409 681l67 140h119l-131 -140h-55z" />
    <glyph glyph-name="Ucircumflex" unicode="&#xdb;" horiz-adv-x="697" 
d="M141 40.5q-55 50.5 -55 154.5q0 22 9 79.5t43 255.5q5 32 5 45q0 28 -13 41.5t-44 13.5l5 30h110q40 0 57 -15t17 -52q0 -31 -7 -63q-36 -212 -45.5 -273.5t-9.5 -82.5q0 -71 28.5 -107.5t90.5 -36.5q109 0 166.5 61t81.5 197l66 372h50l-66 -372q-25 -148 -99 -223
t-218 -75q-117 0 -172 50.5zM315 681l102 125h130l58 -125h-60l-71 80l-99 -80h-60z" />
    <glyph glyph-name="Udieresis" unicode="&#xdc;" horiz-adv-x="697" 
d="M141 40.5q-55 50.5 -55 154.5q0 22 9 79.5t43 255.5q5 32 5 45q0 28 -13 41.5t-44 13.5l5 30h110q40 0 57 -15t17 -52q0 -31 -7 -63q-36 -212 -45.5 -273.5t-9.5 -82.5q0 -71 28.5 -107.5t90.5 -36.5q109 0 166.5 61t81.5 197l66 372h50l-66 -372q-25 -148 -99 -223
t-218 -75q-117 0 -172 50.5zM310 737.5q-12 12.5 -12 31.5q0 27 19.5 47.5t47.5 20.5q23 0 35 -12.5t12 -33.5q0 -26 -20 -46t-47 -20q-23 0 -35 12.5zM490 737.5q-12 12.5 -12 31.5q0 27 19.5 47.5t47.5 20.5q23 0 35 -12.5t12 -33.5q0 -26 -20 -46t-47 -20q-23 0 -35 12.5
z" />
    <glyph glyph-name="Yacute" unicode="&#xdd;" horiz-adv-x="639" 
d="M273 264l-130 266q-19 42 -51 74t-63 36l4 20h109q51 0 86 -31.5t57 -78.5l100 -205l250 315h65l-292 -369l-51 -291h-130zM383 671l67 140h119l-131 -140h-55z" />
    <glyph glyph-name="Thorn" unicode="&#xde;" horiz-adv-x="557" 
d="M136 487q18 106 18 118q0 28 -13 41.5t-44 13.5h-10l5 30h120q40 0 57 -15t17 -52q0 -28 -9 -73q273 -6 273 -187q0 -140 -98.5 -207t-256.5 -76l-20 -110h-130q73 411 91 517zM354 198q56 65 56 165q0 131 -141 141l-66 -379q95 8 151 73z" />
    <glyph glyph-name="germandbls" unicode="&#xdf;" horiz-adv-x="574" 
d="M238 10q-40 20 -40 67q0 23 5 43h30v-4q0 -33 22 -57t63 -24q33 0 57.5 22.5t24.5 58.5q0 29 -18 49.5t-54 45.5q-41 31 -61.5 55.5t-20.5 61.5t18.5 63.5t55.5 60.5q35 33 52.5 58t17.5 59q0 27 -15.5 41.5t-42.5 14.5q-80 0 -102 -125l-88 -500h-130l88 500
q17 98 79 134t166 36q88 0 130.5 -22.5t42.5 -63.5q0 -45 -24 -74.5t-69 -63.5q-35 -26 -52 -45.5t-17 -44.5q0 -29 20 -49t61 -47q46 -31 69.5 -56t23.5 -64q0 -47 -29.5 -81t-76 -51.5t-94.5 -17.5q-52 0 -92 20z" />
    <glyph glyph-name="agrave" unicode="&#xe0;" horiz-adv-x="550" 
d="M68 40q-44 50 -44 130q0 72 31.5 144t91 119t137.5 47q52 0 82 -28q15 -13 23 -27h5l43 45h85l-65 -370l-17 -100h-85l-28 45h-5q-12 -15 -32 -28q-38 -27 -92 -27q-86 0 -130 50zM264 43.5q17 8.5 35 23.5q15 13 28 33l48 270q-6 18 -17 32q-25 33 -62 33
q-48 0 -79.5 -51.5t-46 -120.5t-14.5 -119q0 -109 70 -109q21 0 38 8.5zM300 525l-81 140h119l17 -140h-55z" />
    <glyph glyph-name="aacute" unicode="&#xe1;" horiz-adv-x="550" 
d="M68 40q-44 50 -44 130q0 72 31.5 144t91 119t137.5 47q52 0 82 -28q15 -13 23 -27h5l43 45h85l-65 -370l-17 -100h-85l-28 45h-5q-12 -15 -32 -28q-38 -27 -92 -27q-86 0 -130 50zM264 43.5q17 8.5 35 23.5q15 13 28 33l48 270q-6 18 -17 32q-25 33 -62 33
q-48 0 -79.5 -51.5t-46 -120.5t-14.5 -119q0 -109 70 -109q21 0 38 8.5zM290 526l67 140h119l-131 -140h-55z" />
    <glyph glyph-name="acircumflex" unicode="&#xe2;" horiz-adv-x="550" 
d="M68 40q-44 50 -44 130q0 72 31.5 144t91 119t137.5 47q52 0 82 -28q15 -13 23 -27h5l43 45h85l-65 -370l-17 -100h-85l-28 45h-5q-12 -15 -32 -28q-38 -27 -92 -27q-86 0 -130 50zM264 43.5q17 8.5 35 23.5q15 13 28 33l48 270q-6 18 -17 32q-25 33 -62 33
q-48 0 -79.5 -51.5t-46 -120.5t-14.5 -119q0 -109 70 -109q21 0 38 8.5zM174 531l102 125h130l58 -125h-60l-71 80l-99 -80h-60z" />
    <glyph glyph-name="atilde" unicode="&#xe3;" horiz-adv-x="550" 
d="M68 40q-44 50 -44 130q0 72 31.5 144t91 119t137.5 47q52 0 82 -28q15 -13 23 -27h5l43 45h85l-65 -370l-17 -100h-85l-28 45h-5q-12 -15 -32 -28q-38 -27 -92 -27q-86 0 -130 50zM264 43.5q17 8.5 35 23.5q15 13 28 33l48 270q-6 18 -17 32q-25 33 -62 33
q-48 0 -79.5 -51.5t-46 -120.5t-14.5 -119q0 -109 70 -109q21 0 38 8.5zM250 614q21 22 54 22q17 0 28 -6t25 -18q10 -8 17 -12t15 -4q16 0 28 12t14 28h40q-11 -56 -31.5 -78t-53.5 -22q-17 0 -29 6.5t-25 17.5q-2 2 -8.5 6.5t-12 7t-11.5 2.5q-16 0 -27.5 -12t-14.5 -28
h-40q11 56 32 78z" />
    <glyph glyph-name="adieresis" unicode="&#xe4;" horiz-adv-x="550" 
d="M68 40q-44 50 -44 130q0 72 31.5 144t91 119t137.5 47q52 0 82 -28q15 -13 23 -27h5l43 45h85l-65 -370l-17 -100h-85l-28 45h-5q-12 -15 -32 -28q-38 -27 -92 -27q-86 0 -130 50zM264 43.5q17 8.5 35 23.5q15 13 28 33l48 270q-6 18 -17 32q-25 33 -62 33
q-48 0 -79.5 -51.5t-46 -120.5t-14.5 -119q0 -109 70 -109q21 0 38 8.5zM212 547.5q-12 12.5 -12 31.5q0 27 19.5 47.5t47.5 20.5q23 0 35 -12.5t12 -33.5q0 -26 -20 -46t-47 -20q-23 0 -35 12.5zM392 547.5q-12 12.5 -12 31.5q0 27 19.5 47.5t47.5 20.5q23 0 35 -12.5
t12 -33.5q0 -26 -20 -46t-47 -20q-23 0 -35 12.5z" />
    <glyph glyph-name="aring" unicode="&#xe5;" horiz-adv-x="550" 
d="M68 40q-44 50 -44 130q0 72 31.5 144t91 119t137.5 47q52 0 82 -28q15 -13 23 -27h5l43 45h85l-65 -370l-17 -100h-85l-28 45h-5q-12 -15 -32 -28q-38 -27 -92 -27q-86 0 -130 50zM264 43.5q17 8.5 35 23.5q15 13 28 33l48 270q-6 18 -17 32q-25 33 -62 33
q-48 0 -79.5 -51.5t-46 -120.5t-14.5 -119q0 -109 70 -109q21 0 38 8.5zM273 541q-22 21 -22 55q0 29 15 55.5t41.5 42.5t57.5 16q36 0 58 -21t22 -55q0 -29 -15 -55.5t-41.5 -42.5t-57.5 -16q-36 0 -58 21zM378 583q16 18 16 43q0 18 -10 28.5t-27 10.5q-23 0 -39 -18
t-16 -43q0 -18 10 -28.5t27 -10.5q23 0 39 18z" />
    <glyph glyph-name="ae" unicode="&#xe6;" horiz-adv-x="792" 
d="M40 18.5q-40 28.5 -40 78.5q0 96 89 130.5t213 34.5h15q7 35 7 72q0 52 -19 76.5t-58 24.5t-67.5 -19t-48.5 -71h-55q7 37 15.5 59.5t27.5 40.5t58 26.5t78 8.5q62 0 103 -24t56 -67q36 45 81.5 68t94.5 23q87 0 134 -33t47 -91q0 -146 -218 -146h-105l-1 -3
q-6 -34 -6 -62q0 -110 86 -110q48 0 84 21.5t73 61.5l27 -23q-37 -45 -85.5 -75t-121.5 -30q-110 0 -154 90q-27 -38 -76 -64t-115 -26q-79 0 -119 28.5zM560 255q38 0 59.5 29t21.5 73q0 37 -17 57.5t-42 20.5q-42 0 -76 -44t-51 -136h105zM263 72q16 14 26 33l20 112h-15
q-71 0 -115 -25.5t-44 -91.5q0 -27 13.5 -43.5t39.5 -16.5q41 0 75 32z" />
    <glyph glyph-name="ccedilla" unicode="&#xe7;" horiz-adv-x="498" 
d="M162 -142h40q19 0 31.5 10t14.5 27q0 13 -8.5 20.5t-25.5 7.5h-39l12 70q-81 11 -121.5 60.5t-40.5 126.5t36.5 146t102.5 111.5t149 42.5q68 0 115 -14.5t47 -65.5q0 -28 -13 -95h-30q1 8 1 24q0 53 -29 79.5t-84 26.5q-56 0 -92.5 -46t-53.5 -110.5t-17 -121.5
q0 -122 98 -122q48 0 84 21.5t73 61.5l27 -23q-35 -43 -79.5 -72t-113.5 -32l-4 -23q34 0 54 -16.5t20 -45.5q0 -39 -29.5 -66.5t-72.5 -27.5h-60z" />
    <glyph glyph-name="egrave" unicode="&#xe8;" horiz-adv-x="508" 
d="M76 43q-51 53 -51 139q0 77 34.5 145.5t98 110.5t145.5 42q89 0 138 -32.5t49 -89.5q0 -80 -67 -119t-159 -39h-105q-6 -31 -6 -56q0 -54 23 -81.5t64 -27.5q48 0 84 21.5t73 61.5l27 -23q-37 -45 -85.5 -75t-121.5 -30q-90 0 -141 53zM272 245q37 0 60 37t23 80
q0 36 -17.5 54.5t-42.5 18.5q-96 0 -128 -190h105zM299 525l-81 140h119l17 -140h-55z" />
    <glyph glyph-name="eacute" unicode="&#xe9;" horiz-adv-x="508" 
d="M76 43q-51 53 -51 139q0 77 34.5 145.5t98 110.5t145.5 42q89 0 138 -32.5t49 -89.5q0 -80 -67 -119t-159 -39h-105q-6 -31 -6 -56q0 -54 23 -81.5t64 -27.5q48 0 84 21.5t73 61.5l27 -23q-37 -45 -85.5 -75t-121.5 -30q-90 0 -141 53zM272 245q37 0 60 37t23 80
q0 36 -17.5 54.5t-42.5 18.5q-96 0 -128 -190h105zM274 526l67 140h119l-131 -140h-55z" />
    <glyph glyph-name="ecircumflex" unicode="&#xea;" horiz-adv-x="508" 
d="M76 43q-51 53 -51 139q0 77 34.5 145.5t98 110.5t145.5 42q89 0 138 -32.5t49 -89.5q0 -80 -67 -119t-159 -39h-105q-6 -31 -6 -56q0 -54 23 -81.5t64 -27.5q48 0 84 21.5t73 61.5l27 -23q-37 -45 -85.5 -75t-121.5 -30q-90 0 -141 53zM272 245q37 0 60 37t23 80
q0 36 -17.5 54.5t-42.5 18.5q-96 0 -128 -190h105zM172 526l102 125h130l58 -125h-60l-71 80l-99 -80h-60z" />
    <glyph glyph-name="edieresis" unicode="&#xeb;" horiz-adv-x="508" 
d="M76 43q-51 53 -51 139q0 77 34.5 145.5t98 110.5t145.5 42q89 0 138 -32.5t49 -89.5q0 -80 -67 -119t-159 -39h-105q-6 -31 -6 -56q0 -54 23 -81.5t64 -27.5q48 0 84 21.5t73 61.5l27 -23q-37 -45 -85.5 -75t-121.5 -30q-90 0 -141 53zM272 245q37 0 60 37t23 80
q0 36 -17.5 54.5t-42.5 18.5q-96 0 -128 -190h105zM211 547.5q-12 12.5 -12 31.5q0 27 19.5 47.5t47.5 20.5q23 0 35 -12.5t12 -33.5q0 -26 -20 -46t-47 -20q-23 0 -35 12.5zM391 547.5q-12 12.5 -12 31.5q0 27 19.5 47.5t47.5 20.5q23 0 35 -12.5t12 -33.5q0 -26 -20 -46
t-47 -20q-23 0 -35 12.5z" />
    <glyph glyph-name="igrave" unicode="&#xec;" horiz-adv-x="271" 
d="M81 283q16 91 16 102q0 28 -13 41.5t-44 13.5h-10l5 30h120q40 0 57 -15t17 -52q0 -15 -11 -83.5t-55 -319.5h-130zM121 525l-81 140h119l17 -140h-55z" />
    <glyph glyph-name="iacute" unicode="&#xed;" horiz-adv-x="271" 
d="M81 283q16 91 16 102q0 28 -13 41.5t-44 13.5h-10l5 30h120q40 0 57 -15t17 -52q0 -15 -11 -83.5t-55 -319.5h-130zM141 526l67 140h119l-131 -140h-55z" />
    <glyph glyph-name="icircumflex" unicode="&#xee;" horiz-adv-x="271" 
d="M81 283q16 91 16 102q0 28 -13 41.5t-44 13.5h-10l5 30h120q40 0 57 -15t17 -52q0 -15 -11 -83.5t-55 -319.5h-130zM37 532l102 125h130l58 -125h-60l-71 80l-99 -80h-60z" />
    <glyph glyph-name="idieresis" unicode="&#xef;" horiz-adv-x="271" 
d="M81 283q16 91 16 102q0 28 -13 41.5t-44 13.5h-10l5 30h120q40 0 57 -15t17 -52q0 -15 -11 -83.5t-55 -319.5h-130zM33 547.5q-12 12.5 -12 31.5q0 27 19.5 47.5t47.5 20.5q23 0 35 -12.5t12 -33.5q0 -26 -20 -46t-47 -20q-23 0 -35 12.5zM213 547.5q-12 12.5 -12 31.5
q0 27 19.5 47.5t47.5 20.5q23 0 35 -12.5t12 -33.5q0 -26 -20 -46t-47 -20q-23 0 -35 12.5z" />
    <glyph glyph-name="eth" unicode="&#xf0;" horiz-adv-x="558" 
d="M75 42.5q-51 52.5 -51 137.5q0 75 35 144.5t98.5 112.5t144.5 43q49 0 81.5 -21t44.5 -59q-2 52 -11.5 89t-27.5 66l-55 -47l-33 40l55 47q-16 18 -40 24t-58 6q-21 0 -39 -5l-16 -4l-8 32q19 11 44.5 16.5t46.5 5.5q41 0 69.5 -9t51.5 -27l51 46l34 -38l-50 -42
q38 -40 60 -100t22 -136q0 -92 -32 -177.5t-99 -141t-167 -55.5t-151 52.5zM315.5 82.5q33.5 47.5 49.5 112t16 113.5q0 56 -18.5 91.5t-58.5 35.5q-48 0 -81.5 -47.5t-49.5 -112.5t-16 -115q0 -61 21.5 -93t55.5 -32q48 0 81.5 47.5z" />
    <glyph glyph-name="ntilde" unicode="&#xf1;" horiz-adv-x="577" 
d="M91 340q5 32 5 47q0 26 -12.5 39.5t-43.5 13.5h-10l5 30h99q34 0 52 -8.5t26 -28.5q55 47 154 47q82 0 122.5 -32t40.5 -100q0 -20 -5 -52l-52 -296h-130l52 297q4 20 4 46q0 87 -76 87q-31 0 -56 -8.5t-41 -22.5q1 -7 1 -20q0 -18 -3 -33l-61 -346h-130zM257 622
q21 22 54 22q17 0 28 -6t25 -18q10 -8 17 -12t15 -4q16 0 28 12t14 28h40q-11 -56 -31.5 -78t-53.5 -22q-17 0 -29 6.5t-25 17.5q-2 2 -8.5 6.5t-12 7t-11.5 2.5q-16 0 -27.5 -12t-14.5 -28h-40q11 56 32 78z" />
    <glyph glyph-name="ograve" unicode="&#xf2;" horiz-adv-x="553" 
d="M77 43.5q-53 53.5 -53 140.5q0 75 37.5 143.5t103.5 110.5t147 42q96 0 149 -53.5t53 -140.5q0 -75 -37.5 -143.5t-103.5 -110.5t-147 -42q-96 0 -149 53.5zM317 82.5q33 47.5 48.5 113t15.5 117.5q0 58 -19 90t-58 32q-50 0 -83 -47.5t-48.5 -113t-15.5 -117.5
q0 -58 19 -90t58 -32q50 0 83 47.5zM351 525l-81 140h119l17 -140h-55z" />
    <glyph glyph-name="oacute" unicode="&#xf3;" horiz-adv-x="553" 
d="M77 43.5q-53 53.5 -53 140.5q0 75 37.5 143.5t103.5 110.5t147 42q96 0 149 -53.5t53 -140.5q0 -75 -37.5 -143.5t-103.5 -110.5t-147 -42q-96 0 -149 53.5zM317 82.5q33 47.5 48.5 113t15.5 117.5q0 58 -19 90t-58 32q-50 0 -83 -47.5t-48.5 -113t-15.5 -117.5
q0 -58 19 -90t58 -32q50 0 83 47.5zM277 526l67 140h119l-131 -140h-55z" />
    <glyph glyph-name="ocircumflex" unicode="&#xf4;" horiz-adv-x="553" 
d="M77 43.5q-53 53.5 -53 140.5q0 75 37.5 143.5t103.5 110.5t147 42q96 0 149 -53.5t53 -140.5q0 -75 -37.5 -143.5t-103.5 -110.5t-147 -42q-96 0 -149 53.5zM317 82.5q33 47.5 48.5 113t15.5 117.5q0 58 -19 90t-58 32q-50 0 -83 -47.5t-48.5 -113t-15.5 -117.5
q0 -58 19 -90t58 -32q50 0 83 47.5zM175 526l102 125h130l58 -125h-60l-71 80l-99 -80h-60z" />
    <glyph glyph-name="otilde" unicode="&#xf5;" horiz-adv-x="553" 
d="M77 43.5q-53 53.5 -53 140.5q0 75 37.5 143.5t103.5 110.5t147 42q96 0 149 -53.5t53 -140.5q0 -75 -37.5 -143.5t-103.5 -110.5t-147 -42q-96 0 -149 53.5zM317 82.5q33 47.5 48.5 113t15.5 117.5q0 58 -19 90t-58 32q-50 0 -83 -47.5t-48.5 -113t-15.5 -117.5
q0 -58 19 -90t58 -32q50 0 83 47.5zM235 614q21 22 54 22q17 0 28 -6t25 -18q10 -8 17 -12t15 -4q16 0 28 12t14 28h40q-11 -56 -31.5 -78t-53.5 -22q-17 0 -29 6.5t-25 17.5q-2 2 -8.5 6.5t-12 7t-11.5 2.5q-16 0 -27.5 -12t-14.5 -28h-40q11 56 32 78z" />
    <glyph glyph-name="odieresis" unicode="&#xf6;" horiz-adv-x="553" 
d="M77 43.5q-53 53.5 -53 140.5q0 75 37.5 143.5t103.5 110.5t147 42q96 0 149 -53.5t53 -140.5q0 -75 -37.5 -143.5t-103.5 -110.5t-147 -42q-96 0 -149 53.5zM317 82.5q33 47.5 48.5 113t15.5 117.5q0 58 -19 90t-58 32q-50 0 -83 -47.5t-48.5 -113t-15.5 -117.5
q0 -58 19 -90t58 -32q50 0 83 47.5zM248 547.5q-12 12.5 -12 31.5q0 27 19.5 47.5t47.5 20.5q23 0 35 -12.5t12 -33.5q0 -26 -20 -46t-47 -20q-23 0 -35 12.5zM428 547.5q-12 12.5 -12 31.5q0 27 19.5 47.5t47.5 20.5q23 0 35 -12.5t12 -33.5q0 -26 -20 -46t-47 -20
q-23 0 -35 12.5z" />
    <glyph glyph-name="divide" unicode="&#xf7;" horiz-adv-x="547" 
d="M264 437.5q-12 12.5 -12 33.5q0 27 20 46.5t47 19.5q23 0 35 -12t12 -32q0 -27 -19.5 -47.5t-47.5 -20.5q-23 0 -35 12.5zM47 297l11 65h460l-11 -65h-460zM211 135.5q-12 12.5 -12 33.5q0 27 20 46.5t47 19.5q23 0 35 -12t12 -32q0 -27 -19.5 -47.5t-47.5 -20.5
q-23 0 -35 12.5z" />
    <glyph glyph-name="oslash" unicode="&#xf8;" horiz-adv-x="553" 
d="M114 16l-14 -16h-92l54 60q-38 50 -38 124q0 75 37.5 143.5t103.5 110.5t147 42q62 0 112 -26l14 16h92l-55 -60q39 -51 39 -124q0 -75 -37.5 -143.5t-103.5 -110.5t-147 -42q-62 0 -112 26zM367 392q-21 43 -63 43q-50 0 -82.5 -47t-48 -110.5t-17.5 -115.5zM316.5 81
q32.5 46 47.5 109.5t17 116.5l-211 -230q19 -42 64 -42q50 0 82.5 46z" />
    <glyph glyph-name="ugrave" unicode="&#xf9;" horiz-adv-x="567" 
d="M85.5 20.5q-38.5 30.5 -38.5 98.5q0 14 7.5 62t26.5 159q5 32 5 45q0 28 -13 41.5t-44 13.5h-10l5 30h120q40 0 57 -15t17 -52q0 -31 -7 -63q-19 -113 -27 -163.5t-8 -62.5q0 -43 16.5 -61t50.5 -18q21 0 38 8.5t35 23.5q15 13 28 33l65 370h130l-82 -470h-85l-28 45h-5
q-14 -14 -37 -28q-43 -27 -97 -27q-81 0 -119.5 30.5zM299 525l-81 140h119l17 -140h-55z" />
    <glyph glyph-name="uacute" unicode="&#xfa;" horiz-adv-x="567" 
d="M85.5 20.5q-38.5 30.5 -38.5 98.5q0 14 7.5 62t26.5 159q5 32 5 45q0 28 -13 41.5t-44 13.5h-10l5 30h120q40 0 57 -15t17 -52q0 -31 -7 -63q-19 -113 -27 -163.5t-8 -62.5q0 -43 16.5 -61t50.5 -18q21 0 38 8.5t35 23.5q15 13 28 33l65 370h130l-82 -470h-85l-28 45h-5
q-14 -14 -37 -28q-43 -27 -97 -27q-81 0 -119.5 30.5zM285 500l67 140h119l-131 -140h-55z" />
    <glyph glyph-name="ucircumflex" unicode="&#xfb;" horiz-adv-x="567" 
d="M85.5 20.5q-38.5 30.5 -38.5 98.5q0 14 7.5 62t26.5 159q5 32 5 45q0 28 -13 41.5t-44 13.5h-10l5 30h120q40 0 57 -15t17 -52q0 -31 -7 -63q-19 -113 -27 -163.5t-8 -62.5q0 -43 16.5 -61t50.5 -18q21 0 38 8.5t35 23.5q15 13 28 33l65 370h130l-82 -470h-85l-28 45h-5
q-14 -14 -37 -28q-43 -27 -97 -27q-81 0 -119.5 30.5zM174 526l102 125h130l58 -125h-60l-71 80l-99 -80h-60z" />
    <glyph glyph-name="udieresis" unicode="&#xfc;" horiz-adv-x="567" 
d="M85.5 20.5q-38.5 30.5 -38.5 98.5q0 14 7.5 62t26.5 159q5 32 5 45q0 28 -13 41.5t-44 13.5h-10l5 30h120q40 0 57 -15t17 -52q0 -31 -7 -63q-19 -113 -27 -163.5t-8 -62.5q0 -43 16.5 -61t50.5 -18q21 0 38 8.5t35 23.5q15 13 28 33l65 370h130l-82 -470h-85l-28 45h-5
q-14 -14 -37 -28q-43 -27 -97 -27q-81 0 -119.5 30.5zM211 547.5q-12 12.5 -12 31.5q0 27 19.5 47.5t47.5 20.5q23 0 35 -12.5t12 -33.5q0 -26 -20 -46t-47 -20q-23 0 -35 12.5zM391 547.5q-12 12.5 -12 31.5q0 27 19.5 47.5t47.5 20.5q23 0 35 -12.5t12 -33.5
q0 -26 -20 -46t-47 -20q-23 0 -35 12.5z" />
    <glyph glyph-name="yacute" unicode="&#xfd;" horiz-adv-x="509" 
d="M10 -165q55 0 92 21t70 76l30 54l-110 394q-11 38 -30 57t-49 23l3 20h88q44 0 74.5 -21.5t41.5 -58.5l71 -252l178 322h53l-296 -535q-44 -78 -85 -106.5t-97 -28.5h-40zM288 500l67 140h119l-131 -140h-55z" />
    <glyph glyph-name="thorn" unicode="&#xfe;" horiz-adv-x="544" 
d="M111 575q0 28 -13 41.5t-44 13.5h-10l5 30h120q40 0 57 -15t17 -52q0 -21 -22 -148q50 35 120 35q82 0 123 -46.5t41 -127.5q0 -77 -29.5 -150t-88.5 -119.5t-142 -46.5q-56 0 -101 20l-35 -200h-130q132 736 132 765zM304.5 82.5q34.5 47.5 50.5 113t16 118.5
q0 58 -19 89.5t-54 31.5q-43 0 -84 -30l-63 -355q38 -15 67 -15q52 0 86.5 47.5z" />
    <glyph glyph-name="ydieresis" unicode="&#xff;" horiz-adv-x="509" 
d="M10 -165q55 0 92 21t70 76l30 54l-110 394q-11 38 -30 57t-49 23l3 20h88q44 0 74.5 -21.5t41.5 -58.5l71 -252l178 322h53l-296 -535q-44 -78 -85 -106.5t-97 -28.5h-40zM202 547.5q-12 12.5 -12 31.5q0 27 19.5 47.5t47.5 20.5q23 0 35 -12.5t12 -33.5q0 -26 -20 -46
t-47 -20q-23 0 -35 12.5zM382 547.5q-12 12.5 -12 31.5q0 27 19.5 47.5t47.5 20.5q23 0 35 -12.5t12 -33.5q0 -26 -20 -46t-47 -20q-23 0 -35 12.5z" />
    <glyph glyph-name="Abreve" unicode="&#x102;" horiz-adv-x="647" 
d="M472.5 23q-47.5 27 -64.5 103l-13 56h-266l-114 -182h-52l411 660h45l130 -534q24 -93 86 -100l-4 -25q-18 -5 -49 -5q-62 0 -109.5 27zM158 227h226l-64 261zM319 725.5q-32 25.5 -44 68.5l32 21q13 -21 39 -35.5t65 -14.5t69.5 14t52.5 36l24 -21q-27 -43 -68.5 -68.5
t-89.5 -25.5t-80 25.5z" />
    <glyph glyph-name="abreve" unicode="&#x103;" horiz-adv-x="550" 
d="M68 40q-44 50 -44 130q0 72 31.5 144t91 119t137.5 47q52 0 82 -28q15 -13 23 -27h5l43 45h85l-65 -370l-17 -100h-85l-28 45h-5q-12 -15 -32 -28q-38 -27 -92 -27q-86 0 -130 50zM264 43.5q17 8.5 35 23.5q15 13 28 33l48 270q-6 18 -17 32q-25 33 -62 33
q-48 0 -79.5 -51.5t-46 -120.5t-14.5 -119q0 -109 70 -109q21 0 38 8.5zM246 535.5q-32 25.5 -44 68.5l32 21q13 -21 39 -35.5t65 -14.5t69.5 14t52.5 36l24 -21q-27 -43 -68.5 -68.5t-89.5 -25.5t-80 25.5z" />
    <glyph glyph-name="Dcroat" unicode="&#x110;" horiz-adv-x="737" 
d="M101 305h-70l9 50h70q36 197 36 220q0 28 -13 41.5t-44 13.5h-10l5 30h272q178 0 269.5 -67.5t91.5 -190.5q0 -118 -59.5 -209.5t-162.5 -142t-229 -50.5h-218zM270 40q88 0 156 53t105 137.5t37 172.5q0 100 -52.5 158.5t-145.5 58.5h-8q-33 0 -53 -4l-23 -3l-46 -258
h75l-9 -50h-75l-45 -258l22 -4q13 -3 52 -3h10z" />
    <glyph glyph-name="dcroat" unicode="&#x111;" horiz-adv-x="543" 
d="M565 530h-34q-27 -162 -91 -530h-85l-28 45h-5q-12 -15 -32 -28q-38 -27 -92 -27q-85 0 -129 50t-44 133q0 75 31 146t91 116t142 45q38 0 74 -15q17 -8 26 -15l13 80h-136l8 45h134q0 28 -13 41.5t-44 13.5h-10l5 30h120q40 0 57 -15t17 -52q0 -8 -2 -18h35zM381 405
q-9 7 -21 15q-32 15 -59 15q-52 0 -84 -50.5t-46 -118t-14 -122.5q0 -53 16 -81t53 -28q21 0 38 8.5t35 23.5q15 13 28 33z" />
    <glyph glyph-name="Gbreve" unicode="&#x11e;" horiz-adv-x="734" 
d="M184 17.5q-69 37.5 -106.5 104.5t-37.5 151q0 102 52 196t143 152.5t201 58.5q89 0 164.5 -30t75.5 -107q0 -33 -10 -83h-30q-3 91 -46.5 133t-131.5 42q-95 0 -159 -62.5t-94 -157t-30 -189.5q0 -206 175 -206q80 0 140 26l31 178q10 53 56 87.5t160 34.5l-5 -25
q-64 0 -81 -95l-31 -179q-63 -35 -131 -51t-146 -16q-90 0 -159 37.5zM376 755.5q-32 25.5 -44 68.5l32 21q13 -21 39 -35.5t65 -14.5t69.5 14t52.5 36l24 -21q-27 -43 -68.5 -68.5t-89.5 -25.5t-80 25.5z" />
    <glyph glyph-name="gbreve" unicode="&#x11f;" horiz-adv-x="550" 
d="M62.5 -170q-38.5 30 -59.5 75l35 23q24 -40 51.5 -61.5t72.5 -21.5q57 0 97 46.5t57 143.5l1 5q-14 -9 -31 -15q-37 -15 -80 -15q-89 0 -134 47t-45 128q0 72 31 140.5t89 111.5t137 43q52 0 82 -28q15 -13 23 -27h5l43 45h85l-76 -435q-18 -107 -90.5 -171t-181.5 -64
q-73 0 -111.5 30zM298 70q15 7 26 15l51 285q-6 18 -17 32q-25 33 -62 33q-49 0 -80 -48t-44 -112.5t-13 -116.5q0 -50 17.5 -76.5t57.5 -26.5q34 0 64 15zM229 555.5q-32 25.5 -44 68.5l32 21q13 -21 39 -35.5t65 -14.5t69.5 14t52.5 36l24 -21q-27 -43 -68.5 -68.5
t-89.5 -25.5t-80 25.5z" />
    <glyph glyph-name="Itilde" unicode="&#x128;" horiz-adv-x="307" 
d="M65 15.5q-17 15.5 -17 53.5q0 25 6 61l94 530h130l-94 -530q-4 -21 -4 -43q0 -28 13 -42.5t44 -14.5h10l-5 -30h-120q-40 0 -57 15.5zM129 828q21 22 54 22q17 0 28 -6t25 -18q10 -8 17 -12t15 -4q16 0 28 12t14 28h40q-11 -56 -31.5 -78t-53.5 -22q-17 0 -29 6.5
t-25 17.5q-2 2 -8.5 6.5t-12 7t-11.5 2.5q-16 0 -27.5 -12t-14.5 -28h-40q11 56 32 78z" />
    <glyph glyph-name="itilde" unicode="&#x129;" horiz-adv-x="271" 
d="M81 283q16 91 16 102q0 28 -13 41.5t-44 13.5h-10l5 30h120q40 0 57 -15t17 -52q0 -15 -11 -83.5t-55 -319.5h-130zM67 638q21 22 54 22q17 0 28 -6t25 -18q10 -8 17 -12t15 -4q16 0 28 12t14 28h40q-11 -56 -31.5 -78t-53.5 -22q-17 0 -29 6.5t-25 17.5q-2 2 -8.5 6.5
t-12 7t-11.5 2.5q-16 0 -27.5 -12t-14.5 -28h-40q11 56 32 78z" />
    <glyph glyph-name="Idotaccent" unicode="&#x130;" horiz-adv-x="307" 
d="M180.5 731q-15.5 17 -15.5 43q0 29 18.5 50.5t47.5 21.5q31 0 46.5 -17t15.5 -43q0 -29 -18.5 -50.5t-47.5 -21.5q-31 0 -46.5 17zM65 15.5q-17 15.5 -17 53.5q0 16 17 119t83 472h130q-56 -318 -77 -440.5t-21 -132.5q0 -28 13 -42.5t44 -14.5h10l-5 -30h-120
q-40 0 -57 15.5z" />
    <glyph glyph-name="dotlessi" unicode="&#x131;" horiz-adv-x="271" 
d="M81 283q16 91 16 102q0 28 -13 41.5t-44 13.5h-10l5 30h120q40 0 57 -15t17 -52q0 -15 -11 -83.5t-55 -319.5h-130z" />
    <glyph glyph-name="OE" unicode="&#x152;" horiz-adv-x="958" 
d="M168 15q-62 35 -95 97.5t-33 143.5q0 105 51 203t142.5 159.5t204.5 61.5q38 0 62.5 -5t49.5 -15h331q73 0 73 -58q0 -9 -17 -107h-30q3 18 3 33q0 87 -107 87h-161l-44 -250h260l-8 -45h-260l-49 -275h171q57 0 99.5 25.5t79.5 88.5l25 -10l-43 -79q-20 -37 -40.5 -53.5
t-58.5 -16.5h-340q-49 -20 -119 -20q-85 0 -147 35zM412 48l99 563q-33 24 -81 24q-86 0 -143.5 -67.5t-84 -164t-26.5 -182.5q0 -94 37.5 -145t109.5 -51q45 0 89 23z" />
    <glyph glyph-name="oe" unicode="&#x153;" horiz-adv-x="848" 
d="M77 43.5q-53 53.5 -53 140.5q0 75 37.5 143.5t103.5 110.5t147 42q100 0 157 -63q71 63 168 63q93 0 142 -33t49 -91q0 -146 -218 -146h-105q-6 -22 -6 -65q0 -110 85 -110q48 0 84 21.5t73 61.5l27 -23q-37 -45 -85.5 -75t-121.5 -30q-102 0 -153 66q-77 -66 -182 -66
q-96 0 -149 53.5zM317 82.5q33 47.5 48.5 113t15.5 117.5q0 58 -19 90t-58 32q-50 0 -83 -47.5t-48.5 -113t-15.5 -117.5q0 -58 19 -90t58 -32q50 0 83 47.5zM617 255q38 0 59.5 29t21.5 73q0 37 -17 57.5t-42 20.5q-42 0 -76 -44t-51 -136h105z" />
    <glyph glyph-name="Scedilla" unicode="&#x15e;" horiz-adv-x="562" 
d="M158 -160h50q19 0 31.5 10t14.5 27q0 13 -8.5 20.5t-25.5 7.5h-45l14 80q-74 6 -123.5 33.5t-49.5 71.5q0 11 21 130h28v-7q0 -98 39.5 -141.5t123.5 -43.5q36 0 69.5 13t55 39t21.5 64q0 33 -20 56.5t-63 53.5l-110 74q-50 33 -72.5 67t-22.5 77q0 63 36 110t95 71.5
t126 24.5q53 0 100.5 -13t76.5 -37.5t29 -57.5q0 -8 -22 -129h-28v11q0 96 -38 138.5t-115 42.5q-34 0 -65 -13.5t-51 -39.5t-20 -62q0 -31 19 -52t65 -52l111 -73q54 -37 78.5 -69.5t24.5 -73.5q0 -63 -35.5 -109.5t-93.5 -72.5t-125 -32l-6 -34q37 0 57 -17t20 -46
q0 -41 -30.5 -67t-74.5 -26h-70z" />
    <glyph glyph-name="scedilla" unicode="&#x15f;" horiz-adv-x="470" 
d="M114 -140h50q17 0 31.5 10.5t14.5 27.5q0 12 -9 19.5t-26 7.5h-45l12 67q-53 3 -90.5 20.5t-37.5 62.5q0 25 9 75h35v-3q0 -51 27 -81.5t83 -30.5q43 0 78 18t35 58q0 23 -19.5 39t-57.5 34l-48 22q-52 25 -78.5 53t-26.5 66q0 51 31.5 86t81 52t102.5 17q67 0 116.5 -16
t49.5 -69q0 -25 -9 -75h-35v3q0 51 -27 81.5t-83 30.5q-38 0 -68 -20.5t-30 -58.5q0 -21 14.5 -35.5t44.5 -27.5l56 -25q60 -26 87.5 -53.5t27.5 -67.5q0 -71 -60 -110t-143 -46l-4 -21q37 0 57.5 -16.5t20.5 -45.5q0 -41 -30.5 -67.5t-74.5 -26.5h-70z" />
    <glyph glyph-name="Scaron" unicode="&#x160;" horiz-adv-x="562" 
d="M121.5 -4q-47.5 13 -76.5 37.5t-29 57.5q0 9 21 129h28v-7q0 -98 39.5 -141.5t123.5 -43.5q36 0 69.5 13t55 39t21.5 64q0 33 -20 56.5t-63 53.5l-110 74q-50 33 -72.5 67t-22.5 77q0 63 36 110t95 71.5t126 24.5q53 0 100.5 -13t76.5 -37.5t29 -57.5q0 -8 -22 -129h-28
v11q0 96 -38 138.5t-115 42.5q-34 0 -65 -13.5t-51 -39.5t-20 -62q0 -31 19 -52t65 -52l111 -73q54 -37 78.5 -69.5t24.5 -73.5q0 -69 -41.5 -117.5t-107 -73t-137.5 -24.5q-53 0 -100.5 13zM281 720l-58 125h70l61 -80l89 80h70l-102 -125h-130z" />
    <glyph glyph-name="scaron" unicode="&#x161;" horiz-adv-x="469" 
d="M62.5 6q-49.5 16 -49.5 69q0 25 9 75h35v-3q0 -51 27 -81.5t83 -30.5q43 0 78 18t35 58q0 23 -19.5 39t-57.5 34l-48 22q-52 25 -78.5 53t-26.5 66q0 51 31.5 86t81 52t102.5 17q67 0 116.5 -16t49.5 -69q0 -25 -9 -75h-35v3q0 51 -27 81.5t-83 30.5q-38 0 -68 -20.5
t-30 -58.5q0 -21 14.5 -35.5t44.5 -27.5l56 -25q60 -26 87.5 -53.5t27.5 -67.5q0 -53 -34 -88.5t-87 -52t-109 -16.5q-67 0 -116.5 16zM201 520l-58 125h70l61 -80l89 80h70l-102 -125h-130z" />
    <glyph glyph-name="Utilde" unicode="&#x168;" horiz-adv-x="697" 
d="M141 40.5q-55 50.5 -55 154.5q0 22 9 79.5t43 255.5q5 32 5 45q0 28 -13 41.5t-44 13.5l5 30h110q40 0 57 -15t17 -52q0 -31 -7 -63q-36 -212 -45.5 -273.5t-9.5 -82.5q0 -71 28.5 -107.5t90.5 -36.5q109 0 166.5 61t81.5 197l66 372h50l-66 -372q-25 -148 -99 -223
t-218 -75q-117 0 -172 50.5zM344 828q21 22 54 22q17 0 28 -6t25 -18q10 -8 17 -12t15 -4q16 0 28 12t14 28h40q-11 -56 -31.5 -78t-53.5 -22q-17 0 -29 6.5t-25 17.5q-2 2 -8.5 6.5t-12 7t-11.5 2.5q-16 0 -27.5 -12t-14.5 -28h-40q11 56 32 78z" />
    <glyph glyph-name="utilde" unicode="&#x169;" horiz-adv-x="567" 
d="M85.5 20.5q-38.5 30.5 -38.5 98.5q0 14 7.5 62t26.5 159q5 32 5 45q0 28 -13 41.5t-44 13.5h-10l5 30h120q40 0 57 -15t17 -52q0 -31 -7 -63q-19 -113 -27 -163.5t-8 -62.5q0 -43 16.5 -61t50.5 -18q21 0 38 8.5t35 23.5q15 13 28 33l65 370h130l-82 -470h-85l-28 45h-5
q-14 -14 -37 -28q-43 -27 -97 -27q-81 0 -119.5 30.5zM245 638q21 22 54 22q17 0 28 -6t25 -18q10 -8 17 -12t15 -4q16 0 28 12t14 28h40q-11 -56 -31.5 -78t-53.5 -22q-17 0 -29 6.5t-25 17.5q-2 2 -8.5 6.5t-12 7t-11.5 2.5q-16 0 -27.5 -12t-14.5 -28h-40q11 56 32 78z
" />
    <glyph glyph-name="Ydieresis" unicode="&#x178;" horiz-adv-x="639" 
d="M273 264l-130 266q-19 42 -51 74t-63 36l4 20h109q51 0 86 -31.5t57 -78.5l100 -205l250 315h65l-292 -369l-51 -291h-130zM306 702.5q-12 12.5 -12 33.5q0 27 20 46.5t47 19.5q23 0 35 -12t12 -32q0 -27 -19.5 -47.5t-47.5 -20.5q-23 0 -35 12.5zM476 702.5
q-12 12.5 -12 33.5q0 27 20 46.5t47 19.5q23 0 35 -12t12 -32q0 -27 -19.5 -47.5t-47.5 -20.5q-23 0 -35 12.5z" />
    <glyph glyph-name="Zcaron" unicode="&#x17d;" horiz-adv-x="599" 
d="M-12 32l475 584h-217q-56 0 -90.5 -28t-45.5 -93h-30l15 85q7 36 29 58t70 22h455l-501 -615h387l-7 -45h-545zM327 710l-58 125h70l61 -80l89 80h70l-102 -125h-130z" />
    <glyph glyph-name="zcaron" unicode="&#x17e;" horiz-adv-x="495" 
d="M-3 31l332 394h-118q-63 0 -93 -22.5t-38 -72.5h-30l10 60q7 36 29 58t70 22h356l-359 -425h263l-7 -45h-420zM237 520l-58 125h70l61 -80l89 80h70l-102 -125h-130z" />
    <glyph glyph-name="florin" unicode="&#x192;" horiz-adv-x="345" 
d="M-92 -165q48 9 76 50.5t45 139.5l70 400h-60l8 45h60l5 27q15 85 71.5 129t154.5 44q27 0 51.5 -4.5t36.5 -12.5q24 -16 31 -43l-46 -35q-12 24 -31 37t-45 13q-35 0 -58 -29t-35 -99l-5 -27h130l-8 -45h-130l-70 -400q-15 -84 -43 -130t-78 -65.5t-134 -19.5z" />
    <glyph glyph-name="Ohorn" unicode="&#x1a0;" horiz-adv-x="735" 
d="M168 15q-62 35 -95 97.5t-33 143.5q0 105 51 203t142.5 159.5t204.5 61.5q85 0 147 -35t95 -97.5t33 -143.5q0 -105 -51 -203t-142.5 -159.5t-204.5 -61.5q-85 0 -147 35zM467.5 92q57.5 67 84 162.5t26.5 183.5q0 95 -38 146t-110 51q-86 0 -143.5 -67.5t-84 -164
t-26.5 -182.5q0 -94 37.5 -145t109.5 -51q87 0 144.5 67zM694 659q50 0 81 31t39 73h80q-7 -36 -33.5 -70t-71 -55.5t-103.5 -21.5z" />
    <glyph glyph-name="ohorn" unicode="&#x1a1;" horiz-adv-x="553" 
d="M533 494q-33 -37 -86 -55q33 -26 50 -65.5t17 -87.5q0 -75 -37.5 -143.5t-103.5 -110.5t-147 -42q-96 0 -149 53.5t-53 140.5q0 75 37.5 143.5t103.5 110.5t147 42q38 0 75 -10q45 4 72.5 34t34.5 69h80q-8 -42 -41 -79zM317 82.5q33 47.5 48.5 113t15.5 117.5
q0 58 -19 90t-58 32q-50 0 -83 -47.5t-48.5 -113t-15.5 -117.5q0 -58 19 -90t58 -32q50 0 83 47.5z" />
    <glyph glyph-name="Uhorn" unicode="&#x1af;" horiz-adv-x="697" 
d="M802.5 671.5q-43.5 -41.5 -113.5 -52.5l-59 -331q-25 -148 -99 -223t-218 -75q-117 0 -172 50.5t-55 154.5q0 22 9 79.5t43 255.5q5 32 5 45q0 28 -13 41.5t-44 13.5l5 30h110q40 0 57 -15t17 -52q0 -31 -7 -63q-36 -212 -45.5 -273.5t-9.5 -82.5q0 -71 28.5 -107.5
t90.5 -36.5q109 0 166.5 61t81.5 197l66 372h26q43 6 70 35.5t34 67.5h80q-10 -50 -53.5 -91.5z" />
    <glyph glyph-name="uhorn" unicode="&#x1b0;" horiz-adv-x="567" 
d="M641 483q-42 -41 -109 -53l-75 -430h-85l-28 45h-5q-14 -14 -37 -28q-43 -27 -97 -27q-81 0 -119.5 30.5t-38.5 98.5q0 14 7.5 62t26.5 159q5 32 5 45q0 28 -13 41.5t-44 13.5h-10l5 30h120q40 0 57 -15t17 -52q0 -31 -7 -63q-19 -113 -27 -163.5t-8 -62.5
q0 -43 16.5 -61t50.5 -18q21 0 38 8.5t35 23.5q15 13 28 33l65 370h99q43 6 70 35.5t34 67.5h80q-9 -49 -51 -90z" />
    <glyph glyph-name="uni02BC" unicode="&#x2bc;" horiz-adv-x="184" 
d="M53 534q36 21 66.5 53t37.5 72l-16 -3q-24 0 -37.5 12.5t-13.5 33.5q0 31 20 53.5t53 22.5q26 0 40 -17t14 -43q0 -113 -151 -208z" />
    <glyph glyph-name="circumflex" unicode="&#x2c6;" horiz-adv-x="330" 
d="M86 660l102 125h130l58 -125h-60l-71 80l-99 -80h-60z" />
    <glyph glyph-name="caron" unicode="&#x2c7;" horiz-adv-x="300" 
d="M100 520l-58 125h70l61 -80l89 80h70l-102 -125h-130z" />
    <glyph glyph-name="breve" unicode="&#x2d8;" horiz-adv-x="300" 
d="M112 535.5q-32 25.5 -44 68.5l32 21q13 -21 39 -35.5t65 -14.5t69.5 14t52.5 36l24 -21q-27 -43 -68.5 -68.5t-89.5 -25.5t-80 25.5z" />
    <glyph glyph-name="ring" unicode="&#x2da;" horiz-adv-x="198" 
d="M81 541q-22 21 -22 55q0 29 15 55.5t41.5 42.5t57.5 16q36 0 58 -21t22 -55q0 -29 -15 -55.5t-41.5 -42.5t-57.5 -16q-36 0 -58 21zM186 583q16 18 16 43q0 18 -10 28.5t-27 10.5q-23 0 -39 -18t-16 -43q0 -18 10 -28.5t27 -10.5q23 0 39 18z" />
    <glyph glyph-name="tilde" unicode="&#x2dc;" horiz-adv-x="275" 
d="M121 758q21 22 54 22q17 0 28 -6t25 -18q10 -8 17 -12t15 -4q16 0 28 12t14 28h40q-11 -56 -31.5 -78t-53.5 -22q-17 0 -29 6.5t-25 17.5q-2 2 -8.5 6.5t-12 7t-11.5 2.5q-16 0 -27.5 -12t-14.5 -28h-40q11 56 32 78z" />
    <glyph glyph-name="gravecomb" unicode="&#x300;" 
d="M-54 525l-81 140h119l17 -140h-55z" />
    <glyph glyph-name="acutecomb" unicode="&#x301;" 
d="M-160 525l67 140h119l-131 -140h-55z" />
    <glyph glyph-name="uni0302" unicode="&#x302;" 
d="M-290 520l102 125h130l58 -125h-70l-61 80l-89 -80h-70z" />
    <glyph glyph-name="tildecomb" unicode="&#x303;" 
d="M-196 638q21 22 54 22q17 0 28 -6t25 -18q10 -8 17 -12t15 -4q16 0 28 12t14 28h40q-11 -56 -31.5 -78t-53.5 -22q-17 0 -29 6.5t-25 17.5q-2 2 -8.5 6.5t-12 7t-11.5 2.5q-16 0 -27.5 -12t-14.5 -28h-40q11 56 32 78z" />
    <glyph glyph-name="uni0304" unicode="&#x304;" 
d="M-272 557v85h279v-85h-279z" />
    <glyph glyph-name="uni0306" unicode="&#x306;" 
d="M-223 535.5q-32 25.5 -44 68.5l32 21q13 -21 39 -35.5t65 -14.5t69.5 14t52.5 36l24 -21q-27 -43 -68.5 -68.5t-89.5 -25.5t-80 25.5z" />
    <glyph glyph-name="uni0308" unicode="&#x308;" 
d="M-268 547.5q-12 12.5 -12 31.5q0 27 19.5 47.5t47.5 20.5q23 0 35 -12.5t12 -33.5q0 -26 -20 -46t-47 -20q-23 0 -35 12.5zM-88 547.5q-12 12.5 -12 31.5q0 27 19.5 47.5t47.5 20.5q23 0 35 -12.5t12 -33.5q0 -26 -20 -46t-47 -20q-23 0 -35 12.5z" />
    <glyph glyph-name="hookabovecomb" unicode="&#x309;" 
d="M-119 575q6 7 11.5 15t6.5 15q2 10 2 14q0 24 -27 24q-18 0 -30 -10.5t-23 -41.5l-55 1q1 6 4 23.5t13 33.5q16 25 42 40.5t61 15.5q41 0 62 -18t21 -50q0 -15 -2 -23q-2 -11 -9 -20t-20 -21q-16 -16 -24 -26t-12 -26h-52q7 30 31 54z" />
    <glyph glyph-name="uni030A" unicode="&#x30a;" 
d="M-153 541q-22 21 -22 55q0 29 15 55.5t41.5 42.5t57.5 16q36 0 58 -21t22 -55q0 -29 -15 -55.5t-41.5 -42.5t-57.5 -16q-36 0 -58 21zM-48 583q16 18 16 43q0 18 -10 28.5t-27 10.5q-23 0 -39 -18t-16 -43q0 -18 10 -28.5t27 -10.5q23 0 39 18z" />
    <glyph glyph-name="uni030B" unicode="&#x30b;" 
d="M-205 525l42 140h79l-86 -140h-35zM-95 525l42 140h79l-86 -140h-35z" />
    <glyph glyph-name="uni030C" unicode="&#x30c;" 
d="M-210 520l-58 125h70l61 -80l89 80h70l-102 -125h-130z" />
    <glyph glyph-name="uni031B" unicode="&#x31b;" 
d="M-240 469q50 0 81 31t39 73h80q-7 -36 -33.5 -70t-71 -55.5t-103.5 -21.5z" />
    <glyph glyph-name="dotbelowcomb" unicode="&#x323;" 
d="M-218 -158q-11 10 -11 28q0 26 16.5 44.5t43.5 18.5q42 0 42 -39q0 -25 -17 -43.5t-43 -18.5q-20 0 -31 10z" />
    <glyph glyph-name="uni0326" unicode="&#x326;" 
d="M-280 -306q36 21 66.5 53t37.5 72l-16 -3q-24 0 -37.5 12.5t-13.5 33.5q0 31 20 53.5t53 22.5q26 0 40 -17t14 -43q0 -113 -151 -208z" />
    <glyph glyph-name="uni0327" unicode="&#x327;" 
d="M-280 -160h50q19 0 31.5 10t14.5 27q0 13 -8.5 20.5t-25.5 7.5h-45l17 95h65l-9 -50q37 0 57 -17t20 -46q0 -42 -32 -67.5t-73 -25.5h-70z" />
    <glyph glyph-name="uni0335" unicode="&#x335;" 
d="M-352 220l8 45h299l-8 -45h-299z" />
    <glyph glyph-name="uni0400" unicode="&#x400;" horiz-adv-x="602" 
d="M125 441q21 123 21 134q0 28 -13 41.5t-44 13.5h-10l5 30h441q73 0 73 -58q0 -9 -17 -107h-30q3 18 3 33q0 87 -107 87h-161l-44 -250h260l-8 -45h-260l-49 -275h171q57 0 99.5 25.5t79.5 88.5l25 -10l-43 -79q-20 -37 -40.5 -53.5t-58.5 -16.5h-370q56 318 77 441z
M350 715l-81 140h119l17 -140h-55z" />
    <glyph glyph-name="uni0401" unicode="&#x401;" horiz-adv-x="602" 
d="M125 441q21 123 21 134q0 28 -13 41.5t-44 13.5h-10l5 30h441q73 0 73 -58q0 -9 -17 -107h-30q3 18 3 33q0 87 -107 87h-161l-44 -250h260l-8 -45h-260l-49 -275h171q57 0 99.5 25.5t79.5 88.5l25 -10l-43 -79q-20 -37 -40.5 -53.5t-58.5 -16.5h-370q56 318 77 441z
M262 737.5q-12 12.5 -12 31.5q0 27 19.5 47.5t47.5 20.5q23 0 35 -12.5t12 -33.5q0 -26 -20 -46t-47 -20q-23 0 -35 12.5zM442 737.5q-12 12.5 -12 31.5q0 27 19.5 47.5t47.5 20.5q23 0 35 -12.5t12 -33.5q0 -26 -20 -46t-47 -20q-23 0 -35 12.5z" />
    <glyph glyph-name="uni0402" unicode="&#x402;" horiz-adv-x="716" 
d="M636.5 395q48.5 -35 48.5 -125q0 -134 -65.5 -219t-199.5 -91l5 25q43 0 72 51t43 118.5t14 112.5q0 60 -23.5 86.5t-60.5 26.5t-73.5 -9.5t-63.5 -25.5l-60 -345h-130l108 615h-32q-56 0 -90 -28t-46 -92h-30l15 85q14 80 99 80h470l-8 -45h-248l-40 -225
q29 17 71.5 28.5t85.5 11.5q90 0 138.5 -35z" />
    <glyph glyph-name="uni0403" unicode="&#x403;" horiz-adv-x="546" 
d="M125 441.5q21 123.5 21 133.5q0 28 -13 41.5t-44 13.5h-10l5 30h429q73 0 73 -59q0 -9 -17 -106h-30q3 18 3 33q0 46 -27 66.5t-80 20.5h-149l-108 -615h-130q56 318 77 441.5zM358 715l67 140h119l-131 -140h-55z" />
    <glyph glyph-name="uni0404" unicode="&#x404;" horiz-adv-x="681" 
d="M164.5 13.5q-62.5 33.5 -94 93.5t-31.5 138q0 115 56 215.5t148.5 160t195.5 59.5q120 0 177 -38t57 -97q0 -38 -12 -98h-30q-2 92 -45 140t-125 48q-96 0 -165 -64t-103 -216h309l-8 -45h-310q-6 -39 -6 -76q0 -95 42.5 -152t133.5 -57q70 0 135.5 37t112.5 106l30 -27
q-62 -84 -137 -122.5t-179 -38.5q-89 0 -151.5 33.5z" />
    <glyph glyph-name="uni0405" unicode="&#x405;" horiz-adv-x="562" 
d="M121.5 -4q-47.5 13 -76.5 37.5t-29 57.5q0 9 21 129h28v-7q0 -98 39.5 -141.5t123.5 -43.5q36 0 69.5 13t55 39t21.5 64q0 33 -20 56.5t-63 53.5l-110 74q-50 33 -72.5 67t-22.5 77q0 63 36 110t95 71.5t126 24.5q53 0 100.5 -13t76.5 -37.5t29 -57.5q0 -8 -22 -129h-28
v11q0 96 -38 138.5t-115 42.5q-34 0 -65 -13.5t-51 -39.5t-20 -62q0 -31 19 -52t65 -52l111 -73q54 -37 78.5 -69.5t24.5 -73.5q0 -69 -41.5 -117.5t-107 -73t-137.5 -24.5q-53 0 -100.5 13z" />
    <glyph glyph-name="uni0406" unicode="&#x406;" horiz-adv-x="307" 
d="M65 15.5q-17 15.5 -17 53.5q0 25 6 61l94 530h130l-94 -530q-4 -21 -4 -43q0 -28 13 -42.5t44 -14.5h10l-5 -30h-120q-40 0 -57 15.5z" />
    <glyph glyph-name="uni0407" unicode="&#x407;" horiz-adv-x="307" 
d="M65 15.5q-17 15.5 -17 53.5q0 25 6 61l94 530h130l-94 -530q-4 -21 -4 -43q0 -28 13 -42.5t44 -14.5h10l-5 -30h-120q-40 0 -57 15.5zM102 727.5q-12 12.5 -12 33.5q0 27 20 46.5t47 19.5q23 0 35 -12t12 -32q0 -27 -19.5 -47.5t-47.5 -20.5q-23 0 -35 12.5zM272 727.5
q-12 12.5 -12 33.5q0 27 20 46.5t47 19.5q23 0 35 -12t12 -32q0 -27 -19.5 -47.5t-47.5 -20.5q-23 0 -35 12.5z" />
    <glyph glyph-name="uni0408" unicode="&#x408;" horiz-adv-x="280" 
d="M-84 -107q48 6 78 47.5t47 142.5l102 577h130l-102 -577q-15 -88 -42 -134.5t-77.5 -66t-141.5 -19.5z" />
    <glyph glyph-name="uni0409" unicode="&#x409;" horiz-adv-x="989" 
d="M-56 -6l5 31q50 10 91.5 53t81.5 151t74 301q5 28 5 46q0 26 -12.5 40t-43.5 14h-10l5 30h525l-48 -270h90q108 0 181 -37t73 -122q0 -86 -49 -137.5t-121.5 -72.5t-151.5 -21h-220l108 615h-206l-15 -85q-53 -299 -129 -422t-175 -123q-31 0 -58 9zM631 40
q90 0 140.5 51.5t50.5 144.5q0 114 -137 114h-5q-29 0 -51 -5q-14 -4 -21 -5l-51 -290q9 -4 19 -5q22 -5 50 -5h5z" />
    <glyph glyph-name="uni040A" unicode="&#x40a;" horiz-adv-x="1006" 
d="M125 441.5q21 123.5 21 133.5q0 28 -13 41.5t-44 13.5h-10l5 30h120q40 0 57 -15t17 -52q0 -12 -8.5 -65t-12.5 -75l-15 -88h251l52 295h130l-51 -290h89q114 0 189.5 -35.5t75.5 -116.5q0 -117 -97.5 -167.5t-232.5 -50.5h-219l56 320h-251l-56 -320h-130
q56 318 77 441.5zM640 40q97 0 147.5 47.5t50.5 132.5q0 110 -147 110h-5q-24 0 -45.5 -3.5t-26.5 -6.5l-48 -270q9 -4 19 -5q22 -5 50 -5h5z" />
    <glyph glyph-name="uni040B" unicode="&#x40b;" horiz-adv-x="726" 
d="M637 398.5q54 -31.5 54 -108.5q0 -10 -10 -72.5t-37 -217.5h-130q48 267 48 292q0 48 -23.5 68t-67.5 20q-37 0 -73.5 -9.5t-63.5 -25.5l-60 -345h-130l108 615h-33q-56 0 -90 -28t-46 -92h-30l15 85q14 80 99 80h470l-8 -45h-247l-40 -225q29 17 71.5 28.5t85.5 11.5
q84 0 138 -31.5z" />
    <glyph glyph-name="uni040C" unicode="&#x40c;" horiz-adv-x="694" 
d="M465.5 15.5q-53.5 25.5 -106.5 94.5l-131 168l-49 -278h-130q65 368 81 465.5t16 109.5q0 28 -13 41.5t-44 13.5h-10l5 30h120q40 0 57.5 -15t17.5 -53q0 -11 -9 -62t-14 -83l-18 -107l211 215q46 49 93.5 77t102.5 28h70l-6 -35q-62 0 -109 -15.5t-87 -55.5l-181 -184
l188 -240q32 -41 72.5 -71.5t68.5 -34.5l-4 -24q-32 -10 -75 -10q-63 0 -116.5 25.5zM386 715l67 140h119l-131 -140h-55z" />
    <glyph glyph-name="uni040D" unicode="&#x40d;" horiz-adv-x="712" 
d="M125 441.5q21 123.5 21 133.5q0 28 -13 41.5t-44 13.5h-10l5 30h120q40 0 57 -15t17 -52q0 -15 -13 -95.5t-65 -367.5l384 530h120l-116 -660h-130l93 530l-383 -530h-120q56 318 77 441.5zM395 715l-81 140h119l17 -140h-55z" />
    <glyph glyph-name="uni040E" unicode="&#x40e;" horiz-adv-x="617" 
d="M94 26q53 0 93.5 14.5t67.5 54.5l10 15l-131 420q-32 103 -105 110l4 20h100q55 0 91 -30t52 -80l89 -282l246 392h65l-356 -565q-31 -50 -77.5 -77.5t-104.5 -27.5h-50zM325 730.5q-32 25.5 -44 68.5l32 21q13 -21 39 -35.5t65 -14.5t69.5 14t52.5 36l24 -21
q-27 -43 -68.5 -68.5t-89.5 -25.5t-80 25.5z" />
    <glyph glyph-name="uni040F" unicode="&#x40f;" horiz-adv-x="692" 
d="M258 0h-210q56 318 77 441.5t21 133.5q0 28 -13 41.5t-44 13.5h-10l5 30h120q40 0 57 -15t17 -52q0 -10 -14 -92t-22 -129q-12 -66 -57 -327h260l109 615h130l-116 -660h-210l-46 -175h-70z" />
    <glyph glyph-name="uni0410" unicode="&#x410;" horiz-adv-x="647" 
d="M472.5 23q-47.5 27 -64.5 103l-13 56h-266l-114 -182h-52l411 660h45l130 -534q24 -93 86 -100l-4 -25q-18 -5 -49 -5q-62 0 -109.5 27zM158 227h226l-64 261z" />
    <glyph glyph-name="uni0411" unicode="&#x411;" horiz-adv-x="637" 
d="M125 441.5q21 123.5 21 133.5q0 28 -13 41.5t-44 13.5h-10l5 30h439q73 0 73 -59q0 -9 -17 -106h-30q3 18 3 33q0 46 -27 66.5t-80 20.5h-159l-41 -235h90q118 0 191 -32.5t73 -119.5q0 -130 -95.5 -179t-235.5 -49h-220q56 318 77 441.5zM260 40q98 0 149 46.5t51 146.5
q0 56 -36 81.5t-112 25.5h-5q-29 0 -51 -5l-20 -5l-50 -280q9 -4 19 -5q22 -5 50 -5h5z" />
    <glyph glyph-name="uni0412" unicode="&#x412;" horiz-adv-x="646" 
d="M125 441q21 123 21 134q0 28 -13 41.5t-44 13.5h-10l5 30h270q115 0 191 -28.5t76 -113.5q0 -65 -47.5 -111.5t-119.5 -65.5q144 -15 144 -124q0 -115 -95.5 -166t-234.5 -51h-220q56 318 77 441zM316 361q46 0 83.5 19t60 54.5t22.5 83.5q0 54 -38.5 78t-96.5 24
q-28 0 -43 -4l-18 -3l-45 -252h75zM260 40q52 0 97 19t72.5 57.5t27.5 93.5q0 106 -149 106h-75l-47 -266q9 -4 19 -5q22 -5 50 -5h5z" />
    <glyph glyph-name="uni0413" unicode="&#x413;" horiz-adv-x="546" 
d="M125 441.5q21 123.5 21 133.5q0 28 -13 41.5t-44 13.5h-10l5 30h429q73 0 73 -59q0 -9 -17 -106h-30q3 18 3 33q0 46 -27 66.5t-80 20.5h-149l-108 -615h-130q56 318 77 441.5z" />
    <glyph glyph-name="uni0414" unicode="&#x414;" horiz-adv-x="697" 
d="M-46 10q2 15 13.5 25t26.5 10h35q65 100 105 219t66 266q5 27 5 45q0 28 -13 41.5t-44 13.5h-10l5 30h529l-109 -615h35q13 0 21.5 -8t8.5 -20q0 -6 -35 -201h-50q2 38 2 51q0 74 -23 103.5t-71 29.5h-324q-55 0 -92 -40t-66 -144h-49zM433 45l101 570h-220
q-36 -206 -77.5 -337t-103.5 -233h300z" />
    <glyph glyph-name="uni0415" unicode="&#x415;" horiz-adv-x="602" 
d="M125 441q21 123 21 134q0 28 -13 41.5t-44 13.5h-10l5 30h441q73 0 73 -58q0 -9 -17 -107h-30q3 18 3 33q0 87 -107 87h-161l-44 -250h260l-8 -45h-260l-49 -275h171q57 0 99.5 25.5t79.5 88.5l25 -10l-43 -79q-20 -37 -40.5 -53.5t-58.5 -16.5h-370q56 318 77 441z" />
    <glyph glyph-name="uni0416" unicode="&#x416;" horiz-adv-x="989" 
d="M-58 0l5 24q31 5 77 34t90 72l244 240l-107 184q-23 41 -58.5 56t-101.5 15l6 35h60q55 0 92.5 -28.5t65.5 -76.5l125 -215l57 320h131l-57 -320l201 215q46 49 93.5 77t102.5 28h60l-6 -35q-67 0 -106.5 -14.5t-79.5 -56.5l-171 -184l158 -240q28 -43 64.5 -72t67.5 -34
l-4 -24q-32 -10 -66 -10q-71 0 -122.5 27t-98.5 103l-102 165l-50 -285h-131l50 285l-160 -165q-74 -76 -135 -103t-132 -27q-32 0 -62 10z" />
    <glyph glyph-name="uni0417" unicode="&#x417;" horiz-adv-x="580" 
d="M79 13q-57 33 -90 102l34 25q30 -52 73.5 -83.5t112.5 -31.5q47 0 89 20.5t67.5 59.5t25.5 92q0 57 -39 87.5t-108 30.5h-85l8 45h85q40 0 81 19t68.5 57t27.5 91t-33 80.5t-75 27.5q-67 0 -121.5 -44t-87.5 -121h-31q11 59 20 89t30 51q31 31 90 50.5t113 19.5
q101 0 166.5 -29.5t65.5 -110.5q0 -62 -47.5 -117t-138.5 -78q77 -9 114 -49t37 -95q0 -80 -47.5 -129.5t-117.5 -70.5t-140 -21q-90 0 -147 33z" />
    <glyph glyph-name="uni0418" unicode="&#x418;" horiz-adv-x="712" 
d="M125 441.5q21 123.5 21 133.5q0 28 -13 41.5t-44 13.5h-10l5 30h120q40 0 57 -15t17 -52q0 -15 -13 -95.5t-65 -367.5l384 530h120l-116 -660h-130l93 530l-383 -530h-120q56 318 77 441.5z" />
    <glyph glyph-name="uni0419" unicode="&#x419;" horiz-adv-x="712" 
d="M125 441.5q21 123.5 21 133.5q0 28 -13 41.5t-44 13.5h-10l5 30h120q40 0 57 -15t17 -52q0 -15 -13 -95.5t-65 -367.5l384 530h120l-116 -660h-130l93 530l-383 -530h-120q56 318 77 441.5zM361 730.5q-32 25.5 -44 68.5l32 21q13 -21 39 -35.5t65 -14.5t69.5 14t52.5 36
l24 -21q-27 -43 -68.5 -68.5t-89.5 -25.5t-80 25.5z" />
    <glyph glyph-name="uni041A" unicode="&#x41a;" horiz-adv-x="694" 
d="M465.5 15.5q-53.5 25.5 -106.5 94.5l-131 168l-49 -278h-130q65 368 81 465.5t16 109.5q0 28 -13 41.5t-44 13.5h-10l5 30h120q40 0 57.5 -15t17.5 -53q0 -11 -9 -62t-14 -83l-18 -107l211 215q46 49 93.5 77t102.5 28h70l-6 -35q-62 0 -109 -15.5t-87 -55.5l-181 -184
l188 -240q32 -41 72.5 -71.5t68.5 -34.5l-4 -24q-32 -10 -75 -10q-63 0 -116.5 25.5z" />
    <glyph glyph-name="uni041B" unicode="&#x41b;" horiz-adv-x="682" 
d="M-56 -6l5 31q50 10 91.5 53t81.5 151t74 301q5 27 5 45q0 28 -13 41.5t-44 13.5h-10l5 30h535l-116 -660h-130l108 615h-216l-15 -85q-53 -300 -129 -422.5t-174 -122.5q-31 0 -58 9z" />
    <glyph glyph-name="uni041C" unicode="&#x41c;" horiz-adv-x="869" 
d="M659.5 -10q-41.5 35 -41.5 110q0 23 7 70l63 354l-311 -524h-33l-173 544l-95 -544h-50l116 660h122l155 -491l292 491h131l-87 -490q-11 -63 -11 -100q0 -80 51 -90l-4 -25q-90 0 -131.5 35z" />
    <glyph glyph-name="uni041D" unicode="&#x41d;" horiz-adv-x="723" 
d="M141 530q5 32 5 45q0 28 -13 41.5t-44 13.5h-10l5 30h120q40 0 57 -15t17 -52q0 -31 -7 -63l-29 -165h270l52 295h130l-94 -530q-4 -21 -4 -43q0 -28 13 -42.5t44 -14.5h10l-5 -30h-120q-40 0 -57 15.5t-17 53.5q0 25 6 61l34 190h-270l-56 -320h-130z" />
    <glyph glyph-name="uni041E" unicode="&#x41e;" horiz-adv-x="735" 
d="M168 15q-62 35 -95 97.5t-33 143.5q0 105 51 203t142.5 159.5t204.5 61.5q85 0 147 -35t95 -97.5t33 -143.5q0 -105 -51 -203t-142.5 -159.5t-204.5 -61.5q-85 0 -147 35zM467.5 92q57.5 67 84 162.5t26.5 183.5q0 95 -38 146t-110 51q-86 0 -143.5 -67.5t-84 -164
t-26.5 -182.5q0 -94 37.5 -145t109.5 -51q87 0 144.5 67z" />
    <glyph glyph-name="uni041F" unicode="&#x41f;" horiz-adv-x="692" 
d="M125 441.5q21 123.5 21 133.5q0 28 -13 41.5t-44 13.5h-10l5 30h600l-116 -660h-130l108 615h-260l-108 -615h-130q56 318 77 441.5z" />
    <glyph glyph-name="uni0420" unicode="&#x420;" horiz-adv-x="580" 
d="M125 441q21 123 21 134q0 28 -13 41.5t-44 13.5h-10l5 30h275q92 0 165.5 -33t73.5 -127q0 -72 -39 -124.5t-103 -80.5t-136 -28h-95l-47 -267h-130q56 318 77 441zM292 307q52 0 90 28.5t57.5 75t19.5 100.5q0 58 -30.5 83.5t-76.5 25.5q-29 0 -45 -4l-21 -3l-54 -306
h60z" />
    <glyph glyph-name="uni0421" unicode="&#x421;" horiz-adv-x="680" 
d="M163.5 13.5q-62.5 33.5 -94 94t-31.5 138.5q0 104 52.5 204.5t144 165t203.5 64.5q88 0 161 -29.5t73 -105.5q0 -38 -12 -98h-30q-2 92 -45 140t-125 48q-94 0 -158 -61t-94.5 -154t-30.5 -188q0 -94 42.5 -150.5t133.5 -56.5q70 0 135.5 37t112.5 106l30 -27
q-62 -84 -137 -122.5t-179 -38.5q-89 0 -151.5 33.5z" />
    <glyph glyph-name="uni0422" unicode="&#x422;" horiz-adv-x="577" 
d="M290 615h-71q-56 0 -90 -28t-46 -92h-30l15 85q7 36 29 58t70 22h470l-8 -45h-209l-108 -615h-130z" />
    <glyph glyph-name="uni0423" unicode="&#x423;" horiz-adv-x="617" 
d="M94 26q53 0 93.5 14.5t67.5 54.5l10 15l-131 420q-32 103 -105 110l4 20h100q55 0 91 -30t52 -80l89 -282l246 392h65l-356 -565q-31 -50 -77.5 -77.5t-104.5 -27.5h-50z" />
    <glyph glyph-name="uni0424" unicode="&#x424;" horiz-adv-x="824" 
d="M305 35q-136 0 -206.5 57.5t-70.5 161.5q0 101 46 178.5t131 120t198 42.5q1 4 2 10t1 14q0 51 -59 51h-10l5 30h120q41 0 58.5 -14.5t17.5 -47.5q0 -15 -5 -43q136 0 206 -58t70 -162q0 -101 -46 -178t-130.5 -119.5t-197.5 -42.5l-14 -75h-130zM395 550
q-71 -1 -122.5 -46t-78 -114t-26.5 -141q0 -78 36.5 -123.5t108.5 -45.5zM565.5 125.5q51.5 44.5 78 113.5t26.5 141q0 78 -36.5 124t-108.5 46l-82 -470q71 1 122.5 45.5z" />
    <glyph glyph-name="uni0425" unicode="&#x425;" horiz-adv-x="645" 
d="M268 311l-103 219q-19 41 -51 73.5t-64 36.5l4 20h110q51 0 86 -31.5t57 -78.5l64 -134l236 244h65l-280 -289l114 -241q19 -42 51 -74t64 -36l-3 -20h-110q-51 0 -86.5 32t-57.5 78l-74 156l-257 -266h-65z" />
    <glyph glyph-name="uni0426" unicode="&#x426;" horiz-adv-x="709" 
d="M557 -137q0 76 -23 106.5t-71 30.5h-415q56 318 77 441.5t21 133.5q0 28 -13 41.5t-44 13.5h-10l5 30h120q40 0 57 -15t17 -52q0 -10 -14 -92t-22 -129q-12 -66 -57 -327h260l109 615h130l-109 -615h35q13 0 21.5 -8t8.5 -20q0 -4 -35 -202h-50q2 38 2 48z" />
    <glyph glyph-name="uni0427" unicode="&#x427;" horiz-adv-x="660" 
d="M451 260q-23 -10 -58.5 -15t-73.5 -5q-217 0 -217 165q0 32 11 83q1 5 6 33t5 54q0 28 -13 41.5t-44 13.5h-10l5 30h120q40 0 57 -15t17 -52q0 -30 -12 -90q-13 -59 -13 -98q0 -58 31 -89t84 -31q60 0 113 20l63 355h130l-116 -660h-130z" />
    <glyph glyph-name="uni0428" unicode="&#x428;" horiz-adv-x="952" 
d="M125 441.5q21 123.5 21 133.5q0 28 -13 41.5t-44 13.5h-10l5 30h120q40 0 57 -15t17 -52q0 -10 -14 -92t-22 -129q-12 -66 -57 -327h195l109 615h130l-109 -615h195l109 615h130l-116 -660h-780q56 318 77 441.5z" />
    <glyph glyph-name="uni0429" unicode="&#x429;" horiz-adv-x="969" 
d="M817 -137q0 76 -23 106.5t-71 30.5h-675q56 318 77 441.5t21 133.5q0 28 -13 41.5t-44 13.5h-10l5 30h120q40 0 57 -15t17 -52q0 -10 -14 -92t-22 -129q-12 -66 -57 -327h195l109 615h130l-109 -615h195l109 615h130l-109 -615h35q13 0 21.5 -8t8.5 -20q0 -4 -35 -202
h-50q2 38 2 48z" />
    <glyph glyph-name="uni042A" unicode="&#x42a;" horiz-adv-x="720" 
d="M248 615h-11q-57 0 -90.5 -36t-51.5 -119h-40l29 165q2 15 13.5 25t27.5 10h261l-48 -270h90q114 0 189 -36.5t75 -122.5q0 -126 -98 -178.5t-234 -52.5h-220zM352 40q97 0 149 51t52 145q0 57 -36 85.5t-111 28.5h-5q-29 0 -51 -5q-14 -4 -21 -5l-51 -290q9 -4 19 -5
q22 -5 50 -5h5z" />
    <glyph glyph-name="uni042B" unicode="&#x42b;" horiz-adv-x="897" 
d="M125 441.5q21 123.5 21 133.5q0 28 -13 41.5t-44 13.5h-10l5 30h120q40 0 57 -15t17 -52q0 -13 -7 -58.5t-25 -144.5h80q114 0 189 -36.5t75 -122.5q0 -126 -98 -178.5t-234 -52.5h-210q56 318 77 441.5zM654.5 15.5q-17.5 15.5 -17.5 53.5q0 16 17 117.5t84 473.5h130
l-48 -272q-9 -50 -30 -171t-21 -130q0 -28 13 -42.5t45 -14.5h10l-5 -30h-120q-40 0 -57.5 15.5zM399 91q52 51 52 145q0 57 -36 85.5t-111 28.5q-27 0 -47 -5l-20 -5l-51 -290q9 -4 18 -5q20 -5 46 -5q97 0 149 51z" />
    <glyph glyph-name="uni042C" unicode="&#x42c;" horiz-adv-x="628" 
d="M125 441.5q21 123.5 21 133.5q0 28 -13 41.5t-44 13.5h-10l5 30h120q40 0 57 -15t17 -52q0 -13 -7 -58.5t-25 -144.5h90q114 0 189 -36.5t75 -122.5q0 -126 -98 -178.5t-234 -52.5h-220q56 318 77 441.5zM260 40q97 0 149 51t52 145q0 57 -36 85.5t-111 28.5h-5
q-29 0 -51 -5q-14 -4 -21 -5l-51 -290q9 -4 19 -5q22 -5 50 -5h5z" />
    <glyph glyph-name="uni042D" unicode="&#x42d;" horiz-adv-x="680" 
d="M94.5 18.5q-61.5 38.5 -94.5 122.5l40 27q24 -69 76 -106t122 -37q110 0 178 81t92 204h-310l8 45h309q6 44 6 79q0 201 -176 201q-163 0 -236 -188h-30q8 53 20 91.5t33 60.5q38 36 101 58.5t150 22.5q81 0 143 -37t96 -102.5t34 -147.5q0 -113 -51 -207.5t-141.5 -150
t-203.5 -55.5q-104 0 -165.5 38.5z" />
    <glyph glyph-name="uni042E" unicode="&#x42e;" horiz-adv-x="920" 
d="M400.5 13.5q-55.5 33.5 -86.5 94.5t-31 142q0 34 6 70h-55l-56 -320h-130q56 318 77 441.5t21 133.5q0 28 -13 41.5t-44 13.5h-10l5 30h120q40 0 57 -15t17 -52q0 -12 -8.5 -65t-12.5 -75l-15 -88h56q24 93 77 164.5t125.5 111t151.5 39.5q72 0 128 -33.5t86.5 -95
t30.5 -142.5q0 -121 -52.5 -219t-137.5 -154t-178 -56q-73 0 -128.5 33.5zM648.5 87.5q52.5 62.5 83.5 160.5t31 198q0 93 -32 141t-87 48q-59 0 -111 -63.5t-83 -162.5t-31 -198q0 -92 31.5 -139t86.5 -47q59 0 111.5 62.5z" />
    <glyph glyph-name="uni042F" unicode="&#x42f;" horiz-adv-x="631" 
d="M-10 -13q-20 3 -27 7l4 25q61 8 143 110l122 151q-54 11 -93.5 50t-39.5 99q0 88 51 139.5t121.5 71.5t135.5 20h276l-5 -30h-10q-42 0 -61.5 -25t-26.5 -75l-93 -530h-131l47 272h-44l-115 -143q-63 -78 -114 -111.5t-101 -33.5q-19 0 -39 3zM411 312l53 301l-20 3
q-16 4 -44 4q-34 0 -71.5 -22t-63.5 -65t-26 -103q0 -57 33.5 -87.5t78.5 -30.5h60z" />
    <glyph glyph-name="uni0430" unicode="&#x430;" horiz-adv-x="550" 
d="M68 40q-44 50 -44 130q0 72 31.5 144t91 119t137.5 47q52 0 82 -28q15 -13 23 -27h5l43 45h85l-65 -370l-17 -100h-85l-28 45h-5q-12 -15 -32 -28q-38 -27 -92 -27q-86 0 -130 50zM264 43.5q17 8.5 35 23.5q15 13 28 33l48 270q-6 18 -17 32q-25 33 -62 33
q-48 0 -79.5 -51.5t-46 -120.5t-14.5 -119q0 -109 70 -109q21 0 38 8.5z" />
    <glyph glyph-name="uni0431" unicode="&#x431;" horiz-adv-x="550" 
d="M86.5 38.5q-50.5 48.5 -50.5 138.5q0 122 37 216t94 150t117 70l144 32q49 11 73.5 21.5t30.5 28.5h30l-14 -80q-8 -51 -72 -65l-170 -37q-68 -15 -118 -65t-69 -138h5q35 63 84.5 96.5t118.5 33.5q81 0 128.5 -41.5t47.5 -124.5q0 -94 -36.5 -158t-99 -95t-139.5 -31
q-91 0 -141.5 48.5zM311.5 78q29.5 43 43.5 101.5t14 105.5q0 58 -21 84t-49 26q-46 0 -76 -43t-44 -102t-14 -106q0 -58 21 -83.5t50 -25.5q46 0 75.5 43z" />
    <glyph glyph-name="uni0432" unicode="&#x432;" horiz-adv-x="528" 
d="M74 270q18 109 18 115q0 28 -13 41.5t-44 13.5h-5l5 30h268q85 0 134 -26t49 -76q0 -52 -39 -83t-108 -40q59 -7 93.5 -32t34.5 -66q0 -74 -66.5 -110.5t-179.5 -36.5h-193zM240 270q44 0 77 26.5t33 69.5q0 31 -21 47.5t-51 16.5q-24 0 -46 -7l-27 -153h35zM297 69
q35 29 35 82q0 36 -26 55t-74 19h-35l-31 -178q21 -7 44 -7q52 0 87 29z" />
    <glyph glyph-name="uni0433" unicode="&#x433;" horiz-adv-x="450" 
d="M36.5 19q-50.5 29 -50.5 82q0 59 41.5 97t125.5 70l64 25q43 17 64 36.5t21 51.5q0 25 -18 39.5t-56 14.5q-57 0 -95 -32t-55 -83h-35q11 64 30 97t61 48t122 15q77 0 123 -28.5t46 -81.5q0 -55 -40.5 -94.5t-114.5 -69.5l-56 -22q-54 -20 -79.5 -41t-25.5 -54
q0 -54 89 -54q57 0 94 31.5t56 83.5h35q-11 -64 -30 -97t-61 -48t-122 -15q-83 0 -133.5 29z" />
    <glyph glyph-name="uni0434" unicode="&#x434;" horiz-adv-x="562" 
d="M76.5 40.5q-51.5 50.5 -51.5 134.5q0 80 35 147.5t98.5 107.5t143.5 40q50 0 87 -21t49 -59q2 26 2 39q0 85 -36.5 135.5t-115.5 50.5q-37 0 -78 -13.5t-62 -25.5l-17 42q26 18 78 35t109 17q108 0 159.5 -74.5t51.5 -196.5q0 -121 -34.5 -213.5t-102 -144t-164.5 -51.5
q-100 0 -151.5 50.5zM319.5 84q38.5 49 55.5 145q6 36 6 71q0 55 -18.5 90t-58.5 35q-44 0 -77.5 -43.5t-51 -107t-17.5 -119.5q0 -60 21 -90t57 -30q45 0 83.5 49z" />
    <glyph glyph-name="uni0435" unicode="&#x435;" horiz-adv-x="508" 
d="M76 43q-51 53 -51 139q0 77 34.5 145.5t98 110.5t145.5 42q89 0 138 -32.5t49 -89.5q0 -80 -67 -119t-159 -39h-105q-6 -31 -6 -56q0 -54 23 -81.5t64 -27.5q48 0 84 21.5t73 61.5l27 -23q-37 -45 -85.5 -75t-121.5 -30q-90 0 -141 53zM272 245q37 0 60 37t23 80
q0 36 -17.5 54.5t-42.5 18.5q-96 0 -128 -190h105z" />
    <glyph glyph-name="uni0436" unicode="&#x436;" horiz-adv-x="741" 
d="M-19.5 -7q-20.5 3 -27.5 7l4 24q50 12 106 76l155 176l-67 118q-15 26 -37.5 38t-53.5 12l4 26h20q51 0 79.5 -18t51.5 -59l85 -148l39 225h130l-39 -225l137 148q39 41 73 59t84 18h20l-4 -26q-63 0 -109 -50l-109 -118l93 -176q34 -64 80 -76l-4 -24q-8 -4 -30 -7
t-41 -3q-44 0 -75.5 20.5t-57.5 69.5l-65 123l-35 -203h-130l35 203l-107 -123q-44 -49 -82.5 -69.5t-82.5 -20.5q-19 0 -39.5 3z" />
    <glyph glyph-name="uni0437" unicode="&#x437;" horiz-adv-x="461" 
d="M-6 70l34 25q17 -25 43 -42.5t72 -17.5q54 0 88.5 29t34.5 88q0 35 -24 51.5t-82 16.5h-50l8 45h50q64 0 93 24t29 80q0 33 -22 49.5t-55 16.5q-45 0 -81.5 -30.5t-47.5 -79.5h-30q11 55 19 79t27 41q21 18 59.5 26.5t86.5 8.5q84 0 131.5 -27t47.5 -80
q0 -54 -38.5 -89.5t-102.5 -43.5q54 -7 85 -33.5t31 -65.5q0 -76 -66 -113.5t-169 -37.5q-123 0 -171 80z" />
    <glyph glyph-name="uni0438" unicode="&#x438;" horiz-adv-x="567" 
d="M85.5 20.5q-38.5 30.5 -38.5 98.5q0 14 7.5 62t26.5 159q5 32 5 45q0 28 -13 41.5t-44 13.5h-10l5 30h120q40 0 57 -15t17 -52q0 -31 -7 -63q-19 -113 -27 -163.5t-8 -62.5q0 -43 16.5 -61t50.5 -18q21 0 38 8.5t35 23.5q15 13 28 33l65 370h130l-82 -470h-85l-28 45h-5
q-14 -14 -37 -28q-43 -27 -97 -27q-81 0 -119.5 30.5z" />
    <glyph glyph-name="uni0439" unicode="&#x439;" horiz-adv-x="567" 
d="M85.5 20.5q-38.5 30.5 -38.5 98.5q0 14 7.5 62t26.5 159q5 32 5 45q0 28 -13 41.5t-44 13.5h-10l5 30h120q40 0 57 -15t17 -52q0 -31 -7 -63q-19 -113 -27 -163.5t-8 -62.5q0 -43 16.5 -61t50.5 -18q21 0 38 8.5t35 23.5q15 13 28 33l65 370h130l-82 -470h-85l-28 45h-5
q-14 -14 -37 -28q-43 -27 -97 -27q-81 0 -119.5 30.5zM238 535.5q-32 25.5 -44 68.5l32 21q13 -21 39 -35.5t65 -14.5t69.5 14t52.5 36l24 -21q-27 -43 -68.5 -68.5t-89.5 -25.5t-80 25.5z" />
    <glyph glyph-name="uni043A" unicode="&#x43a;" horiz-adv-x="527" 
d="M328.5 8.5q-33.5 18.5 -57.5 61.5l-74 126l-34 -196h-130l46 270q18 109 18 115q0 28 -13 41.5t-44 13.5h-10l5 30h120q40 0 57 -15t17 -52q0 -16 -11 -84l-12 -74l147 148q41 41 74.5 59t82.5 18h20l-4 -26q-30 0 -56.5 -12t-52.5 -38l-118 -118l102 -176q37 -67 80 -76
l-4 -24q-8 -4 -30 -7t-41 -3q-44 0 -77.5 18.5z" />
    <glyph glyph-name="uni043B" unicode="&#x43b;" horiz-adv-x="569" 
d="M-17 -12q-17 3 -26 6l5 29q41 6 72.5 34.5t59.5 98.5t51 194q3 18 3 34q0 27 -14 41.5t-48 14.5l5 30h450l-82 -470h-130l74 425h-141l-13 -75q-34 -193 -93.5 -279t-140.5 -86q-15 0 -32 3z" />
    <glyph glyph-name="uni043C" unicode="&#x43c;" horiz-adv-x="669" 
d="M479.5 9q-41.5 34 -41.5 105q0 16 6 57.5t30 172.5l-204 -344h-33l-112 354l-62 -353h-50l82 469h122l95 -301l185 311h131q-42 -240 -53 -308t-11 -88q0 -73 53 -84l-5 -25q-91 0 -132.5 34z" />
    <glyph glyph-name="uni043D" unicode="&#x43d;" horiz-adv-x="583" 
d="M79 270q18 109 18 115q0 28 -13 41.5t-44 13.5h-10l5 30h120q40 0 57 -15t17 -52q0 -28 -21 -143h160l37 210h130q-65 -361 -65 -383q0 -28 13 -42.5t45 -14.5h10l-5 -30h-120q-40 0 -57.5 15.5t-17.5 53.5q0 12 5 45.5t17 100.5h-160l-37 -215h-130z" />
    <glyph glyph-name="uni043E" unicode="&#x43e;" horiz-adv-x="553" 
d="M77 43.5q-53 53.5 -53 140.5q0 75 37.5 143.5t103.5 110.5t147 42q96 0 149 -53.5t53 -140.5q0 -75 -37.5 -143.5t-103.5 -110.5t-147 -42q-96 0 -149 53.5zM317 82.5q33 47.5 48.5 113t15.5 117.5q0 58 -19 90t-58 32q-50 0 -83 -47.5t-48.5 -113t-15.5 -117.5
q0 -58 19 -90t58 -32q50 0 83 47.5z" />
    <glyph glyph-name="uni043F" unicode="&#x43f;" horiz-adv-x="577" 
d="M91 340q5 32 5 47q0 26 -12.5 39.5t-43.5 13.5h-10l5 30h99q34 0 52 -8.5t26 -28.5q55 47 154 47q82 0 122.5 -32t40.5 -100q0 -20 -5 -52l-52 -296h-130l52 297q4 20 4 46q0 87 -76 87q-31 0 -56 -8.5t-41 -22.5q1 -7 1 -20q0 -18 -3 -33l-61 -346h-130z" />
    <glyph glyph-name="uni0440" unicode="&#x440;" horiz-adv-x="569" 
d="M75 252q21 123 21 134q0 28 -12.5 41t-43.5 13h-10l5 30h99q35 0 53 -9.5t24 -32.5q64 52 145 52q85 0 129 -50t44 -133q0 -79 -33 -149.5t-93 -114t-138 -43.5q-42 0 -74 15q-16 6 -26 15l-37 -210h-130q56 319 77 442zM337 87q32 52 46 120t14 119q0 53 -16 81t-53 28
q-56 0 -104 -41v-5l1 -14q0 -18 -52 -310q9 -9 21 -15q28 -15 59 -15q52 0 84 52z" />
    <glyph glyph-name="uni0441" unicode="&#x441;" horiz-adv-x="498" 
d="M76 42.5q-51 52.5 -51 137.5q0 82 36 150.5t101.5 109t150.5 40.5q68 0 115 -14.5t47 -65.5q0 -28 -13 -95h-30q1 8 1 24q0 53 -29 79.5t-84 26.5q-56 0 -92.5 -46t-53.5 -110.5t-17 -121.5q0 -122 98 -122q48 0 84 21.5t73 61.5l27 -23q-38 -46 -86.5 -75.5
t-125.5 -29.5q-100 0 -151 52.5z" />
    <glyph glyph-name="uni0442" unicode="&#x442;" horiz-adv-x="827" 
d="M78 272q18 108 18 114q0 28 -12.5 41t-43.5 13h-10l5 30h99q67 0 79 -38h4q62 48 134 48q49 0 81 -18.5t47 -38.5q28 26 63.5 41.5t88.5 15.5q148 0 148 -132q0 -15 -9.5 -74.5t-47.5 -273.5h-130q38 214 47.5 274t9.5 74q0 82 -62 82q-27 0 -51.5 -10.5t-40.5 -27.5
l2 -9q3 -21 3 -29q0 -13 -12.5 -89.5t-45.5 -264.5h-130q38 214 47.5 274t9.5 74q0 82 -62 82q-21 0 -45.5 -12.5t-38.5 -27.5v-5q0 -2 0.5 -5t0.5 -10q0 -29 -62 -370h-130q41 242 46 272z" />
    <glyph glyph-name="uni0443" unicode="&#x443;" horiz-adv-x="509" 
d="M10 -165q55 0 92 21t70 76l30 54l-110 394q-11 38 -30 57t-49 23l3 20h88q44 0 74.5 -21.5t41.5 -58.5l71 -252l178 322h53l-296 -535q-44 -78 -85 -106.5t-97 -28.5h-40z" />
    <glyph glyph-name="uni0444" unicode="&#x444;" horiz-adv-x="706" 
d="M238 -10q-102 7 -157 59t-55 137q0 79 37.5 144t105 105t155.5 45l5 33q9 51 9 62q0 28 -13 41.5t-44 13.5h-10l5 30h120q40 0 57 -15t17 -52q0 -21 -16 -113q102 -7 156.5 -59.5t54.5 -136.5q0 -79 -37 -144t-105 -105t-155 -45l-32 -180h-130zM323 445q-36 -7 -74 -41
t-63.5 -93.5t-25.5 -139.5q0 -63 25 -100t64 -46zM443 65q38 34 63.5 94t25.5 140q0 63 -25 101t-64 45l-74 -420q36 6 74 40z" />
    <glyph glyph-name="uni0445" unicode="&#x445;" horiz-adv-x="497" 
d="M180 209l-67 161q-15 35 -35.5 55.5t-43.5 24.5l3 20h95q46 0 72 -20t42 -60l34 -81l159 161h67l-205 -208l68 -162q15 -35 35.5 -55.5t43.5 -24.5l-3 -20h-95q-46 0 -72 20t-42 60l-35 81l-159 -161h-67z" />
    <glyph glyph-name="uni0446" unicode="&#x446;" horiz-adv-x="573" 
d="M446 -114q0 40 -9.5 63t-22.5 33t-33 18q-21 9 -30.5 17.5t-11.5 27.5h-4q-23 -23 -57 -39t-77 -16q-81 0 -119.5 30.5t-38.5 98.5q0 30 5 55l29 166q5 27 5 45q0 28 -13 41.5t-44 13.5h-10l5 30h120q40 0 57 -15t17 -52q1 -15 -2.5 -36.5t-4.5 -26.5l-29 -167
q-6 -34 -6 -59q0 -43 16.5 -61t50.5 -18q32 0 58 19.5t43 45.5l65 370h130l-75 -425h30q13 0 21.5 -8t8.5 -20l-1 -7l-30 -170h-45q2 34 2 46z" />
    <glyph glyph-name="uni0447" unicode="&#x447;" horiz-adv-x="553" 
d="M344 178q-46 -18 -93 -18q-75 0 -121 29t-46 89q0 17 6 51q7 32 7 56q0 28 -13 41.5t-44 13.5h-10l5 30h120q40 0 57 -15t17 -52q0 -17 -3 -37t-4 -25q-8 -42 -8 -65q0 -71 68 -71q22 0 37 3.5t32 12.5l44 249h130l-82 -470h-130z" />
    <glyph glyph-name="uni0448" unicode="&#x448;" horiz-adv-x="818" 
d="M80.5 21.5q-37.5 31.5 -37.5 99.5q0 28 5 53l29 166q5 27 5 45q0 28 -13 41.5t-44 13.5h-10l5 30h120q40 0 57 -15t17 -52q0 -19 -7 -63l-29 -167q-5 -32 -5 -51q0 -82 62 -82q27 0 51.5 10.5t40.5 27.5q-5 15 -5 37t6 59l52 296h130l-52 -297q-6 -33 -6 -57
q0 -81 56 -81q19 0 45.5 19t41.5 46l65 370h130l-82 -470h-85l-28 45h-5q-30 -27 -57 -41t-68 -14q-46 0 -79 19t-43 38q-29 -26 -64.5 -41.5t-87.5 -15.5q-73 0 -110.5 31.5z" />
    <glyph glyph-name="uni0449" unicode="&#x449;" horiz-adv-x="828" 
d="M701 -114q0 40 -9.5 63t-22.5 33t-33 18q-21 9 -30.5 17.5t-11.5 27.5h-4q-30 -27 -57 -41t-68 -14q-46 0 -79 19t-43 38q-29 -26 -64.5 -41.5t-87.5 -15.5q-73 0 -110.5 31.5t-37.5 99.5q0 28 5 53l29 166q5 27 5 45q0 28 -13 41.5t-44 13.5h-10l5 30h120q40 0 57 -15
t17 -52q0 -19 -7 -63l-29 -167q-5 -32 -5 -51q0 -82 62 -82q27 0 51.5 10.5t40.5 27.5q-5 15 -5 37t6 59l52 296h130l-52 -297q-6 -33 -6 -57q0 -81 56 -81q19 0 45.5 19t41.5 46l65 370h130l-75 -425h30q13 0 21.5 -8t8.5 -20l-1 -7l-30 -170h-45q2 34 2 46z" />
    <glyph glyph-name="uni044A" unicode="&#x44a;" horiz-adv-x="597" 
d="M193 425q-52 -4 -80 -36t-43 -99h-40l25 145q2 15 14 25t27 10h235l-33 -190h75q86 0 134 -30t48 -86q0 -76 -64.5 -120t-166.5 -44h-205zM386 70q35 30 35 98q0 72 -85 72q-25 0 -46 -7l-33 -186q21 -7 44 -7q50 0 85 30z" />
    <glyph glyph-name="uni044B" unicode="&#x44b;" horiz-adv-x="743" 
d="M79 270q18 109 18 115q0 28 -13 41.5t-44 13.5h-10l5 30h120q40 0 57 -15t17 -52q0 -16 -9 -73l-8 -50h65q86 0 134 -30t48 -86q0 -76 -64.5 -120t-166.5 -44h-195zM515.5 15.5q-17.5 15.5 -17.5 53.5q0 13 14.5 100t52.5 301h130q-65 -361 -65 -383q0 -28 13 -42.5
t45 -14.5h10l-5 -30h-120q-40 0 -57.5 15.5zM291.5 70.5q33.5 30.5 33.5 97.5q0 38 -21 55t-54 17q-25 0 -46 -7l-33 -186q21 -7 44 -7q43 0 76.5 30.5z" />
    <glyph glyph-name="uni044C" unicode="&#x44c;" horiz-adv-x="494" 
d="M79 270q18 109 18 115q0 28 -13 41.5t-44 13.5h-10l5 30h120q40 0 57 -15t17 -52q0 -16 -9 -73l-8 -50h75q86 0 134 -30t48 -86q0 -76 -64.5 -120t-166.5 -44h-205zM300 70q35 30 35 98q0 72 -85 72q-25 0 -46 -7l-33 -186q21 -7 44 -7q50 0 85 30z" />
    <glyph glyph-name="uni044D" unicode="&#x44d;" horiz-adv-x="504" 
d="M60 20q-39 30 -60 75l35 23q24 -41 52 -62t77 -21q116 0 155 175h-189l7 45h189q4 25 4 53q0 63 -24 95t-67 32q-61 0 -102 -33.5t-56 -96.5h-30q11 65 20.5 94.5t29.5 45.5q41 35 161 35q100 0 151 -52.5t51 -138.5q0 -79 -35.5 -147.5t-101 -110t-151.5 -41.5
q-77 0 -116 30z" />
    <glyph glyph-name="uni044E" unicode="&#x44e;" horiz-adv-x="738" 
d="M288 44q-50 54 -50 141q0 8 2 30h-40l-37 -215h-130l46 270q18 109 18 115q0 28 -13 41.5t-44 13.5h-10l5 30h120q40 0 57 -15t17 -52q0 -28 -21 -143h41q16 62 54 112t92.5 79t116.5 29q86 0 136 -54t50 -140q0 -79 -37 -147t-99.5 -108.5t-135.5 -40.5q-88 0 -138 54z
M503.5 82q30.5 47 47 114.5t16.5 125.5q0 53 -16 83t-47 30q-34 0 -65 -39.5t-49.5 -105.5t-18.5 -142q0 -54 15.5 -83.5t47.5 -29.5q39 0 69.5 47z" />
    <glyph glyph-name="uni044F" unicode="&#x44f;" horiz-adv-x="531" 
d="M-32 -5l3 26q47 6 98 74l79 104q-45 7 -70 34.5t-25 67.5q0 87 69 128t178 41h260l-5 -30h-5q-42 0 -61.5 -25t-26.5 -75l-59 -340h-130l34 194h-44l-81 -119q-32 -47 -66 -68.5t-86 -21.5q-36 0 -62 10zM301.5 238.5q12.5 3.5 13.5 3.5l32 181q-2 0 -14.5 3.5t-29.5 3.5
q-46 0 -80 -29.5t-34 -91.5q0 -37 22.5 -55.5t57.5 -18.5q20 0 32.5 3.5z" />
    <glyph glyph-name="uni0450" unicode="&#x450;" horiz-adv-x="508" 
d="M76 43q-51 53 -51 139q0 77 34.5 145.5t98 110.5t145.5 42q89 0 138 -32.5t49 -89.5q0 -80 -67 -119t-159 -39h-105q-6 -31 -6 -56q0 -54 23 -81.5t64 -27.5q48 0 84 21.5t73 61.5l27 -23q-37 -45 -85.5 -75t-121.5 -30q-90 0 -141 53zM272 245q37 0 60 37t23 80
q0 36 -17.5 54.5t-42.5 18.5q-96 0 -128 -190h105zM269 525l-81 140h119l17 -140h-55z" />
    <glyph glyph-name="uni0451" unicode="&#x451;" horiz-adv-x="508" 
d="M76 43q-51 53 -51 139q0 77 34.5 145.5t98 110.5t145.5 42q89 0 138 -32.5t49 -89.5q0 -80 -67 -119t-159 -39h-105q-6 -31 -6 -56q0 -54 23 -81.5t64 -27.5q48 0 84 21.5t73 61.5l27 -23q-37 -45 -85.5 -75t-121.5 -30q-90 0 -141 53zM272 245q37 0 60 37t23 80
q0 36 -17.5 54.5t-42.5 18.5q-96 0 -128 -190h105zM181 547.5q-12 12.5 -12 31.5q0 27 19.5 47.5t47.5 20.5q23 0 35 -12.5t12 -33.5q0 -26 -20 -46t-47 -20q-23 0 -35 12.5zM361 547.5q-12 12.5 -12 31.5q0 27 19.5 47.5t47.5 20.5q23 0 35 -12.5t12 -33.5q0 -26 -20 -46
t-47 -20q-23 0 -35 12.5z" />
    <glyph glyph-name="uni0452" unicode="&#x452;" horiz-adv-x="547" 
d="M208 -115q44 8 71 48t42 122l10 57q17 96 23.5 137.5t6.5 51.5q0 79 -62 79q-22 0 -48.5 -13t-50.5 -35l-58 -332h-130l87 495h-70l8 45h70l10 60l61 60h80l-21 -120h150l-8 -45h-150l-20 -115q26 23 60 36.5t68 13.5q154 0 154 -130q0 -9 -4.5 -39t-13 -78t-14.5 -84
l-8 -44q-17 -99 -78 -147t-169 -48z" />
    <glyph glyph-name="uni0453" unicode="&#x453;" horiz-adv-x="450" 
d="M36.5 19q-50.5 29 -50.5 82q0 59 41.5 97t125.5 70l64 25q43 17 64 36.5t21 51.5q0 25 -18 39.5t-56 14.5q-57 0 -95 -32t-55 -83h-35q11 64 30 97t61 48t122 15q77 0 123 -28.5t46 -81.5q0 -55 -40.5 -94.5t-114.5 -69.5l-56 -22q-54 -20 -79.5 -41t-25.5 -54
q0 -54 89 -54q57 0 94 31.5t56 83.5h35q-11 -64 -30 -97t-61 -48t-122 -15q-83 0 -133.5 29zM232 525l67 140h119l-131 -140h-55z" />
    <glyph glyph-name="uni0454" unicode="&#x454;" horiz-adv-x="504" 
d="M76 42.5q-51 52.5 -51 137.5q0 79 35.5 148t101 110.5t151.5 41.5q87 0 124.5 -17t37.5 -63q0 -28 -13 -95h-30q1 8 1 24q0 51 -29.5 78.5t-83.5 27.5q-52 0 -91.5 -45.5t-59.5 -134.5h189l-7 -45h-189q-4 -27 -4 -54q0 -121 97 -121q48 0 84 21.5t73 61.5l27 -23
q-38 -46 -86.5 -75.5t-125.5 -29.5q-100 0 -151 52.5z" />
    <glyph glyph-name="uni0455" unicode="&#x455;" horiz-adv-x="469" 
d="M62.5 6q-49.5 16 -49.5 69q0 25 9 75h35v-3q0 -51 27 -81.5t83 -30.5q43 0 78 18t35 58q0 23 -19.5 39t-57.5 34l-48 22q-52 25 -78.5 53t-26.5 66q0 51 31.5 86t81 52t102.5 17q67 0 116.5 -16t49.5 -69q0 -25 -9 -75h-35v3q0 51 -27 81.5t-83 30.5q-38 0 -68 -20.5
t-30 -58.5q0 -21 14.5 -35.5t44.5 -27.5l56 -25q60 -26 87.5 -53.5t27.5 -67.5q0 -53 -34 -88.5t-87 -52t-109 -16.5q-67 0 -116.5 16z" />
    <glyph glyph-name="uni0456" unicode="&#x456;" horiz-adv-x="271" 
d="M143 541q-16 17 -16 43q0 29 18.5 50.5t47.5 21.5q31 0 47 -17t16 -43q0 -32 -16.5 -52t-49.5 -20q-31 0 -47 17zM92 340q5 32 5 45q0 28 -13 41.5t-44 13.5h-10l5 30h120q40 0 57 -15t17 -52q0 -19 -7 -63l-59 -340h-130z" />
    <glyph glyph-name="uni0457" unicode="&#x457;" horiz-adv-x="271" 
d="M65 551q-16 17 -16 43q0 29 18.5 50.5t47.5 21.5q31 0 47 -17t16 -43q0 -29 -18.5 -50.5t-47.5 -21.5q-31 0 -47 17zM250 551q-16 17 -16 43q0 29 18.5 50.5t47.5 21.5q31 0 47 -17t16 -43q0 -29 -18.5 -50.5t-47.5 -21.5q-31 0 -47 17zM81 283q16 91 16 102
q0 28 -13 41.5t-44 13.5h-10l5 30h120q40 0 57 -15t17 -52q0 -15 -11 -83.5t-55 -319.5h-130z" />
    <glyph glyph-name="uni0458" unicode="&#x458;" horiz-adv-x="270" 
d="M143 541q-16 17 -16 43q0 29 18.5 50.5t47.5 21.5q31 0 47 -17t16 -43q0 -29 -18.5 -50.5t-47.5 -21.5q-31 0 -47 17zM-84 -165q48 9 76 50.5t45 139.5l47 275q13 75 13 85q0 28 -13 41.5t-44 13.5h-10l5 30h120q40 0 57 -15t17 -52q0 -14 -10.5 -80t-51.5 -298
q-15 -84 -43 -130t-78 -65.5t-134 -19.5z" />
    <glyph glyph-name="uni0459" unicode="&#x459;" horiz-adv-x="795" 
d="M-17 -12q-17 3 -26 6l5 29q41 6 72.5 34.5t59.5 98.5t51 194q3 18 3 34q0 27 -14 41.5t-48 14.5l5 30h438l-33 -190h75q86 0 134 -30t48 -86q0 -76 -64.5 -120t-166.5 -44h-205l74 425h-129l-13 -75q-34 -193 -93.5 -279t-140.5 -86q-15 0 -32 3zM584 70q35 30 35 98
q0 72 -85 72q-25 0 -46 -7l-33 -186q21 -7 44 -7q50 0 85 30z" />
    <glyph glyph-name="uni045A" unicode="&#x45a;" horiz-adv-x="789" 
d="M79 270q18 109 18 115q0 28 -13 41.5t-44 13.5h-10l5 30h120q40 0 57 -15t17 -52q0 -13 -4.5 -44t-14.5 -89h150l35 200h130l-35 -200h75q87 0 135 -29.5t48 -83.5q0 -73 -64 -115t-166 -42h-205l39 225h-150l-39 -225h-130zM579 68.5q34 28.5 34 91.5q0 37 -23 53.5
t-62 16.5q-24 0 -46 -7l-31 -176q21 -7 44 -7q50 0 84 28.5z" />
    <glyph glyph-name="uni045B" unicode="&#x45b;" horiz-adv-x="548" 
d="M99 495h-70l8 45h70l10 60l61 60h80l-21 -120h100l-8 -45h-100l-20 -115q26 23 60 36.5t68 13.5q154 0 154 -130q0 -27 -49 -300h-130q32 182 40.5 235t8.5 66q0 79 -62 79q-22 0 -48.5 -13t-50.5 -35l-58 -332h-130z" />
    <glyph glyph-name="uni045C" unicode="&#x45c;" horiz-adv-x="527" 
d="M328.5 8.5q-33.5 18.5 -57.5 61.5l-74 126l-34 -196h-130l46 270q18 109 18 115q0 28 -13 41.5t-44 13.5h-10l5 30h120q40 0 57 -15t17 -52q0 -16 -11 -84l-12 -74l147 148q41 41 74.5 59t82.5 18h20l-4 -26q-30 0 -56.5 -12t-52.5 -38l-118 -118l102 -176q37 -67 80 -76
l-4 -24q-8 -4 -30 -7t-41 -3q-44 0 -77.5 18.5zM282 525l67 140h119l-131 -140h-55z" />
    <glyph glyph-name="uni045D" unicode="&#x45d;" horiz-adv-x="567" 
d="M85.5 20.5q-38.5 30.5 -38.5 98.5q0 14 7.5 62t26.5 159q5 32 5 45q0 28 -13 41.5t-44 13.5h-10l5 30h120q40 0 57 -15t17 -52q0 -31 -7 -63q-19 -113 -27 -163.5t-8 -62.5q0 -43 16.5 -61t50.5 -18q21 0 38 8.5t35 23.5q15 13 28 33l65 370h130l-82 -470h-85l-28 45h-5
q-14 -14 -37 -28q-43 -27 -97 -27q-81 0 -119.5 30.5zM279 525l-81 140h119l17 -140h-55z" />
    <glyph glyph-name="uni045E" unicode="&#x45e;" horiz-adv-x="509" 
d="M10 -165q55 0 92 21t70 76l30 54l-110 394q-11 38 -30 57t-49 23l3 20h88q44 0 74.5 -21.5t41.5 -58.5l71 -252l178 322h53l-296 -535q-44 -78 -85 -106.5t-97 -28.5h-40zM244 535.5q-32 25.5 -44 68.5l32 21q13 -21 39 -35.5t65 -14.5t69.5 14t52.5 36l24 -21
q-27 -43 -68.5 -68.5t-89.5 -25.5t-80 25.5z" />
    <glyph glyph-name="uni045F" unicode="&#x45f;" horiz-adv-x="563" 
d="M198 0h-165l46 270q18 109 18 115q0 28 -13 41.5t-44 13.5h-10l5 30h120q40 0 57 -15t17 -52q0 -13 -13 -91.5t-46 -266.5h160l75 425h130l-82 -470h-165l-42 -150h-60z" />
    <glyph glyph-name="uni0462" unicode="&#x462;" horiz-adv-x="713" 
d="M612.5 354q74.5 -36 74.5 -122q0 -11 -4 -37q-19 -107 -110.5 -151t-218.5 -44h-220l90 515h-23q-56 0 -90.5 -28t-45.5 -92h-30l15 85q14 80 99 80h82l1 15q0 27 -13 41t-44 14h-10l5 30h120q40 0 57 -15.5t17 -53.5q0 -7 -2 -31h197l-8 -45h-197l-21 -125h90
q115 0 189.5 -36zM547 237q0 56 -35.5 84.5t-110.5 28.5h-5q-31 0 -51 -5l-21 -5l-51 -290q9 -4 19 -5q20 -5 49 -5h5q88 0 136 39t61 116q4 20 4 42z" />
    <glyph glyph-name="uni0463" unicode="&#x463;" horiz-adv-x="713" 
d="M91 340q5 32 5 47q0 26 -12.5 39.5t-43.5 13.5h-10l5 30h99q34 0 52 -8.5t26 -28.5q37 47 104 47q82 0 122.5 -32t40.5 -100q0 -20 -5 -52l-3 -16h45q85 0 128.5 -29.5t43.5 -86.5q0 -77 -59 -120.5t-162 -43.5q-67 0 -108 31.5t-41 99.5q0 24 4 45l30 167q2 9 2 24
q0 30 -15 47t-42 17q-49 0 -72 -32q1 -7 1 -20q0 -18 -3 -33l-61 -346h-130zM529.5 70.5q24.5 30.5 24.5 97.5q0 72 -55 72q-19 0 -36 -4l-22 -128q-1 -6 -3 -17t-2 -19q0 -16 8.5 -24t29.5 -8q31 0 55.5 30.5z" />
    <glyph glyph-name="uni046A" unicode="&#x46a;" horiz-adv-x="989" 
d="M-58 0l4 24q32 5 79 34t90 72l157 155q78 76 150 80l-120 189q-24 37 -61 54t-100 17l6 35h811l-6 -35q-67 0 -106 -14.5t-79 -56.5l-167 -189q39 -2 69 -23.5t56 -62.5l99 -149q29 -43 65 -72t66 -34l-4 -24q-32 -10 -66 -10q-71 0 -122.5 26.5t-98.5 103.5l-102 165
l-50 -285h-131l50 285l-160 -165q-73 -77 -134 -103.5t-133 -26.5q-34 0 -62 10zM505 326l250 289h-429z" />
    <glyph glyph-name="uni046B" unicode="&#x46b;" horiz-adv-x="741" 
d="M-19 -7q-20 3 -28 7l4 24q50 12 107 76l77 87q62 72 131 73l-101 134q-23 25 -43 37.5t-48 12.5l5 26h630l-5 -26q-27 0 -49.5 -11.5t-59.5 -38.5l-154 -134h13q28 0 58 -18t49 -49l49 -93q34 -64 79 -76l-4 -24q-9 -4 -30.5 -7t-40.5 -3q-44 0 -76 20.5t-57 69.5
l-64 123l-36 -203h-130l36 203l-108 -123q-43 -49 -82 -69.5t-83 -20.5q-19 0 -39 3zM355 236l213 189h-351z" />
    <glyph glyph-name="uni0472" unicode="&#x472;" horiz-adv-x="735" 
d="M585 645q62 -35 95 -97.5t33 -143.5q0 -105 -51 -203t-142.5 -159.5t-204.5 -61.5q-85 0 -147 35t-95 97.5t-33 143.5q0 105 51 203t142.5 159.5t204.5 61.5q85 0 147 -35zM278 557q-59 -78 -85 -192h381q4 35 4 73q0 95 -38 146t-110 51q-93 0 -152 -78zM483.5 111
q60.5 86 83.5 209h-383q-8 -56 -8 -99q0 -94 37.5 -145t109.5 -51q100 0 160.5 86z" />
    <glyph glyph-name="uni0473" unicode="&#x473;" horiz-adv-x="600" 
d="M461 426.5q53 -53.5 53 -140.5q0 -75 -37.5 -143.5t-103.5 -110.5t-147 -42q-96 0 -149 53.5t-53 140.5q0 75 37.5 143.5t103.5 110.5t147 42q96 0 149 -53.5zM218.5 384.5q-33.5 -50.5 -49.5 -124.5h208q4 27 4 53q0 58 -19 90t-58 32q-52 0 -85.5 -50.5zM320.5 87
q33.5 52 49.5 128h-209q-4 -29 -4 -58q0 -58 19 -90t58 -32q53 0 86.5 52z" />
    <glyph glyph-name="uni0474" unicode="&#x474;" horiz-adv-x="668" 
d="M110 543q-14 55 -32.5 78t-48.5 27l4 20l42 2q66 0 111.5 -25t64.5 -102l88 -359l196 346q75 132 154 132q15 0 33 -2l-3 -20q-30 -3 -49.5 -12t-38.5 -31t-44 -67l-302 -540h-40z" />
    <glyph glyph-name="uni0475" unicode="&#x475;" horiz-adv-x="502" 
d="M541 470.5q8 -0.5 13 -0.5l-3 -20q-36 -4 -60 -27t-58 -81l-204 -351l-36 -1l-104 365q-18 56 -33 78.5t-38 24.5l3 20l38 2q67 0 108 -26t62 -99l52 -184l98 168q43 74 74.5 101.5t67.5 29.5q12 1 20 0.5z" />
    <glyph glyph-name="uni0490" unicode="&#x490;" horiz-adv-x="541" 
d="M125 441.5q21 123.5 21 133.5q0 28 -13 41.5t-44 13.5h-10l5 30h359q62 0 98.5 28.5t47.5 91.5h30l-15 -85q-7 -36 -29 -58t-70 -22h-219l-108 -615h-130q56 318 77 441.5z" />
    <glyph glyph-name="uni0491" unicode="&#x491;" horiz-adv-x="437" 
d="M74 270q18 109 18 115q0 28 -13 41.5t-44 13.5h-5l5 30h295q47 0 76 25t38 80h30l-12 -70q-6 -35 -27.5 -57.5t-62.5 -22.5h-140l-74 -425h-130z" />
    <glyph glyph-name="uni0492" unicode="&#x492;" horiz-adv-x="546" 
d="M586 601q0 -9 -17 -106h-30q3 18 3 33q0 46 -27 66.5t-80 20.5h-149l-46 -263h107l-8 -45h-107l-54 -307h-130l54 307h-62l8 45h62q36 209 36 223q0 28 -13 41.5t-44 13.5h-10l5 30h429q73 0 73 -59z" />
    <glyph glyph-name="uni0493" unicode="&#x493;" horiz-adv-x="481" 
d="M490 412q0 -6 -2 -22l-13 -70h-30q3 18 3 34q0 37 -20 54t-59 17h-90l-28 -160h103l-8 -45h-103l-39 -220h-130l39 220h-66l8 45h66l13 75q5 28 5 45q0 27 -13 41t-44 14h-5l5 30h345q63 0 63 -58z" />
    <glyph glyph-name="uni0494" unicode="&#x494;" horiz-adv-x="617" 
d="M536 385.5q50 -44.5 50 -129.5q0 -23 -5 -56q-17 -100 -73.5 -174t-136.5 -113t-167 -39l4 25q45 0 96 39t91.5 108t55.5 154q5 32 5 53q0 63 -30 96t-82 33q-44 0 -104 -26l-62 -356h-130l93 530q5 28 5 45q0 27 -13 41t-44 14h-10l5 30h429q73 0 73 -59q0 -7 -2 -21
l-15 -85h-30q3 20 3 35q0 44 -27 64.5t-80 20.5h-149l-38 -215q47 15 81 22.5t73 7.5q84 0 134 -44.5z" />
    <glyph glyph-name="uni0495" unicode="&#x495;" horiz-adv-x="504" 
d="M408 230q46 -41 46 -114q0 -21 -5 -51q-19 -106 -89.5 -155.5t-200.5 -49.5l5 25q65 8 102.5 49.5t52.5 130.5q5 25 5 54q0 101 -90 101q-24 0 -38 -1l-39 -219h-130l60 340q5 28 5 45q0 27 -13 41t-44 14h-5l5 30h345q63 0 63 -58q0 -6 -2 -22l-13 -70h-30q3 18 3 34
q0 37 -20 54t-59 17h-90l-28 -158q32 4 69 4q89 0 135 -41z" />
    <glyph glyph-name="uni0496" unicode="&#x496;" horiz-adv-x="983" 
d="M915.5 610.5q-39.5 -14.5 -79.5 -56.5l-171 -184l158 -240q14 -21 21 -28q31 -34 51.5 -45.5t38.5 -11.5q15 0 23.5 -10t5.5 -25l-35 -195h-50q2 38 2 51q0 58 -14 88.5t-42 40.5q-47 9 -85.5 37.5t-74.5 87.5l-102 165l-50 -285h-131l50 285l-160 -165
q-74 -76 -135 -103t-132 -27q-32 0 -62 10l5 24q31 5 77 34t90 72l244 240l-107 184q-23 41 -58.5 56t-101.5 15l6 35h60q55 0 92.5 -28.5t65.5 -76.5l125 -215l57 320h131l-57 -320l201 215q46 49 93.5 77t102.5 28h60l-6 -35q-67 0 -106.5 -14.5z" />
    <glyph glyph-name="uni0497" unicode="&#x497;" horiz-adv-x="757" 
d="M631 394l-109 -118l93 -176l14 -24q13 -18 24.5 -24.5t24.5 -6.5q15 0 23.5 -10t5.5 -25l-30 -170h-45q2 30 2 40q0 52 -14.5 78.5t-45.5 37.5q-1 1 -3 1l-2 1q-25 9 -44.5 28.5t-37.5 53.5l-65 123l-35 -203h-130l35 203l-107 -123q-44 -49 -82.5 -69.5t-82.5 -20.5
q-19 0 -39.5 3t-27.5 7l4 24q50 12 106 76l155 176l-67 118q-15 26 -37.5 38t-53.5 12l4 26h20q51 0 79.5 -18t51.5 -59l85 -148l39 225h130l-39 -225l137 148q39 41 73 59t84 18h20l-4 -26q-63 0 -109 -50z" />
    <glyph glyph-name="uni0498" unicode="&#x498;" horiz-adv-x="580" 
d="M494 296q37 -40 37 -95q0 -100 -72.5 -153t-175.5 -65l-31 -172h-62q9 64 9 100q0 34 -8 51t-24 22q-64 10 -107.5 42t-70.5 89l34 25q30 -52 73.5 -83.5t112.5 -31.5q47 0 89 20.5t67.5 59.5t25.5 92q0 57 -39 87.5t-108 30.5h-85l8 45h85q40 0 81 19t68.5 57t27.5 91
t-33 80.5t-75 27.5q-67 0 -121.5 -44t-87.5 -121h-31q11 59 20 89t30 51q31 31 90 50.5t113 19.5q101 0 166.5 -29.5t65.5 -110.5q0 -62 -47.5 -117t-138.5 -78q77 -9 114 -49z" />
    <glyph glyph-name="uni0499" unicode="&#x499;" horiz-adv-x="461" 
d="M369 206.5q31 -26.5 31 -65.5q0 -68 -53.5 -105.5t-140.5 -43.5l-28 -156h-57q8 62 8 90q0 34 -8 50t-27 22q-68 18 -100 72l34 25q17 -25 43 -42.5t72 -17.5q54 0 88.5 29t34.5 88q0 35 -24 51.5t-82 16.5h-50l8 45h50q64 0 93 24t29 80q0 33 -22 49.5t-55 16.5
q-45 0 -81.5 -30.5t-47.5 -79.5h-30q11 55 19 79t27 41q21 18 59.5 26.5t86.5 8.5q84 0 131.5 -27t47.5 -80q0 -54 -38.5 -89.5t-102.5 -43.5q54 -7 85 -33.5z" />
    <glyph glyph-name="uni049A" unicode="&#x49a;" horiz-adv-x="683" 
d="M600 609.5q-47 -15.5 -87 -55.5l-181 -184l188 -240q28 -36 61 -63q17 -13 29 -17.5t24 -4.5q15 0 23.5 -10t5.5 -25l-35 -195h-50q2 36 2 50q0 60 -14.5 90.5t-44.5 40.5q-42 9 -82 35.5t-80 78.5l-131 168l-49 -278h-130q65 368 81 465.5t16 109.5q0 28 -13 41.5
t-44 13.5h-10l5 30h120q40 0 57.5 -15t17.5 -53q0 -11 -9 -62t-14 -83l-18 -107l211 215q46 49 93.5 77t102.5 28h70l-6 -35q-62 0 -109 -15.5z" />
    <glyph glyph-name="uni049B" unicode="&#x49b;" horiz-adv-x="543" 
d="M469.5 432q-26.5 -12 -52.5 -38l-118 -118l102 -176q11 -18 21 -33q18 -22 42 -22q15 0 23.5 -10t5.5 -25l-30 -170h-45q2 30 2 40q0 53 -14.5 79.5t-45.5 36.5q-57 14 -89 74l-74 126l-34 -196h-130l46 270q18 109 18 115q0 28 -13 41.5t-44 13.5h-10l5 30h120
q40 0 57 -15t17 -52q0 -16 -11 -84l-12 -74l147 148q41 41 74.5 59t82.5 18h20l-4 -26q-30 0 -56.5 -12z" />
    <glyph glyph-name="uni049C" unicode="&#x49c;" horiz-adv-x="774" 
d="M680 609.5q-47 -15.5 -86 -55.5l-182 -184l189 -240q30 -41 70.5 -71.5t69.5 -34.5l-4 -24q-32 -10 -75 -10q-63 0 -116 25t-107 95l-126 162l-16 -88h-55l19 107h-31l-51 -291h-130l92 530q5 28 5 45q0 27 -13 41t-44 14h-10l5 30h120q40 0 57.5 -15.5t17.5 -53.5
q0 -19 -7 -61l-34 -194h31l23 127h55l-21 -116l204 208q46 49 93.5 77t101.5 28h70l-6 -35q-62 0 -109 -15.5z" />
    <glyph glyph-name="uni049D" unicode="&#x49d;" horiz-adv-x="606" 
d="M549 432q-26 -12 -53 -38l-117 -118l102 -176q36 -65 79 -76l-4 -24q-9 -4 -30.5 -7t-40.5 -3q-44 0 -77.5 18.5t-57.5 61.5l-71 122l-17 -96h-55l18 104h-28l-35 -200h-130l60 340q5 28 5 45q0 27 -13 41t-44 14h-10l5 30h120q40 0 57 -15t17 -53q0 -18 -7 -62l-17 -95
h28l20 110h55l-19 -107l143 145q40 41 74 59t84 18h20l-5 -26q-30 0 -56 -12z" />
    <glyph glyph-name="uni04A0" unicode="&#x4a0;" horiz-adv-x="818" 
d="M590 15q-53 25 -107 95l-131 168l-49 -278h-130l107 615h-61q-56 0 -90 -28t-46 -92h-30l15 85q14 80 99 80h252l-56 -320l211 215q46 49 93.5 77t101.5 28h70l-6 -35q-62 0 -109 -15.5t-86 -55.5l-182 -184l189 -240q30 -41 70.5 -71.5t69.5 -34.5l-4 -24
q-32 -10 -75 -10q-63 0 -116 25z" />
    <glyph glyph-name="uni04A1" unicode="&#x4a1;" horiz-adv-x="594" 
d="M395.5 8.5q-33.5 18.5 -57.5 61.5l-73 126l-35 -196h-130l75 425h-22q-47 0 -75.5 -25t-38.5 -80h-30l13 70q14 80 89 80h202l-40 -225l147 148q42 41 75.5 59t82.5 18h20l-5 -26q-30 0 -56 -12t-53 -38l-117 -118l102 -176q36 -65 79 -76l-4 -24q-9 -4 -30.5 -7
t-40.5 -3q-44 0 -77.5 18.5z" />
    <glyph glyph-name="uni04A2" unicode="&#x4a2;" horiz-adv-x="720" 
d="M567 -136q0 76 -22.5 106t-71.5 30h-25l56 320h-270l-56 -320h-130l93 530q5 28 5 45q0 27 -13 41t-44 14h-10l5 30h120q40 0 57 -15t17 -53q0 -27 -7 -62l-29 -165h270l52 295h130l-108 -615h35q15 0 23 -10t6 -25l-35 -195h-50q2 36 2 49z" />
    <glyph glyph-name="uni04A3" unicode="&#x4a3;" horiz-adv-x="573" 
d="M446 -111q0 64 -21 87.5t-65 23.5h-38l38 215h-160l-38 -215h-130l60 340q5 28 5 45q0 27 -13 41t-44 14h-10l5 30h120q40 0 57 -15t17 -53q0 -18 -7 -62l-14 -80h160l37 210h130l-75 -425h30q15 0 23 -10t6 -25l-30 -170h-45q2 18 2 49z" />
    <glyph glyph-name="uni04A4" unicode="&#x4a4;" horiz-adv-x="973" 
d="M1013 601q0 -7 -2 -21l-15 -85h-30q3 20 3 35q0 44 -27 64.5t-80 20.5h-129l-85 -485q-5 -28 -5 -45q0 -27 13 -41t44 -14h10l-5 -30h-120q-40 0 -57 15t-17 52q0 28 7 63l33 190h-270l-56 -320h-130l93 530q5 28 5 45q0 27 -13 41t-44 14h-10l5 30h120q40 0 57 -15
t17 -53q0 -27 -7 -62l-29 -165h270l29 165q5 28 5 45q0 27 -13 41t-44 14h-10l5 30h409q73 0 73 -59z" />
    <glyph glyph-name="uni04A5" unicode="&#x4a5;" horiz-adv-x="756" 
d="M738 412q0 -6 -2 -22l-13 -70h-30q3 18 3 34q0 37 -20 54t-59 17h-90l-52 -295q-5 -28 -5 -45q0 -27 13 -41t44 -14h10l-5 -30h-120q-40 0 -57 15t-17 52q0 28 7 63l15 85h-160l-38 -215h-130l60 340q5 28 5 45q0 27 -13 41t-44 14h-10l5 30h120q40 0 57 -15t17 -53
q0 -18 -7 -62l-14 -80h160l14 80q5 28 5 45q0 27 -13 41t-44 14h-5l5 30h345q63 0 63 -58z" />
    <glyph glyph-name="uni04AA" unicode="&#x4aa;" horiz-adv-x="680" 
d="M302 574q-64 -61 -94.5 -154t-30.5 -188q0 -94 42.5 -150.5t133.5 -56.5q70 0 135.5 37t112.5 106l30 -27q-53 -72 -115.5 -110t-143.5 -48l-31 -172h-62q9 64 9 101q0 34 -8 50.5t-25 21.5q-105 16 -161 86.5t-56 175.5q0 104 52.5 204.5t144 165t203.5 64.5
q88 0 161 -29.5t73 -105.5q0 -38 -12 -98h-30q-2 92 -45 140t-125 48q-94 0 -158 -61z" />
    <glyph glyph-name="uni04AB" unicode="&#x4ab;" horiz-adv-x="498" 
d="M432 305q1 8 1 24q0 53 -29 79.5t-84 26.5q-56 0 -92.5 -46t-53.5 -110.5t-17 -121.5q0 -122 98 -122q48 0 84 21.5t73 61.5l27 -23q-32 -39 -70.5 -66t-97.5 -36l-28 -157h-57q8 61 8 90q0 32 -8 48t-25 23q-67 16 -101.5 65t-34.5 118q0 82 36 150.5t101.5 109
t150.5 40.5q68 0 115 -14.5t47 -65.5q0 -28 -13 -95h-30z" />
    <glyph glyph-name="uni04AE" unicode="&#x4ae;" horiz-adv-x="639" 
d="M273 264l-130 266q-19 42 -51 74t-63 36l4 20h109q51 0 86 -31.5t57 -78.5l100 -205l250 315h65l-292 -369l-51 -291h-130z" />
    <glyph glyph-name="uni04AF" unicode="&#x4af;" horiz-adv-x="503" 
d="M149 1l-60 354q-16 55 -31.5 78t-39.5 25l3 20l38 2q67 0 108 -26t62 -99l41 -282l203 397h54l-248 -471l-34 -189h-130z" />
    <glyph glyph-name="uni04B0" unicode="&#x4b0;" horiz-adv-x="639" 
d="M409 292h85l-8 -45h-86l-43 -247h-130l43 247h-83l8 45h64l-116 238q-19 42 -51 74t-63 36l4 20h109q51 0 86 -31.5t57 -78.5l100 -205l250 315h65z" />
    <glyph glyph-name="uni04B1" unicode="&#x4b1;" horiz-adv-x="503" 
d="M291 22h79l-8 -45h-87l-30 -167h-130l30 167h-82l8 45h74l-56 333q-16 55 -31.5 78t-39.5 25l3 20l38 2q67 0 108 -26t62 -99l41 -282l203 397h54z" />
    <glyph glyph-name="uni04B6" unicode="&#x4b6;" horiz-adv-x="660" 
d="M602.5 35q8.5 -10 5.5 -25l-34 -195h-50q2 34 2 46q0 78 -22.5 108.5t-72.5 30.5h-25l45 260q-23 -10 -58.5 -15t-73.5 -5q-217 0 -217 165q0 32 11 83q1 5 6 33t5 54q0 28 -13 41.5t-44 13.5h-10l5 30h120q40 0 57 -15t17 -52q0 -30 -12 -90q-13 -59 -13 -98
q0 -58 31 -89t84 -31q60 0 113 20l63 355h130l-108 -615h35q15 0 23.5 -10z" />
    <glyph glyph-name="uni04B7" unicode="&#x4b7;" horiz-adv-x="553" 
d="M504.5 35q8.5 -10 5.5 -25l-30 -170h-45q2 18 2 49q0 64 -21 87.5t-65 23.5h-38l31 178q-46 -18 -93 -18q-75 0 -121 29t-46 89q0 17 6 51q7 32 7 56q0 28 -13 41.5t-44 13.5h-10l5 30h120q40 0 57 -15t17 -52q0 -17 -3 -37t-4 -25q-8 -42 -8 -65q0 -71 68 -71
q22 0 37 3.5t32 12.5l44 249h130l-74 -425h30q15 0 23.5 -10z" />
    <glyph glyph-name="uni04B8" unicode="&#x4b8;" horiz-adv-x="660" 
d="M652 660l-116 -660h-130l45 260q-31 -13 -83 -18l-20 -112h-55l20 110q-211 3 -211 165q0 32 11 83q1 5 6 33t5 54q0 28 -13 41.5t-44 13.5h-10l5 30h120q40 0 57 -15t17 -52q0 -30 -12 -90q-13 -59 -13 -98q0 -51 24 -81t66 -37l18 102h55l-18 -103q44 4 83 19l63 355
h130z" />
    <glyph glyph-name="uni04B9" unicode="&#x4b9;" horiz-adv-x="553" 
d="M525 470l-82 -470h-130l31 178q-27 -11 -59 -15l-16 -84h-55l16 82q-66 3 -106 32t-40 85q0 17 6 51q7 32 7 56q0 28 -13 41.5t-44 13.5h-10l5 30h120q40 0 57 -15t17 -52q0 -17 -3 -37t-4 -25q-8 -42 -8 -65q0 -46 26 -61l18 92h55l-20 -102q32 1 58 16l44 249h130z" />
    <glyph glyph-name="uni04BA" unicode="&#x4ba;" horiz-adv-x="660" 
d="M243 400q23 10 58.5 15t73.5 5q217 0 217 -165q0 -32 -11 -83q-1 -5 -6 -33t-5 -54q0 -28 13 -41.5t44 -13.5h10l-5 -30h-120q-40 0 -57 15t-17 52q0 30 12 90q13 59 13 98q0 58 -31 89t-84 31q-60 0 -113 -20l-63 -355h-130l116 660h130z" />
    <glyph glyph-name="uni04BB" unicode="&#x4bb;" horiz-adv-x="546" 
d="M105 530q5 32 5 45q0 28 -13 41.5t-44 13.5h-10l5 30h120q40 0 57 -15t17 -52q0 -31 -7 -63l-16 -88q15 9 34 19q44 19 83 19q71 0 116.5 -31t45.5 -105q0 -15 -9.5 -75t-46.5 -269h-130q32 182 44 255.5t12 84.5q0 47 -19.5 68.5t-51.5 21.5q-28 0 -60 -18
q-13 -7 -26 -17l-69 -395h-130z" />
    <glyph glyph-name="uni04C0" unicode="&#x4c0;" horiz-adv-x="307" 
d="M65 15.5q-17 15.5 -17 53.5q0 25 6 61l94 530h130l-94 -530q-4 -21 -4 -43q0 -28 13 -42.5t44 -14.5h10l-5 -30h-120q-40 0 -57 15.5z" />
    <glyph glyph-name="uni04C1" unicode="&#x4c1;" horiz-adv-x="989" 
d="M-58 0l5 24q31 5 77 34t90 72l244 240l-107 184q-23 41 -58.5 56t-101.5 15l6 35h60q55 0 92.5 -28.5t65.5 -76.5l125 -215l57 320h131l-57 -320l201 215q46 49 93.5 77t102.5 28h60l-6 -35q-67 0 -106.5 -14.5t-79.5 -56.5l-171 -184l158 -240q28 -43 64.5 -72t67.5 -34
l-4 -24q-32 -10 -66 -10q-71 0 -122.5 27t-98.5 103l-102 165l-50 -285h-131l50 285l-160 -165q-74 -76 -135 -103t-132 -27q-32 0 -62 10zM479 730.5q-32 25.5 -44 68.5l32 21q13 -21 39 -35.5t65 -14.5t69.5 14t52.5 36l24 -21q-27 -43 -68.5 -68.5t-89.5 -25.5t-80 25.5z
" />
    <glyph glyph-name="uni04C2" unicode="&#x4c2;" horiz-adv-x="741" 
d="M-19.5 -7q-20.5 3 -27.5 7l4 24q50 12 106 76l155 176l-67 118q-15 26 -37.5 38t-53.5 12l4 26h20q51 0 79.5 -18t51.5 -59l85 -148l39 225h130l-39 -225l137 148q39 41 73 59t84 18h20l-4 -26q-63 0 -109 -50l-109 -118l93 -176q34 -64 80 -76l-4 -24q-8 -4 -30 -7
t-41 -3q-44 0 -75.5 20.5t-57.5 69.5l-65 123l-35 -203h-130l35 203l-107 -123q-44 -49 -82.5 -69.5t-82.5 -20.5q-19 0 -39.5 3zM348 549.5q-32 25.5 -44 68.5l32 21q13 -21 39 -35.5t65 -14.5t69.5 14t52.5 36l24 -21q-27 -43 -68.5 -68.5t-89.5 -25.5t-80 25.5z" />
    <glyph glyph-name="uni04CB" unicode="&#x4cb;" horiz-adv-x="659" 
d="M544 45l-8 -45h-25q-38 0 -65 -16.5t-49.5 -56.5t-43.5 -112h-50l35 195q3 15 14.5 25t26.5 10h35l37 215q-23 -10 -58.5 -15t-73.5 -5q-217 0 -217 165q0 32 11 83q1 5 6 33t5 54q0 28 -13 41.5t-44 13.5h-10l5 30h120q40 0 57 -15t17 -52q0 -30 -12 -90
q-13 -59 -13 -98q0 -58 31 -89t84 -31q60 0 113 20l63 355h130z" />
    <glyph glyph-name="uni04CC" unicode="&#x4cc;" horiz-adv-x="565" 
d="M451 45l-8 -45h-38q-34 0 -58.5 -13t-44.5 -48t-37 -99h-45l30 170q3 15 14.5 25t26.5 10h30l23 133q-46 -18 -93 -18q-75 0 -121 29t-46 89q0 17 6 51q7 32 7 56q0 28 -13 41.5t-44 13.5h-10l5 30h120q40 0 57 -15t17 -52q0 -17 -3 -37t-4 -25q-8 -42 -8 -65
q0 -71 68 -71q22 0 37 3.5t32 12.5l44 249h130z" />
    <glyph glyph-name="uni04CF" unicode="&#x4cf;" horiz-adv-x="261" 
d="M94 441q21 123 21 134q0 28 -13 41.5t-44 13.5h-10l5 30h120q40 0 57 -15t17 -52q0 -11 -15.5 -104t-55.5 -324l-29 -165h-130q56 318 77 441z" />
    <glyph glyph-name="uni04D0" unicode="&#x4d0;" horiz-adv-x="647" 
d="M472.5 23q-47.5 27 -64.5 103l-13 56h-266l-114 -182h-52l411 660h45l130 -534q24 -93 86 -100l-4 -25q-18 -5 -49 -5q-62 0 -109.5 27zM158 227h226l-64 261zM320 730.5q-32 25.5 -44 68.5l32 21q13 -21 39 -35.5t65 -14.5t69.5 14t52.5 36l24 -21q-27 -43 -68.5 -68.5
t-89.5 -25.5t-80 25.5z" />
    <glyph glyph-name="uni04D1" unicode="&#x4d1;" horiz-adv-x="550" 
d="M68 40q-44 50 -44 130q0 72 31.5 144t91 119t137.5 47q52 0 82 -28q15 -13 23 -27h5l43 45h85l-65 -370l-17 -100h-85l-28 45h-5q-12 -15 -32 -28q-38 -27 -92 -27q-86 0 -130 50zM264 43.5q17 8.5 35 23.5q15 13 28 33l48 270q-6 18 -17 32q-25 33 -62 33
q-48 0 -79.5 -51.5t-46 -120.5t-14.5 -119q0 -109 70 -109q21 0 38 8.5zM246 549.5q-32 25.5 -44 68.5l32 21q13 -21 39 -35.5t65 -14.5t69.5 14t52.5 36l24 -21q-27 -43 -68.5 -68.5t-89.5 -25.5t-80 25.5z" />
    <glyph glyph-name="uni04D2" unicode="&#x4d2;" horiz-adv-x="647" 
d="M472.5 23q-47.5 27 -64.5 103l-13 56h-266l-114 -182h-52l411 660h45l130 -534q24 -93 86 -100l-4 -25q-18 -5 -49 -5q-62 0 -109.5 27zM158 227h226l-64 261zM285 737.5q-12 12.5 -12 31.5q0 27 19.5 47.5t47.5 20.5q23 0 35 -12.5t12 -33.5q0 -26 -20 -46t-47 -20
q-23 0 -35 12.5zM465 737.5q-12 12.5 -12 31.5q0 27 19.5 47.5t47.5 20.5q23 0 35 -12.5t12 -33.5q0 -26 -20 -46t-47 -20q-23 0 -35 12.5z" />
    <glyph glyph-name="uni04D3" unicode="&#x4d3;" horiz-adv-x="550" 
d="M68 40q-44 50 -44 130q0 72 31.5 144t91 119t137.5 47q52 0 82 -28q15 -13 23 -27h5l43 45h85l-65 -370l-17 -100h-85l-28 45h-5q-12 -15 -32 -28q-38 -27 -92 -27q-86 0 -130 50zM264 43.5q17 8.5 35 23.5q15 13 28 33l48 270q-6 18 -17 32q-25 33 -62 33
q-48 0 -79.5 -51.5t-46 -120.5t-14.5 -119q0 -109 70 -109q21 0 38 8.5zM182 547.5q-12 12.5 -12 31.5q0 27 19.5 47.5t47.5 20.5q23 0 35 -12.5t12 -33.5q0 -26 -20 -46t-47 -20q-23 0 -35 12.5zM362 547.5q-12 12.5 -12 31.5q0 27 19.5 47.5t47.5 20.5q23 0 35 -12.5
t12 -33.5q0 -26 -20 -46t-47 -20q-23 0 -35 12.5z" />
    <glyph glyph-name="uni04D4" unicode="&#x4d4;" horiz-adv-x="873" 
d="M420 660h376q73 0 73 -58q0 -9 -17 -107h-30q3 18 3 33q0 87 -107 87h-161l-44 -250h260l-8 -45h-260l-49 -275h171q57 0 99.5 25.5t79.5 88.5l25 -10l-43 -79q-20 -37 -40.5 -53.5t-58.5 -16.5h-370l33 190h-218l-140 -190h-60zM167 235h193l61 344z" />
    <glyph glyph-name="uni04D5" unicode="&#x4d5;" horiz-adv-x="792" 
d="M40 18.5q-40 28.5 -40 78.5q0 96 89 130.5t213 34.5h15q7 35 7 72q0 52 -19 76.5t-58 24.5t-67.5 -19t-48.5 -71h-55q7 37 15.5 59.5t27.5 40.5t58 26.5t78 8.5q62 0 103 -24t56 -67q36 45 81.5 68t94.5 23q87 0 134 -33t47 -91q0 -146 -218 -146h-105l-1 -3
q-6 -34 -6 -62q0 -110 86 -110q48 0 84 21.5t73 61.5l27 -23q-37 -45 -85.5 -75t-121.5 -30q-110 0 -154 90q-27 -38 -76 -64t-115 -26q-79 0 -119 28.5zM560 255q38 0 59.5 29t21.5 73q0 37 -17 57.5t-42 20.5q-42 0 -76 -44t-51 -136h105zM263 72q16 14 26 33l20 112h-15
q-71 0 -115 -25.5t-44 -91.5q0 -27 13.5 -43.5t39.5 -16.5q41 0 75 32z" />
    <glyph glyph-name="uni04D6" unicode="&#x4d6;" horiz-adv-x="602" 
d="M125 441q21 123 21 134q0 28 -13 41.5t-44 13.5h-10l5 30h441q73 0 73 -58q0 -9 -17 -107h-30q3 18 3 33q0 87 -107 87h-161l-44 -250h260l-8 -45h-260l-49 -275h171q57 0 99.5 25.5t79.5 88.5l25 -10l-43 -79q-20 -37 -40.5 -53.5t-58.5 -16.5h-370q56 318 77 441z
M297 730.5q-32 25.5 -44 68.5l32 21q13 -21 39 -35.5t65 -14.5t69.5 14t52.5 36l24 -21q-27 -43 -68.5 -68.5t-89.5 -25.5t-80 25.5z" />
    <glyph glyph-name="uni04D7" unicode="&#x4d7;" horiz-adv-x="508" 
d="M76 43q-51 53 -51 139q0 77 34.5 145.5t98 110.5t145.5 42q89 0 138 -32.5t49 -89.5q0 -80 -67 -119t-159 -39h-105q-6 -31 -6 -56q0 -54 23 -81.5t64 -27.5q48 0 84 21.5t73 61.5l27 -23q-37 -45 -85.5 -75t-121.5 -30q-90 0 -141 53zM272 245q37 0 60 37t23 80
q0 36 -17.5 54.5t-42.5 18.5q-96 0 -128 -190h105zM245 549.5q-32 25.5 -44 68.5l32 21q13 -21 39 -35.5t65 -14.5t69.5 14t52.5 36l24 -21q-27 -43 -68.5 -68.5t-89.5 -25.5t-80 25.5z" />
    <glyph glyph-name="uni04D8" unicode="&#x4d8;" horiz-adv-x="714" 
d="M99.5 41q-65.5 61 -65.5 176q0 35 6 72q4 27 14 62h496q10 62 10 98q0 186 -171 186q-69 0 -125 -33t-120 -108l-38 33q58 69 135 111t172 42q86 0 149 -35.5t96.5 -98.5t33.5 -146q0 -40 -7 -76q-19 -109 -75.5 -187t-138 -117.5t-175.5 -39.5q-131 0 -196.5 61z
M449.5 85.5q64.5 60.5 88.5 199.5h-368q-9 -54 -9 -96q0 -164 140 -164q84 0 148.5 60.5z" />
    <glyph glyph-name="uni04D9" unicode="&#x4d9;" horiz-adv-x="512" 
d="M69.5 34q-52.5 44 -52.5 118q0 12 4 38q2 15 9 43l6 20h301q7 38 7 71q0 111 -85 111q-48 0 -84.5 -21.5t-73.5 -61.5l-27 23q37 45 86 75t122 30q90 0 140.5 -52.5t50.5 -138.5q0 -22 -5 -54q-14 -78 -52 -133t-93 -83.5t-118 -28.5q-83 0 -135.5 44zM281.5 75.5
q30.5 40.5 47.5 132.5h-170q-9 -49 -9 -82q0 -49 16.5 -70t46.5 -21q38 0 68.5 40.5z" />
    <glyph glyph-name="uni04DC" unicode="&#x4dc;" horiz-adv-x="989" 
d="M-58 0l5 24q31 5 77 34t90 72l244 240l-107 184q-23 41 -58.5 56t-101.5 15l6 35h60q55 0 92.5 -28.5t65.5 -76.5l125 -215l57 320h131l-57 -320l201 215q46 49 93.5 77t102.5 28h60l-6 -35q-67 0 -106.5 -14.5t-79.5 -56.5l-171 -184l158 -240q28 -43 64.5 -72t67.5 -34
l-4 -24q-32 -10 -66 -10q-71 0 -122.5 27t-98.5 103l-102 165l-50 -285h-131l50 285l-160 -165q-74 -76 -135 -103t-132 -27q-32 0 -62 10zM444 737.5q-12 12.5 -12 31.5q0 27 19.5 47.5t47.5 20.5q23 0 35 -12.5t12 -33.5q0 -26 -20 -46t-47 -20q-23 0 -35 12.5zM624 737.5
q-12 12.5 -12 31.5q0 27 19.5 47.5t47.5 20.5q23 0 35 -12.5t12 -33.5q0 -26 -20 -46t-47 -20q-23 0 -35 12.5z" />
    <glyph glyph-name="uni04DD" unicode="&#x4dd;" horiz-adv-x="741" 
d="M-19.5 -7q-20.5 3 -27.5 7l4 24q50 12 106 76l155 176l-67 118q-15 26 -37.5 38t-53.5 12l4 26h20q51 0 79.5 -18t51.5 -59l85 -148l39 225h130l-39 -225l137 148q39 41 73 59t84 18h20l-4 -26q-63 0 -109 -50l-109 -118l93 -176q34 -64 80 -76l-4 -24q-8 -4 -30 -7
t-41 -3q-44 0 -75.5 20.5t-57.5 69.5l-65 123l-35 -203h-130l35 203l-107 -123q-44 -49 -82.5 -69.5t-82.5 -20.5q-19 0 -39.5 3zM284 547.5q-12 12.5 -12 31.5q0 27 19.5 47.5t47.5 20.5q23 0 35 -12.5t12 -33.5q0 -26 -20 -46t-47 -20q-23 0 -35 12.5zM464 547.5
q-12 12.5 -12 31.5q0 27 19.5 47.5t47.5 20.5q23 0 35 -12.5t12 -33.5q0 -26 -20 -46t-47 -20q-23 0 -35 12.5z" />
    <glyph glyph-name="uni04DE" unicode="&#x4de;" horiz-adv-x="580" 
d="M79 13q-57 33 -90 102l34 25q30 -52 73.5 -83.5t112.5 -31.5q47 0 89 20.5t67.5 59.5t25.5 92q0 57 -39 87.5t-108 30.5h-85l8 45h85q40 0 81 19t68.5 57t27.5 91t-33 80.5t-75 27.5q-67 0 -121.5 -44t-87.5 -121h-31q11 59 20 89t30 51q31 31 90 50.5t113 19.5
q101 0 166.5 -29.5t65.5 -110.5q0 -62 -47.5 -117t-138.5 -78q77 -9 114 -49t37 -95q0 -80 -47.5 -129.5t-117.5 -70.5t-140 -21q-90 0 -147 33zM211 737.5q-12 12.5 -12 31.5q0 27 19.5 47.5t47.5 20.5q23 0 35 -12.5t12 -33.5q0 -26 -20 -46t-47 -20q-23 0 -35 12.5z
M391 737.5q-12 12.5 -12 31.5q0 27 19.5 47.5t47.5 20.5q23 0 35 -12.5t12 -33.5q0 -26 -20 -46t-47 -20q-23 0 -35 12.5z" />
    <glyph glyph-name="uni04DF" unicode="&#x4df;" horiz-adv-x="461" 
d="M-6 70l34 25q17 -25 43 -42.5t72 -17.5q54 0 88.5 29t34.5 88q0 35 -24 51.5t-82 16.5h-50l8 45h50q64 0 93 24t29 80q0 33 -22 49.5t-55 16.5q-45 0 -81.5 -30.5t-47.5 -79.5h-30q11 55 19 79t27 41q21 18 59.5 26.5t86.5 8.5q84 0 131.5 -27t47.5 -80
q0 -54 -38.5 -89.5t-102.5 -43.5q54 -7 85 -33.5t31 -65.5q0 -76 -66 -113.5t-169 -37.5q-123 0 -171 80zM128 547.5q-12 12.5 -12 31.5q0 27 19.5 47.5t47.5 20.5q23 0 35 -12.5t12 -33.5q0 -26 -20 -46t-47 -20q-23 0 -35 12.5zM308 547.5q-12 12.5 -12 31.5
q0 27 19.5 47.5t47.5 20.5q23 0 35 -12.5t12 -33.5q0 -26 -20 -46t-47 -20q-23 0 -35 12.5z" />
    <glyph glyph-name="uni04E2" unicode="&#x4e2;" horiz-adv-x="712" 
d="M125 441.5q21 123.5 21 133.5q0 28 -13 41.5t-44 13.5h-10l5 30h120q40 0 57 -15t17 -52q0 -15 -13 -95.5t-65 -367.5l384 530h120l-116 -660h-130l93 530l-383 -530h-120q56 318 77 441.5zM294 747v85h279v-85h-279z" />
    <glyph glyph-name="uni04E3" unicode="&#x4e3;" horiz-adv-x="567" 
d="M85.5 20.5q-38.5 30.5 -38.5 98.5q0 14 7.5 62t26.5 159q5 32 5 45q0 28 -13 41.5t-44 13.5h-10l5 30h120q40 0 57 -15t17 -52q0 -31 -7 -63q-19 -113 -27 -163.5t-8 -62.5q0 -43 16.5 -61t50.5 -18q21 0 38 8.5t35 23.5q15 13 28 33l65 370h130l-82 -470h-85l-28 45h-5
q-14 -14 -37 -28q-43 -27 -97 -27q-81 0 -119.5 30.5zM178 557v85h279v-85h-279z" />
    <glyph glyph-name="uni04E4" unicode="&#x4e4;" horiz-adv-x="712" 
d="M125 441.5q21 123.5 21 133.5q0 28 -13 41.5t-44 13.5h-10l5 30h120q40 0 57 -15t17 -52q0 -15 -13 -95.5t-65 -367.5l384 530h120l-116 -660h-130l93 530l-383 -530h-120q56 318 77 441.5zM307 737.5q-12 12.5 -12 31.5q0 27 19.5 47.5t47.5 20.5q23 0 35 -12.5
t12 -33.5q0 -26 -20 -46t-47 -20q-23 0 -35 12.5zM487 737.5q-12 12.5 -12 31.5q0 27 19.5 47.5t47.5 20.5q23 0 35 -12.5t12 -33.5q0 -26 -20 -46t-47 -20q-23 0 -35 12.5z" />
    <glyph glyph-name="uni04E5" unicode="&#x4e5;" horiz-adv-x="567" 
d="M85.5 20.5q-38.5 30.5 -38.5 98.5q0 14 7.5 62t26.5 159q5 32 5 45q0 28 -13 41.5t-44 13.5h-10l5 30h120q40 0 57 -15t17 -52q0 -31 -7 -63q-19 -113 -27 -163.5t-8 -62.5q0 -43 16.5 -61t50.5 -18q21 0 38 8.5t35 23.5q15 13 28 33l65 370h130l-82 -470h-85l-28 45h-5
q-14 -14 -37 -28q-43 -27 -97 -27q-81 0 -119.5 30.5zM191 547.5q-12 12.5 -12 31.5q0 27 19.5 47.5t47.5 20.5q23 0 35 -12.5t12 -33.5q0 -26 -20 -46t-47 -20q-23 0 -35 12.5zM371 547.5q-12 12.5 -12 31.5q0 27 19.5 47.5t47.5 20.5q23 0 35 -12.5t12 -33.5
q0 -26 -20 -46t-47 -20q-23 0 -35 12.5z" />
    <glyph glyph-name="uni04E6" unicode="&#x4e6;" horiz-adv-x="735" 
d="M168 15q-62 35 -95 97.5t-33 143.5q0 105 51 203t142.5 159.5t204.5 61.5q85 0 147 -35t95 -97.5t33 -143.5q0 -105 -51 -203t-142.5 -159.5t-204.5 -61.5q-85 0 -147 35zM467.5 92q57.5 67 84 162.5t26.5 183.5q0 95 -38 146t-110 51q-86 0 -143.5 -67.5t-84 -164
t-26.5 -182.5q0 -94 37.5 -145t109.5 -51q87 0 144.5 67zM329 737.5q-12 12.5 -12 31.5q0 27 19.5 47.5t47.5 20.5q23 0 35 -12.5t12 -33.5q0 -26 -20 -46t-47 -20q-23 0 -35 12.5zM509 737.5q-12 12.5 -12 31.5q0 27 19.5 47.5t47.5 20.5q23 0 35 -12.5t12 -33.5
q0 -26 -20 -46t-47 -20q-23 0 -35 12.5z" />
    <glyph glyph-name="uni04E7" unicode="&#x4e7;" horiz-adv-x="553" 
d="M77 43.5q-53 53.5 -53 140.5q0 75 37.5 143.5t103.5 110.5t147 42q96 0 149 -53.5t53 -140.5q0 -75 -37.5 -143.5t-103.5 -110.5t-147 -42q-96 0 -149 53.5zM317 82.5q33 47.5 48.5 113t15.5 117.5q0 58 -19 90t-58 32q-50 0 -83 -47.5t-48.5 -113t-15.5 -117.5
q0 -58 19 -90t58 -32q50 0 83 47.5zM204 547.5q-12 12.5 -12 31.5q0 27 19.5 47.5t47.5 20.5q23 0 35 -12.5t12 -33.5q0 -26 -20 -46t-47 -20q-23 0 -35 12.5zM384 547.5q-12 12.5 -12 31.5q0 27 19.5 47.5t47.5 20.5q23 0 35 -12.5t12 -33.5q0 -26 -20 -46t-47 -20
q-23 0 -35 12.5z" />
    <glyph glyph-name="uni04E8" unicode="&#x4e8;" horiz-adv-x="735" 
d="M585 645q62 -35 95 -97.5t33 -143.5q0 -105 -51 -203t-142.5 -159.5t-204.5 -61.5q-85 0 -147 35t-95 97.5t-33 143.5q0 105 51 203t142.5 159.5t204.5 61.5q85 0 147 -35zM278 557q-59 -78 -85 -192h381q4 35 4 73q0 95 -38 146t-110 51q-93 0 -152 -78zM483.5 111
q60.5 86 83.5 209h-383q-8 -56 -8 -99q0 -94 37.5 -145t109.5 -51q100 0 160.5 86z" />
    <glyph glyph-name="uni04E9" unicode="&#x4e9;" horiz-adv-x="600" 
d="M461 426.5q53 -53.5 53 -140.5q0 -75 -37.5 -143.5t-103.5 -110.5t-147 -42q-96 0 -149 53.5t-53 140.5q0 75 37.5 143.5t103.5 110.5t147 42q96 0 149 -53.5zM218.5 384.5q-33.5 -50.5 -49.5 -124.5h208q4 27 4 53q0 58 -19 90t-58 32q-52 0 -85.5 -50.5zM320.5 87
q33.5 52 49.5 128h-209q-4 -29 -4 -58q0 -58 19 -90t58 -32q53 0 86.5 52z" />
    <glyph glyph-name="uni04EE" unicode="&#x4ee;" horiz-adv-x="617" 
d="M94 26q53 0 93.5 14.5t67.5 54.5l10 15l-131 420q-32 103 -105 110l4 20h100q55 0 91 -30t52 -80l89 -282l246 392h65l-356 -565q-31 -50 -77.5 -77.5t-104.5 -27.5h-50zM277 747v85h279v-85h-279z" />
    <glyph glyph-name="uni04EF" unicode="&#x4ef;" horiz-adv-x="509" 
d="M10 -165q55 0 92 21t70 76l30 54l-110 394q-11 38 -30 57t-49 23l3 20h88q44 0 74.5 -21.5t41.5 -58.5l71 -252l178 322h53l-296 -535q-44 -78 -85 -106.5t-97 -28.5h-40zM169 557v85h279v-85h-279z" />
    <glyph glyph-name="uni04F0" unicode="&#x4f0;" horiz-adv-x="617" 
d="M94 26q53 0 93.5 14.5t67.5 54.5l10 15l-131 420q-32 103 -105 110l4 20h100q55 0 91 -30t52 -80l89 -282l246 392h65l-356 -565q-31 -50 -77.5 -77.5t-104.5 -27.5h-50zM290 737.5q-12 12.5 -12 31.5q0 27 19.5 47.5t47.5 20.5q23 0 35 -12.5t12 -33.5q0 -26 -20 -46
t-47 -20q-23 0 -35 12.5zM470 737.5q-12 12.5 -12 31.5q0 27 19.5 47.5t47.5 20.5q23 0 35 -12.5t12 -33.5q0 -26 -20 -46t-47 -20q-23 0 -35 12.5z" />
    <glyph glyph-name="uni04F1" unicode="&#x4f1;" horiz-adv-x="509" 
d="M10 -165q55 0 92 21t70 76l30 54l-110 394q-11 38 -30 57t-49 23l3 20h88q44 0 74.5 -21.5t41.5 -58.5l71 -252l178 322h53l-296 -535q-44 -78 -85 -106.5t-97 -28.5h-40zM182 547.5q-12 12.5 -12 31.5q0 27 19.5 47.5t47.5 20.5q23 0 35 -12.5t12 -33.5q0 -26 -20 -46
t-47 -20q-23 0 -35 12.5zM362 547.5q-12 12.5 -12 31.5q0 27 19.5 47.5t47.5 20.5q23 0 35 -12.5t12 -33.5q0 -26 -20 -46t-47 -20q-23 0 -35 12.5z" />
    <glyph glyph-name="uni04F2" unicode="&#x4f2;" horiz-adv-x="617" 
d="M94 26q53 0 93.5 14.5t67.5 54.5l10 15l-131 420q-32 103 -105 110l4 20h100q55 0 91 -30t52 -80l89 -282l246 392h65l-356 -565q-31 -50 -77.5 -77.5t-104.5 -27.5h-50zM337 715l42 140h79l-86 -140h-35zM447 715l42 140h79l-86 -140h-35z" />
    <glyph glyph-name="uni04F3" unicode="&#x4f3;" horiz-adv-x="509" 
d="M10 -165q55 0 92 21t70 76l30 54l-110 394q-11 38 -30 57t-49 23l3 20h88q44 0 74.5 -21.5t41.5 -58.5l71 -252l178 322h53l-296 -535q-44 -78 -85 -106.5t-97 -28.5h-40zM229 525l42 140h79l-86 -140h-35zM339 525l42 140h79l-86 -140h-35z" />
    <glyph glyph-name="uni04F4" unicode="&#x4f4;" horiz-adv-x="660" 
d="M451 260q-23 -10 -58.5 -15t-73.5 -5q-217 0 -217 165q0 32 11 83q1 5 6 33t5 54q0 28 -13 41.5t-44 13.5h-10l5 30h120q40 0 57 -15t17 -52q0 -30 -12 -90q-13 -59 -13 -98q0 -58 31 -89t84 -31q60 0 113 20l63 355h130l-116 -660h-130zM261 737.5q-12 12.5 -12 31.5
q0 27 19.5 47.5t47.5 20.5q23 0 35 -12.5t12 -33.5q0 -26 -20 -46t-47 -20q-23 0 -35 12.5zM441 737.5q-12 12.5 -12 31.5q0 27 19.5 47.5t47.5 20.5q23 0 35 -12.5t12 -33.5q0 -26 -20 -46t-47 -20q-23 0 -35 12.5z" />
    <glyph glyph-name="uni04F5" unicode="&#x4f5;" horiz-adv-x="553" 
d="M344 178q-46 -18 -93 -18q-75 0 -121 29t-46 89q0 17 6 51q7 32 7 56q0 28 -13 41.5t-44 13.5h-10l5 30h120q40 0 57 -15t17 -52q0 -17 -3 -37t-4 -25q-8 -42 -8 -65q0 -71 68 -71q22 0 37 3.5t32 12.5l44 249h130l-82 -470h-130zM193 547.5q-12 12.5 -12 31.5
q0 27 19.5 47.5t47.5 20.5q23 0 35 -12.5t12 -33.5q0 -26 -20 -46t-47 -20q-23 0 -35 12.5zM373 547.5q-12 12.5 -12 31.5q0 27 19.5 47.5t47.5 20.5q23 0 35 -12.5t12 -33.5q0 -26 -20 -46t-47 -20q-23 0 -35 12.5z" />
    <glyph glyph-name="uni04F6" unicode="&#x4f6;" horiz-adv-x="546" 
d="M586 601q0 -9 -17 -106h-30q3 18 3 33q0 46 -27 66.5t-80 20.5h-149l-100 -570h35q15 0 23.5 -10t5.5 -25l-34 -195h-50q2 34 2 46q0 78 -22.5 108.5t-72.5 30.5h-25q56 318 77 441.5t21 133.5q0 28 -13 41.5t-44 13.5h-10l5 30h429q73 0 73 -59z" />
    <glyph glyph-name="uni04F7" unicode="&#x4f7;" horiz-adv-x="434" 
d="M443 412q0 -6 -2 -22l-13 -70h-30q3 18 3 34q0 37 -20 54t-59 17h-90l-67 -380h30q15 0 23.5 -10t5.5 -25l-30 -170h-45q2 18 2 49q0 64 -21 87.5t-65 23.5h-38l60 340q5 28 5 45q0 27 -13 41t-44 14h-5l5 30h345q63 0 63 -58z" />
    <glyph glyph-name="uni04F8" unicode="&#x4f8;" horiz-adv-x="897" 
d="M125 441.5q21 123.5 21 133.5q0 28 -13 41.5t-44 13.5h-10l5 30h120q40 0 57 -15t17 -52q0 -13 -7 -58.5t-25 -144.5h80q114 0 189 -36.5t75 -122.5q0 -126 -98 -178.5t-234 -52.5h-210q56 318 77 441.5zM654.5 15.5q-17.5 15.5 -17.5 53.5q0 16 17 117.5t84 473.5h130
l-48 -272q-9 -50 -30 -171t-21 -130q0 -28 13 -42.5t45 -14.5h10l-5 -30h-120q-40 0 -57.5 15.5zM399 91q52 51 52 145q0 57 -36 85.5t-111 28.5q-27 0 -47 -5l-20 -5l-51 -290q9 -4 18 -5q20 -5 46 -5q97 0 149 51zM410 737.5q-12 12.5 -12 31.5q0 27 19.5 47.5t47.5 20.5
q23 0 35 -12.5t12 -33.5q0 -26 -20 -46t-47 -20q-23 0 -35 12.5zM590 737.5q-12 12.5 -12 31.5q0 27 19.5 47.5t47.5 20.5q23 0 35 -12.5t12 -33.5q0 -26 -20 -46t-47 -20q-23 0 -35 12.5z" />
    <glyph glyph-name="uni04F9" unicode="&#x4f9;" horiz-adv-x="743" 
d="M79 270q18 109 18 115q0 28 -13 41.5t-44 13.5h-10l5 30h120q40 0 57 -15t17 -52q0 -16 -9 -73l-8 -50h65q86 0 134 -30t48 -86q0 -76 -64.5 -120t-166.5 -44h-195zM515.5 15.5q-17.5 15.5 -17.5 53.5q0 13 14.5 100t52.5 301h130q-65 -361 -65 -383q0 -28 13 -42.5
t45 -14.5h10l-5 -30h-120q-40 0 -57.5 15.5zM291.5 70.5q33.5 30.5 33.5 97.5q0 38 -21 55t-54 17q-25 0 -46 -7l-33 -186q21 -7 44 -7q43 0 76.5 30.5zM299 547.5q-12 12.5 -12 31.5q0 27 19.5 47.5t47.5 20.5q23 0 35 -12.5t12 -33.5q0 -26 -20 -46t-47 -20
q-23 0 -35 12.5zM479 547.5q-12 12.5 -12 31.5q0 27 19.5 47.5t47.5 20.5q23 0 35 -12.5t12 -33.5q0 -26 -20 -46t-47 -20q-23 0 -35 12.5z" />
    <glyph glyph-name="uni051A" unicode="&#x51a;" horiz-adv-x="737" 
d="M384 -157q-101 48 -169 153q-82 25 -128 95t-46 165q0 105 51 203t142.5 159.5t204.5 61.5q85 0 147 -35t95 -97.5t33 -143.5q0 -90 -37 -174t-105 -147t-159 -90q8 -47 39.5 -86.5t75 -62.5t85.5 -23l-5 -26q-123 0 -224 48zM468.5 92q57.5 67 84 162.5t26.5 183.5
q0 95 -38 146t-110 51q-86 0 -143.5 -67.5t-84 -164t-26.5 -182.5q0 -94 37.5 -145t109.5 -51q87 0 144.5 67z" />
    <glyph glyph-name="uni051B" unicode="&#x51b;" horiz-adv-x="549" 
d="M312 20q-12 -8 -31 -15q-36 -15 -79 -15q-89 0 -133.5 49.5t-44.5 133.5q0 73 31 144.5t89.5 117t138.5 45.5q52 0 82 -28q15 -13 23 -27h5l43 45h85l-116 -660h-130zM294 50q15 7 26 15l54 305q-6 18 -17 32q-25 33 -62 33q-49 0 -80.5 -51t-45 -119t-13.5 -120
q0 -54 17 -82t57 -28q34 0 64 15z" />
    <glyph glyph-name="uni051C" unicode="&#x51c;" horiz-adv-x="905" 
d="M103 543q-12 55 -30.5 78t-49.5 27l3 20l43 2q67 0 113 -24.5t62 -102.5l74 -345l136 256l-20 89q-11 54 -33 77.5t-54 27.5l3 20l40 2q68 0 113.5 -24.5t61.5 -102.5l79 -364l256 481h48l-355 -669h-40l-85 392l-206 -392h-40z" />
    <glyph glyph-name="uni051D" unicode="&#x51d;" horiz-adv-x="776" 
d="M89 355q-15 56 -31.5 79t-43.5 25l4 19l48 2q66 0 103.5 -27t56.5 -98l51 -191l96 160l-9 31q-15 54 -31.5 78t-38.5 26l4 19l38 2q69 0 110 -27.5t60 -97.5l57 -201l177 316h53l-268 -480h-46l-81 281l-165 -281h-45z" />
    <glyph glyph-name="uni0524" unicode="&#x524;" horiz-adv-x="710" 
d="M634.5 35q8.5 -10 5.5 -25l-34 -195h-50q2 34 2 46q0 78 -22.5 108.5t-72.5 30.5h-25l108 615h-260l-108 -615h-130q56 318 77 441.5t21 133.5q0 28 -13 41.5t-44 13.5h-10l5 30h600l-108 -615h35q15 0 23.5 -10z" />
    <glyph glyph-name="uni0525" unicode="&#x525;" horiz-adv-x="593" 
d="M533.5 35q8.5 -10 5.5 -25l-30 -170h-45q2 18 2 49q0 64 -21 87.5t-65 23.5h-38l52 297q4 20 4 46q0 87 -76 87q-31 0 -56 -8.5t-41 -22.5q1 -7 1 -20q0 -18 -3 -33l-61 -346h-130l59 340q5 32 5 47q0 26 -12.5 39.5t-43.5 13.5h-10l5 30h99q34 0 52 -8.5t26 -28.5
q55 47 154 47q82 0 122.5 -32t40.5 -100q0 -20 -5 -52l-44 -251h30q15 0 23.5 -10z" />
    <glyph glyph-name="uni1EA0" unicode="&#x1ea0;" horiz-adv-x="647" 
d="M472.5 23q-47.5 27 -64.5 103l-13 56h-266l-114 -182h-52l411 660h45l130 -534q24 -93 86 -100l-4 -25q-18 -5 -49 -5q-62 0 -109.5 27zM158 227h226l-64 261zM222 -158q-11 10 -11 28q0 26 16.5 44.5t43.5 18.5q42 0 42 -39q0 -25 -17 -43.5t-43 -18.5q-20 0 -31 10z
" />
    <glyph glyph-name="uni1EA1" unicode="&#x1ea1;" horiz-adv-x="550" 
d="M68 40q-44 50 -44 130q0 72 31.5 144t91 119t137.5 47q52 0 82 -28q15 -13 23 -27h5l43 45h85l-65 -370l-17 -100h-85l-28 45h-5q-12 -15 -32 -28q-38 -27 -92 -27q-86 0 -130 50zM264 43.5q17 8.5 35 23.5q15 13 28 33l48 270q-6 18 -17 32q-25 33 -62 33
q-48 0 -79.5 -51.5t-46 -120.5t-14.5 -119q0 -109 70 -109q21 0 38 8.5zM173 -158q-11 10 -11 28q0 26 16.5 44.5t43.5 18.5q42 0 42 -39q0 -25 -17 -43.5t-43 -18.5q-20 0 -31 10z" />
    <glyph glyph-name="uni1EA2" unicode="&#x1ea2;" horiz-adv-x="647" 
d="M472.5 23q-47.5 27 -64.5 103l-13 56h-266l-114 -182h-52l411 660h45l130 -534q24 -93 86 -100l-4 -25q-18 -5 -49 -5q-62 0 -109.5 27zM158 227h226l-64 261zM437 765q6 7 11.5 15t6.5 15q2 10 2 14q0 24 -27 24q-18 0 -30 -10.5t-23 -41.5l-55 1q1 6 4 23.5t13 33.5
q16 25 42 40.5t61 15.5q41 0 62 -18t21 -50q0 -15 -2 -23q-2 -11 -9 -20t-20 -21q-16 -16 -24 -26t-12 -26h-52q7 30 31 54z" />
    <glyph glyph-name="uni1EA3" unicode="&#x1ea3;" horiz-adv-x="550" 
d="M68 40q-44 50 -44 130q0 72 31.5 144t91 119t137.5 47q52 0 82 -28q15 -13 23 -27h5l43 45h85l-65 -370l-17 -100h-85l-28 45h-5q-12 -15 -32 -28q-38 -27 -92 -27q-86 0 -130 50zM264 43.5q17 8.5 35 23.5q15 13 28 33l48 270q-6 18 -17 32q-25 33 -62 33
q-48 0 -79.5 -51.5t-46 -120.5t-14.5 -119q0 -109 70 -109q21 0 38 8.5zM364 575q6 7 11.5 15t6.5 15q2 10 2 14q0 24 -27 24q-18 0 -30 -10.5t-23 -41.5l-55 1q1 6 4 23.5t13 33.5q16 25 42 40.5t61 15.5q41 0 62 -18t21 -50q0 -15 -2 -23q-2 -11 -9 -20t-20 -21
q-16 -16 -24 -26t-12 -26h-52q7 30 31 54z" />
    <glyph glyph-name="uni1EA4" unicode="&#x1ea4;" horiz-adv-x="647" 
d="M472.5 23q-47.5 27 -64.5 103l-13 56h-266l-114 -182h-52l411 660h45l130 -534q24 -93 86 -100l-4 -25q-18 -5 -49 -5q-62 0 -109.5 27zM158 227h226l-64 261zM250 710l102 125h130l58 -125h-70l-61 80l-89 -80h-70zM532 774l67 140h119l-131 -140h-55z" />
    <glyph glyph-name="uni1EA5" unicode="&#x1ea5;" horiz-adv-x="550" 
d="M68 40q-44 50 -44 130q0 72 31.5 144t91 119t137.5 47q52 0 82 -28q15 -13 23 -27h5l43 45h85l-65 -370l-17 -100h-85l-28 45h-5q-12 -15 -32 -28q-38 -27 -92 -27q-86 0 -130 50zM264 43.5q17 8.5 35 23.5q15 13 28 33l48 270q-6 18 -17 32q-25 33 -62 33
q-48 0 -79.5 -51.5t-46 -120.5t-14.5 -119q0 -109 70 -109q21 0 38 8.5zM177 520l102 125h130l58 -125h-70l-61 80l-89 -80h-70zM459 584l67 140h119l-131 -140h-55z" />
    <glyph glyph-name="uni1EA6" unicode="&#x1ea6;" horiz-adv-x="647" 
d="M472.5 23q-47.5 27 -64.5 103l-13 56h-266l-114 -182h-52l411 660h45l130 -534q24 -93 86 -100l-4 -25q-18 -5 -49 -5q-62 0 -109.5 27zM158 227h226l-64 261zM250 710l102 125h130l58 -125h-70l-61 80l-89 -80h-70zM574 794l-81 140h119l17 -140h-55z" />
    <glyph glyph-name="uni1EA7" unicode="&#x1ea7;" horiz-adv-x="550" 
d="M68 40q-44 50 -44 130q0 72 31.5 144t91 119t137.5 47q52 0 82 -28q15 -13 23 -27h5l43 45h85l-65 -370l-17 -100h-85l-28 45h-5q-12 -15 -32 -28q-38 -27 -92 -27q-86 0 -130 50zM264 43.5q17 8.5 35 23.5q15 13 28 33l48 270q-6 18 -17 32q-25 33 -62 33
q-48 0 -79.5 -51.5t-46 -120.5t-14.5 -119q0 -109 70 -109q21 0 38 8.5zM177 520l102 125h130l58 -125h-70l-61 80l-89 -80h-70zM501 604l-81 140h119l17 -140h-55z" />
    <glyph glyph-name="uni1EA8" unicode="&#x1ea8;" horiz-adv-x="647" 
d="M472.5 23q-47.5 27 -64.5 103l-13 56h-266l-114 -182h-52l411 660h45l130 -534q24 -93 86 -100l-4 -25q-18 -5 -49 -5q-62 0 -109.5 27zM158 227h226l-64 261zM250 710l102 125h130l58 -125h-70l-61 80l-89 -80h-70zM577 858q6 7 11.5 15t6.5 15q2 10 2 14q0 24 -27 24
q-18 0 -30 -10.5t-23 -41.5l-55 1q1 6 4 23.5t13 33.5q16 25 42 40.5t61 15.5q41 0 62 -18t21 -50q0 -15 -2 -23q-2 -11 -9 -20t-20 -21q-16 -16 -24 -26t-12 -26h-52q7 30 31 54z" />
    <glyph glyph-name="uni1EA9" unicode="&#x1ea9;" horiz-adv-x="550" 
d="M68 40q-44 50 -44 130q0 72 31.5 144t91 119t137.5 47q52 0 82 -28q15 -13 23 -27h5l43 45h85l-65 -370l-17 -100h-85l-28 45h-5q-12 -15 -32 -28q-38 -27 -92 -27q-86 0 -130 50zM264 43.5q17 8.5 35 23.5q15 13 28 33l48 270q-6 18 -17 32q-25 33 -62 33
q-48 0 -79.5 -51.5t-46 -120.5t-14.5 -119q0 -109 70 -109q21 0 38 8.5zM177 520l102 125h130l58 -125h-70l-61 80l-89 -80h-70zM504 668q6 7 11.5 15t6.5 15q2 10 2 14q0 24 -27 24q-18 0 -30 -10.5t-23 -41.5l-55 1q1 6 4 23.5t13 33.5q16 25 42 40.5t61 15.5q41 0 62 -18
t21 -50q0 -15 -2 -23q-2 -11 -9 -20t-20 -21q-16 -16 -24 -26t-12 -26h-52q7 30 31 54z" />
    <glyph glyph-name="uni1EAA" unicode="&#x1eaa;" horiz-adv-x="647" 
d="M472.5 23q-47.5 27 -64.5 103l-13 56h-266l-114 -182h-52l411 660h45l130 -534q24 -93 86 -100l-4 -25q-18 -5 -49 -5q-62 0 -109.5 27zM158 227h226l-64 261zM250 710l102 125h130l58 -125h-70l-61 80l-89 -80h-70zM332 952q21 22 54 22q17 0 28 -6t25 -18q10 -8 17 -12
t15 -4q16 0 28 12t14 28h40q-11 -56 -31.5 -78t-53.5 -22q-17 0 -29 6.5t-25 17.5q-2 2 -8.5 6.5t-12 7t-11.5 2.5q-16 0 -27.5 -12t-14.5 -28h-40q11 56 32 78z" />
    <glyph glyph-name="uni1EAB" unicode="&#x1eab;" horiz-adv-x="550" 
d="M68 40q-44 50 -44 130q0 72 31.5 144t91 119t137.5 47q52 0 82 -28q15 -13 23 -27h5l43 45h85l-65 -370l-17 -100h-85l-28 45h-5q-12 -15 -32 -28q-38 -27 -92 -27q-86 0 -130 50zM264 43.5q17 8.5 35 23.5q15 13 28 33l48 270q-6 18 -17 32q-25 33 -62 33
q-48 0 -79.5 -51.5t-46 -120.5t-14.5 -119q0 -109 70 -109q21 0 38 8.5zM177 520l102 125h130l58 -125h-70l-61 80l-89 -80h-70zM259 762q21 22 54 22q17 0 28 -6t25 -18q10 -8 17 -12t15 -4q16 0 28 12t14 28h40q-11 -56 -31.5 -78t-53.5 -22q-17 0 -29 6.5t-25 17.5
q-2 2 -8.5 6.5t-12 7t-11.5 2.5q-16 0 -27.5 -12t-14.5 -28h-40q11 56 32 78z" />
    <glyph glyph-name="uni1EAC" unicode="&#x1eac;" horiz-adv-x="647" 
d="M472.5 23q-47.5 27 -64.5 103l-13 56h-266l-114 -182h-52l411 660h45l130 -534q24 -93 86 -100l-4 -25q-18 -5 -49 -5q-62 0 -109.5 27zM158 227h226l-64 261zM222 -158q-11 10 -11 28q0 26 16.5 44.5t43.5 18.5q42 0 42 -39q0 -25 -17 -43.5t-43 -18.5q-20 0 -31 10z
M250 710l102 125h130l58 -125h-70l-61 80l-89 -80h-70z" />
    <glyph glyph-name="uni1EAD" unicode="&#x1ead;" horiz-adv-x="550" 
d="M68 40q-44 50 -44 130q0 72 31.5 144t91 119t137.5 47q52 0 82 -28q15 -13 23 -27h5l43 45h85l-65 -370l-17 -100h-85l-28 45h-5q-12 -15 -32 -28q-38 -27 -92 -27q-86 0 -130 50zM264 43.5q17 8.5 35 23.5q15 13 28 33l48 270q-6 18 -17 32q-25 33 -62 33
q-48 0 -79.5 -51.5t-46 -120.5t-14.5 -119q0 -109 70 -109q21 0 38 8.5zM173 -158q-11 10 -11 28q0 26 16.5 44.5t43.5 18.5q42 0 42 -39q0 -25 -17 -43.5t-43 -18.5q-20 0 -31 10zM177 520l102 125h130l58 -125h-70l-61 80l-89 -80h-70z" />
    <glyph glyph-name="uni1EAE" unicode="&#x1eae;" horiz-adv-x="647" 
d="M472.5 23q-47.5 27 -64.5 103l-13 56h-266l-114 -182h-52l411 660h45l130 -534q24 -93 86 -100l-4 -25q-18 -5 -49 -5q-62 0 -109.5 27zM158 227h226l-64 261zM319 725.5q-32 25.5 -44 68.5l32 21q13 -21 39 -35.5t65 -14.5t69.5 14t52.5 36l24 -21q-27 -43 -68.5 -68.5
t-89.5 -25.5t-80 25.5zM382 830l67 140h119l-131 -140h-55z" />
    <glyph glyph-name="uni1EAF" unicode="&#x1eaf;" horiz-adv-x="550" 
d="M68 40q-44 50 -44 130q0 72 31.5 144t91 119t137.5 47q52 0 82 -28q15 -13 23 -27h5l43 45h85l-65 -370l-17 -100h-85l-28 45h-5q-12 -15 -32 -28q-38 -27 -92 -27q-86 0 -130 50zM264 43.5q17 8.5 35 23.5q15 13 28 33l48 270q-6 18 -17 32q-25 33 -62 33
q-48 0 -79.5 -51.5t-46 -120.5t-14.5 -119q0 -109 70 -109q21 0 38 8.5zM246 535.5q-32 25.5 -44 68.5l32 21q13 -21 39 -35.5t65 -14.5t69.5 14t52.5 36l24 -21q-27 -43 -68.5 -68.5t-89.5 -25.5t-80 25.5zM309 640l67 140h119l-131 -140h-55z" />
    <glyph glyph-name="uni1EB0" unicode="&#x1eb0;" horiz-adv-x="647" 
d="M472.5 23q-47.5 27 -64.5 103l-13 56h-266l-114 -182h-52l411 660h45l130 -534q24 -93 86 -100l-4 -25q-18 -5 -49 -5q-62 0 -109.5 27zM158 227h226l-64 261zM319 725.5q-32 25.5 -44 68.5l32 21q13 -21 39 -35.5t65 -14.5t69.5 14t52.5 36l24 -21q-27 -43 -68.5 -68.5
t-89.5 -25.5t-80 25.5zM400 835l-81 140h119l17 -140h-55z" />
    <glyph glyph-name="uni1EB1" unicode="&#x1eb1;" horiz-adv-x="550" 
d="M68 40q-44 50 -44 130q0 72 31.5 144t91 119t137.5 47q52 0 82 -28q15 -13 23 -27h5l43 45h85l-65 -370l-17 -100h-85l-28 45h-5q-12 -15 -32 -28q-38 -27 -92 -27q-86 0 -130 50zM264 43.5q17 8.5 35 23.5q15 13 28 33l48 270q-6 18 -17 32q-25 33 -62 33
q-48 0 -79.5 -51.5t-46 -120.5t-14.5 -119q0 -109 70 -109q21 0 38 8.5zM246 535.5q-32 25.5 -44 68.5l32 21q13 -21 39 -35.5t65 -14.5t69.5 14t52.5 36l24 -21q-27 -43 -68.5 -68.5t-89.5 -25.5t-80 25.5zM327 645l-81 140h119l17 -140h-55z" />
    <glyph glyph-name="uni1EB2" unicode="&#x1eb2;" horiz-adv-x="647" 
d="M472.5 23q-47.5 27 -64.5 103l-13 56h-266l-114 -182h-52l411 660h45l130 -534q24 -93 86 -100l-4 -25q-18 -5 -49 -5q-62 0 -109.5 27zM158 227h226l-64 261zM319 725.5q-32 25.5 -44 68.5l32 21q13 -21 39 -35.5t65 -14.5t69.5 14t52.5 36l24 -21q-27 -43 -68.5 -68.5
t-89.5 -25.5t-80 25.5zM415 890q6 7 11.5 15t6.5 15q2 10 2 14q0 24 -27 24q-18 0 -30 -10.5t-23 -41.5l-55 1q1 6 4 23.5t13 33.5q16 25 42 40.5t61 15.5q41 0 62 -18t21 -50q0 -15 -2 -23q-2 -11 -9 -20t-20 -21q-16 -16 -24 -26t-12 -26h-52q7 30 31 54z" />
    <glyph glyph-name="uni1EB3" unicode="&#x1eb3;" horiz-adv-x="550" 
d="M68 40q-44 50 -44 130q0 72 31.5 144t91 119t137.5 47q52 0 82 -28q15 -13 23 -27h5l43 45h85l-65 -370l-17 -100h-85l-28 45h-5q-12 -15 -32 -28q-38 -27 -92 -27q-86 0 -130 50zM264 43.5q17 8.5 35 23.5q15 13 28 33l48 270q-6 18 -17 32q-25 33 -62 33
q-48 0 -79.5 -51.5t-46 -120.5t-14.5 -119q0 -109 70 -109q21 0 38 8.5zM246 535.5q-32 25.5 -44 68.5l32 21q13 -21 39 -35.5t65 -14.5t69.5 14t52.5 36l24 -21q-27 -43 -68.5 -68.5t-89.5 -25.5t-80 25.5zM342 700q6 7 11.5 15t6.5 15q2 10 2 14q0 24 -27 24
q-18 0 -30 -10.5t-23 -41.5l-55 1q1 6 4 23.5t13 33.5q16 25 42 40.5t61 15.5q41 0 62 -18t21 -50q0 -15 -2 -23q-2 -11 -9 -20t-20 -21q-16 -16 -24 -26t-12 -26h-52q7 30 31 54z" />
    <glyph glyph-name="uni1EB4" unicode="&#x1eb4;" horiz-adv-x="647" 
d="M472.5 23q-47.5 27 -64.5 103l-13 56h-266l-114 -182h-52l411 660h45l130 -534q24 -93 86 -100l-4 -25q-18 -5 -49 -5q-62 0 -109.5 27zM158 227h226l-64 261zM319 725.5q-32 25.5 -44 68.5l32 21q13 -21 39 -35.5t65 -14.5t69.5 14t52.5 36l24 -21q-27 -43 -68.5 -68.5
t-89.5 -25.5t-80 25.5zM329 935q21 22 54 22q17 0 28 -6t25 -18q10 -8 17 -12t15 -4q16 0 28 12t14 28h40q-11 -56 -31.5 -78t-53.5 -22q-17 0 -29 6.5t-25 17.5q-2 2 -8.5 6.5t-12 7t-11.5 2.5q-16 0 -27.5 -12t-14.5 -28h-40q11 56 32 78z" />
    <glyph glyph-name="uni1EB5" unicode="&#x1eb5;" horiz-adv-x="550" 
d="M68 40q-44 50 -44 130q0 72 31.5 144t91 119t137.5 47q52 0 82 -28q15 -13 23 -27h5l43 45h85l-65 -370l-17 -100h-85l-28 45h-5q-12 -15 -32 -28q-38 -27 -92 -27q-86 0 -130 50zM264 43.5q17 8.5 35 23.5q15 13 28 33l48 270q-6 18 -17 32q-25 33 -62 33
q-48 0 -79.5 -51.5t-46 -120.5t-14.5 -119q0 -109 70 -109q21 0 38 8.5zM246 535.5q-32 25.5 -44 68.5l32 21q13 -21 39 -35.5t65 -14.5t69.5 14t52.5 36l24 -21q-27 -43 -68.5 -68.5t-89.5 -25.5t-80 25.5zM256 745q21 22 54 22q17 0 28 -6t25 -18q10 -8 17 -12t15 -4
q16 0 28 12t14 28h40q-11 -56 -31.5 -78t-53.5 -22q-17 0 -29 6.5t-25 17.5q-2 2 -8.5 6.5t-12 7t-11.5 2.5q-16 0 -27.5 -12t-14.5 -28h-40q11 56 32 78z" />
    <glyph glyph-name="uni1EB6" unicode="&#x1eb6;" horiz-adv-x="647" 
d="M472.5 23q-47.5 27 -64.5 103l-13 56h-266l-114 -182h-52l411 660h45l130 -534q24 -93 86 -100l-4 -25q-18 -5 -49 -5q-62 0 -109.5 27zM158 227h226l-64 261zM222 -158q-11 10 -11 28q0 26 16.5 44.5t43.5 18.5q42 0 42 -39q0 -25 -17 -43.5t-43 -18.5q-20 0 -31 10z
M319 725.5q-32 25.5 -44 68.5l32 21q13 -21 39 -35.5t65 -14.5t69.5 14t52.5 36l24 -21q-27 -43 -68.5 -68.5t-89.5 -25.5t-80 25.5z" />
    <glyph glyph-name="uni1EB7" unicode="&#x1eb7;" horiz-adv-x="550" 
d="M68 40q-44 50 -44 130q0 72 31.5 144t91 119t137.5 47q52 0 82 -28q15 -13 23 -27h5l43 45h85l-65 -370l-17 -100h-85l-28 45h-5q-12 -15 -32 -28q-38 -27 -92 -27q-86 0 -130 50zM264 43.5q17 8.5 35 23.5q15 13 28 33l48 270q-6 18 -17 32q-25 33 -62 33
q-48 0 -79.5 -51.5t-46 -120.5t-14.5 -119q0 -109 70 -109q21 0 38 8.5zM173 -158q-11 10 -11 28q0 26 16.5 44.5t43.5 18.5q42 0 42 -39q0 -25 -17 -43.5t-43 -18.5q-20 0 -31 10zM246 535.5q-32 25.5 -44 68.5l32 21q13 -21 39 -35.5t65 -14.5t69.5 14t52.5 36l24 -21
q-27 -43 -68.5 -68.5t-89.5 -25.5t-80 25.5z" />
    <glyph glyph-name="uni1EB8" unicode="&#x1eb8;" horiz-adv-x="602" 
d="M125 441q21 123 21 134q0 28 -13 41.5t-44 13.5h-10l5 30h441q73 0 73 -58q0 -9 -17 -107h-30q3 18 3 33q0 87 -107 87h-161l-44 -250h260l-8 -45h-260l-49 -275h171q57 0 99.5 25.5t79.5 88.5l25 -10l-43 -79q-20 -37 -40.5 -53.5t-58.5 -16.5h-370q56 318 77 441z
M199 -158q-11 10 -11 28q0 26 16.5 44.5t43.5 18.5q42 0 42 -39q0 -25 -17 -43.5t-43 -18.5q-20 0 -31 10z" />
    <glyph glyph-name="uni1EB9" unicode="&#x1eb9;" horiz-adv-x="508" 
d="M76 43q-51 53 -51 139q0 77 34.5 145.5t98 110.5t145.5 42q89 0 138 -32.5t49 -89.5q0 -80 -67 -119t-159 -39h-105q-6 -31 -6 -56q0 -54 23 -81.5t64 -27.5q48 0 84 21.5t73 61.5l27 -23q-37 -45 -85.5 -75t-121.5 -30q-90 0 -141 53zM272 245q37 0 60 37t23 80
q0 36 -17.5 54.5t-42.5 18.5q-96 0 -128 -190h105zM152 -158q-11 10 -11 28q0 26 16.5 44.5t43.5 18.5q42 0 42 -39q0 -25 -17 -43.5t-43 -18.5q-20 0 -31 10z" />
    <glyph glyph-name="uni1EBA" unicode="&#x1eba;" horiz-adv-x="602" 
d="M125 441q21 123 21 134q0 28 -13 41.5t-44 13.5h-10l5 30h441q73 0 73 -58q0 -9 -17 -107h-30q3 18 3 33q0 87 -107 87h-161l-44 -250h260l-8 -45h-260l-49 -275h171q57 0 99.5 25.5t79.5 88.5l25 -10l-43 -79q-20 -37 -40.5 -53.5t-58.5 -16.5h-370q56 318 77 441z
M414 765q6 7 11.5 15t6.5 15q2 10 2 14q0 24 -27 24q-18 0 -30 -10.5t-23 -41.5l-55 1q1 6 4 23.5t13 33.5q16 25 42 40.5t61 15.5q41 0 62 -18t21 -50q0 -15 -2 -23q-2 -11 -9 -20t-20 -21q-16 -16 -24 -26t-12 -26h-52q7 30 31 54z" />
    <glyph glyph-name="uni1EBB" unicode="&#x1ebb;" horiz-adv-x="508" 
d="M76 43q-51 53 -51 139q0 77 34.5 145.5t98 110.5t145.5 42q89 0 138 -32.5t49 -89.5q0 -80 -67 -119t-159 -39h-105q-6 -31 -6 -56q0 -54 23 -81.5t64 -27.5q48 0 84 21.5t73 61.5l27 -23q-37 -45 -85.5 -75t-121.5 -30q-90 0 -141 53zM272 245q37 0 60 37t23 80
q0 36 -17.5 54.5t-42.5 18.5q-96 0 -128 -190h105zM363 575q6 7 11.5 15t6.5 15q2 10 2 14q0 24 -27 24q-18 0 -30 -10.5t-23 -41.5l-55 1q1 6 4 23.5t13 33.5q16 25 42 40.5t61 15.5q41 0 62 -18t21 -50q0 -15 -2 -23q-2 -11 -9 -20t-20 -21q-16 -16 -24 -26t-12 -26h-52
q7 30 31 54z" />
    <glyph glyph-name="uni1EBC" unicode="&#x1ebc;" horiz-adv-x="602" 
d="M125 441q21 123 21 134q0 28 -13 41.5t-44 13.5h-10l5 30h441q73 0 73 -58q0 -9 -17 -107h-30q3 18 3 33q0 87 -107 87h-161l-44 -250h260l-8 -45h-260l-49 -275h171q57 0 99.5 25.5t79.5 88.5l25 -10l-43 -79q-20 -37 -40.5 -53.5t-58.5 -16.5h-370q56 318 77 441z
M296 828q21 22 54 22q17 0 28 -6t25 -18q10 -8 17 -12t15 -4q16 0 28 12t14 28h40q-11 -56 -31.5 -78t-53.5 -22q-17 0 -29 6.5t-25 17.5q-2 2 -8.5 6.5t-12 7t-11.5 2.5q-16 0 -27.5 -12t-14.5 -28h-40q11 56 32 78z" />
    <glyph glyph-name="uni1EBD" unicode="&#x1ebd;" horiz-adv-x="508" 
d="M76 43q-51 53 -51 139q0 77 34.5 145.5t98 110.5t145.5 42q89 0 138 -32.5t49 -89.5q0 -80 -67 -119t-159 -39h-105q-6 -31 -6 -56q0 -54 23 -81.5t64 -27.5q48 0 84 21.5t73 61.5l27 -23q-37 -45 -85.5 -75t-121.5 -30q-90 0 -141 53zM272 245q37 0 60 37t23 80
q0 36 -17.5 54.5t-42.5 18.5q-96 0 -128 -190h105zM245 638q21 22 54 22q17 0 28 -6t25 -18q10 -8 17 -12t15 -4q16 0 28 12t14 28h40q-11 -56 -31.5 -78t-53.5 -22q-17 0 -29 6.5t-25 17.5q-2 2 -8.5 6.5t-12 7t-11.5 2.5q-16 0 -27.5 -12t-14.5 -28h-40q11 56 32 78z" />
    <glyph glyph-name="uni1EBE" unicode="&#x1ebe;" horiz-adv-x="602" 
d="M125 441q21 123 21 134q0 28 -13 41.5t-44 13.5h-10l5 30h441q73 0 73 -58q0 -9 -17 -107h-30q3 18 3 33q0 87 -107 87h-161l-44 -250h260l-8 -45h-260l-49 -275h171q57 0 99.5 25.5t79.5 88.5l25 -10l-43 -79q-20 -37 -40.5 -53.5t-58.5 -16.5h-370q56 318 77 441z
M227 710l102 125h130l58 -125h-70l-61 80l-89 -80h-70zM509 774l67 140h119l-131 -140h-55z" />
    <glyph glyph-name="uni1EBF" unicode="&#x1ebf;" horiz-adv-x="508" 
d="M76 43q-51 53 -51 139q0 77 34.5 145.5t98 110.5t145.5 42q89 0 138 -32.5t49 -89.5q0 -80 -67 -119t-159 -39h-105q-6 -31 -6 -56q0 -54 23 -81.5t64 -27.5q48 0 84 21.5t73 61.5l27 -23q-37 -45 -85.5 -75t-121.5 -30q-90 0 -141 53zM272 245q37 0 60 37t23 80
q0 36 -17.5 54.5t-42.5 18.5q-96 0 -128 -190h105zM176 520l102 125h130l58 -125h-70l-61 80l-89 -80h-70zM458 584l67 140h119l-131 -140h-55z" />
    <glyph glyph-name="uni1EC0" unicode="&#x1ec0;" horiz-adv-x="602" 
d="M125 441q21 123 21 134q0 28 -13 41.5t-44 13.5h-10l5 30h441q73 0 73 -58q0 -9 -17 -107h-30q3 18 3 33q0 87 -107 87h-161l-44 -250h260l-8 -45h-260l-49 -275h171q57 0 99.5 25.5t79.5 88.5l25 -10l-43 -79q-20 -37 -40.5 -53.5t-58.5 -16.5h-370q56 318 77 441z
M227 710l102 125h130l58 -125h-70l-61 80l-89 -80h-70zM551 794l-81 140h119l17 -140h-55z" />
    <glyph glyph-name="uni1EC1" unicode="&#x1ec1;" horiz-adv-x="508" 
d="M76 43q-51 53 -51 139q0 77 34.5 145.5t98 110.5t145.5 42q89 0 138 -32.5t49 -89.5q0 -80 -67 -119t-159 -39h-105q-6 -31 -6 -56q0 -54 23 -81.5t64 -27.5q48 0 84 21.5t73 61.5l27 -23q-37 -45 -85.5 -75t-121.5 -30q-90 0 -141 53zM272 245q37 0 60 37t23 80
q0 36 -17.5 54.5t-42.5 18.5q-96 0 -128 -190h105zM176 520l102 125h130l58 -125h-70l-61 80l-89 -80h-70zM500 604l-81 140h119l17 -140h-55z" />
    <glyph glyph-name="uni1EC2" unicode="&#x1ec2;" horiz-adv-x="602" 
d="M125 441q21 123 21 134q0 28 -13 41.5t-44 13.5h-10l5 30h441q73 0 73 -58q0 -9 -17 -107h-30q3 18 3 33q0 87 -107 87h-161l-44 -250h260l-8 -45h-260l-49 -275h171q57 0 99.5 25.5t79.5 88.5l25 -10l-43 -79q-20 -37 -40.5 -53.5t-58.5 -16.5h-370q56 318 77 441z
M227 710l102 125h130l58 -125h-70l-61 80l-89 -80h-70zM554 858q6 7 11.5 15t6.5 15q2 10 2 14q0 24 -27 24q-18 0 -30 -10.5t-23 -41.5l-55 1q1 6 4 23.5t13 33.5q16 25 42 40.5t61 15.5q41 0 62 -18t21 -50q0 -15 -2 -23q-2 -11 -9 -20t-20 -21q-16 -16 -24 -26t-12 -26
h-52q7 30 31 54z" />
    <glyph glyph-name="uni1EC3" unicode="&#x1ec3;" horiz-adv-x="508" 
d="M76 43q-51 53 -51 139q0 77 34.5 145.5t98 110.5t145.5 42q89 0 138 -32.5t49 -89.5q0 -80 -67 -119t-159 -39h-105q-6 -31 -6 -56q0 -54 23 -81.5t64 -27.5q48 0 84 21.5t73 61.5l27 -23q-37 -45 -85.5 -75t-121.5 -30q-90 0 -141 53zM272 245q37 0 60 37t23 80
q0 36 -17.5 54.5t-42.5 18.5q-96 0 -128 -190h105zM176 520l102 125h130l58 -125h-70l-61 80l-89 -80h-70zM503 668q6 7 11.5 15t6.5 15q2 10 2 14q0 24 -27 24q-18 0 -30 -10.5t-23 -41.5l-55 1q1 6 4 23.5t13 33.5q16 25 42 40.5t61 15.5q41 0 62 -18t21 -50q0 -15 -2 -23
q-2 -11 -9 -20t-20 -21q-16 -16 -24 -26t-12 -26h-52q7 30 31 54z" />
    <glyph glyph-name="uni1EC4" unicode="&#x1ec4;" horiz-adv-x="602" 
d="M125 441q21 123 21 134q0 28 -13 41.5t-44 13.5h-10l5 30h441q73 0 73 -58q0 -9 -17 -107h-30q3 18 3 33q0 87 -107 87h-161l-44 -250h260l-8 -45h-260l-49 -275h171q57 0 99.5 25.5t79.5 88.5l25 -10l-43 -79q-20 -37 -40.5 -53.5t-58.5 -16.5h-370q56 318 77 441z
M227 710l102 125h130l58 -125h-70l-61 80l-89 -80h-70zM309 952q21 22 54 22q17 0 28 -6t25 -18q10 -8 17 -12t15 -4q16 0 28 12t14 28h40q-11 -56 -31.5 -78t-53.5 -22q-17 0 -29 6.5t-25 17.5q-2 2 -8.5 6.5t-12 7t-11.5 2.5q-16 0 -27.5 -12t-14.5 -28h-40q11 56 32 78z
" />
    <glyph glyph-name="uni1EC5" unicode="&#x1ec5;" horiz-adv-x="508" 
d="M76 43q-51 53 -51 139q0 77 34.5 145.5t98 110.5t145.5 42q89 0 138 -32.5t49 -89.5q0 -80 -67 -119t-159 -39h-105q-6 -31 -6 -56q0 -54 23 -81.5t64 -27.5q48 0 84 21.5t73 61.5l27 -23q-37 -45 -85.5 -75t-121.5 -30q-90 0 -141 53zM272 245q37 0 60 37t23 80
q0 36 -17.5 54.5t-42.5 18.5q-96 0 -128 -190h105zM176 520l102 125h130l58 -125h-70l-61 80l-89 -80h-70zM258 762q21 22 54 22q17 0 28 -6t25 -18q10 -8 17 -12t15 -4q16 0 28 12t14 28h40q-11 -56 -31.5 -78t-53.5 -22q-17 0 -29 6.5t-25 17.5q-2 2 -8.5 6.5t-12 7
t-11.5 2.5q-16 0 -27.5 -12t-14.5 -28h-40q11 56 32 78z" />
    <glyph glyph-name="uni1EC6" unicode="&#x1ec6;" horiz-adv-x="602" 
d="M125 441q21 123 21 134q0 28 -13 41.5t-44 13.5h-10l5 30h441q73 0 73 -58q0 -9 -17 -107h-30q3 18 3 33q0 87 -107 87h-161l-44 -250h260l-8 -45h-260l-49 -275h171q57 0 99.5 25.5t79.5 88.5l25 -10l-43 -79q-20 -37 -40.5 -53.5t-58.5 -16.5h-370q56 318 77 441z
M199 -158q-11 10 -11 28q0 26 16.5 44.5t43.5 18.5q42 0 42 -39q0 -25 -17 -43.5t-43 -18.5q-20 0 -31 10zM227 710l102 125h130l58 -125h-70l-61 80l-89 -80h-70z" />
    <glyph glyph-name="uni1EC7" unicode="&#x1ec7;" horiz-adv-x="508" 
d="M76 43q-51 53 -51 139q0 77 34.5 145.5t98 110.5t145.5 42q89 0 138 -32.5t49 -89.5q0 -80 -67 -119t-159 -39h-105q-6 -31 -6 -56q0 -54 23 -81.5t64 -27.5q48 0 84 21.5t73 61.5l27 -23q-37 -45 -85.5 -75t-121.5 -30q-90 0 -141 53zM272 245q37 0 60 37t23 80
q0 36 -17.5 54.5t-42.5 18.5q-96 0 -128 -190h105zM152 -158q-11 10 -11 28q0 26 16.5 44.5t43.5 18.5q42 0 42 -39q0 -25 -17 -43.5t-43 -18.5q-20 0 -31 10zM176 520l102 125h130l58 -125h-70l-61 80l-89 -80h-70z" />
    <glyph glyph-name="uni1EC8" unicode="&#x1ec8;" horiz-adv-x="307" 
d="M65 15.5q-17 15.5 -17 53.5q0 25 6 61l94 530h130l-94 -530q-4 -21 -4 -43q0 -28 13 -42.5t44 -14.5h10l-5 -30h-120q-40 0 -57 15.5zM247 765q6 7 11.5 15t6.5 15q2 10 2 14q0 24 -27 24q-18 0 -30 -10.5t-23 -41.5l-55 1q1 6 4 23.5t13 33.5q16 25 42 40.5t61 15.5
q41 0 62 -18t21 -50q0 -15 -2 -23q-2 -11 -9 -20t-20 -21q-16 -16 -24 -26t-12 -26h-52q7 30 31 54z" />
    <glyph glyph-name="uni1EC9" unicode="&#x1ec9;" horiz-adv-x="271" 
d="M81 283q16 91 16 102q0 28 -13 41.5t-44 13.5h-10l5 30h120q40 0 57 -15t17 -52q0 -15 -11 -83.5t-55 -319.5h-130zM185 575q6 7 11.5 15t6.5 15q2 10 2 14q0 24 -27 24q-18 0 -30 -10.5t-23 -41.5l-55 1q1 6 4 23.5t13 33.5q16 25 42 40.5t61 15.5q41 0 62 -18t21 -50
q0 -15 -2 -23q-2 -11 -9 -20t-20 -21q-16 -16 -24 -26t-12 -26h-52q7 30 31 54z" />
    <glyph glyph-name="uni1ECA" unicode="&#x1eca;" horiz-adv-x="307" 
d="M65 15.5q-17 15.5 -17 53.5q0 25 6 61l94 530h130l-94 -530q-4 -21 -4 -43q0 -28 13 -42.5t44 -14.5h10l-5 -30h-120q-40 0 -57 15.5zM52 -158q-11 10 -11 28q0 26 16.5 44.5t43.5 18.5q42 0 42 -39q0 -25 -17 -43.5t-43 -18.5q-20 0 -31 10z" />
    <glyph glyph-name="uni1ECB" unicode="&#x1ecb;" horiz-adv-x="271" 
d="M143 541q-16 17 -16 43q0 29 18.5 50.5t47.5 21.5q31 0 47 -17t16 -43q0 -32 -16.5 -52t-49.5 -20q-31 0 -47 17zM92 340q5 32 5 45q0 28 -13 41.5t-44 13.5h-10l5 30h120q40 0 57 -15t17 -52q0 -19 -7 -63l-59 -340h-130zM34 -158q-11 10 -11 28q0 26 16.5 44.5
t43.5 18.5q42 0 42 -39q0 -25 -17 -43.5t-43 -18.5q-20 0 -31 10z" />
    <glyph glyph-name="uni1ECC" unicode="&#x1ecc;" horiz-adv-x="735" 
d="M168 15q-62 35 -95 97.5t-33 143.5q0 105 51 203t142.5 159.5t204.5 61.5q85 0 147 -35t95 -97.5t33 -143.5q0 -105 -51 -203t-142.5 -159.5t-204.5 -61.5q-85 0 -147 35zM467.5 92q57.5 67 84 162.5t26.5 183.5q0 95 -38 146t-110 51q-86 0 -143.5 -67.5t-84 -164
t-26.5 -182.5q0 -94 37.5 -145t109.5 -51q87 0 144.5 67zM266 -158q-11 10 -11 28q0 26 16.5 44.5t43.5 18.5q42 0 42 -39q0 -25 -17 -43.5t-43 -18.5q-20 0 -31 10z" />
    <glyph glyph-name="uni1ECD" unicode="&#x1ecd;" horiz-adv-x="553" 
d="M77 43.5q-53 53.5 -53 140.5q0 75 37.5 143.5t103.5 110.5t147 42q96 0 149 -53.5t53 -140.5q0 -75 -37.5 -143.5t-103.5 -110.5t-147 -42q-96 0 -149 53.5zM317 82.5q33 47.5 48.5 113t15.5 117.5q0 58 -19 90t-58 32q-50 0 -83 -47.5t-48.5 -113t-15.5 -117.5
q0 -58 19 -90t58 -32q50 0 83 47.5zM175 -158q-11 10 -11 28q0 26 16.5 44.5t43.5 18.5q42 0 42 -39q0 -25 -17 -43.5t-43 -18.5q-20 0 -31 10z" />
    <glyph glyph-name="uni1ECE" unicode="&#x1ece;" horiz-adv-x="735" 
d="M168 15q-62 35 -95 97.5t-33 143.5q0 105 51 203t142.5 159.5t204.5 61.5q85 0 147 -35t95 -97.5t33 -143.5q0 -105 -51 -203t-142.5 -159.5t-204.5 -61.5q-85 0 -147 35zM467.5 92q57.5 67 84 162.5t26.5 183.5q0 95 -38 146t-110 51q-86 0 -143.5 -67.5t-84 -164
t-26.5 -182.5q0 -94 37.5 -145t109.5 -51q87 0 144.5 67zM481 765q6 7 11.5 15t6.5 15q2 10 2 14q0 24 -27 24q-18 0 -30 -10.5t-23 -41.5l-55 1q1 6 4 23.5t13 33.5q16 25 42 40.5t61 15.5q41 0 62 -18t21 -50q0 -15 -2 -23q-2 -11 -9 -20t-20 -21q-16 -16 -24 -26t-12 -26
h-52q7 30 31 54z" />
    <glyph glyph-name="uni1ECF" unicode="&#x1ecf;" horiz-adv-x="553" 
d="M77 43.5q-53 53.5 -53 140.5q0 75 37.5 143.5t103.5 110.5t147 42q96 0 149 -53.5t53 -140.5q0 -75 -37.5 -143.5t-103.5 -110.5t-147 -42q-96 0 -149 53.5zM317 82.5q33 47.5 48.5 113t15.5 117.5q0 58 -19 90t-58 32q-50 0 -83 -47.5t-48.5 -113t-15.5 -117.5
q0 -58 19 -90t58 -32q50 0 83 47.5zM356 575q6 7 11.5 15t6.5 15q2 10 2 14q0 24 -27 24q-18 0 -30 -10.5t-23 -41.5l-55 1q1 6 4 23.5t13 33.5q16 25 42 40.5t61 15.5q41 0 62 -18t21 -50q0 -15 -2 -23q-2 -11 -9 -20t-20 -21q-16 -16 -24 -26t-12 -26h-52q7 30 31 54z" />
    <glyph glyph-name="uni1ED0" unicode="&#x1ed0;" horiz-adv-x="735" 
d="M168 15q-62 35 -95 97.5t-33 143.5q0 105 51 203t142.5 159.5t204.5 61.5q85 0 147 -35t95 -97.5t33 -143.5q0 -105 -51 -203t-142.5 -159.5t-204.5 -61.5q-85 0 -147 35zM467.5 92q57.5 67 84 162.5t26.5 183.5q0 95 -38 146t-110 51q-86 0 -143.5 -67.5t-84 -164
t-26.5 -182.5q0 -94 37.5 -145t109.5 -51q87 0 144.5 67zM294 710l102 125h130l58 -125h-70l-61 80l-89 -80h-70zM576 774l67 140h119l-131 -140h-55z" />
    <glyph glyph-name="uni1ED1" unicode="&#x1ed1;" horiz-adv-x="553" 
d="M77 43.5q-53 53.5 -53 140.5q0 75 37.5 143.5t103.5 110.5t147 42q96 0 149 -53.5t53 -140.5q0 -75 -37.5 -143.5t-103.5 -110.5t-147 -42q-96 0 -149 53.5zM317 82.5q33 47.5 48.5 113t15.5 117.5q0 58 -19 90t-58 32q-50 0 -83 -47.5t-48.5 -113t-15.5 -117.5
q0 -58 19 -90t58 -32q50 0 83 47.5zM169 520l102 125h130l58 -125h-70l-61 80l-89 -80h-70zM451 584l67 140h119l-131 -140h-55z" />
    <glyph glyph-name="uni1ED2" unicode="&#x1ed2;" horiz-adv-x="735" 
d="M168 15q-62 35 -95 97.5t-33 143.5q0 105 51 203t142.5 159.5t204.5 61.5q85 0 147 -35t95 -97.5t33 -143.5q0 -105 -51 -203t-142.5 -159.5t-204.5 -61.5q-85 0 -147 35zM467.5 92q57.5 67 84 162.5t26.5 183.5q0 95 -38 146t-110 51q-86 0 -143.5 -67.5t-84 -164
t-26.5 -182.5q0 -94 37.5 -145t109.5 -51q87 0 144.5 67zM294 710l102 125h130l58 -125h-70l-61 80l-89 -80h-70zM618 794l-81 140h119l17 -140h-55z" />
    <glyph glyph-name="uni1ED3" unicode="&#x1ed3;" horiz-adv-x="553" 
d="M77 43.5q-53 53.5 -53 140.5q0 75 37.5 143.5t103.5 110.5t147 42q96 0 149 -53.5t53 -140.5q0 -75 -37.5 -143.5t-103.5 -110.5t-147 -42q-96 0 -149 53.5zM317 82.5q33 47.5 48.5 113t15.5 117.5q0 58 -19 90t-58 32q-50 0 -83 -47.5t-48.5 -113t-15.5 -117.5
q0 -58 19 -90t58 -32q50 0 83 47.5zM169 520l102 125h130l58 -125h-70l-61 80l-89 -80h-70zM493 604l-81 140h119l17 -140h-55z" />
    <glyph glyph-name="uni1ED4" unicode="&#x1ed4;" horiz-adv-x="735" 
d="M168 15q-62 35 -95 97.5t-33 143.5q0 105 51 203t142.5 159.5t204.5 61.5q85 0 147 -35t95 -97.5t33 -143.5q0 -105 -51 -203t-142.5 -159.5t-204.5 -61.5q-85 0 -147 35zM467.5 92q57.5 67 84 162.5t26.5 183.5q0 95 -38 146t-110 51q-86 0 -143.5 -67.5t-84 -164
t-26.5 -182.5q0 -94 37.5 -145t109.5 -51q87 0 144.5 67zM294 710l102 125h130l58 -125h-70l-61 80l-89 -80h-70zM621 858q6 7 11.5 15t6.5 15q2 10 2 14q0 24 -27 24q-18 0 -30 -10.5t-23 -41.5l-55 1q1 6 4 23.5t13 33.5q16 25 42 40.5t61 15.5q41 0 62 -18t21 -50
q0 -15 -2 -23q-2 -11 -9 -20t-20 -21q-16 -16 -24 -26t-12 -26h-52q7 30 31 54z" />
    <glyph glyph-name="uni1ED5" unicode="&#x1ed5;" horiz-adv-x="553" 
d="M77 43.5q-53 53.5 -53 140.5q0 75 37.5 143.5t103.5 110.5t147 42q96 0 149 -53.5t53 -140.5q0 -75 -37.5 -143.5t-103.5 -110.5t-147 -42q-96 0 -149 53.5zM317 82.5q33 47.5 48.5 113t15.5 117.5q0 58 -19 90t-58 32q-50 0 -83 -47.5t-48.5 -113t-15.5 -117.5
q0 -58 19 -90t58 -32q50 0 83 47.5zM169 520l102 125h130l58 -125h-70l-61 80l-89 -80h-70zM496 668q6 7 11.5 15t6.5 15q2 10 2 14q0 24 -27 24q-18 0 -30 -10.5t-23 -41.5l-55 1q1 6 4 23.5t13 33.5q16 25 42 40.5t61 15.5q41 0 62 -18t21 -50q0 -15 -2 -23q-2 -11 -9 -20
t-20 -21q-16 -16 -24 -26t-12 -26h-52q7 30 31 54z" />
    <glyph glyph-name="uni1ED6" unicode="&#x1ed6;" horiz-adv-x="735" 
d="M168 15q-62 35 -95 97.5t-33 143.5q0 105 51 203t142.5 159.5t204.5 61.5q85 0 147 -35t95 -97.5t33 -143.5q0 -105 -51 -203t-142.5 -159.5t-204.5 -61.5q-85 0 -147 35zM467.5 92q57.5 67 84 162.5t26.5 183.5q0 95 -38 146t-110 51q-86 0 -143.5 -67.5t-84 -164
t-26.5 -182.5q0 -94 37.5 -145t109.5 -51q87 0 144.5 67zM294 710l102 125h130l58 -125h-70l-61 80l-89 -80h-70zM376 952q21 22 54 22q17 0 28 -6t25 -18q10 -8 17 -12t15 -4q16 0 28 12t14 28h40q-11 -56 -31.5 -78t-53.5 -22q-17 0 -29 6.5t-25 17.5q-2 2 -8.5 6.5t-12 7
t-11.5 2.5q-16 0 -27.5 -12t-14.5 -28h-40q11 56 32 78z" />
    <glyph glyph-name="uni1ED7" unicode="&#x1ed7;" horiz-adv-x="553" 
d="M77 43.5q-53 53.5 -53 140.5q0 75 37.5 143.5t103.5 110.5t147 42q96 0 149 -53.5t53 -140.5q0 -75 -37.5 -143.5t-103.5 -110.5t-147 -42q-96 0 -149 53.5zM317 82.5q33 47.5 48.5 113t15.5 117.5q0 58 -19 90t-58 32q-50 0 -83 -47.5t-48.5 -113t-15.5 -117.5
q0 -58 19 -90t58 -32q50 0 83 47.5zM169 520l102 125h130l58 -125h-70l-61 80l-89 -80h-70zM251 762q21 22 54 22q17 0 28 -6t25 -18q10 -8 17 -12t15 -4q16 0 28 12t14 28h40q-11 -56 -31.5 -78t-53.5 -22q-17 0 -29 6.5t-25 17.5q-2 2 -8.5 6.5t-12 7t-11.5 2.5
q-16 0 -27.5 -12t-14.5 -28h-40q11 56 32 78z" />
    <glyph glyph-name="uni1ED8" unicode="&#x1ed8;" horiz-adv-x="735" 
d="M168 15q-62 35 -95 97.5t-33 143.5q0 105 51 203t142.5 159.5t204.5 61.5q85 0 147 -35t95 -97.5t33 -143.5q0 -105 -51 -203t-142.5 -159.5t-204.5 -61.5q-85 0 -147 35zM467.5 92q57.5 67 84 162.5t26.5 183.5q0 95 -38 146t-110 51q-86 0 -143.5 -67.5t-84 -164
t-26.5 -182.5q0 -94 37.5 -145t109.5 -51q87 0 144.5 67zM266 -158q-11 10 -11 28q0 26 16.5 44.5t43.5 18.5q42 0 42 -39q0 -25 -17 -43.5t-43 -18.5q-20 0 -31 10zM294 710l102 125h130l58 -125h-70l-61 80l-89 -80h-70z" />
    <glyph glyph-name="uni1ED9" unicode="&#x1ed9;" horiz-adv-x="553" 
d="M77 43.5q-53 53.5 -53 140.5q0 75 37.5 143.5t103.5 110.5t147 42q96 0 149 -53.5t53 -140.5q0 -75 -37.5 -143.5t-103.5 -110.5t-147 -42q-96 0 -149 53.5zM317 82.5q33 47.5 48.5 113t15.5 117.5q0 58 -19 90t-58 32q-50 0 -83 -47.5t-48.5 -113t-15.5 -117.5
q0 -58 19 -90t58 -32q50 0 83 47.5zM175 -158q-11 10 -11 28q0 26 16.5 44.5t43.5 18.5q42 0 42 -39q0 -25 -17 -43.5t-43 -18.5q-20 0 -31 10zM169 520l102 125h130l58 -125h-70l-61 80l-89 -80h-70z" />
    <glyph glyph-name="uni1EDA" unicode="&#x1eda;" horiz-adv-x="735" 
d="M168 15q-62 35 -95 97.5t-33 143.5q0 105 51 203t142.5 159.5t204.5 61.5q85 0 147 -35t95 -97.5t33 -143.5q0 -105 -51 -203t-142.5 -159.5t-204.5 -61.5q-85 0 -147 35zM467.5 92q57.5 67 84 162.5t26.5 183.5q0 95 -38 146t-110 51q-86 0 -143.5 -67.5t-84 -164
t-26.5 -182.5q0 -94 37.5 -145t109.5 -51q87 0 144.5 67zM694 659q50 0 81 31t39 73h80q-7 -36 -33.5 -70t-71 -55.5t-103.5 -21.5zM420 715l67 140h119l-131 -140h-55z" />
    <glyph glyph-name="uni1EDB" unicode="&#x1edb;" horiz-adv-x="553" 
d="M533 494q-33 -37 -86 -55q33 -26 50 -65.5t17 -87.5q0 -75 -37.5 -143.5t-103.5 -110.5t-147 -42q-96 0 -149 53.5t-53 140.5q0 75 37.5 143.5t103.5 110.5t147 42q38 0 75 -10q45 4 72.5 34t34.5 69h80q-8 -42 -41 -79zM317 82.5q33 47.5 48.5 113t15.5 117.5
q0 58 -19 90t-58 32q-50 0 -83 -47.5t-48.5 -113t-15.5 -117.5q0 -58 19 -90t58 -32q50 0 83 47.5zM295 525l67 140h119l-131 -140h-55z" />
    <glyph glyph-name="uni1EDC" unicode="&#x1edc;" horiz-adv-x="735" 
d="M168 15q-62 35 -95 97.5t-33 143.5q0 105 51 203t142.5 159.5t204.5 61.5q85 0 147 -35t95 -97.5t33 -143.5q0 -105 -51 -203t-142.5 -159.5t-204.5 -61.5q-85 0 -147 35zM467.5 92q57.5 67 84 162.5t26.5 183.5q0 95 -38 146t-110 51q-86 0 -143.5 -67.5t-84 -164
t-26.5 -182.5q0 -94 37.5 -145t109.5 -51q87 0 144.5 67zM694 659q50 0 81 31t39 73h80q-7 -36 -33.5 -70t-71 -55.5t-103.5 -21.5zM417 715l-81 140h119l17 -140h-55z" />
    <glyph glyph-name="uni1EDD" unicode="&#x1edd;" horiz-adv-x="553" 
d="M533 494q-33 -37 -86 -55q33 -26 50 -65.5t17 -87.5q0 -75 -37.5 -143.5t-103.5 -110.5t-147 -42q-96 0 -149 53.5t-53 140.5q0 75 37.5 143.5t103.5 110.5t147 42q38 0 75 -10q45 4 72.5 34t34.5 69h80q-8 -42 -41 -79zM317 82.5q33 47.5 48.5 113t15.5 117.5
q0 58 -19 90t-58 32q-50 0 -83 -47.5t-48.5 -113t-15.5 -117.5q0 -58 19 -90t58 -32q50 0 83 47.5zM292 525l-81 140h119l17 -140h-55z" />
    <glyph glyph-name="uni1EDE" unicode="&#x1ede;" horiz-adv-x="735" 
d="M168 15q-62 35 -95 97.5t-33 143.5q0 105 51 203t142.5 159.5t204.5 61.5q85 0 147 -35t95 -97.5t33 -143.5q0 -105 -51 -203t-142.5 -159.5t-204.5 -61.5q-85 0 -147 35zM467.5 92q57.5 67 84 162.5t26.5 183.5q0 95 -38 146t-110 51q-86 0 -143.5 -67.5t-84 -164
t-26.5 -182.5q0 -94 37.5 -145t109.5 -51q87 0 144.5 67zM694 659q50 0 81 31t39 73h80q-7 -36 -33.5 -70t-71 -55.5t-103.5 -21.5zM481 765q6 7 11.5 15t6.5 15q2 10 2 14q0 24 -27 24q-18 0 -30 -10.5t-23 -41.5l-55 1q1 6 4 23.5t13 33.5q16 25 42 40.5t61 15.5
q41 0 62 -18t21 -50q0 -15 -2 -23q-2 -11 -9 -20t-20 -21q-16 -16 -24 -26t-12 -26h-52q7 30 31 54z" />
    <glyph glyph-name="uni1EDF" unicode="&#x1edf;" horiz-adv-x="553" 
d="M533 494q-33 -37 -86 -55q33 -26 50 -65.5t17 -87.5q0 -75 -37.5 -143.5t-103.5 -110.5t-147 -42q-96 0 -149 53.5t-53 140.5q0 75 37.5 143.5t103.5 110.5t147 42q38 0 75 -10q45 4 72.5 34t34.5 69h80q-8 -42 -41 -79zM317 82.5q33 47.5 48.5 113t15.5 117.5
q0 58 -19 90t-58 32q-50 0 -83 -47.5t-48.5 -113t-15.5 -117.5q0 -58 19 -90t58 -32q50 0 83 47.5zM356 575q6 7 11.5 15t6.5 15q2 10 2 14q0 24 -27 24q-18 0 -30 -10.5t-23 -41.5l-55 1q1 6 4 23.5t13 33.5q16 25 42 40.5t61 15.5q41 0 62 -18t21 -50q0 -15 -2 -23
q-2 -11 -9 -20t-20 -21q-16 -16 -24 -26t-12 -26h-52q7 30 31 54z" />
    <glyph glyph-name="uni1EE0" unicode="&#x1ee0;" horiz-adv-x="735" 
d="M168 15q-62 35 -95 97.5t-33 143.5q0 105 51 203t142.5 159.5t204.5 61.5q85 0 147 -35t95 -97.5t33 -143.5q0 -105 -51 -203t-142.5 -159.5t-204.5 -61.5q-85 0 -147 35zM467.5 92q57.5 67 84 162.5t26.5 183.5q0 95 -38 146t-110 51q-86 0 -143.5 -67.5t-84 -164
t-26.5 -182.5q0 -94 37.5 -145t109.5 -51q87 0 144.5 67zM694 659q50 0 81 31t39 73h80q-7 -36 -33.5 -70t-71 -55.5t-103.5 -21.5zM363 828q21 22 54 22q17 0 28 -6t25 -18q10 -8 17 -12t15 -4q16 0 28 12t14 28h40q-11 -56 -31.5 -78t-53.5 -22q-17 0 -29 6.5t-25 17.5
q-2 2 -8.5 6.5t-12 7t-11.5 2.5q-16 0 -27.5 -12t-14.5 -28h-40q11 56 32 78z" />
    <glyph glyph-name="uni1EE1" unicode="&#x1ee1;" horiz-adv-x="553" 
d="M533 494q-33 -37 -86 -55q33 -26 50 -65.5t17 -87.5q0 -75 -37.5 -143.5t-103.5 -110.5t-147 -42q-96 0 -149 53.5t-53 140.5q0 75 37.5 143.5t103.5 110.5t147 42q38 0 75 -10q45 4 72.5 34t34.5 69h80q-8 -42 -41 -79zM317 82.5q33 47.5 48.5 113t15.5 117.5
q0 58 -19 90t-58 32q-50 0 -83 -47.5t-48.5 -113t-15.5 -117.5q0 -58 19 -90t58 -32q50 0 83 47.5zM238 638q21 22 54 22q17 0 28 -6t25 -18q10 -8 17 -12t15 -4q16 0 28 12t14 28h40q-11 -56 -31.5 -78t-53.5 -22q-17 0 -29 6.5t-25 17.5q-2 2 -8.5 6.5t-12 7t-11.5 2.5
q-16 0 -27.5 -12t-14.5 -28h-40q11 56 32 78z" />
    <glyph glyph-name="uni1EE2" unicode="&#x1ee2;" horiz-adv-x="735" 
d="M168 15q-62 35 -95 97.5t-33 143.5q0 105 51 203t142.5 159.5t204.5 61.5q85 0 147 -35t95 -97.5t33 -143.5q0 -105 -51 -203t-142.5 -159.5t-204.5 -61.5q-85 0 -147 35zM467.5 92q57.5 67 84 162.5t26.5 183.5q0 95 -38 146t-110 51q-86 0 -143.5 -67.5t-84 -164
t-26.5 -182.5q0 -94 37.5 -145t109.5 -51q87 0 144.5 67zM694 659q50 0 81 31t39 73h80q-7 -36 -33.5 -70t-71 -55.5t-103.5 -21.5zM266 -158q-11 10 -11 28q0 26 16.5 44.5t43.5 18.5q42 0 42 -39q0 -25 -17 -43.5t-43 -18.5q-20 0 -31 10z" />
    <glyph glyph-name="uni1EE3" unicode="&#x1ee3;" horiz-adv-x="553" 
d="M533 494q-33 -37 -86 -55q33 -26 50 -65.5t17 -87.5q0 -75 -37.5 -143.5t-103.5 -110.5t-147 -42q-96 0 -149 53.5t-53 140.5q0 75 37.5 143.5t103.5 110.5t147 42q38 0 75 -10q45 4 72.5 34t34.5 69h80q-8 -42 -41 -79zM317 82.5q33 47.5 48.5 113t15.5 117.5
q0 58 -19 90t-58 32q-50 0 -83 -47.5t-48.5 -113t-15.5 -117.5q0 -58 19 -90t58 -32q50 0 83 47.5zM175 -158q-11 10 -11 28q0 26 16.5 44.5t43.5 18.5q42 0 42 -39q0 -25 -17 -43.5t-43 -18.5q-20 0 -31 10z" />
    <glyph glyph-name="uni1EE4" unicode="&#x1ee4;" horiz-adv-x="697" 
d="M141 40.5q-55 50.5 -55 154.5q0 22 9 79.5t43 255.5q5 32 5 45q0 28 -13 41.5t-44 13.5l5 30h110q40 0 57 -15t17 -52q0 -31 -7 -63q-36 -212 -45.5 -273.5t-9.5 -82.5q0 -71 28.5 -107.5t90.5 -36.5q109 0 166.5 61t81.5 197l66 372h50l-66 -372q-25 -148 -99 -223
t-218 -75q-117 0 -172 50.5zM247 -158q-11 10 -11 28q0 26 16.5 44.5t43.5 18.5q42 0 42 -39q0 -25 -17 -43.5t-43 -18.5q-20 0 -31 10z" />
    <glyph glyph-name="uni1EE5" unicode="&#x1ee5;" horiz-adv-x="567" 
d="M85.5 20.5q-38.5 30.5 -38.5 98.5q0 14 7.5 62t26.5 159q5 32 5 45q0 28 -13 41.5t-44 13.5h-10l5 30h120q40 0 57 -15t17 -52q0 -31 -7 -63q-19 -113 -27 -163.5t-8 -62.5q0 -43 16.5 -61t50.5 -18q21 0 38 8.5t35 23.5q15 13 28 33l65 370h130l-82 -470h-85l-28 45h-5
q-14 -14 -37 -28q-43 -27 -97 -27q-81 0 -119.5 30.5zM182 -158q-11 10 -11 28q0 26 16.5 44.5t43.5 18.5q42 0 42 -39q0 -25 -17 -43.5t-43 -18.5q-20 0 -31 10z" />
    <glyph glyph-name="uni1EE6" unicode="&#x1ee6;" horiz-adv-x="697" 
d="M141 40.5q-55 50.5 -55 154.5q0 22 9 79.5t43 255.5q5 32 5 45q0 28 -13 41.5t-44 13.5l5 30h110q40 0 57 -15t17 -52q0 -31 -7 -63q-36 -212 -45.5 -273.5t-9.5 -82.5q0 -71 28.5 -107.5t90.5 -36.5q109 0 166.5 61t81.5 197l66 372h50l-66 -372q-25 -148 -99 -223
t-218 -75q-117 0 -172 50.5zM462 765q6 7 11.5 15t6.5 15q2 10 2 14q0 24 -27 24q-18 0 -30 -10.5t-23 -41.5l-55 1q1 6 4 23.5t13 33.5q16 25 42 40.5t61 15.5q41 0 62 -18t21 -50q0 -15 -2 -23q-2 -11 -9 -20t-20 -21q-16 -16 -24 -26t-12 -26h-52q7 30 31 54z" />
    <glyph glyph-name="uni1EE7" unicode="&#x1ee7;" horiz-adv-x="567" 
d="M85.5 20.5q-38.5 30.5 -38.5 98.5q0 14 7.5 62t26.5 159q5 32 5 45q0 28 -13 41.5t-44 13.5h-10l5 30h120q40 0 57 -15t17 -52q0 -31 -7 -63q-19 -113 -27 -163.5t-8 -62.5q0 -43 16.5 -61t50.5 -18q21 0 38 8.5t35 23.5q15 13 28 33l65 370h130l-82 -470h-85l-28 45h-5
q-14 -14 -37 -28q-43 -27 -97 -27q-81 0 -119.5 30.5zM363 575q6 7 11.5 15t6.5 15q2 10 2 14q0 24 -27 24q-18 0 -30 -10.5t-23 -41.5l-55 1q1 6 4 23.5t13 33.5q16 25 42 40.5t61 15.5q41 0 62 -18t21 -50q0 -15 -2 -23q-2 -11 -9 -20t-20 -21q-16 -16 -24 -26t-12 -26
h-52q7 30 31 54z" />
    <glyph glyph-name="uni1EE8" unicode="&#x1ee8;" horiz-adv-x="697" 
d="M802.5 671.5q-43.5 -41.5 -113.5 -52.5l-59 -331q-25 -148 -99 -223t-218 -75q-117 0 -172 50.5t-55 154.5q0 22 9 79.5t43 255.5q5 32 5 45q0 28 -13 41.5t-44 13.5l5 30h110q40 0 57 -15t17 -52q0 -31 -7 -63q-36 -212 -45.5 -273.5t-9.5 -82.5q0 -71 28.5 -107.5
t90.5 -36.5q109 0 166.5 61t81.5 197l66 372h26q43 6 70 35.5t34 67.5h80q-10 -50 -53.5 -91.5zM401 715l67 140h119l-131 -140h-55z" />
    <glyph glyph-name="uni1EE9" unicode="&#x1ee9;" horiz-adv-x="567" 
d="M641 483q-42 -41 -109 -53l-75 -430h-85l-28 45h-5q-14 -14 -37 -28q-43 -27 -97 -27q-81 0 -119.5 30.5t-38.5 98.5q0 14 7.5 62t26.5 159q5 32 5 45q0 28 -13 41.5t-44 13.5h-10l5 30h120q40 0 57 -15t17 -52q0 -31 -7 -63q-19 -113 -27 -163.5t-8 -62.5
q0 -43 16.5 -61t50.5 -18q21 0 38 8.5t35 23.5q15 13 28 33l65 370h99q43 6 70 35.5t34 67.5h80q-9 -49 -51 -90zM302 525l67 140h119l-131 -140h-55z" />
    <glyph glyph-name="uni1EEA" unicode="&#x1eea;" horiz-adv-x="697" 
d="M802.5 671.5q-43.5 -41.5 -113.5 -52.5l-59 -331q-25 -148 -99 -223t-218 -75q-117 0 -172 50.5t-55 154.5q0 22 9 79.5t43 255.5q5 32 5 45q0 28 -13 41.5t-44 13.5l5 30h110q40 0 57 -15t17 -52q0 -31 -7 -63q-36 -212 -45.5 -273.5t-9.5 -82.5q0 -71 28.5 -107.5
t90.5 -36.5q109 0 166.5 61t81.5 197l66 372h26q43 6 70 35.5t34 67.5h80q-10 -50 -53.5 -91.5zM398 715l-81 140h119l17 -140h-55z" />
    <glyph glyph-name="uni1EEB" unicode="&#x1eeb;" horiz-adv-x="567" 
d="M641 483q-42 -41 -109 -53l-75 -430h-85l-28 45h-5q-14 -14 -37 -28q-43 -27 -97 -27q-81 0 -119.5 30.5t-38.5 98.5q0 14 7.5 62t26.5 159q5 32 5 45q0 28 -13 41.5t-44 13.5h-10l5 30h120q40 0 57 -15t17 -52q0 -31 -7 -63q-19 -113 -27 -163.5t-8 -62.5
q0 -43 16.5 -61t50.5 -18q21 0 38 8.5t35 23.5q15 13 28 33l65 370h99q43 6 70 35.5t34 67.5h80q-9 -49 -51 -90zM299 525l-81 140h119l17 -140h-55z" />
    <glyph glyph-name="uni1EEC" unicode="&#x1eec;" horiz-adv-x="697" 
d="M802.5 671.5q-43.5 -41.5 -113.5 -52.5l-59 -331q-25 -148 -99 -223t-218 -75q-117 0 -172 50.5t-55 154.5q0 22 9 79.5t43 255.5q5 32 5 45q0 28 -13 41.5t-44 13.5l5 30h110q40 0 57 -15t17 -52q0 -31 -7 -63q-36 -212 -45.5 -273.5t-9.5 -82.5q0 -71 28.5 -107.5
t90.5 -36.5q109 0 166.5 61t81.5 197l66 372h26q43 6 70 35.5t34 67.5h80q-10 -50 -53.5 -91.5zM462 765q6 7 11.5 15t6.5 15q2 10 2 14q0 24 -27 24q-18 0 -30 -10.5t-23 -41.5l-55 1q1 6 4 23.5t13 33.5q16 25 42 40.5t61 15.5q41 0 62 -18t21 -50q0 -15 -2 -23
q-2 -11 -9 -20t-20 -21q-16 -16 -24 -26t-12 -26h-52q7 30 31 54z" />
    <glyph glyph-name="uni1EED" unicode="&#x1eed;" horiz-adv-x="567" 
d="M641 483q-42 -41 -109 -53l-75 -430h-85l-28 45h-5q-14 -14 -37 -28q-43 -27 -97 -27q-81 0 -119.5 30.5t-38.5 98.5q0 14 7.5 62t26.5 159q5 32 5 45q0 28 -13 41.5t-44 13.5h-10l5 30h120q40 0 57 -15t17 -52q0 -31 -7 -63q-19 -113 -27 -163.5t-8 -62.5
q0 -43 16.5 -61t50.5 -18q21 0 38 8.5t35 23.5q15 13 28 33l65 370h99q43 6 70 35.5t34 67.5h80q-9 -49 -51 -90zM363 575q6 7 11.5 15t6.5 15q2 10 2 14q0 24 -27 24q-18 0 -30 -10.5t-23 -41.5l-55 1q1 6 4 23.5t13 33.5q16 25 42 40.5t61 15.5q41 0 62 -18t21 -50
q0 -15 -2 -23q-2 -11 -9 -20t-20 -21q-16 -16 -24 -26t-12 -26h-52q7 30 31 54z" />
    <glyph glyph-name="uni1EEE" unicode="&#x1eee;" horiz-adv-x="697" 
d="M802.5 671.5q-43.5 -41.5 -113.5 -52.5l-59 -331q-25 -148 -99 -223t-218 -75q-117 0 -172 50.5t-55 154.5q0 22 9 79.5t43 255.5q5 32 5 45q0 28 -13 41.5t-44 13.5l5 30h110q40 0 57 -15t17 -52q0 -31 -7 -63q-36 -212 -45.5 -273.5t-9.5 -82.5q0 -71 28.5 -107.5
t90.5 -36.5q109 0 166.5 61t81.5 197l66 372h26q43 6 70 35.5t34 67.5h80q-10 -50 -53.5 -91.5zM344 828q21 22 54 22q17 0 28 -6t25 -18q10 -8 17 -12t15 -4q16 0 28 12t14 28h40q-11 -56 -31.5 -78t-53.5 -22q-17 0 -29 6.5t-25 17.5q-2 2 -8.5 6.5t-12 7t-11.5 2.5
q-16 0 -27.5 -12t-14.5 -28h-40q11 56 32 78z" />
    <glyph glyph-name="uni1EEF" unicode="&#x1eef;" horiz-adv-x="567" 
d="M641 483q-42 -41 -109 -53l-75 -430h-85l-28 45h-5q-14 -14 -37 -28q-43 -27 -97 -27q-81 0 -119.5 30.5t-38.5 98.5q0 14 7.5 62t26.5 159q5 32 5 45q0 28 -13 41.5t-44 13.5h-10l5 30h120q40 0 57 -15t17 -52q0 -31 -7 -63q-19 -113 -27 -163.5t-8 -62.5
q0 -43 16.5 -61t50.5 -18q21 0 38 8.5t35 23.5q15 13 28 33l65 370h99q43 6 70 35.5t34 67.5h80q-9 -49 -51 -90zM245 638q21 22 54 22q17 0 28 -6t25 -18q10 -8 17 -12t15 -4q16 0 28 12t14 28h40q-11 -56 -31.5 -78t-53.5 -22q-17 0 -29 6.5t-25 17.5q-2 2 -8.5 6.5t-12 7
t-11.5 2.5q-16 0 -27.5 -12t-14.5 -28h-40q11 56 32 78z" />
    <glyph glyph-name="uni1EF0" unicode="&#x1ef0;" horiz-adv-x="697" 
d="M802.5 671.5q-43.5 -41.5 -113.5 -52.5l-59 -331q-25 -148 -99 -223t-218 -75q-117 0 -172 50.5t-55 154.5q0 22 9 79.5t43 255.5q5 32 5 45q0 28 -13 41.5t-44 13.5l5 30h110q40 0 57 -15t17 -52q0 -31 -7 -63q-36 -212 -45.5 -273.5t-9.5 -82.5q0 -71 28.5 -107.5
t90.5 -36.5q109 0 166.5 61t81.5 197l66 372h26q43 6 70 35.5t34 67.5h80q-10 -50 -53.5 -91.5zM247 -158q-11 10 -11 28q0 26 16.5 44.5t43.5 18.5q42 0 42 -39q0 -25 -17 -43.5t-43 -18.5q-20 0 -31 10z" />
    <glyph glyph-name="uni1EF1" unicode="&#x1ef1;" horiz-adv-x="567" 
d="M641 483q-42 -41 -109 -53l-75 -430h-85l-28 45h-5q-14 -14 -37 -28q-43 -27 -97 -27q-81 0 -119.5 30.5t-38.5 98.5q0 14 7.5 62t26.5 159q5 32 5 45q0 28 -13 41.5t-44 13.5h-10l5 30h120q40 0 57 -15t17 -52q0 -31 -7 -63q-19 -113 -27 -163.5t-8 -62.5
q0 -43 16.5 -61t50.5 -18q21 0 38 8.5t35 23.5q15 13 28 33l65 370h99q43 6 70 35.5t34 67.5h80q-9 -49 -51 -90zM182 -158q-11 10 -11 28q0 26 16.5 44.5t43.5 18.5q42 0 42 -39q0 -25 -17 -43.5t-43 -18.5q-20 0 -31 10z" />
    <glyph glyph-name="Ygrave" unicode="&#x1ef2;" horiz-adv-x="639" 
d="M273 264l-130 266q-19 42 -51 74t-63 36l4 20h109q51 0 86 -31.5t57 -78.5l100 -205l250 315h65l-292 -369l-51 -291h-130zM369 715l-81 140h119l17 -140h-55z" />
    <glyph glyph-name="ygrave" unicode="&#x1ef3;" horiz-adv-x="509" 
d="M10 -165q55 0 92 21t70 76l30 54l-110 394q-11 38 -30 57t-49 23l3 20h88q44 0 74.5 -21.5t41.5 -58.5l71 -252l178 322h53l-296 -535q-44 -78 -85 -106.5t-97 -28.5h-40zM290 525l-81 140h119l17 -140h-55z" />
    <glyph glyph-name="uni1EF4" unicode="&#x1ef4;" horiz-adv-x="639" 
d="M273 264l-130 266q-19 42 -51 74t-63 36l4 20h109q51 0 86 -31.5t57 -78.5l100 -205l250 315h65l-292 -369l-51 -291h-130zM218 -158q-11 10 -11 28q0 26 16.5 44.5t43.5 18.5q42 0 42 -39q0 -25 -17 -43.5t-43 -18.5q-20 0 -31 10z" />
    <glyph glyph-name="uni1EF5" unicode="&#x1ef5;" horiz-adv-x="509" 
d="M244 -106q0 -25 -17 -43.5t-43 -18.5q-18 0 -29 8q-25 -22 -51.5 -31t-59.5 -9h-40l6 35q45 0 77.5 13.5t59.5 46.5q7 16 18 25l7 12l30 54l-110 394q-11 38 -30 57t-49 23l3 20h88q44 0 74.5 -21.5t41.5 -58.5l71 -252l178 322h53l-296 -535l-3 -5q21 -9 21 -36z" />
    <glyph glyph-name="uni1EF6" unicode="&#x1ef6;" horiz-adv-x="639" 
d="M273 264l-130 266q-19 42 -51 74t-63 36l4 20h109q51 0 86 -31.5t57 -78.5l100 -205l250 315h65l-292 -369l-51 -291h-130zM433 765q6 7 11.5 15t6.5 15q2 10 2 14q0 24 -27 24q-18 0 -30 -10.5t-23 -41.5l-55 1q1 6 4 23.5t13 33.5q16 25 42 40.5t61 15.5q41 0 62 -18
t21 -50q0 -15 -2 -23q-2 -11 -9 -20t-20 -21q-16 -16 -24 -26t-12 -26h-52q7 30 31 54z" />
    <glyph glyph-name="uni1EF7" unicode="&#x1ef7;" horiz-adv-x="509" 
d="M10 -165q55 0 92 21t70 76l30 54l-110 394q-11 38 -30 57t-49 23l3 20h88q44 0 74.5 -21.5t41.5 -58.5l71 -252l178 322h53l-296 -535q-44 -78 -85 -106.5t-97 -28.5h-40zM354 575q6 7 11.5 15t6.5 15q2 10 2 14q0 24 -27 24q-18 0 -30 -10.5t-23 -41.5l-55 1q1 6 4 23.5
t13 33.5q16 25 42 40.5t61 15.5q41 0 62 -18t21 -50q0 -15 -2 -23q-2 -11 -9 -20t-20 -21q-16 -16 -24 -26t-12 -26h-52q7 30 31 54z" />
    <glyph glyph-name="uni1EF8" unicode="&#x1ef8;" horiz-adv-x="639" 
d="M273 264l-130 266q-19 42 -51 74t-63 36l4 20h109q51 0 86 -31.5t57 -78.5l100 -205l250 315h65l-292 -369l-51 -291h-130zM315 828q21 22 54 22q17 0 28 -6t25 -18q10 -8 17 -12t15 -4q16 0 28 12t14 28h40q-11 -56 -31.5 -78t-53.5 -22q-17 0 -29 6.5t-25 17.5
q-2 2 -8.5 6.5t-12 7t-11.5 2.5q-16 0 -27.5 -12t-14.5 -28h-40q11 56 32 78z" />
    <glyph glyph-name="uni1EF9" unicode="&#x1ef9;" horiz-adv-x="509" 
d="M10 -165q55 0 92 21t70 76l30 54l-110 394q-11 38 -30 57t-49 23l3 20h88q44 0 74.5 -21.5t41.5 -58.5l71 -252l178 322h53l-296 -535q-44 -78 -85 -106.5t-97 -28.5h-40zM236 638q21 22 54 22q17 0 28 -6t25 -18q10 -8 17 -12t15 -4q16 0 28 12t14 28h40
q-11 -56 -31.5 -78t-53.5 -22q-17 0 -29 6.5t-25 17.5q-2 2 -8.5 6.5t-12 7t-11.5 2.5q-16 0 -27.5 -12t-14.5 -28h-40q11 56 32 78z" />
    <glyph glyph-name="endash" unicode="&#x2013;" horiz-adv-x="624" 
d="M55 227l11 65h494l-11 -65h-494z" />
    <glyph glyph-name="emdash" unicode="&#x2014;" horiz-adv-x="894" 
d="M55 227l11 65h764l-11 -65h-764z" />
    <glyph glyph-name="quoteleft" unicode="&#x2018;" horiz-adv-x="218" 
d="M94 437q-14 17 -14 43q0 62 42.5 115t108.5 93l14 -24q-36 -20 -66.5 -52.5t-37.5 -72.5l15 3q24 0 37.5 -12.5t13.5 -33.5q0 -31 -20 -53.5t-52 -22.5q-27 0 -41 17z" />
    <glyph glyph-name="quoteright" unicode="&#x2019;" horiz-adv-x="220" 
d="M75 436q36 20 66.5 52.5t37.5 72.5l-15 -3q-24 0 -37.5 12.5t-13.5 33.5q0 31 20 53.5t52 22.5q27 0 41 -17t14 -43q0 -62 -42.5 -115t-108.5 -93z" />
    <glyph glyph-name="quotesinglbase" unicode="&#x201a;" horiz-adv-x="230" 
d="M-26 -136q36 21 66.5 53t37.5 72l-16 -3q-24 0 -37.5 12.5t-13.5 33.5q0 31 20 53.5t53 22.5q26 0 40 -17t14 -43q0 -113 -151 -208z" />
    <glyph glyph-name="quotedblleft" unicode="&#x201c;" horiz-adv-x="400" 
d="M94 437q-14 17 -14 43q0 62 42.5 115t108.5 93l14 -24q-36 -20 -66.5 -52.5t-37.5 -72.5l15 3q24 0 37.5 -12.5t13.5 -33.5q0 -31 -20 -53.5t-52 -22.5q-27 0 -41 17zM276 437q-14 17 -14 43q0 62 42.5 115t108.5 93l14 -24q-36 -20 -66.5 -52.5t-37.5 -72.5l15 3
q24 0 37.5 -12.5t13.5 -33.5q0 -31 -20 -53.5t-52 -22.5q-27 0 -41 17z" />
    <glyph glyph-name="quotedblright" unicode="&#x201d;" horiz-adv-x="402" 
d="M75 436q36 20 66.5 52.5t37.5 72.5l-15 -3q-24 0 -37.5 12.5t-13.5 33.5q0 31 20 53.5t52 22.5q27 0 41 -17t14 -43q0 -62 -42.5 -115t-108.5 -93zM257 436q36 20 66.5 52.5t37.5 72.5l-15 -3q-24 0 -37.5 12.5t-13.5 33.5q0 31 20 53.5t52 22.5q27 0 41 -17t14 -43
q0 -62 -42.5 -115t-108.5 -93z" />
    <glyph glyph-name="quotedblbase" unicode="&#x201e;" horiz-adv-x="412" 
d="M-26 -136q36 21 66.5 53t37.5 72l-16 -3q-24 0 -37.5 12.5t-13.5 33.5q0 31 20 53.5t53 22.5q26 0 40 -17t14 -43q0 -113 -151 -208zM156 -136q36 21 66.5 53t37.5 72l-16 -3q-24 0 -37.5 12.5t-13.5 33.5q0 31 20 53.5t53 22.5q26 0 40 -17t14 -43q0 -113 -151 -208z
" />
    <glyph glyph-name="dagger" unicode="&#x2020;" horiz-adv-x="542" 
d="M123 -190l105 595h-179l12 70h179l36 205h130l-36 -205h180l-12 -70h-180l-105 -595h-130z" />
    <glyph glyph-name="daggerdbl" unicode="&#x2021;" horiz-adv-x="560" 
d="M132 -190l36 205h-179l12 70h179l57 320h-179l12 70h179l36 205h130l-36 -205h180l-12 -70h-180l-57 -320h180l-12 -70h-180l-36 -205h-130z" />
    <glyph glyph-name="bullet" unicode="&#x2022;" horiz-adv-x="352" 
d="M79 234.5q-31 27.5 -31 72.5q0 40 21.5 73.5t58 53t78.5 19.5q53 0 84.5 -28t31.5 -73q0 -39 -22 -72.5t-59 -53t-78 -19.5q-53 0 -84 27.5z" />
    <glyph glyph-name="ellipsis" unicode="&#x2026;" horiz-adv-x="646" 
d="M24.5 -1.5q-13.5 12.5 -13.5 33.5q0 31 20 53.5t53 22.5q26 0 38.5 -12.5t12.5 -34.5q0 -30 -20.5 -52.5t-52.5 -22.5q-24 0 -37.5 12.5zM234.5 -1.5q-13.5 12.5 -13.5 33.5q0 31 20 53.5t53 22.5q26 0 38.5 -12.5t12.5 -34.5q0 -30 -20.5 -52.5t-52.5 -22.5
q-24 0 -37.5 12.5zM444.5 -1.5q-13.5 12.5 -13.5 33.5q0 31 20 53.5t53 22.5q26 0 38.5 -12.5t12.5 -34.5q0 -30 -20.5 -52.5t-52.5 -22.5q-24 0 -37.5 12.5z" />
    <glyph glyph-name="perthousand" unicode="&#x2030;" horiz-adv-x="1072" 
d="M111.5 417.5q-36.5 28.5 -36.5 81.5q0 48 25.5 86t68.5 59t94 21q64 0 100 -28.5t36 -79.5q0 -48 -24.5 -86.5t-67 -60t-93.5 -21.5q-66 0 -102.5 28.5zM39 0l600 660h106l-600 -660h-106zM293 467.5q26 38.5 26 90.5q0 67 -65 67q-45 0 -72 -39t-27 -89q0 -68 65 -68
q47 0 73 38.5zM400.5 23.5q-36.5 28.5 -36.5 81.5q0 48 25.5 86t68.5 59t93 21q66 0 101.5 -28.5t35.5 -81.5q0 -48 -24.5 -86t-67 -59t-93.5 -21q-66 0 -102.5 28.5zM734.5 23.5q-36.5 28.5 -36.5 81.5q0 48 25.5 86t68.5 59t93 21q66 0 101.5 -28.5t35.5 -81.5
q0 -48 -24.5 -86t-67 -59t-93.5 -21q-66 0 -102.5 28.5zM581 73.5q27 38.5 27 88.5q0 33 -17 51t-49 18q-46 0 -72 -39t-26 -89q0 -68 65 -68q45 0 72 38.5zM915 73.5q27 38.5 27 88.5q0 33 -17 51t-49 18q-46 0 -72 -39t-26 -89q0 -68 65 -68q45 0 72 38.5z" />
    <glyph glyph-name="guilsinglleft" unicode="&#x2039;" horiz-adv-x="297" 
d="M147 30l-124 195l193 195h64l-132 -194l63 -196h-64z" />
    <glyph glyph-name="guilsinglright" unicode="&#x203a;" horiz-adv-x="295" 
d="M-2 30l131 196l-62 194h64l123 -195l-192 -195h-64z" />
    <glyph glyph-name="fraction" unicode="&#x2044;" horiz-adv-x="450" 
d="M-91 0l571 660h95l-571 -660h-95z" />
    <glyph glyph-name="uni2074" unicode="&#x2074;" horiz-adv-x="332" 
d="M164 356l12 73h-145l5 24l186 207h67l-36 -204h34l-5 -27h-34l-12 -73h-72zM75 456h106l26 146z" />
    </font>
</defs>
</svg>
