<?xml version="1.0" standalone="no"?>
<!DOCTYPE svg PUBLIC "-//W3C//DTD SVG 1.1//EN" "http://www.w3.org/Graphics/SVG/1.1/DTD/svg11.dtd" >
<svg xmlns="http://www.w3.org/2000/svg" xmlns:xlink="http://www.w3.org/1999/xlink" version="1.1">
<metadata>
Created by FontForge 20170731 at Fri Jan 17 15:54:08 2014
 By Aleksey,,,
Copyright (c) Gophmann A.L. , 2007. All rights reserved.
</metadata>
<defs>
<font id="AmericanTextC" horiz-adv-x="1038" >
  <font-face 
    font-family="American TextC"
    font-weight="400"
    font-stretch="normal"
    units-per-em="2048"
    panose-1="2 0 5 3 2 0 0 2 0 4"
    ascent="1638"
    descent="-410"
    x-height="1219"
    cap-height="1688"
    bbox="-94 -551 1886 2122"
    underline-thickness="129"
    underline-position="-554"
    unicode-range="U+0005-25FC"
  />
<missing-glyph horiz-adv-x="748" 
d="M68 0v1365h544v-1365h-544zM136 68h408v1229h-408v-1229z" />
    <glyph glyph-name=".notdef" horiz-adv-x="748" 
d="M68 0v1365h544v-1365h-544zM136 68h408v1229h-408v-1229z" />
    <glyph glyph-name="glyph1" horiz-adv-x="2048" 
 />
    <glyph glyph-name="glyph1" horiz-adv-x="2048" 
 />
    <glyph glyph-name="glyph2" horiz-adv-x="682" 
 />
    <glyph glyph-name="uni0005" horiz-adv-x="479" 
d="M-33 1610l221 -330l230 330h-90l-138 -230l-127 230h-96z" />
    <glyph glyph-name="uni0006" horiz-adv-x="479" 
d="M55 1411l133 -131l134 131l-134 133z" />
    <glyph glyph-name="uni0008" horiz-adv-x="532" 
d="M12 1473q6 -82 61.5 -137.5t133.5 -55.5q39 0 73.5 16.5t60.5 44t41 63.5t15 77q0 37 -14 71.5t-40 61t-60.5 43t-75.5 16.5q-82 0 -137 -57q-62 -63 -58 -143zM96 1475q-2 47 32 79.5t83 30.5q43 -2 72.5 -34.5t29.5 -73.5q0 -47 -32.5 -76t-79.5 -29q-43 0 -73 29
t-32 74z" />
    <glyph glyph-name="uni000C" horiz-adv-x="610" 
d="M-8 1610l233 -330h60l241 330h-104l-166 -187l-166 187h-98z" />
    <glyph glyph-name="uni000D" unicode="&#xd;" horiz-adv-x="438" 
d="M37 0h217l147 221h-143v1002l-221 -197v-1026z" />
    <glyph glyph-name="uni001A" horiz-adv-x="829" 
d="M37 0h180l174 199h-151v786l206 238h-206v268h172l131 197h-248l-258 -402v-1286zM459 0h215l147 221h-141v1002l-221 -197v-1026zM459 1233l221 188v267l-221 -201v-254z" />
    <glyph glyph-name="uni001B" horiz-adv-x="827" 
d="M37 0h180l174 199h-151v786l206 238h-206v268h172l131 197h-248l-258 -402v-1286zM455 0h217l147 221h-143v1467l-221 -211v-1477z" />
    <glyph glyph-name="uni001C" horiz-adv-x="1052" 
d="M49 1688l182 -238l244 238h-426zM53 0h821l144 233l-217 7v548h-33v-550l-133 2v862l199 182l34 252l-233 -213v119l244 246h-244l-342 -336v-342l-203 -187l-2 -231l205 192v-551zM385 238l139 67v694l78 72v-833h-217zM524 1221v305l78 78v-312z" />
    <glyph glyph-name="uni001D" horiz-adv-x="475" 
d="M2 637l98 63v-700h217l148 221h-143v625l116 82v106l-114 -82l-2 -2v738l-222 -211v-670l-98 -68v-102z" />
    <glyph glyph-name="uni001E" horiz-adv-x="997" 
d="M90 0h715l78 223h-402l168 539h174l66 194h-178l225 732h-35l-455 -1463zM123 127l278 168l426 1393h-581l-78 -263h346l-141 -460h-162l-68 -205h166zM336 2122l237 -332h62l237 332h-102l-166 -172l-166 172h-102z" />
    <glyph glyph-name="uni001F" horiz-adv-x="735" 
d="M25 0h501l86 215h-340l123 322h176l17 32l-182 2l32 99h185l12 32l-186 3l186 518h-426l-107 -222h310l-115 -296h-201l-14 -35h201l-35 -101l-203 2l-12 -34h198zM121 1612l237 -332h62l237 332h-100l-168 -172l-166 172h-102z" />
    <glyph glyph-name="space" unicode=" " horiz-adv-x="749" 
 />
    <glyph glyph-name="exclam" unicode="!" horiz-adv-x="534" 
d="M12 184l168 -184l162 184l-160 183zM12 1526l80 -99l86 -999l168 1114l-162 146z" />
    <glyph glyph-name="quotedbl" unicode="&#x22;" horiz-adv-x="555" 
d="M14 1546q0 -53 13 -166l43 -485h55l45 485q12 106 12 162q0 145 -84 146q-84 0 -84 -142zM248 1546q0 -27 3 -67.5t7 -98.5l45 -485h53l47 485q4 53 7.5 94.5t3.5 67.5q0 145 -84 146q-82 0 -82 -142z" />
    <glyph glyph-name="numbersign" unicode="#" horiz-adv-x="1406" 
d="M31 473h270l-102 -473h170l100 473h203l-101 -473h168l103 473h268l35 168h-268l88 403h268l35 179h-269l101 465h-168l-103 -465h-200l98 465h-168l-98 -465h-273l-34 -179h268l-84 -403h-272zM506 641l86 403h203l-88 -403h-201z" />
    <glyph glyph-name="dollar" unicode="$" horiz-adv-x="1079" 
d="M-59 0h573v-168h33v205l377 391v451l-248 178l209 366l-326 258v174l-33 -2v-211l-368 -368v-512l239 -156l-207 -366zM229 240l285 512v-512h-285zM377 950v502l59 64l78 -72v-584zM549 240v602l92 -76v-526h-92zM549 899v512l201 -160z" />
    <glyph glyph-name="percent" unicode="%" horiz-adv-x="1454" 
d="M45 872h293l348 299v328l-278 193l-363 -332v-488zM57 43l25 -20l1204 1640l-26 20zM270 1038v492l211 -125v-367h-211zM647 0h291l348 309v326l-278 192l-361 -327v-500zM860 158v493l213 -125v-368h-213z" />
    <glyph glyph-name="ampersand" unicode="&#x26;" horiz-adv-x="1193" 
d="M45 596l16 -594l385 -4l203 287l180 -285h144l147 195l-157 2l-181 276l299 416l-321 -19l151 -157l-147 -209l-262 383l250 186l-4 371l-281 239l-332 -297v-325l180 -273zM283 195v528l55 39l291 -447l-84 -120h-262zM338 1149v397l207 -184v-399l-60 -45z" />
    <glyph glyph-name="quotesingle" unicode="'" horiz-adv-x="368" 
d="M51 1546q0 -27 3 -67.5t7 -98.5l43 -485h56l47 485q4 53 7 94.5t3 67.5q0 145 -84 146q-82 0 -82 -142z" />
    <glyph glyph-name="parenleft" unicode="(" horiz-adv-x="632" 
d="M37 635q0 -395 151 -692q143 -276 406 -422v108q-80 49 -158 127q-248 244 -297 705q-4 43 -6 86t-2 88t2 88t6 88q49 455 297 705q68 68 158 126v111q-262 -145 -408 -428q-150 -291 -149 -690z" />
    <glyph glyph-name="parenright" unicode=")" horiz-adv-x="632" 
d="M-63 -369v-110q258 145 403 426q152 293 152 690q0 399 -152 692q-143 279 -403 424v-108q385 -252 448 -832q20 -174 0 -352q-49 -459 -293 -703q-39 -39 -78 -69.5t-77 -57.5z" />
    <glyph glyph-name="asterisk" unicode="*" horiz-adv-x="796" 
d="M31 1368l233 -18l-178 -150l174 -141l96 219l86 -219l193 131l-182 153l239 31l-65 215l-217 -143l71 242h-227l61 -238l-200 143z" />
    <glyph glyph-name="plus" unicode="+" horiz-adv-x="1382" 
d="M0 555h555v-555h199v555h557v199h-557v557h-199v-557h-555v-199z" />
    <glyph glyph-name="comma" unicode="," horiz-adv-x="466" 
d="M31 184l166 -184l-125 -190l30 -15l258 393l-161 177z" />
    <glyph glyph-name="hyphen" unicode="-" horiz-adv-x="759" 
d="M4 637l625 227v88l-625 -231v-84zM6 518l2 -80l619 226v84z" />
    <glyph glyph-name="period" unicode="." horiz-adv-x="497" 
d="M63 184l166 -184l162 184l-160 183z" />
    <glyph glyph-name="slash" unicode="/" horiz-adv-x="880" 
d="M63 0h93l635 1688h-89z" />
    <glyph glyph-name="zero" unicode="0" 
d="M41 0h424l414 451v935l-404 302l-434 -414v-1274zM358 248v1177l248 -176v-1001h-248z" />
    <glyph glyph-name="one" unicode="1" 
d="M199 1323h118v-1323h314l131 246h-131v1444z" />
    <glyph glyph-name="two" unicode="2" 
d="M31 0h729l145 254h-559l496 479v547l-439 408l-354 -308l209 -223l268 250v-641l-495 -606v-160z" />
    <glyph glyph-name="three" unicode="3" 
d="M-20 0h481l395 412v512l-190 125l190 125v299l-344 223l-422 -273l16 -28l185 118l252 -159v-295l-398 -268l23 -23l111 74l264 -146v-442h-439z" />
    <glyph glyph-name="four" unicode="4" 
d="M-27 375h557v-375h205l156 240h-117v135h160l51 217h-211v930l-264 172l-537 -1051v-268zM221 592v461l191 372l120 -73v-760h-311z" />
    <glyph glyph-name="five" unicode="5" 
d="M55 0h471l396 483v473l-392 246l-421 -297v539h634l78 244l-747 2l2 -850l231 164l330 -209v-535h-469z" />
    <glyph glyph-name="six" unicode="6" 
d="M104 0h424l373 424v594h-303l-203 -203v653l267 -120l223 194l-316 146l-465 -351v-1337zM395 254v516h244v-516h-244z" />
    <glyph glyph-name="seven" unicode="7" 
d="M43 1321l31 -16l47 131h663l-626 -1436h366l371 1688h-725z" />
    <glyph glyph-name="eight" unicode="8" 
d="M133 0h383l369 442v287l-211 182l211 228v245l-340 304l-412 -361v-297l213 -176l-213 -205v-649zM397 242v573l238 -209v-364h-238zM397 1153v342l238 -225v-328z" />
    <glyph glyph-name="nine" unicode="9" 
d="M80 0h338l518 383v973l-395 332l-461 -428v-633h436l123 182v-576h-428zM350 874v574l289 -234v-340h-289z" />
    <glyph glyph-name="colon" unicode=":" horiz-adv-x="530" 
d="M63 184l166 -184l162 184l-160 183zM63 1042l166 -186l162 186l-160 181z" />
    <glyph glyph-name="semicolon" unicode=";" horiz-adv-x="532" 
d="M63 184l166 -184l-125 -190l31 -15l260 393l-164 177zM63 1042l166 -186l162 186l-160 181z" />
    <glyph glyph-name="less" unicode="&#x3c;" horiz-adv-x="1392" 
d="M37 0h287l204 201h-274v829l154 -213l139 162l-164 240l-346 -363v-856zM565 0h221v901l142 137l100 -98v-940h219l115 217h-123v827l-164 183l-289 -281v742l-221 -226v-1462z" />
    <glyph glyph-name="equal" unicode="=" horiz-adv-x="1484" 
d="M43 504h1303v198h-1303v-198zM43 956h1303v201h-1303v-201z" />
    <glyph glyph-name="greater" unicode="&#x3e;" horiz-adv-x="1347" 
d="M37 0h287l204 201h-274v829l154 -213l139 162l-164 240l-346 -363v-856zM563 0h221v965l111 100l176 -213l-201 -188l119 -132v-532h217l107 195h-105v407l-168 176l199 189l-219 252l-232 -205v674l-225 -215v-1473z" />
    <glyph glyph-name="question" unicode="?" horiz-adv-x="735" 
d="M45 184l168 -184l162 184l-160 183zM45 1456l162 -123l162 223v-473l-176 -284l22 -295l66 291l286 295v366l-342 232z" />
    <glyph glyph-name="at" unicode="@" horiz-adv-x="1638" 
d="M61 709q0 -74 21.5 -156t64.5 -162t110 -153.5t158 -129t206.5 -88t259.5 -32.5q129 0 240.5 37.5t215.5 91.5l-24 84q-111 -59 -216.5 -85t-217.5 -26q-131 0 -244 49t-196 131t-130 189.5t-47 224.5q0 182 50 315.5t134 221.5t190.5 130t221.5 42q143 0 256 -50.5
t189.5 -129t117.5 -175t41 -188.5q0 -72 -18.5 -148.5t-52 -141t-81.5 -105.5t-106 -41q-47 0 -62.5 34.5t-15.5 69.5q0 10 2 19.5t5 17.5l135 545h-154l-22 -78q-10 20 -21.5 39.5t-28 35t-41 26t-61.5 10.5q-111 0 -191.5 -59.5t-135 -143.5t-80 -175t-25.5 -153
q0 -88 23.5 -140t56.5 -80t69.5 -37t61.5 -9q31 0 66.5 13t71.5 35t65.5 49.5t48.5 53.5h4q12 -68 66.5 -111.5t127.5 -43.5q98 0 174 50t128.5 127t79 168t26.5 175q0 137 -55.5 255t-152.5 204t-228 135t-283 49q-162 0 -306 -57.5t-254 -160.5t-173.5 -247.5
t-63.5 -320.5zM684 621q0 92 28.5 167.5t71.5 129t91.5 83t85.5 29.5q47 0 69.5 -37.5t22.5 -107.5q0 -10 -5.5 -47t-17.5 -87.5t-31.5 -104.5t-47 -100t-64.5 -77t-84 -31q-49 0 -84 44t-35 139z" />
    <glyph glyph-name="A" unicode="A" horiz-adv-x="1239" 
d="M37 672h213v-502l231 195v987l68 67v-1147l-342 -272h375v672l270 4v-676h227l125 223h-129v1178l-307 289l-510 -521v-266zM41 1688l299 -281l283 281h-582zM582 895v559l53 51l225 -207v-403h-278z" />
    <glyph glyph-name="B" unicode="B" horiz-adv-x="1247" 
d="M37 0h696l406 389v395l-228 187l224 151v299l-324 267l-465 -449v-238l-201 -249h207v-480l223 170v975l68 70v-1239l-295 -4zM37 1688l266 -293l313 293h-579zM680 246v1249l221 -178v-309l-217 -162l227 -199v-401h-231z" />
    <glyph glyph-name="C" unicode="C" horiz-adv-x="1003" 
d="M39 547h186v-547h445l233 342l-26 23l-89 -127h-223v1278l258 -259l146 160l-271 275l-473 -453v-264l-186 -184h186v-54zM469 238v1192l63 63v-1255h-63z" />
    <glyph glyph-name="D" unicode="D" horiz-adv-x="1236" 
d="M37 0h696l397 385v975l-346 328l-438 -422v-265l-201 -249h207v-480l223 170v1008l68 61v-1288h-301zM37 1688l256 -267l293 267h-549zM676 223v500l209 195v-695h-209zM676 907v574l211 -215v-158zM680 770v90l207 205v-96z" />
    <glyph glyph-name="E" unicode="E" horiz-adv-x="1040" 
d="M39 1688l205 -209l227 209h-432zM43 0h829l119 240h-358v555h100v-324h33v324l102 -4l103 215h-205v487l139 2l105 193h-355l-364 -345v-358l-197 -207h199v-520zM344 240l191 198v1055h65v-1253h-256zM633 1006v485h100v-485h-100z" />
    <glyph glyph-name="F" unicode="F" horiz-adv-x="1048" 
d="M39 1688l223 -244l268 244h-491zM94 778h199v-1216l381 268v954h104v-309h33v309h78l123 228h-199v469h96l101 207h-348l-371 -361v-330zM573 -209v1688h66v-1639zM674 1016v467l106 -4v-463h-106z" />
    <glyph glyph-name="G" unicode="G" horiz-adv-x="1191" 
d="M39 547h186v-547h426l375 352v527l111 96l-357 6v330l41 -31l166 156l-315 252l-447 -449v-264l-186 -191h186v-47zM469 244v1208l70 59v-1267h-70zM565 358v60l215 205v-62zM571 244v71l213 201v-272h-213zM571 469v319h209v-120zM571 807v680l177 -146v-358z" />
    <glyph glyph-name="H" unicode="H" horiz-adv-x="1310" 
d="M33 1688l223 -244l246 244h-469zM39 729l231 -2v-559l248 227v1149l68 72v-1258l-398 -358h430v723h289v-723h246l119 244h-125v1444l-340 -297h94v-420h-283v717l-342 -365v-354z" />
    <glyph glyph-name="I" unicode="I" horiz-adv-x="765" 
d="M39 0h502l188 250l-70 4v1436l-370 -338v-355l-195 -219h199v-520zM39 1688l240 -234l247 234h-487zM348 256l201 182v1114l74 68v-1364h-275z" />
    <glyph glyph-name="J" unicode="J" horiz-adv-x="862" 
d="M-84 -168l272 -205l519 477v1586l-369 -289v-381l-184 -172h186v-94l-201 -185h195v-716l-230 174zM35 1688l221 -220l279 220h-500zM596 45v1528l76 59v-1519z" />
    <glyph glyph-name="K" unicode="K" horiz-adv-x="1259" 
d="M35 1688l196 -238l218 238h-414zM37 844h205v-649l217 182v1153l71 82v-1333l-358 -279h393l-2 776l371 -776h117l176 256h-117l-440 883l-107 -113v662l-319 -340v-299zM748 1688l196 -248l213 248h-409z" />
    <glyph glyph-name="L" unicode="L" horiz-adv-x="1052" 
d="M49 1688l182 -238l244 238h-426zM53 0h821l144 233l-217 7v548h-33v-550l-133 2v1202l244 246h-244l-342 -336v-351l-197 -210h197v-558zM385 238l139 67v1221l78 78v-1366h-217z" />
    <glyph glyph-name="M" unicode="M" horiz-adv-x="1798" 
d="M35 1688l246 -271l282 271h-528zM70 692h153v-526l262 192v1041l60 63v-1147l-400 -315h435v692h198v-692h301l127 244h-71v444h192v-688h313l134 242h-201v1185l-285 265l-274 -252l-281 252l-506 -484v-262zM580 948v545l200 -184v-361h-200zM1022 244v1165l80 66
v-1229zM1135 950v520l198 -180v-340h-198z" />
    <glyph glyph-name="N" unicode="N" horiz-adv-x="1316" 
d="M35 1688l239 -304l293 304h-532zM86 748l207 -5v-546l252 194v1135l65 69v-1267l-444 -328h477v623l234 168v-791h243l115 242h-109v1210l-215 236l-178 -209l148 -193v-282l-238 -170v854l-348 -375l2 -348zM641 662v126l238 166v-116z" />
    <glyph glyph-name="O" unicode="O" horiz-adv-x="1136" 
d="M37 553h143v-553h484l366 391v989l-350 308l-504 -490v-246l-139 -164h143v-88zM436 246v1167l72 64v-1233zM537 604v131l258 271v-138zM541 244v321l254 262v-585zM541 780v729l256 -235v-225z" />
    <glyph glyph-name="P" unicode="P" horiz-adv-x="1112" 
d="M37 1688l244 -308l264 308h-508zM49 285h178v-752l254 223v1665l78 82v-1224l111 6l336 385v690l-342 330l-431 -519v-639zM592 532v164l199 232v-396h-199zM592 743v134l203 233v-135zM592 924v530l205 -201v-96z" />
    <glyph glyph-name="Q" unicode="Q" horiz-adv-x="1138" 
d="M39 553h143v-553h502l115 -152h336l-297 361l194 182v989l-350 308l-504 -490v-246l-139 -164h143v-88zM438 246v1167l68 62v-1229h-68zM539 246v332l258 241v-573h-258zM539 618v132l258 249v-137zM539 795v694l258 -217v-238z" />
    <glyph glyph-name="R" unicode="R" horiz-adv-x="1292" 
d="M35 1688l262 -328l291 328h-553zM72 743h190v-575l246 160v1114l70 65v-1212l-424 -295h458v760l201 -129v-631h281l116 225l-106 2v518l-258 173l227 157v344l-375 271l-432 -463v-285zM612 784v693l236 -156v-371z" />
    <glyph glyph-name="S" unicode="S" horiz-adv-x="1153" 
d="M35 0h581l404 428v451l-246 178l207 366l-326 265l-401 -414v-512l240 -156l-209 -366zM326 240l284 512v-512h-284zM473 950v502l59 64l78 -72v-584zM647 240v602l90 -76v-526h-90zM647 899v512l199 -160z" />
    <glyph glyph-name="T" unicode="T" horiz-adv-x="1083" 
d="M39 1462h432l-90 -104v-402l-178 -192h178v-569l-178 -195h508l112 190l-118 3v1277h208l134 218h-834zM483 193l119 110v1170h70v-1280h-189z" />
    <glyph glyph-name="U" unicode="U" horiz-adv-x="1284" 
d="M37 1688l248 -289l245 289h-493zM102 659h179v-659h335l265 160v-160h254l114 197h-114v1491l-252 -299v-330l-228 -271v895l-381 -434v-381zM549 203v1313l74 73v-1386h-74zM653 618v121l230 269v-127zM655 203v366l228 262v-628h-228z" />
    <glyph glyph-name="V" unicode="V" horiz-adv-x="1236" 
d="M37 1688l244 -287l264 287h-508zM80 606h199v-391l143 -215h311l348 344v1344l-239 -263v-426l-209 -223v912l-352 -394v-250l-199 -184h197v-63zM528 311v1209l72 73v-1353zM633 201v360l209 219v-581zM635 610v125l207 221v-125z" />
    <glyph glyph-name="W" unicode="W" horiz-adv-x="1761" 
d="M37 1688l244 -275l264 275h-508zM80 606h205v-391l186 -215h262l146 160l153 -160h240l336 342v1346l-207 -215v-488l-209 -197v902l-346 -396v-303l-207 -192v889l-350 -400v-244l-207 -184h203v-55zM528 322v1194l76 77v-1355zM629 623v120l219 201v-117zM639 201v379
l209 200v-579h-209zM1081 322v1196l76 86v-1366zM1186 623v120l219 201v-117zM1192 201v379l213 204v-583h-213z" />
    <glyph glyph-name="X" unicode="X" horiz-adv-x="1187" 
d="M37 0h442l-135 342l139 305l260 -647h258l152 246l-102 8l-344 907l114 250l166 -197l119 240l-195 229l-223 -481l-182 492l-330 -269l293 -737l-174 -371zM438 1604l54 36l522 -1384l-74 -2z" />
    <glyph glyph-name="Y" unicode="Y" horiz-adv-x="1228" 
d="M37 612h190v-403l258 -234l207 191l-76 74v335l181 187v-977h-488l-149 -197h579l312 414v1686l-250 -269v-438l-185 -190v903l-389 -391v-228l-190 -215h190v-82zM502 330v1212l78 72v-1348zM610 623v116l189 193v-117z" />
    <glyph glyph-name="Z" unicode="Z" horiz-adv-x="997" 
d="M90 0h715l78 223h-402l168 539h174l66 194h-178l225 732h-35l-455 -1463zM123 127l278 168l426 1393h-581l-78 -263h346l-141 -460h-162l-68 -205h166z" />
    <glyph glyph-name="bracketleft" unicode="[" horiz-adv-x="464" 
d="M41 -240h381v121h-158v1632h158v123h-381v-1876z" />
    <glyph glyph-name="backslash" unicode="\" horiz-adv-x="573" 
d="M-25 1223h207v63l258 402h248l-131 -197h-174v-1292h154l-177 -199h-178v985z" />
    <glyph glyph-name="bracketright" unicode="]" horiz-adv-x="464" 
d="M-57 -119v-121h379v1876h-379v-123h155v-1632h-155z" />
    <glyph glyph-name="asciicircum" unicode="^" horiz-adv-x="2048" 
d="M412 899h96l514 418l512 -418h98l-512 563h-194z" />
    <glyph glyph-name="underscore" unicode="_" horiz-adv-x="1316" 
d="M-53 -147v-132h1347v132h-1347z" />
    <glyph glyph-name="grave" unicode="`" horiz-adv-x="270" 
d="M-70 1688l129 -334h105l-101 334h-133z" />
    <glyph glyph-name="a" unicode="a" horiz-adv-x="815" 
d="M37 0h217l186 195v-195h207l131 207h-127v760l-237 252l-375 -324h219v162l158 -174l-379 -344v-539zM258 209v485l184 166v-651h-184z" />
    <glyph glyph-name="b" unicode="b" horiz-adv-x="794" 
d="M37 0h242l374 379v633l-237 211l-162 -97v562l-217 -175v-1513zM254 201v880l184 -161v-719h-184z" />
    <glyph glyph-name="c" unicode="c" horiz-adv-x="579" 
d="M37 0h287l204 201h-274v829l154 -213l139 162l-164 240l-346 -363v-856z" />
    <glyph glyph-name="d" unicode="d" horiz-adv-x="786" 
d="M37 0h211l188 168v-168h234l80 211h-127v1477l-193 -197v-375l-174 103l-219 -240v-979zM254 201v682l176 202v-884h-176z" />
    <glyph glyph-name="e" unicode="e" horiz-adv-x="749" 
d="M37 0h348l188 215h-311v188l408 449l-326 367l-307 -291v-928zM262 451v610l230 -359z" />
    <glyph glyph-name="f" unicode="f" horiz-adv-x="430" 
d="M37 0h180l174 199h-151v786l206 238h-206v268h172l131 197h-248l-258 -402v-1286z" />
    <glyph glyph-name="g" unicode="g" horiz-adv-x="794" 
d="M37 0h211l201 154v-394h-242l-158 -180h318l297 359v989l-306 291l-321 -338v-881zM258 201v833l188 -178v-655h-188z" />
    <glyph glyph-name="h" unicode="h" horiz-adv-x="872" 
d="M37 0h221v901l143 137l99 -98v-940h219l115 217h-121v827l-166 183l-289 -281v742l-221 -226v-1462z" />
    <glyph glyph-name="i" unicode="i" horiz-adv-x="438" 
d="M37 0h217l147 221h-143v1002l-221 -197v-1026zM37 1233l221 188v267l-221 -201v-254z" />
    <glyph glyph-name="j" unicode="j" horiz-adv-x="413" 
d="M-57 -444l6 -37l313 270v1434l-225 -215v-1373zM37 1233l225 188v267l-225 -201v-254z" />
    <glyph glyph-name="k" unicode="k" horiz-adv-x="823" 
d="M37 0h221v965l113 100l174 -213l-201 -188l121 -132v-532h217l104 195h-102v407l-170 176l201 189l-219 252l-234 -205v674l-225 -215v-1473z" />
    <glyph glyph-name="l" unicode="l" horiz-adv-x="413" 
d="M37 0h217l147 221h-143v1467l-221 -211v-1477z" />
    <glyph glyph-name="m" unicode="m" horiz-adv-x="1226" 
d="M37 0h223v942l84 88l98 -98v-932h224v981l71 61l109 -114v-928h215l129 215h-123v811l-180 197l-221 -201l-183 203l-225 -238v232l-221 -211v-1008z" />
    <glyph glyph-name="n" unicode="n" horiz-adv-x="872" 
d="M37 0h221v901l145 135l97 -96v-940h219l115 217h-121v827l-160 179l-295 -277v275l-221 -220v-1001z" />
    <glyph glyph-name="o" unicode="o" horiz-adv-x="794" 
d="M37 0h244l383 375v610l-273 234l-354 -359v-860zM258 201v837l191 -159v-678h-191z" />
    <glyph glyph-name="p" unicode="p" horiz-adv-x="796" 
d="M37 -420l221 148v272h76l332 342v614l-265 263l-364 -371v-1268zM258 215v815l188 -192v-623h-188z" />
    <glyph glyph-name="q" unicode="q" horiz-adv-x="813" 
d="M37 0h221l191 158v-578l233 191v1173l-297 275l-348 -398v-821zM258 211v819l188 -174v-645h-188z" />
    <glyph glyph-name="r" unicode="r" horiz-adv-x="663" 
d="M37 0h227l121 215h-127v686l131 113v-322l203 172v361l-334 -281v273l-221 -220v-997z" />
    <glyph glyph-name="s" unicode="s" horiz-adv-x="673" 
d="M37 0h311l195 195v284l-285 285v289l148 -142l141 158l-168 154l-342 -320v-229l285 -277v-352l-285 262v-307z" />
    <glyph glyph-name="t" unicode="t" horiz-adv-x="493" 
d="M37 0h264l152 207h-195v801l225 215h-225v329l-221 -198v-1354z" />
    <glyph glyph-name="u" unicode="u" horiz-adv-x="854" 
d="M37 0h217l211 168v-168h235l117 215h-137v1004l-219 -222v-782h-203v1004l-221 -222v-997z" />
    <glyph glyph-name="v" unicode="v" horiz-adv-x="833" 
d="M37 0h242l401 369v850l-219 -222v-782h-203v1004l-221 -222v-997z" />
    <glyph glyph-name="w" unicode="w" horiz-adv-x="1202" 
d="M37 0h242l188 164v-164h209l371 377v842l-216 -222v-782h-169v1008l-216 -226v-782h-188v1004l-221 -222v-997z" />
    <glyph glyph-name="x" unicode="x" horiz-adv-x="780" 
d="M-84 0h305l-84 223l94 242l207 -465h76l166 215h-76l-239 563l75 187l135 -134l97 216l-160 180l-168 -410l-176 400l-166 -211l211 -498l-96 -244z" />
    <glyph glyph-name="y" unicode="y" horiz-adv-x="856" 
d="M37 0h217l205 168v-399h-279l-123 -189h299l324 365v1274l-219 -222v-782h-203v1004l-221 -222v-997z" />
    <glyph glyph-name="z" unicode="z" horiz-adv-x="735" 
d="M25 0h501l86 215h-340l123 322h176l17 32l-182 2l32 99h185l12 32l-186 3l186 518h-426l-107 -222h310l-115 -296h-201l-14 -35h201l-35 -101l-203 2l-12 -34h198z" />
    <glyph glyph-name="braceleft" unicode="{" horiz-adv-x="935" 
d="M8 461q215 -23 295 -96q72 -66 72 -185v-299q0 -432 557 -432v125q-156 0 -252 90q-86 82 -86 201v231q0 215 -82 316q-70 90 -233 131q166 49 240.5 137t74.5 248v233q0 195 65 273q68 76 273 75v127q-557 0 -557 -460v-211q0 -184 -88 -258q-70 -57 -279 -89v-157z" />
    <glyph glyph-name="bar" unicode="|" horiz-adv-x="428" 
d="M109 -326h133v1966h-133v-1966z" />
    <glyph glyph-name="braceright" unicode="}" horiz-adv-x="935" 
d="M-94 -426v-125q555 0 555 432v299q0 121 69 185q84 73 293 96v157q-207 31 -278 89q-84 74 -84 258v211q0 461 -555 460v-127q199 0 272 -79q63 -70 64 -269v-233q0 -158 77 -252q72 -84 236 -133q-166 -39 -236 -131q-78 -102 -77 -316v-231q0 -119 -86 -201
q-96 -90 -250 -90z" />
    <glyph glyph-name="asciitilde" unicode="~" horiz-adv-x="1705" 
d="M178 451q225 158 385 157q96 0 289 -65q197 -70 289 -70q188 0 389 143v154q-219 -154 -387 -154q-84 0 -275 66q-188 68 -303 68q-180 0 -387 -144v-155z" />
    <glyph glyph-name="uni00A0" unicode="&#xa0;" horiz-adv-x="749" 
 />
    <glyph glyph-name="cent" unicode="&#xa2;" horiz-adv-x="776" 
d="M184 182h201v-233h45v233h37l180 205h-248v784l142 -225l135 160l-166 246l-80 -88v192h-45v-235l-201 -213v-826z" />
    <glyph glyph-name="sterling" unicode="&#xa3;" horiz-adv-x="1153" 
d="M45 0h811l176 223h-682l148 199v221h284v37h-282v815l344 -162l145 185l-338 157l-385 -381v-614h-168v-37h168v-422h-51z" />
    <glyph glyph-name="yen" unicode="&#xa5;" horiz-adv-x="1241" 
d="M0 0l201 201l248 -226l204 191l-75 74v335l182 187v-977h-488l-149 -197h579l314 414v1018l123 117v53l-121 -121v119l125 115v43l-127 -111v453l-252 -269v-438l-186 -190v903l-388 -391v-228l-190 -215h190v-82l-190 -166h190v-202l-190 -193v-47l195 197v-125
l-195 -189v-53zM465 330v1212l78 72v-1348zM573 623v116l189 193v-117z" />
    <glyph glyph-name="dieresis" unicode="&#xa8;" horiz-adv-x="694" 
d="M-29 1421l127 -141l123 141l-123 135zM358 1421l127 -141l125 141l-118 135z" />
    <glyph glyph-name="copyright" unicode="&#xa9;" horiz-adv-x="1683" 
d="M131 676q0 -297 211 -502t500 -205q295 0 501 209q209 209 209 498q0 301 -209 508q-210 207 -499 207q-297 0 -506 -211q-207 -213 -207 -504zM223 676q0 258 183 444q180 185 438 185q254 0 436 -182.5t182 -446.5q0 -252 -184 -438q-178 -182 -436 -183
q-254 0 -436 181q-182 182 -183 440zM420 670q0 -178 118.5 -303t292.5 -125q227 0 347 211l-39 26q-115 -176 -281 -176q-260 0 -260 381q0 373 240 373q215 0 282 -275h41l-2 316h-37q-12 -61 -63 -62q-8 0 -80 33t-150 33q-172 0 -290 -125q-119 -121 -119 -307z" />
    <glyph glyph-name="guillemotleft" unicode="&#xab;" horiz-adv-x="1075" 
d="M12 612l451 -612h125l-432 612l432 611h-125zM367 612l446 -612h127l-434 612l434 611h-127z" />
    <glyph glyph-name="uni00AD" unicode="&#xad;" horiz-adv-x="759" 
d="M4 637l625 227v88l-625 -231v-84zM6 518l2 -80l619 226v84z" />
    <glyph glyph-name="registered" unicode="&#xae;" horiz-adv-x="1683" 
d="M131 676q0 -297 211 -502t489 -205q303 0 504 199q217 211 217 504q0 299 -202 506q-213 213 -506 213q-301 0 -506 -211q-207 -211 -207 -504zM223 676q0 258 183 444q180 185 438 185q252 0 434 -182.5t182 -446.5q0 -256 -180 -438q-182 -182 -438 -183
q-254 0 -436.5 182.5t-182.5 438.5zM467 289h389v45q-68 6 -93.5 26.5t-25.5 71.5v244h29q160 0 197 -137q4 -10 5 -36t3 -67q2 -35 7 -60.5t13 -45.5q37 -59 137 -60q160 0 160 174v19h-45q0 -133 -63 -133q-39 0 -50 47q-4 29 -9 55.5t-9 52.5q-41 156 -213 207
q147 27 214 74t67 133q0 84 -80 137q-88 57 -236 58h-397v-45q68 -4 94.5 -26t26.5 -75v-516q0 -59 -33 -80q-25 -16 -88 -18v-45zM737 721v260q0 70 101 70q86 0 135 -44t49 -116q0 -172 -221 -172h-33t-31 2z" />
    <glyph glyph-name="acute" unicode="&#xb4;" horiz-adv-x="370" 
d="M31 1280h100l166 332h-137z" />
    <glyph glyph-name="cedilla" unicode="&#xb8;" horiz-adv-x="329" 
d="M-35 -420h185l129 162l4 160l-144 90l-59 -53v133h-35v-195l31 27l74 -74v-125h-130z" />
    <glyph glyph-name="guillemotright" unicode="&#xbb;" horiz-adv-x="1075" 
d="M23 0h124l449 612l-449 611h-124l428 -611zM373 0h127l446 612l-446 611h-127l432 -611z" />
    <glyph glyph-name="circumflex" unicode="&#x2c6;" horiz-adv-x="587" 
d="M-33 1638h99l165 172l168 -172h103l-240 330h-61z" />
    <glyph glyph-name="tilde" unicode="&#x2dc;" horiz-adv-x="794" 
d="M33 1636l82 -6q2 14 5 33.5t9 44.5q8 29 18 53q29 59 80 60q29 0 56.5 -22.5t46.5 -43.5l20 -22l27 -25l14 -14l23 -19q45 -37 100 -37q123 0 178 154q20 53 15 121h-78q0 -45 -13 -84q-4 -14 -8 -23.5t-8 -15.5q-31 -59 -84 -59q-37 0 -65 26q-14 10 -19 17l-41 41
l-20 18l-25 25q-57 57 -119 57q-76 0 -137 -90q-37 -55 -53 -127q-2 -12 -3 -28t-1 -34z" />
    <glyph glyph-name="afii10023" unicode="&#x401;" horiz-adv-x="1040" 
d="M39 1688h432l-227 -209zM43 0l250 258v520h-199l197 207v358l364 345h355l-105 -193l-139 -2v-487h205l-103 -215l-102 4v-324h-33v324h-100v-555h358l-119 -240h-829zM250 1931l129 137l123 -137l-123 -141zM344 240h256v1253h-65v-1055zM633 1006h100v485h-100v-485z
M639 1931l131 137l121 -137l-123 -141z" />
    <glyph glyph-name="afii10017" unicode="&#x410;" horiz-adv-x="1239" 
d="M37 672l221 231v266l510 521l307 -289v-1178h129l-125 -223h-227v676l-270 -4v-672h-375l342 272v1147l-68 -67v-987l-231 -195v502h-213zM41 1688h582l-283 -281zM582 895h278v403l-225 207l-53 -51v-559z" />
    <glyph glyph-name="afii10018" unicode="&#x411;" horiz-adv-x="1247" 
d="M37 0l311 244l295 4v1239l37 8v-1249h231v401l-227 199l227 147l228 -209v-395l-406 -389h-696zM37 1688h579l-313 -293zM145 752l201 249v277l365 344h354l-104 -192l-173 -5h-100l-113 -8v-975l-223 -170v480h-207z" />
    <glyph glyph-name="afii10019" unicode="&#x412;" horiz-adv-x="1247" 
d="M37 0l311 244l295 4v1239l-68 -70v-975l-223 -170v480h-207l201 249v238l465 449l324 -267v-299l-224 -151l228 -187v-395l-406 -389h-696zM37 1688h579l-313 -293zM680 246h231v401l-227 199l217 162v309l-221 178v-1249z" />
    <glyph glyph-name="afii10020" unicode="&#x413;" horiz-adv-x="1052" 
d="M49 0l182 238l244 -238h-426zM53 1688h821l144 -234l-217 -6v-549h-33v551l-133 -2v-1202l244 -246h-244l-342 336v350l-197 211h197v557zM385 1450l139 -68v-1220l78 -78v1366h-217z" />
    <glyph glyph-name="afii10021" unicode="&#x414;" horiz-adv-x="1236" 
d="M37 0l305 223h301v1288l-68 -61v-1008l-223 -170v480h-207l201 249v265l438 422l346 -328v-975l-397 -385h-696zM37 1688h549l-293 -267zM676 223h209v695l-209 -195v-500zM676 907l211 201v158l-211 215v-574zM680 770l207 199v96l-207 -205v-90z" />
    <glyph glyph-name="afii10022" unicode="&#x415;" horiz-adv-x="1040" 
d="M39 1688h432l-227 -209zM43 0l250 258v520h-199l197 207v358l364 345h355l-105 -193l-139 -2v-487h205l-103 -215l-102 4v-324h-33v324h-100v-555h358l-119 -240h-829zM344 240h256v1253h-65v-1055zM633 1006h100v485h-100v-485z" />
    <glyph glyph-name="afii10024" unicode="&#x416;" horiz-adv-x="1765" 
d="M70 1679h385l250 -747l-7 420l375 338l-2 -762l250 762h385l-162 -312l-291 2l-180 -569l221 160l267 -203v-541l106 -2l-117 -223h-280v651l-199 150l-2 -805h-401l290 260l80 -201l-2 1563l-73 -82v-1200l-244 -209l-12 649l-2 21l4 2l-4 2v18l-193 549l-291 -2z
M109 215l106 2v541l266 203l224 -158v-4l-199 -156v-651h-281zM561 1677h383l-291 -256z" />
    <glyph glyph-name="afii10025" unicode="&#x417;" horiz-adv-x="1179" 
d="M31 1688h432l-209 -220zM33 -6l250 239h422l-7 416l-280 164l231 180l45 -28l-6 471l-199 -207h-307l400 436l399 -295l6 -317l-194 -150l299 -182v-297l-373 -430h-686zM721 1468l8 -526l62 -37l2 555l-54 27zM733 629l6 -396h62v357z" />
    <glyph glyph-name="afii10026" unicode="&#x418;" horiz-adv-x="1284" 
d="M37 1688h493l-245 -289zM102 659l172 209v381l381 434v-895l228 271v330l252 299v-1491h114l-114 -197h-254v160l-265 -160h-335v659h-179zM549 203h74v1386l-74 -73v-1313zM653 618l230 263v127l-230 -269v-121zM655 203h228v628l-228 -262v-366z" />
    <glyph glyph-name="afii10027" unicode="&#x419;" horiz-adv-x="1284" 
d="M37 1688h493l-245 -289zM102 659l172 209v381l381 434v-895l228 271v330l252 299v-1491h114l-114 -197h-254v160l-265 -160h-335v659h-179zM549 203h74v1386l-74 -73v-1313zM643 1935l397 2l-200 -239zM653 618l230 263v127l-230 -269v-121zM655 203h228v628l-228 -262
v-366z" />
    <glyph glyph-name="afii10028" unicode="&#x41a;" horiz-adv-x="1341" 
d="M39 0l254 258v520l-4 574l370 338v-1436l70 -4l-188 -250h-502zM39 1688h487l-247 -234zM348 256h275v1364l-74 -68v-1114zM653 807l228 164l266 -203v-541l106 -2l-116 -225h-281v653zM657 805v123l250 762h385l-162 -312l-290 2z" />
    <glyph glyph-name="afii10029" unicode="&#x41b;" horiz-adv-x="1239" 
d="M37 672l221 231v266l510 521l307 -289v-1178h129l-125 -223h-227v676l8 622l-225 207l-53 -51v-782v-672h-375l342 272v1147l-68 -67v-987l-231 -195v502h-213zM41 1688h582l-283 -281z" />
    <glyph glyph-name="afii10030" unicode="&#x41c;" horiz-adv-x="1798" 
d="M35 1688h528l-282 -271zM70 692l157 254v262l506 484l281 -252l274 252l285 -265v-1185h201l-134 -242h-313v688h-192v-444h71l-127 -244h-301v692h-198v-692h-435l400 315v1147l-60 -63v-1041l-262 -192v526h-153zM580 948h200v361l-200 184v-545zM1022 244l80 2v1229
l-80 -66v-1165zM1135 950h198v340l-198 180v-520z" />
    <glyph glyph-name="afii10031" unicode="&#x41d;" horiz-adv-x="1310" 
d="M33 1688h469l-246 -244zM39 729l237 240v354l342 365v-717h283v420h-94l340 297v-1444h125l-119 -244h-246v723h-289v-723h-430l398 358v1258l-68 -72v-1149l-248 -227v559z" />
    <glyph glyph-name="afii10032" unicode="&#x41e;" horiz-adv-x="1136" 
d="M37 553l143 147v88h-143l139 164v246l504 490l350 -308v-989l-366 -391h-484v553h-143zM436 246l72 -2v1233l-72 -64v-1167zM537 604l258 264v138l-258 -271v-131zM541 244l254 -2v585l-254 -262v-321zM541 780l256 269v225l-256 235v-729z" />
    <glyph glyph-name="afii10033" unicode="&#x41f;" horiz-adv-x="1316" 
d="M35 1688h532l-293 -304zM86 748l211 217l-2 348l348 375v-854l238 170v282l-148 193l178 209l215 -236v-1210h109l-115 -242h-243v791l-234 -168v-623h-477l444 328v1267l-65 -69v-1135l-252 -194v546zM641 662l238 176v116l-238 -166v-126z" />
    <glyph glyph-name="afii10034" unicode="&#x420;" horiz-adv-x="1112" 
d="M37 1688h508l-264 -308zM49 285l184 247v639l431 519l342 -330v-690l-336 -385l-111 -6v1224l-78 -82v-1665l-254 -223v752h-178zM592 532h199v396l-199 -232v-164zM592 743l203 232v135l-203 -233v-134zM592 924l205 233v96l-205 201v-530z" />
    <glyph glyph-name="afii10035" unicode="&#x421;" horiz-adv-x="1003" 
d="M39 547l186 190v54h-186l186 184v264l473 453l271 -275l-146 -160l-258 259v-1278h223l89 127l26 -23l-233 -342h-445v547h-186zM469 238h63v1255l-63 -63v-1192z" />
    <glyph glyph-name="afii10036" unicode="&#x422;" horiz-adv-x="1083" 
d="M39 1462l174 226h834l-134 -218h-208v-1277l118 -3l-112 -190h-508l178 195v569h-178l178 192v402l90 104h-432zM483 193h189v1280h-70v-1170z" />
    <glyph glyph-name="afii10037" unicode="&#x423;" horiz-adv-x="1234" 
d="M68 1688h507l-264 -275zM109 612l190 166v82h-190l190 215v228l389 391v-903l184 190v438l250 269v-1686l-311 -414h-580l150 197h487v977l-180 -187v-335l76 -74l-207 -191l-258 234v403h-190zM573 330l78 -64v1348l-78 -72v-1212zM682 623l188 192v117l-188 -193v-116z
" />
    <glyph glyph-name="afii10038" unicode="&#x424;" horiz-adv-x="1349" 
d="M45 379v680l307 317l129 -131l2 76l342 350v-430l129 133l308 -319v-680l-353 -375h-84v-186l-342 -326v522l-86 -6zM246 1688h514l-254 -269zM264 223h217v199l-217 180v-379zM264 641l217 -178v174l-217 180v-176zM264 858l217 -180v485l-217 -221v-84zM702 -246l84 78
v1712l-84 -78v-1712zM825 219h217v379l-217 -180v-199zM825 459l217 178v176l-217 -180v-174zM825 674l217 180v84l-217 221v-485z" />
    <glyph glyph-name="afii10039" unicode="&#x425;" horiz-adv-x="1187" 
d="M37 0l258 317l174 371l-293 737l330 269l182 -492l223 481l195 -229l-119 -240l-166 197l-114 -250l344 -907l102 -8l-152 -246h-258l-260 647l-139 -305l135 -342h-442zM438 1604l502 -1350l74 2l-522 1384z" />
    <glyph glyph-name="afii10040" unicode="&#x426;" horiz-adv-x="1370" 
d="M37 1688h493l-245 -289zM102 659l172 209v381l381 434v-895l228 271v330l252 299v-1491l131 -2l-164 -519l-404 -4l121 213l305 4l31 109l-20 2h-254v160l-265 -160h-335v659h-179zM549 203h74v1386l-74 -73v-1313zM653 618l230 263v127l-230 -269v-121zM655 203h228v628
l-228 -262v-366z" />
    <glyph glyph-name="afii10041" unicode="&#x427;" horiz-adv-x="1284" 
d="M37 1688h493l-245 -289zM102 872l172 209v168l381 434v-645l228 271v80l252 299v-1491h114l-114 -197h-254l2 715l-226 -135l7 -381l-31 -4l-4 366l-11 -6h-335l-2 317h-179zM549 1049l2 -291h78l-6 831l-74 -73v-467zM653 868l230 262v127l-230 -268v-121zM655 758h230
l-2 323l-228 -262v-61z" />
    <glyph glyph-name="afii10042" unicode="&#x428;" horiz-adv-x="1949" 
d="M78 1688h493l-245 -289zM115 659l172 209v381l381 434v-895l227 279v184l381 435v-895l227 270v330l252 299v-1491h115l-115 -197h-254v160l-264 -160h-342l-2 158l-264 -160h-336v659h-178zM561 203h74v1386l-74 -73v-1313zM666 618l229 263v129l-229 -271v-121z
M668 203h227v628l-227 -262v-366zM1169 205h74v1386l-74 -73v-1313zM1274 621l229 262v127l-229 -269v-120zM1276 205h227v629l-227 -263v-366z" />
    <glyph glyph-name="afii10043" unicode="&#x429;" horiz-adv-x="1925" 
d="M78 1688h493l-245 -289zM115 659l172 209v381l381 434v-895l227 279v184l381 435v-895l227 270v330l252 299v-1491l131 -2l-164 -519l-403 -4l121 213l305 4l31 109l-21 2h-254v160l-264 -160h-342l-2 158l-264 -160h-336v659h-178zM561 203h74v1386l-74 -73v-1313z
M666 618l229 263v129l-229 -271v-121zM668 203h227v628l-227 -262v-366zM1169 205h74v1386l-74 -73v-1313zM1274 621l229 262v127l-229 -269v-120zM1276 205h227v629l-227 -263v-366z" />
    <glyph glyph-name="afii10044" unicode="&#x42a;" horiz-adv-x="1427" 
d="M20 1513l480 -10l211 -143v-1114l69 -66v1213l-424 295h459l-4 -603l559 -346v-471l-469 -270l-432 463v284l-195 199h191l-4 445l-101 69l-161 -268zM238 0l262 328l291 -328h-553zM815 211l264 156v499l-264 170v-825z" />
    <glyph glyph-name="afii10045" unicode="&#x42b;" horiz-adv-x="1773" 
d="M35 0l262 328l291 -328h-553zM72 944h190v576l246 -160v-1114l70 -66v1213l-424 295h458l-4 -603l559 -346v-432l-469 -309l-432 463v284zM612 211l265 156v499l-265 170v-825zM897 -2h602l189 250l-70 4v1436l-371 -338l4 -574v-520zM997 1686l240 -234l248 234h-488z
M1307 254l200 182v1114l74 68v-1364h-274z" />
    <glyph glyph-name="afii10046" unicode="&#x42c;" horiz-adv-x="1243" 
d="M35 0l262 328l291 -328h-553zM72 944h190v576l246 -160v-1114l70 -66v1213l-424 295h458l-4 -603l559 -346v-471l-469 -270l-432 463v284zM612 211l265 156v499l-265 170v-825z" />
    <glyph glyph-name="afii10047" unicode="&#x42d;" horiz-adv-x="1003" 
d="M39 1417l270 275l496 -449l-2 -268l186 -184h-186v-54l186 -190h-186v-547h-445l-254 342l27 23l88 -127h244v540l-154 -2l-100 199h254v541l-279 -259zM496 238h63v542l-63 -2v-540zM496 975h63v455l-63 63v-518z" />
    <glyph glyph-name="afii10048" unicode="&#x42e;" horiz-adv-x="1722" 
d="M33 1688h469l-246 -244zM39 729l237 240v354l342 365v-717h168v229l504 490l350 -308v-989l-366 -391h-483l-5 721h-168v-723h-430l398 358v1258l-68 -72v-1149l-248 -227v559zM1047 248l71 -2v1233l-71 -64v-1167zM1147 606l258 264v138l-258 -271v-131zM1151 246
l254 -2v585l-254 -262v-321zM1151 782l256 269v225l-256 235v-729z" />
    <glyph glyph-name="afii10049" unicode="&#x42f;" horiz-adv-x="1263" 
d="M35 225l106 2v518l258 173l-227 157v344l375 271l432 -463v-285l195 -199h-191v-575l-246 160v1114l-69 65v-1212l424 -295h-459v760l-201 -129v-631h-280zM397 950l236 -166v693l-236 -156v-371z" />
    <glyph glyph-name="afii10065" unicode="&#x430;" horiz-adv-x="833" 
d="M37 0v539l379 344l-158 174v-162h-219l375 324l237 -252v-760h127l-131 -207h-207v195l-186 -195h-217zM258 209h184v651l-184 -166v-485z" />
    <glyph glyph-name="afii10066" unicode="&#x431;" horiz-adv-x="749" 
d="M47 0v860l191 193l-168 145l272 352h348l-158 -213l-272 -10l414 -342v-610l-383 -375h-244zM268 201h191v678l-191 159v-837z" />
    <glyph glyph-name="afii10067" unicode="&#x432;" horiz-adv-x="741" 
d="M37 0v860l354 359l268 -234l-186 -293l191 -2v-315l-383 -375h-244zM258 201h191v434h-191v-434zM258 694l166 4l106 179l-272 161v-344z" />
    <glyph glyph-name="afii10068" unicode="&#x433;" horiz-adv-x="706" 
d="M37 0v997l221 220v-3l379 11v-361l-203 -172v484l-176 -5v-956h127l-121 -215h-227z" />
    <glyph glyph-name="afii10069" unicode="&#x434;" horiz-adv-x="749" 
d="M37 0v881l321 338l306 -291v-989l-297 -359h-318l158 180h242v394l-201 -154h-211zM258 201h188v655l-188 178v-833z" />
    <glyph glyph-name="afii10070" unicode="&#x435;" horiz-adv-x="749" 
d="M37 0v928l307 291l326 -367l-408 -449v-188h311l-188 -215h-348zM262 451l230 251l-230 359v-610z" />
    <glyph glyph-name="afii10072" unicode="&#x436;" horiz-adv-x="1384" 
d="M39 193h102v329l254 217l164 -116v-2l-199 -168v-455h-217zM82 981l242 233l235 -507l2 311l225 215l-6 -270v-271l244 522l242 -233l-144 -199l-172 197l-170 -361v-620h-221v623l2 2h-2v10l-166 344l-168 -195zM786 623l166 116l254 -217v-329h103l-105 -195h-217v455z
" />
    <glyph glyph-name="afii10073" unicode="&#x437;" horiz-adv-x="657" 
d="M14 1069l168 154l387 -320v-207l-188 -24l186 -164v-313l-239 -195h-312v307l285 -262v481l-186 172l188 4v351l-147 -142z" />
    <glyph glyph-name="afii10074" unicode="&#x438;" horiz-adv-x="854" 
d="M37 0v997l221 222v-1004h203v782l219 222v-1004h137l-117 -215h-235v168l-211 -168h-217z" />
    <glyph glyph-name="afii10075" unicode="&#x439;" horiz-adv-x="854" 
d="M37 0v997l221 222v-1004h203v782l219 222v-1004h137l-117 -215h-235v168l-211 -168h-217zM233 1509l398 2l-201 -239z" />
    <glyph glyph-name="afii10076" unicode="&#x43a;" horiz-adv-x="862" 
d="M37 0l2 1020l225 215l-6 -270v-271l244 523l241 -234l-143 -199l-172 197l-170 -360v-621h-221zM264 625l166 116l254 -217v-329h102l-104 -195h-217v455z" />
    <glyph glyph-name="afii10077" unicode="&#x43b;" horiz-adv-x="784" 
d="M53 -2v850l402 369h241v-1215l-221 -4v1003h-203v-1001z" />
    <glyph glyph-name="afii10078" unicode="&#x43c;" horiz-adv-x="1159" 
d="M55 2l4 842l371 377h209v-164l188 164h242v-1219h-221v1004h-189v-1004l-215 -4v1008h-170l-8 -1004h-211z" />
    <glyph glyph-name="afii10079" unicode="&#x43d;" horiz-adv-x="897" 
d="M43 0v997l221 222l-2 -551l207 4l-2 325l219 222v-1004h137l-116 -215h-236v168l-2 395h-207l-2 -563h-217z" />
    <glyph glyph-name="afii10080" unicode="&#x43e;" horiz-adv-x="749" 
d="M37 0v860l354 359l273 -234v-610l-383 -375h-244zM258 201h191v678l-191 159v-837z" />
    <glyph glyph-name="afii10081" unicode="&#x43f;" horiz-adv-x="872" 
d="M37 0v1001l221 220v-275l295 277l160 -179v-827h121l-115 -217h-219v940l-97 96l-145 -135v-901h-221z" />
    <glyph glyph-name="afii10082" unicode="&#x440;" horiz-adv-x="735" 
d="M37 -420v1268l364 371l265 -263v-614l-332 -342h-76v-272zM258 215h188v623l-188 192v-815z" />
    <glyph glyph-name="afii10083" unicode="&#x441;" horiz-adv-x="620" 
d="M37 0v856l346 363l164 -240l-139 -162l-154 213v-829h274l-204 -201h-287z" />
    <glyph glyph-name="afii10084" unicode="&#x442;" horiz-adv-x="1226" 
d="M37 0v1008l221 211v-232l225 238l183 -203l221 201l180 -197v-811h123l-129 -215h-215v928l-109 114l-71 -61v-981h-224v932l-98 98l-84 -88v-942h-223z" />
    <glyph glyph-name="afii10085" unicode="&#x443;" horiz-adv-x="770" 
d="M37 0v997l221 222v-1004h203v782l219 222v-1274l-324 -365h-299l123 189h279v399l-205 -168h-217z" />
    <glyph glyph-name="afii10086" unicode="&#x444;" 
d="M23 315v611l239 245l117 -127l4 429l211 231v-657l117 127l239 -246v-611l-295 -313h-61v-231l-211 -187l-4 416h-62zM217 197h160v788l-160 -160v-628zM596 199h160v628l-160 160v-788z" />
    <glyph glyph-name="afii10087" unicode="&#x445;" horiz-adv-x="780" 
d="M-74 0l201 264l96 244l-211 498l166 211l176 -400l168 410l160 -180l-96 -216l-135 134l-76 -187l239 -563h76l-166 -215h-75l-207 465l-95 -242l84 -223h-305z" />
    <glyph glyph-name="afii10088" unicode="&#x446;" horiz-adv-x="868" 
d="M37 0v997l221 222v-1004h203v782l219 222v-1004l162 -2l-176 -483l-367 -2l107 190l280 2l37 80h-57h-201v168l-211 -168h-217z" />
    <glyph glyph-name="afii10089" unicode="&#x447;" horiz-adv-x="854" 
d="M37 403v594l221 222v-601h203v379l219 222v-1004h137l-117 -215h-235v571l-211 -168h-217z" />
    <glyph glyph-name="afii10090" unicode="&#x448;" horiz-adv-x="1335" 
d="M49 2v997l221 222v-1004h203l2 780l221 222v-1004h203v782l219 222v-1004l162 -2l-176 -213h-201v168l-211 -168l-211 -4l-4 174l-211 -168h-217z" />
    <glyph glyph-name="afii10091" unicode="&#x449;" horiz-adv-x="1335" 
d="M49 2v997l221 222v-1004h203l2 780l221 222v-1004h203v782l219 222v-1004l162 -2l-176 -483l-367 -2l107 190l280 2l37 80h-57h-201v168l-211 -168l-211 -4l-4 174l-211 -168h-217z" />
    <glyph glyph-name="afii10092" unicode="&#x44a;" horiz-adv-x="1093" 
d="M25 1227l385 2l184 -135v-293l162 96l237 -211v-309l-375 -379h-241l-19 1176l-147 -199zM594 199h184v395l-184 162v-557z" />
    <glyph glyph-name="afii10093" unicode="&#x44b;" horiz-adv-x="1193" 
d="M55 0v1057l217 174v-428l162 96l238 -211v-309l-375 -379h-242zM272 201h185v395l-185 162v-557zM752 0v1026l221 197v-1002h143l-147 -221h-217z" />
    <glyph glyph-name="afii10094" unicode="&#x44c;" horiz-adv-x="755" 
d="M55 0v1057l217 174v-428l162 96l238 -211v-309l-375 -379h-242zM272 201h185v395l-185 162v-557z" />
    <glyph glyph-name="afii10095" unicode="&#x44d;" horiz-adv-x="649" 
d="M39 979l164 240l346 -363v-856h-287l-205 201h275v366h-129l-101 140h230v323l-154 -213z" />
    <glyph glyph-name="afii10096" unicode="&#x44e;" horiz-adv-x="1130" 
d="M37 0v997l221 222l-2 -557l168 4v196l354 359l273 -234v-610l-383 -375h-244v563l-168 -2l-2 -563h-217zM645 203h191v678l-191 159v-837z" />
    <glyph glyph-name="afii10097" unicode="&#x44f;" horiz-adv-x="876" 
d="M37 195h102l2 215l181 192l-250 229l256 388l233 -205l-4 221l225 -215l4 -1020h-221v956l-104 93l-219 -312l235 -237l-110 -152l-9 -348h-217z" />
    <glyph glyph-name="afii10071" unicode="&#x451;" horiz-adv-x="749" 
d="M14 1421l131 135l121 -135l-121 -141zM37 0v928l307 291l326 -367l-408 -449v-188h311l-188 -215h-348zM262 451l230 251l-230 359v-610zM406 1421l131 135l122 -135l-124 -141z" />
    <glyph glyph-name="uni2000" unicode="&#x2000;" horiz-adv-x="1061" 
 />
    <glyph glyph-name="uni2001" unicode="&#x2001;" horiz-adv-x="2122" 
 />
    <glyph glyph-name="uni2002" unicode="&#x2002;" horiz-adv-x="1061" 
 />
    <glyph glyph-name="uni2003" unicode="&#x2003;" horiz-adv-x="2122" 
 />
    <glyph glyph-name="uni2004" unicode="&#x2004;" horiz-adv-x="707" 
 />
    <glyph glyph-name="uni2005" unicode="&#x2005;" horiz-adv-x="530" 
 />
    <glyph glyph-name="uni2006" unicode="&#x2006;" horiz-adv-x="353" 
 />
    <glyph glyph-name="uni2007" unicode="&#x2007;" horiz-adv-x="353" 
 />
    <glyph glyph-name="uni2008" unicode="&#x2008;" horiz-adv-x="265" 
 />
    <glyph glyph-name="uni2009" unicode="&#x2009;" horiz-adv-x="424" 
 />
    <glyph glyph-name="uni200A" unicode="&#x200a;" horiz-adv-x="117" 
 />
    <glyph glyph-name="uni2010" unicode="&#x2010;" horiz-adv-x="759" 
d="M4 637l625 227v88l-625 -231v-84zM6 518l2 -80l619 226v84z" />
    <glyph glyph-name="uni2011" unicode="&#x2011;" horiz-adv-x="759" 
d="M4 637l625 227v88l-625 -231v-84zM6 518l2 -80l619 226v84z" />
    <glyph glyph-name="figuredash" unicode="&#x2012;" horiz-adv-x="759" 
d="M4 637l625 227v88l-625 -231v-84zM6 518l2 -80l619 226v84z" />
    <glyph glyph-name="endash" unicode="&#x2013;" horiz-adv-x="1175" 
d="M98 582h881v157h-881v-157z" />
    <glyph glyph-name="emdash" unicode="&#x2014;" horiz-adv-x="1564" 
d="M45 582h1350v157h-1350v-157z" />
    <glyph glyph-name="quoteleft" unicode="&#x2018;" horiz-adv-x="491" 
d="M25 1309l157 -176l170 178l-168 182l127 195h-32z" />
    <glyph glyph-name="quoteright" unicode="&#x2019;" horiz-adv-x="491" 
d="M31 1509l166 -186l-125 -190l30 -17l258 393l-161 179z" />
    <glyph glyph-name="quotesinglbase" unicode="&#x201a;" horiz-adv-x="534" 
d="M74 184l168 -184l-125 -190l30 -15l259 393l-162 177z" />
    <glyph glyph-name="quotedblleft" unicode="&#x201c;" horiz-adv-x="880" 
d="M25 1309l157 -176l170 178l-168 182l127 195h-32zM422 1309l158 -176l172 178l-170 182l129 195h-35z" />
    <glyph glyph-name="quotedblright" unicode="&#x201d;" horiz-adv-x="880" 
d="M31 1511l168 -186l-127 -190h32l256 378l-159 177zM430 1511l168 -186l-127 -190h33l256 378l-160 177z" />
    <glyph glyph-name="quotedblbase" unicode="&#x201e;" horiz-adv-x="952" 
d="M80 184l166 -184l-123 -190l31 -15l256 393l-162 177zM477 184l166 -184l-125 -190l31 -15l260 393l-162 177z" />
    <glyph glyph-name="bullet" unicode="&#x2022;" horiz-adv-x="1208" 
d="M307 762q0 -123 86 -211q86 -86 209 -86t209 86q88 88 88 211t-88 209q-86 86 -207 86q-123 0 -211 -86q-86 -86 -86 -209z" />
    <glyph glyph-name="ellipsis" unicode="&#x2026;" horiz-adv-x="1490" 
d="M63 184l166 -184l162 184l-160 183zM561 184l166 -184l162 184l-160 183zM1059 184l166 -184l161 184l-159 183z" />
    <glyph glyph-name="uni202F" unicode="&#x202f;" horiz-adv-x="424" 
 />
    <glyph glyph-name="guilsinglleft" unicode="&#x2039;" horiz-adv-x="675" 
d="M12 612l451 -612h125l-432 612l432 611h-125z" />
    <glyph glyph-name="guilsinglright" unicode="&#x203a;" horiz-adv-x="675" 
d="M12 0h127l449 612l-449 611h-127l432 -611z" />
    <glyph glyph-name="uni205F" unicode="&#x205f;" horiz-adv-x="530" 
 />
    <glyph glyph-name="trademark" unicode="&#x2122;" horiz-adv-x="1683" 
d="M240 1260h26q16 152 137 151h17v-424q0 -51 -43 -53l-31 -2v-29h254v29l-33 2q-41 4 -41 53v424h17q121 0 133 -151h29l-11 182h-444zM780 903h197v29l-33 2q-43 2 -43 53v389l172 -475h21l172 473v-387q0 -51 -43 -53l-31 -2v-29h240v29l-31 2q-41 4 -41 53v375
q0 49 41 53l31 2v25h-181l-143 -391l-137 391h-191v-27l33 -4q43 -4 43 -53v-371q0 -51 -43 -53l-33 -2v-29z" />
    <glyph glyph-name="uni25FC" unicode="&#x25fc;" horiz-adv-x="1228" 
d="M0 0v1229h1229v-1229h-1229z" />
  </font>
</defs>
</svg>
