<?xml version="1.0" standalone="no"?>
<!DOCTYPE svg PUBLIC "-//W3C//DTD SVG 1.1//EN" "http://www.w3.org/Graphics/SVG/1.1/DTD/svg11.dtd" >
<svg xmlns="http://www.w3.org/2000/svg" xmlns:xlink="http://www.w3.org/1999/xlink" version="1.1">
<metadata>
Created by FontForge 20170731 at Tue Aug  7 14:02:32 2012
 By Aleksey,,,
Copyright (c) 2012 by Jos Buivenga. All rights reserved.
</metadata>
<defs>
<font id="MuseoSansCyrl-500Italic" horiz-adv-x="386" >
  <font-face 
    font-family="Museo Sans Cyrl 500"
    font-weight="400"
    font-style="italic"
    font-stretch="normal"
    units-per-em="1000"
    panose-1="2 0 0 0 0 0 0 0 0 0"
    ascent="750"
    descent="-250"
    x-height="506"
    cap-height="706"
    bbox="-180 -210 1087 892"
    underline-thickness="50"
    underline-position="-150"
    slope="-11"
    unicode-range="U+0020-FB04"
  />
<missing-glyph horiz-adv-x="510" 
d="M5 0v700h500v-700h-500zM255 395l170 255h-340zM455 95v510l-170 -255zM55 95l170 255l-170 255v-510zM85 50h340l-170 255z" />
    <glyph glyph-name="f_f" unicode="ff" horiz-adv-x="679" 
d="M40 0l84 428h-63l15 78h63l4 20q8 46 28.5 81.5t44 54.5t52.5 30.5t50.5 15t42.5 3.5t45 -3l-18 -84q-6 2 -24 2q-106 0 -126 -105l-3 -15h244l3 20q11 57 38 97t62 57.5t63 24t56 6.5q21 0 44 -3l-18 -84q-4 2 -23 2q-107 0 -126 -105l-3 -15h119l-14 -78h-120l-83 -428
h-97l83 428h-242l-84 -428h-97z" />
    <glyph glyph-name="fi" unicode="fi" horiz-adv-x="579" 
d="M40 0l84 428h-63l15 78h63l4 20q8 46 28.5 81.5t44 54.5t52.5 30.5t50.5 15t42.5 3.5q23 0 45 -3l-18 -84q-6 2 -24 2q-106 0 -126 -105l-3 -15h312l-99 -506h-96l82 428h-213l-84 -428h-97zM468 608l20 98h100l-20 -98h-100z" />
    <glyph glyph-name="fl" unicode="fl" horiz-adv-x="609" 
d="M379 102q0 21 4 44l109 560h97l-106 -548q-4 -26 -4 -34q0 -41 45 -41q8 0 16 1l-17 -86q-18 -3 -30 -3q-48 0 -81 24t-33 83zM42 0l82 422h-63l15 79h63l5 24q9 47 29.5 82.5t44 54.5t52.5 31t50.5 15t42.5 3q25 0 44 -3l-18 -84q-6 2 -23 2q-106 0 -126 -104l-4 -21
h119l-15 -79h-119l-82 -422h-97z" />
    <glyph glyph-name="f_f_i" unicode="ffi" horiz-adv-x="922" 
d="M40 0l84 428h-63l15 78h63l4 20q8 46 28.5 81.5t44 54.5t52.5 30.5t50.5 15t42.5 3.5q23 0 45 -3l-18 -84q-10 2 -24 2q-106 0 -126 -105l-3 -15h244l3 20q11 57 38 97t62 57.5t63 24t56 6.5q21 0 44 -3l-18 -84q-8 2 -23 2q-107 0 -126 -105l-3 -15h314l-98 -506h-97
l83 428h-217l-83 -428h-97l83 428h-242l-84 -428h-97zM810 608l20 98h100l-20 -98h-100z" />
    <glyph glyph-name="f_f_l" unicode="ffl" horiz-adv-x="947" 
d="M40 0l84 428h-63l15 78h63l4 20q8 46 28.5 81.5t44 54.5t52.5 30.5t50.5 15t42.5 3.5t45 -3l-18 -84q-6 2 -24 2q-106 0 -126 -105l-3 -15h244l3 20q11 57 38 97t62 57.5t63 24t56 6.5q21 0 44 -3l-18 -84q-4 2 -23 2q-107 0 -126 -105l-3 -15h119l-14 -78h-120l-83 -428
h-97l83 428h-242l-84 -428h-97zM717 102q0 21 4 44l109 560h97l-106 -548q-4 -26 -4 -34q0 -41 45 -41q8 0 16 1l-17 -86q-18 -3 -30 -3q-48 0 -81 24t-33 83z" />
    <glyph glyph-name="f_j" unicode="fj" horiz-adv-x="583" 
d="M40 0l84 428h-63l15 78h63l4 20q8 46 28.5 81.5t44 54.5t52.5 30.5t50.5 15t42.5 3.5q19 0 45 -3l-18 -84q-10 2 -24 2q-106 0 -126 -105l-3 -15h315l-102 -522q-9 -48 -29.5 -84.5t-43 -56t-51.5 -31.5t-50 -15t-43 -3q-30 0 -46 2l16 83q12 -2 22 -2q17 0 33.5 4
t37 14.5t36.5 34.5t23 59l84 439h-216l-84 -428h-97zM471 608l19 98h99l-18 -98h-100z" />
    <glyph glyph-name=".notdef" horiz-adv-x="510" 
d="M5 0v700h500v-700h-500zM255 395l170 255h-340zM455 95v510l-170 -255zM55 95l170 255l-170 255v-510zM85 50h340l-170 255z" />
    <glyph glyph-name=".null" horiz-adv-x="0" 
 />
    <glyph glyph-name="nonmarkingreturn" horiz-adv-x="333" 
 />
    <glyph glyph-name="space" unicode=" " horiz-adv-x="250" 
 />
    <glyph glyph-name="exclam" unicode="!" horiz-adv-x="275" 
d="M74 194l93 512h100l-106 -512h-87zM30 0l20 99h100l-19 -99h-101z" />
    <glyph glyph-name="quotedbl" unicode="&#x22;" horiz-adv-x="366" 
d="M260 530l37 188h76l-37 -188h-76zM119 530l37 188h76l-37 -188h-76z" />
    <glyph glyph-name="numbersign" unicode="#" horiz-adv-x="722" 
d="M82 0l71 191h-128l26 73h129l62 169h-128l27 73h128l74 200h83l-74 -200h155l74 200h83l-74 -200h128l-26 -73h-129l-62 -169h127l-26 -73h-128l-71 -191h-83l70 191h-154l-71 -191h-83zM262 264h156l62 169h-155z" />
    <glyph glyph-name="dollar" unicode="$" horiz-adv-x="577" 
d="M18 81l61 70q67 -71 170 -71q60 0 104 31t44 86q0 37 -29.5 65t-71 48.5t-83 44t-71 63.5t-29.5 95q0 87 66 142t158 62l19 92h70l-18 -94q101 -13 158 -71l-56 -73q-25 26 -66.5 41t-81.5 15q-57 0 -103 -30.5t-46 -82.5q0 -35 29.5 -61.5t71 -46.5t83 -44t71 -65.5
t29.5 -97.5q0 -87 -65 -146t-165 -64l-18 -91h-70l18 94q-110 14 -179 89z" />
    <glyph glyph-name="percent" unicode="%" horiz-adv-x="777" 
d="M240 422q-62 0 -99.5 37t-37.5 97q0 62 52.5 112t118.5 50q61 0 99 -37.5t38 -96.5q0 -63 -52.5 -112.5t-118.5 -49.5zM18 0l666 706h100l-668 -706h-98zM245 496q34 0 61 26.5t27 61.5q0 27 -17.5 44t-45.5 17q-34 0 -61.5 -27t-27.5 -63q0 -26 17.5 -42.5t46.5 -16.5z
M388 121q0 62 52.5 112.5t119.5 50.5q61 0 99 -37.5t38 -96.5q0 -63 -52.5 -112.5t-118.5 -49.5q-62 0 -100 37t-38 96zM467 121q0 -26 17.5 -42.5t45.5 -16.5q35 0 61.5 26.5t26.5 62.5q0 25 -17 42.5t-46 17.5q-33 0 -60.5 -27.5t-27.5 -62.5z" />
    <glyph glyph-name="ampersand" unicode="&#x26;" horiz-adv-x="674" 
d="M35 174q0 67 46.5 126.5t118.5 79.5v2q-3 1 -7.5 3.5t-16.5 12t-21 21.5t-16.5 34.5t-7.5 49.5q0 98 72 156.5t174 58.5q45 0 92 -14l-38 -76q-22 6 -52 6q-60 0 -104.5 -36.5t-44.5 -96.5q0 -86 111 -86h131l19 96h97l-18 -96h93l-17 -86h-93l-18 -94q-25 -125 -96 -186
t-181 -61q-104 0 -163.5 51.5t-59.5 134.5zM138 179q0 -44 32.5 -72t89.5 -28q70 0 116.5 40t61.5 121l17 89h-134q-75 0 -129 -38.5t-54 -111.5z" />
    <glyph glyph-name="quotesingle" unicode="'" horiz-adv-x="226" 
d="M119 530l37 188h78l-37 -188h-78z" />
    <glyph glyph-name="parenleft" unicode="(" horiz-adv-x="294" 
d="M97 -95q-51 128 -51 268q0 317 206 562h89q-208 -258 -208 -564q0 -140 46 -266h-82z" />
    <glyph glyph-name="parenright" unicode=")" horiz-adv-x="294" 
d="M-37 -95q208 262 208 564q0 141 -47 266h82q52 -129 52 -268q0 -318 -207 -562h-88z" />
    <glyph glyph-name="asterisk" unicode="*" horiz-adv-x="497" 
d="M175 329l-65 53l111 114l-126 36l43 83l123 -51l20 142h91l-36 -142l144 50l12 -85l-149 -40l67 -109l-76 -52l-58 120z" />
    <glyph glyph-name="plus" unicode="+" horiz-adv-x="577" 
d="M190 0l48 246h-224l15 78h223l49 246h82l-48 -246h222l-14 -78h-223l-48 -246h-82z" />
    <glyph glyph-name="comma" unicode="," horiz-adv-x="275" 
d="M-39 -101l102 206h103l-126 -206h-79z" />
    <glyph glyph-name="hyphen" unicode="-" horiz-adv-x="433" 
d="M60 242l16 86h291l-16 -86h-291z" />
    <glyph glyph-name="period" unicode="." horiz-adv-x="245" 
d="M14 0l20 105h104l-20 -105h-104z" />
    <glyph glyph-name="slash" unicode="/" horiz-adv-x="436" 
d="M-20 -42l406 786h92l-407 -786h-91z" />
    <glyph glyph-name="zero" unicode="0" horiz-adv-x="626" 
d="M60 221q0 58 10 121.5t34 131.5t59 121.5t91.5 88t125.5 34.5q208 0 208 -233q0 -58 -10 -121.5t-34 -131.5t-59 -121.5t-91.5 -88t-125.5 -34.5q-208 0 -208 233zM161 223q0 -144 110 -144q45 0 82.5 28.5t61.5 72.5t40.5 99t23.5 106t7 96q0 146 -109 146
q-54 0 -97.5 -40.5t-68 -104t-37.5 -130.5t-13 -129z" />
    <glyph glyph-name="one" unicode="1" horiz-adv-x="491" 
d="M3 0l15 86h156l88 448l10 43h-2q-11 -16 -42 -41l-77 -63l-51 68l204 165h88l-121 -620h154l-17 -86h-405z" />
    <glyph glyph-name="two" unicode="2" horiz-adv-x="574" 
d="M7 0q1 48 16 91t36 73.5t58 62.5t64.5 50.5t72.5 46.5q107 65 135 88q63 53 63 114q0 46 -30.5 72.5t-78.5 26.5q-47 0 -89.5 -24.5t-72.5 -65.5l-70 56q98 127 241 127q87 0 144.5 -49t57.5 -133q0 -29 -8.5 -56.5t-19 -48t-34.5 -44.5t-38.5 -37.5t-48 -36t-47.5 -31
t-51 -30.5q-42 -25 -63.5 -39.5t-49.5 -36.5t-42.5 -44t-19.5 -46h346l-17 -86h-454z" />
    <glyph glyph-name="three" unicode="3" horiz-adv-x="569" 
d="M1 84l61 69q63 -71 164 -71q70 0 121.5 45t51.5 109q0 52 -39 78.5t-102 26.5h-55l-12 53l185 181l54 46v2q-22 -3 -61 -3h-232l16 86h422l-12 -63l-235 -226q64 -6 117.5 -49t53.5 -128q0 -101 -78.5 -176.5t-194.5 -75.5q-66 0 -125.5 24.5t-99.5 71.5z" />
    <glyph glyph-name="four" unicode="4" horiz-adv-x="609" 
d="M14 189l12 62l405 455h122l-84 -434h96l-17 -83h-95l-37 -189h-98l37 189h-341zM146 272h226l50 258l17 71h-2q-23 -33 -46 -59l-245 -268v-2z" />
    <glyph glyph-name="five" unicode="5" horiz-adv-x="568" 
d="M11 86l64 67q55 -71 147 -71q74 0 129.5 49.5t55.5 117.5q0 55 -38 88t-99 33q-32 0 -63.5 -9t-46.5 -17l-16 -9l-57 22l104 349h359l-16 -86h-271l-45 -147l-12 -36h2q38 19 93 19q91 0 149.5 -56.5t58.5 -146.5q0 -109 -85 -187t-204 -78q-63 0 -119 25.5t-90 72.5z
" />
    <glyph glyph-name="six" unicode="6" horiz-adv-x="599" 
d="M55 246q0 70 26.5 150t73.5 153t123.5 121t165.5 48q82 0 145 -30l-45 -81q-46 20 -99 20q-90 0 -158 -69.5t-100 -167.5h2q26 31 69.5 48.5t87.5 17.5q91 0 142 -53t51 -140q0 -67 -31 -129.5t-91.5 -104t-136.5 -41.5q-102 0 -163.5 70t-61.5 188zM155 237
q0 -64 34.5 -111t90.5 -47q68 0 114.5 53.5t46.5 127.5q0 52 -31.5 82.5t-89.5 30.5q-60 0 -112.5 -39.5t-52.5 -96.5z" />
    <glyph glyph-name="seven" unicode="7" horiz-adv-x="538" 
d="M26 0l383 555q12 19 25.5 35t21.5 23l7 7v2q-16 -2 -52 -2h-308l17 86h472l-13 -68l-443 -638h-110z" />
    <glyph glyph-name="eight" unicode="8" horiz-adv-x="606" 
d="M36 180q0 42 19.5 81.5t51 69t48 42t34.5 23.5q-61 47 -61 117q0 80 67.5 142.5t177.5 62.5q95 0 149 -44t54 -122q0 -36 -15.5 -73t-40.5 -67.5t-39 -45t-27 -26.5q75 -52 75 -126q0 -92 -78.5 -159t-191.5 -67q-101 0 -162 52t-61 140zM380 381q96 82 96 164
q0 39 -28.5 61.5t-78.5 22.5q-62 0 -102 -34t-40 -81q0 -16 7.5 -31t15.5 -24.5t27.5 -22.5t30 -18.5t37 -18.5t35.5 -18zM139 185q0 -49 35 -78.5t87 -29.5q65 0 115 38t50 98q0 19 -9 35.5t-29 31t-36 23.5t-47 24.5t-46 23.5q-120 -77 -120 -166z" />
    <glyph glyph-name="nine" unicode="9" horiz-adv-x="599" 
d="M32 18l45 81q46 -20 99 -20q90 0 158 69.5t100 167.5h-2q-22 -27 -66 -46.5t-91 -19.5q-91 0 -142 53t-51 140q0 105 73.5 190t186.5 85q103 0 164 -69.5t61 -188.5q0 -55 -16 -118t-49.5 -125.5t-78.5 -113.5t-109.5 -83t-136.5 -32q-86 0 -145 30zM300 333
q59 0 112.5 40t53.5 97q0 64 -34 110.5t-91 46.5q-68 0 -114.5 -53t-46.5 -128q0 -51 31.5 -82t88.5 -31z" />
    <glyph glyph-name="colon" unicode=":" horiz-adv-x="244" 
d="M90 401l21 105h104l-20 -105h-105zM12 0l21 105h103l-20 -105h-104z" />
    <glyph glyph-name="semicolon" unicode=";" horiz-adv-x="297" 
d="M130 401l20 105h102l-20 -105h-102zM-28 -101l101 206h103l-125 -206h-79z" />
    <glyph glyph-name="less" unicode="&#x3c;" horiz-adv-x="577" 
d="M31 252v66l466 208v-89l-357 -151v-2l357 -151v-89z" />
    <glyph glyph-name="equal" unicode="=" horiz-adv-x="577" 
d="M45 340v78h477v-78h-477zM45 151v78h477v-78h-477z" />
    <glyph glyph-name="greater" unicode="&#x3e;" horiz-adv-x="577" 
d="M72 44v89l357 151v2l-357 151v89l466 -208v-66z" />
    <glyph glyph-name="question" unicode="?" horiz-adv-x="469" 
d="M133 194l9 47q9 44 35.5 81t58 61.5t62 48.5t51 53t20.5 63q0 36 -26.5 58.5t-70.5 22.5q-60 0 -121 -42l-43 75q33 24 82 41t95 17q82 0 134.5 -44t52.5 -116q0 -49 -22 -89.5t-54.5 -68t-66 -52t-61 -54t-33.5 -61.5l-8 -41h-94zM93 0l20 99h100l-19 -99h-101z" />
    <glyph glyph-name="at" unicode="@" horiz-adv-x="797" 
d="M41 175q0 86 36 166.5t95.5 139.5t139 94.5t162.5 35.5q123 0 178 -46.5t55 -124.5q0 -25 -4 -46l-52 -269h72l-15 -73h-261q-86 0 -135.5 46.5t-49.5 117.5q0 83 68.5 147.5t166.5 64.5h119q2 8 2 16q0 39 -37.5 63t-105.5 24q-134 0 -235 -107.5t-101 -243.5
q0 -100 63 -164t171 -64l-15 -77q-138 0 -227.5 85t-89.5 215zM360 218q0 -41 26.5 -67t70.5 -26h101l45 236h-99q-58 0 -101 -43t-43 -100z" />
    <glyph glyph-name="A" unicode="A" horiz-adv-x="643" 
d="M-39 0l387 706h110l116 -706h-99l-32 203h-266l-109 -203h-107zM219 285h214l-35 223l-9 101h-2q-27 -64 -46 -101z" />
    <glyph glyph-name="B" unicode="B" horiz-adv-x="625" 
d="M36 0l138 706h227q56 0 95 -13q96 -37 96 -141q0 -60 -32.5 -108t-86.5 -71v-2q40 -15 63 -52t23 -87q0 -76 -41 -132t-108 -82q-44 -18 -103 -18h-271zM214 409h148q54 0 91.5 38t37.5 94q0 36 -23 57.5t-66 21.5h-147zM151 86h159q39 0 66 14q37 18 59.5 53.5
t22.5 80.5q0 43 -27 68t-74 25h-159z" />
    <glyph glyph-name="C" unicode="C" horiz-adv-x="718" 
d="M57 294q0 113 58 211.5t154.5 155.5t205.5 57q73 0 142 -23t113 -71l-59 -69q-75 73 -194 73q-132 0 -225 -99t-93 -230q0 -96 57.5 -158t157.5 -62q125 0 235 91l43 -78q-50 -45 -129 -74.5t-154 -29.5q-143 0 -227.5 85t-84.5 221z" />
    <glyph glyph-name="D" unicode="D" horiz-adv-x="738" 
d="M37 0l137 706h217q146 0 229.5 -72.5t83.5 -202.5q0 -181 -118 -306t-300 -125h-249zM151 86h129q140 0 231 97t91 240q0 95 -58 146t-160 51h-128z" />
    <glyph glyph-name="E" unicode="E" horiz-adv-x="562" 
d="M36 0l138 706h410l-18 -86h-311l-43 -221h253l-17 -86h-252l-45 -227h328l-16 -86h-427z" />
    <glyph glyph-name="F" unicode="F" horiz-adv-x="517" 
d="M37 0l137 706h388l-16 -86h-291l-45 -233h247l-17 -86h-246l-60 -301h-97z" />
    <glyph glyph-name="G" unicode="G" horiz-adv-x="762" 
d="M55 288q0 175 126 302.5t298 127.5q161 0 254 -83l-60 -70q-32 28 -85 45.5t-107 17.5q-136 0 -229.5 -100.5t-93.5 -234.5q0 -98 58.5 -156t152.5 -58q115 0 219 93l19 97h-114l16 86h205l-69 -355h-86l8 45l7 30h-2q-24 -25 -85 -56t-135 -31q-127 0 -212 83t-85 217z
" />
    <glyph glyph-name="H" unicode="H" horiz-adv-x="751" 
d="M36 0l138 706h98l-60 -310h367l60 310h98l-137 -706h-99l60 310h-366l-61 -310h-98z" />
    <glyph glyph-name="I" unicode="I" horiz-adv-x="286" 
d="M36 0l138 706h98l-138 -706h-98z" />
    <glyph glyph-name="J" unicode="J" horiz-adv-x="530" 
d="M3 155q0 26 5 52l6 31h98l-5 -29q-4 -28 -4 -40q0 -90 89 -90q47 0 84.5 30.5t49.5 95.5l80 415h-176l17 86h275l-99 -511q-14 -71 -51.5 -119t-83 -68t-98.5 -20q-80 0 -133.5 42.5t-53.5 124.5z" />
    <glyph glyph-name="K" unicode="K" horiz-adv-x="615" 
d="M36 0l138 706h98l-58 -297h101l240 297h116l-278 -339v-2l147 -365h-105l-126 323h-111l-64 -323h-98z" />
    <glyph glyph-name="L" unicode="L" horiz-adv-x="519" 
d="M36 0l138 706h98l-121 -620h317l-18 -86h-414z" />
    <glyph glyph-name="M" unicode="M" horiz-adv-x="853" 
d="M10 0l192 706h104l88 -382l15 -95h2q30 55 54 95l237 382h106l-81 -706h-97l53 445l19 104h-2q-35 -66 -58 -104l-203 -318h-89l-79 318l-18 106h-2q-10 -63 -21 -106l-122 -445h-98z" />
    <glyph glyph-name="N" unicode="N" horiz-adv-x="746" 
d="M36 0l138 706h92l225 -458q8 -17 17.5 -43t15.5 -43l5 -17h2q5 63 13 103l89 458h99l-138 -706h-91l-226 458l-38 103h-2q-6 -63 -13 -103l-90 -458h-98z" />
    <glyph glyph-name="O" unicode="O" horiz-adv-x="823" 
d="M56 296q0 111 60 209t157.5 155.5t203.5 57.5q140 0 227 -84t87 -216q0 -113 -60.5 -213.5t-158 -158.5t-202.5 -58q-141 0 -227.5 86.5t-86.5 221.5zM157 300q0 -98 59.5 -159.5t153.5 -61.5q122 0 220.5 99.5t98.5 234.5q0 95 -59.5 155t-153.5 60q-123 0 -221 -97.5
t-98 -230.5z" />
    <glyph glyph-name="P" unicode="P" horiz-adv-x="608" 
d="M36 0l138 706h241q68 0 111 -23q42 -22 65.5 -63t23.5 -94q0 -83 -43 -148.5t-111 -95.5q-51 -21 -105 -21h-171l-51 -261h-98zM202 347h143q44 0 76 16q42 20 67 61t25 95q0 48 -29.5 74.5t-84.5 26.5h-144z" />
    <glyph glyph-name="Q" unicode="Q" horiz-adv-x="823" 
d="M56 296q0 111 60 209t157.5 155.5t203.5 57.5q140 0 227 -84t87 -216q0 -172 -131 -300l65 -78l-63 -58l-66 83q-102 -77 -226 -77q-141 0 -227.5 86.5t-86.5 221.5zM157 300q0 -98 59.5 -159.5t153.5 -61.5q87 0 167 56l-67 84l63 57l67 -85q89 97 89 222
q0 95 -59.5 155t-153.5 60q-123 0 -221 -97.5t-98 -230.5z" />
    <glyph glyph-name="R" unicode="R" horiz-adv-x="625" 
d="M36 0l138 706h240q61 0 101 -18q42 -20 65.5 -58.5t23.5 -89.5q0 -80 -46 -145.5t-123 -87.5v-2q5 -9 13 -32l97 -273h-105l-96 281h-155l-54 -281h-99zM206 367h139q67 0 112.5 44t45.5 115q0 45 -28 69.5t-78 24.5h-142z" />
    <glyph glyph-name="S" unicode="S" horiz-adv-x="549" 
d="M4 81l62 70q75 -71 170 -71q59 0 103 31t44 86q0 37 -29 65t-70.5 48.5t-83.5 44t-71 63.5t-29 95q0 93 74.5 149t174.5 56q70 0 122.5 -23.5t80.5 -50.5l-56 -73q-61 56 -148 56q-57 0 -103 -30.5t-46 -82.5q0 -35 29.5 -61.5t71 -46.5t83 -44t71 -65.5t29.5 -97.5
q0 -91 -70.5 -151t-177.5 -60q-78 0 -140.5 31t-90.5 62z" />
    <glyph glyph-name="T" unicode="T" horiz-adv-x="610" 
d="M197 0l121 620h-242l16 86h583l-16 -86h-243l-120 -620h-99z" />
    <glyph glyph-name="U" unicode="U" horiz-adv-x="726" 
d="M72 197q0 27 6 57l89 452h98l-89 -455q-4 -19 -4 -42q0 -62 39.5 -96t110.5 -34q82 0 139 46t73 128l89 453h98l-91 -461q-23 -119 -106.5 -188t-204.5 -69q-110 0 -178.5 55.5t-68.5 153.5z" />
    <glyph glyph-name="V" unicode="V" horiz-adv-x="648" 
d="M210 0l-120 706h103l78 -499l8 -97h2q27 59 46 97l273 499h112l-396 -706h-106z" />
    <glyph glyph-name="W" unicode="W" horiz-adv-x="944" 
d="M152 0l-48 706h102l25 -518v-75h2q14 36 31 75l244 518h90l32 -518v-75h2q13 38 28 75l226 518h107l-318 -706h-116l-30 458q-1 27 -1.5 60t0.5 39h-2q-21 -53 -42 -99l-218 -458h-114z" />
    <glyph glyph-name="X" unicode="X" horiz-adv-x="594" 
d="M-41 0l293 368l-143 338h107l75 -188l30 -84h2q25 40 58 83l149 189h117l-279 -346l154 -360h-105l-89 214l-28 81h-2q-23 -36 -57 -79l-170 -216h-112z" />
    <glyph glyph-name="Y" unicode="Y" horiz-adv-x="592" 
d="M183 0l59 299l-155 407h106l84 -232l27 -89h2q31 47 60 89l173 232h119l-318 -410l-58 -296h-99z" />
    <glyph glyph-name="Z" unicode="Z" horiz-adv-x="591" 
d="M-23 0l14 66l426 490q16 18 32 34t24 23l8 7v2q-18 -2 -52 -2h-314l17 86h495l-12 -65l-429 -491q-16 -18 -32 -34t-24 -23l-8 -7v-2q18 2 52 2h336l-17 -86h-516z" />
    <glyph glyph-name="bracketleft" unicode="[" horiz-adv-x="302" 
d="M11 -95l161 830h166l-15 -73h-80l-132 -683h80l-14 -74h-166z" />
    <glyph glyph-name="backslash" unicode="\" horiz-adv-x="410" 
d="M225 -42l-102 786h82l102 -786h-82z" />
    <glyph glyph-name="bracketright" unicode="]" horiz-adv-x="302" 
d="M-12 -21h80l133 683h-81l15 73h166l-162 -830h-165z" />
    <glyph glyph-name="asciicircum" unicode="^" horiz-adv-x="612" 
d="M73 247l199 459h64l200 -459h-88l-144 352l-144 -352h-87z" />
    <glyph glyph-name="underscore" unicode="_" horiz-adv-x="593" 
d="M-25 0h539l-15 -78h-538z" />
    <glyph glyph-name="grave" unicode="`" horiz-adv-x="499" 
d="M191 755l-70 127h99l48 -127h-77z" />
    <glyph glyph-name="a" unicode="a" horiz-adv-x="524" 
d="M1 118q0 46 22 81.5t56 57t80 35t89 18.5t88 5h26q4 22 4 43q0 78 -92 78q-76 0 -151 -48l-26 77q31 21 84.5 37t106.5 16q78 0 127 -36t49 -112q0 -21 -5 -54l-61 -316h-91l10 51l10 40h-2q-21 -37 -68 -70t-107 -33q-63 0 -106 35t-43 95zM97 132q0 -29 20.5 -48
t61.5 -19q57 0 105 50.5t62 111.5l3 18h-25q-227 0 -227 -113z" />
    <glyph glyph-name="b" unicode="b" horiz-adv-x="601" 
d="M18 0l137 706h96l-44 -229l-13 -46h2q27 39 73 63t96 24q90 0 139.5 -56t49.5 -152q0 -139 -83 -230.5t-193 -91.5q-53 0 -94.5 24t-59.5 68h-2q-1 -19 -5 -40l-7 -40h-92zM155 200q0 -57 28.5 -92.5t85.5 -35.5q71 0 128.5 64t57.5 167q0 61 -30.5 95.5t-83.5 34.5
q-77 0 -131.5 -70.5t-54.5 -162.5z" />
    <glyph glyph-name="c" unicode="c" horiz-adv-x="546" 
d="M30 208q0 129 93 219.5t219 90.5q124 0 191 -73l-54 -63q-23 24 -59.5 38t-72.5 14q-87 0 -152.5 -64.5t-65.5 -154.5q0 -64 40.5 -103.5t107.5 -39.5q87 0 169 68l28 -77q-38 -33 -94 -54t-112 -21q-109 0 -173.5 61t-64.5 159z" />
    <glyph glyph-name="d" unicode="d" horiz-adv-x="603" 
d="M31 195q0 140 83.5 231.5t195.5 91.5q50 0 91 -21.5t57 -63.5h2q0 19 4 37l47 236h96l-137 -706h-92l9 48l10 37h-2q-26 -42 -72.5 -69.5t-101.5 -27.5q-90 0 -140 55.5t-50 151.5zM130 202q0 -61 30.5 -95.5t84.5 -34.5q77 0 131 71.5t54 161.5q0 56 -29 92t-85 36
q-71 0 -128.5 -64t-57.5 -167z" />
    <glyph glyph-name="e" unicode="e" horiz-adv-x="556" 
d="M31 203q0 129 84 222t209 93q95 0 144.5 -51t49.5 -136q0 -33 -16 -91h-369q-4 -24 -4 -35q0 -55 38.5 -94t106.5 -39q81 0 161 59l27 -76q-32 -26 -86 -46.5t-107 -20.5q-109 0 -173.5 60t-64.5 155zM148 310h270q3 13 3 29q0 50 -27 77t-71 27q-57 0 -104.5 -35
t-70.5 -98z" />
    <glyph glyph-name="f" unicode="f" horiz-adv-x="342" 
d="M42 0l82 422h-63l15 79h63l5 24q9 47 29.5 82.5t44 54.5t52.5 31t50.5 15t42.5 3q25 0 44 -3l-18 -84q-6 2 -23 2q-106 0 -126 -104l-4 -21h119l-15 -79h-119l-82 -422h-97z" />
    <glyph glyph-name="g" unicode="g" horiz-adv-x="593" 
d="M44 -93q53 -33 135 -33q70 0 121.5 34.5t66.5 106.5l7 38l10 35h-2q-60 -82 -156 -82q-90 0 -141.5 56.5t-51.5 148.5q0 73 30 142t92.5 117t144.5 48q122 0 154 -79h3q-1 10 1 20l9 47h92l-95 -492q-23 -116 -101 -170t-179 -54q-108 0 -182 45zM132 218
q0 -59 30.5 -93.5t86.5 -34.5t97 38.5t59.5 90.5t18.5 106q0 109 -116 109q-80 0 -128 -65t-48 -151z" />
    <glyph glyph-name="h" unicode="h" horiz-adv-x="602" 
d="M18 0l137 706h97l-50 -259l-12 -45h2q24 44 80.5 80t123.5 36q70 0 109.5 -33.5t39.5 -100.5q0 -24 -7 -64l-62 -320h-97l58 299q7 37 7 57q0 73 -76 73q-73 0 -133 -58.5t-76 -139.5l-44 -231h-97z" />
    <glyph glyph-name="i" unicode="i" horiz-adv-x="246" 
d="M134 608l20 98h100l-20 -98h-100zM18 0l98 506h97l-99 -506h-96z" />
    <glyph glyph-name="j" unicode="j" horiz-adv-x="247" 
d="M133 608l20 98h99l-19 -98h-100zM16 -11l100 517h96l-101 -522q-9 -48 -29.5 -84.5t-43.5 -56t-51.5 -31.5t-49.5 -15t-43 -3q-31 0 -46 2l16 83q8 -2 22 -2q17 0 33.5 4t37 14.5t36.5 34.5t23 59z" />
    <glyph glyph-name="k" unicode="k" horiz-adv-x="523" 
d="M18 0l138 706h96l-75 -386h69l175 186h117l-216 -227v-2l131 -277h-105l-107 237h-79l-47 -237h-97z" />
    <glyph glyph-name="l" unicode="l" horiz-adv-x="271" 
d="M41 102q0 21 4 44l109 560h97l-106 -548q-4 -26 -4 -34q0 -41 45 -41q8 0 16 1l-17 -86q-18 -3 -30 -3q-48 0 -81 24t-33 83z" />
    <glyph glyph-name="m" unicode="m" horiz-adv-x="914" 
d="M18 0l98 506h94l-12 -64l-12 -43h2q27 48 80.5 83.5t112.5 35.5q122 0 134 -115h2q29 49 83.5 82t113.5 33q69 0 105.5 -33.5t36.5 -100.5q0 -28 -8 -68l-61 -316h-97l58 301q7 31 7 55q0 74 -72 74q-67 0 -119.5 -60.5t-67.5 -138.5l-45 -231h-97l59 301q6 33 6 57
q0 72 -70 72q-67 0 -120.5 -60t-68.5 -139l-45 -231h-97z" />
    <glyph glyph-name="n" unicode="n" horiz-adv-x="602" 
d="M18 0l98 506h94l-10 -59l-14 -48h2q24 43 82 81t126 38q70 0 109.5 -33.5t39.5 -100.5q0 -24 -7 -64l-62 -320h-97l58 299q7 37 7 57q0 73 -76 73q-74 0 -133.5 -58.5t-75.5 -139.5l-44 -231h-97z" />
    <glyph glyph-name="o" unicode="o" horiz-adv-x="628" 
d="M30 211q0 127 95 217t217 90q107 0 173.5 -61.5t66.5 -159.5q0 -129 -95.5 -219t-216.5 -90q-107 0 -173.5 61.5t-66.5 161.5zM129 215q0 -64 39.5 -103.5t102.5 -39.5q81 0 146.5 64t65.5 156q0 63 -40 102.5t-102 39.5q-82 0 -147 -64t-65 -155z" />
    <glyph glyph-name="p" unicode="p" horiz-adv-x="601" 
d="M120 29l-45 -229h-96l137 706h89l-7 -43l-11 -40h2q28 42 74 68.5t102 26.5q89 0 139.5 -56t50.5 -152q0 -139 -83 -230.5t-192 -91.5q-52 0 -92.5 22.5t-59.5 65.5h-2q-1 -21 -6 -47zM156 202q0 -57 29 -93.5t84 -36.5q71 0 129 64t58 167q0 61 -30.5 95.5t-84.5 34.5
q-76 0 -130.5 -70.5t-54.5 -160.5z" />
    <glyph glyph-name="q" unicode="q" horiz-adv-x="602" 
d="M30 194q0 140 83.5 232t196.5 92q114 0 151 -88h2q1 15 5 35l7 41h93l-137 -706h-97l45 231l12 47h-2q-24 -37 -68 -63.5t-101 -26.5q-90 0 -140 55.5t-50 150.5zM129 202q0 -61 31 -95.5t84 -34.5q77 0 131.5 71.5t54.5 161.5q0 56 -29 92t-85 36q-71 0 -129 -64
t-58 -167z" />
    <glyph glyph-name="r" unicode="r" horiz-adv-x="377" 
d="M18 0l98 506h94l-18 -88l-11 -40h2q27 56 76.5 95t106.5 39q8 0 30 -2l-19 -96q-18 2 -27 2q-67 0 -124 -69.5t-76 -161.5l-35 -185h-97z" />
    <glyph glyph-name="s" unicode="s" horiz-adv-x="446" 
d="M-7 60l49 66q23 -25 61.5 -40.5t77.5 -15.5q43 0 73 18.5t30 52.5q0 25 -22.5 43t-55 31.5t-65 29.5t-55 46.5t-22.5 74.5q0 70 57.5 111t139.5 41q99 0 163 -56l-45 -68q-45 42 -120 42q-42 0 -72 -17.5t-30 -51.5q0 -25 22.5 -43t55 -31t65 -29.5t55 -47t22.5 -74.5
q0 -69 -54.5 -111.5t-139.5 -42.5q-118 0 -190 72z" />
    <glyph glyph-name="t" unicode="t" horiz-adv-x="343" 
d="M67 144q0 22 6 51l44 227h-65l14 79h68l29 144h94l-29 -144h122l-15 -79h-122l-42 -221q-4 -20 -4 -40q0 -79 83 -79q9 0 29 2l-17 -86q-24 -3 -32 -3q-32 0 -59 6.5t-51.5 22.5t-38.5 46.5t-14 73.5z" />
    <glyph glyph-name="u" unicode="u" horiz-adv-x="597" 
d="M41 122q0 24 7 64l62 320h97l-58 -298q-6 -33 -6 -58q0 -72 77 -72q72 0 129.5 60t71.5 138l45 230h97l-98 -506h-95l12 59l13 48h-2q-26 -44 -81 -81.5t-125 -37.5q-65 0 -105.5 32.5t-40.5 101.5z" />
    <glyph glyph-name="v" unicode="v" horiz-adv-x="524" 
d="M149 0l-91 506h97l55 -344l5 -69h2q17 41 32 69l189 344h104l-286 -506h-107z" />
    <glyph glyph-name="w" unicode="w" horiz-adv-x="824" 
d="M127 0l-64 506h97l36 -356l2 -54h2q12 28 24 54l179 355h89l39 -355l3 -54h2q10 27 23 54l176 356h104l-262 -506h-106l-42 327l-4 55h-2q-11 -29 -24 -55l-167 -327h-105z" />
    <glyph glyph-name="x" unicode="x" horiz-adv-x="498" 
d="M-40 0l226 263l-121 243h104l69 -150l13 -32h1q11 17 21 30l124 152h114l-213 -250l127 -256h-102l-79 164l-11 30h-2q-9 -16 -19 -28l-139 -166h-113z" />
    <glyph glyph-name="y" unicode="y" horiz-adv-x="539" 
d="M-30 -108q22 -19 56 -19q59 0 106 74l37 60l-116 499h101l69 -343l7 -58h1q15 32 29 57l190 344h109l-355 -599q-70 -117 -175 -117q-57 0 -104 33z" />
    <glyph glyph-name="z" unicode="z" horiz-adv-x="508" 
d="M-21 0l10 56l313 320l50 47v2q-15 -2 -47 -2h-234l16 83h417l-11 -56l-314 -320l-51 -47v-2q17 3 50 3h252l-16 -84h-435z" />
    <glyph glyph-name="braceleft" unicode="{" horiz-adv-x="354" 
d="M79 32q0 21 5 51l18 90q3 16 3 29q0 69 -67 80l17 86q40 5 68.5 35t37.5 76l18 90q33 168 195 168q3 0 10.5 -0.5t11.5 -0.5l-14 -74h-13q-87 0 -107 -105l-22 -110q-8 -43 -36.5 -75.5t-69.5 -45.5v-2q27 -13 43.5 -40.5t16.5 -61.5q0 -15 -3 -30l-22 -109
q-3 -13 -3 -35q0 -70 70 -70h14l-15 -74q-10 -2 -24 -2q-13 0 -27 2.5t-34 10.5t-35 21.5t-25.5 38t-10.5 57.5z" />
    <glyph glyph-name="bar" unicode="|" horiz-adv-x="320" 
d="M120 -159v951h85v-951h-85z" />
    <glyph glyph-name="braceright" unicode="}" horiz-adv-x="354" 
d="M-2 -22q11 0 22 3t29 12t32 32t21 58l23 119q9 46 37 79t69 45v2q-58 29 -58 100q0 14 3 30l18 99q5 22 5 35q0 70 -72 70h-13l15 74q5 1 23 1q17 0 36 -4.5t42.5 -16.5t39 -40t15.5 -69q0 -23 -6 -50l-15 -80q-3 -17 -3 -29q0 -32 18 -54t49 -26l-17 -86
q-37 -7 -67 -34.5t-39 -76.5l-20 -100q-34 -169 -196 -169q-3 0 -10 0.5t-12 0.5l14 75h17z" />
    <glyph glyph-name="asciitilde" unicode="~" horiz-adv-x="594" 
d="M58 204q0 85 36.5 127t102.5 42q35 0 63.5 -15.5t43.5 -33.5t37.5 -33.5t47.5 -15.5q35 0 51 28t16 66h78q0 -169 -139 -169q-35 0 -63.5 15t-43.5 33.5t-37.5 33.5t-47.5 15q-35 0 -50.5 -28t-15.5 -65h-79z" />
    <glyph glyph-name="uni00A0" unicode="&#xa0;" horiz-adv-x="250" 
 />
    <glyph glyph-name="exclamdown" unicode="&#xa1;" horiz-adv-x="253" 
d="M97 408l20 98h100l-19 -98h-101zM-20 -200l107 512h86l-93 -512h-100z" />
    <glyph glyph-name="cent" unicode="&#xa2;" horiz-adv-x="577" 
d="M202 -12l18 87q-76 15 -120 72.5t-44 146.5q0 128 79 229t194 111l16 84h70l-17 -88q38 -6 69.5 -25.5t48.5 -44.5t26.5 -45.5t11.5 -35.5l-88 -33q-1 9 -6.5 23t-17.5 32t-36.5 30.5t-56.5 12.5q-82 0 -137.5 -73.5t-55.5 -176.5q0 -61 30 -96t89 -35q31 0 59.5 12
t48.5 31t30 31t17 23l87 -36q-11 -18 -28 -38.5t-45.5 -47.5t-69 -46t-84.5 -22l-16 -82h-72z" />
    <glyph glyph-name="sterling" unicode="&#xa3;" horiz-adv-x="577" 
d="M-7 0l17 86h60l45 233h-44l14 70h43l28 143q16 80 83 133t157 53q101 0 166 -68l-65 -62q-43 40 -103 40q-54 0 -92 -30.5t-47 -76.5l-26 -132h184l-14 -70h-184l-45 -233h325l-17 -86h-485z" />
    <glyph glyph-name="currency" unicode="&#xa4;" horiz-adv-x="611" 
d="M66 0l34 170h-71l14 70h70l14 70h-70l15 80h70l62 316h225q92 0 142.5 -44.5t50.5 -122.5q0 -98 -75 -164t-184 -66h-138l-14 -69h250l-13 -70h-250l-33 -170h-99zM241 390h117q68 0 115.5 40t47.5 102q0 94 -115 94h-119z" />
    <glyph glyph-name="yen" unicode="&#xa5;" horiz-adv-x="577" 
d="M179 0l40 199h-163l11 64h163l8 36l-17 48h-137l13 63h102l-107 296h107l76 -220l27 -101h2q29 53 60 100l160 221h118l-222 -296h101l-12 -63h-135l-36 -48l-8 -36h162l-11 -64h-162l-40 -199h-100z" />
    <glyph glyph-name="section" unicode="&#xa7;" horiz-adv-x="447" 
d="M108 111l6 390q-2 89 54.5 153t152.5 64q84 0 144 -54l-53 -58q-34 31 -91 31q-61 0 -95.5 -39.5t-32.5 -101.5l-8 -385h-77zM-5 -8l53 59q33 -31 90 -31q61 0 95.5 39t33.5 101l7 385h77l-6 -389q2 -91 -54.5 -154.5t-153.5 -63.5q-87 0 -142 54z" />
    <glyph glyph-name="dieresis" unicode="&#xa8;" horiz-adv-x="499" 
d="M232 781l19 101h80l-20 -101h-79zM64 781l20 101h80l-20 -101h-80z" />
    <glyph glyph-name="copyright" unicode="&#xa9;" horiz-adv-x="832" 
d="M71 353q0 152 104 258.5t251 106.5q149 0 254 -106.5t105 -258.5t-105 -258.5t-254 -106.5q-147 0 -251 106.5t-104 258.5zM144 353q0 -125 81.5 -211.5t200.5 -86.5q121 0 203.5 86t82.5 212t-82.5 212t-203.5 86q-119 0 -200.5 -86.5t-81.5 -211.5zM237 352
q0 82 54.5 141t142.5 59q51 0 95 -26.5t67 -72.5l-61 -33q-14 27 -41.5 45t-57.5 18q-57 0 -90.5 -38t-33.5 -93q0 -56 33 -93.5t91 -37.5q62 0 99 63l61 -33q-23 -42 -65.5 -70.5t-96.5 -28.5q-89 0 -143 58.5t-54 141.5z" />
    <glyph glyph-name="ordfeminine" unicode="&#xaa;" horiz-adv-x="426" 
d="M202 383q-37 0 -65.5 22t-28.5 62q0 28 11.5 50t31.5 34.5t40.5 20.5t47 11.5t42 4.5t33.5 1h16q3 8 3 10q8 59 -53 59q-39 0 -89 -27l-20 51q49 34 125 34q110 0 110 -97q0 -15 -5 -37l-38 -193h-67l9 46h-2q-40 -52 -101 -52zM227 441q31 0 58.5 30t33.5 59l1 8h-12
q-125 0 -125 -63q0 -34 44 -34zM69 265l10 57h275l-11 -57h-274z" />
    <glyph glyph-name="guillemotleft" unicode="&#xab;" horiz-adv-x="562" 
d="M369 77l-129 207l208 204h103l-217 -210l127 -201h-92zM170 77l-129 207l192 204h102l-200 -210l127 -201h-92z" />
    <glyph glyph-name="logicalnot" unicode="&#xac;" horiz-adv-x="662" 
d="M91 340v78h477v-268h-81v190h-396z" />
    <glyph glyph-name="uni00AD" unicode="&#xad;" horiz-adv-x="433" 
d="M60 242l16 86h291l-16 -86h-291z" />
    <glyph glyph-name="registered" unicode="&#xae;" horiz-adv-x="832" 
d="M71 353q0 152 104 258.5t251 106.5q149 0 254 -106.5t105 -258.5t-105 -258.5t-254 -106.5q-147 0 -251 106.5t-104 258.5zM144 353q0 -125 81.5 -211.5t200.5 -86.5q121 0 203.5 86t82.5 212t-82.5 212t-203.5 86q-119 0 -200.5 -86.5t-81.5 -211.5zM304 166v378h146
q53 0 85.5 -32t32.5 -84q0 -40 -21 -66.5t-48 -33.5v-2q4 -4 13 -21l72 -139h-78l-70 146h-61v-146h-71zM375 364h60q28 0 44.5 17t16.5 47q0 29 -16.5 45t-43.5 16h-61v-125z" />
    <glyph glyph-name="macron" unicode="&#xaf;" horiz-adv-x="499" 
d="M64 784l13 71h254l-13 -71h-254z" />
    <glyph glyph-name="degree" unicode="&#xb0;" horiz-adv-x="409" 
d="M240 422q-60 0 -98.5 36.5t-38.5 93.5q0 65 52.5 115.5t118.5 50.5q60 0 98 -37t38 -93q0 -65 -53 -115.5t-117 -50.5zM244 495q34 0 61.5 26.5t27.5 61.5q0 27 -18 44.5t-46 17.5q-35 0 -61.5 -27t-26.5 -62q0 -27 17 -44t46 -17z" />
    <glyph glyph-name="plusminus" unicode="&#xb1;" horiz-adv-x="577" 
d="M218 0v246h-224v78h224v246h82v-246h223v-78h-223v-246h-82zM11 -95h496v-77h-496v77z" />
    <glyph glyph-name="twosuperior" unicode="&#xb2;" 
d="M73 423q1 49 21.5 88.5t50.5 63t65 46t64.5 39t49.5 39.5t20 50q0 23 -17 37.5t-44 14.5q-42 0 -94 -48l-43 49q66 68 142 68q59 0 96 -31t37 -84q0 -43 -23.5 -77t-58 -56.5t-70 -41.5t-65 -42t-37.5 -49h211l-14 -66h-291z" />
    <glyph glyph-name="threesuperior" unicode="&#xb3;" 
d="M218 413q-89 0 -149 66l48 49q40 -46 102 -46q38 0 66 25.5t28 62.5q0 27 -22 43t-54 16h-34l-11 38l107 103l30 24v2q-20 -3 -36 -3h-139l13 67h271l-9 -48l-133 -126q37 -8 65.5 -37t28.5 -77q0 -62 -49.5 -110.5t-122.5 -48.5z" />
    <glyph glyph-name="acute" unicode="&#xb4;" horiz-adv-x="499" 
d="M91 755l98 127h110l-121 -127h-87z" />
    <glyph glyph-name="mu" unicode="&#xb5;" horiz-adv-x="602" 
d="M101 -60l-28 -140h-85l137 706h97l-58 -298q-7 -38 -7 -58q0 -72 77 -72q73 0 130 59.5t72 138.5l44 230h97l-98 -506h-94l11 59l13 48h-2q-25 -44 -80 -81.5t-124 -37.5q-61 0 -91 33h-2q-3 -51 -9 -81z" />
    <glyph glyph-name="mu" unicode="&#x3bc;" horiz-adv-x="602" 
d="M101 -60l-28 -140h-85l137 706h97l-58 -298q-7 -38 -7 -58q0 -72 77 -72q73 0 130 59.5t72 138.5l44 230h97l-98 -506h-94l11 59l13 48h-2q-25 -44 -80 -81.5t-124 -37.5q-61 0 -91 33h-2q-3 -51 -9 -81z" />
    <glyph glyph-name="paragraph" unicode="&#xb6;" horiz-adv-x="599" 
d="M210 -50l56 291q-79 0 -137.5 58.5t-58.5 144.5q0 105 84.5 183.5t189.5 78.5h283l-16 -86h-197l-130 -670h-74zM346 -50l119 613h75l-119 -613h-75z" />
    <glyph glyph-name="periodcentered" unicode="&#xb7;" horiz-adv-x="242" 
d="M59 237l20 105h102l-21 -105h-101z" />
    <glyph glyph-name="cedilla" unicode="&#xb8;" horiz-adv-x="499" 
d="M131 -88l50 111l49 -11l-26 -62q25 -4 42.5 -20.5t17.5 -44.5q0 -46 -35.5 -69t-79.5 -23q-32 0 -59 7l11 57q16 -6 41 -6q54 0 54 36q0 26 -47 26q-12 0 -18 -1z" />
    <glyph glyph-name="onesuperior" unicode="&#xb9;" 
d="M98 423l13 66h93l47 244l8 27h-2q-6 -10 -22 -23l-41 -32l-37 52l127 103h67l-72 -371h92l-13 -66h-260z" />
    <glyph glyph-name="ordmasculine" unicode="&#xba;" horiz-adv-x="483" 
d="M266 384q-65 0 -107 39t-42 100q0 80 60.5 137t136.5 57q66 0 108 -39t42 -101q0 -80 -60.5 -136.5t-137.5 -56.5zM271 449q46 0 83 36t37 88q0 35 -22.5 57.5t-57.5 22.5q-47 0 -83.5 -36.5t-36.5 -87.5q0 -37 22 -58.5t58 -21.5zM80 265l11 57h313l-12 -57h-312z" />
    <glyph glyph-name="guillemotright" unicode="&#xbb;" horiz-adv-x="562" 
d="M222 77l201 210l-128 201h92l128 -207l-191 -204h-102zM6 77l217 210l-127 201h92l129 -207l-208 -204h-103z" />
    <glyph glyph-name="onequarter" unicode="&#xbc;" horiz-adv-x="948" 
d="M715 0l21 107h-209l9 50l253 280h85l-52 -264h62l-12 -66h-62l-21 -107h-74zM626 173h123l23 123l16 58h-2q-19 -27 -39 -48l-121 -131v-2zM277 0h-80l473 706h80zM54 270l13 66h93l47 244l8 27h-2q-6 -10 -22 -23l-41 -32l-37 52l127 103h67l-72 -371h92l-13 -66h-260z
" />
    <glyph glyph-name="onehalf" unicode="&#xbd;" horiz-adv-x="941" 
d="M544 0q1 49 21.5 88.5t50.5 63t65 46t64.5 39t49.5 39.5t20 50q0 23 -17 37.5t-44 14.5q-42 0 -94 -48l-43 49q66 68 142 68q59 0 96 -31t37 -84q0 -43 -23.5 -77t-58 -56.5t-70 -41.5t-65 -42t-37.5 -49h211l-14 -66h-291zM277 0h-80l473 706h80zM53 270l13 66h93
l47 244l8 27h-2q-6 -10 -22 -23l-41 -32l-37 52l127 103h67l-72 -371h92l-13 -66h-260z" />
    <glyph glyph-name="threequarters" unicode="&#xbe;" horiz-adv-x="970" 
d="M737 0l21 107h-209l9 50l253 280h85l-52 -264h62l-12 -66h-62l-21 -107h-74zM648 173h123l23 123l16 58h-2q-19 -27 -39 -48l-121 -131v-2zM198 260q-89 0 -149 66l48 49q40 -46 102 -46q38 0 66 25.5t28 62.5q0 27 -22 43t-54 16h-34l-11 38l107 103l30 24v2
q-20 -3 -36 -3h-139l13 67h271l-9 -48l-133 -126q37 -8 65.5 -37t28.5 -77q0 -62 -49.5 -110.5t-122.5 -48.5zM298 0h-80l473 706h80z" />
    <glyph glyph-name="questiondown" unicode="&#xbf;" horiz-adv-x="464" 
d="M237 408l20 98h100l-19 -98h-101zM-21 -50q0 49 22 89.5t54.5 68t65.5 52t60 54t34 61.5l8 37h95l-9 -43q-9 -44 -35.5 -81t-58.5 -62t-62 -48.5t-50.5 -52.5t-20.5 -63q0 -36 26 -59t70 -23q58 0 122 43l43 -75q-32 -23 -81 -40.5t-97 -17.5q-82 0 -134 43.5t-52 116.5z
" />
    <glyph glyph-name="Agrave" unicode="&#xc0;" horiz-adv-x="643" 
d="M-39 0l387 706h110l116 -706h-99l-32 203h-266l-109 -203h-107zM219 285h214l-35 223l-9 101h-2q-27 -64 -46 -101zM371 755l-70 127h99l48 -127h-77z" />
    <glyph glyph-name="Aacute" unicode="&#xc1;" horiz-adv-x="643" 
d="M-39 0l387 706h110l116 -706h-99l-32 203h-266l-109 -203h-107zM219 285h214l-35 223l-9 101h-2q-27 -64 -46 -101zM367 755l98 127h110l-121 -127h-87z" />
    <glyph glyph-name="Acircumflex" unicode="&#xc2;" horiz-adv-x="643" 
d="M-39 0l387 706h110l116 -706h-99l-32 203h-266l-109 -203h-107zM219 285h214l-35 223l-9 101h-2q-27 -64 -46 -101zM271 755l113 127h101l62 -127h-81l-36 80h-2l-68 -80h-89z" />
    <glyph glyph-name="Atilde" unicode="&#xc3;" horiz-adv-x="643" 
d="M-39 0l387 706h110l116 -706h-99l-32 203h-266l-109 -203h-107zM219 285h214l-35 223l-9 101h-2q-27 -64 -46 -101zM253 756q23 127 118 127q27 0 46 -17t33 -34t30 -17q38 0 49 65h70q-23 -127 -118 -127q-26 0 -45 17t-34 34t-31 17q-35 0 -48 -65h-70z" />
    <glyph glyph-name="Adieresis" unicode="&#xc4;" horiz-adv-x="643" 
d="M-39 0l387 706h110l116 -706h-99l-32 203h-266l-109 -203h-107zM219 285h214l-35 223l-9 101h-2q-27 -64 -46 -101zM463 781l19 101h80l-20 -101h-79zM295 781l20 101h80l-20 -101h-80z" />
    <glyph glyph-name="Aring" unicode="&#xc5;" horiz-adv-x="643" 
d="M-39 0l387 706h110l116 -706h-99l-32 203h-266l-109 -203h-107zM219 285h214l-35 223l-9 101h-2q-27 -64 -46 -101zM416 743q-34 0 -55.5 17t-21.5 48q0 37 29 60.5t65 23.5q35 0 56.5 -17.5t21.5 -48.5q0 -36 -29.5 -59.5t-65.5 -23.5zM419 784q16 0 28 12t12 29
q0 12 -7.5 19.5t-20.5 7.5q-16 0 -28 -12.5t-12 -30.5q0 -25 28 -25z" />
    <glyph glyph-name="AE" unicode="&#xc6;" horiz-adv-x="884" 
d="M-45 0l427 706h525l-17 -86h-312l-43 -221h253l-17 -86h-253l-44 -227h328l-16 -86h-427l61 314h-169l-186 -314h-110zM299 396h137l44 224h-46z" />
    <glyph glyph-name="Ccedilla" unicode="&#xc7;" horiz-adv-x="718" 
d="M278 -88l36 80q-120 16 -188.5 98t-68.5 204q0 113 58 211.5t154.5 155.5t205.5 57q73 0 142 -23t113 -71l-59 -69q-75 73 -194 73q-132 0 -225 -99t-93 -230q0 -96 57.5 -158t157.5 -62q125 0 235 91l43 -78q-50 -45 -129 -74.5t-154 -29.5h-2l-16 -38q25 -4 42.5 -20.5
t17.5 -44.5q0 -46 -35.5 -69t-79.5 -23q-32 0 -59 7l11 57q16 -6 41 -6q54 0 54 36q0 26 -47 26q-12 0 -18 -1z" />
    <glyph glyph-name="Egrave" unicode="&#xc8;" horiz-adv-x="562" 
d="M36 0l138 706h410l-18 -86h-311l-43 -221h253l-17 -86h-252l-45 -227h328l-16 -86h-427zM356 755l-70 127h99l48 -127h-77z" />
    <glyph glyph-name="Eacute" unicode="&#xc9;" horiz-adv-x="562" 
d="M352 755l98 127h110l-121 -127h-87zM36 0l138 706h410l-18 -86h-311l-43 -221h253l-17 -86h-252l-45 -227h328l-16 -86h-427z" />
    <glyph glyph-name="Ecircumflex" unicode="&#xca;" horiz-adv-x="562" 
d="M256 755l113 127h101l62 -127h-81l-36 80h-2l-68 -80h-89zM36 0l138 706h410l-18 -86h-311l-43 -221h253l-17 -86h-252l-45 -227h328l-16 -86h-427z" />
    <glyph glyph-name="Edieresis" unicode="&#xcb;" horiz-adv-x="562" 
d="M448 781l19 101h80l-20 -101h-79zM280 781l20 101h80l-20 -101h-80zM36 0l138 706h410l-18 -86h-311l-43 -221h253l-17 -86h-252l-45 -227h328l-16 -86h-427z" />
    <glyph glyph-name="Igrave" unicode="&#xcc;" horiz-adv-x="286" 
d="M36 0l138 706h98l-138 -706h-98zM191 755l-70 127h99l48 -127h-77z" />
    <glyph glyph-name="Iacute" unicode="&#xcd;" horiz-adv-x="286" 
d="M36 0l138 706h98l-138 -706h-98zM185 755l98 127h110l-121 -127h-87z" />
    <glyph glyph-name="Icircumflex" unicode="&#xce;" horiz-adv-x="286" 
d="M36 0l138 706h98l-138 -706h-98zM89 755l113 127h101l62 -127h-81l-36 80h-2l-68 -80h-89z" />
    <glyph glyph-name="Idieresis" unicode="&#xcf;" horiz-adv-x="286" 
d="M36 0l138 706h98l-138 -706h-98zM282 781l19 101h80l-20 -101h-79zM114 781l20 101h80l-20 -101h-80z" />
    <glyph glyph-name="Eth" unicode="&#xd0;" horiz-adv-x="744" 
d="M43 0l61 312h-59l16 82h59l60 312h218q146 0 229 -72t83 -203q0 -181 -118 -306t-300 -125h-249zM158 86h128q140 0 231 97t91 240q0 95 -57.5 146t-160.5 51h-128l-45 -226h151l-16 -82h-150z" />
    <glyph glyph-name="Ntilde" unicode="&#xd1;" horiz-adv-x="746" 
d="M36 0l138 706h92l225 -458q8 -17 17.5 -43t15.5 -43l5 -17h2q5 63 13 103l89 458h99l-138 -706h-91l-226 458l-38 103h-2q-6 -63 -13 -103l-90 -458h-98zM300 756q23 127 118 127q27 0 46 -17t33 -34t30 -17q38 0 49 65h70q-23 -127 -118 -127q-26 0 -45 17t-34 34
t-31 17q-35 0 -48 -65h-70z" />
    <glyph glyph-name="Ograve" unicode="&#xd2;" horiz-adv-x="823" 
d="M56 296q0 111 60 209t157.5 155.5t203.5 57.5q140 0 227 -84t87 -216q0 -113 -60.5 -213.5t-158 -158.5t-202.5 -58q-141 0 -227.5 86.5t-86.5 221.5zM157 300q0 -98 59.5 -159.5t153.5 -61.5q122 0 220.5 99.5t98.5 234.5q0 95 -59.5 155t-153.5 60q-123 0 -221 -97.5
t-98 -230.5zM457 755l-70 127h99l48 -127h-77z" />
    <glyph glyph-name="Oacute" unicode="&#xd3;" horiz-adv-x="823" 
d="M453 755l98 127h110l-121 -127h-87zM56 296q0 111 60 209t157.5 155.5t203.5 57.5q140 0 227 -84t87 -216q0 -113 -60.5 -213.5t-158 -158.5t-202.5 -58q-141 0 -227.5 86.5t-86.5 221.5zM157 300q0 -98 59.5 -159.5t153.5 -61.5q122 0 220.5 99.5t98.5 234.5
q0 95 -59.5 155t-153.5 60q-123 0 -221 -97.5t-98 -230.5z" />
    <glyph glyph-name="Ocircumflex" unicode="&#xd4;" horiz-adv-x="823" 
d="M357 755l113 127h101l62 -127h-81l-36 80h-2l-68 -80h-89zM56 296q0 111 60 209t157.5 155.5t203.5 57.5q140 0 227 -84t87 -216q0 -113 -60.5 -213.5t-158 -158.5t-202.5 -58q-141 0 -227.5 86.5t-86.5 221.5zM157 300q0 -98 59.5 -159.5t153.5 -61.5q122 0 220.5 99.5
t98.5 234.5q0 95 -59.5 155t-153.5 60q-123 0 -221 -97.5t-98 -230.5z" />
    <glyph glyph-name="Otilde" unicode="&#xd5;" horiz-adv-x="823" 
d="M56 296q0 111 60 209t157.5 155.5t203.5 57.5q140 0 227 -84t87 -216q0 -113 -60.5 -213.5t-158 -158.5t-202.5 -58q-141 0 -227.5 86.5t-86.5 221.5zM157 300q0 -98 59.5 -159.5t153.5 -61.5q122 0 220.5 99.5t98.5 234.5q0 95 -59.5 155t-153.5 60q-123 0 -221 -97.5
t-98 -230.5zM339 756q23 127 118 127q27 0 46 -17t33 -34t30 -17q38 0 49 65h70q-23 -127 -118 -127q-26 0 -45 17t-34 34t-31 17q-35 0 -48 -65h-70z" />
    <glyph glyph-name="Odieresis" unicode="&#xd6;" horiz-adv-x="823" 
d="M550 781l19 101h80l-20 -101h-79zM382 781l20 101h80l-20 -101h-80zM56 296q0 111 60 209t157.5 155.5t203.5 57.5q140 0 227 -84t87 -216q0 -113 -60.5 -213.5t-158 -158.5t-202.5 -58q-141 0 -227.5 86.5t-86.5 221.5zM157 300q0 -98 59.5 -159.5t153.5 -61.5
q122 0 220.5 99.5t98.5 234.5q0 95 -59.5 155t-153.5 60q-123 0 -221 -97.5t-98 -230.5z" />
    <glyph glyph-name="multiply" unicode="&#xd7;" horiz-adv-x="577" 
d="M29 55l207 230l-207 230l56 55l204 -228l205 228l55 -55l-208 -230l208 -230l-55 -55l-205 228l-204 -228z" />
    <glyph glyph-name="Oslash" unicode="&#xd8;" horiz-adv-x="823" 
d="M64 12l68 73q-76 84 -76 211q0 111 60 209t157.5 155.5t203.5 57.5q109 0 188 -54l62 68l46 -38l-62 -67q80 -85 80 -209q0 -113 -60.5 -213.5t-158 -158.5t-202.5 -58q-116 0 -194 58l-65 -71zM202 161l396 431q-56 36 -122 36q-123 0 -221 -97.5t-98 -230.5
q0 -83 45 -139zM243 118q53 -39 127 -39q122 0 220.5 99.5t98.5 234.5q0 81 -47 139z" />
    <glyph glyph-name="Ugrave" unicode="&#xd9;" horiz-adv-x="726" 
d="M72 197q0 27 6 57l89 452h98l-89 -455q-4 -19 -4 -42q0 -62 39.5 -96t110.5 -34q82 0 139 46t73 128l89 453h98l-91 -461q-23 -119 -106.5 -188t-204.5 -69q-110 0 -178.5 55.5t-68.5 153.5zM410 755l-70 127h99l48 -127h-77z" />
    <glyph glyph-name="Uacute" unicode="&#xda;" horiz-adv-x="726" 
d="M406 755l98 127h110l-121 -127h-87zM72 197q0 27 6 57l89 452h98l-89 -455q-4 -19 -4 -42q0 -62 39.5 -96t110.5 -34q82 0 139 46t73 128l89 453h98l-91 -461q-23 -119 -106.5 -188t-204.5 -69q-110 0 -178.5 55.5t-68.5 153.5z" />
    <glyph glyph-name="Ucircumflex" unicode="&#xdb;" horiz-adv-x="726" 
d="M310 755l113 127h101l62 -127h-81l-36 80h-2l-68 -80h-89zM72 197q0 27 6 57l89 452h98l-89 -455q-4 -19 -4 -42q0 -62 39.5 -96t110.5 -34q82 0 139 46t73 128l89 453h98l-91 -461q-23 -119 -106.5 -188t-204.5 -69q-110 0 -178.5 55.5t-68.5 153.5z" />
    <glyph glyph-name="Udieresis" unicode="&#xdc;" horiz-adv-x="726" 
d="M502 781l19 101h80l-20 -101h-79zM334 781l20 101h80l-20 -101h-80zM72 197q0 27 6 57l89 452h98l-89 -455q-4 -19 -4 -42q0 -62 39.5 -96t110.5 -34q82 0 139 46t73 128l89 453h98l-91 -461q-23 -119 -106.5 -188t-204.5 -69q-110 0 -178.5 55.5t-68.5 153.5z" />
    <glyph glyph-name="Yacute" unicode="&#xdd;" horiz-adv-x="592" 
d="M183 0l59 299l-155 407h106l84 -232l27 -89h2q31 47 60 89l173 232h119l-318 -410l-58 -296h-99zM327 755l98 127h110l-121 -127h-87z" />
    <glyph glyph-name="Thorn" unicode="&#xde;" horiz-adv-x="609" 
d="M36 0l138 706h98l-24 -120h144q94 0 147 -48t53 -132q0 -114 -76.5 -189.5t-182.5 -75.5h-171l-28 -141h-98zM179 227h143q73 0 120.5 47t47.5 126q0 47 -29.5 73.5t-84.5 26.5h-145z" />
    <glyph glyph-name="germandbls" unicode="&#xdf;" horiz-adv-x="588" 
d="M18 0l104 538q16 84 84.5 132t150.5 48q80 0 128.5 -40t48.5 -102q0 -33 -14.5 -60.5t-35 -46.5t-40.5 -35.5t-34.5 -34t-14.5 -35.5q0 -20 21.5 -43.5t47 -42.5t47 -51t21.5 -67q0 -69 -57 -118t-133 -49q-87 0 -148 29l17 84q47 -29 124 -29q37 0 68 21t31 61
q0 26 -22 51.5t-48 44t-48 46.5t-22 57q0 28 14.5 52.5t35 43t41.5 36t35.5 38t14.5 41.5q0 27 -21 46t-60 19q-48 0 -87.5 -29t-50.5 -82l-101 -523h-97z" />
    <glyph glyph-name="agrave" unicode="&#xe0;" horiz-adv-x="524" 
d="M1 118q0 46 22 81.5t56 57t80 35t89 18.5t88 5h26q4 22 4 43q0 78 -92 78q-76 0 -151 -48l-26 77q31 21 84.5 37t106.5 16q78 0 127 -36t49 -112q0 -21 -5 -54l-61 -316h-91l10 51l10 40h-2q-21 -37 -68 -70t-107 -33q-63 0 -106 35t-43 95zM97 132q0 -29 20.5 -48
t61.5 -19q57 0 105 50.5t62 111.5l3 18h-25q-227 0 -227 -113zM268 580l-70 127h99l48 -127h-77z" />
    <glyph glyph-name="aacute" unicode="&#xe1;" horiz-adv-x="524" 
d="M1 118q0 46 22 81.5t56 57t80 35t89 18.5t88 5h26q4 22 4 43q0 78 -92 78q-76 0 -151 -48l-26 77q31 21 84.5 37t106.5 16q78 0 127 -36t49 -112q0 -21 -5 -54l-61 -316h-91l10 51l10 40h-2q-21 -37 -68 -70t-107 -33q-63 0 -106 35t-43 95zM97 132q0 -29 20.5 -48
t61.5 -19q57 0 105 50.5t62 111.5l3 18h-25q-227 0 -227 -113zM265 580l98 127h110l-121 -127h-87z" />
    <glyph glyph-name="acircumflex" unicode="&#xe2;" horiz-adv-x="524" 
d="M1 118q0 46 22 81.5t56 57t80 35t89 18.5t88 5h26q4 22 4 43q0 78 -92 78q-76 0 -151 -48l-26 77q31 21 84.5 37t106.5 16q78 0 127 -36t49 -112q0 -21 -5 -54l-61 -316h-91l10 51l10 40h-2q-21 -37 -68 -70t-107 -33q-63 0 -106 35t-43 95zM97 132q0 -29 20.5 -48
t61.5 -19q57 0 105 50.5t62 111.5l3 18h-25q-227 0 -227 -113zM168 580l113 127h101l62 -127h-81l-36 80h-2l-68 -80h-89z" />
    <glyph glyph-name="atilde" unicode="&#xe3;" horiz-adv-x="524" 
d="M1 118q0 46 22 81.5t56 57t80 35t89 18.5t88 5h26q4 22 4 43q0 78 -92 78q-76 0 -151 -48l-26 77q31 21 84.5 37t106.5 16q78 0 127 -36t49 -112q0 -21 -5 -54l-61 -316h-91l10 51l10 40h-2q-21 -37 -68 -70t-107 -33q-63 0 -106 35t-43 95zM97 132q0 -29 20.5 -48
t61.5 -19q57 0 105 50.5t62 111.5l3 18h-25q-227 0 -227 -113zM150 581q23 127 118 127q27 0 46 -17t33 -34t30 -17q38 0 49 65h70q-23 -127 -118 -127q-26 0 -45 17t-34 34t-31 17q-35 0 -48 -65h-70z" />
    <glyph glyph-name="adieresis" unicode="&#xe4;" horiz-adv-x="524" 
d="M1 118q0 46 22 81.5t56 57t80 35t89 18.5t88 5h26q4 22 4 43q0 78 -92 78q-76 0 -151 -48l-26 77q31 21 84.5 37t106.5 16q78 0 127 -36t49 -112q0 -21 -5 -54l-61 -316h-91l10 51l10 40h-2q-21 -37 -68 -70t-107 -33q-63 0 -106 35t-43 95zM97 132q0 -29 20.5 -48
t61.5 -19q57 0 105 50.5t62 111.5l3 18h-25q-227 0 -227 -113zM360 606l19 101h80l-20 -101h-79zM192 606l20 101h80l-20 -101h-80z" />
    <glyph glyph-name="aring" unicode="&#xe5;" horiz-adv-x="524" 
d="M1 118q0 46 22 81.5t56 57t80 35t89 18.5t88 5h26q4 22 4 43q0 78 -92 78q-76 0 -151 -48l-26 77q31 21 84.5 37t106.5 16q78 0 127 -36t49 -112q0 -21 -5 -54l-61 -316h-91l10 51l10 40h-2q-21 -37 -68 -70t-107 -33q-63 0 -106 35t-43 95zM97 132q0 -29 20.5 -48
t61.5 -19q57 0 105 50.5t62 111.5l3 18h-25q-227 0 -227 -113zM313 568q-34 0 -55.5 17t-21.5 48q0 37 29 60.5t65 23.5q35 0 56.5 -17.5t21.5 -48.5q0 -36 -29.5 -59.5t-65.5 -23.5zM316 609q16 0 28 12t12 29q0 12 -7.5 19.5t-20.5 7.5q-16 0 -28 -12.5t-12 -30.5
q0 -25 28 -25z" />
    <glyph glyph-name="ae" unicode="&#xe6;" horiz-adv-x="862" 
d="M1 116q0 47 21.5 83t54.5 57t79 34.5t89 18t90 4.5h26q6 30 6 45q0 78 -95 78q-75 0 -148 -48l-26 77q88 53 189 53q120 0 152 -85h2q76 85 188 85q95 0 144.5 -50.5t49.5 -137.5q0 -43 -16 -88h-363q-5 -26 -2 -46q3 -60 40 -92t96 -32q82 0 162 59l28 -76
q-33 -27 -88 -47t-105 -20q-79 0 -133.5 33t-76.5 91h-2q-6 -13 -19 -30t-37 -40t-63.5 -38.5t-85.5 -15.5q-67 0 -112 34t-45 94zM460 313h264q2 14 2 28q0 49 -27.5 74.5t-70.5 25.5q-57 0 -101.5 -33.5t-66.5 -94.5zM100 132q0 -29 21 -47.5t60 -18.5q58 0 105.5 50.5
t59.5 110.5l3 15h-46q-203 0 -203 -110z" />
    <glyph glyph-name="ccedilla" unicode="&#xe7;" horiz-adv-x="547" 
d="M178 -88l36 81q-85 14 -134.5 72t-49.5 143q0 129 93 219.5t219 90.5q124 0 191 -73l-54 -63q-23 24 -59.5 38t-72.5 14q-87 0 -152.5 -64.5t-65.5 -154.5q0 -64 40.5 -103.5t107.5 -39.5q87 0 169 68l28 -77q-38 -33 -94 -54t-112 -21h-1l-16 -38q25 -4 42.5 -20.5
t17.5 -44.5q0 -46 -35.5 -69t-79.5 -23q-32 0 -59 7l11 57q16 -6 41 -6q54 0 54 36q0 26 -47 26q-12 0 -18 -1z" />
    <glyph glyph-name="egrave" unicode="&#xe8;" horiz-adv-x="556" 
d="M31 203q0 129 84 222t209 93q95 0 144.5 -51t49.5 -136q0 -33 -16 -91h-369q-4 -24 -4 -35q0 -55 38.5 -94t106.5 -39q81 0 161 59l27 -76q-32 -26 -86 -46.5t-107 -20.5q-109 0 -173.5 60t-64.5 155zM148 310h270q3 13 3 29q0 50 -27 77t-71 27q-57 0 -104.5 -35
t-70.5 -98zM307 580l-70 127h99l48 -127h-77z" />
    <glyph glyph-name="eacute" unicode="&#xe9;" horiz-adv-x="556" 
d="M303 580l98 127h110l-121 -127h-87zM31 203q0 129 84 222t209 93q95 0 144.5 -51t49.5 -136q0 -33 -16 -91h-369q-4 -24 -4 -35q0 -55 38.5 -94t106.5 -39q81 0 161 59l27 -76q-32 -26 -86 -46.5t-107 -20.5q-109 0 -173.5 60t-64.5 155zM148 310h270q3 13 3 29
q0 50 -27 77t-71 27q-57 0 -104.5 -35t-70.5 -98z" />
    <glyph glyph-name="ecircumflex" unicode="&#xea;" horiz-adv-x="556" 
d="M207 580l113 127h101l62 -127h-81l-36 80h-2l-68 -80h-89zM31 203q0 129 84 222t209 93q95 0 144.5 -51t49.5 -136q0 -33 -16 -91h-369q-4 -24 -4 -35q0 -55 38.5 -94t106.5 -39q81 0 161 59l27 -76q-32 -26 -86 -46.5t-107 -20.5q-109 0 -173.5 60t-64.5 155zM148 310
h270q3 13 3 29q0 50 -27 77t-71 27q-57 0 -104.5 -35t-70.5 -98z" />
    <glyph glyph-name="edieresis" unicode="&#xeb;" horiz-adv-x="556" 
d="M399 606l19 101h80l-20 -101h-79zM231 606l20 101h80l-20 -101h-80zM31 203q0 129 84 222t209 93q95 0 144.5 -51t49.5 -136q0 -33 -16 -91h-369q-4 -24 -4 -35q0 -55 38.5 -94t106.5 -39q81 0 161 59l27 -76q-32 -26 -86 -46.5t-107 -20.5q-109 0 -173.5 60t-64.5 155z
M148 310h270q3 13 3 29q0 50 -27 77t-71 27q-57 0 -104.5 -35t-70.5 -98z" />
    <glyph glyph-name="igrave" unicode="&#xec;" horiz-adv-x="246" 
d="M18 0l98 506h96l-98 -506h-96zM137 580l-70 127h99l48 -127h-77z" />
    <glyph glyph-name="iacute" unicode="&#xed;" horiz-adv-x="246" 
d="M131 580l98 127h110l-121 -127h-87zM18 0l98 506h96l-98 -506h-96z" />
    <glyph glyph-name="icircumflex" unicode="&#xee;" horiz-adv-x="246" 
d="M36 580l113 127h101l62 -127h-81l-36 80h-2l-68 -80h-89zM18 0l98 506h96l-98 -506h-96z" />
    <glyph glyph-name="idieresis" unicode="&#xef;" horiz-adv-x="246" 
d="M228 606l19 101h80l-20 -101h-79zM60 606l20 101h80l-20 -101h-80zM18 0l98 506h96l-98 -506h-96z" />
    <glyph glyph-name="eth" unicode="&#xf0;" horiz-adv-x="581" 
d="M27 191q0 106 78.5 190.5t203.5 84.5q37 0 68 -11.5t43 -22.5l13 -12h2q-17 83 -85 140l-199 -80l3 62l137 57q-53 30 -120 48l40 72q110 -30 181 -81l160 63l-1 -62l-109 -44q98 -96 98 -244q0 -44 -10.5 -91.5t-34 -96.5t-57 -87.5t-85.5 -63t-113 -24.5
q-102 0 -157.5 58t-55.5 145zM126 193q0 -52 29 -87t85 -35q81 0 136.5 69.5t55.5 144.5q0 46 -32 74.5t-87 28.5q-79 0 -133 -58t-54 -137z" />
    <glyph glyph-name="ntilde" unicode="&#xf1;" horiz-adv-x="602" 
d="M18 0l98 506h94l-10 -59l-14 -48h2q24 43 82 81t126 38q70 0 109.5 -33.5t39.5 -100.5q0 -24 -7 -64l-62 -320h-97l58 299q7 37 7 57q0 73 -76 73q-74 0 -133.5 -58.5t-75.5 -139.5l-44 -231h-97zM206 581q23 127 118 127q27 0 46 -17t33 -34t30 -17q38 0 49 65h70
q-23 -127 -118 -127q-26 0 -45 17t-34 34t-31 17q-35 0 -48 -65h-70z" />
    <glyph glyph-name="ograve" unicode="&#xf2;" horiz-adv-x="628" 
d="M30 211q0 127 95 217t217 90q107 0 173.5 -61.5t66.5 -159.5q0 -129 -95.5 -219t-216.5 -90q-107 0 -173.5 61.5t-66.5 161.5zM129 215q0 -64 39.5 -103.5t102.5 -39.5q81 0 146.5 64t65.5 156q0 63 -40 102.5t-102 39.5q-82 0 -147 -64t-65 -155zM326 580l-70 127h99
l48 -127h-77z" />
    <glyph glyph-name="oacute" unicode="&#xf3;" horiz-adv-x="628" 
d="M322 580l98 127h110l-121 -127h-87zM30 211q0 127 95 217t217 90q107 0 173.5 -61.5t66.5 -159.5q0 -129 -95.5 -219t-216.5 -90q-107 0 -173.5 61.5t-66.5 161.5zM129 215q0 -64 39.5 -103.5t102.5 -39.5q81 0 146.5 64t65.5 156q0 63 -40 102.5t-102 39.5
q-82 0 -147 -64t-65 -155z" />
    <glyph glyph-name="ocircumflex" unicode="&#xf4;" horiz-adv-x="628" 
d="M226 580l113 127h101l62 -127h-81l-36 80h-2l-68 -80h-89zM30 211q0 127 95 217t217 90q107 0 173.5 -61.5t66.5 -159.5q0 -129 -95.5 -219t-216.5 -90q-107 0 -173.5 61.5t-66.5 161.5zM129 215q0 -64 39.5 -103.5t102.5 -39.5q81 0 146.5 64t65.5 156q0 63 -40 102.5
t-102 39.5q-82 0 -147 -64t-65 -155z" />
    <glyph glyph-name="otilde" unicode="&#xf5;" horiz-adv-x="628" 
d="M30 211q0 127 95 217t217 90q107 0 173.5 -61.5t66.5 -159.5q0 -129 -95.5 -219t-216.5 -90q-107 0 -173.5 61.5t-66.5 161.5zM129 215q0 -64 39.5 -103.5t102.5 -39.5q81 0 146.5 64t65.5 156q0 63 -40 102.5t-102 39.5q-82 0 -147 -64t-65 -155zM208 581
q23 127 118 127q27 0 46 -17t33 -34t30 -17q38 0 49 65h70q-23 -127 -118 -127q-26 0 -45 17t-34 34t-31 17q-35 0 -48 -65h-70z" />
    <glyph glyph-name="odieresis" unicode="&#xf6;" horiz-adv-x="628" 
d="M418 606l19 101h80l-20 -101h-79zM250 606l20 101h80l-20 -101h-80zM30 211q0 127 95 217t217 90q107 0 173.5 -61.5t66.5 -159.5q0 -129 -95.5 -219t-216.5 -90q-107 0 -173.5 61.5t-66.5 161.5zM129 215q0 -64 39.5 -103.5t102.5 -39.5q81 0 146.5 64t65.5 156
q0 63 -40 102.5t-102 39.5q-82 0 -147 -64t-65 -155z" />
    <glyph glyph-name="divide" unicode="&#xf7;" horiz-adv-x="577" 
d="M238 435v91h95v-91h-95zM33 246v78h505v-78h-505zM238 44v91h95v-91h-95z" />
    <glyph glyph-name="oslash" unicode="&#xf8;" horiz-adv-x="628" 
d="M38 0l52 56q-60 60 -60 155q0 127 95 217t217 90q80 0 140 -37l54 59l45 -37l-54 -59q55 -61 55 -147q0 -129 -95.5 -219t-216.5 -90q-75 0 -133 33l-54 -59zM156 128l263 284q-32 22 -78 22q-82 0 -147 -64t-65 -155q0 -52 27 -87zM200 89q36 -17 71 -17q81 0 146.5 64
t65.5 156q0 48 -24 79z" />
    <glyph glyph-name="ugrave" unicode="&#xf9;" horiz-adv-x="597" 
d="M41 122q0 24 7 64l62 320h97l-58 -298q-6 -33 -6 -58q0 -72 77 -72q72 0 129.5 60t71.5 138l45 230h97l-98 -506h-95l12 59l13 48h-2q-26 -44 -81 -81.5t-125 -37.5q-65 0 -105.5 32.5t-40.5 101.5zM307 580l-70 127h99l48 -127h-77z" />
    <glyph glyph-name="uacute" unicode="&#xfa;" horiz-adv-x="597" 
d="M303 580l98 127h110l-121 -127h-87zM41 122q0 24 7 64l62 320h97l-58 -298q-6 -33 -6 -58q0 -72 77 -72q72 0 129.5 60t71.5 138l45 230h97l-98 -506h-95l12 59l13 48h-2q-26 -44 -81 -81.5t-125 -37.5q-65 0 -105.5 32.5t-40.5 101.5z" />
    <glyph glyph-name="ucircumflex" unicode="&#xfb;" horiz-adv-x="597" 
d="M207 580l113 127h101l62 -127h-81l-36 80h-2l-68 -80h-89zM41 122q0 24 7 64l62 320h97l-58 -298q-6 -33 -6 -58q0 -72 77 -72q72 0 129.5 60t71.5 138l45 230h97l-98 -506h-95l12 59l13 48h-2q-26 -44 -81 -81.5t-125 -37.5q-65 0 -105.5 32.5t-40.5 101.5z" />
    <glyph glyph-name="udieresis" unicode="&#xfc;" horiz-adv-x="597" 
d="M400 606l19 101h80l-20 -101h-79zM232 606l20 101h80l-20 -101h-80zM41 122q0 24 7 64l62 320h97l-58 -298q-6 -33 -6 -58q0 -72 77 -72q72 0 129.5 60t71.5 138l45 230h97l-98 -506h-95l12 59l13 48h-2q-26 -44 -81 -81.5t-125 -37.5q-65 0 -105.5 32.5t-40.5 101.5z
" />
    <glyph glyph-name="yacute" unicode="&#xfd;" horiz-adv-x="539" 
d="M-30 -108q22 -19 56 -19q59 0 106 74l37 60l-116 499h101l69 -343l7 -58h1q15 32 29 57l190 344h109l-355 -599q-70 -117 -175 -117q-57 0 -104 33zM277 580l98 127h110l-121 -127h-87z" />
    <glyph glyph-name="thorn" unicode="&#xfe;" horiz-adv-x="602" 
d="M121 29l-45 -229h-96l175 906h95l-45 -235l-11 -40h2q28 38 72 62.5t98 24.5q89 0 139 -56t50 -152q0 -139 -83 -230.5t-192 -91.5q-50 0 -91.5 22.5t-59.5 65.5h-2q-1 -21 -6 -47zM156 202q0 -57 29 -93.5t84 -36.5q71 0 129 64t58 167q0 61 -30.5 95.5t-83.5 34.5
q-76 0 -131 -70.5t-55 -160.5z" />
    <glyph glyph-name="ydieresis" unicode="&#xff;" horiz-adv-x="539" 
d="M-30 -108q22 -19 56 -19q59 0 106 74l37 60l-116 499h101l69 -343l7 -58h1q15 32 29 57l190 344h109l-355 -599q-70 -117 -175 -117q-57 0 -104 33zM373 606l19 101h80l-20 -101h-79zM205 606l20 101h80l-20 -101h-80z" />
    <glyph glyph-name="Amacron" unicode="&#x100;" horiz-adv-x="643" 
d="M-39 0l387 706h110l116 -706h-99l-32 203h-266l-109 -203h-107zM219 285h214l-35 223l-9 101h-2q-27 -64 -46 -101zM292 784l13 71h254l-13 -71h-254z" />
    <glyph glyph-name="amacron" unicode="&#x101;" horiz-adv-x="524" 
d="M1 118q0 46 22 81.5t56 57t80 35t89 18.5t88 5h26q4 22 4 43q0 78 -92 78q-76 0 -151 -48l-26 77q31 21 84.5 37t106.5 16q78 0 127 -36t49 -112q0 -21 -5 -54l-61 -316h-91l10 51l10 40h-2q-21 -37 -68 -70t-107 -33q-63 0 -106 35t-43 95zM97 132q0 -29 20.5 -48
t61.5 -19q57 0 105 50.5t62 111.5l3 18h-25q-227 0 -227 -113zM190 609l13 71h254l-13 -71h-254z" />
    <glyph glyph-name="Abreve" unicode="&#x102;" horiz-adv-x="643" 
d="M-39 0l387 706h110l116 -706h-99l-32 203h-266l-109 -203h-107zM219 285h214l-35 223l-9 101h-2q-27 -64 -46 -101zM419 751q-50 0 -84.5 25.5t-34.5 71.5q0 12 5 34h72q-4 -13 -4 -28q0 -45 49 -45q26 0 47.5 17.5t26.5 55.5h73q-10 -67 -51.5 -99t-98.5 -32z" />
    <glyph glyph-name="abreve" unicode="&#x103;" horiz-adv-x="524" 
d="M1 118q0 46 22 81.5t56 57t80 35t89 18.5t88 5h26q4 22 4 43q0 78 -92 78q-76 0 -151 -48l-26 77q31 21 84.5 37t106.5 16q78 0 127 -36t49 -112q0 -21 -5 -54l-61 -316h-91l10 51l10 40h-2q-21 -37 -68 -70t-107 -33q-63 0 -106 35t-43 95zM97 132q0 -29 20.5 -48
t61.5 -19q57 0 105 50.5t62 111.5l3 18h-25q-227 0 -227 -113zM316 576q-50 0 -84.5 25.5t-34.5 71.5q0 12 5 34h72q-4 -13 -4 -28q0 -45 49 -45q26 0 47.5 17.5t26.5 55.5h73q-10 -67 -51.5 -99t-98.5 -32z" />
    <glyph glyph-name="Aogonek" unicode="&#x104;" horiz-adv-x="643" 
d="M-39 0l387 706h110l116 -706h-2q-83 -59 -83 -96q0 -14 11.5 -23t23.5 -11l12 -2l-36 -75q-4 0 -10.5 1t-24 6.5t-30.5 13.5t-23.5 24t-10.5 36q0 66 87 126h-13l-32 203h-266l-109 -203h-107zM219 285h214l-35 223l-9 101h-2q-27 -64 -46 -101z" />
    <glyph glyph-name="aogonek" unicode="&#x105;" horiz-adv-x="524" 
d="M1 118q0 46 22 81.5t56 57t80 35t89 18.5t88 5h26q4 22 4 43q0 78 -92 78q-76 0 -151 -48l-26 77q31 21 84.5 37t106.5 16q78 0 127 -36t49 -112q0 -21 -5 -54l-61 -316q-84 -57 -84 -96q0 -14 12 -23t24 -11l12 -2l-38 -75q-4 0 -10.5 1t-24 6.5t-30.5 13.5t-23.5 24
t-10.5 36q0 65 88 126h-6l10 51l10 40h-2q-21 -37 -68 -70t-107 -33q-63 0 -106 35t-43 95zM97 132q0 -29 20.5 -48t61.5 -19q57 0 105 50.5t62 111.5l3 18h-25q-227 0 -227 -113z" />
    <glyph glyph-name="Cacute" unicode="&#x106;" horiz-adv-x="718" 
d="M445 755l98 127h110l-121 -127h-87zM57 294q0 113 58 211.5t154.5 155.5t205.5 57q73 0 142 -23t113 -71l-59 -69q-75 73 -194 73q-132 0 -225 -99t-93 -230q0 -96 57.5 -158t157.5 -62q125 0 235 91l43 -78q-50 -45 -129 -74.5t-154 -29.5q-143 0 -227.5 85t-84.5 221z
" />
    <glyph glyph-name="cacute" unicode="&#x107;" horiz-adv-x="546" 
d="M304 580l98 127h110l-121 -127h-87zM30 208q0 129 93 219.5t219 90.5q124 0 191 -73l-54 -63q-23 24 -59.5 38t-72.5 14q-87 0 -152.5 -64.5t-65.5 -154.5q0 -64 40.5 -103.5t107.5 -39.5q87 0 169 68l28 -77q-38 -33 -94 -54t-112 -21q-109 0 -173.5 61t-64.5 159z" />
    <glyph glyph-name="Ccircumflex" unicode="&#x108;" horiz-adv-x="718" 
d="M349 755l113 127h101l62 -127h-81l-36 80h-2l-68 -80h-89zM57 294q0 113 58 211.5t154.5 155.5t205.5 57q73 0 142 -23t113 -71l-59 -69q-75 73 -194 73q-132 0 -225 -99t-93 -230q0 -96 57.5 -158t157.5 -62q125 0 235 91l43 -78q-50 -45 -129 -74.5t-154 -29.5
q-143 0 -227.5 85t-84.5 221z" />
    <glyph glyph-name="ccircumflex" unicode="&#x109;" horiz-adv-x="546" 
d="M207 580l113 127h101l62 -127h-81l-36 80h-2l-68 -80h-89zM30 208q0 129 93 219.5t219 90.5q124 0 191 -73l-54 -63q-23 24 -59.5 38t-72.5 14q-87 0 -152.5 -64.5t-65.5 -154.5q0 -64 40.5 -103.5t107.5 -39.5q87 0 169 68l28 -77q-38 -33 -94 -54t-112 -21
q-109 0 -173.5 61t-64.5 159z" />
    <glyph glyph-name="Cdotaccent" unicode="&#x10a;" horiz-adv-x="718" 
d="M57 294q0 113 58 211.5t154.5 155.5t205.5 57q73 0 142 -23t113 -71l-59 -69q-75 73 -194 73q-132 0 -225 -99t-93 -230q0 -96 57.5 -158t157.5 -62q125 0 235 91l43 -78q-50 -45 -129 -74.5t-154 -29.5q-143 0 -227.5 85t-84.5 221zM455 784l19 98h86l-19 -98h-86z" />
    <glyph glyph-name="cdotaccent" unicode="&#x10b;" horiz-adv-x="546" 
d="M30 208q0 129 93 219.5t219 90.5q124 0 191 -73l-54 -63q-23 24 -59.5 38t-72.5 14q-87 0 -152.5 -64.5t-65.5 -154.5q0 -64 40.5 -103.5t107.5 -39.5q87 0 169 68l28 -77q-38 -33 -94 -54t-112 -21q-109 0 -173.5 61t-64.5 159zM313 609l19 98h86l-19 -98h-86z" />
    <glyph glyph-name="Ccaron" unicode="&#x10c;" horiz-adv-x="718" 
d="M445 755l-63 127h81l36 -81h2l69 81h88l-113 -127h-100zM57 294q0 113 58 211.5t154.5 155.5t205.5 57q73 0 142 -23t113 -71l-59 -69q-75 73 -194 73q-132 0 -225 -99t-93 -230q0 -96 57.5 -158t157.5 -62q125 0 235 91l43 -78q-50 -45 -129 -74.5t-154 -29.5
q-143 0 -227.5 85t-84.5 221z" />
    <glyph glyph-name="ccaron" unicode="&#x10d;" horiz-adv-x="546" 
d="M303 580l-63 127h81l36 -81h2l69 81h88l-113 -127h-100zM30 208q0 129 93 219.5t219 90.5q124 0 191 -73l-54 -63q-23 24 -59.5 38t-72.5 14q-87 0 -152.5 -64.5t-65.5 -154.5q0 -64 40.5 -103.5t107.5 -39.5q87 0 169 68l28 -77q-38 -33 -94 -54t-112 -21
q-109 0 -173.5 61t-64.5 159z" />
    <glyph glyph-name="Dcaron" unicode="&#x10e;" horiz-adv-x="738" 
d="M386 755l-63 127h81l36 -81h2l69 81h88l-113 -127h-100zM37 0l137 706h217q146 0 229.5 -72.5t83.5 -202.5q0 -181 -118 -306t-300 -125h-249zM151 86h129q140 0 231 97t91 240q0 95 -58 146t-160 51h-128z" />
    <glyph glyph-name="dcaron" unicode="&#x10f;" horiz-adv-x="611" 
d="M665 705h85v-15q0 -59 -46 -130h-74q38 68 38 116q0 12 -3 29zM31 195q0 140 83.5 231.5t195.5 91.5q50 0 91 -21.5t57 -63.5h2q0 19 4 37l47 236h96l-137 -706h-92l9 48l10 37h-2q-26 -42 -72.5 -69.5t-101.5 -27.5q-90 0 -140 55.5t-50 151.5zM130 202
q0 -61 30.5 -95.5t84.5 -34.5q77 0 131 71.5t54 161.5q0 56 -29 92t-85 36q-71 0 -128.5 -64t-57.5 -167z" />
    <glyph glyph-name="Dcroat" unicode="&#x110;" horiz-adv-x="744" 
d="M43 0l61 312h-59l16 82h59l60 312h218q146 0 229 -72t83 -203q0 -181 -118 -306t-300 -125h-249zM158 86h128q140 0 231 97t91 240q0 95 -57.5 146t-160.5 51h-128l-45 -226h151l-16 -82h-150z" />
    <glyph glyph-name="dcroat" unicode="&#x111;" horiz-adv-x="602" 
d="M31 195q0 140 83.5 231.5t195.5 91.5q50 0 91 -21.5t57 -63.5h2q0 19 4 37l18 93h-129l12 63h130l16 80h96l-15 -80h76l-13 -63h-76l-109 -563h-92l9 48l10 37h-2q-27 -42 -73 -69.5t-101 -27.5q-90 0 -140 55.5t-50 151.5zM130 202q0 -61 30.5 -95.5t84.5 -34.5
q77 0 131 71.5t54 161.5q0 56 -29 92t-85 36q-71 0 -128.5 -64t-57.5 -167z" />
    <glyph glyph-name="Emacron" unicode="&#x112;" horiz-adv-x="562" 
d="M36 0l138 706h410l-18 -86h-311l-43 -221h253l-17 -86h-252l-45 -227h328l-16 -86h-427zM277 784l13 71h254l-13 -71h-254z" />
    <glyph glyph-name="emacron" unicode="&#x113;" horiz-adv-x="556" 
d="M31 203q0 129 84 222t209 93q95 0 144.5 -51t49.5 -136q0 -33 -16 -91h-369q-4 -24 -4 -35q0 -55 38.5 -94t106.5 -39q81 0 161 59l27 -76q-32 -26 -86 -46.5t-107 -20.5q-109 0 -173.5 60t-64.5 155zM148 310h270q3 13 3 29q0 50 -27 77t-71 27q-57 0 -104.5 -35
t-70.5 -98zM228 609l13 71h254l-13 -71h-254z" />
    <glyph glyph-name="Ebreve" unicode="&#x114;" horiz-adv-x="562" 
d="M36 0l138 706h410l-18 -86h-311l-43 -221h253l-17 -86h-252l-45 -227h328l-16 -86h-427zM404 751q-50 0 -84.5 25.5t-34.5 71.5q0 12 5 34h72q-4 -13 -4 -28q0 -45 49 -45q26 0 47.5 17.5t26.5 55.5h73q-10 -67 -51.5 -99t-98.5 -32z" />
    <glyph glyph-name="ebreve" unicode="&#x115;" horiz-adv-x="556" 
d="M31 203q0 129 84 222t209 93q95 0 144.5 -51t49.5 -136q0 -33 -16 -91h-369q-4 -24 -4 -35q0 -55 38.5 -94t106.5 -39q81 0 161 59l27 -76q-32 -26 -86 -46.5t-107 -20.5q-109 0 -173.5 60t-64.5 155zM148 310h270q3 13 3 29q0 50 -27 77t-71 27q-57 0 -104.5 -35
t-70.5 -98zM355 576q-50 0 -84.5 25.5t-34.5 71.5q0 12 5 34h72q-4 -13 -4 -28q0 -45 49 -45q26 0 47.5 17.5t26.5 55.5h73q-10 -67 -51.5 -99t-98.5 -32z" />
    <glyph glyph-name="Edotaccent" unicode="&#x116;" horiz-adv-x="562" 
d="M36 0l138 706h410l-18 -86h-311l-43 -221h253l-17 -86h-252l-45 -227h328l-16 -86h-427zM361 784l19 98h86l-19 -98h-86z" />
    <glyph glyph-name="edotaccent" unicode="&#x117;" horiz-adv-x="556" 
d="M31 203q0 129 84 222t209 93q95 0 144.5 -51t49.5 -136q0 -33 -16 -91h-369q-4 -24 -4 -35q0 -55 38.5 -94t106.5 -39q81 0 161 59l27 -76q-32 -26 -86 -46.5t-107 -20.5q-109 0 -173.5 60t-64.5 155zM148 310h270q3 13 3 29q0 50 -27 77t-71 27q-57 0 -104.5 -35
t-70.5 -98zM312 609l19 98h86l-19 -98h-86z" />
    <glyph glyph-name="Eogonek" unicode="&#x118;" horiz-adv-x="562" 
d="M36 0l138 706h410l-18 -86h-311l-43 -221h253l-17 -86h-252l-45 -227h328l-16 -86q-81 -55 -81 -96q0 -14 12 -23t24 -11l13 -2l-37 -75q-4 0 -10.5 1t-24 6.5t-30.5 13.5t-23.5 24t-10.5 36q0 61 84 124v2h-343z" />
    <glyph glyph-name="eogonek" unicode="&#x119;" horiz-adv-x="557" 
d="M31 203q0 129 84 222t209 93q95 0 144.5 -51t49.5 -136q0 -19 -4 -42t-8 -36l-4 -13h-369q0 -1 -0.5 -7t-1.5 -15t-1 -15q0 -61 39.5 -96t104.5 -35q38 0 78.5 15t61.5 29l21 15l27 -76q-8 -7 -56.5 -36t-80.5 -58.5t-32 -56.5q0 -14 12.5 -23t24.5 -11l13 -2l-37 -75
q-4 0 -10.5 1t-24 6.5t-30.5 13.5t-23.5 24t-10.5 36q0 57 73 113v2q-112 -5 -180.5 55.5t-68.5 158.5zM149 310h269q3 17 3 33q0 47 -27 72.5t-71 25.5q-57 0 -104 -34.5t-70 -96.5z" />
    <glyph glyph-name="Ecaron" unicode="&#x11a;" horiz-adv-x="562" 
d="M352 755l-63 127h81l36 -81h2l69 81h88l-113 -127h-100zM36 0l138 706h410l-18 -86h-311l-43 -221h253l-17 -86h-252l-45 -227h328l-16 -86h-427z" />
    <glyph glyph-name="ecaron" unicode="&#x11b;" horiz-adv-x="556" 
d="M303 580l-63 127h81l36 -81h2l69 81h88l-113 -127h-100zM31 203q0 129 84 222t209 93q95 0 144.5 -51t49.5 -136q0 -33 -16 -91h-369q-4 -24 -4 -35q0 -55 38.5 -94t106.5 -39q81 0 161 59l27 -76q-32 -26 -86 -46.5t-107 -20.5q-109 0 -173.5 60t-64.5 155zM148 310h270
q3 13 3 29q0 50 -27 77t-71 27q-57 0 -104.5 -35t-70.5 -98z" />
    <glyph glyph-name="Gcircumflex" unicode="&#x11c;" horiz-adv-x="762" 
d="M347 755l113 127h101l62 -127h-81l-36 80h-2l-68 -80h-89zM55 288q0 175 126 302.5t298 127.5q161 0 254 -83l-60 -70q-32 28 -85 45.5t-107 17.5q-136 0 -229.5 -100.5t-93.5 -234.5q0 -98 58.5 -156t152.5 -58q115 0 219 93l19 97h-114l16 86h205l-69 -355h-86l8 45
l7 30h-2q-24 -25 -85 -56t-135 -31q-127 0 -212 83t-85 217z" />
    <glyph glyph-name="gcircumflex" unicode="&#x11d;" horiz-adv-x="593" 
d="M204 580l113 127h101l62 -127h-81l-36 80h-2l-68 -80h-89zM44 -93q53 -33 135 -33q70 0 121.5 34.5t66.5 106.5l7 38l10 35h-2q-60 -82 -156 -82q-90 0 -141.5 56.5t-51.5 148.5q0 73 30 142t92.5 117t144.5 48q122 0 154 -79h3q-1 10 1 20l9 47h92l-95 -492
q-23 -116 -101 -170t-179 -54q-108 0 -182 45zM132 218q0 -59 30.5 -93.5t86.5 -34.5t97 38.5t59.5 90.5t18.5 106q0 109 -116 109q-80 0 -128 -65t-48 -151z" />
    <glyph glyph-name="Gbreve" unicode="&#x11e;" horiz-adv-x="762" 
d="M55 288q0 175 126 302.5t298 127.5q161 0 254 -83l-60 -70q-32 28 -85 45.5t-107 17.5q-136 0 -229.5 -100.5t-93.5 -234.5q0 -98 58.5 -156t152.5 -58q115 0 219 93l19 97h-114l16 86h205l-69 -355h-86l8 45l7 30h-2q-24 -25 -85 -56t-135 -31q-127 0 -212 83t-85 217z
M493 751q-50 0 -84.5 25.5t-34.5 71.5q0 12 5 34h72q-4 -13 -4 -28q0 -45 49 -45q26 0 47.5 17.5t26.5 55.5h73q-10 -67 -51.5 -99t-98.5 -32z" />
    <glyph glyph-name="gbreve" unicode="&#x11f;" horiz-adv-x="593" 
d="M44 -93q53 -33 135 -33q70 0 121.5 34.5t66.5 106.5l7 38l10 35h-2q-60 -82 -156 -82q-90 0 -141.5 56.5t-51.5 148.5q0 73 30 142t92.5 117t144.5 48q122 0 154 -79h3q-1 10 1 20l9 47h92l-95 -492q-23 -116 -101 -170t-179 -54q-108 0 -182 45zM132 218
q0 -59 30.5 -93.5t86.5 -34.5t97 38.5t59.5 90.5t18.5 106q0 109 -116 109q-80 0 -128 -65t-48 -151zM351 576q-50 0 -84.5 25.5t-34.5 71.5q0 12 5 34h72q-4 -13 -4 -28q0 -45 49 -45q26 0 47.5 17.5t26.5 55.5h73q-10 -67 -51.5 -99t-98.5 -32z" />
    <glyph glyph-name="Gdotaccent" unicode="&#x120;" horiz-adv-x="762" 
d="M55 288q0 175 126 302.5t298 127.5q161 0 254 -83l-60 -70q-32 28 -85 45.5t-107 17.5q-136 0 -229.5 -100.5t-93.5 -234.5q0 -98 58.5 -156t152.5 -58q115 0 219 93l19 97h-114l16 86h205l-69 -355h-86l8 45l7 30h-2q-24 -25 -85 -56t-135 -31q-127 0 -212 83t-85 217z
M452 784l19 98h86l-19 -98h-86z" />
    <glyph glyph-name="gdotaccent" unicode="&#x121;" horiz-adv-x="593" 
d="M44 -93q53 -33 135 -33q70 0 121.5 34.5t66.5 106.5l7 38l10 35h-2q-60 -82 -156 -82q-90 0 -141.5 56.5t-51.5 148.5q0 73 30 142t92.5 117t144.5 48q122 0 154 -79h3q-1 10 1 20l9 47h92l-95 -492q-23 -116 -101 -170t-179 -54q-108 0 -182 45zM132 218
q0 -59 30.5 -93.5t86.5 -34.5t97 38.5t59.5 90.5t18.5 106q0 109 -116 109q-80 0 -128 -65t-48 -151zM310 609l19 98h86l-19 -98h-86z" />
    <glyph glyph-name="Gcommaaccent" unicode="&#x122;" horiz-adv-x="762" 
d="M284 -59h85v-15q0 -59 -46 -130h-74q38 68 38 116q0 12 -3 29zM55 288q0 175 126 302.5t298 127.5q161 0 254 -83l-60 -70q-32 28 -85 45.5t-107 17.5q-136 0 -229.5 -100.5t-93.5 -234.5q0 -98 58.5 -156t152.5 -58q115 0 219 93l19 97h-114l16 86h205l-69 -355h-86
l8 45l7 30h-2q-24 -25 -85 -56t-135 -31q-127 0 -212 83t-85 217z" />
    <glyph glyph-name="gcommaaccent" unicode="&#x123;" horiz-adv-x="593" 
d="M384 563h-85v15q0 58 46 128h74q-38 -68 -38 -114q0 -12 3 -29zM44 -93q53 -33 135 -33q70 0 121.5 34.5t66.5 106.5l7 38l10 35h-2q-60 -82 -156 -82q-90 0 -141.5 56.5t-51.5 148.5q0 73 30 142t92.5 117t144.5 48q122 0 154 -79h3q-1 10 1 20l9 47h92l-95 -492
q-23 -116 -101 -170t-179 -54q-108 0 -182 45zM132 218q0 -59 30.5 -93.5t86.5 -34.5t97 38.5t59.5 90.5t18.5 106q0 109 -116 109q-80 0 -128 -65t-48 -151z" />
    <glyph glyph-name="Hcircumflex" unicode="&#x124;" horiz-adv-x="751" 
d="M324 755l113 127h101l62 -127h-81l-36 80h-2l-68 -80h-89zM36 0l138 706h98l-60 -310h367l60 310h98l-137 -706h-99l60 310h-366l-61 -310h-98z" />
    <glyph glyph-name="hcircumflex" unicode="&#x125;" horiz-adv-x="602" 
d="M73 755l113 127h101l62 -127h-81l-36 80h-2l-68 -80h-89zM18 0l137 706h97l-50 -259l-12 -45h2q24 44 80.5 80t123.5 36q70 0 109.5 -33.5t39.5 -100.5q0 -24 -7 -64l-62 -320h-97l58 299q7 37 7 57q0 73 -76 73q-73 0 -133 -58.5t-76 -139.5l-44 -231h-97z" />
    <glyph glyph-name="Hbar" unicode="&#x126;" horiz-adv-x="763" 
d="M43 0l100 514h-62l13 67h63l24 125h98l-24 -125h367l24 125h99l-25 -125h63l-13 -67h-64l-100 -514h-98l61 310h-367l-61 -310h-98zM219 396h366l23 118h-367z" />
    <glyph glyph-name="hbar" unicode="&#x127;" horiz-adv-x="602" 
d="M18 0l108 563h-70l13 63h70l16 80h97l-16 -80h134l-12 -63h-134l-22 -116l-12 -45h2q24 44 80.5 80t123.5 36q70 0 109.5 -33.5t39.5 -100.5q0 -24 -7 -64l-62 -320h-97l58 299q7 37 7 57q0 73 -76 73q-73 0 -133 -58.5t-76 -139.5l-44 -231h-97z" />
    <glyph glyph-name="Itilde" unicode="&#x128;" horiz-adv-x="286" 
d="M36 0l138 706h98l-138 -706h-98zM71 756q23 127 118 127q27 0 46 -17t33 -34t30 -17q38 0 49 65h70q-23 -127 -118 -127q-26 0 -45 17t-34 34t-31 17q-35 0 -48 -65h-70z" />
    <glyph glyph-name="itilde" unicode="&#x129;" horiz-adv-x="246" 
d="M18 0l98 506h96l-98 -506h-96zM18 581q23 127 118 127q27 0 46 -17t33 -34t30 -17q38 0 49 65h70q-23 -127 -118 -127q-26 0 -45 17t-34 34t-31 17q-35 0 -48 -65h-70z" />
    <glyph glyph-name="Imacron" unicode="&#x12a;" horiz-adv-x="286" 
d="M36 0l138 706h98l-138 -706h-98zM111 784l13 71h254l-13 -71h-254z" />
    <glyph glyph-name="imacron" unicode="&#x12b;" horiz-adv-x="246" 
d="M18 0l98 506h96l-98 -506h-96zM58 609l13 71h254l-13 -71h-254z" />
    <glyph glyph-name="Ibreve" unicode="&#x12c;" horiz-adv-x="286" 
d="M36 0l138 706h98l-138 -706h-98zM237 751q-50 0 -84.5 25.5t-34.5 71.5q0 12 5 34h72q-4 -13 -4 -28q0 -45 49 -45q26 0 47.5 17.5t26.5 55.5h73q-10 -67 -51.5 -99t-98.5 -32z" />
    <glyph glyph-name="ibreve" unicode="&#x12d;" horiz-adv-x="246" 
d="M18 0l98 506h96l-98 -506h-96zM184 576q-50 0 -84.5 25.5t-34.5 71.5q0 12 5 34h72q-4 -13 -4 -28q0 -45 49 -45q26 0 47.5 17.5t26.5 55.5h73q-10 -67 -51.5 -99t-98.5 -32z" />
    <glyph glyph-name="Iogonek" unicode="&#x12e;" horiz-adv-x="287" 
d="M36 0l138 706h98l-138 -705l1 -1q-84 -60 -84 -96q0 -14 12 -23t24 -11l12 -2l-37 -75q-4 0 -10.5 1t-24 6.5t-30.5 13.5t-23.5 24t-10.5 36q0 65 87 126h-14z" />
    <glyph glyph-name="iogonek" unicode="&#x12f;" horiz-adv-x="246" 
d="M18 0l98 506h97l-99 -506q-84 -60 -84 -96q0 -14 12 -23t24 -11l12 -2l-37 -75q-4 0 -10.5 1t-23.5 6.5t-30 13.5t-23.5 24t-10.5 36q0 65 87 126h-12zM134 608l20 98h100l-20 -98h-100z" />
    <glyph glyph-name="Idotaccent" unicode="&#x130;" horiz-adv-x="286" 
d="M36 0l138 706h98l-138 -706h-98zM195 784l19 98h86l-19 -98h-86z" />
    <glyph glyph-name="dotlessi" unicode="&#x131;" horiz-adv-x="246" 
d="M18 0l98 506h96l-98 -506h-96z" />
    <glyph glyph-name="IJ" unicode="&#x132;" horiz-adv-x="608" 
d="M226 -4l17 89q25 0 48 6t48 21.5t44.5 48t28.5 79.5l91 466h98l-91 -467q-14 -74 -43 -124.5t-69 -75t-80.5 -34t-91.5 -9.5zM36 0l138 706h98l-138 -706h-98z" />
    <glyph glyph-name="ij" unicode="&#x133;" horiz-adv-x="494" 
d="M134 608l20 98h100l-20 -98h-100zM18 0l98 506h97l-99 -506h-96zM379 608l20 98h99l-19 -98h-100zM262 -11l100 517h96l-101 -522q-9 -48 -29.5 -84.5t-43.5 -56t-51.5 -31.5t-49.5 -15t-43 -3q-31 0 -46 2l16 83q8 -2 22 -2q17 0 33.5 4t37 14.5t36.5 34.5t23 59z" />
    <glyph glyph-name="Jcircumflex" unicode="&#x134;" horiz-adv-x="530" 
d="M248 755l113 127h101l62 -127h-81l-36 80h-2l-68 -80h-89zM3 155q0 26 5 52l6 31h98l-5 -29q-4 -28 -4 -40q0 -90 89 -90q47 0 84.5 30.5t49.5 95.5l80 415h-176l17 86h275l-99 -511q-14 -71 -51.5 -119t-83 -68t-98.5 -20q-80 0 -133.5 42.5t-53.5 124.5z" />
    <glyph glyph-name="jcircumflex" unicode="&#x135;" horiz-adv-x="247" 
d="M35 579l113 127h101l63 -127h-82l-36 81h-2l-68 -81h-89zM16 -11l100 517h97l-101 -522q-9 -48 -29.5 -84.5t-43.5 -56t-52 -31.5t-50 -15t-43 -3l-46 2l16 83q9 -2 22 -2q107 0 130 112z" />
    <glyph glyph-name="Kcommaaccent" unicode="&#x136;" horiz-adv-x="615" 
d="M211 -59h85v-15q0 -59 -46 -130h-74q38 68 38 116q0 12 -3 29zM36 0l138 706h98l-58 -297h101l240 297h116l-278 -339v-2l147 -365h-105l-126 323h-111l-64 -323h-98z" />
    <glyph glyph-name="kcommaaccent" unicode="&#x137;" horiz-adv-x="523" 
d="M177 -59h85v-15q0 -59 -46 -130h-74q38 68 38 116q0 12 -3 29zM18 0l138 706h96l-75 -386h69l175 186h117l-216 -227v-2l131 -277h-105l-107 237h-79l-47 -237h-97z" />
    <glyph glyph-name="kgreenlandic" unicode="&#x138;" horiz-adv-x="523" 
d="M18 0l98 506h97l-38 -199h70l183 199h119l-228 -241v-2l126 -263h-107l-100 225h-79l-45 -225h-96z" />
    <glyph glyph-name="Lacute" unicode="&#x139;" horiz-adv-x="519" 
d="M187 755l98 127h110l-121 -127h-87zM36 0l138 706h98l-121 -620h317l-18 -86h-414z" />
    <glyph glyph-name="lacute" unicode="&#x13a;" horiz-adv-x="271" 
d="M164 755l98 127h110l-121 -127h-87zM41 102q0 21 4 44l109 560h97l-106 -548q-4 -26 -4 -34q0 -41 45 -41q8 0 16 1l-17 -86q-18 -3 -30 -3q-48 0 -81 24t-33 83z" />
    <glyph glyph-name="Lcommaaccent" unicode="&#x13b;" horiz-adv-x="519" 
d="M196 -59h85v-15q0 -59 -46 -130h-74q38 68 38 116q0 12 -3 29zM36 0l138 706h98l-121 -620h317l-18 -86h-414z" />
    <glyph glyph-name="lcommaaccent" unicode="&#x13c;" horiz-adv-x="271" 
d="M49 -59h85v-15q0 -59 -46 -130h-74q38 68 38 116q0 12 -3 29zM41 102q0 21 4 44l109 560h97l-106 -548q-4 -26 -4 -34q0 -41 45 -41q8 0 16 1l-17 -86q-18 -3 -30 -3q-48 0 -81 24t-33 83z" />
    <glyph glyph-name="Lcaron" unicode="&#x13d;" horiz-adv-x="520" 
d="M358 705h85v-15q0 -59 -46 -130h-74q38 68 38 116q0 12 -3 29zM36 0l138 706h98l-121 -620h317l-18 -86h-414z" />
    <glyph glyph-name="lcaron" unicode="&#x13e;" horiz-adv-x="279" 
d="M308 705h85v-15q0 -59 -46 -130h-74q38 68 38 116q0 12 -3 29zM41 102q0 21 4 44l109 560h97l-106 -548q-4 -26 -4 -34q0 -41 45 -41q8 0 16 1l-17 -86q-18 -3 -30 -3q-48 0 -81 24t-33 83z" />
    <glyph glyph-name="Ldot" unicode="&#x13f;" horiz-adv-x="521" 
d="M36 0l138 706h98l-121 -620h317l-18 -86h-414zM298 325l20 105h102l-21 -105h-101z" />
    <glyph glyph-name="ldot" unicode="&#x140;" horiz-adv-x="345" 
d="M41 102q0 21 4 44l109 560h97l-106 -548q-4 -26 -4 -34q0 -41 45 -41q8 0 16 1l-17 -86q-18 -3 -30 -3q-48 0 -81 24t-33 83zM249 325l20 105h102l-21 -105h-101z" />
    <glyph glyph-name="Lslash" unicode="&#x141;" horiz-adv-x="525" 
d="M43 0l58 301l-65 -34l18 97l67 35l59 307h99l-50 -251l122 62l-19 -97l-121 -63l-53 -271h316l-17 -86h-414z" />
    <glyph glyph-name="lslash" unicode="&#x142;" horiz-adv-x="284" 
d="M51 102q0 16 5 44l33 170l-79 -41l18 97l80 42l58 292h96l-46 -237l92 48l-19 -97l-92 -48l-41 -214q-4 -17 -4 -34q0 -41 45 -41q9 0 16 1l-17 -86q-10 -3 -30 -3q-48 0 -81.5 24t-33.5 83z" />
    <glyph glyph-name="Nacute" unicode="&#x143;" horiz-adv-x="746" 
d="M417 755l98 127h110l-121 -127h-87zM36 0l138 706h92l225 -458q8 -17 17.5 -43t15.5 -43l5 -17h2q5 63 13 103l89 458h99l-138 -706h-91l-226 458l-38 103h-2q-6 -63 -13 -103l-90 -458h-98z" />
    <glyph glyph-name="nacute" unicode="&#x144;" horiz-adv-x="602" 
d="M322 580l98 127h110l-121 -127h-87zM18 0l98 506h94l-10 -59l-14 -48h2q24 43 82 81t126 38q70 0 109.5 -33.5t39.5 -100.5q0 -24 -7 -64l-62 -320h-97l58 299q7 37 7 57q0 73 -76 73q-74 0 -133.5 -58.5t-75.5 -139.5l-44 -231h-97z" />
    <glyph glyph-name="Ncommaaccent" unicode="&#x145;" horiz-adv-x="746" 
d="M267 -59h85v-15q0 -59 -46 -130h-74q38 68 38 116q0 12 -3 29zM36 0l138 706h92l225 -458q8 -17 17.5 -43t15.5 -43l5 -17h2q5 63 13 103l89 458h99l-138 -706h-91l-226 458l-38 103h-2q-6 -63 -13 -103l-90 -458h-98z" />
    <glyph glyph-name="ncommaaccent" unicode="&#x146;" horiz-adv-x="602" 
d="M201 -59h85v-15q0 -59 -46 -130h-74q38 68 38 116q0 12 -3 29zM18 0l98 506h94l-10 -59l-14 -48h2q24 43 82 81t126 38q70 0 109.5 -33.5t39.5 -100.5q0 -24 -7 -64l-62 -320h-97l58 299q7 37 7 57q0 73 -76 73q-74 0 -133.5 -58.5t-75.5 -139.5l-44 -231h-97z" />
    <glyph glyph-name="Ncaron" unicode="&#x147;" horiz-adv-x="746" 
d="M417 755l-63 127h81l36 -81h2l69 81h88l-113 -127h-100zM36 0l138 706h92l225 -458q8 -17 17.5 -43t15.5 -43l5 -17h2q5 63 13 103l89 458h99l-138 -706h-91l-226 458l-38 103h-2q-6 -63 -13 -103l-90 -458h-98z" />
    <glyph glyph-name="ncaron" unicode="&#x148;" horiz-adv-x="602" 
d="M322 580l-63 127h81l36 -81h2l69 81h88l-113 -127h-100zM18 0l98 506h94l-10 -59l-14 -48h2q24 43 82 81t126 38q70 0 109.5 -33.5t39.5 -100.5q0 -24 -7 -64l-62 -320h-97l58 299q7 37 7 57q0 73 -76 73q-74 0 -133.5 -58.5t-75.5 -139.5l-44 -231h-97z" />
    <glyph glyph-name="napostrophe" unicode="&#x149;" horiz-adv-x="602" 
d="M83 705h85v-15q0 -59 -46 -130h-74q38 68 38 116q0 12 -3 29zM18 0l98 506h94l-10 -59l-14 -48h2q24 43 82 81t126 38q70 0 109.5 -33.5t39.5 -100.5q0 -24 -7 -64l-62 -320h-97l58 299q7 37 7 57q0 73 -76 73q-74 0 -133.5 -58.5t-75.5 -139.5l-44 -231h-97z" />
    <glyph glyph-name="Eng" unicode="&#x14a;" horiz-adv-x="746" 
d="M36 0l138 706h92l225 -458q8 -17 17.5 -43t15.5 -43l5 -17h2q5 63 13 103l89 458h99l-131 -667q-15 -76 -44.5 -127t-70.5 -75t-80 -32.5t-88 -8.5l17 89q124 0 162 126l-220 447l-38 103h-2q-6 -63 -13 -103l-90 -458h-98z" />
    <glyph glyph-name="eng" unicode="&#x14b;" horiz-adv-x="602" 
d="M18 0l98 506h94l-10 -59l-14 -48h2q24 43 82 81t126 38q70 0 109.5 -33.5t39.5 -100.5q0 -24 -7 -64l-66 -339q-9 -48 -29.5 -84.5t-43.5 -56t-51.5 -31.5t-49.5 -15t-43 -3l-46 2l16 83q9 -1 22 -1q17 0 33.5 4t37.5 14t36.5 34t22.5 59l60 313q7 37 7 57q0 73 -76 73
q-74 0 -133.5 -58.5t-75.5 -139.5l-44 -231h-97z" />
    <glyph glyph-name="Omacron" unicode="&#x14c;" horiz-adv-x="823" 
d="M378 784l13 71h254l-13 -71h-254zM56 296q0 111 60 209t157.5 155.5t203.5 57.5q140 0 227 -84t87 -216q0 -113 -60.5 -213.5t-158 -158.5t-202.5 -58q-141 0 -227.5 86.5t-86.5 221.5zM157 300q0 -98 59.5 -159.5t153.5 -61.5q122 0 220.5 99.5t98.5 234.5
q0 95 -59.5 155t-153.5 60q-123 0 -221 -97.5t-98 -230.5z" />
    <glyph glyph-name="omacron" unicode="&#x14d;" horiz-adv-x="628" 
d="M248 609l13 71h254l-13 -71h-254zM30 211q0 127 95 217t217 90q107 0 173.5 -61.5t66.5 -159.5q0 -129 -95.5 -219t-216.5 -90q-107 0 -173.5 61.5t-66.5 161.5zM129 215q0 -64 39.5 -103.5t102.5 -39.5q81 0 146.5 64t65.5 156q0 63 -40 102.5t-102 39.5q-82 0 -147 -64
t-65 -155z" />
    <glyph glyph-name="Obreve" unicode="&#x14e;" horiz-adv-x="823" 
d="M56 296q0 111 60 209t157.5 155.5t203.5 57.5q140 0 227 -84t87 -216q0 -113 -60.5 -213.5t-158 -158.5t-202.5 -58q-141 0 -227.5 86.5t-86.5 221.5zM157 300q0 -98 59.5 -159.5t153.5 -61.5q122 0 220.5 99.5t98.5 234.5q0 95 -59.5 155t-153.5 60q-123 0 -221 -97.5
t-98 -230.5zM505 751q-50 0 -84.5 25.5t-34.5 71.5q0 12 5 34h72q-4 -13 -4 -28q0 -45 49 -45q26 0 47.5 17.5t26.5 55.5h73q-10 -67 -51.5 -99t-98.5 -32z" />
    <glyph glyph-name="obreve" unicode="&#x14f;" horiz-adv-x="628" 
d="M30 211q0 127 95 217t217 90q107 0 173.5 -61.5t66.5 -159.5q0 -129 -95.5 -219t-216.5 -90q-107 0 -173.5 61.5t-66.5 161.5zM129 215q0 -64 39.5 -103.5t102.5 -39.5q81 0 146.5 64t65.5 156q0 63 -40 102.5t-102 39.5q-82 0 -147 -64t-65 -155zM374 576
q-50 0 -84.5 25.5t-34.5 71.5q0 12 5 34h72q-4 -13 -4 -28q0 -45 49 -45q26 0 47.5 17.5t26.5 55.5h73q-10 -67 -51.5 -99t-98.5 -32z" />
    <glyph glyph-name="Ohungarumlaut" unicode="&#x150;" horiz-adv-x="823" 
d="M520 755l98 127h105l-120 -127h-83zM365 755l94 127h92l-97 -127h-89zM56 296q0 111 60 209t157.5 155.5t203.5 57.5q140 0 227 -84t87 -216q0 -113 -60.5 -213.5t-158 -158.5t-202.5 -58q-141 0 -227.5 86.5t-86.5 221.5zM157 300q0 -98 59.5 -159.5t153.5 -61.5
q122 0 220.5 99.5t98.5 234.5q0 95 -59.5 155t-153.5 60q-123 0 -221 -97.5t-98 -230.5z" />
    <glyph glyph-name="ohungarumlaut" unicode="&#x151;" horiz-adv-x="628" 
d="M389 580l98 127h105l-120 -127h-83zM234 580l94 127h92l-97 -127h-89zM30 211q0 127 95 217t217 90q107 0 173.5 -61.5t66.5 -159.5q0 -129 -95.5 -219t-216.5 -90q-107 0 -173.5 61.5t-66.5 161.5zM129 215q0 -64 39.5 -103.5t102.5 -39.5q81 0 146.5 64t65.5 156
q0 63 -40 102.5t-102 39.5q-82 0 -147 -64t-65 -155z" />
    <glyph glyph-name="OE" unicode="&#x152;" horiz-adv-x="954" 
d="M55 292q0 112 59 210.5t156 155.5t206 57q31 0 76.5 -4.5t65.5 -4.5h358l-17 -86h-311l-44 -221h254l-17 -86h-254l-44 -227h330l-17 -86h-364q-15 0 -56.5 -4.5t-67.5 -4.5q-141 0 -227 84.5t-86 216.5zM156 292q0 -94 59 -153.5t158 -59.5q32 0 72 8l104 533
q-63 7 -70 7q-131 0 -227 -99t-96 -236z" />
    <glyph glyph-name="oe" unicode="&#x153;" horiz-adv-x="1002" 
d="M30 211q0 127 95 217t217 90q71 0 124 -32.5t79 -87.5h2q39 56 97 88t126 32q95 0 144 -51t49 -136q0 -44 -15 -91h-369q-3 -14 -3 -44q4 -59 43.5 -91.5t99.5 -32.5q78 0 162 59l27 -76q-33 -27 -87.5 -47t-105.5 -20q-75 0 -129 32.5t-79 90.5h-2q-42 -57 -105 -90
t-130 -33q-107 0 -173.5 61.5t-66.5 161.5zM594 310h270q3 9 3 33q0 47 -27 72.5t-71 25.5q-57 0 -104.5 -34.5t-70.5 -96.5zM129 215q0 -64 39.5 -103.5t102.5 -39.5q81 0 146.5 64t65.5 156q0 63 -40 102.5t-102 39.5q-82 0 -147 -64t-65 -155z" />
    <glyph glyph-name="Racute" unicode="&#x154;" horiz-adv-x="625" 
d="M350 755l98 127h110l-121 -127h-87zM36 0l138 706h240q61 0 101 -18q42 -20 65.5 -58.5t23.5 -89.5q0 -80 -46 -145.5t-123 -87.5v-2q5 -9 13 -32l97 -273h-105l-96 281h-155l-54 -281h-99zM206 367h139q67 0 112.5 44t45.5 115q0 45 -28 69.5t-78 24.5h-142z" />
    <glyph glyph-name="racute" unicode="&#x155;" horiz-adv-x="377" 
d="M234 580l98 127h110l-121 -127h-87zM18 0l98 506h94l-18 -88l-11 -40h2q27 56 76.5 95t106.5 39q8 0 30 -2l-19 -96q-18 2 -27 2q-67 0 -124 -69.5t-76 -161.5l-35 -185h-97z" />
    <glyph glyph-name="Rcommaaccent" unicode="&#x156;" horiz-adv-x="625" 
d="M225 -59h85v-15q0 -59 -46 -130h-74q38 68 38 116q0 12 -3 29zM36 0l138 706h240q61 0 101 -18q42 -20 65.5 -58.5t23.5 -89.5q0 -80 -46 -145.5t-123 -87.5v-2q5 -9 13 -32l97 -273h-105l-96 281h-155l-54 -281h-99zM206 367h139q67 0 112.5 44t45.5 115q0 45 -28 69.5
t-78 24.5h-142z" />
    <glyph glyph-name="rcommaaccent" unicode="&#x157;" horiz-adv-x="377" 
d="M19 -59h85v-15q0 -59 -46 -130h-74q38 68 38 116q0 12 -3 29zM18 0l98 506h94l-18 -88l-11 -40h2q27 56 76.5 95t106.5 39q8 0 30 -2l-19 -96q-18 2 -27 2q-67 0 -124 -69.5t-76 -161.5l-35 -185h-97z" />
    <glyph glyph-name="Rcaron" unicode="&#x158;" horiz-adv-x="625" 
d="M349 755l-63 127h81l36 -81h2l69 81h88l-113 -127h-100zM36 0l138 706h240q61 0 101 -18q42 -20 65.5 -58.5t23.5 -89.5q0 -80 -46 -145.5t-123 -87.5v-2q5 -9 13 -32l97 -273h-105l-96 281h-155l-54 -281h-99zM206 367h139q67 0 112.5 44t45.5 115q0 45 -28 69.5
t-78 24.5h-142z" />
    <glyph glyph-name="rcaron" unicode="&#x159;" horiz-adv-x="377" 
d="M234 580l-63 127h81l36 -81h2l69 81h88l-113 -127h-100zM18 0l98 506h94l-18 -88l-11 -40h2q27 56 76.5 95t106.5 39q8 0 30 -2l-19 -96q-18 2 -27 2q-67 0 -124 -69.5t-76 -161.5l-35 -185h-97z" />
    <glyph glyph-name="Sacute" unicode="&#x15a;" horiz-adv-x="549" 
d="M317 755l98 127h110l-121 -127h-87zM4 81l62 70q75 -71 170 -71q59 0 103 31t44 86q0 37 -29 65t-70.5 48.5t-83.5 44t-71 63.5t-29 95q0 93 74.5 149t174.5 56q70 0 122.5 -23.5t80.5 -50.5l-56 -73q-61 56 -148 56q-57 0 -103 -30.5t-46 -82.5q0 -35 29.5 -61.5
t71 -46.5t83 -44t71 -65.5t29.5 -97.5q0 -91 -70.5 -151t-177.5 -60q-78 0 -140.5 31t-90.5 62z" />
    <glyph glyph-name="sacute" unicode="&#x15b;" horiz-adv-x="446" 
d="M231 580l98 127h110l-121 -127h-87zM-7 60l49 66q23 -25 61.5 -40.5t77.5 -15.5q43 0 73 18.5t30 52.5q0 25 -22.5 43t-55 31.5t-65 29.5t-55 46.5t-22.5 74.5q0 70 57.5 111t139.5 41q99 0 163 -56l-45 -68q-45 42 -120 42q-42 0 -72 -17.5t-30 -51.5q0 -25 22.5 -43
t55 -31t65 -29.5t55 -47t22.5 -74.5q0 -69 -54.5 -111.5t-139.5 -42.5q-118 0 -190 72z" />
    <glyph glyph-name="Scircumflex" unicode="&#x15c;" horiz-adv-x="549" 
d="M221 755l113 127h101l62 -127h-81l-36 80h-2l-68 -80h-89zM4 81l62 70q75 -71 170 -71q59 0 103 31t44 86q0 37 -29 65t-70.5 48.5t-83.5 44t-71 63.5t-29 95q0 93 74.5 149t174.5 56q70 0 122.5 -23.5t80.5 -50.5l-56 -73q-61 56 -148 56q-57 0 -103 -30.5t-46 -82.5
q0 -35 29.5 -61.5t71 -46.5t83 -44t71 -65.5t29.5 -97.5q0 -91 -70.5 -151t-177.5 -60q-78 0 -140.5 31t-90.5 62z" />
    <glyph glyph-name="scircumflex" unicode="&#x15d;" horiz-adv-x="446" 
d="M135 580l113 127h101l62 -127h-81l-36 80h-2l-68 -80h-89zM-7 60l49 66q23 -25 61.5 -40.5t77.5 -15.5q43 0 73 18.5t30 52.5q0 25 -22.5 43t-55 31.5t-65 29.5t-55 46.5t-22.5 74.5q0 70 57.5 111t139.5 41q99 0 163 -56l-45 -68q-45 42 -120 42q-42 0 -72 -17.5
t-30 -51.5q0 -25 22.5 -43t55 -31t65 -29.5t55 -47t22.5 -74.5q0 -69 -54.5 -111.5t-139.5 -42.5q-118 0 -190 72z" />
    <glyph glyph-name="Scedilla" unicode="&#x15e;" horiz-adv-x="550" 
d="M156 -88l35 79q-63 9 -113.5 37t-72.5 53l62 70q75 -71 170 -71q59 0 103 31t44 86q0 37 -29 65t-71 48.5t-83.5 44t-70.5 63.5t-29 95q0 93 74.5 149t174.5 56q70 0 122.5 -23.5t80.5 -50.5l-56 -73q-61 56 -148 56q-57 0 -103 -30.5t-46 -82.5q0 -35 29.5 -61.5
t71 -46.5t83 -44t71 -65.5t29.5 -97.5q0 -89 -67.5 -148.5t-171.5 -62.5l-16 -38q25 -4 42.5 -20.5t17.5 -44.5q0 -46 -35.5 -69t-79.5 -23q-32 0 -59 7l11 57q16 -6 41 -6q54 0 54 36q0 26 -47 26q-12 0 -18 -1z" />
    <glyph glyph-name="scedilla" unicode="&#x15f;" horiz-adv-x="447" 
d="M101 -88l36 80q-91 13 -144 68l49 66q23 -25 61.5 -40.5t77.5 -15.5q43 0 73 18.5t30 52.5q0 25 -22.5 43t-55 31.5t-65 29.5t-55 46.5t-22.5 74.5q0 70 57.5 111t139.5 41q99 0 163 -56l-45 -68q-45 42 -120 42q-42 0 -72 -17.5t-30 -51.5q0 -25 22.5 -43t55 -31
t65 -29.5t55 -47t22.5 -74.5q0 -67 -52.5 -109.5t-134.5 -44.5l-16 -38q25 -4 42.5 -20.5t17.5 -44.5q0 -46 -35.5 -69t-79.5 -23q-32 0 -59 7l11 57q16 -6 41 -6q54 0 54 36q0 26 -47 26q-12 0 -18 -1z" />
    <glyph glyph-name="Scaron" unicode="&#x160;" horiz-adv-x="549" 
d="M317 755l-63 127h81l36 -81h2l69 81h88l-113 -127h-100zM4 81l62 70q75 -71 170 -71q59 0 103 31t44 86q0 37 -29 65t-70.5 48.5t-83.5 44t-71 63.5t-29 95q0 93 74.5 149t174.5 56q70 0 122.5 -23.5t80.5 -50.5l-56 -73q-61 56 -148 56q-57 0 -103 -30.5t-46 -82.5
q0 -35 29.5 -61.5t71 -46.5t83 -44t71 -65.5t29.5 -97.5q0 -91 -70.5 -151t-177.5 -60q-78 0 -140.5 31t-90.5 62z" />
    <glyph glyph-name="scaron" unicode="&#x161;" horiz-adv-x="446" 
d="M231 580l-63 127h81l36 -81h2l69 81h88l-113 -127h-100zM-7 60l49 66q23 -25 61.5 -40.5t77.5 -15.5q43 0 73 18.5t30 52.5q0 25 -22.5 43t-55 31.5t-65 29.5t-55 46.5t-22.5 74.5q0 70 57.5 111t139.5 41q99 0 163 -56l-45 -68q-45 42 -120 42q-42 0 -72 -17.5
t-30 -51.5q0 -25 22.5 -43t55 -31t65 -29.5t55 -47t22.5 -74.5q0 -69 -54.5 -111.5t-139.5 -42.5q-118 0 -190 72z" />
    <glyph glyph-name="Tcommaaccent" unicode="&#x162;" horiz-adv-x="611" 
d="M197 0l121 620h-242l16 86h583l-16 -86h-243l-120 -620h-24l-21 -50q25 -4 42.5 -20.5t17.5 -44.5q0 -46 -35.5 -69t-79.5 -23q-32 0 -59 7l11 57q16 -6 41 -6q54 0 54 36q0 26 -47 26q-12 0 -18 -1l39 88h-20z" />
    <glyph glyph-name="tcommaaccent" unicode="&#x163;" horiz-adv-x="343" 
d="M85 -88l47 104q-65 36 -65 128q0 22 6 51l44 227h-65l14 79h68l29 144h94l-29 -144h122l-15 -79h-122l-42 -221q-4 -20 -4 -40q0 -79 83 -79q9 0 29 2l-17 -86q-24 -3 -32 -3q-24 0 -51 5l-21 -50q25 -4 42.5 -20.5t17.5 -44.5q0 -46 -35.5 -69t-79.5 -23q-32 0 -59 7
l11 57q16 -6 41 -6q54 0 54 36q0 26 -47 26q-12 0 -18 -1z" />
    <glyph glyph-name="Tcaron" unicode="&#x164;" horiz-adv-x="610" 
d="M345 755l-63 127h81l36 -81h2l69 81h88l-113 -127h-100zM197 0l121 620h-242l16 86h583l-16 -86h-243l-120 -620h-99z" />
    <glyph glyph-name="tcaron" unicode="&#x165;" horiz-adv-x="343" 
d="M335 706h85v-15q0 -57 -46 -127h-74q38 66 38 113q0 13 -3 29zM67 144q0 22 6 51l44 227h-65l14 79h68l29 144h94l-29 -144h122l-15 -79h-122l-42 -221q-4 -20 -4 -40q0 -79 83 -79q9 0 29 2l-17 -86q-24 -3 -32 -3q-32 0 -59 6.5t-51.5 22.5t-38.5 46.5t-14 73.5z" />
    <glyph glyph-name="Tbar" unicode="&#x166;" horiz-adv-x="621" 
d="M203 0l60 310h-156l15 76h156l46 234h-242l16 86h583l-16 -86h-243l-46 -234h161l-15 -76h-161l-60 -310h-98z" />
    <glyph glyph-name="tbar" unicode="&#x167;" horiz-adv-x="347" 
d="M69 144q0 22 6 51l12 64h-66l13 68h66l19 95h-65l14 79h68l29 144h94l-29 -144h122l-15 -79h-122l-18 -95h122l-13 -68h-122q-16 -80 -16 -100q2 -77 84 -77l29 2l-17 -86q-16 -3 -32 -3q-32 0 -59 6.5t-51.5 22.5t-38.5 46.5t-14 73.5z" />
    <glyph glyph-name="Utilde" unicode="&#x168;" horiz-adv-x="726" 
d="M72 197q0 27 6 57l89 452h98l-89 -455q-4 -19 -4 -42q0 -62 39.5 -96t110.5 -34q82 0 139 46t73 128l89 453h98l-91 -461q-23 -119 -106.5 -188t-204.5 -69q-110 0 -178.5 55.5t-68.5 153.5zM291 756q23 127 118 127q27 0 46 -17t33 -34t30 -17q38 0 49 65h70
q-23 -127 -118 -127q-26 0 -45 17t-34 34t-31 17q-35 0 -48 -65h-70z" />
    <glyph glyph-name="utilde" unicode="&#x169;" horiz-adv-x="597" 
d="M41 122q0 24 7 64l62 320h97l-58 -298q-6 -33 -6 -58q0 -72 77 -72q72 0 129.5 60t71.5 138l45 230h97l-98 -506h-95l12 59l13 48h-2q-26 -44 -81 -81.5t-125 -37.5q-65 0 -105.5 32.5t-40.5 101.5zM189 581q23 127 118 127q27 0 46 -17t33 -34t30 -17q38 0 49 65h70
q-23 -127 -118 -127q-26 0 -45 17t-34 34t-31 17q-35 0 -48 -65h-70z" />
    <glyph glyph-name="Umacron" unicode="&#x16a;" horiz-adv-x="726" 
d="M72 197q0 27 6 57l89 452h98l-89 -455q-4 -19 -4 -42q0 -62 39.5 -96t110.5 -34q82 0 139 46t73 128l89 453h98l-91 -461q-23 -119 -106.5 -188t-204.5 -69q-110 0 -178.5 55.5t-68.5 153.5zM331 784l13 71h254l-13 -71h-254z" />
    <glyph glyph-name="umacron" unicode="&#x16b;" horiz-adv-x="597" 
d="M41 122q0 24 7 64l62 320h97l-58 -298q-6 -33 -6 -58q0 -72 77 -72q72 0 129.5 60t71.5 138l45 230h97l-98 -506h-95l12 59l13 48h-2q-26 -44 -81 -81.5t-125 -37.5q-65 0 -105.5 32.5t-40.5 101.5zM228 609l13 71h254l-13 -71h-254z" />
    <glyph glyph-name="Ubreve" unicode="&#x16c;" horiz-adv-x="726" 
d="M72 197q0 27 6 57l89 452h98l-89 -455q-4 -19 -4 -42q0 -62 39.5 -96t110.5 -34q82 0 139 46t73 128l89 453h98l-91 -461q-23 -119 -106.5 -188t-204.5 -69q-110 0 -178.5 55.5t-68.5 153.5zM458 751q-50 0 -84.5 25.5t-34.5 71.5q0 12 5 34h72q-4 -13 -4 -28
q0 -45 49 -45q26 0 47.5 17.5t26.5 55.5h73q-10 -67 -51.5 -99t-98.5 -32z" />
    <glyph glyph-name="ubreve" unicode="&#x16d;" horiz-adv-x="597" 
d="M41 122q0 24 7 64l62 320h97l-58 -298q-6 -33 -6 -58q0 -72 77 -72q72 0 129.5 60t71.5 138l45 230h97l-98 -506h-95l12 59l13 48h-2q-26 -44 -81 -81.5t-125 -37.5q-65 0 -105.5 32.5t-40.5 101.5zM355 576q-50 0 -84.5 25.5t-34.5 71.5q0 12 5 34h72q-4 -13 -4 -28
q0 -45 49 -45q26 0 47.5 17.5t26.5 55.5h73q-10 -67 -51.5 -99t-98.5 -32z" />
    <glyph glyph-name="Uring" unicode="&#x16e;" horiz-adv-x="726" 
d="M455 743q-34 0 -55.5 17t-21.5 48q0 37 29 60.5t65 23.5q35 0 56.5 -17.5t21.5 -48.5q0 -36 -29.5 -59.5t-65.5 -23.5zM458 784q16 0 28 12t12 29q0 12 -7.5 19.5t-20.5 7.5q-16 0 -28 -12.5t-12 -30.5q0 -25 28 -25zM72 197q0 27 6 57l89 452h98l-89 -455q-4 -19 -4 -42
q0 -62 39.5 -96t110.5 -34q82 0 139 46t73 128l89 453h98l-91 -461q-23 -119 -106.5 -188t-204.5 -69q-110 0 -178.5 55.5t-68.5 153.5z" />
    <glyph glyph-name="uring" unicode="&#x16f;" horiz-adv-x="597" 
d="M353 568q-34 0 -55.5 17t-21.5 48q0 37 29 60.5t65 23.5q35 0 56.5 -17.5t21.5 -48.5q0 -36 -29.5 -59.5t-65.5 -23.5zM356 609q16 0 28 12t12 29q0 12 -7.5 19.5t-20.5 7.5q-16 0 -28 -12.5t-12 -30.5q0 -25 28 -25zM41 122q0 24 7 64l62 320h97l-58 -298q-6 -33 -6 -58
q0 -72 77 -72q72 0 129.5 60t71.5 138l45 230h97l-98 -506h-95l12 59l13 48h-2q-26 -44 -81 -81.5t-125 -37.5q-65 0 -105.5 32.5t-40.5 101.5z" />
    <glyph glyph-name="Uhungarumlaut" unicode="&#x170;" horiz-adv-x="726" 
d="M72 197q0 27 6 57l89 452h98l-89 -455q-4 -19 -4 -42q0 -62 39.5 -96t110.5 -34q82 0 139 46t73 128l89 453h98l-91 -461q-23 -119 -106.5 -188t-204.5 -69q-110 0 -178.5 55.5t-68.5 153.5zM472 755l98 127h105l-120 -127h-83zM317 755l94 127h92l-97 -127h-89z" />
    <glyph glyph-name="uhungarumlaut" unicode="&#x171;" horiz-adv-x="597" 
d="M41 122q0 24 7 64l62 320h97l-58 -298q-6 -33 -6 -58q0 -72 77 -72q72 0 129.5 60t71.5 138l45 230h97l-98 -506h-95l12 59l13 48h-2q-26 -44 -81 -81.5t-125 -37.5q-65 0 -105.5 32.5t-40.5 101.5zM370 580l98 127h105l-120 -127h-83zM215 580l94 127h92l-97 -127h-89z
" />
    <glyph glyph-name="Uogonek" unicode="&#x172;" horiz-adv-x="726" 
d="M72 197q0 27 6 57l89 452h97l-88 -455q-5 -17 -5 -42q0 -61 39.5 -95.5t110.5 -34.5q83 0 139.5 45.5t72.5 128.5l89 453h98l-91 -461q-29 -150 -168 -227q-117 -63 -117 -114q0 -14 12.5 -23t25.5 -11l12 -2l-37 -75q-4 0 -10.5 1t-24 6.5t-30.5 13.5t-23.5 24t-10.5 36
q0 57 70 112v2q-106 -3 -181 50.5t-75 158.5z" />
    <glyph glyph-name="uogonek" unicode="&#x173;" horiz-adv-x="597" 
d="M41 122q0 24 7 64l62 320h97l-58 -298q-6 -33 -6 -58q0 -72 77 -72q72 0 129.5 60t71.5 138l45 230h97l-98 -506q-84 -57 -84 -96q0 -14 12 -23t24 -11l12 -2l-38 -75q-4 0 -10.5 1t-24 6.5t-30.5 13.5t-23.5 24t-10.5 36q0 65 88 126h-10l12 59l13 48h-2
q-26 -44 -81 -81.5t-125 -37.5q-65 0 -105.5 32.5t-40.5 101.5z" />
    <glyph glyph-name="Wcircumflex" unicode="&#x174;" horiz-adv-x="944" 
d="M420 755l113 127h101l62 -127h-81l-36 80h-2l-68 -80h-89zM152 0l-48 706h102l25 -518v-75h2q14 36 31 75l244 518h90l32 -518v-75h2q13 38 28 75l226 518h107l-318 -706h-116l-30 458q-1 27 -1.5 60t0.5 39h-2q-21 -53 -42 -99l-218 -458h-114z" />
    <glyph glyph-name="wcircumflex" unicode="&#x175;" horiz-adv-x="824" 
d="M318 580l113 127h101l62 -127h-81l-36 80h-2l-68 -80h-89zM127 0l-64 506h97l36 -356l2 -54h2q12 28 24 54l179 355h89l39 -355l3 -54h2q10 27 23 54l176 356h104l-262 -506h-106l-42 327l-4 55h-2q-11 -29 -24 -55l-167 -327h-105z" />
    <glyph glyph-name="Ycircumflex" unicode="&#x176;" horiz-adv-x="592" 
d="M183 0l59 299l-155 407h106l84 -232l27 -89h2q31 47 60 89l173 232h119l-318 -410l-58 -296h-99zM236 755l113 127h101l62 -127h-81l-36 80h-2l-68 -80h-89z" />
    <glyph glyph-name="ycircumflex" unicode="&#x177;" horiz-adv-x="539" 
d="M-30 -108q22 -19 56 -19q59 0 106 74l37 60l-116 499h101l69 -343l7 -58h1q15 32 29 57l190 344h109l-355 -599q-70 -117 -175 -117q-57 0 -104 33zM181 580l113 127h101l62 -127h-81l-36 80h-2l-68 -80h-89z" />
    <glyph glyph-name="Ydieresis" unicode="&#x178;" horiz-adv-x="592" 
d="M183 0l59 299l-155 407h106l84 -232l27 -89h2q31 47 60 89l173 232h119l-318 -410l-58 -296h-99zM429 781l19 101h80l-20 -101h-79zM261 781l20 101h80l-20 -101h-80z" />
    <glyph glyph-name="Zacute" unicode="&#x179;" horiz-adv-x="591" 
d="M349 755l98 127h110l-121 -127h-87zM-23 0l14 66l426 490q16 18 32 34t24 23l8 7v2q-18 -2 -52 -2h-314l17 86h495l-12 -65l-429 -491q-16 -18 -32 -34t-24 -23l-8 -7v-2q18 2 52 2h336l-17 -86h-516z" />
    <glyph glyph-name="zacute" unicode="&#x17a;" horiz-adv-x="508" 
d="M260 580l98 127h110l-121 -127h-87zM-21 0l10 56l313 320l50 47v2q-15 -2 -47 -2h-234l16 83h417l-11 -56l-314 -320l-51 -47v-2q17 3 50 3h252l-16 -84h-435z" />
    <glyph glyph-name="Zdotaccent" unicode="&#x17b;" horiz-adv-x="591" 
d="M-23 0l14 66l426 490q16 18 32 34t24 23l8 7v2q-18 -2 -52 -2h-314l17 86h495l-12 -65l-429 -491q-16 -18 -32 -34t-24 -23l-8 -7v-2q18 2 52 2h336l-17 -86h-516zM359 784l19 98h86l-19 -98h-86z" />
    <glyph glyph-name="zdotaccent" unicode="&#x17c;" horiz-adv-x="508" 
d="M-21 0l10 56l313 320l50 47v2q-15 -2 -47 -2h-234l16 83h417l-11 -56l-314 -320l-51 -47v-2q17 3 50 3h252l-16 -84h-435zM269 609l19 98h86l-19 -98h-86z" />
    <glyph glyph-name="Zcaron" unicode="&#x17d;" horiz-adv-x="591" 
d="M349 755l-63 127h81l36 -81h2l69 81h88l-113 -127h-100zM-23 0l14 66l426 490q16 18 32 34t24 23l8 7v2q-18 -2 -52 -2h-314l17 86h495l-12 -65l-429 -491q-16 -18 -32 -34t-24 -23l-8 -7v-2q18 2 52 2h336l-17 -86h-516z" />
    <glyph glyph-name="zcaron" unicode="&#x17e;" horiz-adv-x="508" 
d="M260 580l-63 127h81l36 -81h2l69 81h88l-113 -127h-100zM-21 0l10 56l313 320l50 47v2q-15 -2 -47 -2h-234l16 83h417l-11 -56l-314 -320l-51 -47v-2q17 3 50 3h252l-16 -84h-435z" />
    <glyph glyph-name="longs" unicode="&#x17f;" horiz-adv-x="291" 
d="M42 0l82 422h-63l15 79h63l4 24q9 47 30 82.5t44 54.5t52.5 31t51 15t42.5 3l44 -3l-18 -84q-8 2 -24 2q-105 0 -125 -104l-101 -522h-97z" />
    <glyph glyph-name="florin" unicode="&#x192;" horiz-adv-x="577" 
d="M-28 -22q32 -5 62 -5q106 0 137 111l75 266h-82l15 78h89l32 111q16 56 45 94.5t64 55.5t63 23t57 6q44 0 95 -8l-17 -83q-40 7 -78 7q-103 0 -135 -111l-28 -95h117l-15 -78h-124l-80 -284q-16 -56 -45 -94t-64.5 -54.5t-63 -22.5t-56.5 -6q-36 0 -80 7z" />
    <glyph glyph-name="Scommaaccent" unicode="&#x218;" horiz-adv-x="549" 
d="M158 -59h85v-15q0 -59 -46 -130h-74q38 68 38 116q0 12 -3 29zM4 81l62 70q75 -71 170 -71q59 0 103 31t44 86q0 37 -29 65t-70.5 48.5t-83.5 44t-71 63.5t-29 95q0 93 74.5 149t174.5 56q70 0 122.5 -23.5t80.5 -50.5l-56 -73q-61 56 -148 56q-57 0 -103 -30.5
t-46 -82.5q0 -35 29.5 -61.5t71 -46.5t83 -44t71 -65.5t29.5 -97.5q0 -91 -70.5 -151t-177.5 -60q-78 0 -140.5 31t-90.5 62z" />
    <glyph glyph-name="scommaaccent" unicode="&#x219;" horiz-adv-x="446" 
d="M114 -59h85v-15q0 -59 -46 -130h-74q38 68 38 116q0 12 -3 29zM-7 60l49 66q23 -25 61.5 -40.5t77.5 -15.5q43 0 73 18.5t30 52.5q0 25 -22.5 43t-55 31.5t-65 29.5t-55 46.5t-22.5 74.5q0 70 57.5 111t139.5 41q99 0 163 -56l-45 -68q-45 42 -120 42q-42 0 -72 -17.5
t-30 -51.5q0 -25 22.5 -43t55 -31t65 -29.5t55 -47t22.5 -74.5q0 -69 -54.5 -111.5t-139.5 -42.5q-118 0 -190 72z" />
    <glyph glyph-name="uni021A" unicode="&#x21a;" horiz-adv-x="610" 
d="M190 -59h85v-15q0 -59 -46 -130h-74q38 68 38 116q0 12 -3 29zM197 0l121 620h-242l16 86h583l-16 -86h-243l-120 -620h-99z" />
    <glyph glyph-name="uni021B" unicode="&#x21b;" horiz-adv-x="343" 
d="M111 -59h85v-15q0 -59 -46 -130h-74q38 68 38 116q0 12 -3 29zM67 144q0 22 6 51l44 227h-65l14 79h68l29 144h94l-29 -144h122l-15 -79h-122l-42 -221q-4 -20 -4 -40q0 -79 83 -79q9 0 29 2l-17 -86q-24 -3 -32 -3q-32 0 -59 6.5t-51.5 22.5t-38.5 46.5t-14 73.5z" />
    <glyph glyph-name="circumflex" unicode="&#x2c6;" horiz-adv-x="499" 
d="M40 755l113 127h101l62 -127h-81l-36 80h-2l-68 -80h-89z" />
    <glyph glyph-name="caron" unicode="&#x2c7;" horiz-adv-x="499" 
d="M136 755l-63 127h81l36 -81h2l69 81h88l-113 -127h-100z" />
    <glyph glyph-name="breve" unicode="&#x2d8;" horiz-adv-x="499" 
d="M187 751q-50 0 -84.5 25.5t-34.5 71.5q0 12 5 34h72q-4 -13 -4 -28q0 -45 49 -45q26 0 47.5 17.5t26.5 55.5h73q-10 -67 -51.5 -99t-98.5 -32z" />
    <glyph glyph-name="dotaccent" unicode="&#x2d9;" horiz-adv-x="500" 
d="M146 784l19 98h86l-19 -98h-86z" />
    <glyph glyph-name="ring" unicode="&#x2da;" horiz-adv-x="500" 
d="M185 743q-34 0 -55.5 17t-21.5 48q0 37 29 60.5t65 23.5q35 0 56.5 -17.5t21.5 -48.5q0 -36 -29.5 -59.5t-65.5 -23.5zM188 784q16 0 28 12t12 29q0 12 -7.5 19.5t-20.5 7.5q-16 0 -28 -12.5t-12 -30.5q0 -25 28 -25z" />
    <glyph glyph-name="ogonek" unicode="&#x2db;" horiz-adv-x="499" 
d="M107 -126q0 76 123 149l61 -13q-11 -7 -27 -18t-43 -39.5t-27 -48.5q0 -14 12 -23t24 -11l12 -2l-37 -75q-4 0 -10.5 1t-23.5 6.5t-30 13.5t-23.5 24t-10.5 36z" />
    <glyph glyph-name="tilde" unicode="&#x2dc;" horiz-adv-x="499" 
d="M20 756q23 127 118 127q27 0 46 -17t33 -34t30 -17q38 0 49 65h70q-23 -127 -118 -127q-26 0 -45 17t-34 34t-31 17q-35 0 -48 -65h-70z" />
    <glyph glyph-name="hungarumlaut" unicode="&#x2dd;" horiz-adv-x="499" 
d="M171 755l98 127h105l-120 -127h-83zM16 755l94 127h92l-97 -127h-89z" />
    <glyph glyph-name="uni0400" unicode="&#x400;" horiz-adv-x="563" 
d="M36 0l138 706h410l-18 -86h-311l-43 -221h253l-17 -86h-252l-45 -227h328l-16 -86h-427zM374 755l-70 127h99l48 -127h-77z" />
    <glyph glyph-name="uni0401" unicode="&#x401;" horiz-adv-x="563" 
d="M446 781l19 101h80l-20 -101h-79zM278 781l20 101h80l-20 -101h-80zM36 0l138 706h410l-18 -86h-311l-43 -221h253l-17 -86h-252l-45 -227h328l-16 -86h-427z" />
    <glyph glyph-name="uni0402" unicode="&#x402;" horiz-adv-x="732" 
d="M147 0l121 620h-194l17 86h524l-17 -86h-232l-38 -196l-7 -30h2q88 39 178 39t139.5 -49.5t49.5 -132.5q0 -105 -73.5 -184t-192.5 -79q-26 0 -53 3l16 84q14 -3 35 -3q73 0 120.5 49t47.5 118q0 106 -121 106q-83 0 -166 -45l-57 -300h-99z" />
    <glyph glyph-name="uni0403" unicode="&#x403;" horiz-adv-x="498" 
d="M315 755l98 127h110l-121 -127h-87zM36 0l138 706h388l-16 -86h-291l-121 -620h-98z" />
    <glyph glyph-name="uni0404" unicode="&#x404;" horiz-adv-x="718" 
d="M55 291q0 109 56.5 207t156 159t216.5 61q71 0 137 -23t108 -69l-56 -73q-34 35 -86 55t-109 20q-105 0 -188 -66t-115 -167h369l-15 -82h-370q-1 -9 -1 -25q0 -99 59 -154.5t157 -55.5q125 0 235 91l43 -74q-54 -47 -134 -77t-158 -30q-139 0 -222 85t-83 218z" />
    <glyph glyph-name="uni0405" unicode="&#x405;" horiz-adv-x="549" 
d="M4 81l62 70q75 -71 170 -71q59 0 103 31t44 86q0 37 -29 65t-70.5 48.5t-83.5 44t-71 63.5t-29 95q0 93 74.5 149t174.5 56q70 0 122.5 -23.5t80.5 -50.5l-56 -73q-61 56 -148 56q-57 0 -103 -30.5t-46 -82.5q0 -35 29.5 -61.5t71 -46.5t83 -44t71 -65.5t29.5 -97.5
q0 -91 -70.5 -151t-177.5 -60q-78 0 -140.5 31t-90.5 62z" />
    <glyph glyph-name="uni0406" unicode="&#x406;" horiz-adv-x="286" 
d="M36 0l138 706h98l-138 -706h-98z" />
    <glyph glyph-name="uni0407" unicode="&#x407;" horiz-adv-x="286" 
d="M36 0l138 706h98l-138 -706h-98zM282 781l19 101h80l-20 -101h-79zM114 781l20 101h80l-20 -101h-80z" />
    <glyph glyph-name="uni0408" unicode="&#x408;" horiz-adv-x="530" 
d="M3 155q0 26 5 52l6 31h98l-5 -29q-4 -28 -4 -40q0 -90 89 -90q47 0 84.5 30.5t49.5 95.5l80 415h-176l17 86h275l-99 -511q-14 -71 -51.5 -119t-83 -68t-98.5 -20q-80 0 -133.5 42.5t-53.5 124.5z" />
    <glyph glyph-name="uni0409" unicode="&#x409;" horiz-adv-x="956" 
d="M-35 -7l17 92q85 10 141.5 113t98.5 315l38 193h389l-56 -289h127q89 0 142 -49t53 -131q0 -96 -73.5 -166.5t-181.5 -70.5h-247l121 620h-192l-20 -105q-20 -99 -40 -172t-50 -141t-66.5 -111t-87 -69.5t-113.5 -28.5zM528 86h125q66 0 113.5 42t47.5 105
q0 47 -30.5 72.5t-83.5 25.5h-124z" />
    <glyph glyph-name="uni040A" unicode="&#x40a;" horiz-adv-x="1007" 
d="M36 0l138 706h98l-57 -292h330l57 292h98l-57 -291h129q86 0 140 -49.5t54 -130.5q0 -96 -73.5 -165.5t-182.5 -69.5h-246l64 328h-330l-64 -328h-98zM579 86h124q66 0 113.5 41.5t47.5 102.5q0 48 -30.5 73.5t-83.5 25.5h-123z" />
    <glyph glyph-name="uni040B" unicode="&#x40b;" horiz-adv-x="728" 
d="M146 0l122 620h-194l17 86h523l-16 -86h-232l-39 -197l-9 -34h2q90 44 187 44q84 0 126 -40.5t42 -110.5q0 -31 -6 -64l-43 -218h-100l41 207q6 34 6 48q0 89 -103 89q-46 0 -92 -14.5t-75 -32.5l-59 -297h-98z" />
    <glyph glyph-name="uni040C" unicode="&#x40c;" horiz-adv-x="616" 
d="M363 755l98 127h110l-121 -127h-87zM36 0l138 706h98l-58 -297h101l240 297h116l-278 -339v-2l147 -365h-105l-126 323h-111l-64 -323h-98z" />
    <glyph glyph-name="uni040D" unicode="&#x40d;" horiz-adv-x="752" 
d="M36 0l138 706h98l-89 -456l-25 -101h2q48 65 80 104l401 453h97l-137 -706h-99l89 456l25 101h-2q-46 -64 -78 -102l-403 -455h-97zM435 755l-70 127h99l48 -127h-77z" />
    <glyph glyph-name="uni040E" unicode="&#x40e;" horiz-adv-x="600" 
d="M22 35l51 71q37 -32 79 -32q29 0 50 19.5t46 60.5l-171 552h102l105 -355l23 -94h2q23 50 48 93l198 356h111l-336 -576q-37 -66 -80 -104t-102 -38q-66 0 -126 47zM389 739q-58 0 -96 29.5t-38 75.5q0 16 6 38h77q-3 -13 -3 -27q0 -25 16 -39t42 -14q32 0 56 19t30 61
h77q-11 -75 -57.5 -109t-109.5 -34z" />
    <glyph glyph-name="uni040F" unicode="&#x40f;" horiz-adv-x="731" 
d="M36 0l138 706h98l-120 -620h346l120 620h99l-137 -706h-227l-27 -140h-90l27 140h-227z" />
    <glyph glyph-name="uni0410" unicode="&#x410;" horiz-adv-x="643" 
d="M-39 0l387 706h110l116 -706h-99l-32 203h-266l-109 -203h-107zM219 285h214l-35 223l-9 101h-2q-27 -64 -46 -101z" />
    <glyph glyph-name="uni0411" unicode="&#x411;" horiz-adv-x="605" 
d="M36 0l138 706h417l-17 -86h-319l-38 -197h143q87 0 139 -46.5t52 -129.5q0 -104 -73 -175.5t-174 -71.5h-268zM151 86h144q64 0 109 42t45 113q0 45 -28.5 70.5t-79.5 25.5h-141z" />
    <glyph glyph-name="uni0412" unicode="&#x412;" horiz-adv-x="625" 
d="M36 0l138 706h227q56 0 95 -13q96 -37 96 -141q0 -60 -32.5 -108t-86.5 -71v-2q40 -15 63 -52t23 -87q0 -76 -41 -132t-108 -82q-44 -18 -103 -18h-271zM214 409h148q54 0 91.5 38t37.5 94q0 36 -23 57.5t-66 21.5h-147zM151 86h159q39 0 66 14q37 18 59.5 53.5
t22.5 80.5q0 43 -27 68t-74 25h-159z" />
    <glyph glyph-name="uni0413" unicode="&#x413;" horiz-adv-x="498" 
d="M36 0l138 706h388l-16 -86h-291l-121 -620h-98z" />
    <glyph glyph-name="uni0414" unicode="&#x414;" horiz-adv-x="724" 
d="M151 86h314l103 534h-221l-12 -65q-19 -117 -68 -248.5t-116 -220.5zM-75 -140l44 226h73q78 96 128 224t71 251l29 145h414l-121 -620h79l-44 -226h-90l28 140h-492l-28 -140h-91z" />
    <glyph glyph-name="uni0415" unicode="&#x415;" horiz-adv-x="563" 
d="M36 0l138 706h410l-18 -86h-311l-43 -221h253l-17 -86h-252l-45 -227h328l-16 -86h-427z" />
    <glyph glyph-name="uni0416" unicode="&#x416;" horiz-adv-x="908" 
d="M-38 0l288 376v2l-143 328h103l127 -297h90l58 297h98l-58 -297h86l226 297h120l-267 -341v-2l141 -363h-103l-123 323h-97l-63 -323h-98l63 323h-87l-244 -323h-117z" />
    <glyph glyph-name="uni0417" unicode="&#x417;" horiz-adv-x="544" 
d="M-10 85l59 64q55 -72 152 -72q73 0 124.5 41t51.5 106q0 47 -31 71t-83 24h-95l16 82h77q59 0 106 38.5t47 96.5q0 42 -27 68t-81 26q-80 0 -159 -58l-38 73q97 73 206 73q94 0 148.5 -44t54.5 -123q0 -65 -38 -113t-99 -70l-1 -2q98 -36 98 -142q0 -102 -81.5 -169
t-189.5 -67q-64 0 -123 25t-94 72z" />
    <glyph glyph-name="uni0418" unicode="&#x418;" horiz-adv-x="752" 
d="M36 0l138 706h98l-89 -456l-25 -101h2q48 65 80 104l401 453h97l-137 -706h-99l89 456l25 101h-2q-46 -64 -78 -102l-403 -455h-97z" />
    <glyph glyph-name="uni0419" unicode="&#x419;" horiz-adv-x="752" 
d="M468 739q-58 0 -96 29.5t-38 75.5q0 16 6 38h77q-3 -13 -3 -27q0 -25 16 -39t42 -14q32 0 56 19t30 61h77q-11 -75 -57.5 -109t-109.5 -34zM36 0l138 706h98l-89 -456l-25 -101h2q48 65 80 104l401 453h97l-137 -706h-99l89 456l25 101h-2q-46 -64 -78 -102l-403 -455
h-97z" />
    <glyph glyph-name="uni041A" unicode="&#x41a;" horiz-adv-x="616" 
d="M36 0l138 706h98l-58 -297h101l240 297h116l-278 -339v-2l147 -365h-105l-126 323h-111l-64 -323h-98z" />
    <glyph glyph-name="uni041B" unicode="&#x41b;" horiz-adv-x="677" 
d="M526 0h-99l121 620h-219l-19 -98q-52 -262 -134.5 -393t-222.5 -137l17 91q85 11 144 118.5t101 321.5l36 183h412z" />
    <glyph glyph-name="uni041C" unicode="&#x41c;" horiz-adv-x="853" 
d="M10 0l192 706h104l88 -382l15 -95h2q30 55 54 95l237 382h106l-81 -706h-97l53 445l19 104h-2q-35 -66 -58 -104l-203 -318h-89l-79 318l-18 106h-2q-10 -63 -21 -106l-122 -445h-98z" />
    <glyph glyph-name="uni041D" unicode="&#x41d;" horiz-adv-x="751" 
d="M36 0l138 706h98l-60 -310h367l60 310h98l-137 -706h-99l60 310h-366l-61 -310h-98z" />
    <glyph glyph-name="uni041E" unicode="&#x41e;" horiz-adv-x="823" 
d="M56 296q0 111 60 209t157.5 155.5t203.5 57.5q140 0 227 -84t87 -216q0 -113 -60.5 -213.5t-158 -158.5t-202.5 -58q-141 0 -227.5 86.5t-86.5 221.5zM157 300q0 -98 59.5 -159.5t153.5 -61.5q122 0 220.5 99.5t98.5 234.5q0 95 -59.5 155t-153.5 60q-123 0 -221 -97.5
t-98 -230.5z" />
    <glyph glyph-name="uni041F" unicode="&#x41f;" horiz-adv-x="743" 
d="M36 0l138 706h555l-138 -706h-98l121 620h-359l-121 -620h-98z" />
    <glyph glyph-name="uni0420" unicode="&#x420;" horiz-adv-x="606" 
d="M36 0l138 706h241q68 0 111 -23q42 -22 65.5 -63t23.5 -94q0 -83 -43 -148.5t-111 -95.5q-51 -21 -105 -21h-171l-51 -261h-98zM202 347h143q44 0 76 16q42 20 67 61t25 95q0 48 -29.5 74.5t-84.5 26.5h-144z" />
    <glyph glyph-name="uni0421" unicode="&#x421;" horiz-adv-x="718" 
d="M57 294q0 113 58 211.5t154.5 155.5t205.5 57q73 0 142 -23t113 -71l-59 -69q-75 73 -194 73q-132 0 -225 -99t-93 -230q0 -96 57.5 -158t157.5 -62q125 0 235 91l43 -78q-50 -45 -129 -74.5t-154 -29.5q-143 0 -227.5 85t-84.5 221z" />
    <glyph glyph-name="uni0422" unicode="&#x422;" horiz-adv-x="611" 
d="M197 0l121 620h-242l16 86h583l-16 -86h-243l-120 -620h-99z" />
    <glyph glyph-name="uni0423" unicode="&#x423;" horiz-adv-x="600" 
d="M22 35l51 71q37 -32 79 -32q29 0 50 19.5t46 60.5l-171 552h102l105 -355l23 -94h2q23 50 48 93l198 356h111l-336 -576q-37 -66 -80 -104t-102 -38q-66 0 -126 47z" />
    <glyph glyph-name="uni0424" unicode="&#x424;" horiz-adv-x="833" 
d="M50 324q0 151 111.5 247t279.5 98l17 81h98l-16 -81q125 0 201 -66.5t76 -177.5q0 -151 -113.5 -248.5t-278.5 -98.5l-18 -90h-98l18 90q-126 0 -201.5 67t-75.5 179zM441 163q114 2 194.5 74t80.5 186q0 76 -51.5 118.5t-141.5 42.5zM151 327q0 -77 51 -120.5t141 -43.5
l82 421q-115 -2 -194.5 -72.5t-79.5 -184.5z" />
    <glyph glyph-name="uni0425" unicode="&#x425;" horiz-adv-x="594" 
d="M-41 0l293 368l-143 338h107l75 -188l30 -84h2q25 40 58 83l149 189h117l-279 -346l154 -360h-105l-89 214l-28 81h-2q-23 -36 -57 -79l-170 -216h-112z" />
    <glyph glyph-name="uni0426" unicode="&#x426;" horiz-adv-x="759" 
d="M36 0l138 706h98l-120 -620h346l120 620h99l-121 -620h82l-44 -226h-89l27 140h-536z" />
    <glyph glyph-name="uni0427" unicode="&#x427;" horiz-adv-x="635" 
d="M260 271q-90 0 -136.5 40.5t-46.5 113.5q0 29 7 57l43 224h100l-40 -208q-5 -21 -5 -45q0 -92 105 -92q94 0 177 53l57 292h100l-137 -706h-100l55 283l8 33h-2q-101 -45 -185 -45z" />
    <glyph glyph-name="uni0428" unicode="&#x428;" horiz-adv-x="1005" 
d="M36 0l138 706h98l-121 -620h261l121 620h99l-121 -620h261l121 620h98l-137 -706h-818z" />
    <glyph glyph-name="uni0429" unicode="&#x429;" horiz-adv-x="1036" 
d="M36 0l138 706h98l-120 -620h261l120 620h99l-121 -620h262l120 620h98l-120 -620h87l-44 -226h-90l28 140h-816z" />
    <glyph glyph-name="uni042A" unicode="&#x42a;" horiz-adv-x="681" 
d="M129 0l121 620h-183l16 86h282l-52 -266h145q83 0 133 -48t50 -133q0 -108 -74.5 -183.5t-179.5 -75.5h-258zM244 86h138q67 0 112.5 46.5t45.5 120.5q0 46 -29 73.5t-79 27.5h-135z" />
    <glyph glyph-name="uni042B" unicode="&#x42b;" horiz-adv-x="844" 
d="M594 0l138 706h98l-137 -706h-99zM36 0l138 706h98l-52 -266h140q84 0 133.5 -48t49.5 -133q0 -109 -74 -184t-180 -75h-253zM151 86h134q67 0 112 46.5t45 120.5q0 47 -29 74t-78 27h-132z" />
    <glyph glyph-name="uni042C" unicode="&#x42c;" horiz-adv-x="588" 
d="M36 0l138 706h98l-52 -266h145q83 0 133 -48t50 -133q0 -108 -74.5 -183.5t-180.5 -75.5h-257zM151 86h138q67 0 112.5 46.5t45.5 120.5q0 46 -29 73.5t-79 27.5h-136z" />
    <glyph glyph-name="uni042D" unicode="&#x42d;" horiz-adv-x="717" 
d="M196 313l15 82h370q1 6 1 20q0 97 -56.5 155t-154.5 58q-120 0 -221 -78l-45 73q117 95 272 95q142 0 225 -83.5t83 -214.5q0 -112 -58.5 -212t-158 -160t-213.5 -60q-74 0 -144.5 27.5t-114.5 80.5l57 67q33 -39 88.5 -62t116.5 -23q105 0 190 66.5t118 168.5h-370z" />
    <glyph glyph-name="uni042E" unicode="&#x42e;" horiz-adv-x="1068" 
d="M36 0l138 706h98l-60 -310h116q36 137 151 229.5t250 92.5q136 0 221 -84t85 -216q0 -85 -35.5 -165t-92.5 -137.5t-132 -92.5t-152 -35q-137 0 -222.5 86.5t-85.5 221.5v14h-120l-61 -310h-98zM417 300q0 -98 57 -159.5t148 -61.5q119 0 215 99.5t96 234.5
q0 95 -57 154.5t-148 59.5q-120 0 -215.5 -97t-95.5 -230z" />
    <glyph glyph-name="uni042F" unicode="&#x42f;" horiz-adv-x="627" 
d="M-32 0l210 263l30 35l1 2q-102 44 -102 158q0 69 32 126.5t90 88.5q57 33 152 33h232l-137 -706h-99l55 281h-127l-221 -281h-116zM312 365h136l50 255h-112q-67 0 -99 -19q-37 -18 -58.5 -54.5t-21.5 -81.5q0 -47 27.5 -73.5t77.5 -26.5z" />
    <glyph glyph-name="uni0430" unicode="&#x430;" horiz-adv-x="524" 
d="M1 118q0 46 22 81.5t56 57t80 35t89 18.5t88 5h26q4 22 4 43q0 78 -92 78q-76 0 -151 -48l-26 77q31 21 84.5 37t106.5 16q78 0 127 -36t49 -112q0 -21 -5 -54l-61 -316h-91l10 51l10 40h-2q-21 -37 -68 -70t-107 -33q-63 0 -106 35t-43 95zM97 132q0 -29 20.5 -48
t61.5 -19q57 0 105 50.5t62 111.5l3 18h-25q-227 0 -227 -113z" />
    <glyph glyph-name="uni0431" unicode="&#x431;" horiz-adv-x="587" 
d="M42 219q0 68 19.5 140.5t56.5 126.5q36 59 91.5 99.5t137.5 70.5l198 78l21 -80l-213 -81q-86 -35 -129 -80.5t-63 -117.5h2q74 86 181 86q87 0 137.5 -50.5t50.5 -137.5q0 -114 -80 -199.5t-205 -85.5q-102 0 -153.5 61.5t-51.5 169.5zM139 192q0 -57 32.5 -89.5
t84.5 -32.5q74 0 126 58t52 134q0 57 -32.5 88.5t-83.5 31.5q-71 0 -125 -57t-54 -133z" />
    <glyph glyph-name="uni0432" unicode="&#x432;" horiz-adv-x="521" 
d="M18 0l98 506h204q71 0 111 -28.5t40 -81.5q0 -43 -25 -78.5t-71 -52.5v-2q35 -10 55 -38t20 -65q0 -74 -62.5 -117t-145.5 -43h-224zM171 292h95q44 0 75.5 25.5t31.5 67.5q0 54 -81 54h-92zM127 68h104q47 0 84 25t37 71q0 63 -90 63h-104z" />
    <glyph glyph-name="uni0433" unicode="&#x433;" horiz-adv-x="415" 
d="M18 0l98 506h317l-16 -83h-220l-83 -423h-96z" />
    <glyph glyph-name="uni0434" unicode="&#x434;" horiz-adv-x="599" 
d="M135 80h223l67 347h-153l-5 -27q-46 -219 -132 -320zM-67 -120l38 200h57q105 107 148 326l19 100h342l-83 -426h72l-39 -200h-89l23 120h-374l-23 -120h-91z" />
    <glyph glyph-name="uni0435" unicode="&#x435;" horiz-adv-x="555" 
d="M31 203q0 129 84 222t209 93q95 0 144.5 -51t49.5 -136q0 -33 -16 -91h-369q-4 -24 -4 -35q0 -55 38.5 -94t106.5 -39q81 0 161 59l27 -76q-32 -26 -86 -46.5t-107 -20.5q-109 0 -173.5 60t-64.5 155zM148 310h270q3 13 3 29q0 50 -27 77t-71 27q-57 0 -104.5 -35
t-70.5 -98z" />
    <glyph glyph-name="uni0436" unicode="&#x436;" horiz-adv-x="747" 
d="M-38 0l209 266v2l-99 238h96l87 -207h72l40 207h92l-40 -207h70l160 207h109l-199 -254v-2l114 -250h-103l-94 216h-73l-42 -216h-92l42 216h-72l-168 -216h-109z" />
    <glyph glyph-name="uni0437" unicode="&#x437;" horiz-adv-x="447" 
d="M-18 60l49 63q20 -22 54.5 -39.5t73.5 -17.5q47 0 83 26.5t36 73.5q0 60 -87 60h-64l13 70h56q45 0 78 22.5t33 65.5q0 58 -82 58q-61 0 -126 -44l-30 65q75 55 177 55q73 0 116 -32.5t43 -88.5q0 -47 -25.5 -81.5t-70.5 -51.5v-2q68 -27 68 -102q0 -78 -62 -125
t-148 -47q-55 0 -104 20.5t-81 51.5z" />
    <glyph glyph-name="uni0438" unicode="&#x438;" horiz-adv-x="599" 
d="M18 0l98 506h92l-59 -297l-15 -68h2q31 40 58 70l277 295h94l-99 -506h-91l57 297l16 67h-2q-31 -39 -58 -69l-277 -295h-93z" />
    <glyph glyph-name="uni0439" unicode="&#x439;" horiz-adv-x="599" 
d="M365 564q-58 0 -96 29.5t-38 75.5q0 16 6 38h77q-3 -13 -3 -27q0 -25 16 -39t42 -14q32 0 56 19t30 61h77q-11 -75 -57.5 -109t-109.5 -34zM18 0l98 506h92l-59 -297l-15 -68h2q31 40 58 70l277 295h94l-99 -506h-91l57 297l16 67h-2q-31 -39 -58 -69l-277 -295h-93z" />
    <glyph glyph-name="uni043A" unicode="&#x43a;" horiz-adv-x="520" 
d="M18 0l98 506h97l-40 -204h71l172 204h116l-217 -252v-2l139 -252h-110l-113 219h-74l-43 -219h-96z" />
    <glyph glyph-name="uni043B" unicode="&#x43b;" horiz-adv-x="547" 
d="M-38 -5l16 87q118 19 166 268l30 156h339l-98 -506h-97l83 426h-150l-14 -76q-36 -177 -100.5 -264t-174.5 -91z" />
    <glyph glyph-name="uni043C" unicode="&#x43c;" horiz-adv-x="729" 
d="M-3 0l142 506h105l76 -286l14 -69h2q20 38 40 69l188 286h108l-55 -506h-93l37 301l16 87h-2q-18 -35 -45 -74l-168 -253h-83l-71 252l-17 75h-2q-10 -57 -18 -87l-80 -301h-94z" />
    <glyph glyph-name="uni043D" unicode="&#x43d;" horiz-adv-x="601" 
d="M18 0l98 506h97l-40 -206h257l39 206h98l-99 -506h-97l42 217h-256l-43 -217h-96z" />
    <glyph glyph-name="uni043E" unicode="&#x43e;" horiz-adv-x="628" 
d="M30 211q0 127 95 217t217 90q107 0 173.5 -61.5t66.5 -159.5q0 -129 -95.5 -219t-216.5 -90q-107 0 -173.5 61.5t-66.5 161.5zM129 215q0 -64 39.5 -103.5t102.5 -39.5q81 0 146.5 64t65.5 156q0 63 -40 102.5t-102 39.5q-82 0 -147 -64t-65 -155z" />
    <glyph glyph-name="uni043F" unicode="&#x43f;" horiz-adv-x="592" 
d="M18 0l98 506h442l-98 -506h-98l83 423h-248l-83 -423h-96z" />
    <glyph glyph-name="uni0440" unicode="&#x440;" horiz-adv-x="601" 
d="M120 29l-45 -229h-96l137 706h89l-7 -43l-11 -40h2q28 42 74 68.5t102 26.5q89 0 139.5 -56t50.5 -152q0 -139 -83 -230.5t-192 -91.5q-52 0 -92.5 22.5t-59.5 65.5h-2q-1 -21 -6 -47zM156 202q0 -57 29 -93.5t84 -36.5q71 0 129 64t58 167q0 61 -30.5 95.5t-84.5 34.5
q-76 0 -130.5 -70.5t-54.5 -160.5z" />
    <glyph glyph-name="uni0441" unicode="&#x441;" horiz-adv-x="546" 
d="M30 208q0 129 93 219.5t219 90.5q124 0 191 -73l-54 -63q-23 24 -59.5 38t-72.5 14q-87 0 -152.5 -64.5t-65.5 -154.5q0 -64 40.5 -103.5t107.5 -39.5q87 0 169 68l28 -77q-38 -33 -94 -54t-112 -21q-109 0 -173.5 61t-64.5 159z" />
    <glyph glyph-name="uni0442" unicode="&#x442;" horiz-adv-x="488" 
d="M138 0l82 423h-176l16 83h449l-16 -83h-176l-82 -423h-97z" />
    <glyph glyph-name="uni0443" unicode="&#x443;" horiz-adv-x="537" 
d="M-30 -108q22 -19 56 -19q59 0 106 74l37 60l-116 499h101l69 -343l7 -58h1q15 32 29 57l190 344h109l-355 -599q-70 -117 -175 -117q-57 0 -104 33z" />
    <glyph glyph-name="uni0444" unicode="&#x444;" horiz-adv-x="730" 
d="M32 215q0 124 93.5 209t235.5 93l36 183h93l-36 -183q101 -4 164.5 -64.5t63.5 -159.5q0 -123 -93.5 -210t-236.5 -95l-37 -188h-93l37 188q-100 5 -163.5 66.5t-63.5 160.5zM367 70q89 4 154 68t65 153q0 65 -39 103t-108 43zM127 217q0 -66 39 -104t109 -43l71 367
q-90 -5 -154.5 -68t-64.5 -152z" />
    <glyph glyph-name="uni0445" unicode="&#x445;" horiz-adv-x="498" 
d="M-40 0l226 263l-121 243h104l69 -150l13 -32h1q11 17 21 30l124 152h114l-213 -250l127 -256h-102l-79 164l-11 30h-2q-9 -16 -19 -28l-139 -166h-113z" />
    <glyph glyph-name="uni0446" unicode="&#x446;" horiz-adv-x="614" 
d="M18 0l98 506h97l-82 -422h242l82 422h97l-82 -422h71l-40 -204h-89l24 120h-418z" />
    <glyph glyph-name="uni0447" unicode="&#x447;" horiz-adv-x="521" 
d="M195 178q-73 0 -111.5 32.5t-38.5 88.5q0 22 4 42l32 165h96l-28 -143q-5 -35 -5 -37q0 -66 79 -66q68 0 126 37l41 209h97l-99 -506h-97l36 184l8 29h-2q-65 -35 -138 -35z" />
    <glyph glyph-name="uni0448" unicode="&#x448;" horiz-adv-x="805" 
d="M18 0l98 506h93l-83 -422h188l83 422h93l-83 -422h188l82 422h94l-99 -506h-654z" />
    <glyph glyph-name="uni0449" unicode="&#x449;" horiz-adv-x="832" 
d="M18 0l98 506h93l-83 -422h188l83 422h93l-83 -422h188l82 422h94l-83 -422h71l-39 -204h-89l23 120h-636z" />
    <glyph glyph-name="uni044A" unicode="&#x44a;" horiz-adv-x="556" 
d="M86 0l82 423h-136l16 83h234l-37 -183h99q74 0 117 -33.5t43 -102.5q0 -83 -57.5 -135t-154.5 -52h-206zM196 70h88q52 0 86 30.5t34 80.5q0 72 -85 72h-87z" />
    <glyph glyph-name="uni044B" unicode="&#x44b;" horiz-adv-x="705" 
d="M476 0l98 506h97l-99 -506h-96zM18 0l98 506h97l-36 -183h97q73 0 116.5 -33.5t43.5 -102.5q0 -83 -58 -135t-155 -52h-203zM128 70h85q52 0 86.5 31t34.5 80q0 72 -85 72h-85z" />
    <glyph glyph-name="uni044C" unicode="&#x44c;" horiz-adv-x="487" 
d="M18 0l98 506h97l-36 -183h99q74 0 117 -33.5t43 -102.5q0 -83 -58 -135t-155 -52h-205zM128 70h87q52 0 86.5 31t34.5 80q0 72 -84 72h-88z" />
    <glyph glyph-name="uni044D" unicode="&#x44d;" horiz-adv-x="543" 
d="M148 218l14 70h243v9q0 69 -43 105.5t-106 36.5q-87 0 -152 -59l-40 66q36 33 91 52.5t110 19.5q106 0 169 -62t63 -160q0 -123 -93 -215.5t-227 -92.5q-54 0 -106 19.5t-83 57.5l43 66q24 -29 64.5 -46t84.5 -17q72 0 129.5 42t81.5 108h-243z" />
    <glyph glyph-name="uni044E" unicode="&#x44e;" horiz-adv-x="830" 
d="M18 0l98 506h97l-42 -212h88q28 98 112 161t184 63t164 -61.5t64 -161.5q0 -127 -92.5 -217t-212.5 -90q-100 0 -165 62.5t-65 163.5h-91l-43 -214h-96zM347 216q0 -65 37 -104.5t97 -39.5q78 0 140.5 64.5t62.5 154.5q0 64 -37.5 103.5t-97.5 39.5q-79 0 -140.5 -64
t-61.5 -154z" />
    <glyph glyph-name="uni044F" unicode="&#x44f;" horiz-adv-x="516" 
d="M-29 0l146 170l28 31v2q-35 12 -58 44.5t-23 79.5q0 79 55.5 129t143.5 50h219l-99 -506h-97l36 183h-86l-153 -183h-112zM163 328q0 -74 82 -74h91l36 185h-89q-54 0 -87 -29t-33 -82z" />
    <glyph glyph-name="uni0450" unicode="&#x450;" horiz-adv-x="555" 
d="M31 203q0 129 84 222t209 93q95 0 144.5 -51t49.5 -136q0 -33 -16 -91h-369q-4 -24 -4 -35q0 -55 38.5 -94t106.5 -39q81 0 161 59l27 -76q-32 -26 -86 -46.5t-107 -20.5q-109 0 -173.5 60t-64.5 155zM148 310h270q3 13 3 29q0 50 -27 77t-71 27q-57 0 -104.5 -35
t-70.5 -98zM324 581l-70 127h99l48 -127h-77z" />
    <glyph glyph-name="uni0451" unicode="&#x451;" horiz-adv-x="555" 
d="M395 606l19 101h80l-20 -101h-79zM227 606l20 101h80l-20 -101h-80zM31 203q0 129 84 222t209 93q95 0 144.5 -51t49.5 -136q0 -33 -16 -91h-369q-4 -24 -4 -35q0 -55 38.5 -94t106.5 -39q81 0 161 59l27 -76q-32 -26 -86 -46.5t-107 -20.5q-109 0 -173.5 60t-64.5 155z
M148 310h270q3 13 3 29q0 50 -27 77t-71 27q-57 0 -104.5 -35t-70.5 -98z" />
    <glyph glyph-name="uni0452" unicode="&#x452;" horiz-adv-x="603" 
d="M62 553l14 71h63l16 82h97l-16 -82h207l-14 -71h-207l-31 -163l-13 -44h2q25 43 81.5 79t124.5 36q70 0 109 -33.5t39 -100.5q0 -27 -8 -64l-52 -275q-9 -50 -30 -87t-44.5 -57.5t-53 -33t-52 -16t-44.5 -3.5l-42 3l17 83q11 -2 28 -2q102 0 126 122l47 245q6 30 6 57
q0 73 -74 73t-134 -58.5t-76 -139.5l-33 -174h-97l107 553h-63z" />
    <glyph glyph-name="uni0453" unicode="&#x453;" horiz-adv-x="415" 
d="M223 580l98 127h110l-121 -127h-87zM18 0l98 506h317l-16 -83h-220l-83 -423h-96z" />
    <glyph glyph-name="uni0454" unicode="&#x454;" horiz-adv-x="546" 
d="M29 211q0 121 94.5 214t226.5 93q121 0 181 -71l-49 -65q-23 26 -61.5 40.5t-77.5 14.5q-70 0 -127 -40.5t-81 -104.5h244l-13 -70h-246v-10q0 -71 43.5 -107.5t111.5 -36.5q93 0 169 68l33 -72q-37 -33 -98 -54.5t-118 -21.5q-106 0 -169 62t-63 161z" />
    <glyph glyph-name="uni0455" unicode="&#x455;" horiz-adv-x="446" 
d="M-7 60l49 66q23 -25 61.5 -40.5t77.5 -15.5q43 0 73 18.5t30 52.5q0 25 -22.5 43t-55 31.5t-65 29.5t-55 46.5t-22.5 74.5q0 70 57.5 111t139.5 41q99 0 163 -56l-45 -68q-45 42 -120 42q-42 0 -72 -17.5t-30 -51.5q0 -25 22.5 -43t55 -31t65 -29.5t55 -47t22.5 -74.5
q0 -69 -54.5 -111.5t-139.5 -42.5q-118 0 -190 72z" />
    <glyph glyph-name="uni0456" unicode="&#x456;" horiz-adv-x="246" 
d="M134 608l20 98h100l-20 -98h-100zM18 0l98 506h97l-99 -506h-96z" />
    <glyph glyph-name="uni0457" unicode="&#x457;" horiz-adv-x="246" 
d="M229 606l19 101h80l-20 -101h-79zM61 606l20 101h80l-20 -101h-80zM18 0l98 506h96l-98 -506h-96z" />
    <glyph glyph-name="uni0458" unicode="&#x458;" horiz-adv-x="247" 
d="M133 608l20 98h99l-19 -98h-100zM16 -11l100 517h96l-101 -522q-9 -48 -29.5 -84.5t-43.5 -56t-51.5 -31.5t-49.5 -15t-43 -3q-31 0 -46 2l16 83q8 -2 22 -2q17 0 33.5 4t37 14.5t36.5 34.5t23 59z" />
    <glyph glyph-name="uni0459" unicode="&#x459;" horiz-adv-x="755" 
d="M-30 -5l16 87q59 9 100.5 71.5t66.5 192.5l30 160h300l-38 -190h96q162 0 162 -135q0 -84 -60.5 -132.5t-154.5 -48.5h-201l83 426h-110l-15 -77q-35 -182 -99.5 -266.5t-175.5 -87.5zM397 70h89q50 0 85.5 27.5t35.5 76.5q0 71 -86 71h-89z" />
    <glyph glyph-name="uni045A" unicode="&#x45a;" horiz-adv-x="817" 
d="M18 0l98 506h97l-37 -193h235l38 193h97l-38 -194h92q75 0 120 -32.5t45 -97.5q0 -84 -59 -133t-154 -49h-202l46 235h-236l-46 -235h-96zM460 70h90q52 0 86 27.5t34 79.5q0 65 -90 65h-86z" />
    <glyph glyph-name="uni045B" unicode="&#x45b;" horiz-adv-x="603" 
d="M62 553l14 71h63l16 82h97l-16 -82h207l-15 -71h-206l-31 -162l-12 -45h2q24 43 80.5 79.5t123.5 36.5q70 0 109.5 -33.5t39.5 -100.5q0 -24 -7 -64l-51 -264h-97l47 243q6 30 6 57q0 72 -75 72q-74 0 -134 -58t-75 -139l-33 -175h-97l107 553h-63z" />
    <glyph glyph-name="uni045C" unicode="&#x45c;" horiz-adv-x="520" 
d="M268 580l98 127h110l-121 -127h-87zM18 0l98 506h97l-40 -204h71l172 204h116l-217 -252v-2l139 -252h-110l-113 219h-74l-43 -219h-96z" />
    <glyph glyph-name="uni045D" unicode="&#x45d;" horiz-adv-x="599" 
d="M18 0l98 506h92l-59 -297l-15 -68h2q31 40 58 70l277 295h94l-99 -506h-91l57 297l16 67h-2q-31 -39 -58 -69l-277 -295h-93zM338 581l-70 127h99l48 -127h-77z" />
    <glyph glyph-name="uni045E" unicode="&#x45e;" horiz-adv-x="537" 
d="M-30 -108q22 -19 56 -19q59 0 106 74l37 60l-116 499h101l69 -343l7 -58h1q15 32 29 57l190 344h109l-355 -599q-70 -117 -175 -117q-57 0 -104 33zM328 564q-58 0 -96 29.5t-38 75.5q0 16 6 38h77q-3 -13 -3 -27q0 -25 16 -39t42 -14q32 0 56 19t30 61h77
q-11 -75 -57.5 -109t-109.5 -34z" />
    <glyph glyph-name="uni045F" unicode="&#x45f;" horiz-adv-x="575" 
d="M18 0l98 506h97l-82 -422h230l83 422h97l-99 -506h-167l-24 -120h-89l24 120h-168z" />
    <glyph glyph-name="uni0462" unicode="&#x462;" horiz-adv-x="685" 
d="M129 0l104 539h-177l15 79h179l21 103h96l-20 -103h204l-16 -79h-203l-23 -116h144q86 0 138 -48t52 -127q0 -99 -75 -173.5t-182 -74.5h-257zM244 86h136q66 0 113.5 44t47.5 111q0 45 -30.5 70.5t-83.5 25.5h-135z" />
    <glyph glyph-name="uni0463" unicode="&#x463;" horiz-adv-x="529" 
d="M57 0l90 459h-121l14 73h121l34 174h97l-34 -174h166l-14 -73h-166l-26 -136h99q74 0 117.5 -33.5t43.5 -103.5q0 -82 -58.5 -134t-155.5 -52h-207zM168 70h91q52 0 86 31t34 81q0 71 -85 71h-90z" />
    <glyph glyph-name="uni0472" unicode="&#x472;" horiz-adv-x="823" 
d="M56 296q0 111 60 209t157.5 155.5t203.5 57.5q140 0 227 -84t87 -216q0 -113 -60.5 -213.5t-158 -158.5t-202.5 -58q-141 0 -227.5 86.5t-86.5 221.5zM155 300q0 -98 60 -160.5t155 -62.5q98 0 185.5 68t120.5 172h-521v-17zM476 630q-100 0 -187 -66.5t-119 -167.5h520
q1 5 1 17q0 96 -60 156.5t-155 60.5z" />
    <glyph glyph-name="uni0473" unicode="&#x473;" horiz-adv-x="629" 
d="M30 213q0 127 95.5 216t220.5 89q103 0 169.5 -61.5t66.5 -161.5q0 -127 -95.5 -217t-219.5 -90q-103 0 -170 62t-67 163zM121 216q0 -70 41.5 -111t107.5 -41q69 0 129.5 45t82.5 116h-361v-9zM343 443q-68 0 -128 -43.5t-83 -112.5h360v4q0 69 -41.5 110.5t-107.5 41.5
z" />
    <glyph glyph-name="uni0474" unicode="&#x474;" horiz-adv-x="685" 
d="M211 0l-121 706h102l78 -499l8 -97h2q26 59 46 97l222 420q29 52 53 65.5t82 13.5h70l-17 -87h-22q-21 0 -29.5 -0.5t-21 -5.5t-21 -16.5t-19.5 -31.5l-309 -565h-103z" />
    <glyph glyph-name="uni0475" unicode="&#x475;" horiz-adv-x="561" 
d="M149 0l-91 506h97l56 -342l5 -69h2q17 41 31 69l133 251q27 52 56.5 71.5t84.5 19.5h61l-17 -85h-23q-32 0 -48.5 -10.5t-35.5 -44.5l-200 -366h-111z" />
    <glyph glyph-name="uni048A" unicode="&#x48a;" horiz-adv-x="793" 
d="M36 0l138 706h98l-89 -456l-25 -101h2q48 65 80 104l401 453h97l-121 -620h110l-11 -57l-106 -169h-75l71 140h-104l89 456l25 101h-2q-46 -64 -78 -102l-403 -455h-97zM463 739q-58 0 -96 29.5t-38 75.5q0 16 6 38h77q-3 -13 -3 -27q0 -25 16 -39t42 -14q32 0 56 19
t30 61h77q-11 -75 -57.5 -109t-109.5 -34z" />
    <glyph glyph-name="uni048B" unicode="&#x48b;" horiz-adv-x="640" 
d="M18 0l98 506h92l-59 -297l-15 -68h2q31 40 58 70l277 295h94l-83 -423h94l-11 -55l-91 -148h-70l59 120h-88l57 297l16 67h-2q-31 -39 -58 -69l-277 -295h-93zM353 564q-58 0 -96 29.5t-38 75.5q0 16 6 38h77q-3 -13 -3 -27q0 -25 16 -39t42 -14q32 0 56 19t30 61h77
q-11 -75 -57.5 -109t-109.5 -34z" />
    <glyph glyph-name="uni048C" unicode="&#x48c;" horiz-adv-x="673" 
d="M112 0l111 570h-162l14 77h164l20 103h97l-21 -103h185l-15 -77h-184l-28 -142h151q84 0 136 -50.5t52 -131.5q0 -99 -74 -172.5t-182 -73.5h-264zM227 86h141q65 0 114 45t49 110q0 49 -30.5 75t-83.5 26h-141z" />
    <glyph glyph-name="uni048D" unicode="&#x48d;" horiz-adv-x="536" 
d="M64 0l90 459h-121l14 73h121l34 174h97l-34 -174h166l-14 -73h-166l-26 -136h99q74 0 117.5 -33.5t43.5 -103.5q0 -82 -58.5 -134t-155.5 -52h-207zM175 70h91q52 0 86 31t34 81q0 71 -85 71h-90z" />
    <glyph glyph-name="uni048E" unicode="&#x48e;" horiz-adv-x="628" 
d="M36 0l138 706h241q68 0 111 -23q42 -22 65.5 -63t23.5 -94q0 -129 -96 -208l55 -73l-55 -43l-60 79q-49 -20 -103 -20h-171l-51 -261h-98zM347 428l56 45l66 -89q52 52 52 135q0 48 -29.5 74.5t-83.5 26.5h-153l-53 -281h151q31 0 56 7z" />
    <glyph glyph-name="uni048F" unicode="&#x48f;" horiz-adv-x="616" 
d="M120 29l-45 -229h-96l137 706h89l-7 -43l-11 -40h2q29 43 74.5 69t102.5 26q89 0 139 -56t50 -152q0 -148 -95 -243l55 -67l-55 -46l-56 69q-59 -35 -124 -35q-52 0 -92.5 22.5t-59.5 65.5h-2q-1 -21 -6 -47zM290 167l55 45l61 -77q58 66 58 164q0 62 -31 98t-87 36
q-81 0 -135.5 -70.5t-54.5 -159.5q0 -59 29.5 -97t86.5 -38q42 0 79 21z" />
    <glyph glyph-name="uni0490" unicode="&#x490;" horiz-adv-x="506" 
d="M36 0l138 706h313l18 97h84l-36 -183h-298l-120 -620h-99z" />
    <glyph glyph-name="uni0491" unicode="&#x491;" horiz-adv-x="416" 
d="M18 0l98 506h240l18 91h78l-33 -174h-222l-82 -423h-97z" />
    <glyph glyph-name="uni0492" unicode="&#x492;" horiz-adv-x="511" 
d="M42 0l60 309h-61l15 73h61l63 324h389l-17 -86h-291l-46 -238h160l-14 -73h-161l-59 -309h-99z" />
    <glyph glyph-name="uni0493" unicode="&#x493;" horiz-adv-x="423" 
d="M21 0l41 208h-62l13 71h62l45 227h317l-16 -83h-220l-29 -144h129l-13 -71h-129l-41 -208h-97z" />
    <glyph glyph-name="uni0494" unicode="&#x494;" horiz-adv-x="612" 
d="M36 0l138 706h389l-17 -86h-291l-44 -228q70 29 142 29q197 0 197 -214q0 -55 -13 -110t-40 -106t-64.5 -89.5t-92 -60.5t-117.5 -19l15 82q67 1 116 49.5t70.5 113.5t21.5 132q0 64 -27.5 99.5t-97.5 35.5q-57 0 -127 -31l-59 -303h-99z" />
    <glyph glyph-name="uni0495" unicode="&#x495;" horiz-adv-x="502" 
d="M18 0l98 506h324l-15 -79h-228l-31 -164q53 25 112 25q78 0 117 -46t39 -122q0 -96 -55 -185.5t-149 -141.5l-44 70q69 36 111.5 109t42.5 141q0 94 -93 94q-43 0 -97 -27l-35 -180h-97z" />
    <glyph glyph-name="uni0496" unicode="&#x496;" horiz-adv-x="955" 
d="M-38 0l288 376v2l-143 328h103l127 -297h90l58 297h98l-58 -297h86l226 297h120l-267 -341v-2l107 -277h105l-44 -226h-89l28 140h-69l-123 323h-97l-63 -323h-98l63 323h-87l-244 -323h-117z" />
    <glyph glyph-name="uni0497" unicode="&#x497;" horiz-adv-x="792" 
d="M-38 0l209 266v2l-99 238h96l87 -207h72l40 207h92l-40 -207h70l160 207h109l-199 -254v-2l75 -166h100l-40 -204h-88l24 120h-60l-94 216h-73l-42 -216h-92l42 216h-72l-168 -216h-109z" />
    <glyph glyph-name="uni0498" unicode="&#x498;" horiz-adv-x="545" 
d="M-10 85l59 64q55 -72 152 -72q73 0 124.5 41t51.5 106q0 47 -31 71t-83 24h-95l16 82h77q59 0 106 38.5t47 96.5q0 42 -27 68t-81 26q-80 0 -159 -58l-38 73q97 73 206 73q94 0 148.5 -44t54.5 -123q0 -65 -38 -113t-99 -70l-1 -2q98 -36 98 -142q0 -90 -64 -153
t-156 -78l-27 -133h-89l25 131q-117 14 -177 94z" />
    <glyph glyph-name="uni0499" unicode="&#x499;" horiz-adv-x="449" 
d="M-18 60l49 63q20 -22 54.5 -39.5t73.5 -17.5q47 0 83 26.5t36 73.5q0 60 -87 60h-64l13 70h56q45 0 78 22.5t33 65.5q0 58 -82 58q-61 0 -126 -44l-30 65q75 55 177 55q73 0 116 -32.5t43 -88.5q0 -47 -25.5 -81.5t-70.5 -51.5v-2q68 -27 68 -102q0 -69 -49.5 -114.5
t-123.5 -54.5l-21 -111h-87l22 112q-82 14 -136 68z" />
    <glyph glyph-name="uni049A" unicode="&#x49a;" horiz-adv-x="658" 
d="M36 0l138 706h98l-58 -297h101l240 297h116l-278 -339v-2l112 -279h98l-44 -226h-89l27 140h-62l-126 323h-111l-64 -323h-98z" />
    <glyph glyph-name="uni049B" unicode="&#x49b;" horiz-adv-x="560" 
d="M18 0l98 506h97l-40 -204h71l172 204h116l-217 -252v-2l92 -168h94l-40 -204h-88l23 120h-52l-113 219h-74l-43 -219h-96z" />
    <glyph glyph-name="uni049C" unicode="&#x49c;" horiz-adv-x="700" 
d="M36 0l138 706h98l-58 -297h72l23 120h74l-23 -120h48l225 297h118l-272 -350v-2l149 -354h-104l-133 323h-48l-23 -121h-74l23 121h-71l-64 -323h-98z" />
    <glyph glyph-name="uni049D" unicode="&#x49d;" horiz-adv-x="597" 
d="M18 0l98 506h97l-40 -204h53l20 102h71l-20 -102h27l168 204h116l-213 -250v-2l135 -254h-108l-112 219h-29l-20 -104h-71l21 104h-54l-43 -219h-96z" />
    <glyph glyph-name="uni049E" unicode="&#x49e;" horiz-adv-x="622" 
d="M56 525l13 71h88l22 110h98l-22 -110h95l-13 -71h-96l-22 -116h101l240 297h116l-278 -339v-2l147 -365h-105l-126 323h-111l-64 -323h-98l102 525h-87z" />
    <glyph glyph-name="uni049F" unicode="&#x49f;" horiz-adv-x="523" 
d="M55 529l14 68h66l21 109h96l-21 -109h113l-14 -68h-113l-40 -209h69l175 186h117l-216 -227v-2l131 -277h-105l-107 237h-79l-47 -237h-97l103 529h-66z" />
    <glyph glyph-name="uni04A0" unicode="&#x4a0;" horiz-adv-x="749" 
d="M168 0l122 620h-212l17 86h310l-58 -297h103l235 297h118l-277 -342v-2l147 -362h-106l-127 323h-110l-63 -323h-99z" />
    <glyph glyph-name="uni04A1" unicode="&#x4a1;" horiz-adv-x="589" 
d="M86 0l82 423h-136l16 83h234l-41 -204h72l171 204h116l-216 -252v-2l137 -252h-108l-115 219h-72l-43 -219h-97z" />
    <glyph glyph-name="uni04A2" unicode="&#x4a2;" horiz-adv-x="783" 
d="M36 0l138 706h98l-60 -310h367l60 310h98l-120 -620h98l-44 -226h-90l27 140h-106l59 310h-366l-60 -310h-99z" />
    <glyph glyph-name="uni04A3" unicode="&#x4a3;" horiz-adv-x="633" 
d="M18 0l98 506h97l-41 -206h257l40 206h98l-83 -422h85l-39 -204h-89l23 120h-93l42 217h-256l-43 -217h-96z" />
    <glyph glyph-name="uni04A4" unicode="&#x4a4;" horiz-adv-x="935" 
d="M36 0l138 706h98l-60 -310h337l61 310h389l-17 -86h-290l-122 -620h-98l61 310h-338l-61 -310h-98z" />
    <glyph glyph-name="uni04A5" unicode="&#x4a5;" horiz-adv-x="730" 
d="M18 0l98 506h97l-40 -206h234l39 206h303l-17 -83h-205l-83 -423h-96l42 217h-233l-43 -217h-96z" />
    <glyph glyph-name="uni04A6" unicode="&#x4a6;" horiz-adv-x="996" 
d="M36 0l138 706h489l-59 -304q70 29 141 29q195 0 195 -218q0 -56 -12.5 -111.5t-39.5 -107.5t-64.5 -91t-92 -61.5t-117.5 -19.5l16 82q66 1 115 50.5t70.5 115.5t21.5 134q0 67 -27.5 103.5t-96.5 36.5q-51 0 -126 -31l-61 -313h-98l120 621h-292l-121 -621h-99z" />
    <glyph glyph-name="uni04A7" unicode="&#x4a7;" horiz-adv-x="815" 
d="M18 0l98 506h397l-42 -214q61 26 118 26q79 0 120 -51.5t41 -138.5q0 -109 -62 -200t-156 -135l-31 73q67 37 109 105t42 151q0 112 -99 112q-44 0 -98 -27l-40 -207h-97l82 423h-203l-82 -423h-97z" />
    <glyph glyph-name="uni04A8" unicode="&#x4a8;" horiz-adv-x="930" 
d="M58 296q0 82 27.5 154.5t73.5 123.5t97.5 87t107.5 56l38 -88q-44 -16 -85 -43.5t-77.5 -68t-58.5 -97.5t-22 -121q0 -95 57.5 -157.5t163.5 -62.5q51 0 97 13q-107 96 -107 248q0 149 95 257.5t224 108.5q98 0 155 -62.5t57 -165.5q0 -113 -62.5 -215.5t-164.5 -173.5
q34 -7 78 -7h70l-15 -82h-68q-90 0 -166 32q-101 -44 -197 -44q-142 0 -230 85.5t-88 222.5zM470 338q0 -137 102 -207q100 53 164 145t64 198q0 67 -32.5 104.5t-85.5 37.5q-82 0 -147 -80t-65 -198z" />
    <glyph glyph-name="uni04A9" unicode="&#x4a9;" horiz-adv-x="797" 
d="M34 236q0 99 63.5 175t155.5 106l31 -80q-64 -22 -111 -73.5t-47 -126.5q0 -73 48 -121t129 -48q46 0 99 14q-95 77 -95 201q0 97 70 166t173 69q87 0 137.5 -53.5t50.5 -130.5q0 -73 -41.5 -138t-110.5 -114q33 -6 72 -6h65l-15 -76h-60q-81 0 -156 30q-96 -42 -193 -42
q-115 0 -190 69t-75 179zM400 285q0 -113 92 -168q68 36 110.5 91t42.5 123q0 45 -25.5 77.5t-78.5 32.5q-58 0 -99.5 -45t-41.5 -111z" />
    <glyph glyph-name="uni04AA" unicode="&#x4aa;" horiz-adv-x="719" 
d="M57 294q0 113 58 211.5t154.5 155.5t205.5 57q73 0 142 -23t113 -71l-59 -69q-75 73 -194 73q-132 0 -225 -99t-93 -230q0 -96 57.5 -158t157.5 -62q125 0 235 91l43 -78q-46 -42 -117.5 -70.5t-142.5 -32.5l-25 -129h-89l26 134q-115 19 -181 100t-66 200z" />
    <glyph glyph-name="uni04AB" unicode="&#x4ab;" horiz-adv-x="547" 
d="M31 208q0 129 93 219.5t219 90.5q124 0 191 -73l-54 -63q-23 24 -59.5 38t-72.5 14q-87 0 -152.5 -64.5t-65.5 -154.5q0 -64 40.5 -103.5t107.5 -39.5q87 0 169 68l28 -77q-34 -31 -85 -51t-103 -23l-20 -109h-88l22 115q-79 17 -124.5 74t-45.5 139z" />
    <glyph glyph-name="uni04AC" unicode="&#x4ac;" horiz-adv-x="611" 
d="M196 0l121 620h-242l16 86h583l-17 -86h-242l-104 -534h99l-44 -226h-90l27 140h-107z" />
    <glyph glyph-name="uni04AD" unicode="&#x4ad;" horiz-adv-x="494" 
d="M138 0l82 423h-176l17 83h449l-17 -83h-176l-66 -339h84l-39 -204h-88l23 120h-93z" />
    <glyph glyph-name="uni04AE" unicode="&#x4ae;" horiz-adv-x="576" 
d="M180 0l59 299l-155 407h106l84 -232l27 -89h2q31 47 60 89l173 232h119l-318 -410l-58 -296h-99z" />
    <glyph glyph-name="uni04AF" unicode="&#x4af;" horiz-adv-x="523" 
d="M161 23l-104 483h98l62 -314l5 -67h2q16 38 33 67l184 314h106l-290 -483l-44 -223h-95z" />
    <glyph glyph-name="uni04B0" unicode="&#x4b0;" horiz-adv-x="575" 
d="M107 233l14 73h116l-155 400h107l84 -232l26 -89h2q30 48 60 89l176 232h117l-311 -400h122l-14 -73h-126l-45 -233h-99l46 233h-120z" />
    <glyph glyph-name="uni04B1" unicode="&#x4b1;" horiz-adv-x="522" 
d="M40 0l15 71h96l-92 435h98l61 -314l6 -67h2q16 38 32 67l182 314h106l-261 -435h98l-14 -71h-117l-39 -200h-95l38 200h-116z" />
    <glyph glyph-name="uni04B2" unicode="&#x4b2;" horiz-adv-x="638" 
d="M-41 0l293 368l-143 338h107l75 -188l30 -84h2q25 40 58 83l149 189h117l-279 -346l117 -274h99l-44 -226h-89l28 140h-62l-89 214l-28 81h-2q-23 -36 -57 -79l-170 -216h-112z" />
    <glyph glyph-name="uni04B3" unicode="&#x4b3;" horiz-adv-x="532" 
d="M-40 0l226 263l-121 243h104l69 -150l13 -32h1q11 17 21 30l124 152h114l-213 -250l85 -172h88l-39 -204h-89l24 120h-44l-79 164l-11 30h-2q-9 -16 -19 -28l-139 -166h-113z" />
    <glyph glyph-name="uni04B4" unicode="&#x4b4;" horiz-adv-x="900" 
d="M169 0l121 620h-212l17 86h522l-17 -86h-212l-104 -534h353l121 620h98l-120 -620h91l-45 -226h-89l28 140h-552z" />
    <glyph glyph-name="uni04B5" unicode="&#x4b5;" horiz-adv-x="733" 
d="M120 0l81 423h-156l17 83h409l-17 -83h-156l-66 -339h259l82 422h97l-82 -422h75l-40 -203h-89l24 119h-438z" />
    <glyph glyph-name="uni04B6" unicode="&#x4b6;" horiz-adv-x="668" 
d="M260 271q-90 0 -136.5 40.5t-46.5 113.5q0 29 7 57l43 224h100l-40 -208q-5 -21 -5 -45q0 -92 105 -92q94 0 177 53l57 292h100l-121 -620h99l-44 -226h-89l27 140h-109l55 283l8 33h-2q-101 -45 -185 -45z" />
    <glyph glyph-name="uni04B7" unicode="&#x4b7;" horiz-adv-x="553" 
d="M195 178q-73 0 -111.5 32.5t-38.5 88.5q0 22 4 42l32 165h96l-28 -143q-5 -35 -5 -37q0 -66 79 -66q68 0 126 37l41 209h97l-83 -422h89l-39 -204h-89l24 120h-98l36 184l8 29h-2q-65 -35 -138 -35z" />
    <glyph glyph-name="uni04B8" unicode="&#x4b8;" horiz-adv-x="651" 
d="M234 168l20 105q-87 2 -132.5 42t-45.5 110q0 29 7 57l43 224h100l-40 -208q-5 -21 -5 -45q0 -84 91 -91l27 140h74l-27 -136q75 13 134 48l57 292h100l-138 -706h-100l57 287l8 33h-2q-72 -31 -133 -42l-21 -110h-74z" />
    <glyph glyph-name="uni04B9" unicode="&#x4b9;" horiz-adv-x="545" 
d="M178 99l15 79q-72 3 -109.5 36t-37.5 92q0 19 5 47l30 153h96l-28 -141q-4 -24 -4 -35q0 -60 65 -68l24 121h71l-24 -119q51 9 93 33l41 209h96l-98 -506h-97l36 184l8 29h-2q-34 -18 -92 -29l-17 -85h-71z" />
    <glyph glyph-name="uni04BA" unicode="&#x4ba;" horiz-adv-x="624" 
d="M37 0l137 706h98l-50 -257l-9 -34h2q96 43 186 43q85 0 127 -40.5t42 -110.5q0 -29 -6 -63l-48 -244h-100l46 233q6 34 6 47q0 88 -103 88q-93 0 -167 -46l-63 -322h-98z" />
    <glyph glyph-name="uni04BB" unicode="&#x4bb;" horiz-adv-x="602" 
d="M18 0l137 706h97l-50 -259l-12 -45h2q24 44 80.5 80t123.5 36q70 0 109.5 -33.5t39.5 -100.5q0 -24 -7 -64l-62 -320h-97l58 299q7 37 7 57q0 73 -76 73q-73 0 -133 -58.5t-76 -139.5l-44 -231h-97z" />
    <glyph glyph-name="uni04BC" unicode="&#x4bc;" horiz-adv-x="872" 
d="M73 479q0 60 43 157h94q-46 -92 -46 -147q0 -67 64 -67q40 127 141 211.5t235 84.5q115 0 179.5 -65t64.5 -179q0 -50 -21 -131h-512q-11 -68 4 -126t64.5 -98t128.5 -40q60 0 121 22.5t104 60.5l42 -79q-40 -36 -113 -65.5t-161 -29.5q-140 0 -219.5 80.5t-79.5 215.5
q0 33 4 60h-1q-61 0 -98.5 35t-37.5 100zM331 422h414q6 36 6 54q0 68 -39.5 111t-116.5 43q-92 0 -164.5 -60.5t-99.5 -147.5z" />
    <glyph glyph-name="uni04BD" unicode="&#x4bd;" horiz-adv-x="677" 
d="M45 352q0 51 32 112h82q-35 -56 -35 -103q0 -49 45 -50q30 90 105.5 148.5t173.5 58.5q92 0 141.5 -51t49.5 -135q0 -40 -16 -92h-368q-4 -13 -4 -32q0 -60 38 -98t107 -38q81 0 161 59l27 -76q-34 -27 -87 -47t-110 -20q-103 0 -168.5 59t-65.5 161q0 11 2 33
q-53 2 -81.5 30.5t-28.5 80.5zM270 310h270q3 13 3 29q0 50 -27 77t-72 27q-56 0 -103.5 -35t-70.5 -98z" />
    <glyph glyph-name="uni04BE" unicode="&#x4be;" horiz-adv-x="872" 
d="M73 479q0 60 43 157h94q-46 -92 -46 -147q0 -67 64 -67q40 127 141 211.5t235 84.5q115 0 179.5 -65t64.5 -179q0 -50 -21 -131h-512q-11 -68 4 -126t64.5 -98t128.5 -40q60 0 121 22.5t104 60.5l42 -79q-39 -34 -109 -63.5t-155 -31.5l-25 -128h-89l26 136
q-105 21 -163 97.5t-58 190.5q0 33 4 60h-1q-61 0 -98.5 35t-37.5 100zM331 422h414q6 36 6 54q0 68 -39.5 111t-116.5 43q-92 0 -164.5 -60.5t-99.5 -147.5z" />
    <glyph glyph-name="uni04BF" unicode="&#x4bf;" horiz-adv-x="678" 
d="M45 352q0 51 32 112h82q-35 -56 -35 -103q0 -49 45 -50q30 90 105.5 148.5t173.5 58.5q92 0 141.5 -51t49.5 -135q0 -40 -16 -92h-368q-4 -13 -4 -32q0 -60 38 -98t107 -38q81 0 161 59l27 -76q-32 -26 -82.5 -45.5t-105.5 -21.5l-21 -108h-87l22 118q-72 19 -114.5 74
t-42.5 136q0 11 2 33q-53 2 -81.5 30.5t-28.5 80.5zM270 310h270q3 13 3 29q0 50 -27 77t-72 27q-56 0 -103.5 -35t-70.5 -98z" />
    <glyph glyph-name="uni04C0" unicode="&#x4c0;" horiz-adv-x="286" 
d="M36 0l138 706h98l-138 -706h-98z" />
    <glyph glyph-name="uni04C1" unicode="&#x4c1;" horiz-adv-x="908" 
d="M-38 0l288 376v2l-143 328h103l127 -297h90l58 297h98l-58 -297h86l226 297h120l-267 -341v-2l141 -363h-103l-123 323h-97l-63 -323h-98l63 323h-87l-244 -323h-117zM546 739q-58 0 -96 29.5t-38 75.5q0 16 6 38h77q-3 -13 -3 -27q0 -25 16 -39t42 -14q32 0 56 19t30 61
h77q-11 -75 -57.5 -109t-109.5 -34z" />
    <glyph glyph-name="uni04C2" unicode="&#x4c2;" horiz-adv-x="747" 
d="M-38 0l209 266v2l-99 238h96l87 -207h72l40 207h92l-40 -207h70l160 207h109l-199 -254v-2l114 -250h-103l-94 216h-73l-42 -216h-92l42 216h-72l-168 -216h-109zM431 564q-58 0 -96 29.5t-38 75.5q0 16 6 38h77q-3 -13 -3 -27q0 -25 16 -39t42 -14q32 0 56 19t30 61h77
q-11 -75 -57.5 -109t-109.5 -34z" />
    <glyph glyph-name="uni04C3" unicode="&#x4c3;" horiz-adv-x="637" 
d="M36 0l138 706h98l-57 -297q75 0 102 -1l233 298h117l-254 -321q70 -27 107 -85t37 -137q0 -61 -20.5 -122t-58.5 -111.5t-98 -80.5t-132 -27l16 84q86 0 138.5 81.5t52.5 175.5q0 162 -181 162h-75l-64 -325h-99z" />
    <glyph glyph-name="uni04C4" unicode="&#x4c4;" horiz-adv-x="529" 
d="M18 0l98 506h97l-40 -205q46 0 70 -2l173 207h118l-203 -233q113 -45 113 -177q0 -94 -56 -175.5t-147 -127.5l-41 71q66 31 108.5 95.5t42.5 132.5q0 125 -147 125h-47l-42 -217h-97z" />
    <glyph glyph-name="uni04C5" unicode="&#x4c5;" horiz-adv-x="718" 
d="M531 0h-104l121 620h-219l-19 -98q-52 -262 -134.5 -393t-222.5 -137l17 91q85 11 144 118.5t101 321.5l36 183h412l-121 -620h110l-12 -57l-105 -169h-75z" />
    <glyph glyph-name="uni04C6" unicode="&#x4c6;" horiz-adv-x="587" 
d="M-38 -5l16 87q118 19 166 268l30 156h339l-82 -423h88l-10 -55l-91 -148h-71l59 120h-88l83 426h-150l-14 -76q-36 -177 -100.5 -264t-174.5 -91z" />
    <glyph glyph-name="uni04C7" unicode="&#x4c7;" horiz-adv-x="752" 
d="M36 0l138 706h98l-60 -310h367l60 310h98l-127 -660q-14 -73 -41.5 -121.5t-63.5 -70t-70.5 -29t-75.5 -4.5l17 87q47 -1 82.5 28t52.5 114l50 260h-366l-60 -310h-99z" />
    <glyph glyph-name="uni04C8" unicode="&#x4c8;" horiz-adv-x="601" 
d="M18 0l98 506h97l-40 -206h257l39 206h98l-90 -465q-19 -97 -67.5 -152.5t-128.5 -95.5l-43 72q59 29 93.5 68t48.5 114l33 170h-256l-42 -217h-97z" />
    <glyph glyph-name="uni04C9" unicode="&#x4c9;" horiz-adv-x="790" 
d="M36 0l138 706h98l-60 -310h367l60 310h98l-121 -620h114l-12 -57l-106 -169h-74l71 140h-108l60 310h-366l-61 -310h-98z" />
    <glyph glyph-name="uni04CA" unicode="&#x4ca;" horiz-adv-x="642" 
d="M18 0l98 506h97l-40 -206h257l39 206h98l-83 -423h97l-10 -55l-90 -148h-71l60 120h-99l42 217h-256l-43 -217h-96z" />
    <glyph glyph-name="uni04CB" unicode="&#x4cb;" horiz-adv-x="635" 
d="M260 271q-90 0 -136.5 40.5t-46.5 113.5q0 29 7 57l43 224h100l-40 -208q-5 -21 -5 -45q0 -92 105 -92q94 0 177 53l57 292h100l-137 -706h-109l-27 -140h-89l44 226h97l39 197l8 33h-2q-101 -45 -185 -45z" />
    <glyph glyph-name="uni04CC" unicode="&#x4cc;" horiz-adv-x="520" 
d="M187 -120l36 187h80l25 125l7 29h-2q-27 -14 -67.5 -24t-70.5 -10q-74 0 -112 32t-38 89q0 18 5 41l30 157h96l-26 -134q-5 -35 -5 -37q0 -67 79 -67q69 0 125 38l39 200h98l-99 -506h-88l-23 -120h-89z" />
    <glyph glyph-name="uni04CD" unicode="&#x4cd;" horiz-adv-x="890" 
d="M10 0l192 706h104l88 -382l15 -95h2q30 55 54 95l237 382h106l-71 -620h109l-11 -57l-106 -169h-74l71 140h-96l53 445l19 104h-2q-35 -66 -58 -104l-203 -318h-89l-79 318l-18 106h-2q-10 -63 -21 -106l-122 -445h-98z" />
    <glyph glyph-name="uni04CE" unicode="&#x4ce;" horiz-adv-x="773" 
d="M-3 0l142 506h105l76 -286l14 -69h2q20 38 40 69l188 286h108l-46 -423h96l-11 -55l-90 -148h-71l60 120h-86l37 301l16 87h-2q-18 -35 -45 -74l-168 -253h-83l-71 252l-17 75h-2q-10 -57 -18 -87l-80 -301h-94z" />
    <glyph glyph-name="uni04CF" unicode="&#x4cf;" horiz-adv-x="249" 
d="M19 0l138 706h98l-138 -706h-98z" />
    <glyph glyph-name="uni04D0" unicode="&#x4d0;" horiz-adv-x="643" 
d="M-39 0l387 706h110l116 -706h-99l-32 203h-266l-109 -203h-107zM219 285h214l-35 223l-9 101h-2q-27 -64 -46 -101zM417 739q-58 0 -96 29.5t-38 75.5q0 16 6 38h77q-3 -13 -3 -27q0 -25 16 -39t42 -14q32 0 56 19t30 61h77q-11 -75 -57.5 -109t-109.5 -34z" />
    <glyph glyph-name="uni04D1" unicode="&#x4d1;" horiz-adv-x="525" 
d="M1 118q0 46 22 81.5t56 57t80 35t89 18.5t88 5h26q4 22 4 43q0 78 -92 78q-76 0 -151 -48l-26 77q31 21 84.5 37t106.5 16q78 0 127 -36t49 -112q0 -21 -5 -54l-61 -316h-91l10 51l10 40h-2q-21 -37 -68 -70t-107 -33q-63 0 -106 35t-43 95zM97 132q0 -29 20.5 -48
t61.5 -19q57 0 105 50.5t62 111.5l3 18h-25q-227 0 -227 -113zM327 564q-58 0 -96 29.5t-38 75.5q0 16 6 38h77q-3 -13 -3 -27q0 -25 16 -39t42 -14q32 0 56 19t30 61h77q-11 -75 -57.5 -109t-109.5 -34z" />
    <glyph glyph-name="uni04D2" unicode="&#x4d2;" horiz-adv-x="643" 
d="M-39 0l387 706h110l116 -706h-99l-32 203h-266l-109 -203h-107zM219 285h214l-35 223l-9 101h-2q-27 -64 -46 -101zM461 781l19 101h80l-20 -101h-79zM293 781l20 101h80l-20 -101h-80z" />
    <glyph glyph-name="uni04D3" unicode="&#x4d3;" horiz-adv-x="525" 
d="M1 118q0 46 22 81.5t56 57t80 35t89 18.5t88 5h26q4 22 4 43q0 78 -92 78q-76 0 -151 -48l-26 77q31 21 84.5 37t106.5 16q78 0 127 -36t49 -112q0 -21 -5 -54l-61 -316h-91l10 51l10 40h-2q-21 -37 -68 -70t-107 -33q-63 0 -106 35t-43 95zM97 132q0 -29 20.5 -48
t61.5 -19q57 0 105 50.5t62 111.5l3 18h-25q-227 0 -227 -113zM363 606l19 101h80l-20 -101h-79zM195 606l20 101h80l-20 -101h-80z" />
    <glyph glyph-name="uni04D4" unicode="&#x4d4;" horiz-adv-x="882" 
d="M-47 0l427 706h525l-17 -86h-312l-43 -221h253l-17 -86h-253l-44 -227h328l-16 -86h-427l61 314h-169l-186 -314h-110zM297 396h137l44 224h-46z" />
    <glyph glyph-name="uni04D5" unicode="&#x4d5;" horiz-adv-x="862" 
d="M1 116q0 47 21.5 83t54.5 57t79 34.5t89 18t90 4.5h26q6 30 6 45q0 78 -95 78q-75 0 -148 -48l-26 77q88 53 189 53q120 0 152 -85h2q76 85 188 85q95 0 144.5 -50.5t49.5 -137.5q0 -43 -16 -88h-363q-5 -26 -2 -46q3 -60 40 -92t96 -32q82 0 162 59l28 -76
q-33 -27 -88 -47t-105 -20q-79 0 -133.5 33t-76.5 91h-2q-6 -13 -19 -30t-37 -40t-63.5 -38.5t-85.5 -15.5q-67 0 -112 34t-45 94zM460 313h264q2 14 2 28q0 49 -27.5 74.5t-70.5 25.5q-57 0 -101.5 -33.5t-66.5 -94.5zM100 132q0 -29 21 -47.5t60 -18.5q58 0 105.5 50.5
t59.5 110.5l3 15h-46q-203 0 -203 -110z" />
    <glyph glyph-name="uni04D6" unicode="&#x4d6;" horiz-adv-x="563" 
d="M36 0l138 706h410l-18 -86h-311l-43 -221h253l-17 -86h-252l-45 -227h328l-16 -86h-427zM397 739q-58 0 -96 29.5t-38 75.5q0 16 6 38h77q-3 -13 -3 -27q0 -25 16 -39t42 -14q32 0 56 19t30 61h77q-11 -75 -57.5 -109t-109.5 -34z" />
    <glyph glyph-name="uni04D7" unicode="&#x4d7;" horiz-adv-x="555" 
d="M31 203q0 129 84 222t209 93q95 0 144.5 -51t49.5 -136q0 -33 -16 -91h-369q-4 -24 -4 -35q0 -55 38.5 -94t106.5 -39q81 0 161 59l27 -76q-32 -26 -86 -46.5t-107 -20.5q-109 0 -173.5 60t-64.5 155zM148 310h270q3 13 3 29q0 50 -27 77t-71 27q-57 0 -104.5 -35
t-70.5 -98zM351 564q-58 0 -96 29.5t-38 75.5q0 16 6 38h77q-3 -13 -3 -27q0 -25 16 -39t42 -14q32 0 56 19t30 61h77q-11 -75 -57.5 -109t-109.5 -34z" />
    <glyph glyph-name="uni04D8" unicode="&#x4d8;" horiz-adv-x="723" 
d="M47 241q0 65 23 148h512q5 28 5 44q0 89 -51 142t-144 53q-117 0 -227 -78l-42 77q16 12 41.5 28t95.5 39.5t140 23.5q137 0 213 -80.5t76 -213.5q0 -77 -26.5 -153.5t-73.5 -140t-121.5 -103t-162.5 -39.5q-116 0 -187 66.5t-71 186.5zM144 236q0 -77 40.5 -118
t120.5 -41q101 0 170 63.5t92 169.5h-415q-8 -36 -8 -74z" />
    <glyph glyph-name="uni04D9" unicode="&#x4d9;" horiz-adv-x="559" 
d="M24 174q0 43 19 106h368q2 6 2 27q0 55 -39.5 92.5t-106.5 37.5q-47 0 -92.5 -17.5t-70.5 -37.5l-29 74q25 20 81.5 41t118.5 21q107 0 171.5 -60t64.5 -163q0 -123 -84.5 -215t-210.5 -92q-93 0 -142.5 51t-49.5 135zM116 167q0 -50 28 -76t75 -26q58 0 110.5 39.5
t71.5 105.5h-279q-6 -24 -6 -43z" />
    <glyph glyph-name="uni04DA" unicode="&#x4da;" horiz-adv-x="722" 
d="M45 242q0 54 23 136h513q6 30 3 62q-6 80 -56.5 134t-138.5 54q-60 0 -120.5 -22.5t-103.5 -56.5l-41 78q41 34 116.5 62.5t159.5 28.5q133 0 210.5 -85.5t77.5 -215.5q0 -103 -46 -200.5t-136 -163t-200 -65.5q-120 0 -190.5 69t-70.5 185zM143 238q0 -74 41.5 -117.5
t126.5 -43.5q90 0 158.5 62.5t94.5 159.5h-414q-7 -29 -7 -61zM489 781l19 101h80l-20 -101h-79zM321 781l20 101h80l-20 -101h-80z" />
    <glyph glyph-name="uni04DB" unicode="&#x4db;" horiz-adv-x="558" 
d="M370 606l19 101h80l-20 -101h-79zM202 606l20 101h80l-20 -101h-80zM24 174q0 43 19 106h368q2 6 2 27q0 55 -39.5 92.5t-106.5 37.5q-47 0 -92.5 -17.5t-70.5 -37.5l-29 74q25 20 81.5 41t118.5 21q107 0 171.5 -60t64.5 -163q0 -123 -84.5 -215t-210.5 -92
q-93 0 -142.5 51t-49.5 135zM116 167q0 -50 28 -76t75 -26q58 0 110.5 39.5t71.5 105.5h-279q-6 -24 -6 -43z" />
    <glyph glyph-name="uni04DC" unicode="&#x4dc;" horiz-adv-x="908" 
d="M592 781l19 101h80l-20 -101h-79zM424 781l20 101h80l-20 -101h-80zM-38 0l288 376v2l-143 328h103l127 -297h90l58 297h98l-58 -297h86l226 297h120l-267 -341v-2l141 -363h-103l-123 323h-97l-63 -323h-98l63 323h-87l-244 -323h-117z" />
    <glyph glyph-name="uni04DD" unicode="&#x4dd;" horiz-adv-x="747" 
d="M477 606l19 101h80l-20 -101h-79zM309 606l20 101h80l-20 -101h-80zM-38 0l209 266v2l-99 238h96l87 -207h72l40 207h92l-40 -207h70l160 207h109l-199 -254v-2l114 -250h-103l-94 216h-73l-42 -216h-92l42 216h-72l-168 -216h-109z" />
    <glyph glyph-name="uni04DE" unicode="&#x4de;" horiz-adv-x="544" 
d="M401 781l19 101h80l-20 -101h-79zM233 781l20 101h80l-20 -101h-80zM-10 85l59 64q55 -72 152 -72q73 0 124.5 41t51.5 106q0 47 -31 71t-83 24h-95l16 82h77q59 0 106 38.5t47 96.5q0 42 -27 68t-81 26q-80 0 -159 -58l-38 73q97 73 206 73q94 0 148.5 -44t54.5 -123
q0 -65 -38 -113t-99 -70l-1 -2q98 -36 98 -142q0 -102 -81.5 -169t-189.5 -67q-64 0 -123 25t-94 72z" />
    <glyph glyph-name="uni04DF" unicode="&#x4df;" horiz-adv-x="447" 
d="M321 606l19 101h80l-20 -101h-79zM153 606l20 101h80l-20 -101h-80zM-18 60l49 63q20 -22 54.5 -39.5t73.5 -17.5q47 0 83 26.5t36 73.5q0 60 -87 60h-64l13 70h56q45 0 78 22.5t33 65.5q0 58 -82 58q-61 0 -126 -44l-30 65q75 55 177 55q73 0 116 -32.5t43 -88.5
q0 -47 -25.5 -81.5t-70.5 -51.5v-2q68 -27 68 -102q0 -78 -62 -125t-148 -47q-55 0 -104 20.5t-81 51.5z" />
    <glyph glyph-name="uni04E0" unicode="&#x4e0;" horiz-adv-x="526" 
d="M28 123q21 -20 63.5 -35.5t85.5 -15.5q77 0 133 43.5t56 109.5q0 49 -36 71t-119 22h-92l13 66l215 201l50 38l-1 2q-25 -2 -58 -2h-227l16 83h408l-14 -75l-228 -207l-38 -27v-2q112 1 160 -44.5t48 -119.5q0 -104 -84 -172.5t-202 -68.5q-55 0 -106 18.5t-83 41.5z" />
    <glyph glyph-name="uni04E1" unicode="&#x4e1;" horiz-adv-x="481" 
d="M-36 -77q21 -20 63.5 -35.5t85.5 -15.5q77 0 133 43.5t56 109.5q0 49 -36 71t-119 22h-92l13 66l215 201l50 38l-1 2q-25 -2 -58 -2h-227l16 83h408l-14 -75l-228 -207l-38 -27v-2q112 1 160 -44.5t48 -119.5q0 -104 -84 -172.5t-202 -68.5q-55 0 -106 18.5t-83 41.5z
" />
    <glyph glyph-name="uni04E2" unicode="&#x4e2;" horiz-adv-x="752" 
d="M351 785l13 71h254l-13 -71h-254zM36 0l138 706h98l-89 -456l-25 -101h2q48 65 80 104l401 453h97l-137 -706h-99l89 456l25 101h-2q-46 -64 -78 -102l-403 -455h-97z" />
    <glyph glyph-name="uni04E3" unicode="&#x4e3;" horiz-adv-x="599" 
d="M236 609l13 71h254l-13 -71h-254zM18 0l98 506h92l-59 -297l-15 -68h2q31 40 58 70l277 295h94l-99 -506h-91l57 297l16 67h-2q-31 -39 -58 -69l-277 -295h-93z" />
    <glyph glyph-name="uni04E4" unicode="&#x4e4;" horiz-adv-x="752" 
d="M514 781l19 101h80l-20 -101h-79zM346 781l20 101h80l-20 -101h-80zM36 0l138 706h98l-89 -456l-25 -101h2q48 65 80 104l401 453h97l-137 -706h-99l89 456l25 101h-2q-46 -64 -78 -102l-403 -455h-97z" />
    <glyph glyph-name="uni04E5" unicode="&#x4e5;" horiz-adv-x="599" 
d="M407 606l19 101h80l-20 -101h-79zM239 606l20 101h80l-20 -101h-80zM18 0l98 506h92l-59 -297l-15 -68h2q31 40 58 70l277 295h94l-99 -506h-91l57 297l16 67h-2q-31 -39 -58 -69l-277 -295h-93z" />
    <glyph glyph-name="uni04E6" unicode="&#x4e6;" horiz-adv-x="823" 
d="M548 781l19 101h80l-20 -101h-79zM380 781l20 101h80l-20 -101h-80zM56 296q0 111 60 209t157.5 155.5t203.5 57.5q140 0 227 -84t87 -216q0 -113 -60.5 -213.5t-158 -158.5t-202.5 -58q-141 0 -227.5 86.5t-86.5 221.5zM157 300q0 -98 59.5 -159.5t153.5 -61.5
q122 0 220.5 99.5t98.5 234.5q0 95 -59.5 155t-153.5 60q-123 0 -221 -97.5t-98 -230.5z" />
    <glyph glyph-name="uni04E7" unicode="&#x4e7;" horiz-adv-x="628" 
d="M417 606l19 101h80l-20 -101h-79zM249 606l20 101h80l-20 -101h-80zM30 211q0 127 95 217t217 90q107 0 173.5 -61.5t66.5 -159.5q0 -129 -95.5 -219t-216.5 -90q-107 0 -173.5 61.5t-66.5 161.5zM129 215q0 -64 39.5 -103.5t102.5 -39.5q81 0 146.5 64t65.5 156
q0 63 -40 102.5t-102 39.5q-82 0 -147 -64t-65 -155z" />
    <glyph glyph-name="uni04E8" unicode="&#x4e8;" horiz-adv-x="823" 
d="M56 296q0 111 60 209t157.5 155.5t203.5 57.5q140 0 227 -84t87 -216q0 -113 -60.5 -213.5t-158 -158.5t-202.5 -58q-141 0 -227.5 86.5t-86.5 221.5zM155 300q0 -98 60 -160.5t155 -62.5q98 0 185.5 68t120.5 172h-521v-17zM476 630q-100 0 -187 -66.5t-119 -167.5h520
q1 5 1 17q0 96 -60 156.5t-155 60.5z" />
    <glyph glyph-name="uni04E9" unicode="&#x4e9;" horiz-adv-x="629" 
d="M30 213q0 127 95.5 216t220.5 89q103 0 169.5 -61.5t66.5 -161.5q0 -127 -95.5 -217t-219.5 -90q-103 0 -170 62t-67 163zM121 216q0 -70 41.5 -111t107.5 -41q69 0 129.5 45t82.5 116h-361v-9zM343 443q-68 0 -128 -43.5t-83 -112.5h360v4q0 69 -41.5 110.5t-107.5 41.5
z" />
    <glyph glyph-name="uni04EA" unicode="&#x4ea;" horiz-adv-x="823" 
d="M56 296q0 111 60 209t157.5 155.5t203.5 57.5q140 0 227 -84t87 -216q0 -113 -60.5 -213.5t-158 -158.5t-202.5 -58q-141 0 -227.5 86.5t-86.5 221.5zM155 300q0 -98 60 -160.5t155 -62.5q98 0 185.5 68t120.5 172h-521v-17zM476 630q-100 0 -187 -66.5t-119 -167.5h520
q1 5 1 17q0 96 -60 156.5t-155 60.5zM381 781l20 101h80l-20 -101h-80zM549 781l19 101h80l-20 -101h-79z" />
    <glyph glyph-name="uni04EB" unicode="&#x4eb;" horiz-adv-x="629" 
d="M30 213q0 127 95.5 216t220.5 89q103 0 169.5 -61.5t66.5 -161.5q0 -127 -95.5 -217t-219.5 -90q-103 0 -170 62t-67 163zM121 216q0 -70 41.5 -111t107.5 -41q69 0 129.5 45t82.5 116h-361v-9zM343 443q-68 0 -128 -43.5t-83 -112.5h360v4q0 69 -41.5 110.5t-107.5 41.5
zM251 606l20 101h80l-20 -101h-80zM419 606l19 101h80l-20 -101h-79z" />
    <glyph glyph-name="uni04EC" unicode="&#x4ec;" horiz-adv-x="717" 
d="M196 313l15 82h370q1 6 1 20q0 97 -56.5 155t-154.5 58q-120 0 -221 -78l-45 73q117 95 272 95q142 0 225 -83.5t83 -214.5q0 -112 -58.5 -212t-158 -160t-213.5 -60q-74 0 -144.5 27.5t-114.5 80.5l57 67q33 -39 88.5 -62t116.5 -23q105 0 190 66.5t118 168.5h-370z
M293 781l20 101h80l-20 -101h-80zM461 781l19 101h80l-20 -101h-79z" />
    <glyph glyph-name="uni04ED" unicode="&#x4ed;" horiz-adv-x="543" 
d="M148 218l14 70h243v9q0 69 -43 105.5t-106 36.5q-87 0 -152 -59l-40 66q36 33 91 52.5t110 19.5q106 0 169 -62t63 -160q0 -123 -93 -215.5t-227 -92.5q-54 0 -106 19.5t-83 57.5l43 66q24 -29 64.5 -46t84.5 -17q72 0 129.5 42t81.5 108h-243zM187 606l20 101h80
l-20 -101h-80zM355 606l19 101h80l-20 -101h-79z" />
    <glyph glyph-name="uni04EE" unicode="&#x4ee;" horiz-adv-x="600" 
d="M265 784l13 71h254l-13 -71h-254zM22 35l51 71q37 -32 79 -32q29 0 50 19.5t46 60.5l-171 552h102l105 -355l23 -94h2q23 50 48 93l198 356h111l-336 -576q-37 -66 -80 -104t-102 -38q-66 0 -126 47z" />
    <glyph glyph-name="uni04EF" unicode="&#x4ef;" horiz-adv-x="537" 
d="M-30 -108q22 -19 56 -19q59 0 106 74l37 60l-116 499h101l69 -343l7 -58h1q15 32 29 57l190 344h109l-355 -599q-70 -117 -175 -117q-57 0 -104 33zM204 609l13 71h254l-13 -71h-254z" />
    <glyph glyph-name="uni04F0" unicode="&#x4f0;" horiz-adv-x="600" 
d="M436 781l19 101h80l-20 -101h-79zM268 781l20 101h80l-20 -101h-80zM22 35l51 71q37 -32 79 -32q29 0 50 19.5t46 60.5l-171 552h102l105 -355l23 -94h2q23 50 48 93l198 356h111l-336 -576q-37 -66 -80 -104t-102 -38q-66 0 -126 47z" />
    <glyph glyph-name="uni04F1" unicode="&#x4f1;" horiz-adv-x="537" 
d="M-30 -108q22 -19 56 -19q59 0 106 74l37 60l-116 499h101l69 -343l7 -58h1q15 32 29 57l190 344h109l-355 -599q-70 -117 -175 -117q-57 0 -104 33zM370 606l19 101h80l-20 -101h-79zM202 606l20 101h80l-20 -101h-80z" />
    <glyph glyph-name="uni04F2" unicode="&#x4f2;" horiz-adv-x="600" 
d="M22 35l51 71q37 -32 79 -32q29 0 50 19.5t46 60.5l-171 552h102l105 -355l23 -94h2q23 50 48 93l198 356h111l-336 -576q-37 -66 -80 -104t-102 -38q-66 0 -126 47zM417 755l98 127h105l-120 -127h-83zM262 755l94 127h92l-97 -127h-89z" />
    <glyph glyph-name="uni04F3" unicode="&#x4f3;" horiz-adv-x="537" 
d="M-30 -108q22 -19 56 -19q59 0 106 74l37 60l-116 499h101l69 -343l7 -58h1q15 32 29 57l190 344h109l-355 -599q-70 -117 -175 -117q-57 0 -104 33zM347 580l98 127h105l-120 -127h-83zM192 580l94 127h92l-97 -127h-89z" />
    <glyph glyph-name="uni04F4" unicode="&#x4f4;" horiz-adv-x="635" 
d="M440 781l19 101h80l-20 -101h-79zM272 781l20 101h80l-20 -101h-80zM260 271q-90 0 -136.5 40.5t-46.5 113.5q0 29 7 57l43 224h100l-40 -208q-5 -21 -5 -45q0 -92 105 -92q94 0 177 53l57 292h100l-137 -706h-100l55 283l8 33h-2q-101 -45 -185 -45z" />
    <glyph glyph-name="uni04F5" unicode="&#x4f5;" horiz-adv-x="521" 
d="M352 606l19 101h80l-20 -101h-79zM184 606l20 101h80l-20 -101h-80zM195 178q-73 0 -111.5 32.5t-38.5 88.5q0 22 4 42l32 165h96l-28 -143q-5 -35 -5 -37q0 -66 79 -66q68 0 126 37l41 209h97l-99 -506h-97l36 184l8 29h-2q-65 -35 -138 -35z" />
    <glyph glyph-name="uni04F6" unicode="&#x4f6;" horiz-adv-x="501" 
d="M36 0l138 706h388l-16 -86h-291l-103 -534h98l-44 -226h-90l27 140h-107z" />
    <glyph glyph-name="uni04F7" unicode="&#x4f7;" horiz-adv-x="417" 
d="M18 0l98 506h317l-16 -83h-221l-66 -339h85l-39 -204h-89l24 120h-93z" />
    <glyph glyph-name="uni04F8" unicode="&#x4f8;" horiz-adv-x="844" 
d="M560 781l19 101h80l-20 -101h-79zM392 781l20 101h80l-20 -101h-80zM594 0l138 706h98l-137 -706h-99zM36 0l138 706h98l-52 -266h140q84 0 133.5 -48t49.5 -133q0 -109 -74 -184t-180 -75h-253zM151 86h134q67 0 112 46.5t45 120.5q0 47 -29 74t-78 27h-132z" />
    <glyph glyph-name="uni04F9" unicode="&#x4f9;" horiz-adv-x="705" 
d="M456 606l19 101h80l-20 -101h-79zM288 606l20 101h80l-20 -101h-80zM476 0l98 506h97l-99 -506h-96zM18 0l98 506h97l-36 -183h97q73 0 116.5 -33.5t43.5 -102.5q0 -83 -58 -135t-155 -52h-203zM128 70h85q52 0 86.5 31t34.5 80q0 72 -85 72h-85z" />
    <glyph glyph-name="uni0524" unicode="&#x524;" horiz-adv-x="775" 
d="M36 0l138 706h555l-121 -620h98l-44 -226h-89l27 140h-107l121 620h-359l-120 -620h-99z" />
    <glyph glyph-name="uni0525" unicode="&#x525;" horiz-adv-x="625" 
d="M18 0l98 506h442l-82 -422h84l-39 -204h-89l24 120h-93l82 423h-248l-82 -423h-97z" />
    <glyph glyph-name="uni1E9E" unicode="&#x1e9e;" horiz-adv-x="676" 
d="M31 0l100 514q16 85 78 138.5t147 53.5h324l-13 -68l-177 -202l-31 -34v-2q68 -7 111.5 -48t43.5 -116q0 -71 -44 -132.5t-112 -87.5q-43 -16 -132 -16h-112l17 86h102q61 0 89 11q39 15 65 53t26 80q0 45 -28 68.5t-94 23.5h-62l14 69l143 169q17 20 31 35t19 20l6 5v2
q-6 -2 -42 -2h-143q-47 0 -83 -32t-45 -80l-100 -508h-98z" />
    <glyph glyph-name="thinspace" unicode="&#x2009;" horiz-adv-x="14" 
 />
    <glyph glyph-name="endash" unicode="&#x2013;" horiz-adv-x="669" 
d="M62 246l14 78h526l-14 -78h-526z" />
    <glyph glyph-name="emdash" unicode="&#x2014;" horiz-adv-x="866" 
d="M60 246l15 78h726l-14 -78h-727z" />
    <glyph glyph-name="quoteleft" unicode="&#x2018;" horiz-adv-x="255" 
d="M104 523l103 194h75l-80 -194h-98z" />
    <glyph glyph-name="quoteright" unicode="&#x2019;" horiz-adv-x="250" 
d="M108 523l80 194h98l-103 -194h-75z" />
    <glyph glyph-name="quotesinglbase" unicode="&#x201a;" horiz-adv-x="265" 
d="M58 105h98l-103 -194h-75z" />
    <glyph glyph-name="quotedblleft" unicode="&#x201c;" horiz-adv-x="396" 
d="M245 523l103 194h75l-81 -194h-97zM104 523l103 194h75l-80 -194h-98z" />
    <glyph glyph-name="quotedblright" unicode="&#x201d;" horiz-adv-x="391" 
d="M249 523l80 194h98l-103 -194h-75zM108 523l80 194h98l-103 -194h-75z" />
    <glyph glyph-name="quotedblbase" unicode="&#x201e;" horiz-adv-x="406" 
d="M119 -89l80 194h98l-103 -194h-75zM-22 -89l80 194h98l-103 -194h-75z" />
    <glyph glyph-name="dagger" unicode="&#x2020;" horiz-adv-x="430" 
d="M99 -50l93 478h-120l15 78h120l39 200h94l-39 -200h124l-15 -78h-124l-93 -478h-94z" />
    <glyph glyph-name="daggerdbl" unicode="&#x2021;" horiz-adv-x="451" 
d="M110 -50l42 221h-120l15 78h121l35 179h-120l15 78h120l39 200h93l-38 -200h124l-15 -78h-124l-36 -179h124l-15 -78h-124l-42 -221h-94z" />
    <glyph glyph-name="bullet" unicode="&#x2022;" horiz-adv-x="478" 
d="M237 136q-64 0 -109 45.5t-45 109.5t45 109.5t109 45.5t109.5 -45.5t45.5 -109.5t-45.5 -109.5t-109.5 -45.5z" />
    <glyph glyph-name="ellipsis" unicode="&#x2026;" horiz-adv-x="762" 
d="M533 0l21 105h101l-20 -105h-102zM274 0l20 105h102l-21 -105h-101zM14 0l20 105h102l-21 -105h-101z" />
    <glyph glyph-name="perthousand" unicode="&#x2030;" horiz-adv-x="1119" 
d="M239 422q-61 0 -98 36.5t-37 95.5q0 62 53 113t120 51q61 0 98 -36.5t37 -94.5q0 -65 -53 -115t-120 -50zM19 0l666 706h100l-668 -706h-98zM246 496q34 0 61 26.5t27 61.5q0 27 -17.5 44t-45.5 17q-34 0 -61.5 -27t-27.5 -63q0 -26 17.5 -42.5t46.5 -16.5zM745 119
q0 63 53.5 114t120.5 51q60 0 97.5 -37t37.5 -95q0 -64 -53.5 -114t-119.5 -50q-61 0 -98.5 36t-37.5 95zM389 119q0 63 53.5 114t120.5 51q60 0 97.5 -37t37.5 -95q0 -64 -53.5 -114t-119.5 -50q-61 0 -98.5 36t-37.5 95zM824 121q0 -26 17 -42.5t46 -16.5q35 0 61.5 26.5
t26.5 62.5q0 25 -17.5 42.5t-45.5 17.5q-33 0 -60.5 -27.5t-27.5 -62.5zM468 121q0 -26 17.5 -42.5t45.5 -16.5q35 0 61.5 26.5t26.5 62.5q0 25 -17.5 42.5t-45.5 17.5q-33 0 -60.5 -27.5t-27.5 -62.5z" />
    <glyph glyph-name="guilsinglleft" unicode="&#x2039;" horiz-adv-x="354" 
d="M170 77l-129 207l192 204h102l-200 -210l127 -201h-92z" />
    <glyph glyph-name="guilsinglright" unicode="&#x203a;" horiz-adv-x="352" 
d="M12 77l200 210l-128 201h92l129 -207l-191 -204h-102z" />
    <glyph glyph-name="fraction" unicode="&#x2044;" horiz-adv-x="169" 
d="M-100 0h-80l473 706h80z" />
    <glyph glyph-name="zerosuperior" unicode="&#x2070;" 
d="M228 413q-135 0 -135 146q0 47 10.5 97.5t32 100t62.5 81.5t94 32q136 0 136 -147q0 -37 -6 -76.5t-21.5 -82t-37.5 -75.5t-57 -54.5t-78 -21.5zM228 482q31 0 56 23.5t38.5 60.5t20.5 76.5t7 76.5q0 82 -58 82q-41 0 -70.5 -42t-40.5 -93.5t-11 -103.5q0 -80 58 -80z
" />
    <glyph glyph-name="foursuperior" unicode="&#x2074;" 
d="M251 423l21 107h-209l9 50l253 280h85l-52 -264h62l-12 -66h-62l-21 -107h-74zM162 596h123l23 123l16 58h-2q-19 -27 -39 -48l-121 -131v-2z" />
    <glyph glyph-name="fivesuperior" unicode="&#x2075;" 
d="M218 413q-94 0 -143 68l51 47q31 -46 92 -46q39 0 71.5 28.5t32.5 68.5q0 29 -21.5 48.5t-55.5 19.5q-36 0 -78 -21l-41 16l66 218h233l-13 -67h-170l-19 -62l-11 -32h1q25 10 51 10q58 0 96 -36t38 -91q0 -66 -53 -117.5t-127 -51.5z" />
    <glyph glyph-name="sixsuperior" unicode="&#x2076;" 
d="M238 413q-65 0 -103.5 42.5t-38.5 116.5q0 60 28 127t86.5 119t129.5 52q57 0 97 -23l-34 -60q-33 14 -65 14q-45 0 -82.5 -36t-57.5 -90h2q36 31 85 31q54 0 87.5 -33.5t33.5 -86.5q0 -73 -50 -123t-118 -50zM241 482q39 0 64 30t25 71q0 29 -17.5 46.5t-48.5 17.5
q-36 0 -64 -23t-28 -55q0 -35 19 -61t50 -26z" />
    <glyph glyph-name="sevensuperior" unicode="&#x2077;" 
d="M81 423l237 323l38 47v2q-19 -2 -45 -2h-166l12 67h302l-9 -51l-283 -386h-86z" />
    <glyph glyph-name="eightsuperior" unicode="&#x2078;" 
d="M228 413q-62 0 -105 31t-43 87q0 31 20 62t38.5 46.5t37.5 27.5q-35 30 -35 70q0 62 48 97.5t108 35.5q59 0 96 -27.5t37 -74.5q0 -28 -18.5 -60t-33 -47t-27.5 -26q48 -34 48 -82q0 -59 -52.5 -99.5t-118.5 -40.5zM299 664q17 12 37 38t20 56q0 22 -18.5 34t-43.5 12
q-31 0 -55.5 -16.5t-24.5 -47.5q0 -6 1.5 -11.5t5 -11t6 -9.5t9 -8.5t10.5 -7.5t12.5 -7.5t12.5 -6.5l14 -7zM229 478q35 0 64.5 21.5t29.5 52.5q0 12 -5 21.5t-17 18.5t-21 14.5t-28 15l-27 13.5q-68 -43 -68 -97q0 -27 21.5 -43.5t50.5 -16.5z" />
    <glyph glyph-name="ninesuperior" unicode="&#x2079;" 
d="M83 436l34 60q22 -13 64 -13q46 0 83.5 35.5t57.5 89.5h-2q-38 -31 -85 -31q-54 0 -87.5 33.5t-33.5 86.5q0 74 50 123.5t118 49.5q65 0 103.5 -42.5t38.5 -116.5q0 -60 -28 -127t-86.5 -119t-129.5 -52q-55 0 -97 23zM256 636q36 0 63.5 23t27.5 55q0 35 -18.5 61
t-49.5 26q-39 0 -64.5 -30.5t-25.5 -71.5q0 -28 17.5 -45.5t49.5 -17.5z" />
    <glyph glyph-name="zeroinferior" unicode="&#x2080;" 
d="M115 -167q-135 0 -135 146q0 47 10.5 97.5t32 100t62.5 81.5t94 32q136 0 136 -147q0 -37 -6 -76.5t-21.5 -82t-37.5 -75.5t-57 -54.5t-78 -21.5zM115 -98q31 0 56 23.5t38.5 60.5t20.5 76.5t7 76.5q0 82 -58 82q-41 0 -70.5 -42t-40.5 -93.5t-11 -103.5q0 -80 58 -80z
" />
    <glyph glyph-name="oneinferior" unicode="&#x2081;" 
d="M-14 -157l13 66h93l47 244l8 27h-2q-6 -10 -22 -23l-41 -32l-37 52l127 103h67l-72 -371h92l-13 -66h-260z" />
    <glyph glyph-name="twoinferior" unicode="&#x2082;" 
d="M-39 -157q1 49 21.5 88.5t50.5 63t65 46t64.5 39t49.5 39.5t20 50q0 23 -17 37.5t-44 14.5q-42 0 -94 -48l-43 49q66 68 142 68q59 0 96 -31t37 -84q0 -43 -23.5 -77t-58 -56.5t-70 -41.5t-65 -42t-37.5 -49h211l-14 -66h-291z" />
    <glyph glyph-name="threeinferior" unicode="&#x2083;" 
d="M106 -167q-89 0 -149 66l48 49q40 -46 102 -46q38 0 66 25.5t28 62.5q0 27 -22 43t-54 16h-34l-11 38l107 103l30 24v2q-20 -3 -36 -3h-139l13 67h271l-9 -48l-133 -126q37 -8 65.5 -37t28.5 -77q0 -62 -49.5 -110.5t-122.5 -48.5z" />
    <glyph glyph-name="fourinferior" unicode="&#x2084;" 
d="M138 -157l21 107h-209l9 50l253 280h85l-52 -264h62l-12 -66h-62l-21 -107h-74zM49 16h123l23 123l16 58h-2q-19 -27 -39 -48l-121 -131v-2z" />
    <glyph glyph-name="fiveinferior" unicode="&#x2085;" 
d="M105 -167q-94 0 -143 68l51 47q31 -46 92 -46q39 0 71.5 28.5t32.5 68.5q0 29 -21.5 48.5t-55.5 19.5q-36 0 -78 -21l-41 16l66 218h233l-13 -67h-170l-19 -62l-11 -32h1q25 10 51 10q58 0 96 -36t38 -91q0 -66 -53 -117.5t-127 -51.5z" />
    <glyph glyph-name="sixinferior" unicode="&#x2086;" 
d="M126 -167q-65 0 -103.5 42.5t-38.5 116.5q0 60 28 127t86.5 119t129.5 52q57 0 97 -23l-34 -60q-33 14 -65 14q-45 0 -82.5 -36t-57.5 -90h2q36 31 85 31q54 0 87.5 -33.5t33.5 -86.5q0 -73 -50 -123t-118 -50zM129 -98q39 0 64 30t25 71q0 29 -17.5 46.5t-48.5 17.5
q-36 0 -64 -23t-28 -55q0 -35 19 -61t50 -26z" />
    <glyph glyph-name="seveninferior" unicode="&#x2087;" 
d="M-31 -157l237 323l38 47v2q-19 -2 -45 -2h-166l12 67h302l-9 -51l-283 -386h-86z" />
    <glyph glyph-name="eightinferior" unicode="&#x2088;" 
d="M115 -166q-62 0 -105 31t-43 87q0 31 20 62t38.5 46.5t37.5 27.5q-35 30 -35 70q0 62 48 97.5t108 35.5q59 0 96 -27.5t37 -74.5q0 -28 -18.5 -60t-33 -47t-27.5 -26q48 -34 48 -82q0 -59 -52.5 -99.5t-118.5 -40.5zM186 85q17 12 37 38t20 56q0 22 -18.5 34t-43.5 12
q-31 0 -55.5 -16.5t-24.5 -47.5q0 -6 1.5 -11.5t5 -11t6 -9.5t9 -8.5t10.5 -7.5t12.5 -7.5t12.5 -6.5l14 -7zM116 -101q35 0 64.5 21.5t29.5 52.5q0 12 -5 21.5t-17 18.5t-21 14.5t-28 15l-27 13.5q-68 -43 -68 -97q0 -27 21.5 -43.5t50.5 -16.5z" />
    <glyph glyph-name="nineinferior" unicode="&#x2089;" 
d="M-29 -144l34 60q22 -13 64 -13q46 0 83.5 35.5t57.5 89.5h-2q-38 -31 -85 -31q-54 0 -87.5 33.5t-33.5 86.5q0 74 50 123.5t118 49.5q65 0 103.5 -42.5t38.5 -116.5q0 -60 -28 -127t-86.5 -119t-129.5 -52q-55 0 -97 23zM144 56q36 0 63.5 23t27.5 55q0 35 -18.5 61
t-49.5 26q-39 0 -64.5 -30.5t-25.5 -71.5q0 -28 17.5 -45.5t49.5 -17.5z" />
    <glyph glyph-name="Euro" unicode="&#x20ac;" horiz-adv-x="577" 
d="M19 258l12 63h55q2 37 12 72h-53l12 64h62q51 116 153 188.5t223 72.5q61 0 116 -16l-40 -86q-44 10 -77 10q-82 0 -154 -46.5t-112 -122.5h281l-24 -64h-284q-10 -40 -13 -72h269l-25 -63h-238q8 -78 59 -127t138 -49q51 0 94 13l2 -92q-44 -15 -101 -15q-127 0 -208 74
t-91 196h-68z" />
    <glyph glyph-name="numero" unicode="&#x2116;" horiz-adv-x="1055" 
d="M752 447q0 64 50 114t117 50q55 0 89.5 -34.5t34.5 -86.5q0 -63 -51 -112.5t-117 -49.5q-55 0 -89 33.5t-34 85.5zM828 455q0 -25 15.5 -41t39.5 -16q32 0 58.5 25.5t26.5 60.5q0 25 -16 40.5t-41 15.5q-33 0 -58 -25.5t-25 -59.5zM711 196l13 70h265l-13 -70h-265zM32 0
l138 706h92l225 -458q8 -17 17.5 -43t15.5 -43l5 -17h2q5 63 13 103l89 458h99l-138 -706h-91l-226 458l-38 103h-2q-6 -63 -13 -103l-90 -458h-98z" />
    <glyph glyph-name="trademark" unicode="&#x2122;" horiz-adv-x="1053" 
d="M545 266l35 440h69l104 -230l14 -41h2q6 23 14 41l103 230h70l34 -440h-75l-20 263l1 30h-2l-96 -212h-60l-95 212h-2l1 -30l-22 -263h-75zM285 266v373h-152v67h380v-67h-152v-373h-76z" />
    <glyph glyph-name="minus" unicode="&#x2212;" horiz-adv-x="577" 
d="M27 246v78h517v-78h-517z" />
    <glyph glyph-name="infinity" unicode="&#x221e;" horiz-adv-x="486" 
d="M252 167q-75 0 -128.5 53.5t-53.5 128.5t53.5 128t128.5 53q76 0 129 -52.5t53 -128.5q0 -75 -53 -128.5t-129 -53.5z" />
    <glyph glyph-name="approxequal" unicode="&#x2248;" horiz-adv-x="577" 
d="M76 322l-41 58q71 73 151 73q50 0 107.5 -35t90.5 -35q60 0 111 55l40 -59q-71 -73 -151 -73q-50 0 -107.5 35t-90.5 35q-56 0 -110 -54zM76 133l-41 59q71 71 151 71q50 0 107.5 -35t90.5 -35q59 0 111 56l40 -59q-70 -72 -151 -72q-50 0 -107.5 35t-90.5 35
q-55 0 -110 -55z" />
    <glyph glyph-name="notequal" unicode="&#x2260;" horiz-adv-x="577" 
d="M100 73l56 78h-111v78h163l79 111h-242v78h295l81 114l52 -34l-58 -80h107v-78h-159l-80 -111h239v-78h-291l-79 -112z" />
    <glyph glyph-name="lessequal" unicode="&#x2264;" horiz-adv-x="577" 
d="M15 252v66l466 208v-89l-358 -151v-2l358 -151v-89zM16 -95h465v-77h-465v77z" />
    <glyph glyph-name="greaterequal" unicode="&#x2265;" horiz-adv-x="577" 
d="M34 44v89l357 151v2l-357 151v89l467 -208v-66zM34 -95h465v-77h-465v77z" />
    <glyph glyph-name="commaaccent" unicode="&#xf6c3;" horiz-adv-x="335" 
d="M63 -59h85v-15q0 -59 -46 -130h-74q38 68 38 116q0 12 -3 29z" />
    <glyph glyph-name="cyrbreve" unicode="&#xf6d4;" horiz-adv-x="276" 
d="M250 739q-58 0 -96 29.5t-38 75.5q0 16 6 38h77q-3 -13 -3 -27q0 -25 16 -39t42 -14q32 0 56 19t30 61h77q-11 -75 -57.5 -109t-109.5 -34z" />
    <glyph glyph-name="apple" unicode="&#xf8ff;" horiz-adv-x="1130" 
d="M167 -5v152l-126 72v278l126 71v151l265 142l134 -71l132 71l265 -142v-151l124 -71v-278l-124 -72v-152l-265 -141l-132 71l-134 -71zM207 30l238 -126l121 66l118 -66l238 126v139l114 64v249l-114 66v136l-238 126l-118 -64l-121 64l-238 -126v-136l-114 -66v-249
l114 -64v-139zM241 64v121l-99 60v225l99 58v123l215 114l110 -59l107 59l214 -114v-123l100 -58v-225l-100 -60v-121l-214 -114l-107 58l-110 -58zM446 91h43v228h228v40h-228v192h199q17 0 23 -6.5t6 -22.5v-42h42v54q0 30 -13 43.5t-45 13.5h-320v-40h65v-460z" />
    <glyph glyph-name="zero.tnum" horiz-adv-x="577" 
d="M36 221q0 58 10 121.5t34 131.5t59 121.5t91.5 88t125.5 34.5q208 0 208 -233q0 -58 -10 -121.5t-34 -131.5t-59 -121.5t-91.5 -88t-125.5 -34.5q-208 0 -208 233zM137 223q0 -144 110 -144q45 0 82.5 28.5t61.5 72.5t40.5 99t23.5 106t7 96q0 146 -109 146
q-54 0 -97.5 -40.5t-68 -104t-37.5 -130.5t-13 -129z" />
    <glyph glyph-name="one.tnum" horiz-adv-x="577" 
d="M45 0l15 86h156l88 448l10 43h-2q-11 -16 -42 -41l-77 -63l-51 68l204 165h88l-121 -620h154l-17 -86h-405z" />
    <glyph glyph-name="two.tnum" horiz-adv-x="577" 
d="M8 0q1 48 16 91t36 73.5t58 62.5t64.5 50.5t72.5 46.5q107 65 135 88q63 53 63 114q0 46 -30.5 72.5t-78.5 26.5q-47 0 -89.5 -24.5t-72.5 -65.5l-70 56q98 127 241 127q87 0 144.5 -49t57.5 -133q0 -29 -8.5 -56.5t-19 -48t-34.5 -44.5t-38.5 -37.5t-48 -36t-47.5 -31
t-51 -30.5q-42 -25 -63.5 -39.5t-49.5 -36.5t-42.5 -44t-19.5 -46h346l-17 -86h-454z" />
    <glyph glyph-name="three.tnum" horiz-adv-x="577" 
d="M3 84l61 69q63 -71 164 -71q70 0 121.5 45t51.5 109q0 52 -39 78.5t-102 26.5h-55l-12 53l185 181l54 46v2q-22 -3 -61 -3h-232l16 86h422l-12 -63l-235 -226q64 -6 117.5 -49t53.5 -128q0 -101 -78.5 -176.5t-194.5 -75.5q-66 0 -125.5 24.5t-99.5 71.5z" />
    <glyph glyph-name="four.tnum" horiz-adv-x="577" 
d="M-2 189l12 62l405 455h122l-84 -434h96l-17 -83h-95l-37 -189h-98l37 189h-341zM130 272h226l50 258l17 71h-2q-23 -33 -46 -59l-245 -268v-2z" />
    <glyph glyph-name="five.tnum" horiz-adv-x="577" 
d="M14 86l64 67q55 -71 147 -71q74 0 129.5 49.5t55.5 117.5q0 55 -38 88t-99 33q-32 0 -63.5 -9t-47.5 -17l-15 -9l-57 22l104 349h359l-16 -86h-271l-45 -147l-12 -36h2q38 19 93 19q91 0 149.5 -56.5t58.5 -146.5q0 -109 -85 -187t-204 -78q-63 0 -119 25.5t-90 72.5z
" />
    <glyph glyph-name="six.tnum" horiz-adv-x="577" 
d="M45 246q0 70 26.5 150t73.5 153t123.5 121t165.5 48q82 0 145 -30l-45 -81q-46 20 -99 20q-90 0 -158 -69.5t-100 -167.5h2q26 31 69.5 48.5t87.5 17.5q91 0 142 -53t51 -140q0 -67 -31 -129.5t-91.5 -104t-136.5 -41.5q-102 0 -163.5 70t-61.5 188zM145 237
q0 -64 34.5 -111t90.5 -47q68 0 114.5 53.5t46.5 127.5q0 52 -31.5 82.5t-89.5 30.5q-60 0 -112.5 -39.5t-52.5 -96.5z" />
    <glyph glyph-name="seven.tnum" horiz-adv-x="577" 
d="M44 0l383 555q12 19 25.5 35t21.5 23l7 7v2q-16 -2 -52 -2h-308l17 86h472l-13 -68l-443 -638h-110z" />
    <glyph glyph-name="eight.tnum" horiz-adv-x="577" 
d="M22 180q0 42 19.5 81.5t51 69t48 42t34.5 23.5q-61 47 -61 117q0 80 67.5 142.5t177.5 62.5q95 0 149 -44t54 -122q0 -36 -15.5 -73t-40.5 -67.5t-39 -45t-27 -26.5q75 -52 75 -126q0 -92 -78.5 -159t-191.5 -67q-101 0 -162 52t-61 140zM366 381q96 82 96 164
q0 39 -28.5 61.5t-78.5 22.5q-62 0 -102 -34t-40 -81q0 -16 7.5 -31t15.5 -24.5t27.5 -22.5t30 -18.5t37 -18.5t35.5 -18zM125 185q0 -49 35 -78.5t87 -29.5q65 0 115 38t50 98q0 19 -9 35.5t-29 31t-36 23.5t-47 24.5t-46 23.5q-120 -77 -120 -166z" />
    <glyph glyph-name="nine.tnum" horiz-adv-x="577" 
d="M22 18l45 81q46 -20 99 -20q90 0 158 69.5t100 167.5h-2q-22 -27 -66 -46.5t-91 -19.5q-91 0 -142 53t-51 140q0 105 73.5 190t186.5 85q103 0 164 -69.5t61 -188.5q0 -55 -16 -118t-49.5 -125.5t-78.5 -113.5t-109.5 -83t-136.5 -32q-86 0 -145 30zM290 333
q59 0 112.5 40t53.5 97q0 64 -34 110.5t-91 46.5q-68 0 -114.5 -53t-46.5 -128q0 -51 31.5 -82t88.5 -31z" />
    <glyph glyph-name="hyphen.case" horiz-adv-x="434" 
d="M72 305l16 86h292l-16 -86h-292z" />
    <glyph glyph-name="parenleft.case" horiz-adv-x="293" 
d="M103 -65q-52 131 -52 268q0 316 207 562h88q-208 -260 -208 -564q0 -137 47 -266h-82z" />
    <glyph glyph-name="parenright.case" horiz-adv-x="293" 
d="M-32 -65q208 260 208 564q0 144 -46 266h81q52 -125 52 -268q0 -318 -207 -562h-88z" />
    <glyph glyph-name="bracketleft.case" horiz-adv-x="302" 
d="M16 -65l161 830h166l-15 -73h-80l-132 -683h80l-14 -74h-166z" />
    <glyph glyph-name="bracketright.case" horiz-adv-x="301" 
d="M-6 9h80l132 683h-81l16 73h165l-161 -830h-165z" />
    <glyph glyph-name="braceleft.case" horiz-adv-x="355" 
d="M85 62q0 21 5 51l18 90q3 16 3 29q0 69 -67 80l17 86q40 5 68.5 35t37.5 76l18 90q33 168 195 168q3 0 10.5 -0.5t11.5 -0.5l-14 -74h-13q-87 0 -107 -105l-22 -110q-8 -43 -36.5 -75.5t-69.5 -45.5v-2q27 -13 43.5 -40.5t16.5 -61.5q0 -15 -3 -30l-22 -109
q-3 -13 -3 -35q0 -70 70 -70h14l-15 -74q-10 -2 -24 -2q-13 0 -27 2.5t-34 10.5t-35 21.5t-25.5 38t-10.5 57.5z" />
    <glyph glyph-name="braceright.case" horiz-adv-x="354" 
d="M3 8q11 0 22 3t29 12t32 32t21 58l23 119q9 46 37 79t69 45v2q-58 29 -58 100q0 13 3 30l18 99q5 22 5 35q0 70 -72 70h-13l15 74q5 1 23 1q17 0 36 -4.5t42.5 -16.5t39 -40t15.5 -69q0 -23 -6 -50l-15 -80q-3 -16 -3 -29q0 -32 18 -54t49 -26l-17 -86q-37 -7 -67 -34.5
t-39 -76.5l-20 -100q-34 -169 -196 -169q-3 0 -10 0.5t-12 0.5l14 75h17z" />
    <glyph glyph-name="at.case" horiz-adv-x="797" 
d="M61 286q0 114 60.5 215t161 160.5t211.5 59.5q123 0 178.5 -46.5t55.5 -123.5q0 -14 -4 -44l-53 -272h72l-14 -73h-262q-85 0 -135 47t-50 118q0 82 69 147t167 65h119q0 2 0.5 7.5t0.5 8.5q0 39 -37.5 63t-105.5 24q-88 0 -166 -50t-124 -131.5t-46 -169.5
q0 -100 63 -164t171 -64l-15 -77q-138 0 -227.5 85t-89.5 215zM380 329q0 -41 26.5 -67.5t70.5 -26.5h101l45 237h-98q-58 0 -101.5 -43t-43.5 -100z" />
    <glyph glyph-name="guillemotleft.case" horiz-adv-x="562" 
d="M381 137l-129 207l208 204h103l-217 -210l127 -201h-92zM182 137l-129 207l192 204h102l-200 -210l127 -201h-92z" />
    <glyph glyph-name="guillemotright.case" horiz-adv-x="562" 
d="M234 137l200 210l-127 201h92l128 -207l-192 -204h-101zM17 137l218 210l-127 201h92l128 -207l-208 -204h-103z" />
    <glyph glyph-name="guilsinglleft.case" horiz-adv-x="355" 
d="M182 137l-129 207l192 204h102l-200 -210l127 -201h-92z" />
    <glyph glyph-name="guilsinglright.case" horiz-adv-x="351" 
d="M22 137l201 210l-128 201h92l129 -207l-192 -204h-102z" />
    <glyph glyph-name="endash.case" horiz-adv-x="669" 
d="M73 306l14 78h526l-14 -78h-526z" />
    <glyph glyph-name="emdash.case" horiz-adv-x="869" 
d="M73 306l14 78h727l-15 -78h-726z" />
    <glyph glyph-name="periodcentered.case" horiz-adv-x="243" 
d="M69 293l20 106h102l-20 -106h-102z" />
    <glyph glyph-name="questiondown.case" horiz-adv-x="469" 
d="M280 608l19 98h101l-20 -98h-100zM20 148q0 49 22 89.5t54.5 68t66 52t60.5 54t34 61.5l8 39h94l-9 -45q-9 -44 -35.5 -81t-58.5 -62t-62 -48.5t-50.5 -52.5t-20.5 -63q0 -36 26 -59t70 -23q62 0 122 43l43 -75q-34 -25 -83 -41.5t-95 -16.5q-81 0 -133.5 43.5
t-52.5 116.5z" />
    <glyph glyph-name="exclamdown.case" horiz-adv-x="275" 
d="M147 608l19 98h101l-20 -98h-100zM29 0l107 512h87l-93 -512h-101z" />
    <glyph glyph-name="bullet.case" horiz-adv-x="477" 
d="M248 198q-64 0 -109 45.5t-45 109.5t45 109.5t109 45.5t109.5 -45t45.5 -110q0 -64 -45.5 -109.5t-109.5 -45.5z" />
    <glyph glyph-name="zero.p_osf" horiz-adv-x="586" 
d="M41 205q0 61 20 123t55.5 113.5t91.5 84t122 32.5q104 0 155 -61.5t51 -157.5q0 -84 -32.5 -162.5t-100 -133.5t-155.5 -55q-105 0 -156 60.5t-51 156.5zM140 208q0 -60 27.5 -98t82.5 -38q57 0 101.5 43t65.5 102t21 119q0 61 -27.5 99.5t-82.5 38.5q-57 0 -101.5 -43.5
t-65.5 -103t-21 -119.5z" />
    <glyph glyph-name="one.p_osf" horiz-adv-x="480" 
d="M10 0l17 84h152l57 299l13 59h-2q-19 -15 -45 -29l-98 -52l-33 72l206 113h86l-90 -462h137l-16 -84h-384z" />
    <glyph glyph-name="two.p_osf" horiz-adv-x="540" 
d="M4 0l13 67q89 52 148.5 90.5t113.5 81.5t80 82t26 76q0 38 -27 56.5t-70 18.5q-78 0 -165 -77l-44 70q43 41 102.5 67t118.5 26q87 0 136 -41t49 -109q0 -90 -78 -165.5t-236 -160.5v-2q21 4 61 4h220l-17 -84h-431z" />
    <glyph glyph-name="three.p_osf" horiz-adv-x="535" 
d="M-32 -39l58 63q57 -68 151 -68q66 0 118.5 41.5t52.5 104.5q0 50 -41.5 76t-100.5 26h-54l-14 51l175 165q12 12 25.5 23t20.5 15l7 5v2q-21 -3 -60 -3h-201l16 84h397l-11 -57l-234 -213q68 -5 121.5 -47t53.5 -122q0 -97 -80 -166t-192 -69q-60 0 -117.5 23t-90.5 66z
" />
    <glyph glyph-name="four.p_osf" horiz-adv-x="591" 
d="M-22 33l12 62l395 451h117l-84 -429h102l-17 -84h-101l-29 -149h-96l30 149h-329zM109 117h214l50 254l17 70h-2q-24 -36 -47 -63l-232 -259v-2z" />
    <glyph glyph-name="five.p_osf" horiz-adv-x="544" 
d="M-20 -32l58 61q24 -31 62.5 -48.5t81.5 -17.5q69 0 126.5 43t57.5 118q0 51 -37 79t-94 28q-65 0 -127 -31l-55 20l99 326h347l-16 -84h-260l-42 -135l-13 -34h2q40 17 92 17q90 0 147.5 -49.5t57.5 -132.5q0 -111 -86 -180.5t-199 -69.5q-61 0 -114.5 23t-87.5 67z" />
    <glyph glyph-name="six.p_osf" horiz-adv-x="594" 
d="M49 227q0 53 15.5 113t48 119.5t77 107.5t107.5 77.5t133 29.5q84 0 144 -30l-44 -74q-32 20 -98 20q-90 0 -157 -66.5t-98 -160.5h2q28 29 71.5 46.5t86.5 17.5q90 0 142.5 -50.5t52.5 -131.5q0 -99 -74.5 -178t-185.5 -79q-102 0 -162.5 64t-60.5 175zM148 220
q0 -60 34 -104t93 -44q66 0 111.5 48.5t45.5 120.5q0 49 -31.5 78t-89.5 29q-62 0 -112.5 -38.5t-50.5 -89.5z" />
    <glyph glyph-name="seven.p_osf" horiz-adv-x="515" 
d="M-1 -116l363 519l48 60v2q-14 -2 -49 -2h-295l16 83h460l-13 -64l-420 -598h-110z" />
    <glyph glyph-name="eight.p_osf" horiz-adv-x="591" 
d="M32 166q0 111 146 205q-58 46 -58 108q0 76 65.5 135.5t170.5 59.5q93 0 147 -40.5t54 -110.5q0 -89 -115 -204q71 -47 71 -118q0 -84 -77 -148.5t-186 -64.5q-98 0 -158 49t-60 129zM371 358q88 76 88 153q0 37 -28.5 58t-76.5 21q-60 0 -99 -31.5t-39 -75.5
q0 -18 7.5 -32.5t27 -28.5t31.5 -21t45.5 -22.5t43.5 -20.5zM132 174q0 -46 34.5 -74t84.5 -28q61 0 112 36.5t51 90.5q0 18 -9 33t-29 29t-36 22.5t-47.5 23t-45.5 21.5q-115 -67 -115 -154z" />
    <glyph glyph-name="nine.p_osf" horiz-adv-x="579" 
d="M48 -24q40 -20 98 -20q90 0 157.5 66.5t98.5 160.5h-2q-28 -29 -71.5 -46t-87.5 -17q-90 0 -142 50t-52 131q0 98 75 177.5t185 79.5q102 0 162.5 -63.5t60.5 -175.5q0 -53 -15.5 -113t-48 -119.5t-77 -107t-107.5 -77.5t-133 -30q-85 0 -144 30zM267 199q62 0 113 38
t51 90q0 59 -34.5 103t-92.5 44q-66 0 -112 -49t-46 -120q0 -48 32 -77t89 -29z" />
    <glyph glyph-name="zero.t_osf" horiz-adv-x="577" 
d="M37 205q0 61 20 123t55.5 113.5t91.5 84t122 32.5q104 0 155 -61.5t51 -157.5q0 -84 -32.5 -162.5t-100 -133.5t-155.5 -55q-105 0 -156 60.5t-51 156.5zM136 208q0 -60 27.5 -98t82.5 -38q57 0 101.5 43t65.5 102t21 119q0 61 -27.5 99.5t-82.5 38.5q-57 0 -101.5 -43.5
t-65.5 -103t-21 -119.5z" />
    <glyph glyph-name="one.t_osf" horiz-adv-x="577" 
d="M58 0l17 84h152l57 299l13 59h-2q-19 -15 -45 -29l-98 -52l-33 72l206 113h86l-90 -462h137l-16 -84h-384z" />
    <glyph glyph-name="two.t_osf" horiz-adv-x="577" 
d="M22 0l13 67q89 52 148.5 90.5t113.5 81.5t80 82t26 76q0 38 -27 56.5t-70 18.5q-78 0 -165 -77l-44 70q43 41 102.5 67t118.5 26q87 0 136 -41t49 -109q0 -90 -78 -165.5t-236 -160.5v-2q21 4 61 4h220l-17 -84h-431z" />
    <glyph glyph-name="three.t_osf" horiz-adv-x="577" 
d="M-11 -39l58 63q57 -68 151 -68q66 0 118 41.5t52 104.5q0 50 -41 76t-100 26h-54l-14 51l174 164q12 12 25.5 22.5t20.5 15.5l7 5v2q-21 -3 -60 -3h-200l16 84h396l-11 -57l-233 -212q42 -3 79 -19.5t66 -55.5t29 -94q0 -97 -80 -166t-191 -69q-60 0 -117.5 23t-90.5 66z
" />
    <glyph glyph-name="four.t_osf" horiz-adv-x="577" 
d="M-28 33l12 62l395 451h117l-84 -429h102l-17 -84h-101l-29 -149h-96l30 149h-329zM103 117h214l50 254l17 70h-2q-24 -36 -47 -63l-232 -259v-2z" />
    <glyph glyph-name="five.t_osf" horiz-adv-x="577" 
d="M-4 -32l58 61q24 -31 62.5 -48.5t81.5 -17.5q69 0 126.5 43t57.5 118q0 51 -37 79t-94 28q-65 0 -127 -31l-55 20l99 326h347l-16 -84h-260l-42 -135l-13 -34h2q40 17 92 17q90 0 147.5 -49.5t57.5 -132.5q0 -111 -86 -180.5t-199 -69.5q-60 0 -114 23t-88 67z" />
    <glyph glyph-name="six.t_osf" horiz-adv-x="577" 
d="M42 227q0 53 15.5 113t48 119.5t77 107.5t107.5 77.5t133 29.5q84 0 144 -30l-44 -74q-32 20 -98 20q-90 0 -157 -66.5t-98 -160.5h2q28 29 71.5 46.5t86.5 17.5q90 0 142.5 -50.5t52.5 -131.5q0 -99 -74.5 -178t-185.5 -79q-102 0 -162.5 64t-60.5 175zM141 220
q0 -60 34 -104t93 -44q66 0 111.5 48.5t45.5 120.5q0 49 -31.5 78t-89.5 29q-62 0 -112.5 -38.5t-50.5 -89.5z" />
    <glyph glyph-name="seven.t_osf" horiz-adv-x="577" 
d="M28 -116l363 519l48 60v2q-14 -2 -49 -2h-295l16 83h460l-13 -64l-420 -598h-110z" />
    <glyph glyph-name="eight.t_osf" horiz-adv-x="577" 
d="M26 166q0 111 146 205q-58 46 -58 108q0 76 65.5 135.5t170.5 59.5q93 0 147 -40.5t54 -110.5q0 -89 -115 -204q71 -47 71 -118q0 -84 -77 -148.5t-186 -64.5q-98 0 -158 49t-60 129zM365 358q88 76 88 153q0 37 -28.5 58t-76.5 21q-60 0 -99 -31.5t-39 -75.5
q0 -18 7.5 -32.5t27 -28.5t31.5 -21t45.5 -22.5t43.5 -20.5zM126 174q0 -46 34.5 -74t84.5 -28q61 0 112 36.5t51 90.5q0 18 -9 33t-29 29t-36 22.5t-47.5 23t-45.5 21.5q-115 -67 -115 -154z" />
    <glyph glyph-name="nine.t_osf" horiz-adv-x="577" 
d="M47 -24q40 -20 98 -20q90 0 157.5 66.5t98.5 160.5h-2q-28 -29 -71.5 -46t-87.5 -17q-90 0 -142 50t-52 131q0 98 75 177.5t185 79.5q102 0 162.5 -63.5t60.5 -175.5q0 -53 -15.5 -113t-48 -119.5t-77 -107t-107.5 -77.5t-133 -30q-85 0 -144 30zM266 199q62 0 113 38
t51 90q0 59 -34.5 103t-92.5 44q-66 0 -112 -49t-46 -120q0 -48 32 -77t89 -29z" />
    <glyph glyph-name="dollar.osf" horiz-adv-x="519" 
d="M3 85l59 65q66 -74 156 -74q49 0 86 24.5t37 66.5q0 21 -18.5 39t-46 30t-60 28.5t-60 34t-46 47t-18.5 66.5q0 70 55.5 118.5t143.5 56.5l17 87h71l-18 -88q82 -10 137 -62l-52 -71q-21 22 -57.5 36t-73.5 14q-49 0 -85.5 -22.5t-36.5 -67.5q0 -25 25.5 -45t62.5 -35.5
t73.5 -34t62 -51.5t25.5 -77q0 -74 -59 -124.5t-145 -55.5l-18 -92h-71l19 95q-108 17 -165 92z" />
    <glyph glyph-name="cent.osf" horiz-adv-x="556" 
d="M195 -27l17 85q-78 14 -123 68t-45 133q0 108 76.5 188.5t186.5 95.5l16 83h73l-18 -83q97 -13 153 -78l-55 -66q-43 59 -130 59q-83 0 -143 -56.5t-60 -135.5q0 -57 38 -92t103 -35q84 0 152 63l34 -76q-79 -69 -186 -74l-16 -79h-73z" />
    <glyph glyph-name="sterling.osf" horiz-adv-x="595" 
d="M0 0l15 84h62l30 157h-44l12 68h45l19 94q17 85 86 136t163 51q102 0 170 -58l-57 -66q-45 37 -119 37q-56 0 -97 -31.5t-50 -77.5l-17 -85h216l-13 -68h-216l-31 -157h325l-16 -84h-483z" />
    <glyph glyph-name="yen.osf" horiz-adv-x="620" 
d="M66 143l13 64h165l4 21l-24 55h-131l12 64h94l-94 232h106l69 -184l29 -90h2q29 50 58 90l138 184h117l-184 -232h96l-13 -64h-134l-43 -55l-4 -21h167l-13 -64h-167l-27 -143h-98l27 143h-165z" />
    <glyph glyph-name="florin.osf" horiz-adv-x="527" 
d="M-64 -37q28 -6 63 -6q105 0 136 111l67 236h-82l15 79h89l32 112q51 180 227 180q42 0 94 -9l-16 -82q-31 6 -78 6q-105 0 -136 -110l-27 -97h116l-15 -79h-124l-71 -253q-16 -56 -45 -94.5t-64 -55t-62 -22.5t-56 -6q-38 0 -80 8z" />
    <glyph glyph-name="Euro.osf" horiz-adv-x="598" 
d="M31 198l11 59h64q2 31 9 61h-60l11 60h70q41 92 126.5 152t206.5 60q59 0 111 -16l-36 -76q-35 10 -74 10q-78 0 -136 -36t-90 -94h251l-25 -60h-255q-10 -32 -11 -61h245l-24 -59h-211q10 -57 54.5 -92t119.5 -35q41 0 90 14l2 -83q-47 -14 -95 -14q-121 0 -191 59
t-84 151h-79z" />
    <glyph glyph-name="zero.numerator" 
d="M199 260q-135 0 -135 146q0 47 10.5 97.5t32 100t62.5 81.5t94 32q136 0 136 -147q0 -37 -6 -76.5t-21.5 -82t-37.5 -75.5t-57 -54.5t-78 -21.5zM199 329q31 0 56 23.5t38.5 60.5t20.5 76.5t7 76.5q0 82 -58 82q-41 0 -70.5 -42t-40.5 -93.5t-11 -103.5q0 -80 58 -80z
" />
    <glyph glyph-name="one.numerator" 
d="M69 270l13 66h93l47 244l8 27h-2q-6 -10 -22 -23l-41 -32l-37 52l127 103h67l-72 -371h92l-13 -66h-260z" />
    <glyph glyph-name="two.numerator" 
d="M44 270q1 49 21.5 88.5t50.5 63t65 46t64.5 39t49.5 39.5t20 50q0 23 -17 37.5t-44 14.5q-42 0 -94 -48l-43 49q66 68 142 68q59 0 96 -31t37 -84q0 -43 -23.5 -77t-58 -56.5t-70 -41.5t-65 -42t-37.5 -49h211l-14 -66h-291z" />
    <glyph glyph-name="three.numerator" 
d="M189 260q-89 0 -149 66l48 49q40 -46 102 -46q38 0 66 25.5t28 62.5q0 27 -22 43t-54 16h-34l-11 38l107 103l30 24v2q-20 -3 -36 -3h-139l13 67h271l-9 -48l-133 -126q37 -8 65.5 -37t28.5 -77q0 -62 -49.5 -110.5t-122.5 -48.5z" />
    <glyph glyph-name="four.numerator" 
d="M222 270l21 107h-209l9 50l253 280h85l-52 -264h62l-12 -66h-62l-21 -107h-74zM133 443h123l23 123l16 58h-2q-19 -27 -39 -48l-121 -131v-2z" />
    <glyph glyph-name="five.numerator" 
d="M188 260q-94 0 -143 68l51 47q31 -46 92 -46q39 0 71.5 28.5t32.5 68.5q0 29 -21.5 48.5t-55.5 19.5q-36 0 -78 -21l-41 16l66 218h233l-13 -67h-170l-19 -62l-11 -32h1q25 10 51 10q58 0 96 -36t38 -91q0 -66 -53 -117.5t-127 -51.5z" />
    <glyph glyph-name="six.numerator" 
d="M209 260q-65 0 -103.5 42.5t-38.5 116.5q0 60 28 127t86.5 119t129.5 52q57 0 97 -23l-34 -60q-33 14 -65 14q-45 0 -82.5 -36t-57.5 -90h2q36 31 85 31q54 0 87.5 -33.5t33.5 -86.5q0 -73 -50 -123t-118 -50zM212 329q39 0 64 30t25 71q0 29 -17.5 46.5t-48.5 17.5
q-36 0 -64 -23t-28 -55q0 -35 19 -61t50 -26z" />
    <glyph glyph-name="seven.numerator" 
d="M53 270l237 323l38 47v2q-19 -2 -45 -2h-166l12 67h302l-9 -51l-283 -386h-86z" />
    <glyph glyph-name="eight.numerator" 
d="M198 259q-62 0 -105 31t-43 87q0 31 20 62t38.5 46.5t37.5 27.5q-35 30 -35 70q0 62 48 97.5t108 35.5q59 0 96 -27.5t37 -74.5q0 -28 -18.5 -60t-33 -47t-27.5 -26q48 -34 48 -82q0 -59 -52.5 -99.5t-118.5 -40.5zM269 510q17 12 37 38t20 56q0 22 -18.5 34t-43.5 12
q-31 0 -55.5 -16.5t-24.5 -47.5q0 -6 1.5 -11.5t5 -11t6 -9.5t9 -8.5t10.5 -7.5t12.5 -7.5t12.5 -6.5l14 -7zM199 324q35 0 64.5 21.5t29.5 52.5q0 12 -5 21.5t-17 18.5t-21 14.5t-28 15l-27 13.5q-68 -43 -68 -97q0 -27 21.5 -43.5t50.5 -16.5z" />
    <glyph glyph-name="nine.numerator" 
d="M54 283l34 60q22 -13 64 -13q46 0 83.5 35.5t57.5 89.5h-2q-38 -31 -85 -31q-54 0 -87.5 33.5t-33.5 86.5q0 74 50 123.5t118 49.5q65 0 103.5 -42.5t38.5 -116.5q0 -60 -28 -127t-86.5 -119t-129.5 -52q-55 0 -97 23zM227 483q36 0 63.5 23t27.5 55q0 35 -18.5 61
t-49.5 26q-39 0 -64.5 -30.5t-25.5 -71.5q0 -28 17.5 -45.5t49.5 -17.5z" />
    <glyph glyph-name="zero.denominator" 
d="M146 -10q-135 0 -135 146q0 47 10.5 97.5t32 100t62.5 81.5t94 32q136 0 136 -147q0 -37 -6 -76.5t-21.5 -82t-37.5 -75.5t-57 -54.5t-78 -21.5zM146 59q31 0 56 23.5t38.5 60.5t20.5 76.5t7 76.5q0 82 -58 82q-41 0 -70.5 -42t-40.5 -93.5t-11 -103.5q0 -80 58 -80z" />
    <glyph glyph-name="one.denominator" 
d="M16 0l13 66h93l47 244l8 27h-2q-6 -10 -22 -23l-41 -32l-37 52l127 103h67l-72 -371h92l-13 -66h-260z" />
    <glyph glyph-name="two.denominator" 
d="M-9 0q1 49 21.5 88.5t50.5 63t65 46t64.5 39t49.5 39.5t20 50q0 23 -17 37.5t-44 14.5q-42 0 -94 -48l-43 49q66 68 142 68q59 0 96 -31t37 -84q0 -43 -23.5 -77t-58 -56.5t-70 -41.5t-65 -42t-37.5 -49h211l-14 -66h-291z" />
    <glyph glyph-name="three.denominator" 
d="M136 -10q-89 0 -149 66l48 49q40 -46 102 -46q38 0 66 25.5t28 62.5q0 27 -22 43t-54 16h-34l-11 38l107 103l30 24v2q-20 -3 -36 -3h-139l13 67h271l-9 -48l-133 -126q37 -8 65.5 -37t28.5 -77q0 -62 -49.5 -110.5t-122.5 -48.5z" />
    <glyph glyph-name="four.denominator" 
d="M169 0l21 107h-209l9 50l253 280h85l-52 -264h62l-12 -66h-62l-21 -107h-74zM80 173h123l23 123l16 58h-2q-19 -27 -39 -48l-121 -131v-2z" />
    <glyph glyph-name="five.denominator" 
d="M136 -10q-94 0 -143 68l51 47q31 -46 92 -46q39 0 71.5 28.5t32.5 68.5q0 29 -21.5 48.5t-55.5 19.5q-36 0 -78 -21l-41 16l66 218h233l-13 -67h-170l-19 -62l-11 -32h1q25 10 51 10q58 0 96 -36t38 -91q0 -66 -53 -117.5t-127 -51.5z" />
    <glyph glyph-name="six.denominator" 
d="M156 -10q-65 0 -103.5 42.5t-38.5 116.5q0 60 28 127t86.5 119t129.5 52q57 0 97 -23l-34 -60q-33 14 -65 14q-45 0 -82.5 -36t-57.5 -90h2q36 31 85 31q54 0 87.5 -33.5t33.5 -86.5q0 -73 -50 -123t-118 -50zM159 59q39 0 64 30t25 71q0 29 -17.5 46.5t-48.5 17.5
q-36 0 -64 -23t-28 -55q0 -35 19 -61t50 -26z" />
    <glyph glyph-name="seven.denominator" 
d="M-1 0l237 323l38 47v2q-19 -2 -45 -2h-166l12 67h302l-9 -51l-283 -386h-86z" />
    <glyph glyph-name="eight.denominator" 
d="M146 -10q-62 0 -105 31t-43 87q0 31 20 62t38.5 46.5t37.5 27.5q-35 30 -35 70q0 62 48 97.5t108 35.5q59 0 96 -27.5t37 -74.5q0 -28 -18.5 -60t-33 -47t-27.5 -26q48 -34 48 -82q0 -59 -52.5 -99.5t-118.5 -40.5zM217 241q17 12 37 38t20 56q0 22 -18.5 34t-43.5 12
q-31 0 -55.5 -16.5t-24.5 -47.5q0 -6 1.5 -11.5t5 -11t6 -9.5t9 -8.5t10.5 -7.5t12.5 -7.5t12.5 -6.5l14 -7zM147 55q35 0 64.5 21.5t29.5 52.5q0 12 -5 21.5t-17 18.5t-21 14.5t-28 15l-27 13.5q-68 -43 -68 -97q0 -27 21.5 -43.5t50.5 -16.5z" />
    <glyph glyph-name="nine.denominator" 
d="M1 13l34 60q22 -13 64 -13q46 0 83.5 35.5t57.5 89.5h-2q-38 -31 -85 -31q-54 0 -87.5 33.5t-33.5 86.5q0 74 50 123.5t118 49.5q65 0 103.5 -42.5t38.5 -116.5q0 -60 -28 -127t-86.5 -119t-129.5 -52q-55 0 -97 23zM174 213q36 0 63.5 23t27.5 55q0 35 -18.5 61
t-49.5 26q-39 0 -64.5 -30.5t-25.5 -71.5q0 -28 17.5 -45.5t49.5 -17.5z" />
    <glyph glyph-name="uni0433.BUL" horiz-adv-x="449" 
d="M4 112q0 48 32.5 84.5t79 57.5t92.5 39t78.5 41.5t32.5 52.5q0 49 -70 49q-80 0 -137 -42l-33 70q75 54 178 54q71 0 114 -31.5t43 -91.5q0 -49 -32.5 -85.5t-78.5 -58t-92 -39.5t-78.5 -40.5t-32.5 -50.5q0 -51 75 -51q90 0 158 57l42 -70q-94 -69 -209 -69
q-76 0 -119 33t-43 91z" />
    <glyph glyph-name="uni0434.BUL" horiz-adv-x="593" 
d="M44 -93q53 -33 135 -33q70 0 121.5 34.5t66.5 106.5l7 38l10 35h-2q-60 -82 -156 -82q-90 0 -141.5 56.5t-51.5 148.5q0 73 30 142t92.5 117t144.5 48q122 0 154 -79h3q-1 10 1 20l9 47h92l-95 -492q-23 -116 -101 -170t-179 -54q-108 0 -182 45zM132 218
q0 -59 30.5 -93.5t86.5 -34.5t97 38.5t59.5 90.5t18.5 106q0 109 -116 109q-80 0 -128 -65t-48 -151z" />
    <glyph glyph-name="uni0436.BUL" horiz-adv-x="753" 
d="M-39 0l211 267v2l-100 237h96l88 -207h74l80 407h92l-80 -407h74l156 207h109l-194 -253v-2l110 -251h-101l-93 216h-77l-43 -216h-91l42 216h-74l-168 -216h-111z" />
    <glyph glyph-name="uni0438.BUL" horiz-adv-x="597" 
d="M41 122q0 24 7 64l62 320h97l-58 -298q-6 -33 -6 -58q0 -72 77 -72q72 0 129.5 60t71.5 138l45 230h97l-98 -506h-95l12 59l13 48h-2q-26 -44 -81 -81.5t-125 -37.5q-65 0 -105.5 32.5t-40.5 101.5z" />
    <glyph glyph-name="uni0439.BUL" horiz-adv-x="597" 
d="M41 122q0 24 7 64l62 320h97l-58 -298q-6 -33 -6 -58q0 -72 77 -72q72 0 129.5 60t71.5 138l45 230h97l-98 -506h-95l12 59l13 48h-2q-26 -44 -81 -81.5t-125 -37.5q-65 0 -105.5 32.5t-40.5 101.5zM355 564q-58 0 -96 29.5t-38 75.5q0 16 6 38h77q-3 -13 -3 -27
q0 -25 16 -39t42 -14q32 0 56 19t30 61h77q-11 -75 -57.5 -109t-109.5 -34z" />
    <glyph glyph-name="uni043A.BUL" horiz-adv-x="523" 
d="M18 0l138 706h96l-75 -386h69l175 186h117l-216 -227v-2l131 -277h-105l-107 237h-79l-47 -237h-97z" />
    <glyph glyph-name="uni043B.BUL" horiz-adv-x="527" 
d="M-38 0l287 506h111l89 -506h-98l-56 343l-4 68h-2q-16 -41 -31 -68l-190 -343h-106z" />
    <glyph glyph-name="uni043F.BUL" horiz-adv-x="602" 
d="M18 0l98 506h94l-10 -59l-14 -48h2q24 43 82 81t126 38q70 0 109.5 -33.5t39.5 -100.5q0 -24 -7 -64l-62 -320h-97l58 299q7 37 7 57q0 73 -76 73q-74 0 -133.5 -58.5t-75.5 -139.5l-44 -231h-97z" />
    <glyph glyph-name="uni0442.BUL" horiz-adv-x="914" 
d="M18 0l98 506h94l-12 -64l-12 -43h2q27 48 80.5 83.5t112.5 35.5q122 0 134 -115h2q29 49 83.5 82t113.5 33q69 0 105.5 -33.5t36.5 -100.5q0 -28 -8 -68l-61 -316h-97l58 301q7 31 7 55q0 74 -72 74q-67 0 -119.5 -60.5t-67.5 -138.5l-45 -231h-97l59 301q6 33 6 57
q0 72 -70 72q-67 0 -120.5 -60t-68.5 -139l-45 -231h-97z" />
    <glyph glyph-name="uni0446.BUL" horiz-adv-x="628" 
d="M41 122q0 24 7 64l62 320h97l-58 -299q-6 -30 -6 -57q0 -72 74 -72t133 58t74 139l45 231h97l-82 -422h80l-40 -204h-89l23 120h-85l11 59l14 48h-2q-25 -44 -81.5 -81.5t-125.5 -37.5q-70 0 -109 33.5t-39 100.5z" />
    <glyph glyph-name="uni0448.BUL" horiz-adv-x="913" 
d="M878 505l-98 -506h-94l12 64l12 43h-2q-27 -48 -80.5 -83.5t-112.5 -35.5q-122 0 -134 115h-2q-29 -49 -83.5 -82t-113.5 -33q-69 0 -105.5 33.5t-36.5 100.5q0 28 8 68l61 316h97l-58 -301q-7 -31 -7 -55q0 -74 72 -74q67 0 119.5 60.5t67.5 138.5l45 231h97l-59 -301
q-6 -33 -6 -57q0 -72 70 -72q67 0 120.5 60t68.5 139l45 231h97z" />
    <glyph glyph-name="uni0449.BUL" horiz-adv-x="941" 
d="M878 505l-82 -421h81l-40 -204h-88l23 119h-86l12 64l12 43h-2q-27 -48 -80.5 -83.5t-112.5 -35.5q-122 0 -134 115h-2q-29 -49 -83.5 -82t-113.5 -33q-69 0 -105.5 33.5t-36.5 100.5q0 28 8 68l61 316h97l-58 -301q-7 -31 -7 -55q0 -74 72 -74q67 0 119.5 60.5
t67.5 138.5l45 231h97l-59 -301q-6 -33 -6 -57q0 -72 70 -72q67 0 120.5 60t68.5 139l45 231h97z" />
    <glyph glyph-name="uni044A.BUL" horiz-adv-x="573" 
d="M104 144q0 25 6 53l44 226h-107l15 83h205l-28 -141q-8 -39 -10 -45h2q54 52 140 52q69 0 111 -40t42 -113q0 -95 -69 -163t-175 -68q-80 0 -128 41t-48 115zM201 161q-2 -43 20.5 -70t66.5 -27q60 0 98 44.5t38 104.5q0 83 -83 83q-56 0 -96.5 -39.5t-43.5 -95.5z" />
    <glyph glyph-name="uni044C.BUL" horiz-adv-x="513" 
d="M44 144q0 25 6 53l60 309h96l-27 -141q-3 -18 -10 -45h2q56 52 140 52q70 0 112 -40t42 -113q0 -95 -69.5 -163t-175.5 -68q-80 0 -128 41t-48 115zM140 154q0 -41 23 -65.5t65 -24.5q59 0 98 44.5t39 104.5q0 83 -85 83q-58 0 -99 -41.5t-41 -100.5z" />
    <glyph glyph-name="uni044E.BUL" horiz-adv-x="830" 
d="M247 211v3h-91l-42 -214h-96l137 706h96l-80 -412h88q28 98 111.5 161t181.5 63q102 0 167 -61.5t65 -159.5q0 -128 -93 -218.5t-211 -90.5q-103 0 -168 62t-65 161zM346 215q0 -64 37.5 -103.5t97.5 -39.5q79 0 141.5 64t62.5 156q0 63 -38 102.5t-97 39.5
q-79 0 -141.5 -64t-62.5 -155z" />
    <glyph glyph-name="uni0432.BUL" horiz-adv-x="591" 
d="M46 186q0 24 7 61l38 196q24 123 97.5 199t186.5 76q77 0 124 -35.5t47 -93.5q0 -102 -154 -170v-2q59 -5 103 -46t44 -117q0 -110 -85.5 -188t-203.5 -78q-97 0 -150.5 55t-53.5 143zM170 369h2q26 35 88 64l64 30q36 17 59.5 31t44.5 38t21 49q0 29 -23 44t-60 15
q-67 0 -113.5 -50t-62.5 -130zM140 185q0 -54 32 -82.5t83 -28.5q76 0 130 56t54 126q0 54 -35 79t-85 25q-77 0 -128 -51.5t-51 -123.5z" />
    <glyph glyph-name="uni0437.BUL" horiz-adv-x="446" 
d="M-30 -89q43 -36 110 -36q73 0 126 46.5t53 113.5q0 101 -130 101h-58l15 79h59q61 0 109.5 39.5t48.5 97.5q0 40 -25.5 61.5t-68.5 21.5q-64 0 -126 -48l-40 66q87 65 187 65q81 0 127 -42.5t46 -107.5q0 -62 -39.5 -113.5t-101.5 -76.5v-2q96 -41 96 -144
q0 -101 -82 -171.5t-189 -70.5q-45 0 -90 13t-71 34z" />
    <glyph glyph-name="uni0414.ALT" horiz-adv-x="711" 
d="M-72 -140l44 226h72l339 620h103l98 -620h75l-44 -226h-90l28 140h-508l-28 -140h-89zM151 86h334l-61 410l-8 97h-2q-25 -61 -44 -97z" />
    <glyph glyph-name="uni041B.ALT" horiz-adv-x="632" 
d="M-44 0l390 706h103l113 -706h-100l-75 496l-7 97h-2q-25 -61 -44 -97l-267 -496h-111z" />
    <glyph glyph-name="uni0434.ALT" horiz-adv-x="600" 
d="M-60 -120l39 200h58l246 426h116l78 -426h62l-39 -200h-89l23 120h-383l-23 -120h-88zM138 80h245l-49 271l-6 68h-2q-18 -41 -33 -68z" />
    <glyph glyph-name="uni043B.ALT" horiz-adv-x="527" 
d="M-38 0l287 506h111l89 -506h-98l-56 343l-4 68h-2q-16 -41 -31 -68l-190 -343h-106z" />
    <glyph glyph-name="uni0409.ALT" horiz-adv-x="889" 
d="M-40 0l412 706h211l-57 -289h128q88 0 141.5 -49t53.5 -131q0 -96 -73.5 -166.5t-181.5 -70.5h-247l121 620h-38l-362 -620h-108zM462 86h124q66 0 114 42t48 105q0 47 -31 72.5t-84 25.5h-123z" />
    <glyph glyph-name="uni0459.ALT" horiz-adv-x="747" 
d="M-37 0l308 506h205l-38 -190h96q162 0 162 -135q0 -84 -60.5 -132.5t-154.5 -48.5h-201l84 431h-40l-259 -431h-102zM390 70h89q50 0 85.5 27.5t35.5 76.5q0 71 -86 71h-89z" />
    <glyph glyph-name="uni04C5.ALT" horiz-adv-x="708" 
d="M461 0l-75 496l-7 97h-2q-25 -61 -44 -97l-267 -496h-110l389 706h103l100 -620h119l-11 -57l-105 -169h-73l70 140h-87z" />
    <glyph glyph-name="uni04C6.ALT" horiz-adv-x="584" 
d="M-38 0l287 506h111l74 -423h107l-10 -55l-92 -148h-68l59 120h-79l-57 343l-4 68h-2q-17 -41 -31 -68l-190 -343h-105z" />
    </font>
</defs>
</svg>
