<?xml version="1.0" standalone="no"?>
<!DOCTYPE svg PUBLIC "-//W3C//DTD SVG 1.1//EN" "http://www.w3.org/Graphics/SVG/1.1/DTD/svg11.dtd" >
<svg xmlns="http://www.w3.org/2000/svg" xmlns:xlink="http://www.w3.org/1999/xlink" version="1.1">
<metadata>
Created by FontForge 20170731 at Tue Aug  7 14:02:22 2012
 By Aleksey,,,
Copyright (c) 2012 by Jos Buivenga. All rights reserved.
</metadata>
<defs>
<font id="MuseoSansCyrl-300Italic" horiz-adv-x="381" >
  <font-face 
    font-family="Museo Sans Cyrl 300"
    font-weight="300"
    font-style="italic"
    font-stretch="normal"
    units-per-em="1000"
    panose-1="2 0 0 0 0 0 0 0 0 0"
    ascent="750"
    descent="-250"
    x-height="503"
    cap-height="703"
    bbox="-176 -210 1087 883"
    underline-thickness="50"
    underline-position="-200"
    slope="-11"
    unicode-range="U+0020-FB04"
  />
<missing-glyph horiz-adv-x="510" 
d="M5 0v700h500v-700h-500zM255 395l170 255h-340zM455 95v510l-170 -255zM55 95l170 255l-170 255v-510zM85 50h340l-170 255z" />
    <glyph glyph-name="f_f" unicode="ff" horiz-adv-x="647" 
d="M42 0l87 446h-63l11 57h63l4 23q11 56 36.5 95.5t58 56.5t58 23.5t50.5 6.5q19 0 37 -3l-13 -60q-4 2 -23 2q-112 0 -137 -127l-3 -17h256l4 23q11 56 36.5 95.5t58 56.5t58 23.5t49.5 6.5q18 0 38 -3l-14 -60q-4 2 -22 2q-112 0 -137 -127l-4 -17h129l-11 -57h-128
l-87 -446h-68l87 446h-256l-87 -446h-68z" />
    <glyph glyph-name="fi" unicode="fi" horiz-adv-x="544" 
d="M42 0l87 446h-63l11 57h63l4 23q11 56 36.5 95.5t58 56.5t58 23.5t50.5 6.5q19 0 37 -3l-13 -60q-6 2 -23 2q-112 0 -137 -127l-3 -17h297l-99 -503h-67l86 446h-228l-87 -446h-68zM456 618l17 85h74l-17 -85h-74z" />
    <glyph glyph-name="fl" unicode="fl" horiz-adv-x="573" 
d="M366 89q0 17 4 36l112 578h69l-111 -569q-3 -16 -3 -31q0 -20 8 -30.5t17 -12.5t22 -2q7 0 14 1l-13 -61q-8 -2 -23 -2q-38 0 -67 20.5t-29 72.5zM43 0l86 442h-63l11 57h63l5 24q11 58 37 98t58.5 57t57.5 23.5t50 6.5q20 0 38 -3l-14 -60q-8 2 -22 2q-18 0 -35.5 -4.5
t-39 -16t-38.5 -39t-24 -66.5l-5 -22h129l-11 -57h-129l-85 -442h-69z" />
    <glyph glyph-name="f_f_i" unicode="ffi" horiz-adv-x="871" 
d="M42 0l87 446h-63l11 57h63l4 23q11 56 36.5 95.5t58 56.5t58 23.5t50.5 6.5q19 0 37 -3l-13 -60q-10 2 -23 2q-112 0 -137 -127l-3 -17h256l4 23q11 56 36.5 95.5t58 56.5t58 23.5t49.5 6.5q18 0 38 -3l-14 -60q-6 2 -22 2q-112 0 -137 -127l-4 -17h301l-98 -503h-69
l87 446h-231l-87 -446h-68l87 446h-256l-87 -446h-68zM783 618l17 85h74l-18 -85h-73z" />
    <glyph glyph-name="f_f_l" unicode="ffl" horiz-adv-x="896" 
d="M42 0l87 446h-63l11 57h63l4 23q11 56 36.5 95.5t58 56.5t58 23.5t50.5 6.5q19 0 37 -3l-13 -60q-4 2 -23 2q-112 0 -137 -127l-3 -17h256l4 23q11 56 36.5 95.5t58 56.5t58 23.5t49.5 6.5q18 0 38 -3l-14 -60q-4 2 -22 2q-112 0 -137 -127l-4 -17h129l-11 -57h-128
l-87 -446h-68l87 446h-256l-87 -446h-68zM688 89q0 17 4 36l112 578h69l-111 -569q-3 -16 -3 -31q0 -20 8 -30.5t17 -12.5t22 -2q7 0 14 1l-13 -61q-8 -2 -23 -2q-38 0 -67 20.5t-29 72.5z" />
    <glyph glyph-name="f_j" unicode="fj" horiz-adv-x="548" 
d="M42 0l87 446h-63l11 57h63l4 23q11 56 36.5 95.5t58 56.5t58 23.5t50.5 6.5q16 0 37 -3l-13 -60q-8 2 -23 2q-112 0 -137 -127l-3 -17h300l-101 -521q-11 -59 -36 -99.5t-56.5 -58t-56.5 -24t-51 -6.5q-19 0 -40 3l12 60q10 -2 22 -2q18 0 35.5 4.5t39 16.5t39 40
t25.5 68l89 462h-232l-87 -446h-68zM459 618l17 85h73l-16 -85h-74z" />
    <glyph glyph-name=".notdef" horiz-adv-x="510" 
d="M5 0v700h500v-700h-500zM255 395l170 255h-340zM455 95v510l-170 -255zM55 95l170 255l-170 255v-510zM85 50h340l-170 255z" />
    <glyph glyph-name=".null" horiz-adv-x="0" 
 />
    <glyph glyph-name="nonmarkingreturn" horiz-adv-x="333" 
 />
    <glyph glyph-name="space" unicode=" " horiz-adv-x="250" 
 />
    <glyph glyph-name="exclam" unicode="!" horiz-adv-x="262" 
d="M77 184l98 519h71l-105 -519h-64zM34 0l16 79h79l-16 -79h-79z" />
    <glyph glyph-name="quotedbl" unicode="&#x22;" horiz-adv-x="339" 
d="M249 545l33 168h58l-33 -168h-58zM128 545l32 168h59l-33 -168h-58z" />
    <glyph glyph-name="numbersign" unicode="#" horiz-adv-x="725" 
d="M96 0l72 195h-140l20 56h141l73 196h-140l20 56h140l74 200h62l-74 -200h173l74 200h63l-74 -200h139l-21 -56h-139l-72 -196h138l-20 -56h-139l-72 -195h-63l72 195h-172l-73 -195h-62zM251 251h173l73 196h-173z" />
    <glyph glyph-name="dollar" unicode="$" horiz-adv-x="568" 
d="M24 78l45 49q67 -73 171 -73q70 0 120 36.5t50 100.5q0 43 -30 74.5t-72 52t-84.5 43t-72.5 61.5t-30 94q0 85 64.5 138.5t155.5 59.5l19 93h56l-18 -94q95 -10 153 -68l-41 -52q-25 26 -66 41t-81 15q-66 0 -119 -35.5t-53 -95.5q0 -40 30 -69.5t72.5 -50t85 -43.5
t72.5 -63.5t30 -97.5q0 -86 -63 -143t-161 -62l-18 -92h-56l18 94q-111 11 -177 87z" />
    <glyph glyph-name="percent" unicode="%" horiz-adv-x="737" 
d="M234 437q-57 0 -91 34t-34 90q0 59 49.5 106.5t112.5 47.5q56 0 90 -34.5t34 -88.5q0 -61 -49.5 -108t-111.5 -47zM10 0l665 703h77l-665 -703h-77zM237 493q39 0 69 30t30 70q0 29 -19 47.5t-49 18.5q-38 0 -68.5 -30.5t-30.5 -69.5q0 -28 19 -47t49 -19zM363 112
q0 58 50 106t112 48q56 0 90.5 -34.5t34.5 -88.5q0 -60 -49.5 -107.5t-112.5 -47.5q-57 0 -91 34t-34 90zM423 110q0 -29 19 -47.5t50 -18.5q39 0 68.5 29.5t29.5 69.5q0 29 -19 48t-49 19q-38 0 -68.5 -30.5t-30.5 -69.5z" />
    <glyph glyph-name="ampersand" unicode="&#x26;" horiz-adv-x="664" 
d="M38 167q0 71 47.5 132t122.5 80v2q-3 1 -8 3.5t-17.5 12t-22 22t-17.5 35.5t-8 51q0 92 68.5 151t170.5 59q38 0 86 -12l-28 -56q-30 7 -58 7q-69 0 -118.5 -41.5t-49.5 -108.5q0 -98 130 -98h148l20 99h68l-19 -99h95l-12 -62h-95l-20 -103q-50 -253 -271 -253
q-100 0 -156 49t-56 130zM111 169q0 -51 37 -83.5t103 -32.5q164 0 201 190l20 101h-148q-89 0 -151 -46t-62 -129z" />
    <glyph glyph-name="quotesingle" unicode="'" horiz-adv-x="218" 
d="M128 545l32 168h60l-33 -168h-59z" />
    <glyph glyph-name="parenleft" unicode="(" horiz-adv-x="278" 
d="M98 -95q-48 127 -48 265q0 313 203 560h66q-207 -261 -207 -561q0 -137 47 -264h-61z" />
    <glyph glyph-name="parenright" unicode=")" horiz-adv-x="279" 
d="M-32 -95q207 263 207 561q0 141 -47 264h61q49 -126 49 -266q0 -311 -204 -559h-66z" />
    <glyph glyph-name="asterisk" unicode="*" horiz-adv-x="495" 
d="M168 337l-49 39l119 123l-136 42l31 61l134 -53l24 154h68l-37 -154l157 52l8 -63l-159 -44l70 -120l-56 -38l-63 128z" />
    <glyph glyph-name="plus" unicode="+" horiz-adv-x="568" 
d="M196 0l50 255h-231l11 58h230l51 255h61l-50 -255h230l-11 -58h-230l-50 -255h-61z" />
    <glyph glyph-name="comma" unicode="," horiz-adv-x="263" 
d="M-30 -97l93 179h78l-110 -179h-61z" />
    <glyph glyph-name="hyphen" unicode="-" horiz-adv-x="432" 
d="M66 253l11 62h284l-11 -62h-284z" />
    <glyph glyph-name="period" unicode="." horiz-adv-x="230" 
d="M18 0l16 83h82l-16 -83h-82z" />
    <glyph glyph-name="slash" unicode="/" horiz-adv-x="421" 
d="M-16 -42l406 784h68l-406 -784h-68z" />
    <glyph glyph-name="zero" unicode="0" horiz-adv-x="620" 
d="M63 215q0 47 7 99.5t22 110t40.5 108.5t59.5 92t83 65.5t106 24.5q197 0 197 -228q0 -58 -9.5 -121.5t-33.5 -132t-59 -122t-91 -88.5t-125 -35q-197 0 -197 227zM134 215q0 -162 128 -162q52 0 95 30.5t70 77.5t45.5 106.5t26 114.5t7.5 104q0 163 -128 163
q-62 0 -111 -43t-76.5 -110t-42 -139.5t-14.5 -141.5z" />
    <glyph glyph-name="one" unicode="1" horiz-adv-x="467" 
d="M3 0l11 62h157l100 509l9 39h-2q-11 -14 -44 -42l-87 -73l-38 50l192 158h64l-125 -641h154l-12 -62h-379z" />
    <glyph glyph-name="two" unicode="2" horiz-adv-x="563" 
d="M8 0q1 44 16.5 84.5t36 69t57.5 59.5t64 49.5t73 46.5q111 68 143 95q71 60 71 130q0 54 -35 84.5t-90 30.5q-50 0 -96.5 -26t-79.5 -69l-50 40q40 53 101 87t132 34q83 0 136.5 -47t53.5 -127q0 -29 -9 -56.5t-18.5 -47t-34.5 -44.5t-38.5 -37.5t-49.5 -37t-48 -31.5
t-53 -32q-44 -26 -69 -43t-56 -42t-48 -51.5t-23 -56.5h366l-13 -62h-439z" />
    <glyph glyph-name="three" unicode="3" horiz-adv-x="562" 
d="M6 84l47 48q68 -77 172 -77q74 0 132.5 52.5t58.5 128.5q0 58 -42 89t-108 31h-54l-9 41l215 206l45 39v2q-21 -3 -58 -3h-259l12 62h411l-9 -46l-257 -244q30 -1 59 -10t58.5 -28t48 -54.5t18.5 -83.5q0 -100 -78.5 -174.5t-185.5 -74.5q-64 0 -121.5 24.5t-95.5 71.5z
" />
    <glyph glyph-name="four" unicode="4" horiz-adv-x="600" 
d="M19 195l8 45l429 463h81l-87 -448h100l-12 -60h-100l-38 -195h-69l38 195h-350zM119 255h262l58 295l16 67h-2q-23 -29 -45 -54l-289 -306v-2z" />
    <glyph glyph-name="five" unicode="5" horiz-adv-x="560" 
d="M15 87l50 45q56 -77 152 -77q83 0 145 57t62 136q0 62 -42 99.5t-109 37.5q-34 0 -68 -9.5t-51 -19.5l-16 -10l-43 16l104 341h342l-12 -62h-280l-55 -178l-14 -40h2q43 25 109 25q91 0 148 -55t57 -143q0 -107 -83.5 -184.5t-197.5 -77.5q-61 0 -114.5 25.5t-85.5 73.5z
" />
    <glyph glyph-name="six" unicode="6" horiz-adv-x="591" 
d="M58 241q0 66 25.5 145.5t71 154t121.5 124.5t165 50q76 0 135 -29l-35 -58q-40 21 -99 21q-103 0 -179.5 -83.5t-109.5 -197.5h2q32 38 81.5 60t101.5 22q87 0 138 -50.5t51 -135.5q0 -106 -72 -191t-184 -85q-99 0 -156 69t-57 184zM129 228q0 -69 38 -122t102 -53
q79 0 133.5 61.5t54.5 148.5q0 58 -35 91.5t-98 33.5q-67 0 -131 -46.5t-64 -113.5z" />
    <glyph glyph-name="seven" unicode="7" horiz-adv-x="526" 
d="M36 0l397 576q12 17 25 33t20 24l7 8v2q-18 -2 -54 -2h-323l12 62h457l-9 -48l-454 -655h-78z" />
    <glyph glyph-name="eight" unicode="8" horiz-adv-x="597" 
d="M39 174q0 45 21.5 87.5t53.5 71t51.5 43t33.5 21.5q-66 50 -66 119q0 78 66.5 138.5t172.5 60.5q92 0 143 -42t51 -115q0 -38 -16.5 -77.5t-43.5 -71.5t-41 -46t-28 -26q79 -53 79 -126q0 -93 -78.5 -158t-186.5 -65q-93 0 -152.5 49.5t-59.5 136.5zM382 368
q112 94 112 186q0 45 -33.5 71t-90.5 26q-72 0 -118.5 -39.5t-46.5 -94.5q0 -22 9 -40.5t31 -34.5t37.5 -25t51 -25.5t48.5 -23.5zM112 176q0 -57 40.5 -90.5t99.5 -33.5q74 0 132.5 44.5t58.5 113.5q0 22 -10.5 41t-33 34.5t-42 26t-53 27t-51.5 25.5q-18 -10 -35.5 -22.5
t-44.5 -36.5t-44 -58t-17 -71z" />
    <glyph glyph-name="nine" unicode="9" horiz-adv-x="591" 
d="M37 17l35 58q47 -22 99 -22q70 0 131 43t99 104.5t59 134.5h-2q-30 -36 -80 -59t-103 -23q-87 0 -138 50.5t-51 134.5q0 106 72.5 191.5t184.5 85.5q99 0 155.5 -69t56.5 -184q0 -66 -25.5 -145.5t-71 -154t-121.5 -124.5t-165 -50q-80 0 -135 29zM287 315q67 0 132 46.5
t65 113.5q0 69 -37.5 121.5t-102.5 52.5q-79 0 -133.5 -60.5t-54.5 -148.5q0 -58 35 -91.5t96 -33.5z" />
    <glyph glyph-name="colon" unicode=":" horiz-adv-x="229" 
d="M98 420l16 83h81l-15 -83h-82zM16 0l16 83h82l-16 -83h-82z" />
    <glyph glyph-name="semicolon" unicode=";" horiz-adv-x="289" 
d="M142 420l16 83h80l-16 -83h-80zM-15 -97l92 179h78l-109 -179h-61z" />
    <glyph glyph-name="less" unicode="&#x3c;" horiz-adv-x="568" 
d="M34 259v50l451 202v-67l-367 -159v-2l367 -159v-67z" />
    <glyph glyph-name="equal" unicode="=" horiz-adv-x="568" 
d="M47 342v58h466v-58h-466zM47 168v58h466v-58h-466z" />
    <glyph glyph-name="greater" unicode="&#x3e;" horiz-adv-x="568" 
d="M73 57v67l368 159v2l-368 159v67l452 -202v-50z" />
    <glyph glyph-name="question" unicode="?" horiz-adv-x="450" 
d="M134 184l9 45q8 39 29.5 72.5t47 56t54 46.5t52 44t38.5 48.5t15 60.5q0 41 -29.5 67.5t-80.5 26.5q-62 0 -129 -42l-29 54q31 22 77 37.5t88 15.5q79 0 127.5 -42t48.5 -110q0 -49 -22 -89.5t-55 -68.5t-67 -53.5t-62 -57.5t-36 -68l-8 -43h-68zM94 0l16 79h79l-16 -79
h-79z" />
    <glyph glyph-name="at" unicode="@" horiz-adv-x="777" 
d="M44 175q0 113 61 214.5t159.5 161t205.5 59.5q115 0 166.5 -43.5t51.5 -115.5q0 -19 -3 -40l-60 -306h71l-11 -56h-259q-80 0 -128 46.5t-48 117.5q0 85 69.5 152.5t161.5 67.5h140q2 10 2 19q0 43 -38 71t-113 28q-142 0 -250 -113.5t-108 -260.5q0 -106 66.5 -174
t177.5 -68l-12 -59q-130 0 -216 85t-86 214zM321 214q0 -47 31 -78t81 -31h124l54 275h-123q-66 0 -116.5 -50.5t-50.5 -115.5z" />
    <glyph glyph-name="A" unicode="A" horiz-adv-x="634" 
d="M-31 0l392 703h76l121 -703h-70l-37 224h-283l-124 -224h-75zM199 284h242l-42 255l-11 92h-2q-26 -59 -44 -92z" />
    <glyph glyph-name="B" unicode="B" horiz-adv-x="616" 
d="M43 0l137 703h226q49 0 84 -13q42 -16 65.5 -51t23.5 -84q0 -64 -33.5 -113t-88.5 -71v-2q40 -14 63.5 -50.5t23.5 -87.5q0 -75 -38.5 -130.5t-100.5 -81.5q-45 -19 -99 -19h-263zM190 398h170q61 0 104.5 43t43.5 108q0 43 -26 67.5t-75 24.5h-170zM124 62h180
q42 0 73 14q43 20 69 61t26 94q0 50 -31 78.5t-84 28.5h-179z" />
    <glyph glyph-name="C" unicode="C" horiz-adv-x="719" 
d="M61 290q0 114 59 212.5t155.5 155.5t203.5 57q70 0 137.5 -22.5t109.5 -68.5l-44 -49q-77 75 -202 75q-140 0 -243.5 -106.5t-103.5 -251.5q0 -105 63.5 -172t169.5 -67q65 0 130 25t116 68l34 -54q-50 -45 -128.5 -74.5t-153.5 -29.5q-139 0 -221 84t-82 218z" />
    <glyph glyph-name="D" unicode="D" horiz-adv-x="738" 
d="M43 0l137 703h213q143 0 224.5 -71.5t81.5 -201.5q0 -180 -118 -305t-299 -125h-239zM124 62h150q152 0 252.5 104.5t100.5 259.5q0 103 -64 159t-176 56h-149z" />
    <glyph glyph-name="E" unicode="E" horiz-adv-x="557" 
d="M43 0l137 703h396l-13 -62h-326l-50 -256h267l-12 -62h-266l-52 -261h344l-11 -62h-414z" />
    <glyph glyph-name="F" unicode="F" horiz-adv-x="509" 
d="M43 0l137 703h370l-12 -62h-301l-51 -264h258l-12 -62h-258l-62 -315h-69z" />
    <glyph glyph-name="G" unicode="G" horiz-adv-x="758" 
d="M59 282q0 115 58.5 215t156 159t207.5 59q155 0 244 -81l-44 -49q-33 30 -88 47.5t-111 17.5q-143 0 -246.5 -109t-103.5 -256q0 -104 62.5 -168t165.5 -64q131 0 243 109l22 112h-119l11 62h185l-65 -336h-63l10 54l7 30h-2q-6 -6 -23 -19t-48 -32t-75.5 -32t-90.5 -13
q-129 0 -211 82t-82 212z" />
    <glyph glyph-name="H" unicode="H" horiz-adv-x="747" 
d="M43 0l137 703h70l-63 -320h408l62 320h69l-137 -703h-70l63 321h-407l-63 -321h-69z" />
    <glyph glyph-name="I" unicode="I" horiz-adv-x="270" 
d="M43 0l137 703h70l-138 -703h-69z" />
    <glyph glyph-name="J" unicode="J" horiz-adv-x="517" 
d="M5 147q0 19 6 52l4 26h70l-5 -25q-4 -30 -4 -43q0 -104 103 -104q53 0 97.5 34.5t58.5 109.5l85 444h-170l12 62h240l-100 -513q-20 -104 -83 -153t-141 -49q-74 0 -123.5 39.5t-49.5 119.5z" />
    <glyph glyph-name="K" unicode="K" horiz-adv-x="590" 
d="M43 0l137 703h70l-60 -305h114l253 305h82l-279 -335v-2l153 -366h-75l-137 336h-123l-66 -336h-69z" />
    <glyph glyph-name="L" unicode="L" horiz-adv-x="508" 
d="M43 0l137 703h70l-126 -641h326l-13 -62h-394z" />
    <glyph glyph-name="M" unicode="M" horiz-adv-x="844" 
d="M16 0l194 703h69l104 -413l17 -86h2q28 49 51 86l265 413h74l-81 -703h-69l58 492l17 98h-2q-33 -62 -56 -98l-236 -361h-65l-95 361l-19 100h-2q-10 -62 -20 -100l-136 -492h-70z" />
    <glyph glyph-name="N" unicode="N" horiz-adv-x="744" 
d="M43 0l137 703h62l261 -506l39 -95h2q4 58 12 95l98 506h70l-138 -703h-61l-261 506l-39 95h-2q-5 -58 -12 -95l-99 -506h-69z" />
    <glyph glyph-name="O" unicode="O" horiz-adv-x="825" 
d="M60 292q0 111 60.5 209.5t158 156t203.5 57.5q136 0 221 -83t85 -213q0 -113 -61 -213.5t-158.5 -159t-202.5 -58.5q-136 0 -221 85t-85 219zM132 294q0 -106 65 -173.5t169 -67.5q134 0 242 108.5t108 254.5q0 103 -65.5 168.5t-168.5 65.5q-135 0 -242.5 -106
t-107.5 -250z" />
    <glyph glyph-name="P" unicode="P" horiz-adv-x="599" 
d="M43 0l137 703h230q69 0 111 -24q83 -45 83 -148q0 -80 -42 -143t-109 -92q-49 -20 -102 -20h-185l-54 -276h-69zM178 338h166q46 0 82 16q48 21 77 67t29 107q0 54 -34 83.5t-96 29.5h-165z" />
    <glyph glyph-name="Q" unicode="Q" horiz-adv-x="825" 
d="M60 292q0 111 60.5 209.5t158 156t203.5 57.5q136 0 221 -83t85 -213q0 -178 -139 -309l67 -85l-46 -42l-68 88q-109 -83 -236 -83q-136 0 -221 85t-85 219zM132 294q0 -106 65 -173.5t169 -67.5q105 0 196 69l-70 89l46 41l69 -91q109 111 109 255q0 103 -65.5 168.5
t-168.5 65.5q-135 0 -242.5 -106t-107.5 -250z" />
    <glyph glyph-name="R" unicode="R" horiz-adv-x="614" 
d="M44 0l136 703h231q61 0 99 -19q82 -40 82 -142q0 -83 -49.5 -147t-127.5 -82v-2q4 -9 11 -29l100 -282h-74l-102 296h-180l-57 -296h-69zM182 358h164q73 0 124 49.5t51 127.5q0 50 -31 78t-87 28h-166z" />
    <glyph glyph-name="S" unicode="S" horiz-adv-x="537" 
d="M8 78l46 49l5 -5q5 -5 10 -9.5t14.5 -11.5t19 -13t23.5 -12.5t28.5 -11t32.5 -7.5t37 -3q70 0 120.5 36.5t50.5 100.5q0 44 -30 75t-72.5 52t-85 43t-72.5 61t-30 94q0 91 72.5 145t170.5 54q112 0 188 -70l-41 -52l-5 5q-6 4 -12 8.5t-16 10.5t-21.5 11.5t-25.5 10
t-31.5 7.5t-35.5 3q-66 0 -119 -35.5t-53 -95.5q0 -40 30 -69.5t72.5 -50t85 -43.5t72.5 -63.5t30 -97.5q0 -90 -68.5 -148t-172.5 -58q-58 0 -111 21.5t-72.5 37.5t-33.5 31z" />
    <glyph glyph-name="T" unicode="T" horiz-adv-x="603" 
d="M208 0l125 641h-252l12 62h573l-11 -62h-253l-124 -641h-70z" />
    <glyph glyph-name="U" unicode="U" horiz-adv-x="723" 
d="M78 192q0 27 6 57l89 454h69l-88 -456q-5 -20 -5 -47q0 -70 44 -108.5t123 -38.5q91 0 154.5 52t82.5 144l89 454h69l-91 -463q-23 -117 -105.5 -184.5t-200.5 -67.5q-107 0 -171.5 54.5t-64.5 149.5z" />
    <glyph glyph-name="V" unicode="V" horiz-adv-x="634" 
d="M218 0l-122 703h72l89 -534l10 -90h2q26 54 45 90l298 534h78l-396 -703h-76z" />
    <glyph glyph-name="W" unicode="W" horiz-adv-x="924" 
d="M158 0l-48 703h71l31 -546l1 -75h2q16 38 33 75l262 546h69l36 -546l1 -75h2q15 40 30 75l243 546h76l-319 -703h-84l-34 495q-2 28 -2.5 66t0.5 39h-2q-25 -59 -46 -104l-240 -496h-82z" />
    <glyph glyph-name="X" unicode="X" horiz-adv-x="571" 
d="M-38 0l295 371l-139 332h74l84 -206l31 -80h2q25 37 57 79l165 207h84l-274 -340l156 -363h-74l-101 240l-30 77h-2q-21 -33 -55 -75l-193 -242h-80z" />
    <glyph glyph-name="Y" unicode="Y" horiz-adv-x="579" 
d="M192 0l59 302l-158 401h75l98 -255l28 -84h2q31 45 59 83l197 256h84l-316 -403l-59 -300h-69z" />
    <glyph glyph-name="Z" unicode="Z" horiz-adv-x="575" 
d="M-23 0l10 49l459 528q15 17 30.5 33t23.5 24l8 7v2q-16 -2 -50 -2h-338l13 62h478l-9 -49l-461 -528q-15 -17 -30.5 -33t-24.5 -23l-8 -8v-2q17 2 51 2h360l-12 -62h-500z" />
    <glyph glyph-name="bracketleft" unicode="[" horiz-adv-x="282" 
d="M17 -95l160 825h136l-11 -56h-73l-138 -713h73l-11 -56h-136z" />
    <glyph glyph-name="backslash" unicode="\" horiz-adv-x="396" 
d="M228 -42l-101 784h61l101 -784h-61z" />
    <glyph glyph-name="bracketright" unicode="]" horiz-adv-x="282" 
d="M-11 -39h73l138 713h-72l11 56h135l-160 -825h-135z" />
    <glyph glyph-name="asciicircum" unicode="^" horiz-adv-x="606" 
d="M79 250l198 453h47l199 -453h-66l-156 370l-156 -370h-66z" />
    <glyph glyph-name="underscore" unicode="_" horiz-adv-x="584" 
d="M-17 0h516l-11 -58h-516z" />
    <glyph glyph-name="grave" unicode="`" horiz-adv-x="504" 
d="M200 752l-63 119h74l47 -119h-58z" />
    <glyph glyph-name="a" unicode="a" horiz-adv-x="516" 
d="M4 115q0 57 32 98t86 61t107.5 28t112.5 8h33q5 27 5 54q0 90 -102 90q-81 0 -152 -48l-21 57q31 21 80.5 36.5t98.5 15.5q77 0 121.5 -35t44.5 -107q0 -26 -6 -56l-61 -317h-66l12 58l11 43h-2q-22 -41 -71 -77t-113 -36q-63 0 -106.5 34.5t-43.5 92.5zM73 124
q0 -34 24.5 -56.5t72.5 -22.5q66 0 120.5 59.5t70.5 131.5l4 20h-29q-263 0 -263 -132z" />
    <glyph glyph-name="b" unicode="b" horiz-adv-x="588" 
d="M24 0l137 703h68l-47 -243l-14 -46h2q28 45 77.5 73t104.5 28q88 0 136.5 -54t48.5 -148q0 -140 -82.5 -232.5t-191.5 -92.5q-57 0 -99 27t-58 76h-2q-1 -21 -5 -45l-9 -46h-66zM133 191q0 -63 31.5 -102.5t94.5 -39.5q79 0 143.5 72t64.5 187q0 68 -33.5 106.5
t-92.5 38.5q-90 0 -149 -80t-59 -182z" />
    <glyph glyph-name="c" unicode="c" horiz-adv-x="543" 
d="M34 202q0 133 93.5 223t215.5 90q53 0 102 -18t80 -54l-41 -46q-23 26 -61 41.5t-77 15.5q-94 0 -168 -71.5t-74 -175.5q0 -71 45.5 -114t118.5 -43q98 0 175 69l22 -56q-37 -34 -91 -54.5t-109 -20.5q-103 0 -167 59t-64 155z" />
    <glyph glyph-name="d" unicode="d" horiz-adv-x="590" 
d="M35 190q0 140 82.5 232.5t193.5 92.5q55 0 97 -25.5t58 -74.5h2q0 21 4 42l48 246h68l-136 -703h-66l10 53l11 41h-2q-27 -45 -75.5 -75.5t-107.5 -30.5q-90 0 -138.5 54t-48.5 148zM105 194q0 -68 34 -106.5t94 -38.5q89 0 147.5 81.5t58.5 180.5q0 63 -31.5 102.5
t-94.5 39.5q-79 0 -143.5 -72t-64.5 -187z" />
    <glyph glyph-name="e" unicode="e" horiz-adv-x="552" 
d="M35 200q0 126 84 220.5t208 94.5q91 0 137 -49.5t46 -132.5q0 -39 -14 -84h-386q-5 -27 -5 -45q0 -66 42.5 -110t118.5 -44q87 0 165 60l21 -56q-32 -27 -84 -46.5t-104 -19.5q-103 0 -166 58.5t-63 153.5zM123 303h315q3 15 3 36q0 59 -31.5 89.5t-82.5 30.5
q-65 0 -121.5 -41t-82.5 -115z" />
    <glyph glyph-name="f" unicode="f" horiz-adv-x="325" 
d="M43 0l86 442h-63l11 57h63l5 24q11 58 37 98t58.5 57t57.5 23.5t50 6.5q20 0 38 -3l-14 -60q-8 2 -22 2q-18 0 -35.5 -4.5t-39 -16t-38.5 -39t-24 -66.5l-5 -22h129l-11 -57h-129l-85 -442h-69z" />
    <glyph glyph-name="g" unicode="g" horiz-adv-x="581" 
d="M38 -115q53 -33 132 -33q78 0 134 39t72 118l10 46l11 41h-2q-61 -93 -167 -93q-89 0 -140 54.5t-51 145.5q0 74 29.5 143.5t91.5 119t143 49.5q57 0 101 -21t59 -68h2q-1 11 1 22l11 55h66l-97 -497q-22 -112 -96.5 -164t-172.5 -52q-97 0 -170 42zM107 207
q0 -67 34.5 -105t97.5 -38t109 44t66 103t20 120q0 123 -128 123q-91 0 -145 -75t-54 -172z" />
    <glyph glyph-name="h" unicode="h" horiz-adv-x="593" 
d="M24 0l137 703h68l-52 -272l-13 -45h2q25 47 85 88t135 41q70 0 107 -33t37 -97q0 -28 -8 -66l-61 -319h-68l58 301q8 46 8 67q0 41 -23.5 62t-63.5 21q-82 0 -149.5 -64.5t-85.5 -153.5l-45 -233h-68z" />
    <glyph glyph-name="i" unicode="i" horiz-adv-x="230" 
d="M142 618l17 85h73l-17 -85h-73zM24 0l98 503h69l-99 -503h-68z" />
    <glyph glyph-name="j" unicode="j" horiz-adv-x="231" 
d="M141 618l16 85h74l-17 -85h-73zM21 -16l101 519h68l-101 -521q-12 -59 -37 -99.5t-56.5 -58t-56.5 -24t-50 -6.5q-21 0 -41 3l12 60q8 -2 22 -2q18 0 35.5 4.5t39.5 16.5t39 40t25 68z" />
    <glyph glyph-name="k" unicode="k" horiz-adv-x="495" 
d="M24 0l138 703h68l-77 -392h77l189 192h86l-219 -221v-2l136 -280h-74l-120 251h-86l-50 -251h-68z" />
    <glyph glyph-name="l" unicode="l" horiz-adv-x="251" 
d="M44 89q0 17 4 36l112 578h69l-111 -569q-3 -17 -3 -31q0 -20 8 -30.5t17 -12.5t22 -2q7 0 14 1l-13 -61q-8 -2 -23 -2q-38 0 -67 20.5t-29 72.5z" />
    <glyph glyph-name="m" unicode="m" horiz-adv-x="915" 
d="M24 0l98 503h67l-15 -74l-12 -45h2q29 55 87 93t120 38q68 0 99 -32t33 -94h2q31 54 88 90t119 36q68 0 104 -33.5t36 -97.5q0 -28 -8 -68l-61 -316h-68l58 302q8 38 8 64q0 86 -87 86q-76 0 -135.5 -66t-74.5 -148l-46 -238h-68l58 302q8 38 8 66q0 84 -84 84
q-75 0 -136 -65.5t-78 -149.5l-46 -237h-68z" />
    <glyph glyph-name="n" unicode="n" horiz-adv-x="593" 
d="M24 0l98 503h67l-13 -72l-14 -47h2q24 47 85 89t137 42q70 0 107 -33t37 -97q0 -28 -8 -66l-61 -319h-68l58 301q8 46 8 67q0 41 -23.5 62t-63.5 21q-83 0 -150 -64.5t-85 -153.5l-45 -233h-68z" />
    <glyph glyph-name="o" unicode="o" horiz-adv-x="624" 
d="M34 208q0 126 94 216.5t215 90.5q102 0 166 -60.5t64 -156.5q0 -127 -95 -218.5t-214 -91.5q-102 0 -166 61.5t-64 158.5zM104 210q0 -71 45 -115.5t116 -44.5q91 0 164.5 72t73.5 173q0 70 -45 114.5t-116 44.5q-92 0 -165 -72t-73 -172z" />
    <glyph glyph-name="p" unicode="p" horiz-adv-x="589" 
d="M100 41l-47 -241h-68l137 703h64l-9 -49l-11 -43h2q28 45 75.5 74.5t108.5 29.5q88 0 137 -54t49 -148q0 -139 -82 -232t-190 -93q-57 0 -99 25.5t-59 75.5h-2q-1 -22 -6 -48zM134 194q0 -63 32 -104t94 -41q79 0 143.5 72t64.5 187q0 68 -34 106.5t-93 38.5
q-88 0 -147.5 -80.5t-59.5 -178.5z" />
    <glyph glyph-name="q" unicode="q" horiz-adv-x="589" 
d="M34 189q0 141 83 233.5t194 92.5q57 0 98 -26t57 -75h2q1 16 5 38l10 51h65l-136 -703h-68l47 242l13 48h-2q-26 -43 -73 -72.5t-108 -29.5q-89 0 -138 54t-49 147zM104 194q0 -67 34.5 -106t93.5 -39q89 0 148 81.5t59 180.5q0 63 -31.5 102.5t-94.5 39.5
q-79 0 -144 -72t-65 -187z" />
    <glyph glyph-name="r" unicode="r" horiz-adv-x="357" 
d="M24 0l98 503h66l-17 -89l-12 -44h2q28 59 76.5 98.5t107.5 39.5q13 0 30 -3l-14 -67q-16 2 -24 2q-75 0 -132.5 -79.5t-75.5 -172.5l-37 -188h-68z" />
    <glyph glyph-name="s" unicode="s" horiz-adv-x="438" 
d="M-4 60l38 48q23 -27 61.5 -43t79.5 -16q50 0 85.5 22.5t35.5 63.5q0 29 -23.5 50t-56.5 35t-66 30t-56.5 46t-23.5 73q0 68 56 107t134 39q96 0 152 -56l-36 -48q-43 43 -118 43q-49 0 -85 -21t-36 -63q0 -29 23.5 -50t56.5 -35t66 -29.5t56.5 -45.5t23.5 -73
q0 -66 -53.5 -107.5t-134.5 -41.5q-113 0 -179 72z" />
    <glyph glyph-name="t" unicode="t" horiz-adv-x="319" 
d="M70 138q0 24 6 55l48 249h-66l11 57h67l28 143h67l-29 -143h127l-11 -57h-126l-48 -250q-5 -21 -5 -45q0 -90 86 -90q11 0 29 2l-12 -61q-10 -2 -26 -2q-146 0 -146 142z" />
    <glyph glyph-name="u" unicode="u" horiz-adv-x="588" 
d="M47 118q0 23 7 67l62 318h68l-58 -299q-8 -42 -8 -69q0 -83 89 -83q81 0 146 67t81 153l45 231h68l-97 -503h-67l14 72l13 47h-2q-27 -48 -85 -89.5t-135 -41.5q-63 0 -102 31t-39 99z" />
    <glyph glyph-name="v" unicode="v" horiz-adv-x="509" 
d="M159 0l-96 503h69l66 -371l6 -61h2q16 35 30 61l210 371h74l-289 -503h-72z" />
    <glyph glyph-name="w" unicode="w" horiz-adv-x="823" 
d="M139 0l-72 503h69l48 -377l5 -54h2q13 29 26 54l196 375h68l50 -375l5 -54h2q12 29 25 54l196 377h74l-268 -503h-74l-54 361l-4 54h-2q-14 -29 -27 -54l-190 -361h-75z" />
    <glyph glyph-name="x" unicode="x" horiz-adv-x="478" 
d="M-37 0l229 264l-120 239h75l79 -165l13 -30h1q10 14 20 27l142 168h82l-211 -245l131 -258h-73l-92 185l-12 30h-2q-9 -15 -21 -28l-160 -187h-81z" />
    <glyph glyph-name="y" unicode="y" horiz-adv-x="529" 
d="M-39 -129q22 -20 56 -20q61 0 112 81l45 73l-113 498h71l78 -376l8 -53h1q14 28 28 52l218 377h77l-368 -610q-61 -103 -155 -103q-50 0 -93 30z" />
    <glyph glyph-name="z" unicode="z" horiz-adv-x="494" 
d="M-20 0l8 44l345 353q44 46 48 46v2q-16 -2 -49 -2h-255l11 60h401l-9 -45l-346 -352q-12 -12 -24 -23t-19 -17.5t-7 -5.5v-2q18 2 51 2h277l-11 -60h-421z" />
    <glyph glyph-name="braceleft" unicode="{" horiz-adv-x="338" 
d="M82 30q0 14 6 56l18 92q3 17 3 30q0 70 -66 84l12 62q41 7 69.5 38t37.5 77l17 85q36 176 183 176h15l-10 -56h-9q-12 0 -24.5 -3.5t-32.5 -14t-36 -38.5t-24 -69l-19 -101q-8 -44 -36 -77.5t-69 -46.5v-2q26 -14 42 -41t16 -60q0 -13 -3 -29l-21 -107q-5 -20 -5 -44
q0 -81 73 -81h9l-11 -56q-4 -1 -16 -1q-15 0 -31.5 4.5t-38 16t-35.5 39t-14 67.5z" />
    <glyph glyph-name="bar" unicode="|" horiz-adv-x="306" 
d="M124 -157v945h63v-945h-63z" />
    <glyph glyph-name="braceright" unicode="}" horiz-adv-x="338" 
d="M-6 -40q7 0 15 1.5t23.5 8.5t28.5 19t26 37t19 59l22 112q9 47 36.5 81t68.5 46v2q-57 31 -57 98q0 12 3 29l18 96q5 28 5 44q0 35 -15.5 54.5t-29.5 23t-29 3.5h-9l11 56q5 1 16 1q15 0 31.5 -4.5t38 -16t35.5 -39t14 -67.5q0 -24 -6 -56l-16 -80q-3 -18 -3 -31
q0 -33 17.5 -55.5t48.5 -28.5l-12 -62q-39 -7 -68.5 -37.5t-38.5 -77.5l-19 -96q-35 -177 -183 -177q-9 0 -15 1l11 56h13z" />
    <glyph glyph-name="asciitilde" unicode="~" horiz-adv-x="584" 
d="M63 209q0 79 34 117t93 38q30 0 54 -10.5t39.5 -26t30 -31t33.5 -26t42 -10.5q40 0 55.5 31t15.5 69h58q0 -79 -33.5 -117t-92.5 -38q-37 0 -65.5 16.5t-43.5 35.5t-38.5 35.5t-51.5 16.5q-40 0 -55.5 -31t-15.5 -69h-59z" />
    <glyph glyph-name="uni00A0" unicode="&#xa0;" horiz-adv-x="250" 
 />
    <glyph glyph-name="exclamdown" unicode="&#xa1;" horiz-adv-x="239" 
d="M105 424l16 79h78l-16 -79h-78zM-12 -200l105 519h63l-98 -519h-70z" />
    <glyph glyph-name="cent" unicode="&#xa2;" horiz-adv-x="568" 
d="M206 -13l17 87q-76 11 -119.5 66.5t-43.5 145.5q0 126 76.5 231.5t195.5 113.5l16 84h56l-17 -86q42 -6 74.5 -27t49 -47.5t24 -43.5t9.5 -28l-63 -24q-1 5 -3.5 14.5t-12 26.5t-23 31t-38 24.5t-54.5 10.5q-97 0 -158 -83t-61 -199q0 -68 34 -107.5t102 -39.5
q100 0 171 107l62 -26q-8 -13 -21.5 -30t-41.5 -45.5t-70 -48.5t-88 -23l-16 -84h-57z" />
    <glyph glyph-name="sterling" unicode="&#xa3;" horiz-adv-x="568" 
d="M-5 0l12 62h62l52 264h-45l11 55h44l30 155q15 76 80 127.5t151 51.5q94 0 155 -60l-49 -45q-42 40 -107 40q-64 0 -107.5 -35.5t-53.5 -88.5l-28 -145h191l-11 -55h-191l-52 -264h339l-12 -62h-471z" />
    <glyph glyph-name="currency" unicode="&#xa4;" horiz-adv-x="597" 
d="M71 0l35 180h-72l10 55h73l15 75h-72l11 59h72l65 334h208q87 0 137.5 -43.5t50.5 -120.5q0 -96 -73.5 -162.5t-180.5 -66.5h-149l-15 -75h253l-11 -55h-253l-35 -180h-69zM212 369h136q79 0 132 47t53 118q0 110 -131 110h-136z" />
    <glyph glyph-name="yen" unicode="&#xa5;" horiz-adv-x="568" 
d="M190 0l42 211h-163l9 51h163l9 40l-19 48h-135l10 51h106l-116 302h75l94 -250l28 -89h2q30 48 59 88l191 251h84l-234 -302h105l-11 -51h-133l-36 -48l-9 -40h161l-9 -51h-161l-42 -211h-70z" />
    <glyph glyph-name="section" unicode="&#xa7;" horiz-adv-x="415" 
d="M102 85l16 438q2 79 55 135.5t139 56.5q68 0 117 -43l-41 -44q-29 27 -76 27q-60 0 -96 -39t-37 -98l-19 -433h-58zM-2 -18l41 43q29 -27 77 -27q59 0 95 39t38 98l17 433h59l-16 -438q-2 -79 -55 -135.5t-139 -56.5q-70 0 -117 44z" />
    <glyph glyph-name="dieresis" unicode="&#xa8;" horiz-adv-x="504" 
d="M237 785l17 86h62l-17 -86h-62zM86 785l16 86h62l-16 -86h-62z" />
    <glyph glyph-name="copyright" unicode="&#xa9;" horiz-adv-x="837" 
d="M75 352q0 151 103.5 257t249.5 106q149 0 253 -105.5t104 -257.5t-104 -258t-253 -106q-147 0 -250 106t-103 258zM133 352q0 -131 85 -220.5t210 -89.5q127 0 213 89.5t86 220.5q0 130 -86.5 219.5t-212.5 89.5q-124 0 -209.5 -89.5t-85.5 -219.5zM232 350
q0 84 55.5 145t150.5 61q49 0 93 -25t70 -68l-46 -31q-18 29 -50 49t-65 20q-70 0 -109.5 -44t-39.5 -106t39.5 -106t109.5 -44q69 0 115 69l46 -31q-26 -41 -69.5 -67t-93.5 -26q-95 0 -150.5 60t-55.5 144z" />
    <glyph glyph-name="ordfeminine" unicode="&#xaa;" horiz-adv-x="424" 
d="M208 382q-36 0 -65 21.5t-29 61.5q0 123 208 123h19q2 6 2 7q13 71 -57 71q-41 0 -90 -28l-19 41q20 14 54 24t64 10q105 0 105 -93q0 -17 -5 -39l-38 -193h-53l10 49h-2q-43 -53 -104 -55zM224 429q37 0 69 36.5t38 69.5l2 9h-13q-148 0 -148 -73q0 -18 13 -30t39 -12z
M73 264l9 46h263l-9 -46h-263z" />
    <glyph glyph-name="guillemotleft" unicode="&#xab;" horiz-adv-x="523" 
d="M351 77l-129 207l206 204h79l-214 -209l126 -202h-68zM175 77l-129 207l192 204h79l-200 -209l127 -202h-69z" />
    <glyph glyph-name="logicalnot" unicode="&#xac;" horiz-adv-x="665" 
d="M100 342v58h466v-242h-60v184h-406z" />
    <glyph glyph-name="uni00AD" unicode="&#xad;" horiz-adv-x="432" 
d="M66 253l11 62h284l-11 -62h-284z" />
    <glyph glyph-name="registered" unicode="&#xae;" horiz-adv-x="837" 
d="M75 352q0 151 103.5 257t249.5 106q149 0 253 -105.5t104 -257.5t-104 -258t-253 -106q-147 0 -250 106t-103 258zM133 352q0 -131 85 -220.5t210 -89.5q127 0 213 89.5t86 220.5q0 130 -86.5 219.5t-212.5 89.5q-124 0 -209.5 -89.5t-85.5 -219.5zM309 157v390h139
q52 0 84.5 -32t32.5 -84q0 -41 -21.5 -68.5t-51.5 -34.5v-2q4 -5 13 -22l76 -147h-63l-78 158h-74v-158h-57zM366 359h73q32 0 50.5 19.5t18.5 52.5t-18.5 51t-50.5 18h-73v-141z" />
    <glyph glyph-name="macron" unicode="&#xaf;" horiz-adv-x="504" 
d="M72 785l10 55h246l-9 -55h-247z" />
    <glyph glyph-name="degree" unicode="&#xb0;" horiz-adv-x="399" 
d="M235 436q-56 0 -90.5 34t-34.5 87q0 61 49.5 109t111.5 48q55 0 89.5 -34.5t34.5 -86.5q0 -61 -50 -109t-110 -48zM238 492q39 0 68.5 29.5t29.5 69.5q0 29 -19 48t-49 19q-38 0 -68.5 -30t-30.5 -69q0 -29 19 -48t50 -19z" />
    <glyph glyph-name="plusminus" unicode="&#xb1;" horiz-adv-x="568" 
d="M226 0v255h-230v58h230v255h62v-255h230v-58h-230v-255h-62zM14 -104h486v-58h-486v58z" />
    <glyph glyph-name="twosuperior" unicode="&#xb2;" 
d="M77 423q1 55 30 97.5t69.5 68.5t81 49t68.5 52.5t28 64.5q0 27 -18.5 44.5t-49.5 17.5q-45 0 -100 -49l-31 38q61 63 134 63q57 0 90 -30.5t33 -79.5q0 -44 -24 -78.5t-60.5 -57.5t-73.5 -43.5t-68 -47.5t-40 -59h219l-10 -50h-278z" />
    <glyph glyph-name="threesuperior" unicode="&#xb3;" 
d="M217 413q-88 0 -145 66l39 35q43 -49 107 -49q41 0 73.5 30t32.5 74q0 32 -25 50.5t-59 18.5h-33l-9 30l121 116l30 25v2q-19 -3 -37 -3h-152l10 51h262l-7 -37l-146 -139q37 -5 69.5 -33t32.5 -80q0 -62 -48 -109.5t-116 -47.5z" />
    <glyph glyph-name="acute" unicode="&#xb4;" horiz-adv-x="504" 
d="M109 752l93 119h84l-111 -119h-66z" />
    <glyph glyph-name="mu" unicode="&#xb5;" horiz-adv-x="590" 
d="M87 -46l-31 -154h-62l136 703h68l-58 -299q-8 -42 -8 -69q0 -83 89 -83q81 0 146 67t82 153l44 231h68l-97 -503h-67l14 72l13 47h-2q-26 -48 -84.5 -89.5t-135.5 -41.5q-72 0 -104 43h-2q-4 -52 -9 -77z" />
    <glyph glyph-name="mu" unicode="&#x3bc;" horiz-adv-x="590" 
d="M87 -46l-31 -154h-62l136 703h68l-58 -299q-8 -42 -8 -69q0 -83 89 -83q81 0 146 67t82 153l44 231h68l-97 -503h-67l14 72l13 47h-2q-26 -48 -84.5 -89.5t-135.5 -41.5q-72 0 -104 43h-2q-4 -52 -9 -77z" />
    <glyph glyph-name="paragraph" unicode="&#xb6;" horiz-adv-x="570" 
d="M213 -50l56 291q-80 0 -139 57.5t-59 142.5q0 105 85 183.5t191 78.5h250l-12 -62h-181l-134 -691h-57zM332 -50l122 631h57l-121 -631h-58z" />
    <glyph glyph-name="periodcentered" unicode="&#xb7;" horiz-adv-x="229" 
d="M65 246l15 83h81l-16 -83h-80z" />
    <glyph glyph-name="cedilla" unicode="&#xb8;" horiz-adv-x="504" 
d="M140 -91l48 111l40 -8l-27 -67q25 -4 42 -21t17 -44q0 -42 -33 -63.5t-75 -21.5q-32 0 -54 6l10 46q13 -5 40 -5q58 0 58 39q0 29 -51 29q-9 0 -15 -1z" />
    <glyph glyph-name="onesuperior" unicode="&#xb9;" 
d="M104 423l10 50h94l55 285l7 24h-2q-5 -8 -25 -24l-46 -38l-29 40l119 99h52l-75 -386h92l-10 -50h-242z" />
    <glyph glyph-name="ordmasculine" unicode="&#xba;" horiz-adv-x="485" 
d="M267 383q-64 0 -104.5 38.5t-40.5 98.5q0 79 59.5 136.5t134.5 57.5q64 0 104.5 -39t40.5 -98q0 -80 -59.5 -137t-134.5 -57zM269 434q52 0 94.5 41t42.5 99q0 40 -25.5 65t-66.5 25q-53 0 -94.5 -41t-41.5 -98q0 -41 25 -66t66 -25zM86 264l9 46h303l-9 -46h-303z" />
    <glyph glyph-name="guillemotright" unicode="&#xbb;" horiz-adv-x="523" 
d="M202 77l200 209l-127 202h69l128 -207l-192 -204h-78zM12 77l214 209l-127 202h69l128 -207l-205 -204h-79z" />
    <glyph glyph-name="onequarter" unicode="&#xbc;" horiz-adv-x="921" 
d="M702 0l22 114h-213l7 38l266 284h58l-53 -272h65l-9 -50h-65l-23 -114h-55zM592 164h142l26 136l16 62h-2q-21 -27 -42 -49l-140 -147v-2zM252 0h-63l473 703h62zM55 268l10 50h94l55 285l7 24h-2q-5 -8 -25 -24l-46 -38l-29 40l119 99h52l-75 -386h92l-10 -50h-242z" />
    <glyph glyph-name="onehalf" unicode="&#xbd;" horiz-adv-x="914" 
d="M528 0q1 55 30 97.5t69.5 68.5t81 49t68.5 52.5t28 64.5q0 27 -18.5 44.5t-49.5 17.5q-45 0 -100 -49l-31 38q61 63 134 63q57 0 90 -30.5t33 -79.5q0 -44 -24 -78.5t-60.5 -57.5t-73.5 -43.5t-68 -47.5t-40 -59h219l-10 -50h-278zM252 0h-63l473 703h62zM54 268l10 50
h94l55 285l7 24h-2q-5 -8 -25 -24l-46 -38l-29 40l119 99h52l-75 -386h92l-10 -50h-242z" />
    <glyph glyph-name="threequarters" unicode="&#xbe;" horiz-adv-x="949" 
d="M731 0l22 114h-213l7 38l266 284h58l-53 -272h65l-9 -50h-65l-23 -114h-55zM621 164h142l26 136l16 62h-2q-21 -27 -42 -49l-140 -147v-2zM196 258q-88 0 -145 66l39 35q43 -49 107 -49q41 0 73.5 30t32.5 74q0 32 -25 50.5t-59 18.5h-33l-9 30l121 116l30 25v2
q-19 -3 -37 -3h-152l10 51h262l-7 -37l-146 -139q37 -5 69.5 -33t32.5 -80q0 -62 -48 -109.5t-116 -47.5zM281 0h-63l473 703h62z" />
    <glyph glyph-name="questiondown" unicode="&#xbf;" horiz-adv-x="446" 
d="M242 424l16 79h79l-16 -79h-79zM-21 -58q0 49 22 89.5t55 68.5t67 53.5t62 57.5t36 68l8 40h68l-9 -43q-10 -46 -38 -84t-60.5 -64t-64 -51.5t-52.5 -57.5t-21 -70q0 -41 30 -67.5t80 -26.5q64 0 130 42l29 -55q-75 -52 -166 -52q-79 0 -127.5 41.5t-48.5 110.5z" />
    <glyph glyph-name="Agrave" unicode="&#xc0;" horiz-adv-x="634" 
d="M-31 0l392 703h76l121 -703h-70l-37 224h-283l-124 -224h-75zM199 284h242l-42 255l-11 92h-2q-26 -59 -44 -92zM378 752l-63 119h74l47 -119h-58z" />
    <glyph glyph-name="Aacute" unicode="&#xc1;" horiz-adv-x="634" 
d="M-31 0l392 703h76l121 -703h-70l-37 224h-283l-124 -224h-75zM199 284h242l-42 255l-11 92h-2q-26 -59 -44 -92zM374 752l93 119h84l-111 -119h-66z" />
    <glyph glyph-name="Acircumflex" unicode="&#xc2;" horiz-adv-x="634" 
d="M-31 0l392 703h76l121 -703h-70l-37 224h-283l-124 -224h-75zM199 284h242l-42 255l-11 92h-2q-26 -59 -44 -92zM284 752l107 119h75l60 -119h-63l-38 80h-2l-70 -80h-69z" />
    <glyph glyph-name="Atilde" unicode="&#xc3;" horiz-adv-x="634" 
d="M-31 0l392 703h76l121 -703h-70l-37 224h-283l-124 -224h-75zM199 284h242l-42 255l-11 92h-2q-26 -59 -44 -92zM260 755q21 116 106 116q22 0 38.5 -11t25 -24.5t21 -24.5t25.5 -11q37 0 51 68h54q-23 -116 -107 -116q-27 0 -45.5 18t-33.5 35.5t-32 17.5
q-19 0 -31.5 -21t-17.5 -47h-54z" />
    <glyph glyph-name="Adieresis" unicode="&#xc4;" horiz-adv-x="634" 
d="M-31 0l392 703h76l121 -703h-70l-37 224h-283l-124 -224h-75zM199 284h242l-42 255l-11 92h-2q-26 -59 -44 -92zM461 785l17 86h62l-17 -86h-62zM310 785l16 86h62l-16 -86h-62z" />
    <glyph glyph-name="Aring" unicode="&#xc5;" horiz-adv-x="634" 
d="M-31 0l392 703h76l121 -703h-70l-37 224h-283l-124 -224h-75zM199 284h242l-42 255l-11 92h-2q-26 -59 -44 -92zM413 742q-32 0 -50.5 16t-18.5 45q0 33 25.5 56.5t57.5 23.5q33 0 51.5 -16.5t18.5 -46.5q0 -32 -26 -55t-58 -23zM415 779q16 0 27.5 12t11.5 29
q0 11 -7.5 18.5t-19.5 7.5q-16 0 -28 -12t-12 -30q0 -25 28 -25z" />
    <glyph glyph-name="AE" unicode="&#xc6;" horiz-adv-x="855" 
d="M-37 0l424 703h487l-13 -62h-326l-50 -256h267l-12 -62h-267l-51 -261h344l-12 -62h-413l63 324h-170l-194 -324h-77zM270 384h145l51 257h-41z" />
    <glyph glyph-name="Ccedilla" unicode="&#xc7;" horiz-adv-x="719" 
d="M285 -91l35 82q-121 13 -190 95t-69 204q0 114 59 212.5t155.5 155.5t203.5 57q70 0 137.5 -22.5t109.5 -68.5l-44 -49q-77 75 -202 75q-140 0 -243.5 -106.5t-103.5 -251.5q0 -105 63.5 -172t169.5 -67q65 0 130 25t116 68l34 -54q-50 -45 -128.5 -74.5t-153.5 -29.5h-1
l-17 -43q25 -4 42 -21t17 -44q0 -42 -33 -63.5t-75 -21.5q-32 0 -54 6l10 46q13 -5 40 -5q58 0 58 39q0 29 -51 29q-9 0 -15 -1z" />
    <glyph glyph-name="Egrave" unicode="&#xc8;" horiz-adv-x="557" 
d="M43 0l137 703h396l-13 -62h-326l-50 -256h267l-12 -62h-266l-52 -261h344l-11 -62h-414zM368 752l-63 119h74l47 -119h-58z" />
    <glyph glyph-name="Eacute" unicode="&#xc9;" horiz-adv-x="557" 
d="M363 752l93 119h84l-111 -119h-66zM43 0l137 703h396l-13 -62h-326l-50 -256h267l-12 -62h-266l-52 -261h344l-11 -62h-414z" />
    <glyph glyph-name="Ecircumflex" unicode="&#xca;" horiz-adv-x="557" 
d="M274 752l107 119h75l60 -119h-63l-38 80h-2l-70 -80h-69zM43 0l137 703h396l-13 -62h-326l-50 -256h267l-12 -62h-266l-52 -261h344l-11 -62h-414z" />
    <glyph glyph-name="Edieresis" unicode="&#xcb;" horiz-adv-x="557" 
d="M450 785l17 86h62l-17 -86h-62zM299 785l16 86h62l-16 -86h-62zM43 0l137 703h396l-13 -62h-326l-50 -256h267l-12 -62h-266l-52 -261h344l-11 -62h-414z" />
    <glyph glyph-name="Igrave" unicode="&#xcc;" horiz-adv-x="270" 
d="M43 0l137 703h70l-138 -703h-69zM194 752l-63 119h74l47 -119h-58z" />
    <glyph glyph-name="Iacute" unicode="&#xcd;" horiz-adv-x="270" 
d="M43 0l137 703h70l-138 -703h-69zM189 752l93 119h84l-111 -119h-66z" />
    <glyph glyph-name="Icircumflex" unicode="&#xce;" horiz-adv-x="270" 
d="M43 0l137 703h70l-138 -703h-69zM99 752l107 119h75l60 -119h-63l-38 80h-2l-70 -80h-69z" />
    <glyph glyph-name="Idieresis" unicode="&#xcf;" horiz-adv-x="270" 
d="M43 0l137 703h70l-138 -703h-69zM276 785l17 86h62l-17 -86h-62zM125 785l16 86h62l-16 -86h-62z" />
    <glyph glyph-name="Eth" unicode="&#xd0;" horiz-adv-x="745" 
d="M50 0l63 323h-59l12 60h59l63 320h213q143 0 224 -71.5t81 -201.5q0 -180 -117.5 -305t-299.5 -125h-239zM131 62h150q152 0 252.5 104.5t100.5 259.5q0 103 -63.5 159t-176.5 56h-149l-52 -258h169l-12 -60h-168z" />
    <glyph glyph-name="Ntilde" unicode="&#xd1;" horiz-adv-x="744" 
d="M43 0l137 703h62l261 -506l39 -95h2q4 58 12 95l98 506h70l-138 -703h-61l-261 506l-39 95h-2q-5 -58 -12 -95l-99 -506h-69zM311 755q21 116 106 116q22 0 38.5 -11t25 -24.5t21 -24.5t25.5 -11q37 0 51 68h54q-23 -116 -107 -116q-27 0 -45.5 18t-33.5 35.5t-32 17.5
q-19 0 -31.5 -21t-17.5 -47h-54z" />
    <glyph glyph-name="Ograve" unicode="&#xd2;" horiz-adv-x="825" 
d="M60 292q0 111 60.5 209.5t158 156t203.5 57.5q136 0 221 -83t85 -213q0 -113 -61 -213.5t-158.5 -159t-202.5 -58.5q-136 0 -221 85t-85 219zM132 294q0 -106 65 -173.5t169 -67.5q134 0 242 108.5t108 254.5q0 103 -65.5 168.5t-168.5 65.5q-135 0 -242.5 -106
t-107.5 -250zM469 752l-63 119h74l47 -119h-58z" />
    <glyph glyph-name="Oacute" unicode="&#xd3;" horiz-adv-x="825" 
d="M465 752l93 119h84l-111 -119h-66zM60 292q0 111 60.5 209.5t158 156t203.5 57.5q136 0 221 -83t85 -213q0 -113 -61 -213.5t-158.5 -159t-202.5 -58.5q-136 0 -221 85t-85 219zM132 294q0 -106 65 -173.5t169 -67.5q134 0 242 108.5t108 254.5q0 103 -65.5 168.5
t-168.5 65.5q-135 0 -242.5 -106t-107.5 -250z" />
    <glyph glyph-name="Ocircumflex" unicode="&#xd4;" horiz-adv-x="825" 
d="M376 752l107 119h75l60 -119h-63l-38 80h-2l-70 -80h-69zM60 292q0 111 60.5 209.5t158 156t203.5 57.5q136 0 221 -83t85 -213q0 -113 -61 -213.5t-158.5 -159t-202.5 -58.5q-136 0 -221 85t-85 219zM132 294q0 -106 65 -173.5t169 -67.5q134 0 242 108.5t108 254.5
q0 103 -65.5 168.5t-168.5 65.5q-135 0 -242.5 -106t-107.5 -250z" />
    <glyph glyph-name="Otilde" unicode="&#xd5;" horiz-adv-x="825" 
d="M60 292q0 111 60.5 209.5t158 156t203.5 57.5q136 0 221 -83t85 -213q0 -113 -61 -213.5t-158.5 -159t-202.5 -58.5q-136 0 -221 85t-85 219zM132 294q0 -106 65 -173.5t169 -67.5q134 0 242 108.5t108 254.5q0 103 -65.5 168.5t-168.5 65.5q-135 0 -242.5 -106
t-107.5 -250zM352 755q21 116 106 116q22 0 38.5 -11t25 -24.5t21 -24.5t25.5 -11q37 0 51 68h54q-23 -116 -107 -116q-27 0 -45.5 18t-33.5 35.5t-32 17.5q-19 0 -31.5 -21t-17.5 -47h-54z" />
    <glyph glyph-name="Odieresis" unicode="&#xd6;" horiz-adv-x="825" 
d="M552 785l17 86h62l-17 -86h-62zM401 785l16 86h62l-16 -86h-62zM60 292q0 111 60.5 209.5t158 156t203.5 57.5q136 0 221 -83t85 -213q0 -113 -61 -213.5t-158.5 -159t-202.5 -58.5q-136 0 -221 85t-85 219zM132 294q0 -106 65 -173.5t169 -67.5q134 0 242 108.5
t108 254.5q0 103 -65.5 168.5t-168.5 65.5q-135 0 -242.5 -106t-107.5 -250z" />
    <glyph glyph-name="multiply" unicode="&#xd7;" horiz-adv-x="568" 
d="M31 41l215 243l-215 243l41 41l214 -241l214 241l41 -41l-217 -243l217 -243l-41 -41l-214 241l-214 -241z" />
    <glyph glyph-name="Oslash" unicode="&#xd8;" horiz-adv-x="825" 
d="M72 7l66 73q-78 83 -78 212q0 111 60.5 209.5t158 156t203.5 57.5q109 0 187 -56l63 69l39 -32l-63 -69q80 -83 80 -208q0 -113 -61 -213.5t-158.5 -159t-202.5 -58.5q-111 0 -191 58l-64 -70zM187 132l435 476q-59 42 -140 42q-135 0 -242.5 -106t-107.5 -250
q0 -98 55 -162zM222 97q61 -44 144 -44q134 0 242 108.5t108 254.5q0 95 -57 158z" />
    <glyph glyph-name="Ugrave" unicode="&#xd9;" horiz-adv-x="723" 
d="M78 192q0 27 6 57l89 454h69l-88 -456q-5 -20 -5 -47q0 -70 44 -108.5t123 -38.5q91 0 154.5 52t82.5 144l89 454h69l-91 -463q-23 -117 -105.5 -184.5t-200.5 -67.5q-107 0 -171.5 54.5t-64.5 149.5zM420 752l-63 119h74l47 -119h-58z" />
    <glyph glyph-name="Uacute" unicode="&#xda;" horiz-adv-x="723" 
d="M415 752l93 119h84l-111 -119h-66zM78 192q0 27 6 57l89 454h69l-88 -456q-5 -20 -5 -47q0 -70 44 -108.5t123 -38.5q91 0 154.5 52t82.5 144l89 454h69l-91 -463q-23 -117 -105.5 -184.5t-200.5 -67.5q-107 0 -171.5 54.5t-64.5 149.5z" />
    <glyph glyph-name="Ucircumflex" unicode="&#xdb;" horiz-adv-x="723" 
d="M326 752l107 119h75l60 -119h-63l-38 80h-2l-70 -80h-69zM78 192q0 27 6 57l89 454h69l-88 -456q-5 -20 -5 -47q0 -70 44 -108.5t123 -38.5q91 0 154.5 52t82.5 144l89 454h69l-91 -463q-23 -117 -105.5 -184.5t-200.5 -67.5q-107 0 -171.5 54.5t-64.5 149.5z" />
    <glyph glyph-name="Udieresis" unicode="&#xdc;" horiz-adv-x="723" 
d="M502 785l17 86h62l-17 -86h-62zM351 785l16 86h62l-16 -86h-62zM78 192q0 27 6 57l89 454h69l-88 -456q-5 -20 -5 -47q0 -70 44 -108.5t123 -38.5q91 0 154.5 52t82.5 144l89 454h69l-91 -463q-23 -117 -105.5 -184.5t-200.5 -67.5q-107 0 -171.5 54.5t-64.5 149.5z" />
    <glyph glyph-name="Yacute" unicode="&#xdd;" horiz-adv-x="579" 
d="M192 0l59 302l-158 401h75l98 -255l28 -84h2q31 45 59 83l197 256h84l-316 -403l-59 -300h-69zM330 752l93 119h84l-111 -119h-66z" />
    <glyph glyph-name="Thorn" unicode="&#xde;" horiz-adv-x="601" 
d="M43 0l137 703h70l-26 -125h162q90 0 142 -45.5t52 -126.5q0 -112 -74.5 -183.5t-178.5 -71.5h-185l-30 -151h-69zM154 213h165q81 0 135 51.5t54 138.5q0 54 -34 83.5t-96 29.5h-166z" />
    <glyph glyph-name="germandbls" unicode="&#xdf;" horiz-adv-x="574" 
d="M24 0l104 539q16 81 81.5 128.5t141.5 47.5q75 0 118 -37t43 -94q0 -33 -15.5 -61.5t-38 -48t-45 -37t-38 -36.5t-15.5 -39q0 -21 24 -45t52.5 -44t52.5 -53t24 -69q0 -65 -54 -111.5t-126 -46.5q-89 0 -154 32l13 63q21 -15 61.5 -24t75.5 -9q43 0 78.5 24.5t35.5 70.5
q0 23 -16 45t-38.5 39.5t-45.5 35.5t-39 41t-16 47q0 28 16 53t38.5 44t45 37.5t38.5 40.5t16 46q0 30 -24 52.5t-68 22.5q-53 0 -98.5 -34t-56.5 -94l-103 -526h-68z" />
    <glyph glyph-name="agrave" unicode="&#xe0;" horiz-adv-x="516" 
d="M4 115q0 57 32 98t86 61t107.5 28t112.5 8h33q5 27 5 54q0 90 -102 90q-81 0 -152 -48l-21 57q31 21 80.5 36.5t98.5 15.5q77 0 121.5 -35t44.5 -107q0 -26 -6 -56l-61 -317h-66l12 58l11 43h-2q-22 -41 -71 -77t-113 -36q-63 0 -106.5 34.5t-43.5 92.5zM73 124
q0 -34 24.5 -56.5t72.5 -22.5q66 0 120.5 59.5t70.5 131.5l4 20h-29q-263 0 -263 -132zM276 585l-63 119h74l47 -119h-58z" />
    <glyph glyph-name="aacute" unicode="&#xe1;" horiz-adv-x="516" 
d="M4 115q0 57 32 98t86 61t107.5 28t112.5 8h33q5 27 5 54q0 90 -102 90q-81 0 -152 -48l-21 57q31 21 80.5 36.5t98.5 15.5q77 0 121.5 -35t44.5 -107q0 -26 -6 -56l-61 -317h-66l12 58l11 43h-2q-22 -41 -71 -77t-113 -36q-63 0 -106.5 34.5t-43.5 92.5zM73 124
q0 -34 24.5 -56.5t72.5 -22.5q66 0 120.5 59.5t70.5 131.5l4 20h-29q-263 0 -263 -132zM272 585l93 119h84l-111 -119h-66z" />
    <glyph glyph-name="acircumflex" unicode="&#xe2;" horiz-adv-x="516" 
d="M4 115q0 57 32 98t86 61t107.5 28t112.5 8h33q5 27 5 54q0 90 -102 90q-81 0 -152 -48l-21 57q31 21 80.5 36.5t98.5 15.5q77 0 121.5 -35t44.5 -107q0 -26 -6 -56l-61 -317h-66l12 58l11 43h-2q-22 -41 -71 -77t-113 -36q-63 0 -106.5 34.5t-43.5 92.5zM73 124
q0 -34 24.5 -56.5t72.5 -22.5q66 0 120.5 59.5t70.5 131.5l4 20h-29q-263 0 -263 -132zM183 585l107 119h75l60 -119h-63l-38 80h-2l-70 -80h-69z" />
    <glyph glyph-name="atilde" unicode="&#xe3;" horiz-adv-x="516" 
d="M4 115q0 57 32 98t86 61t107.5 28t112.5 8h33q5 27 5 54q0 90 -102 90q-81 0 -152 -48l-21 57q31 21 80.5 36.5t98.5 15.5q77 0 121.5 -35t44.5 -107q0 -26 -6 -56l-61 -317h-66l12 58l11 43h-2q-22 -41 -71 -77t-113 -36q-63 0 -106.5 34.5t-43.5 92.5zM73 124
q0 -34 24.5 -56.5t72.5 -22.5q66 0 120.5 59.5t70.5 131.5l4 20h-29q-263 0 -263 -132zM158 588q21 116 106 116q22 0 38.5 -11t25 -24.5t21 -24.5t25.5 -11q37 0 51 68h54q-23 -116 -107 -116q-21 0 -37.5 11t-25.5 24.5t-21.5 24.5t-26.5 11q-19 0 -31.5 -21t-17.5 -47
h-54z" />
    <glyph glyph-name="adieresis" unicode="&#xe4;" horiz-adv-x="516" 
d="M4 115q0 57 32 98t86 61t107.5 28t112.5 8h33q5 27 5 54q0 90 -102 90q-81 0 -152 -48l-21 57q31 21 80.5 36.5t98.5 15.5q77 0 121.5 -35t44.5 -107q0 -26 -6 -56l-61 -317h-66l12 58l11 43h-2q-22 -41 -71 -77t-113 -36q-63 0 -106.5 34.5t-43.5 92.5zM73 124
q0 -34 24.5 -56.5t72.5 -22.5q66 0 120.5 59.5t70.5 131.5l4 20h-29q-263 0 -263 -132zM359 618l17 86h62l-17 -86h-62zM208 618l16 86h62l-16 -86h-62z" />
    <glyph glyph-name="aring" unicode="&#xe5;" horiz-adv-x="516" 
d="M4 115q0 57 32 98t86 61t107.5 28t112.5 8h33q5 27 5 54q0 90 -102 90q-81 0 -152 -48l-21 57q31 21 80.5 36.5t98.5 15.5q77 0 121.5 -35t44.5 -107q0 -26 -6 -56l-61 -317h-66l12 58l11 43h-2q-22 -41 -71 -77t-113 -36q-63 0 -106.5 34.5t-43.5 92.5zM73 124
q0 -34 24.5 -56.5t72.5 -22.5q66 0 120.5 59.5t70.5 131.5l4 20h-29q-263 0 -263 -132zM311 575q-32 0 -50.5 16t-18.5 45q0 33 25.5 56.5t57.5 23.5q33 0 51.5 -16.5t18.5 -46.5q0 -32 -26 -55t-58 -23zM313 612q16 0 27.5 12t11.5 29q0 11 -7.5 18.5t-19.5 7.5
q-16 0 -28 -12t-12 -30q0 -25 28 -25z" />
    <glyph glyph-name="ae" unicode="&#xe6;" horiz-adv-x="865" 
d="M5 115q0 191 335 191h34q7 37 7 58q0 90 -106 90q-79 0 -148 -48l-21 57q79 52 176 52q135 0 154 -97h2q79 97 201 97q90 0 137 -49.5t47 -133.5q0 -34 -13 -80h-379q-6 -28 -4 -56q1 -70 42.5 -108t109.5 -38q86 0 165 60l21 -56q-33 -27 -86.5 -46.5t-100.5 -19.5
q-80 0 -135 37t-73 100h-2q-6 -14 -19.5 -32.5t-39 -44.5t-66 -43t-87.5 -17q-65 0 -108 33.5t-43 93.5zM445 306h306q3 16 3 34q0 59 -32.5 88.5t-82.5 29.5q-64 0 -116 -39.5t-78 -112.5zM75 123q0 -34 25 -56t71 -22q67 0 120 58.5t69 129.5l4 19h-58q-231 0 -231 -129z
" />
    <glyph glyph-name="ccedilla" unicode="&#xe7;" horiz-adv-x="544" 
d="M184 -91l35 83q-85 12 -135 68.5t-50 141.5q0 133 93.5 223t215.5 90q53 0 102 -18t80 -54l-41 -46q-23 26 -61 41.5t-77 15.5q-94 0 -168 -71.5t-74 -175.5q0 -71 45.5 -114t118.5 -43q98 0 175 69l22 -56q-37 -34 -91 -54.5t-109 -20.5h-3l-17 -43q25 -4 42 -21t17 -44
q0 -42 -33 -63.5t-75 -21.5q-32 0 -54 6l10 46q13 -5 40 -5q58 0 58 39q0 29 -51 29q-9 0 -15 -1z" />
    <glyph glyph-name="egrave" unicode="&#xe8;" horiz-adv-x="552" 
d="M35 200q0 126 84 220.5t208 94.5q91 0 137 -49.5t46 -132.5q0 -39 -14 -84h-386q-5 -27 -5 -45q0 -66 42.5 -110t118.5 -44q87 0 165 60l21 -56q-32 -27 -84 -46.5t-104 -19.5q-103 0 -166 58.5t-63 153.5zM123 303h315q3 15 3 36q0 59 -31.5 89.5t-82.5 30.5
q-65 0 -121.5 -41t-82.5 -115zM321 585l-63 119h74l47 -119h-58z" />
    <glyph glyph-name="eacute" unicode="&#xe9;" horiz-adv-x="552" 
d="M316 585l93 119h84l-111 -119h-66zM35 200q0 126 84 220.5t208 94.5q91 0 137 -49.5t46 -132.5q0 -39 -14 -84h-386q-5 -27 -5 -45q0 -66 42.5 -110t118.5 -44q87 0 165 60l21 -56q-32 -27 -84 -46.5t-104 -19.5q-103 0 -166 58.5t-63 153.5zM123 303h315q3 15 3 36
q0 59 -31.5 89.5t-82.5 30.5q-65 0 -121.5 -41t-82.5 -115z" />
    <glyph glyph-name="ecircumflex" unicode="&#xea;" horiz-adv-x="552" 
d="M227 585l107 119h75l60 -119h-63l-38 80h-2l-70 -80h-69zM35 200q0 126 84 220.5t208 94.5q91 0 137 -49.5t46 -132.5q0 -39 -14 -84h-386q-5 -27 -5 -45q0 -66 42.5 -110t118.5 -44q87 0 165 60l21 -56q-32 -27 -84 -46.5t-104 -19.5q-103 0 -166 58.5t-63 153.5z
M123 303h315q3 15 3 36q0 59 -31.5 89.5t-82.5 30.5q-65 0 -121.5 -41t-82.5 -115z" />
    <glyph glyph-name="edieresis" unicode="&#xeb;" horiz-adv-x="552" 
d="M403 618l17 86h62l-17 -86h-62zM252 618l16 86h62l-16 -86h-62zM35 200q0 126 84 220.5t208 94.5q91 0 137 -49.5t46 -132.5q0 -39 -14 -84h-386q-5 -27 -5 -45q0 -66 42.5 -110t118.5 -44q87 0 165 60l21 -56q-32 -27 -84 -46.5t-104 -19.5q-103 0 -166 58.5t-63 153.5z
M123 303h315q3 15 3 36q0 59 -31.5 89.5t-82.5 30.5q-65 0 -121.5 -41t-82.5 -115z" />
    <glyph glyph-name="igrave" unicode="&#xec;" horiz-adv-x="230" 
d="M24 0l98 503h68l-98 -503h-68zM141 585l-63 119h74l47 -119h-58z" />
    <glyph glyph-name="iacute" unicode="&#xed;" horiz-adv-x="230" 
d="M135 585l93 119h84l-111 -119h-66zM24 0l98 503h68l-98 -503h-68z" />
    <glyph glyph-name="icircumflex" unicode="&#xee;" horiz-adv-x="230" 
d="M47 585l107 119h75l60 -119h-63l-38 80h-2l-70 -80h-69zM24 0l98 503h68l-98 -503h-68z" />
    <glyph glyph-name="idieresis" unicode="&#xef;" horiz-adv-x="230" 
d="M223 618l17 86h62l-17 -86h-62zM72 618l16 86h62l-16 -86h-62zM24 0l98 503h68l-98 -503h-68z" />
    <glyph glyph-name="eth" unicode="&#xf0;" horiz-adv-x="578" 
d="M32 187q0 108 78.5 194t204.5 86q44 0 79.5 -14.5t49.5 -28.5l13 -15h2q-17 101 -94 164l-193 -80l-4 49l150 63q-59 34 -132 54l28 52q106 -28 175 -77l149 61l5 -49l-113 -47q102 -94 102 -247q0 -44 -10.5 -91.5t-34 -96.5t-57 -88t-84.5 -63.5t-112 -24.5
q-97 0 -149.5 57t-52.5 142zM102 189q0 -60 34 -100t98 -40q93 0 156 79.5t63 162.5q0 53 -36.5 85.5t-100.5 32.5q-89 0 -151.5 -65t-62.5 -155z" />
    <glyph glyph-name="ntilde" unicode="&#xf1;" horiz-adv-x="593" 
d="M24 0l98 503h67l-13 -72l-14 -47h2q24 47 85 89t137 42q70 0 107 -33t37 -97q0 -28 -8 -66l-61 -319h-68l58 301q8 46 8 67q0 41 -23.5 62t-63.5 21q-83 0 -150 -64.5t-85 -153.5l-45 -233h-68zM216 588q21 116 106 116q22 0 38.5 -11t25 -24.5t21 -24.5t25.5 -11
q37 0 51 68h54q-23 -116 -107 -116q-21 0 -37.5 11t-25.5 24.5t-21.5 24.5t-26.5 11q-19 0 -31.5 -21t-17.5 -47h-54z" />
    <glyph glyph-name="ograve" unicode="&#xf2;" horiz-adv-x="624" 
d="M34 208q0 126 94 216.5t215 90.5q102 0 166 -60.5t64 -156.5q0 -127 -95 -218.5t-214 -91.5q-102 0 -166 61.5t-64 158.5zM104 210q0 -71 45 -115.5t116 -44.5q91 0 164.5 72t73.5 173q0 70 -45 114.5t-116 44.5q-92 0 -165 -72t-73 -172zM337 585l-63 119h74l47 -119
h-58z" />
    <glyph glyph-name="oacute" unicode="&#xf3;" horiz-adv-x="624" 
d="M333 585l93 119h84l-111 -119h-66zM34 208q0 126 94 216.5t215 90.5q102 0 166 -60.5t64 -156.5q0 -127 -95 -218.5t-214 -91.5q-102 0 -166 61.5t-64 158.5zM104 210q0 -71 45 -115.5t116 -44.5q91 0 164.5 72t73.5 173q0 70 -45 114.5t-116 44.5q-92 0 -165 -72
t-73 -172z" />
    <glyph glyph-name="ocircumflex" unicode="&#xf4;" horiz-adv-x="624" 
d="M243 585l107 119h75l60 -119h-63l-38 80h-2l-70 -80h-69zM34 208q0 126 94 216.5t215 90.5q102 0 166 -60.5t64 -156.5q0 -127 -95 -218.5t-214 -91.5q-102 0 -166 61.5t-64 158.5zM104 210q0 -71 45 -115.5t116 -44.5q91 0 164.5 72t73.5 173q0 70 -45 114.5t-116 44.5
q-92 0 -165 -72t-73 -172z" />
    <glyph glyph-name="otilde" unicode="&#xf5;" horiz-adv-x="624" 
d="M34 208q0 126 94 216.5t215 90.5q102 0 166 -60.5t64 -156.5q0 -127 -95 -218.5t-214 -91.5q-102 0 -166 61.5t-64 158.5zM104 210q0 -71 45 -115.5t116 -44.5q91 0 164.5 72t73.5 173q0 70 -45 114.5t-116 44.5q-92 0 -165 -72t-73 -172zM219 588q21 116 106 116
q22 0 38.5 -11t25 -24.5t21 -24.5t25.5 -11q37 0 51 68h54q-23 -116 -107 -116q-21 0 -37.5 11t-25.5 24.5t-21.5 24.5t-26.5 11q-19 0 -31.5 -21t-17.5 -47h-54z" />
    <glyph glyph-name="odieresis" unicode="&#xf6;" horiz-adv-x="624" 
d="M419 618l17 86h62l-17 -86h-62zM268 618l16 86h62l-16 -86h-62zM34 208q0 126 94 216.5t215 90.5q102 0 166 -60.5t64 -156.5q0 -127 -95 -218.5t-214 -91.5q-102 0 -166 61.5t-64 158.5zM104 210q0 -71 45 -115.5t116 -44.5q91 0 164.5 72t73.5 173q0 70 -45 114.5
t-116 44.5q-92 0 -165 -72t-73 -172z" />
    <glyph glyph-name="divide" unicode="&#xf7;" horiz-adv-x="568" 
d="M243 433v74h75v-74h-75zM36 255v58h490v-58h-490zM243 61v74h75v-74h-75z" />
    <glyph glyph-name="oslash" unicode="&#xf8;" horiz-adv-x="624" 
d="M44 -1l50 54q-60 60 -60 155q0 126 94 216.5t215 90.5q80 0 139 -39l51 56l39 -32l-53 -57q54 -59 54 -145q0 -127 -95 -218.5t-214 -91.5q-75 0 -131 34l-51 -55zM140 104l296 322q-40 28 -94 28q-92 0 -165 -72t-73 -172q0 -64 36 -106zM179 72q38 -22 86 -22
q91 0 164.5 72t73.5 173q0 57 -32 97z" />
    <glyph glyph-name="ugrave" unicode="&#xf9;" horiz-adv-x="588" 
d="M47 118q0 23 7 67l62 318h68l-58 -299q-8 -42 -8 -69q0 -83 89 -83q81 0 146 67t81 153l45 231h68l-97 -503h-67l14 72l13 47h-2q-27 -48 -85 -89.5t-135 -41.5q-63 0 -102 31t-39 99zM316 585l-63 119h74l47 -119h-58z" />
    <glyph glyph-name="uacute" unicode="&#xfa;" horiz-adv-x="588" 
d="M311 585l93 119h84l-111 -119h-66zM47 118q0 23 7 67l62 318h68l-58 -299q-8 -42 -8 -69q0 -83 89 -83q81 0 146 67t81 153l45 231h68l-97 -503h-67l14 72l13 47h-2q-27 -48 -85 -89.5t-135 -41.5q-63 0 -102 31t-39 99z" />
    <glyph glyph-name="ucircumflex" unicode="&#xfb;" horiz-adv-x="588" 
d="M222 585l107 119h75l60 -119h-63l-38 80h-2l-70 -80h-69zM47 118q0 23 7 67l62 318h68l-58 -299q-8 -42 -8 -69q0 -83 89 -83q81 0 146 67t81 153l45 231h68l-97 -503h-67l14 72l13 47h-2q-27 -48 -85 -89.5t-135 -41.5q-63 0 -102 31t-39 99z" />
    <glyph glyph-name="udieresis" unicode="&#xfc;" horiz-adv-x="588" 
d="M398 618l17 86h62l-17 -86h-62zM247 618l16 86h62l-16 -86h-62zM47 118q0 23 7 67l62 318h68l-58 -299q-8 -42 -8 -69q0 -83 89 -83q81 0 146 67t81 153l45 231h68l-97 -503h-67l14 72l13 47h-2q-27 -48 -85 -89.5t-135 -41.5q-63 0 -102 31t-39 99z" />
    <glyph glyph-name="yacute" unicode="&#xfd;" horiz-adv-x="529" 
d="M-39 -129q22 -20 56 -20q61 0 112 81l45 73l-113 498h71l78 -376l8 -53h1q14 28 28 52l218 377h77l-368 -610q-61 -103 -155 -103q-50 0 -93 30zM284 585l93 119h84l-111 -119h-66z" />
    <glyph glyph-name="thorn" unicode="&#xfe;" horiz-adv-x="590" 
d="M101 41l-47 -241h-68l175 903h67l-47 -246l-12 -42h2q27 42 74.5 71t107.5 29q88 0 137 -54t49 -148q0 -140 -82.5 -232.5t-190.5 -92.5q-56 0 -98.5 26t-58.5 75h-2q-1 -22 -6 -48zM135 194q0 -63 32 -104t93 -41q79 0 143.5 72t64.5 187q0 68 -34 106.5t-93 38.5
q-88 0 -147 -80.5t-59 -178.5z" />
    <glyph glyph-name="ydieresis" unicode="&#xff;" horiz-adv-x="529" 
d="M-39 -129q22 -20 56 -20q61 0 112 81l45 73l-113 498h71l78 -376l8 -53h1q14 28 28 52l218 377h77l-368 -610q-61 -103 -155 -103q-50 0 -93 30zM370 618l17 86h62l-17 -86h-62zM219 618l16 86h62l-16 -86h-62z" />
    <glyph glyph-name="Amacron" unicode="&#x100;" horiz-adv-x="634" 
d="M-31 0l392 703h76l121 -703h-70l-37 224h-283l-124 -224h-75zM199 284h242l-42 255l-11 92h-2q-26 -59 -44 -92zM292 785l10 55h246l-9 -55h-247z" />
    <glyph glyph-name="amacron" unicode="&#x101;" horiz-adv-x="516" 
d="M4 115q0 57 32 98t86 61t107.5 28t112.5 8h33q5 27 5 54q0 90 -102 90q-81 0 -152 -48l-21 57q31 21 80.5 36.5t98.5 15.5q77 0 121.5 -35t44.5 -107q0 -26 -6 -56l-61 -317h-66l12 58l11 43h-2q-22 -41 -71 -77t-113 -36q-63 0 -106.5 34.5t-43.5 92.5zM73 124
q0 -34 24.5 -56.5t72.5 -22.5q66 0 120.5 59.5t70.5 131.5l4 20h-29q-263 0 -263 -132zM190 618l10 55h246l-9 -55h-247z" />
    <glyph glyph-name="Abreve" unicode="&#x102;" horiz-adv-x="634" 
d="M-31 0l392 703h76l121 -703h-70l-37 224h-283l-124 -224h-75zM199 284h242l-42 255l-11 92h-2q-26 -59 -44 -92zM412 749q-42 0 -72 23t-30 65q0 12 5 34h56q-5 -18 -5 -29q0 -46 50 -46q27 0 48.5 18t26.5 57h56q-8 -63 -46 -92.5t-89 -29.5z" />
    <glyph glyph-name="abreve" unicode="&#x103;" horiz-adv-x="516" 
d="M4 115q0 57 32 98t86 61t107.5 28t112.5 8h33q5 27 5 54q0 90 -102 90q-81 0 -152 -48l-21 57q31 21 80.5 36.5t98.5 15.5q77 0 121.5 -35t44.5 -107q0 -26 -6 -56l-61 -317h-66l12 58l11 43h-2q-22 -41 -71 -77t-113 -36q-63 0 -106.5 34.5t-43.5 92.5zM73 124
q0 -34 24.5 -56.5t72.5 -22.5q66 0 120.5 59.5t70.5 131.5l4 20h-29q-263 0 -263 -132zM311 582q-42 0 -72 23t-30 65q0 12 5 34h56q-5 -18 -5 -29q0 -46 50 -46q27 0 48.5 18t26.5 57h56q-8 -63 -46 -92.5t-89 -29.5z" />
    <glyph glyph-name="Aogonek" unicode="&#x104;" horiz-adv-x="634" 
d="M-31 0l392 703h76l121 -703h-2q-94 -64 -94 -108q0 -16 13 -26.5t27 -12.5l13 -2l-26 -56q-4 0 -10 1t-22 6t-28.5 12.5t-22.5 23.5t-10 37q0 67 91 128l-36 221h-283l-124 -224h-75zM199 284h242l-42 255l-11 92h-2q-26 -59 -44 -92z" />
    <glyph glyph-name="aogonek" unicode="&#x105;" horiz-adv-x="516" 
d="M4 115q0 57 32 98t86 61t107.5 28t112.5 8h33q5 27 5 54q0 90 -102 90q-81 0 -152 -48l-21 57q31 21 80.5 36.5t98.5 15.5q77 0 121.5 -35t44.5 -107q0 -26 -6 -56l-61 -317q-95 -62 -95 -108q0 -16 13 -26.5t27 -12.5l13 -2l-26 -56q-4 0 -10 1t-22 6t-28.5 12.5
t-22.5 23.5t-10 37q0 67 96 132l11 51l11 43h-2q-22 -41 -71 -77t-113 -36q-63 0 -106.5 34.5t-43.5 92.5zM73 124q0 -34 24.5 -56.5t72.5 -22.5q66 0 120.5 59.5t70.5 131.5l4 20h-29q-263 0 -263 -132z" />
    <glyph glyph-name="Cacute" unicode="&#x106;" horiz-adv-x="719" 
d="M457 752l93 119h84l-111 -119h-66zM61 290q0 114 59 212.5t155.5 155.5t203.5 57q70 0 137.5 -22.5t109.5 -68.5l-44 -49q-77 75 -202 75q-140 0 -243.5 -106.5t-103.5 -251.5q0 -105 63.5 -172t169.5 -67q65 0 130 25t116 68l34 -54q-50 -45 -128.5 -74.5t-153.5 -29.5
q-139 0 -221 84t-82 218z" />
    <glyph glyph-name="cacute" unicode="&#x107;" horiz-adv-x="543" 
d="M316 585l93 119h84l-111 -119h-66zM34 202q0 133 93.5 223t215.5 90q53 0 102 -18t80 -54l-41 -46q-23 26 -61 41.5t-77 15.5q-94 0 -168 -71.5t-74 -175.5q0 -71 45.5 -114t118.5 -43q98 0 175 69l22 -56q-37 -34 -91 -54.5t-109 -20.5q-103 0 -167 59t-64 155z" />
    <glyph glyph-name="Ccircumflex" unicode="&#x108;" horiz-adv-x="719" 
d="M367 752l107 119h75l60 -119h-63l-38 80h-2l-70 -80h-69zM61 290q0 114 59 212.5t155.5 155.5t203.5 57q70 0 137.5 -22.5t109.5 -68.5l-44 -49q-77 75 -202 75q-140 0 -243.5 -106.5t-103.5 -251.5q0 -105 63.5 -172t169.5 -67q65 0 130 25t116 68l34 -54
q-50 -45 -128.5 -74.5t-153.5 -29.5q-139 0 -221 84t-82 218z" />
    <glyph glyph-name="ccircumflex" unicode="&#x109;" horiz-adv-x="543" 
d="M226 585l107 119h75l60 -119h-63l-38 80h-2l-70 -80h-69zM34 202q0 133 93.5 223t215.5 90q53 0 102 -18t80 -54l-41 -46q-23 26 -61 41.5t-77 15.5q-94 0 -168 -71.5t-74 -175.5q0 -71 45.5 -114t118.5 -43q98 0 175 69l22 -56q-37 -34 -91 -54.5t-109 -20.5
q-103 0 -167 59t-64 155z" />
    <glyph glyph-name="Cdotaccent" unicode="&#x10a;" horiz-adv-x="719" 
d="M61 290q0 114 59 212.5t155.5 155.5t203.5 57q70 0 137.5 -22.5t109.5 -68.5l-44 -49q-77 75 -202 75q-140 0 -243.5 -106.5t-103.5 -251.5q0 -105 63.5 -172t169.5 -67q65 0 130 25t116 68l34 -54q-50 -45 -128.5 -74.5t-153.5 -29.5q-139 0 -221 84t-82 218zM467 786
l16 85h65l-16 -85h-65z" />
    <glyph glyph-name="cdotaccent" unicode="&#x10b;" horiz-adv-x="543" 
d="M34 202q0 133 93.5 223t215.5 90q53 0 102 -18t80 -54l-41 -46q-23 26 -61 41.5t-77 15.5q-94 0 -168 -71.5t-74 -175.5q0 -71 45.5 -114t118.5 -43q98 0 175 69l22 -56q-37 -34 -91 -54.5t-109 -20.5q-103 0 -167 59t-64 155zM326 619l16 85h65l-16 -85h-65z" />
    <glyph glyph-name="Ccaron" unicode="&#x10c;" horiz-adv-x="719" 
d="M457 752l-60 119h63l38 -80h2l70 80h69l-107 -119h-75zM61 290q0 114 59 212.5t155.5 155.5t203.5 57q70 0 137.5 -22.5t109.5 -68.5l-44 -49q-77 75 -202 75q-140 0 -243.5 -106.5t-103.5 -251.5q0 -105 63.5 -172t169.5 -67q65 0 130 25t116 68l34 -54
q-50 -45 -128.5 -74.5t-153.5 -29.5q-139 0 -221 84t-82 218z" />
    <glyph glyph-name="ccaron" unicode="&#x10d;" horiz-adv-x="543" 
d="M316 585l-60 119h63l38 -80h2l70 80h69l-107 -119h-75zM34 202q0 133 93.5 223t215.5 90q53 0 102 -18t80 -54l-41 -46q-23 26 -61 41.5t-77 15.5q-94 0 -168 -71.5t-74 -175.5q0 -71 45.5 -114t118.5 -43q98 0 175 69l22 -56q-37 -34 -91 -54.5t-109 -20.5
q-103 0 -167 59t-64 155z" />
    <glyph glyph-name="Dcaron" unicode="&#x10e;" horiz-adv-x="738" 
d="M398 752l-60 119h63l38 -80h2l70 80h69l-107 -119h-75zM43 0l137 703h213q143 0 224.5 -71.5t81.5 -201.5q0 -180 -118 -305t-299 -125h-239zM124 62h150q152 0 252.5 104.5t100.5 259.5q0 103 -64 159t-176 56h-149z" />
    <glyph glyph-name="dcaron" unicode="&#x10f;" horiz-adv-x="594" 
d="M651 702h66v-14q0 -55 -44 -125h-56q37 63 37 111q0 13 -3 28zM35 190q0 140 82.5 232.5t193.5 92.5q55 0 97 -25.5t58 -74.5h2q0 21 4 42l48 246h68l-136 -703h-66l10 53l11 41h-2q-27 -45 -75.5 -75.5t-107.5 -30.5q-90 0 -138.5 54t-48.5 148zM105 194
q0 -68 34 -106.5t94 -38.5q89 0 147.5 81.5t58.5 180.5q0 63 -31.5 102.5t-94.5 39.5q-79 0 -143.5 -72t-64.5 -187z" />
    <glyph glyph-name="Dcroat" unicode="&#x110;" horiz-adv-x="745" 
d="M50 0l63 323h-59l12 60h59l63 320h213q143 0 224 -71.5t81 -201.5q0 -180 -117.5 -305t-299.5 -125h-239zM131 62h150q152 0 252.5 104.5t100.5 259.5q0 103 -63.5 159t-176.5 56h-149l-52 -258h169l-12 -60h-168z" />
    <glyph glyph-name="dcroat" unicode="&#x111;" horiz-adv-x="590" 
d="M35 190q0 140 82.5 232.5t193.5 92.5q55 0 97 -25.5t58 -74.5h2q0 21 4 42l21 109h-131l10 51h131l17 86h68l-17 -86h80l-10 -51h-80l-109 -566h-66l10 53l11 40h-2q-28 -45 -76 -75t-107 -30q-90 0 -138.5 54t-48.5 148zM105 194q0 -68 34 -106.5t94 -38.5
q89 0 147.5 81.5t58.5 180.5q0 63 -31.5 102.5t-94.5 39.5q-79 0 -143.5 -72t-64.5 -187z" />
    <glyph glyph-name="Emacron" unicode="&#x112;" horiz-adv-x="557" 
d="M43 0l137 703h396l-13 -62h-326l-50 -256h267l-12 -62h-266l-52 -261h344l-11 -62h-414zM282 785l10 55h246l-9 -55h-247z" />
    <glyph glyph-name="emacron" unicode="&#x113;" horiz-adv-x="552" 
d="M35 200q0 126 84 220.5t208 94.5q91 0 137 -49.5t46 -132.5q0 -39 -14 -84h-386q-5 -27 -5 -45q0 -66 42.5 -110t118.5 -44q87 0 165 60l21 -56q-32 -27 -84 -46.5t-104 -19.5q-103 0 -166 58.5t-63 153.5zM123 303h315q3 15 3 36q0 59 -31.5 89.5t-82.5 30.5
q-65 0 -121.5 -41t-82.5 -115zM235 618l10 55h246l-9 -55h-247z" />
    <glyph glyph-name="Ebreve" unicode="&#x114;" horiz-adv-x="557" 
d="M43 0l137 703h396l-13 -62h-326l-50 -256h267l-12 -62h-266l-52 -261h344l-11 -62h-414zM402 749q-42 0 -72 23t-30 65q0 12 5 34h56q-5 -18 -5 -29q0 -46 50 -46q27 0 48.5 18t26.5 57h56q-8 -63 -46 -92.5t-89 -29.5z" />
    <glyph glyph-name="ebreve" unicode="&#x115;" horiz-adv-x="552" 
d="M35 200q0 126 84 220.5t208 94.5q91 0 137 -49.5t46 -132.5q0 -39 -14 -84h-386q-5 -27 -5 -45q0 -66 42.5 -110t118.5 -44q87 0 165 60l21 -56q-32 -27 -84 -46.5t-104 -19.5q-103 0 -166 58.5t-63 153.5zM123 303h315q3 15 3 36q0 59 -31.5 89.5t-82.5 30.5
q-65 0 -121.5 -41t-82.5 -115zM355 582q-42 0 -72 23t-30 65q0 12 5 34h56q-5 -18 -5 -29q0 -46 50 -46q27 0 48.5 18t26.5 57h56q-8 -63 -46 -92.5t-89 -29.5z" />
    <glyph glyph-name="Edotaccent" unicode="&#x116;" horiz-adv-x="557" 
d="M43 0l137 703h396l-13 -62h-326l-50 -256h267l-12 -62h-266l-52 -261h344l-11 -62h-414zM373 786l16 85h65l-16 -85h-65z" />
    <glyph glyph-name="edotaccent" unicode="&#x117;" horiz-adv-x="552" 
d="M35 200q0 126 84 220.5t208 94.5q91 0 137 -49.5t46 -132.5q0 -39 -14 -84h-386q-5 -27 -5 -45q0 -66 42.5 -110t118.5 -44q87 0 165 60l21 -56q-32 -27 -84 -46.5t-104 -19.5q-103 0 -166 58.5t-63 153.5zM123 303h315q3 15 3 36q0 59 -31.5 89.5t-82.5 30.5
q-65 0 -121.5 -41t-82.5 -115zM326 619l16 85h65l-16 -85h-65z" />
    <glyph glyph-name="Eogonek" unicode="&#x118;" horiz-adv-x="557" 
d="M43 0l137 703h396l-13 -62h-326l-50 -256h267l-12 -62h-266l-52 -261h344l-11 -62q-32 -21 -61.5 -50.5t-29.5 -57.5q0 -16 13.5 -26.5t26.5 -12.5l14 -2l-26 -56q-4 0 -10 1t-22 6t-28.5 12.5t-22.5 23.5t-10 37q0 59 84 123v2h-342z" />
    <glyph glyph-name="eogonek" unicode="&#x119;" horiz-adv-x="553" 
d="M35 200q0 126 84 220.5t208 94.5q91 0 137 -49.5t46 -132.5q0 -18 -3.5 -39t-6.5 -33l-4 -12h-385l-1 -3q0 -4 -1 -9t-1.5 -10.5t-1 -12.5t-0.5 -12q0 -71 44.5 -111.5t115.5 -40.5q40 0 81.5 15t62.5 30l21 15l21 -56q-8 -7 -59.5 -38t-86 -63t-34.5 -61
q0 -16 13.5 -26.5t26.5 -12.5l14 -2l-26 -56q-4 0 -10 1t-22 6t-28 12.5t-22 23.5t-10 37q0 57 74 113v2q-108 -8 -177.5 51t-69.5 159zM123 303h315q3 18 3 37q0 58 -31.5 88t-82.5 30q-65 0 -121.5 -41t-82.5 -114z" />
    <glyph glyph-name="Ecaron" unicode="&#x11a;" horiz-adv-x="557" 
d="M364 752l-60 119h63l38 -80h2l70 80h69l-107 -119h-75zM43 0l137 703h396l-13 -62h-326l-50 -256h267l-12 -62h-266l-52 -261h344l-11 -62h-414z" />
    <glyph glyph-name="ecaron" unicode="&#x11b;" horiz-adv-x="552" 
d="M317 585l-60 119h63l38 -80h2l70 80h69l-107 -119h-75zM35 200q0 126 84 220.5t208 94.5q91 0 137 -49.5t46 -132.5q0 -39 -14 -84h-386q-5 -27 -5 -45q0 -66 42.5 -110t118.5 -44q87 0 165 60l21 -56q-32 -27 -84 -46.5t-104 -19.5q-103 0 -166 58.5t-63 153.5zM123 303
h315q3 15 3 36q0 59 -31.5 89.5t-82.5 30.5q-65 0 -121.5 -41t-82.5 -115z" />
    <glyph glyph-name="Gcircumflex" unicode="&#x11c;" horiz-adv-x="758" 
d="M364 752l107 119h75l60 -119h-63l-38 80h-2l-70 -80h-69zM59 282q0 115 58.5 215t156 159t207.5 59q155 0 244 -81l-44 -49q-33 30 -88 47.5t-111 17.5q-143 0 -246.5 -109t-103.5 -256q0 -104 62.5 -168t165.5 -64q131 0 243 109l22 112h-119l11 62h185l-65 -336h-63
l10 54l7 30h-2q-6 -6 -23 -19t-48 -32t-75.5 -32t-90.5 -13q-129 0 -211 82t-82 212z" />
    <glyph glyph-name="gcircumflex" unicode="&#x11d;" horiz-adv-x="581" 
d="M219 585l107 119h75l60 -119h-63l-38 80h-2l-70 -80h-69zM38 -115q53 -33 132 -33q78 0 134 39t72 118l10 46l11 41h-2q-61 -93 -167 -93q-89 0 -140 54.5t-51 145.5q0 74 29.5 143.5t91.5 119t143 49.5q57 0 101 -21t59 -68h2q-1 11 1 22l11 55h66l-97 -497
q-22 -112 -96.5 -164t-172.5 -52q-97 0 -170 42zM107 207q0 -67 34.5 -105t97.5 -38t109 44t66 103t20 120q0 123 -128 123q-91 0 -145 -75t-54 -172z" />
    <glyph glyph-name="Gbreve" unicode="&#x11e;" horiz-adv-x="758" 
d="M59 282q0 115 58.5 215t156 159t207.5 59q155 0 244 -81l-44 -49q-33 30 -88 47.5t-111 17.5q-143 0 -246.5 -109t-103.5 -256q0 -104 62.5 -168t165.5 -64q131 0 243 109l22 112h-119l11 62h185l-65 -336h-63l10 54l7 30h-2q-6 -6 -23 -19t-48 -32t-75.5 -32t-90.5 -13
q-129 0 -211 82t-82 212zM490 749q-42 0 -72 23t-30 65q0 12 5 34h56q-5 -18 -5 -29q0 -46 50 -46q27 0 48.5 18t26.5 57h56q-8 -63 -46 -92.5t-89 -29.5z" />
    <glyph glyph-name="gbreve" unicode="&#x11f;" horiz-adv-x="581" 
d="M38 -115q53 -33 132 -33q78 0 134 39t72 118l10 46l11 41h-2q-61 -93 -167 -93q-89 0 -140 54.5t-51 145.5q0 74 29.5 143.5t91.5 119t143 49.5q57 0 101 -21t59 -68h2q-1 11 1 22l11 55h66l-97 -497q-22 -112 -96.5 -164t-172.5 -52q-97 0 -170 42zM107 207
q0 -67 34.5 -105t97.5 -38t109 44t66 103t20 120q0 123 -128 123q-91 0 -145 -75t-54 -172zM345 582q-42 0 -72 23t-30 65q0 12 5 34h56q-5 -18 -5 -29q0 -46 50 -46q27 0 48.5 18t26.5 57h56q-8 -63 -46 -92.5t-89 -29.5z" />
    <glyph glyph-name="Gdotaccent" unicode="&#x120;" horiz-adv-x="758" 
d="M59 282q0 115 58.5 215t156 159t207.5 59q155 0 244 -81l-44 -49q-33 30 -88 47.5t-111 17.5q-143 0 -246.5 -109t-103.5 -256q0 -104 62.5 -168t165.5 -64q131 0 243 109l22 112h-119l11 62h185l-65 -336h-63l10 54l7 30h-2q-6 -6 -23 -19t-48 -32t-75.5 -32t-90.5 -13
q-129 0 -211 82t-82 212zM463 786l16 85h65l-16 -85h-65z" />
    <glyph glyph-name="gdotaccent" unicode="&#x121;" horiz-adv-x="581" 
d="M38 -115q53 -33 132 -33q78 0 134 39t72 118l10 46l11 41h-2q-61 -93 -167 -93q-89 0 -140 54.5t-51 145.5q0 74 29.5 143.5t91.5 119t143 49.5q57 0 101 -21t59 -68h2q-1 11 1 22l11 55h66l-97 -497q-22 -112 -96.5 -164t-172.5 -52q-97 0 -170 42zM107 207
q0 -67 34.5 -105t97.5 -38t109 44t66 103t20 120q0 123 -128 123q-91 0 -145 -75t-54 -172zM318 619l16 85h65l-16 -85h-65z" />
    <glyph glyph-name="Gcommaaccent" unicode="&#x122;" horiz-adv-x="758" 
d="M298 -63h66v-14q0 -55 -44 -125h-56q37 63 37 111q0 13 -3 28zM59 282q0 115 58.5 215t156 159t207.5 59q155 0 244 -81l-44 -49q-33 30 -88 47.5t-111 17.5q-143 0 -246.5 -109t-103.5 -256q0 -104 62.5 -168t165.5 -64q131 0 243 109l22 112h-119l11 62h185l-65 -336
h-63l10 54l7 30h-2q-6 -6 -23 -19t-48 -32t-75.5 -32t-90.5 -13q-129 0 -211 82t-82 212z" />
    <glyph glyph-name="gcommaaccent" unicode="&#x123;" horiz-adv-x="581" 
d="M371 565h-66v13q0 55 44 125h56q-37 -63 -37 -111q0 -14 3 -27zM38 -115q53 -33 132 -33q78 0 134 39t72 118l10 46l11 41h-2q-61 -93 -167 -93q-89 0 -140 54.5t-51 145.5q0 74 29.5 143.5t91.5 119t143 49.5q57 0 101 -21t59 -68h2q-1 11 1 22l11 55h66l-97 -497
q-22 -112 -96.5 -164t-172.5 -52q-97 0 -170 42zM107 207q0 -67 34.5 -105t97.5 -38t109 44t66 103t20 120q0 123 -128 123q-91 0 -145 -75t-54 -172z" />
    <glyph glyph-name="Hcircumflex" unicode="&#x124;" horiz-adv-x="747" 
d="M340 752l107 119h75l60 -119h-63l-38 80h-2l-70 -80h-69zM43 0l137 703h70l-63 -320h408l62 320h69l-137 -703h-70l63 321h-407l-63 -321h-69z" />
    <glyph glyph-name="hcircumflex" unicode="&#x125;" horiz-adv-x="593" 
d="M83 752l107 119h75l60 -119h-63l-38 80h-2l-70 -80h-69zM24 0l137 703h68l-52 -272l-13 -45h2q25 47 85 88t135 41q70 0 107 -33t37 -97q0 -28 -8 -66l-61 -319h-68l58 301q8 46 8 67q0 41 -23.5 62t-63.5 21q-82 0 -149.5 -64.5t-85.5 -153.5l-45 -233h-68z" />
    <glyph glyph-name="Hbar" unicode="&#x126;" horiz-adv-x="760" 
d="M51 0l100 512h-64l10 53h64l27 138h69l-27 -138h408l26 138h70l-27 -138h64l-10 -53h-65l-100 -512h-69l63 321h-408l-62 -321h-69zM195 383h407l25 129h-407z" />
    <glyph glyph-name="hbar" unicode="&#x127;" horiz-adv-x="593" 
d="M24 0l110 566h-76l10 51h76l17 86h68l-17 -86h134l-10 -51h-134l-25 -135l-13 -45h2q25 47 85 88t135 41q70 0 107 -33t37 -97q0 -28 -8 -66l-61 -319h-68l58 301q8 46 8 67q0 41 -23.5 62t-63.5 21q-82 0 -149.5 -64.5t-85.5 -153.5l-45 -233h-68z" />
    <glyph glyph-name="Itilde" unicode="&#x128;" horiz-adv-x="270" 
d="M43 0l137 703h70l-138 -703h-69zM75 755q21 116 106 116q22 0 38.5 -11t25 -24.5t21 -24.5t25.5 -11q37 0 51 68h54q-23 -116 -107 -116q-27 0 -45.5 18t-33.5 35.5t-32 17.5q-19 0 -31.5 -21t-17.5 -47h-54z" />
    <glyph glyph-name="itilde" unicode="&#x129;" horiz-adv-x="230" 
d="M24 0l98 503h68l-98 -503h-68zM23 588q21 116 106 116q22 0 38.5 -11t25 -24.5t21 -24.5t25.5 -11q37 0 51 68h54q-23 -116 -107 -116q-21 0 -37.5 11t-25.5 24.5t-21.5 24.5t-26.5 11q-19 0 -31.5 -21t-17.5 -47h-54z" />
    <glyph glyph-name="Imacron" unicode="&#x12a;" horiz-adv-x="270" 
d="M43 0l137 703h70l-138 -703h-69zM107 785l10 55h246l-9 -55h-247z" />
    <glyph glyph-name="imacron" unicode="&#x12b;" horiz-adv-x="230" 
d="M24 0l98 503h68l-98 -503h-68zM55 618l10 55h246l-9 -55h-247z" />
    <glyph glyph-name="Ibreve" unicode="&#x12c;" horiz-adv-x="270" 
d="M43 0l137 703h70l-138 -703h-69zM227 749q-42 0 -72 23t-30 65q0 12 5 34h56q-5 -18 -5 -29q0 -46 50 -46q27 0 48.5 18t26.5 57h56q-8 -63 -46 -92.5t-89 -29.5z" />
    <glyph glyph-name="ibreve" unicode="&#x12d;" horiz-adv-x="230" 
d="M24 0l98 503h68l-98 -503h-68zM175 582q-42 0 -72 23t-30 65q0 12 5 34h56q-5 -18 -5 -29q0 -46 50 -46q27 0 48.5 18t26.5 57h56q-8 -63 -46 -92.5t-89 -29.5z" />
    <glyph glyph-name="Iogonek" unicode="&#x12e;" horiz-adv-x="272" 
d="M-47 -125q0 64 90 128l137 700h70l-138 -702l1 -1q-95 -62 -95 -108q0 -16 13 -26.5t27 -12.5l13 -2l-26 -56q-4 0 -10 1t-22 6t-28 12.5t-22 23.5t-10 37z" />
    <glyph glyph-name="iogonek" unicode="&#x12f;" horiz-adv-x="230" 
d="M-68 -125q0 65 93 130l97 498h69l-99 -503q-95 -62 -95 -108q0 -16 13.5 -26.5t26.5 -12.5l13 -2l-26 -56q-4 0 -10 1t-22 6t-28 12.5t-22 23.5t-10 37zM142 618l17 85h73l-17 -85h-73z" />
    <glyph glyph-name="Idotaccent" unicode="&#x130;" horiz-adv-x="270" 
d="M43 0l137 703h70l-138 -703h-69zM199 786l16 85h65l-16 -85h-65z" />
    <glyph glyph-name="dotlessi" unicode="&#x131;" horiz-adv-x="230" 
d="M24 0l98 503h68l-98 -503h-68z" />
    <glyph glyph-name="IJ" unicode="&#x132;" horiz-adv-x="581" 
d="M213 -5l12 64q146 0 180 169l92 475h69l-92 -475q-14 -71 -40.5 -119t-63.5 -72t-74 -33t-83 -9zM43 0l137 703h70l-138 -703h-69z" />
    <glyph glyph-name="ij" unicode="&#x133;" horiz-adv-x="461" 
d="M142 618l17 85h73l-17 -85h-73zM24 0l98 503h69l-99 -503h-68zM371 618l16 85h74l-17 -85h-73zM251 -16l101 519h68l-101 -521q-12 -59 -37 -99.5t-56.5 -58t-56.5 -24t-50 -6.5q-21 0 -41 3l12 60q8 -2 22 -2q18 0 35.5 4.5t39.5 16.5t39 40t25 68z" />
    <glyph glyph-name="Jcircumflex" unicode="&#x134;" horiz-adv-x="517" 
d="M265 752l107 119h75l60 -119h-63l-38 80h-2l-70 -80h-69zM5 147q0 19 6 52l4 26h70l-5 -25q-4 -30 -4 -43q0 -104 103 -104q53 0 97.5 34.5t58.5 109.5l85 444h-170l12 62h240l-100 -513q-20 -104 -83 -153t-141 -49q-74 0 -123.5 39.5t-49.5 119.5z" />
    <glyph glyph-name="jcircumflex" unicode="&#x135;" horiz-adv-x="231" 
d="M45 584l108 119h75l60 -119h-63l-38 81h-2l-70 -81h-70zM21 -16l101 519h69l-102 -521q-11 -59 -36 -99.5t-56.5 -58t-56.5 -24t-51 -6.5l-40 3l12 60q8 -2 22 -2q18 0 35.5 4.5t39 16.5t38.5 40t25 68z" />
    <glyph glyph-name="Kcommaaccent" unicode="&#x136;" horiz-adv-x="590" 
d="M210 -63h66v-14q0 -55 -44 -125h-56q37 63 37 111q0 13 -3 28zM43 0l137 703h70l-60 -305h114l253 305h82l-279 -335v-2l153 -366h-75l-137 336h-123l-66 -336h-69z" />
    <glyph glyph-name="kcommaaccent" unicode="&#x137;" horiz-adv-x="495" 
d="M169 -63h66v-14q0 -55 -44 -125h-56q37 63 37 111q0 13 -3 28zM24 0l138 703h68l-77 -392h77l189 192h86l-219 -221v-2l136 -280h-74l-120 251h-86l-50 -251h-68z" />
    <glyph glyph-name="kgreenlandic" unicode="&#x138;" horiz-adv-x="496" 
d="M24 0l98 503h68l-40 -206h79l199 206h87l-232 -237v-2l130 -264h-76l-112 238h-86l-47 -238h-68z" />
    <glyph glyph-name="Lacute" unicode="&#x139;" horiz-adv-x="508" 
d="M192 752l93 119h84l-111 -119h-66zM43 0l137 703h70l-126 -641h326l-13 -62h-394z" />
    <glyph glyph-name="lacute" unicode="&#x13a;" horiz-adv-x="251" 
d="M168 752l93 119h84l-111 -119h-66zM44 89q0 17 4 36l112 578h69l-111 -569q-3 -17 -3 -31q0 -20 8 -30.5t17 -12.5t22 -2q7 0 14 1l-13 -61q-8 -2 -23 -2q-38 0 -67 20.5t-29 72.5z" />
    <glyph glyph-name="Lcommaaccent" unicode="&#x13b;" horiz-adv-x="508" 
d="M204 -63h66v-14q0 -55 -44 -125h-56q37 63 37 111q0 13 -3 28zM43 0l137 703h70l-126 -641h326l-13 -62h-394z" />
    <glyph glyph-name="lcommaaccent" unicode="&#x13c;" horiz-adv-x="251" 
d="M49 -63h66v-14q0 -55 -44 -125h-56q37 63 37 111q0 13 -3 28zM44 89q0 17 4 36l112 578h69l-111 -569q-3 -17 -3 -31q0 -20 8 -30.5t17 -12.5t22 -2q7 0 14 1l-13 -61q-8 -2 -23 -2q-38 0 -67 20.5t-29 72.5z" />
    <glyph glyph-name="Lcaron" unicode="&#x13d;" horiz-adv-x="508" 
d="M342 702h66v-14q0 -55 -44 -125h-56q37 63 37 111q0 13 -3 28zM43 0l137 703h70l-126 -641h326l-13 -62h-394z" />
    <glyph glyph-name="lcaron" unicode="&#x13e;" horiz-adv-x="255" 
d="M290 702h66v-14q0 -55 -44 -125h-56q37 63 37 111q0 13 -3 28zM44 89q0 17 4 36l112 578h69l-111 -569q-3 -17 -3 -31q0 -20 8 -30.5t17 -12.5t22 -2q7 0 14 1l-13 -61q-8 -2 -23 -2q-38 0 -67 20.5t-29 72.5z" />
    <glyph glyph-name="Ldot" unicode="&#x13f;" horiz-adv-x="509" 
d="M43 0l137 703h70l-126 -641h326l-13 -62h-394zM280 329l15 83h81l-16 -83h-80z" />
    <glyph glyph-name="ldot" unicode="&#x140;" horiz-adv-x="287" 
d="M44 89q0 17 4 36l112 578h69l-111 -569q-3 -17 -3 -31q0 -20 8 -30.5t17 -12.5t22 -2q7 0 14 1l-13 -61q-8 -2 -23 -2q-38 0 -67 20.5t-29 72.5zM224 329l15 83h81l-16 -83h-80z" />
    <glyph glyph-name="Lslash" unicode="&#x141;" horiz-adv-x="515" 
d="M50 0l66 337l-69 -35l13 70l70 37l58 294h69l-50 -254l124 64l-13 -71l-125 -65l-61 -315h325l-12 -62h-395z" />
    <glyph glyph-name="lslash" unicode="&#x142;" horiz-adv-x="264" 
d="M55 89q0 8 4 36l44 226l-88 -45l13 70l89 47l55 280h68l-47 -241l98 51l-15 -71l-97 -51l-49 -257q-4 -15 -4 -31q0 -20 8 -30.5t17 -12.5t22 -2q8 0 15 1l-13 -61q-10 -2 -23 -2q-38 0 -67.5 20.5t-29.5 72.5z" />
    <glyph glyph-name="Nacute" unicode="&#x143;" horiz-adv-x="744" 
d="M428 752l93 119h84l-111 -119h-66zM43 0l137 703h62l261 -506l39 -95h2q4 58 12 95l98 506h70l-138 -703h-61l-261 506l-39 95h-2q-5 -58 -12 -95l-99 -506h-69z" />
    <glyph glyph-name="nacute" unicode="&#x144;" horiz-adv-x="593" 
d="M332 585l93 119h84l-111 -119h-66zM24 0l98 503h67l-13 -72l-14 -47h2q24 47 85 89t137 42q70 0 107 -33t37 -97q0 -28 -8 -66l-61 -319h-68l58 301q8 46 8 67q0 41 -23.5 62t-63.5 21q-83 0 -150 -64.5t-85 -153.5l-45 -233h-68z" />
    <glyph glyph-name="Ncommaaccent" unicode="&#x145;" horiz-adv-x="744" 
d="M274 -63h66v-14q0 -55 -44 -125h-56q37 63 37 111q0 13 -3 28zM43 0l137 703h62l261 -506l39 -95h2q4 58 12 95l98 506h70l-138 -703h-61l-261 506l-39 95h-2q-5 -58 -12 -95l-99 -506h-69z" />
    <glyph glyph-name="ncommaaccent" unicode="&#x146;" horiz-adv-x="593" 
d="M206 -63h66v-14q0 -55 -44 -125h-56q37 63 37 111q0 13 -3 28zM24 0l98 503h67l-13 -72l-14 -47h2q24 47 85 89t137 42q70 0 107 -33t37 -97q0 -28 -8 -66l-61 -319h-68l58 301q8 46 8 67q0 41 -23.5 62t-63.5 21q-83 0 -150 -64.5t-85 -153.5l-45 -233h-68z" />
    <glyph glyph-name="Ncaron" unicode="&#x147;" horiz-adv-x="744" 
d="M429 752l-60 119h63l38 -80h2l70 80h69l-107 -119h-75zM43 0l137 703h62l261 -506l39 -95h2q4 58 12 95l98 506h70l-138 -703h-61l-261 506l-39 95h-2q-5 -58 -12 -95l-99 -506h-69z" />
    <glyph glyph-name="ncaron" unicode="&#x148;" horiz-adv-x="593" 
d="M333 585l-60 119h63l38 -80h2l70 80h69l-107 -119h-75zM24 0l98 503h67l-13 -72l-14 -47h2q24 47 85 89t137 42q70 0 107 -33t37 -97q0 -28 -8 -66l-61 -319h-68l58 301q8 46 8 67q0 41 -23.5 62t-63.5 21q-83 0 -150 -64.5t-85 -153.5l-45 -233h-68z" />
    <glyph glyph-name="napostrophe" unicode="&#x149;" horiz-adv-x="593" 
d="M98 702h66v-14q0 -55 -44 -125h-56q37 63 37 111q0 13 -3 28zM24 0l98 503h67l-13 -72l-14 -47h2q24 47 85 89t137 42q70 0 107 -33t37 -97q0 -28 -8 -66l-61 -319h-68l58 301q8 46 8 67q0 41 -23.5 62t-63.5 21q-83 0 -150 -64.5t-85 -153.5l-45 -233h-68z" />
    <glyph glyph-name="Eng" unicode="&#x14a;" horiz-adv-x="744" 
d="M43 0l137 703h62l261 -506l39 -95h2q4 58 12 95l98 506h70l-133 -675q-14 -72 -41 -120.5t-64 -72t-73 -32t-82 -8.5l12 64q139 0 176 152l-255 495l-39 95h-2q-5 -58 -12 -95l-99 -506h-69z" />
    <glyph glyph-name="eng" unicode="&#x14b;" horiz-adv-x="593" 
d="M24 0l98 503h67l-13 -72l-14 -47h2q24 47 85 89t137 42q70 0 107 -33t37 -97q0 -28 -8 -66l-66 -341q-11 -59 -36 -99.5t-56.5 -58t-56.5 -24t-51 -6.5l-40 3l12 59q9 -1 22 -1q18 0 35.5 4.5t39.5 16.5t39 40t25 68l62 321q8 46 8 67q0 41 -23.5 62t-63.5 21
q-83 0 -150 -64.5t-85 -153.5l-45 -233h-68z" />
    <glyph glyph-name="Omacron" unicode="&#x14c;" horiz-adv-x="825" 
d="M383 785l10 55h246l-9 -55h-247zM60 292q0 111 60.5 209.5t158 156t203.5 57.5q136 0 221 -83t85 -213q0 -113 -61 -213.5t-158.5 -159t-202.5 -58.5q-136 0 -221 85t-85 219zM132 294q0 -106 65 -173.5t169 -67.5q134 0 242 108.5t108 254.5q0 103 -65.5 168.5
t-168.5 65.5q-135 0 -242.5 -106t-107.5 -250z" />
    <glyph glyph-name="omacron" unicode="&#x14d;" horiz-adv-x="624" 
d="M251 618l10 55h246l-9 -55h-247zM34 208q0 126 94 216.5t215 90.5q102 0 166 -60.5t64 -156.5q0 -127 -95 -218.5t-214 -91.5q-102 0 -166 61.5t-64 158.5zM104 210q0 -71 45 -115.5t116 -44.5q91 0 164.5 72t73.5 173q0 70 -45 114.5t-116 44.5q-92 0 -165 -72t-73 -172
z" />
    <glyph glyph-name="Obreve" unicode="&#x14e;" horiz-adv-x="825" 
d="M60 292q0 111 60.5 209.5t158 156t203.5 57.5q136 0 221 -83t85 -213q0 -113 -61 -213.5t-158.5 -159t-202.5 -58.5q-136 0 -221 85t-85 219zM132 294q0 -106 65 -173.5t169 -67.5q134 0 242 108.5t108 254.5q0 103 -65.5 168.5t-168.5 65.5q-135 0 -242.5 -106
t-107.5 -250zM504 749q-42 0 -72 23t-30 65q0 12 5 34h56q-5 -18 -5 -29q0 -46 50 -46q27 0 48.5 18t26.5 57h56q-8 -63 -46 -92.5t-89 -29.5z" />
    <glyph glyph-name="obreve" unicode="&#x14f;" horiz-adv-x="624" 
d="M34 208q0 126 94 216.5t215 90.5q102 0 166 -60.5t64 -156.5q0 -127 -95 -218.5t-214 -91.5q-102 0 -166 61.5t-64 158.5zM104 210q0 -71 45 -115.5t116 -44.5q91 0 164.5 72t73.5 173q0 70 -45 114.5t-116 44.5q-92 0 -165 -72t-73 -172zM371 582q-42 0 -72 23t-30 65
q0 12 5 34h56q-5 -18 -5 -29q0 -46 50 -46q27 0 48.5 18t26.5 57h56q-8 -63 -46 -92.5t-89 -29.5z" />
    <glyph glyph-name="Ohungarumlaut" unicode="&#x150;" horiz-adv-x="825" 
d="M519 752l93 119h82l-110 -119h-65zM385 752l89 119h72l-91 -119h-70zM60 292q0 111 60.5 209.5t158 156t203.5 57.5q136 0 221 -83t85 -213q0 -113 -61 -213.5t-158.5 -159t-202.5 -58.5q-136 0 -221 85t-85 219zM132 294q0 -106 65 -173.5t169 -67.5q134 0 242 108.5
t108 254.5q0 103 -65.5 168.5t-168.5 65.5q-135 0 -242.5 -106t-107.5 -250z" />
    <glyph glyph-name="ohungarumlaut" unicode="&#x151;" horiz-adv-x="624" 
d="M386 585l93 119h82l-110 -119h-65zM252 585l89 119h72l-91 -119h-70zM34 208q0 126 94 216.5t215 90.5q102 0 166 -60.5t64 -156.5q0 -127 -95 -218.5t-214 -91.5q-102 0 -166 61.5t-64 158.5zM104 210q0 -71 45 -115.5t116 -44.5q91 0 164.5 72t73.5 173q0 70 -45 114.5
t-116 44.5q-92 0 -165 -72t-73 -172z" />
    <glyph glyph-name="OE" unicode="&#x152;" horiz-adv-x="941" 
d="M60 287q0 84 34.5 163t91.5 136t134.5 91.5t159.5 34.5q24 0 70 -4.5t63 -4.5h347l-13 -62h-326l-50 -256h267l-12 -62h-268l-50 -261h345l-12 -62h-354q-14 0 -56.5 -5t-64.5 -5q-139 0 -222.5 83t-83.5 214zM131 284q0 -102 63.5 -166t172.5 -64q32 0 72 8l113 579
q-40 8 -70 8q-143 0 -247 -108t-104 -257z" />
    <glyph glyph-name="oe" unicode="&#x153;" horiz-adv-x="1012" 
d="M34 208q0 126 94 216.5t215 90.5q76 0 130 -37t77 -99h2q40 62 101 99t134 37q91 0 137.5 -49.5t46.5 -132.5q0 -45 -15 -84h-386q-4 -20 -4 -50q2 -71 46.5 -110t114.5 -39q82 0 164 60l21 -56q-33 -27 -86 -46.5t-102 -19.5q-78 0 -134 36.5t-77 101.5h-2
q-42 -63 -108.5 -100.5t-138.5 -37.5q-102 0 -166 61.5t-64 158.5zM583 303h315q3 10 3 37q0 58 -31.5 88t-82.5 30q-65 0 -121.5 -41t-82.5 -114zM104 210q0 -71 45 -115.5t116 -44.5q91 0 164.5 72t73.5 173q0 70 -45 114.5t-116 44.5q-92 0 -165 -72t-73 -172z" />
    <glyph glyph-name="Racute" unicode="&#x154;" horiz-adv-x="614" 
d="M357 752l93 119h84l-111 -119h-66zM44 0l136 703h231q61 0 99 -19q82 -40 82 -142q0 -83 -49.5 -147t-127.5 -82v-2q4 -9 11 -29l100 -282h-74l-102 296h-180l-57 -296h-69zM182 358h164q73 0 124 49.5t51 127.5q0 50 -31 78t-87 28h-166z" />
    <glyph glyph-name="racute" unicode="&#x155;" horiz-adv-x="357" 
d="M236 585l93 119h84l-111 -119h-66zM24 0l98 503h66l-17 -89l-12 -44h2q28 59 76.5 98.5t107.5 39.5q13 0 30 -3l-14 -67q-16 2 -24 2q-75 0 -132.5 -79.5t-75.5 -172.5l-37 -188h-68z" />
    <glyph glyph-name="Rcommaaccent" unicode="&#x156;" horiz-adv-x="614" 
d="M229 -63h66v-14q0 -55 -44 -125h-56q37 63 37 111q0 13 -3 28zM44 0l136 703h231q61 0 99 -19q82 -40 82 -142q0 -83 -49.5 -147t-127.5 -82v-2q4 -9 11 -29l100 -282h-74l-102 296h-180l-57 -296h-69zM182 358h164q73 0 124 49.5t51 127.5q0 50 -31 78t-87 28h-166z" />
    <glyph glyph-name="rcommaaccent" unicode="&#x157;" horiz-adv-x="357" 
d="M20 -63h66v-14q0 -55 -44 -125h-56q37 63 37 111q0 13 -3 28zM24 0l98 503h66l-17 -89l-12 -44h2q28 59 76.5 98.5t107.5 39.5q13 0 30 -3l-14 -67q-16 2 -24 2q-75 0 -132.5 -79.5t-75.5 -172.5l-37 -188h-68z" />
    <glyph glyph-name="Rcaron" unicode="&#x158;" horiz-adv-x="614" 
d="M358 752l-60 119h63l38 -80h2l70 80h69l-107 -119h-75zM44 0l136 703h231q61 0 99 -19q82 -40 82 -142q0 -83 -49.5 -147t-127.5 -82v-2q4 -9 11 -29l100 -282h-74l-102 296h-180l-57 -296h-69zM182 358h164q73 0 124 49.5t51 127.5q0 50 -31 78t-87 28h-166z" />
    <glyph glyph-name="rcaron" unicode="&#x159;" horiz-adv-x="357" 
d="M237 585l-60 119h63l38 -80h2l70 80h69l-107 -119h-75zM24 0l98 503h66l-17 -89l-12 -44h2q28 59 76.5 98.5t107.5 39.5q13 0 30 -3l-14 -67q-16 2 -24 2q-75 0 -132.5 -79.5t-75.5 -172.5l-37 -188h-68z" />
    <glyph glyph-name="Sacute" unicode="&#x15a;" horiz-adv-x="537" 
d="M322 752l93 119h84l-111 -119h-66zM8 78l46 49l5 -5q5 -5 10 -9.5t14.5 -11.5t19 -13t23.5 -12.5t28.5 -11t32.5 -7.5t37 -3q70 0 120.5 36.5t50.5 100.5q0 44 -30 75t-72.5 52t-85 43t-72.5 61t-30 94q0 91 72.5 145t170.5 54q112 0 188 -70l-41 -52l-5 5q-6 4 -12 8.5
t-16 10.5t-21.5 11.5t-25.5 10t-31.5 7.5t-35.5 3q-66 0 -119 -35.5t-53 -95.5q0 -40 30 -69.5t72.5 -50t85 -43.5t72.5 -63.5t30 -97.5q0 -90 -68.5 -148t-172.5 -58q-58 0 -111 21.5t-72.5 37.5t-33.5 31z" />
    <glyph glyph-name="sacute" unicode="&#x15b;" horiz-adv-x="438" 
d="M240 585l93 119h84l-111 -119h-66zM-4 60l38 48q23 -27 61.5 -43t79.5 -16q50 0 85.5 22.5t35.5 63.5q0 29 -23.5 50t-56.5 35t-66 30t-56.5 46t-23.5 73q0 68 56 107t134 39q96 0 152 -56l-36 -48q-43 43 -118 43q-49 0 -85 -21t-36 -63q0 -29 23.5 -50t56.5 -35
t66 -29.5t56.5 -45.5t23.5 -73q0 -66 -53.5 -107.5t-134.5 -41.5q-113 0 -179 72z" />
    <glyph glyph-name="Scircumflex" unicode="&#x15c;" horiz-adv-x="537" 
d="M232 752l107 119h75l60 -119h-63l-38 80h-2l-70 -80h-69zM8 78l46 49l5 -5q5 -5 10 -9.5t14.5 -11.5t19 -13t23.5 -12.5t28.5 -11t32.5 -7.5t37 -3q70 0 120.5 36.5t50.5 100.5q0 44 -30 75t-72.5 52t-85 43t-72.5 61t-30 94q0 91 72.5 145t170.5 54q112 0 188 -70
l-41 -52l-5 5q-6 4 -12 8.5t-16 10.5t-21.5 11.5t-25.5 10t-31.5 7.5t-35.5 3q-66 0 -119 -35.5t-53 -95.5q0 -40 30 -69.5t72.5 -50t85 -43.5t72.5 -63.5t30 -97.5q0 -90 -68.5 -148t-172.5 -58q-58 0 -111 21.5t-72.5 37.5t-33.5 31z" />
    <glyph glyph-name="scircumflex" unicode="&#x15d;" horiz-adv-x="438" 
d="M151 585l107 119h75l60 -119h-63l-38 80h-2l-70 -80h-69zM-4 60l38 48q23 -27 61.5 -43t79.5 -16q50 0 85.5 22.5t35.5 63.5q0 29 -23.5 50t-56.5 35t-66 30t-56.5 46t-23.5 73q0 68 56 107t134 39q96 0 152 -56l-36 -48q-43 43 -118 43q-49 0 -85 -21t-36 -63
q0 -29 23.5 -50t56.5 -35t66 -29.5t56.5 -45.5t23.5 -73q0 -66 -53.5 -107.5t-134.5 -41.5q-113 0 -179 72z" />
    <glyph glyph-name="Scedilla" unicode="&#x15e;" horiz-adv-x="538" 
d="M155 -91l35 81q-48 5 -91.5 25.5t-61.5 35.5t-28 27l46 49l5 -5q5 -5 10 -9.5t14.5 -11.5t19 -13t23.5 -12.5t28.5 -11t32.5 -7.5t37 -3q70 0 120.5 36.5t50.5 100.5q0 44 -30 75t-72.5 52t-85 43t-72.5 61t-30 94q0 91 72.5 145t170.5 54q112 0 188 -70l-41 -52l-6 5
q-5 4 -11 8.5t-16 10.5t-21.5 11.5t-25.5 10t-31.5 7.5t-35.5 3q-66 0 -119 -35.5t-53 -95.5q0 -40 30 -69.5t72.5 -50t85 -43.5t72.5 -63.5t30 -97.5q0 -88 -66 -146t-168 -60l-17 -43q25 -4 42 -21t17 -44q0 -42 -33 -63.5t-75 -21.5q-32 0 -54 6l10 46q13 -5 40 -5
q58 0 58 39q0 29 -51 29q-9 0 -15 -1z" />
    <glyph glyph-name="scedilla" unicode="&#x15f;" horiz-adv-x="439" 
d="M105 -91l35 81q-90 12 -144 70l38 48q23 -27 61.5 -43t79.5 -16q50 0 85.5 22.5t35.5 63.5q0 29 -23.5 50t-56.5 35t-66 30t-56.5 46t-23.5 73q0 68 56 107t134 39q96 0 152 -56l-36 -48q-43 43 -118 43q-49 0 -85 -21t-36 -63q0 -29 23.5 -50t56.5 -35t66 -29.5
t56.5 -45.5t23.5 -73q0 -64 -51 -105.5t-129 -43.5l-17 -43q25 -4 42 -21t17 -44q0 -42 -33 -63.5t-75 -21.5q-32 0 -54 6l10 46q13 -5 40 -5q58 0 58 39q0 29 -51 29q-9 0 -15 -1z" />
    <glyph glyph-name="Scaron" unicode="&#x160;" horiz-adv-x="537" 
d="M322 752l-60 119h63l38 -80h2l70 80h69l-107 -119h-75zM8 78l46 49l5 -5q5 -5 10 -9.5t14.5 -11.5t19 -13t23.5 -12.5t28.5 -11t32.5 -7.5t37 -3q70 0 120.5 36.5t50.5 100.5q0 44 -30 75t-72.5 52t-85 43t-72.5 61t-30 94q0 91 72.5 145t170.5 54q112 0 188 -70l-41 -52
l-5 5q-6 4 -12 8.5t-16 10.5t-21.5 11.5t-25.5 10t-31.5 7.5t-35.5 3q-66 0 -119 -35.5t-53 -95.5q0 -40 30 -69.5t72.5 -50t85 -43.5t72.5 -63.5t30 -97.5q0 -90 -68.5 -148t-172.5 -58q-58 0 -111 21.5t-72.5 37.5t-33.5 31z" />
    <glyph glyph-name="scaron" unicode="&#x161;" horiz-adv-x="438" 
d="M241 585l-60 119h63l38 -80h2l70 80h69l-107 -119h-75zM-4 60l38 48q23 -27 61.5 -43t79.5 -16q50 0 85.5 22.5t35.5 63.5q0 29 -23.5 50t-56.5 35t-66 30t-56.5 46t-23.5 73q0 68 56 107t134 39q96 0 152 -56l-36 -48q-43 43 -118 43q-49 0 -85 -21t-36 -63
q0 -29 23.5 -50t56.5 -35t66 -29.5t56.5 -45.5t23.5 -73q0 -66 -53.5 -107.5t-134.5 -41.5q-113 0 -179 72z" />
    <glyph glyph-name="Tcommaaccent" unicode="&#x162;" horiz-adv-x="603" 
d="M208 0l125 641h-252l12 62h573l-11 -62h-253l-124 -641h-14l-22 -55q25 -4 42 -21t17 -44q0 -42 -33 -63.5t-75 -21.5q-32 0 -54 6l10 46q13 -5 40 -5q58 0 58 39q0 29 -51 29q-9 0 -15 -1l39 91h-12z" />
    <glyph glyph-name="tcommaaccent" unicode="&#x163;" horiz-adv-x="319" 
d="M86 -91l45 105q-61 33 -61 124q0 24 6 55l48 249h-66l11 57h67l28 143h67l-29 -143h127l-11 -57h-126l-48 -250q-5 -21 -5 -45q0 -90 86 -90q11 0 29 2l-12 -61q-10 -2 -26 -2q-26 0 -47 4l-22 -55q25 -4 42 -21t17 -44q0 -42 -33 -63.5t-75 -21.5q-32 0 -54 6l10 46
q13 -5 40 -5q58 0 58 39q0 29 -51 29q-9 0 -15 -1z" />
    <glyph glyph-name="Tcaron" unicode="&#x164;" horiz-adv-x="603" 
d="M353 752l-60 119h63l38 -80h2l70 80h69l-107 -119h-75zM208 0l125 641h-252l12 62h573l-11 -62h-253l-124 -641h-70z" />
    <glyph glyph-name="tcaron" unicode="&#x165;" horiz-adv-x="319" 
d="M318 702h66v-14q0 -54 -44 -124h-56q37 63 37 110q0 13 -3 28zM70 138q0 24 6 55l48 249h-66l11 57h67l28 143h67l-29 -143h127l-11 -57h-126l-48 -250q-5 -21 -5 -45q0 -90 86 -90q11 0 29 2l-12 -61q-10 -2 -26 -2q-146 0 -146 142z" />
    <glyph glyph-name="Tbar" unicode="&#x166;" horiz-adv-x="614" 
d="M214 0l63 324h-162l12 57h161l51 260h-252l12 62h573l-11 -62h-253l-51 -260h166l-11 -57h-166l-63 -324h-69z" />
    <glyph glyph-name="tbar" unicode="&#x167;" horiz-adv-x="323" 
d="M72 138q0 24 6 55l16 85h-65l9 53h66l22 111h-66l11 57h67l28 143h67l-29 -143h127l-11 -57h-126l-22 -111h127l-10 -53h-127q-21 -107 -21 -132q0 -89 86 -89l29 2l-12 -61q-12 -2 -26 -2q-146 0 -146 142z" />
    <glyph glyph-name="Utilde" unicode="&#x168;" horiz-adv-x="723" 
d="M78 192q0 27 6 57l89 454h69l-88 -456q-5 -20 -5 -47q0 -70 44 -108.5t123 -38.5q91 0 154.5 52t82.5 144l89 454h69l-91 -463q-23 -117 -105.5 -184.5t-200.5 -67.5q-107 0 -171.5 54.5t-64.5 149.5zM301 755q21 116 106 116q22 0 38.5 -11t25 -24.5t21 -24.5t25.5 -11
q37 0 51 68h54q-23 -116 -107 -116q-27 0 -45.5 18t-33.5 35.5t-32 17.5q-19 0 -31.5 -21t-17.5 -47h-54z" />
    <glyph glyph-name="utilde" unicode="&#x169;" horiz-adv-x="588" 
d="M47 118q0 23 7 67l62 318h68l-58 -299q-8 -42 -8 -69q0 -83 89 -83q81 0 146 67t81 153l45 231h68l-97 -503h-67l14 72l13 47h-2q-27 -48 -85 -89.5t-135 -41.5q-63 0 -102 31t-39 99zM198 588q21 116 106 116q22 0 38.5 -11t25 -24.5t21 -24.5t25.5 -11q37 0 51 68h54
q-23 -116 -107 -116q-21 0 -37.5 11t-25.5 24.5t-21.5 24.5t-26.5 11q-19 0 -31.5 -21t-17.5 -47h-54z" />
    <glyph glyph-name="Umacron" unicode="&#x16a;" horiz-adv-x="723" 
d="M78 192q0 27 6 57l89 454h69l-88 -456q-5 -20 -5 -47q0 -70 44 -108.5t123 -38.5q91 0 154.5 52t82.5 144l89 454h69l-91 -463q-23 -117 -105.5 -184.5t-200.5 -67.5q-107 0 -171.5 54.5t-64.5 149.5zM333 785l10 55h246l-9 -55h-247z" />
    <glyph glyph-name="umacron" unicode="&#x16b;" horiz-adv-x="588" 
d="M47 118q0 23 7 67l62 318h68l-58 -299q-8 -42 -8 -69q0 -83 89 -83q81 0 146 67t81 153l45 231h68l-97 -503h-67l14 72l13 47h-2q-27 -48 -85 -89.5t-135 -41.5q-63 0 -102 31t-39 99zM230 618l10 55h246l-9 -55h-247z" />
    <glyph glyph-name="Ubreve" unicode="&#x16c;" horiz-adv-x="723" 
d="M78 192q0 27 6 57l89 454h69l-88 -456q-5 -20 -5 -47q0 -70 44 -108.5t123 -38.5q91 0 154.5 52t82.5 144l89 454h69l-91 -463q-23 -117 -105.5 -184.5t-200.5 -67.5q-107 0 -171.5 54.5t-64.5 149.5zM454 749q-42 0 -72 23t-30 65q0 12 5 34h56q-5 -18 -5 -29
q0 -46 50 -46q27 0 48.5 18t26.5 57h56q-8 -63 -46 -92.5t-89 -29.5z" />
    <glyph glyph-name="ubreve" unicode="&#x16d;" horiz-adv-x="588" 
d="M47 118q0 23 7 67l62 318h68l-58 -299q-8 -42 -8 -69q0 -83 89 -83q81 0 146 67t81 153l45 231h68l-97 -503h-67l14 72l13 47h-2q-27 -48 -85 -89.5t-135 -41.5q-63 0 -102 31t-39 99zM350 582q-42 0 -72 23t-30 65q0 12 5 34h56q-5 -18 -5 -29q0 -46 50 -46
q27 0 48.5 18t26.5 57h56q-8 -63 -46 -92.5t-89 -29.5z" />
    <glyph glyph-name="Uring" unicode="&#x16e;" horiz-adv-x="723" 
d="M454 742q-32 0 -50.5 16t-18.5 45q0 33 25.5 56.5t57.5 23.5q33 0 51.5 -16.5t18.5 -46.5q0 -32 -26 -55t-58 -23zM456 779q16 0 27.5 12t11.5 29q0 11 -7.5 18.5t-19.5 7.5q-16 0 -28 -12t-12 -30q0 -25 28 -25zM78 192q0 27 6 57l89 454h69l-88 -456q-5 -20 -5 -47
q0 -70 44 -108.5t123 -38.5q91 0 154.5 52t82.5 144l89 454h69l-91 -463q-23 -117 -105.5 -184.5t-200.5 -67.5q-107 0 -171.5 54.5t-64.5 149.5z" />
    <glyph glyph-name="uring" unicode="&#x16f;" horiz-adv-x="588" 
d="M350 575q-32 0 -50.5 16t-18.5 45q0 33 25.5 56.5t57.5 23.5q33 0 51.5 -16.5t18.5 -46.5q0 -32 -26 -55t-58 -23zM352 612q16 0 27.5 12t11.5 29q0 11 -7.5 18.5t-19.5 7.5q-16 0 -28 -12t-12 -30q0 -25 28 -25zM47 118q0 23 7 67l62 318h68l-58 -299q-8 -42 -8 -69
q0 -83 89 -83q81 0 146 67t81 153l45 231h68l-97 -503h-67l14 72l13 47h-2q-27 -48 -85 -89.5t-135 -41.5q-63 0 -102 31t-39 99z" />
    <glyph glyph-name="Uhungarumlaut" unicode="&#x170;" horiz-adv-x="723" 
d="M78 192q0 27 6 57l89 454h69l-88 -456q-5 -20 -5 -47q0 -70 44 -108.5t123 -38.5q91 0 154.5 52t82.5 144l89 454h69l-91 -463q-23 -117 -105.5 -184.5t-200.5 -67.5q-107 0 -171.5 54.5t-64.5 149.5zM469 752l93 119h82l-110 -119h-65zM335 752l89 119h72l-91 -119h-70z
" />
    <glyph glyph-name="uhungarumlaut" unicode="&#x171;" horiz-adv-x="588" 
d="M47 118q0 23 7 67l62 318h68l-58 -299q-8 -42 -8 -69q0 -83 89 -83q81 0 146 67t81 153l45 231h68l-97 -503h-67l14 72l13 47h-2q-27 -48 -85 -89.5t-135 -41.5q-63 0 -102 31t-39 99zM365 585l93 119h82l-110 -119h-65zM231 585l89 119h72l-91 -119h-70z" />
    <glyph glyph-name="Uogonek" unicode="&#x172;" horiz-adv-x="723" 
d="M78 192q0 27 6 57l89 454h69l-89 -456q-4 -21 -4 -47q0 -70 43.5 -108.5t122.5 -38.5q92 0 155.5 52t82.5 144l89 454h69l-92 -463q-29 -150 -167 -223q-125 -67 -125 -125q0 -16 13.5 -26.5t27.5 -12.5l13 -2l-25 -56q-4 0 -10 1t-22 6t-28.5 12.5t-22.5 23.5t-10 37
q0 56 69 112v2q-103 -7 -178.5 45t-75.5 158z" />
    <glyph glyph-name="uogonek" unicode="&#x173;" horiz-adv-x="588" 
d="M47 118q0 23 7 67l62 318h68l-58 -299q-8 -42 -8 -69q0 -83 89 -83q81 0 146 67t81 153l45 231h68l-97 -503q-95 -62 -95 -108q0 -16 13.5 -26.5t26.5 -12.5l13 -2l-26 -56q-4 0 -10 1t-22 6t-28.5 12.5t-22.5 23.5t-10 37q0 66 95 131l13 66l13 47h-2q-27 -48 -85 -89.5
t-135 -41.5q-63 0 -102 31t-39 99z" />
    <glyph glyph-name="Wcircumflex" unicode="&#x174;" horiz-adv-x="924" 
d="M430 752l107 119h75l60 -119h-63l-38 80h-2l-70 -80h-69zM158 0l-48 703h71l31 -546l1 -75h2q16 38 33 75l262 546h69l36 -546l1 -75h2q15 40 30 75l243 546h76l-319 -703h-84l-34 495q-2 28 -2.5 66t0.5 39h-2q-25 -59 -46 -104l-240 -496h-82z" />
    <glyph glyph-name="wcircumflex" unicode="&#x175;" horiz-adv-x="823" 
d="M338 585l107 119h75l60 -119h-63l-38 80h-2l-70 -80h-69zM139 0l-72 503h69l48 -377l5 -54h2q13 29 26 54l196 375h68l50 -375l5 -54h2q12 29 25 54l196 377h74l-268 -503h-74l-54 361l-4 54h-2q-14 -29 -27 -54l-190 -361h-75z" />
    <glyph glyph-name="Ycircumflex" unicode="&#x176;" horiz-adv-x="579" 
d="M192 0l59 302l-158 401h75l98 -255l28 -84h2q31 45 59 83l197 256h84l-316 -403l-59 -300h-69zM248 752l107 119h75l60 -119h-63l-38 80h-2l-70 -80h-69z" />
    <glyph glyph-name="ycircumflex" unicode="&#x177;" horiz-adv-x="529" 
d="M-39 -129q22 -20 56 -20q61 0 112 81l45 73l-113 498h71l78 -376l8 -53h1q14 28 28 52l218 377h77l-368 -610q-61 -103 -155 -103q-50 0 -93 30zM194 585l107 119h75l60 -119h-63l-38 80h-2l-70 -80h-69z" />
    <glyph glyph-name="Ydieresis" unicode="&#x178;" horiz-adv-x="579" 
d="M192 0l59 302l-158 401h75l98 -255l28 -84h2q31 45 59 83l197 256h84l-316 -403l-59 -300h-69zM424 785l17 86h62l-17 -86h-62zM273 785l16 86h62l-16 -86h-62z" />
    <glyph glyph-name="Zacute" unicode="&#x179;" horiz-adv-x="575" 
d="M353 752l93 119h84l-111 -119h-66zM-23 0l10 49l459 528q15 17 30.5 33t23.5 24l8 7v2q-16 -2 -50 -2h-338l13 62h478l-9 -49l-461 -528q-15 -17 -30.5 -33t-24.5 -23l-8 -8v-2q17 2 51 2h360l-12 -62h-500z" />
    <glyph glyph-name="zacute" unicode="&#x17a;" horiz-adv-x="494" 
d="M267 585l93 119h84l-111 -119h-66zM-20 0l8 44l345 353q44 46 48 46v2q-16 -2 -49 -2h-255l11 60h401l-9 -45l-346 -352q-12 -12 -24 -23t-19 -17.5t-7 -5.5v-2q18 2 51 2h277l-11 -60h-421z" />
    <glyph glyph-name="Zdotaccent" unicode="&#x17b;" horiz-adv-x="575" 
d="M-23 0l10 49l459 528q15 17 30.5 33t23.5 24l8 7v2q-16 -2 -50 -2h-338l13 62h478l-9 -49l-461 -528q-15 -17 -30.5 -33t-24.5 -23l-8 -8v-2q17 2 51 2h360l-12 -62h-500zM363 786l16 85h65l-16 -85h-65z" />
    <glyph glyph-name="zdotaccent" unicode="&#x17c;" horiz-adv-x="494" 
d="M-20 0l8 44l345 353q44 46 48 46v2q-16 -2 -49 -2h-255l11 60h401l-9 -45l-346 -352q-12 -12 -24 -23t-19 -17.5t-7 -5.5v-2q18 2 51 2h277l-11 -60h-421zM277 619l16 85h65l-16 -85h-65z" />
    <glyph glyph-name="Zcaron" unicode="&#x17d;" horiz-adv-x="575" 
d="M353 752l-60 119h63l38 -80h2l70 80h69l-107 -119h-75zM-23 0l10 49l459 528q15 17 30.5 33t23.5 24l8 7v2q-16 -2 -50 -2h-338l13 62h478l-9 -49l-461 -528q-15 -17 -30.5 -33t-24.5 -23l-8 -8v-2q17 2 51 2h360l-12 -62h-500z" />
    <glyph glyph-name="zcaron" unicode="&#x17e;" horiz-adv-x="494" 
d="M267 585l-60 119h63l38 -80h2l70 80h69l-107 -119h-75zM-20 0l8 44l345 353q44 46 48 46v2q-16 -2 -49 -2h-255l11 60h401l-9 -45l-346 -352q-12 -12 -24 -23t-19 -17.5t-7 -5.5v-2q18 2 51 2h277l-11 -60h-421z" />
    <glyph glyph-name="longs" unicode="&#x17f;" horiz-adv-x="270" 
d="M43 0l86 442h-63l11 57h63l5 24q11 58 37 98t58.5 57t57.5 23.5t50 6.5l37 -3l-13 -60q-8 2 -23 2q-18 0 -35 -4.5t-38.5 -16t-38.5 -39t-24 -66.5l-101 -521h-69z" />
    <glyph glyph-name="florin" unicode="&#x192;" horiz-adv-x="568" 
d="M-30 -40q24 -5 61 -5q112 0 148 128l80 282h-89l11 57h94l33 114q16 56 43.5 94.5t60 55.5t58 23t51.5 6q44 0 92 -8l-12 -59q-40 7 -79 7q-111 0 -148 -129l-30 -104h125l-11 -57h-130l-84 -295q-16 -56 -44 -94t-60.5 -54t-57 -22t-50.5 -6q-34 0 -74 7z" />
    <glyph glyph-name="Scommaaccent" unicode="&#x218;" horiz-adv-x="537" 
d="M163 -63h66v-14q0 -55 -44 -125h-56q37 63 37 111q0 13 -3 28zM8 78l46 49l5 -5q5 -5 10 -9.5t14.5 -11.5t19 -13t23.5 -12.5t28.5 -11t32.5 -7.5t37 -3q70 0 120.5 36.5t50.5 100.5q0 44 -30 75t-72.5 52t-85 43t-72.5 61t-30 94q0 91 72.5 145t170.5 54q112 0 188 -70
l-41 -52l-5 5q-6 4 -12 8.5t-16 10.5t-21.5 11.5t-25.5 10t-31.5 7.5t-35.5 3q-66 0 -119 -35.5t-53 -95.5q0 -40 30 -69.5t72.5 -50t85 -43.5t72.5 -63.5t30 -97.5q0 -90 -68.5 -148t-172.5 -58q-58 0 -111 21.5t-72.5 37.5t-33.5 31z" />
    <glyph glyph-name="scommaaccent" unicode="&#x219;" horiz-adv-x="438" 
d="M123 -63h66v-14q0 -55 -44 -125h-56q37 63 37 111q0 13 -3 28zM-4 60l38 48q23 -27 61.5 -43t79.5 -16q50 0 85.5 22.5t35.5 63.5q0 29 -23.5 50t-56.5 35t-66 30t-56.5 46t-23.5 73q0 68 56 107t134 39q96 0 152 -56l-36 -48q-43 43 -118 43q-49 0 -85 -21t-36 -63
q0 -29 23.5 -50t56.5 -35t66 -29.5t56.5 -45.5t23.5 -73q0 -66 -53.5 -107.5t-134.5 -41.5q-113 0 -179 72z" />
    <glyph glyph-name="uni021A" unicode="&#x21a;" horiz-adv-x="603" 
d="M196 -63h66v-14q0 -55 -44 -125h-56q37 63 37 111q0 13 -3 28zM208 0l125 641h-252l12 62h573l-11 -62h-253l-124 -641h-70z" />
    <glyph glyph-name="uni021B" unicode="&#x21b;" horiz-adv-x="319" 
d="M117 -63h66v-14q0 -55 -44 -125h-56q37 63 37 111q0 13 -3 28zM70 138q0 24 6 55l48 249h-66l11 57h67l28 143h67l-29 -143h127l-11 -57h-126l-48 -250q-5 -21 -5 -45q0 -90 86 -90q11 0 29 2l-12 -61q-10 -2 -26 -2q-146 0 -146 142z" />
    <glyph glyph-name="circumflex" unicode="&#x2c6;" horiz-adv-x="504" 
d="M61 752l107 119h75l60 -119h-63l-38 80h-2l-70 -80h-69z" />
    <glyph glyph-name="caron" unicode="&#x2c7;" horiz-adv-x="504" 
d="M151 752l-60 119h63l38 -80h2l70 80h69l-107 -119h-75z" />
    <glyph glyph-name="breve" unicode="&#x2d8;" horiz-adv-x="505" 
d="M188 749q-42 0 -72 23t-30 65q0 12 5 34h56q-5 -18 -5 -29q0 -46 50 -46q27 0 48.5 18t26.5 57h56q-8 -63 -46 -92.5t-89 -29.5z" />
    <glyph glyph-name="dotaccent" unicode="&#x2d9;" horiz-adv-x="505" 
d="M161 786l16 85h65l-16 -85h-65z" />
    <glyph glyph-name="ring" unicode="&#x2da;" horiz-adv-x="505" 
d="M189 742q-32 0 -50.5 16t-18.5 45q0 33 25.5 56.5t57.5 23.5q33 0 51.5 -16.5t18.5 -46.5q0 -32 -26 -55t-58 -23zM191 779q16 0 27.5 12t11.5 29q0 11 -7.5 18.5t-19.5 7.5q-16 0 -28 -12t-12 -30q0 -25 28 -25z" />
    <glyph glyph-name="ogonek" unicode="&#x2db;" horiz-adv-x="504" 
d="M116 -125q0 44 33 78.5t86 68.5l52 -13q-4 -3 -11.5 -7.5t-25.5 -18t-32 -27t-25.5 -31.5t-11.5 -33q0 -16 13.5 -26.5t26.5 -12.5l13 -2l-26 -56q-4 0 -10 1t-22 6t-28 12.5t-22 23.5t-10 37z" />
    <glyph glyph-name="tilde" unicode="&#x2dc;" horiz-adv-x="504" 
d="M36 755q21 116 106 116q22 0 38.5 -11t25 -24.5t21 -24.5t25.5 -11q37 0 51 68h54q-23 -116 -107 -116q-27 0 -45.5 18t-33.5 35.5t-32 17.5q-19 0 -31.5 -21t-17.5 -47h-54z" />
    <glyph glyph-name="hungarumlaut" unicode="&#x2dd;" horiz-adv-x="504" 
d="M177 752l93 119h82l-110 -119h-65zM43 752l89 119h72l-91 -119h-70z" />
    <glyph glyph-name="uni0400" unicode="&#x400;" horiz-adv-x="558" 
d="M43 0l137 703h396l-13 -62h-326l-50 -256h267l-12 -62h-266l-52 -261h344l-11 -62h-414zM383 752l-63 119h74l47 -119h-58z" />
    <glyph glyph-name="uni0401" unicode="&#x401;" horiz-adv-x="558" 
d="M449 785l17 86h62l-17 -86h-62zM298 785l16 86h62l-16 -86h-62zM43 0l137 703h396l-13 -62h-326l-50 -256h267l-12 -62h-266l-52 -261h344l-11 -62h-414z" />
    <glyph glyph-name="uni0402" unicode="&#x402;" horiz-adv-x="721" 
d="M155 0l125 641h-201l13 62h507l-12 -62h-238l-45 -229l-7 -30h2q96 43 188 43q90 0 138.5 -47.5t48.5 -129.5q0 -104 -72.5 -182t-190.5 -78q-1 0 -52 3l11 60q16 -3 40 -3q84 0 138.5 57t54.5 137q0 119 -134 119q-95 0 -185 -49l-60 -312h-69z" />
    <glyph glyph-name="uni0403" unicode="&#x403;" horiz-adv-x="488" 
d="M327 752l93 119h84l-111 -119h-66zM43 0l137 703h370l-12 -62h-301l-125 -641h-69z" />
    <glyph glyph-name="uni0404" unicode="&#x404;" horiz-adv-x="716" 
d="M60 288q0 108 56 206t155 159.5t214 61.5q70 0 134 -22.5t105 -67.5l-41 -51q-77 77 -203 77q-117 0 -210 -77.5t-125 -191.5h399l-12 -60h-398q-2 -12 -2 -36q0 -108 64.5 -171t169.5 -63q134 0 246 95l32 -53q-54 -47 -132 -76.5t-155 -29.5q-135 0 -216 85t-81 215z
" />
    <glyph glyph-name="uni0405" unicode="&#x405;" horiz-adv-x="537" 
d="M8 78l46 49l5 -5q5 -5 10 -9.5t14.5 -11.5t19 -13t23.5 -12.5t28.5 -11t32.5 -7.5t37 -3q70 0 120.5 36.5t50.5 100.5q0 44 -30 75t-72.5 52t-85 43t-72.5 61t-30 94q0 91 72.5 145t170.5 54q112 0 188 -70l-41 -52l-5 5q-6 4 -12 8.5t-16 10.5t-21.5 11.5t-25.5 10
t-31.5 7.5t-35.5 3q-66 0 -119 -35.5t-53 -95.5q0 -40 30 -69.5t72.5 -50t85 -43.5t72.5 -63.5t30 -97.5q0 -90 -68.5 -148t-172.5 -58q-58 0 -111 21.5t-72.5 37.5t-33.5 31z" />
    <glyph glyph-name="uni0406" unicode="&#x406;" horiz-adv-x="270" 
d="M43 0l137 703h70l-138 -703h-69z" />
    <glyph glyph-name="uni0407" unicode="&#x407;" horiz-adv-x="270" 
d="M43 0l137 703h70l-138 -703h-69zM276 785l17 86h62l-17 -86h-62zM125 785l16 86h62l-16 -86h-62z" />
    <glyph glyph-name="uni0408" unicode="&#x408;" horiz-adv-x="517" 
d="M5 147q0 19 6 52l4 26h70l-5 -25q-4 -30 -4 -43q0 -104 103 -104q53 0 97.5 34.5t58.5 109.5l85 444h-170l12 62h240l-100 -513q-20 -104 -83 -153t-141 -49q-74 0 -123.5 39.5t-49.5 119.5z" />
    <glyph glyph-name="uni0409" unicode="&#x409;" horiz-adv-x="939" 
d="M-34 -7l13 65q92 12 152 131t107 353l31 161h359l-59 -300h134q87 0 138.5 -45.5t51.5 -124.5q0 -95 -71 -164t-178 -69h-223l125 641h-219l-19 -97q-21 -103 -41 -178.5t-49 -148t-63.5 -118.5t-82 -75t-106.5 -31zM502 62h138q76 0 129 48t53 119q0 55 -34.5 83.5
t-92.5 28.5h-138z" />
    <glyph glyph-name="uni040A" unicode="&#x40a;" horiz-adv-x="994" 
d="M43 0l137 703h70l-60 -302h364l59 302h69l-59 -301h135q85 0 137.5 -45.5t52.5 -124.5q0 -94 -71.5 -163t-178.5 -69h-222l66 339h-364l-66 -339h-69zM557 62h138q75 0 128 48t53 118q0 55 -34.5 83.5t-92.5 28.5h-137z" />
    <glyph glyph-name="uni040B" unicode="&#x40b;" horiz-adv-x="715" 
d="M154 0l126 641h-201l13 62h506l-12 -62h-237l-46 -232l-9 -34h2q95 50 198 50q81 0 122.5 -38t41.5 -105q0 -29 -6 -62l-43 -220h-70l42 211q6 36 6 52q0 98 -112 98q-53 0 -107 -17.5t-85 -37.5l-60 -306h-69z" />
    <glyph glyph-name="uni040C" unicode="&#x40c;" horiz-adv-x="591" 
d="M360 752l93 119h84l-111 -119h-66zM43 0l137 703h70l-60 -305h114l253 305h82l-279 -335v-2l153 -366h-75l-137 336h-123l-66 -336h-69z" />
    <glyph glyph-name="uni040D" unicode="&#x40d;" horiz-adv-x="751" 
d="M43 0l137 703h70l-98 -503l-24 -93h2q49 62 80 97l453 499h67l-138 -703h-69l98 503l23 93h-2q-46 -60 -77 -95l-455 -501h-67zM443 752l-63 119h74l47 -119h-58z" />
    <glyph glyph-name="uni040E" unicode="&#x40e;" horiz-adv-x="588" 
d="M29 32l38 52q37 -34 78 -34q32 0 55 23t52 73l-171 557h72l118 -392l23 -93h2q26 50 50 92l222 393h78l-344 -592q-72 -123 -161 -123q-56 0 -112 44zM379 736q-50 0 -84.5 27t-34.5 70q0 15 6 38h58q-4 -15 -4 -29q0 -26 17.5 -40.5t44.5 -14.5q33 0 58.5 20.5
t31.5 63.5h58q-10 -72 -52.5 -103.5t-98.5 -31.5z" />
    <glyph glyph-name="uni040F" unicode="&#x40f;" horiz-adv-x="723" 
d="M44 0l136 703h70l-125 -641h383l125 641h69l-136 -703h-229l-27 -140h-65l27 140h-228z" />
    <glyph glyph-name="uni0410" unicode="&#x410;" horiz-adv-x="634" 
d="M-31 0l392 703h76l121 -703h-70l-37 224h-283l-124 -224h-75zM199 284h242l-42 255l-11 92h-2q-26 -59 -44 -92z" />
    <glyph glyph-name="uni0411" unicode="&#x411;" horiz-adv-x="594" 
d="M43 0l137 703h399l-13 -62h-329l-45 -230h155q85 0 136 -43.5t51 -123.5q0 -105 -71 -174.5t-167 -69.5h-253zM124 62h165q72 0 122.5 48.5t50.5 129.5q0 51 -32 80t-87 29h-163z" />
    <glyph glyph-name="uni0412" unicode="&#x412;" horiz-adv-x="616" 
d="M43 0l137 703h226q49 0 84 -13q42 -16 65.5 -51t23.5 -84q0 -64 -33.5 -113t-88.5 -71v-2q40 -14 63.5 -50.5t23.5 -87.5q0 -75 -38.5 -130.5t-100.5 -81.5q-45 -19 -99 -19h-263zM190 398h170q61 0 104.5 43t43.5 108q0 43 -26 67.5t-75 24.5h-170zM124 62h180
q42 0 73 14q43 20 69 61t26 94q0 50 -31 78.5t-84 28.5h-179z" />
    <glyph glyph-name="uni0413" unicode="&#x413;" horiz-adv-x="488" 
d="M43 0l137 703h370l-12 -62h-301l-125 -641h-69z" />
    <glyph glyph-name="uni0414" unicode="&#x414;" horiz-adv-x="704" 
d="M117 62h352l112 579h-251l-15 -77q-20 -126 -72.5 -266.5t-125.5 -235.5zM-76 -140l40 202h73q83 100 136.5 237t75.5 267l26 137h387l-124 -641h78l-39 -202h-65l28 140h-522l-28 -140h-66z" />
    <glyph glyph-name="uni0415" unicode="&#x415;" horiz-adv-x="558" 
d="M43 0l137 703h396l-13 -62h-326l-50 -256h267l-12 -62h-266l-52 -261h344l-11 -62h-414z" />
    <glyph glyph-name="uni0416" unicode="&#x416;" horiz-adv-x="866" 
d="M-35 0l294 372v2l-147 329h75l133 -305h99l60 305h69l-60 -305h94l244 305h86l-273 -335v-2l149 -366h-75l-135 336h-102l-66 -336h-69l66 336h-94l-265 -336h-83z" />
    <glyph glyph-name="uni0417" unicode="&#x417;" horiz-adv-x="534" 
d="M-7 80l43 47q55 -75 157 -75q82 0 140 47.5t58 120.5q0 55 -35.5 83t-94.5 28h-92l12 60h74q66 0 119.5 43.5t53.5 108.5q0 47 -31 77.5t-92 30.5q-84 0 -161 -57l-29 52q93 69 192 69q92 0 143 -43t51 -119q0 -68 -39 -116t-102 -70v-2q103 -33 103 -143
q0 -101 -78.5 -167.5t-185.5 -66.5q-60 0 -116 23.5t-90 68.5z" />
    <glyph glyph-name="uni0418" unicode="&#x418;" horiz-adv-x="751" 
d="M43 0l137 703h70l-98 -503l-24 -93h2q49 62 80 97l453 499h67l-138 -703h-69l98 503l23 93h-2q-46 -60 -77 -95l-455 -501h-67z" />
    <glyph glyph-name="uni0419" unicode="&#x419;" horiz-adv-x="751" 
d="M466 736q-50 0 -84.5 27t-34.5 70q0 15 6 38h58q-4 -15 -4 -29q0 -26 17.5 -40.5t44.5 -14.5q33 0 58.5 20.5t31.5 63.5h58q-10 -72 -52.5 -103.5t-98.5 -31.5zM43 0l137 703h70l-98 -503l-24 -93h2q49 62 80 97l453 499h67l-138 -703h-69l98 503l23 93h-2
q-46 -60 -77 -95l-455 -501h-67z" />
    <glyph glyph-name="uni041A" unicode="&#x41a;" horiz-adv-x="591" 
d="M43 0l137 703h70l-60 -305h114l253 305h82l-279 -335v-2l153 -366h-75l-137 336h-123l-66 -336h-69z" />
    <glyph glyph-name="uni041B" unicode="&#x41b;" horiz-adv-x="663" 
d="M505 0h-70l126 641h-250l-20 -102q-26 -129 -54 -221t-68 -167.5t-94 -115t-124 -43.5l13 65q90 12 152.5 133t106.5 349l33 164h386z" />
    <glyph glyph-name="uni041C" unicode="&#x41c;" horiz-adv-x="844" 
d="M16 0l194 703h69l104 -413l17 -86h2q28 49 51 86l265 413h74l-81 -703h-69l58 492l17 98h-2q-33 -62 -56 -98l-236 -361h-65l-95 361l-19 100h-2q-10 -62 -20 -100l-136 -492h-70z" />
    <glyph glyph-name="uni041D" unicode="&#x41d;" horiz-adv-x="747" 
d="M43 0l137 703h70l-63 -320h408l62 320h69l-137 -703h-70l63 321h-407l-63 -321h-69z" />
    <glyph glyph-name="uni041E" unicode="&#x41e;" horiz-adv-x="825" 
d="M60 292q0 111 60.5 209.5t158 156t203.5 57.5q136 0 221 -83t85 -213q0 -113 -61 -213.5t-158.5 -159t-202.5 -58.5q-136 0 -221 85t-85 219zM132 294q0 -106 65 -173.5t169 -67.5q134 0 242 108.5t108 254.5q0 103 -65.5 168.5t-168.5 65.5q-135 0 -242.5 -106
t-107.5 -250z" />
    <glyph glyph-name="uni041F" unicode="&#x41f;" horiz-adv-x="738" 
d="M43 0l137 703h537l-138 -703h-69l126 641h-399l-125 -641h-69z" />
    <glyph glyph-name="uni0420" unicode="&#x420;" horiz-adv-x="598" 
d="M43 0l137 703h230q69 0 111 -24q83 -45 83 -148q0 -80 -42 -143t-109 -92q-49 -20 -102 -20h-185l-54 -276h-69zM178 338h166q46 0 82 16q48 21 77 67t29 107q0 54 -34 83.5t-96 29.5h-165z" />
    <glyph glyph-name="uni0421" unicode="&#x421;" horiz-adv-x="719" 
d="M61 290q0 114 59 212.5t155.5 155.5t203.5 57q70 0 137.5 -22.5t109.5 -68.5l-44 -49q-77 75 -202 75q-140 0 -243.5 -106.5t-103.5 -251.5q0 -105 63.5 -172t169.5 -67q65 0 130 25t116 68l34 -54q-50 -45 -128.5 -74.5t-153.5 -29.5q-139 0 -221 84t-82 218z" />
    <glyph glyph-name="uni0422" unicode="&#x422;" horiz-adv-x="603" 
d="M208 0l125 641h-252l12 62h573l-11 -62h-253l-124 -641h-70z" />
    <glyph glyph-name="uni0423" unicode="&#x423;" horiz-adv-x="588" 
d="M29 32l38 52q37 -34 78 -34q32 0 55 23t52 73l-171 557h72l118 -392l23 -93h2q26 50 50 92l222 393h78l-344 -592q-72 -123 -161 -123q-56 0 -112 44z" />
    <glyph glyph-name="uni0424" unicode="&#x424;" horiz-adv-x="821" 
d="M55 318q0 156 113 251.5t282 96.5l16 84h69l-16 -84q128 0 204 -64.5t76 -174.5q0 -155 -114 -251.5t-281 -96.5l-18 -91h-69l18 91q-128 0 -204 64t-76 175zM416 140q131 2 221.5 79.5t90.5 207.5q0 85 -58.5 131.5t-163.5 46.5zM126 318q0 -85 58.5 -131.5t162.5 -46.5
l90 465q-131 -2 -221 -79t-90 -208z" />
    <glyph glyph-name="uni0425" unicode="&#x425;" horiz-adv-x="571" 
d="M-38 0l295 371l-139 332h74l84 -206l31 -80h2q25 37 57 79l165 207h84l-274 -340l156 -363h-74l-101 240l-30 77h-2q-21 -33 -55 -75l-193 -242h-80z" />
    <glyph glyph-name="uni0426" unicode="&#x426;" horiz-adv-x="745" 
d="M44 0l136 703h70l-125 -641h383l125 641h69l-124 -641h79l-39 -202h-65l27 140h-536z" />
    <glyph glyph-name="uni0427" unicode="&#x427;" horiz-adv-x="614" 
d="M256 277q-86 0 -130 39.5t-44 109.5q0 24 6 53l44 224h70l-42 -213q-5 -22 -5 -48q0 -101 115 -101q101 0 195 59l59 303h70l-137 -703h-70l57 294l8 33h-2q-103 -50 -194 -50z" />
    <glyph glyph-name="uni0428" unicode="&#x428;" horiz-adv-x="993" 
d="M43 0l137 703h70l-126 -641h292l126 641h69l-125 -641h292l125 641h69l-137 -703h-792z" />
    <glyph glyph-name="uni0429" unicode="&#x429;" horiz-adv-x="1019" 
d="M44 0l136 703h70l-125 -641h292l125 641h69l-125 -641h293l124 641h69l-124 -641h86l-39 -202h-65l27 140h-813z" />
    <glyph glyph-name="uni042A" unicode="&#x42a;" horiz-adv-x="661" 
d="M131 0l125 641h-184l12 62h254l-56 -284h155q81 0 129.5 -44t48.5 -125q0 -107 -71.5 -178.5t-171.5 -71.5h-241zM213 62h156q74 0 124.5 50.5t50.5 133.5q0 52 -32 81.5t-87 29.5h-155z" />
    <glyph glyph-name="uni042B" unicode="&#x42b;" horiz-adv-x="813" 
d="M585 0l138 703h69l-138 -703h-69zM43 0l137 703h70l-56 -284h153q81 0 129.5 -44t48.5 -125q0 -107 -72 -178.5t-172 -71.5h-238zM124 62h155q73 0 123.5 50.5t50.5 133.5q0 52 -32 81.5t-87 29.5h-153z" />
    <glyph glyph-name="uni042C" unicode="&#x42c;" horiz-adv-x="573" 
d="M43 0l137 703h70l-56 -284h155q80 0 129 -44t49 -125q0 -107 -72 -178.5t-172 -71.5h-240zM124 62h157q74 0 124 50.5t50 133.5q0 52 -32 81.5t-87 29.5h-155z" />
    <glyph glyph-name="uni042D" unicode="&#x42d;" horiz-adv-x="716" 
d="M195 322l12 60h397q2 24 2 36q0 103 -61 168t-169 65q-127 0 -229 -79l-34 51q111 92 268 92q135 0 216.5 -82.5t81.5 -212.5q0 -112 -59 -212t-158 -160t-210 -60q-72 0 -141.5 27t-111.5 80l43 47q33 -40 91 -65t122 -25q114 0 209 77t128 193h-397z" />
    <glyph glyph-name="uni042E" unicode="&#x42e;" horiz-adv-x="1051" 
d="M43 0l137 703h70l-63 -320h126q34 140 151 236t253 96q132 0 214 -83t82 -213q0 -113 -59.5 -213.5t-154.5 -159t-197 -58.5q-132 0 -215.5 85.5t-83.5 218.5q0 19 1 29h-129l-63 -321h-69zM375 294q0 -106 62.5 -173.5t162.5 -67.5q131 0 236 108.5t105 254.5
q0 103 -62.5 168t-162.5 65q-131 0 -236 -105.5t-105 -249.5z" />
    <glyph glyph-name="uni042F" unicode="&#x42f;" horiz-adv-x="614" 
d="M-27 0l221 276l26 31l1 2q-51 17 -80.5 57.5t-29.5 97.5q0 68 33 125.5t94 86.5q52 27 142 27h213l-137 -703h-70l59 296h-153l-236 -296h-83zM297 357h160l55 284h-132q-69 0 -101 -16q-44 -20 -70.5 -62.5t-26.5 -94.5q0 -51 30.5 -81t84.5 -30z" />
    <glyph glyph-name="uni0430" unicode="&#x430;" horiz-adv-x="516" 
d="M4 115q0 57 32 98t86 61t107.5 28t112.5 8h33q5 27 5 54q0 90 -102 90q-81 0 -152 -48l-21 57q31 21 80.5 36.5t98.5 15.5q77 0 121.5 -35t44.5 -107q0 -26 -6 -56l-61 -317h-66l12 58l11 43h-2q-22 -41 -71 -77t-113 -36q-63 0 -106.5 34.5t-43.5 92.5zM73 124
q0 -34 24.5 -56.5t72.5 -22.5q66 0 120.5 59.5t70.5 131.5l4 20h-29q-263 0 -263 -132z" />
    <glyph glyph-name="uni0431" unicode="&#x431;" horiz-adv-x="575" 
d="M46 210q0 72 21.5 149.5t63.5 135.5q62 91 199 146l204 87l16 -57l-213 -89q-92 -40 -136.5 -92.5t-67.5 -135.5h2q78 102 196 102q84 0 134 -49t50 -134q0 -113 -77.5 -199t-199.5 -86q-97 0 -144.5 58.5t-47.5 163.5zM115 183q0 -64 36 -99.5t95 -35.5q83 0 141 65
t58 150q0 64 -36 99.5t-92 35.5q-79 0 -140.5 -63.5t-61.5 -151.5z" />
    <glyph glyph-name="uni0432" unicode="&#x432;" horiz-adv-x="503" 
d="M24 0l98 503h176q70 0 109.5 -27.5t39.5 -78.5q0 -45 -26 -81.5t-74 -52.5v-1q38 -10 59.5 -37.5t21.5 -65.5q0 -73 -61 -116t-142 -43h-201zM147 285h107q50 0 86.5 28t36.5 77q0 61 -94 61h-103zM102 53h114q56 0 99 27.5t43 80.5q0 72 -107 72h-114z" />
    <glyph glyph-name="uni0433" unicode="&#x433;" horiz-adv-x="406" 
d="M24 0l98 503h299l-11 -59h-231l-87 -444h-68z" />
    <glyph glyph-name="uni0434" unicode="&#x434;" horiz-adv-x="578" 
d="M102 58h257l75 387h-176l-6 -30q-48 -242 -150 -357zM-68 -120l35 178h56q115 114 164 360l16 85h311l-87 -445h71l-35 -178h-64l24 120h-402l-23 -120h-66z" />
    <glyph glyph-name="uni0435" unicode="&#x435;" horiz-adv-x="551" 
d="M35 200q0 126 84 220.5t208 94.5q91 0 137 -49.5t46 -132.5q0 -39 -14 -84h-386q-5 -27 -5 -45q0 -66 42.5 -110t118.5 -44q87 0 165 60l21 -56q-32 -27 -84 -46.5t-104 -19.5q-103 0 -166 58.5t-63 153.5zM123 303h315q3 15 3 36q0 59 -31.5 89.5t-82.5 30.5
q-65 0 -121.5 -41t-82.5 -115z" />
    <glyph glyph-name="uni0436" unicode="&#x436;" horiz-adv-x="717" 
d="M-35 0l218 263v2l-107 238h70l97 -216h81l42 216h66l-42 -216h79l174 216h80l-203 -250v-2l120 -251h-74l-107 227h-81l-44 -227h-66l44 227h-81l-186 -227h-80z" />
    <glyph glyph-name="uni0437" unicode="&#x437;" horiz-adv-x="438" 
d="M-15 59l38 47q19 -22 54.5 -41t77.5 -19q54 0 95.5 31.5t41.5 85.5q0 70 -102 70h-65l10 54h58q52 0 90 26.5t38 76.5q0 67 -93 67q-68 0 -127 -45l-26 48q71 55 166 55q68 0 109 -30.5t41 -86.5q0 -47 -26 -82.5t-73 -51.5v-2q71 -24 71 -101t-59.5 -125t-142.5 -48
q-107 0 -176 71z" />
    <glyph glyph-name="uni0438" unicode="&#x438;" horiz-adv-x="591" 
d="M24 0l98 503h65l-64 -328l-16 -73h2q37 46 65 76l311 325h65l-98 -503h-65l63 329l17 71h-2q-37 -45 -65 -74l-311 -326h-65z" />
    <glyph glyph-name="uni0439" unicode="&#x439;" horiz-adv-x="591" 
d="M359 568q-50 0 -84.5 27t-34.5 70q0 15 6 38h58q-4 -15 -4 -29q0 -26 17.5 -40.5t44.5 -14.5q33 0 58.5 20.5t31.5 63.5h58q-10 -72 -52.5 -103.5t-98.5 -31.5zM24 0l98 503h65l-64 -328l-16 -73h2q37 46 65 76l311 325h65l-98 -503h-65l63 329l17 71h-2q-37 -45 -65 -74
l-311 -326h-65z" />
    <glyph glyph-name="uni043A" unicode="&#x43a;" horiz-adv-x="493" 
d="M24 0l98 503h68l-42 -213h79l190 213h84l-223 -248v-2l145 -253h-79l-126 230h-81l-45 -230h-68z" />
    <glyph glyph-name="uni043B" unicode="&#x43b;" horiz-adv-x="528" 
d="M-38 -4l11 61q124 22 177 294l29 152h308l-97 -503h-68l86 444h-174l-18 -93q-35 -179 -96 -264.5t-158 -90.5z" />
    <glyph glyph-name="uni043C" unicode="&#x43c;" horiz-adv-x="717" 
d="M5 0l139 503h69l92 -310l17 -71h2q22 39 44 71l212 310h74l-57 -503h-66l38 325l16 87h-2q-16 -32 -45 -73l-194 -281h-62l-85 279q-6 17 -10.5 36t-6.5 29l-1 10h-2q-11 -60 -18 -87l-88 -325h-66z" />
    <glyph glyph-name="uni043D" unicode="&#x43d;" horiz-adv-x="592" 
d="M24 0l98 503h68l-42 -215h294l41 215h69l-98 -503h-68l44 228h-294l-44 -228h-68z" />
    <glyph glyph-name="uni043E" unicode="&#x43e;" horiz-adv-x="624" 
d="M34 208q0 126 94 216.5t215 90.5q102 0 166 -60.5t64 -156.5q0 -127 -95 -218.5t-214 -91.5q-102 0 -166 61.5t-64 158.5zM104 210q0 -71 45 -115.5t116 -44.5q91 0 164.5 72t73.5 173q0 70 -45 114.5t-116 44.5q-92 0 -165 -72t-73 -172z" />
    <glyph glyph-name="uni043F" unicode="&#x43f;" horiz-adv-x="583" 
d="M24 0l98 503h420l-97 -503h-69l87 443h-284l-87 -443h-68z" />
    <glyph glyph-name="uni0440" unicode="&#x440;" horiz-adv-x="589" 
d="M100 41l-47 -241h-68l137 703h64l-9 -49l-11 -43h2q28 45 75.5 74.5t108.5 29.5q88 0 137 -54t49 -148q0 -139 -82 -232t-190 -93q-57 0 -99 25.5t-59 75.5h-2q-1 -22 -6 -48zM134 194q0 -63 32 -104t94 -41q79 0 143.5 72t64.5 187q0 68 -34 106.5t-93 38.5
q-88 0 -147.5 -80.5t-59.5 -178.5z" />
    <glyph glyph-name="uni0441" unicode="&#x441;" horiz-adv-x="543" 
d="M34 202q0 133 93.5 223t215.5 90q53 0 102 -18t80 -54l-41 -46q-23 26 -61 41.5t-77 15.5q-94 0 -168 -71.5t-74 -175.5q0 -71 45.5 -114t118.5 -43q98 0 175 69l22 -56q-37 -34 -91 -54.5t-109 -20.5q-103 0 -167 59t-64 155z" />
    <glyph glyph-name="uni0442" unicode="&#x442;" horiz-adv-x="478" 
d="M147 0l86 443h-183l11 60h435l-11 -60h-184l-86 -443h-68z" />
    <glyph glyph-name="uni0443" unicode="&#x443;" horiz-adv-x="527" 
d="M-38 -129q22 -20 56 -20q61 0 112 81l45 73l-113 498h71l78 -376l8 -53h1q14 28 28 52l218 377h77l-368 -610q-61 -103 -155 -103q-50 0 -93 30z" />
    <glyph glyph-name="uni0444" unicode="&#x444;" horiz-adv-x="706" 
d="M36 211q0 124 92.5 209.5t234.5 93.5l36 186h66l-36 -186q101 -5 163.5 -64t62.5 -156q0 -122 -93 -210.5t-235 -94.5l-37 -189h-66l37 189q-101 5 -163 65t-62 157zM339 49q99 3 172.5 74t73.5 171q0 72 -43.5 113.5t-124.5 46.5zM105 212q0 -74 44 -116t124 -47l78 405
q-101 -5 -173.5 -74t-72.5 -168z" />
    <glyph glyph-name="uni0445" unicode="&#x445;" horiz-adv-x="478" 
d="M-37 0l229 264l-120 239h75l79 -165l13 -30h1q10 14 20 27l142 168h82l-211 -245l131 -258h-73l-92 185l-12 30h-2q-9 -15 -21 -28l-160 -187h-81z" />
    <glyph glyph-name="uni0446" unicode="&#x446;" horiz-adv-x="601" 
d="M24 0l98 503h68l-86 -443h278l86 443h68l-86 -443h70l-35 -180h-64l24 120h-421z" />
    <glyph glyph-name="uni0447" unicode="&#x447;" horiz-adv-x="500" 
d="M194 184q-73 0 -108.5 31.5t-35.5 85.5q0 22 4 42l31 160h68l-29 -149q-5 -32 -5 -37q0 -72 88 -72q81 0 142 42l42 216h69l-98 -503h-68l37 190l8 32h-2q-29 -16 -71 -27t-72 -11z" />
    <glyph glyph-name="uni0448" unicode="&#x448;" horiz-adv-x="792" 
d="M24 0l98 503h66l-87 -443h216l86 443h66l-86 -443h215l87 443h66l-98 -503h-629z" />
    <glyph glyph-name="uni0449" unicode="&#x449;" horiz-adv-x="815" 
d="M24 0l98 503h66l-87 -443h216l86 443h66l-86 -443h215l87 443h66l-87 -443h71l-35 -180h-64l23 120h-635z" />
    <glyph glyph-name="uni044A" unicode="&#x44a;" horiz-adv-x="532" 
d="M89 0l87 444h-139l11 59h207l-38 -192h105q68 0 111 -30.5t43 -98.5q0 -80 -56 -131t-149 -51h-182zM167 54h101q60 0 98.5 33.5t38.5 89.5q0 80 -96 80h-102z" />
    <glyph glyph-name="uni044B" unicode="&#x44b;" horiz-adv-x="668" 
d="M461 0l98 503h68l-98 -503h-68zM24 0l98 503h68l-38 -192h104q68 0 111 -30.5t43 -98.5q0 -80 -56 -131t-149 -51h-181zM102 54h100q60 0 98.5 33.5t38.5 89.5q0 80 -96 80h-101z" />
    <glyph glyph-name="uni044C" unicode="&#x44c;" horiz-adv-x="467" 
d="M24 0l98 503h68l-38 -192h104q69 0 112 -30.5t43 -98.5q0 -80 -56 -131t-149 -51h-182zM102 54h101q60 0 98.5 33.5t38.5 89.5q0 80 -96 80h-102z" />
    <glyph glyph-name="uni044D" unicode="&#x44d;" horiz-adv-x="540" 
d="M151 224l10 54h260q0 4 0.5 11t0.5 10q0 75 -46.5 116t-116.5 41q-88 0 -158 -61l-32 48q36 33 89 52.5t107 19.5q100 0 162 -60.5t62 -158.5q0 -121 -91 -214.5t-223 -93.5q-53 0 -103 20t-79 57l33 50q23 -31 64 -49.5t88 -18.5q81 0 144.5 50t87.5 127h-259z" />
    <glyph glyph-name="uni044E" unicode="&#x44e;" horiz-adv-x="807" 
d="M24 0l98 503h68l-44 -222h99q25 101 109 167.5t183 66.5q96 0 157.5 -61t61.5 -158q0 -126 -91.5 -217t-208.5 -91q-97 0 -158.5 61.5t-61.5 159.5v13h-100l-44 -222h-68zM306 211q0 -72 42 -116.5t109 -44.5q88 0 158.5 72t70.5 172q0 71 -42.5 115.5t-109.5 44.5
q-89 0 -158.5 -72t-69.5 -171z" />
    <glyph glyph-name="uni044F" unicode="&#x44f;" horiz-adv-x="498" 
d="M-24 0l151 174l27 30v2q-36 9 -61 42t-25 81q0 78 53 126t141 48h195l-98 -503h-68l37 193h-105l-165 -193h-82zM139 329q0 -83 90 -83h110l40 205h-107q-60 0 -96.5 -31.5t-36.5 -90.5z" />
    <glyph glyph-name="uni0450" unicode="&#x450;" horiz-adv-x="551" 
d="M35 200q0 126 84 220.5t208 94.5q91 0 137 -49.5t46 -132.5q0 -39 -14 -84h-386q-5 -27 -5 -45q0 -66 42.5 -110t118.5 -44q87 0 165 60l21 -56q-32 -27 -84 -46.5t-104 -19.5q-103 0 -166 58.5t-63 153.5zM123 303h315q3 15 3 36q0 59 -31.5 89.5t-82.5 30.5
q-65 0 -121.5 -41t-82.5 -115zM335 585l-63 119h74l47 -119h-58z" />
    <glyph glyph-name="uni0451" unicode="&#x451;" horiz-adv-x="551" 
d="M397 618l17 86h62l-17 -86h-62zM246 618l16 86h62l-16 -86h-62zM35 200q0 126 84 220.5t208 94.5q91 0 137 -49.5t46 -132.5q0 -39 -14 -84h-386q-5 -27 -5 -45q0 -66 42.5 -110t118.5 -44q87 0 165 60l21 -56q-32 -27 -84 -46.5t-104 -19.5q-103 0 -166 58.5t-63 153.5z
M123 303h315q3 15 3 36q0 59 -31.5 89.5t-82.5 30.5q-65 0 -121.5 -41t-82.5 -115z" />
    <glyph glyph-name="uni0452" unicode="&#x452;" horiz-adv-x="594" 
d="M70 565l10 54h64l17 84h68l-17 -84h224l-11 -54h-223l-36 -187l-13 -45h2q25 46 85.5 87.5t135.5 41.5q69 0 106 -33t37 -97q0 -29 -8 -67l-54 -285q-11 -59 -37 -100t-59 -59t-59.5 -24.5t-52.5 -6.5l-34 3l13 60q10 -2 24 -2q112 0 138 134l50 262q8 38 8 67
q0 84 -86 84q-83 0 -150.5 -64.5t-84.5 -154.5l-35 -179h-68l110 565h-64z" />
    <glyph glyph-name="uni0453" unicode="&#x453;" horiz-adv-x="406" 
d="M235 585l93 119h84l-111 -119h-66zM24 0l98 503h299l-11 -59h-231l-87 -444h-68z" />
    <glyph glyph-name="uni0454" unicode="&#x454;" horiz-adv-x="542" 
d="M33 206q0 121 93 215t223 94q116 0 174 -71l-38 -48q-23 28 -61.5 43.5t-80.5 15.5q-78 0 -142.5 -49t-89.5 -123h262l-10 -54h-263q-1 -7 -1 -22q0 -77 47.5 -118.5t120.5 -41.5q97 0 174 70l26 -53q-37 -33 -95 -54.5t-114 -21.5q-101 0 -163 60t-62 158z" />
    <glyph glyph-name="uni0455" unicode="&#x455;" horiz-adv-x="438" 
d="M-4 60l38 48q23 -27 61.5 -43t79.5 -16q50 0 85.5 22.5t35.5 63.5q0 29 -23.5 50t-56.5 35t-66 30t-56.5 46t-23.5 73q0 68 56 107t134 39q96 0 152 -56l-36 -48q-43 43 -118 43q-49 0 -85 -21t-36 -63q0 -29 23.5 -50t56.5 -35t66 -29.5t56.5 -45.5t23.5 -73
q0 -66 -53.5 -107.5t-134.5 -41.5q-113 0 -179 72z" />
    <glyph glyph-name="uni0456" unicode="&#x456;" horiz-adv-x="230" 
d="M142 618l17 85h73l-17 -85h-73zM24 0l98 503h69l-99 -503h-68z" />
    <glyph glyph-name="uni0457" unicode="&#x457;" horiz-adv-x="230" 
d="M223 618l17 86h62l-17 -86h-62zM72 618l16 86h62l-16 -86h-62zM24 0l98 503h68l-98 -503h-68z" />
    <glyph glyph-name="uni0458" unicode="&#x458;" horiz-adv-x="231" 
d="M141 618l16 85h74l-17 -85h-73zM21 -16l101 519h68l-101 -521q-12 -59 -37 -99.5t-56.5 -58t-56.5 -24t-50 -6.5q-21 0 -41 3l12 60q8 -2 22 -2q18 0 35.5 4.5t39.5 16.5t39 40t25 68z" />
    <glyph glyph-name="uni0459" unicode="&#x459;" horiz-adv-x="728" 
d="M-27 -4l11 61q127 22 177 292l30 154h260l-38 -195h103q155 0 155 -130q0 -82 -58 -130t-148 -48h-179l86 444h-127l-18 -94q-35 -181 -95.5 -265t-158.5 -89zM363 54h102q58 0 97.5 31t39.5 88q0 81 -96 81h-103z" />
    <glyph glyph-name="uni045A" unicode="&#x45a;" horiz-adv-x="796" 
d="M24 0l98 503h68l-39 -200h263l39 200h68l-39 -200h98q69 0 114.5 -30t45.5 -94q0 -81 -56.5 -130t-148.5 -49h-180l47 245h-263l-47 -245h-68zM433 54h102q60 0 98 31.5t38 90.5q0 73 -102 73h-98z" />
    <glyph glyph-name="uni045B" unicode="&#x45b;" horiz-adv-x="594" 
d="M70 565l10 54h64l17 84h68l-17 -84h224l-11 -54h-223l-36 -187l-12 -45h2q24 46 84.5 87.5t135.5 41.5q69 0 106 -33t37 -97q0 -23 -7 -67l-51 -265h-68l47 248q8 37 8 67q0 83 -86 83q-83 0 -150.5 -64t-85.5 -154l-34 -180h-68l110 565h-64z" />
    <glyph glyph-name="uni045C" unicode="&#x45c;" horiz-adv-x="493" 
d="M267 585l93 119h84l-111 -119h-66zM24 0l98 503h68l-42 -213h79l190 213h84l-223 -248v-2l145 -253h-79l-126 230h-81l-45 -230h-68z" />
    <glyph glyph-name="uni045D" unicode="&#x45d;" horiz-adv-x="591" 
d="M24 0l98 503h65l-64 -328l-16 -73h2q37 46 65 76l311 325h65l-98 -503h-65l63 329l17 71h-2q-37 -45 -65 -74l-311 -326h-65zM348 585l-63 119h74l47 -119h-58z" />
    <glyph glyph-name="uni045E" unicode="&#x45e;" horiz-adv-x="527" 
d="M-38 -129q22 -20 56 -20q61 0 112 81l45 73l-113 498h71l78 -376l8 -53h1q14 28 28 52l218 377h77l-368 -610q-61 -103 -155 -103q-50 0 -93 30zM324 569q-50 0 -84.5 27t-34.5 70q0 15 6 38h58q-4 -15 -4 -29q0 -26 17.5 -40.5t44.5 -14.5q33 0 58.5 20.5t31.5 63.5h58
q-10 -72 -52.5 -103.5t-98.5 -31.5z" />
    <glyph glyph-name="uni045F" unicode="&#x45f;" horiz-adv-x="562" 
d="M24 0l98 503h68l-86 -443h262l87 443h68l-98 -503h-167l-24 -120h-64l24 120h-168z" />
    <glyph glyph-name="uni0462" unicode="&#x462;" horiz-adv-x="673" 
d="M137 0l105 540h-184l12 58h184l23 112h68l-22 -112h203l-12 -58h-203l-24 -129h156q82 0 133 -45t51 -123q0 -97 -73 -170t-178 -73h-239zM219 62h153q76 0 129.5 51t53.5 127q0 52 -35 80.5t-92 28.5h-154z" />
    <glyph glyph-name="uni0463" unicode="&#x463;" horiz-adv-x="503" 
d="M58 0l90 461h-122l11 54h121l37 188h68l-36 -188h168l-11 -54h-169l-28 -150h105q68 0 111 -30.5t43 -99.5q0 -79 -56 -130t-149 -51h-183zM137 54h102q60 0 98 34t38 90q0 79 -96 79h-103z" />
    <glyph glyph-name="uni0472" unicode="&#x472;" horiz-adv-x="825" 
d="M60 292q0 111 60.5 209.5t158 156t203.5 57.5q136 0 221 -83t85 -213q0 -113 -61 -213.5t-158.5 -159t-202.5 -58.5q-136 0 -221 85t-85 219zM131 294q0 -107 65.5 -174.5t169.5 -67.5q111 0 208.5 78.5t129.5 195.5h-571q-2 -22 -2 -32zM482 651q-113 0 -210 -76
t-129 -190h572q2 20 2 31q0 104 -65.5 169.5t-169.5 65.5z" />
    <glyph glyph-name="uni0473" unicode="&#x473;" horiz-adv-x="624" 
d="M34 209q0 126 94.5 216t216.5 90q100 0 164 -61t64 -158q0 -126 -94.5 -217t-215.5 -91q-101 0 -165 61.5t-64 159.5zM100 211q0 -74 46 -119.5t118 -45.5q76 0 143.5 52t90.5 131h-398v-18zM343 458q-77 0 -143.5 -50.5t-89.5 -128.5h396q1 5 1 15q0 73 -45.5 118.5
t-118.5 45.5z" />
    <glyph glyph-name="uni0474" unicode="&#x474;" horiz-adv-x="682" 
d="M219 0l-123 703h72l89 -534l9 -90h2q26 54 45 90l239 446q33 60 58.5 74t92.5 14h46l-12 -63h-22h-10q-26 0 -38 -2t-26.5 -15.5t-30.5 -42.5l-317 -580h-74z" />
    <glyph glyph-name="uni0475" unicode="&#x475;" horiz-adv-x="547" 
d="M159 0l-96 503h68l68 -369l5 -61h2q16 36 30 61l150 280q28 51 56.5 70t85.5 19h40l-12 -62h-22q-35 0 -52.5 -11t-38.5 -47l-210 -383h-74z" />
    <glyph glyph-name="uni048A" unicode="&#x48a;" horiz-adv-x="782" 
d="M43 0l137 703h70l-98 -503l-24 -93h2q49 62 80 97l453 499h67l-126 -641h100l-9 -45l-97 -157h-59l75 140h-91l98 503l23 93h-2q-46 -60 -77 -95l-455 -501h-67zM461 736q-50 0 -84.5 27t-34.5 70q0 15 6 38h58q-4 -15 -4 -29q0 -26 17.5 -40.5t44.5 -14.5
q33 0 58.5 20.5t31.5 63.5h58q-10 -72 -52.5 -103.5t-98.5 -31.5z" />
    <glyph glyph-name="uni048B" unicode="&#x48b;" horiz-adv-x="619" 
d="M24 0l98 503h65l-64 -328l-16 -73h2q37 46 65 76l311 325h65l-87 -444h82l-8 -43l-82 -136h-55l63 120h-76l63 329l17 71h-2q-37 -45 -65 -74l-311 -326h-65zM351 569q-50 0 -84.5 27t-34.5 70q0 15 6 38h58q-4 -15 -4 -29q0 -26 17.5 -40.5t44.5 -14.5q33 0 58.5 20.5
t31.5 63.5h58q-10 -72 -52.5 -103.5t-98.5 -31.5z" />
    <glyph glyph-name="uni048C" unicode="&#x48c;" horiz-adv-x="657" 
d="M115 0l112 578h-163l10 58h164l22 114h69l-22 -114h177l-11 -58h-177l-32 -159h166q81 0 131.5 -47.5t50.5 -126.5q0 -98 -72.5 -171.5t-177.5 -73.5h-247zM195 62h162q74 0 128.5 52.5t54.5 126.5q0 56 -34 86t-92 30h-162z" />
    <glyph glyph-name="uni048D" unicode="&#x48d;" horiz-adv-x="514" 
d="M68 0l90 461h-122l11 54h121l37 188h68l-36 -188h168l-11 -54h-169l-28 -150h105q68 0 111 -30.5t43 -99.5q0 -79 -56 -130t-149 -51h-183zM147 54h102q60 0 98 34t38 90q0 79 -96 79h-103z" />
    <glyph glyph-name="uni048E" unicode="&#x48e;" horiz-adv-x="620" 
d="M43 0l137 703h230q69 0 111 -24q83 -45 83 -148q0 -129 -98 -204l56 -78l-43 -32l-60 82l-6 -3q-49 -20 -102 -20h-185l-54 -276h-69zM358 439l43 33l69 -96q66 56 66 152q0 54 -34 83.5t-96 29.5h-169l-59 -307h169q45 0 77 14z" />
    <glyph glyph-name="uni048F" unicode="&#x48f;" horiz-adv-x="604" 
d="M100 41l-47 -241h-68l137 703h64l-9 -49l-11 -43h2q29 46 76 75t108 29q88 0 137 -54t49 -148q0 -154 -101 -252l54 -66l-42 -36l-55 68q-59 -39 -128 -39q-57 0 -99 25.5t-59 75.5h-2q-1 -22 -6 -48zM292 155l42 36l64 -81q74 74 74 196q0 68 -34 107.5t-95 39.5
q-91 0 -150 -80.5t-59 -178.5q0 -64 32.5 -105.5t94.5 -41.5q47 0 94 28z" />
    <glyph glyph-name="uni0490" unicode="&#x490;" horiz-adv-x="492" 
d="M44 0l136 703h313l16 88h62l-29 -150h-305l-124 -641h-69z" />
    <glyph glyph-name="uni0491" unicode="&#x491;" horiz-adv-x="401" 
d="M24 0l98 503h237l15 80h58l-26 -139h-227l-87 -444h-68z" />
    <glyph glyph-name="uni0492" unicode="&#x492;" horiz-adv-x="502" 
d="M50 0l62 319h-63l11 55h63l65 329h369l-12 -62h-301l-51 -267h161l-11 -55h-162l-62 -319h-69z" />
    <glyph glyph-name="uni0493" unicode="&#x493;" horiz-adv-x="413" 
d="M26 0l43 220h-63l10 54h63l45 229h300l-11 -59h-232l-34 -170h133l-10 -54h-133l-43 -220h-68z" />
    <glyph glyph-name="uni0494" unicode="&#x494;" horiz-adv-x="596" 
d="M44 0l136 703h370l-12 -62h-301l-50 -257q73 35 155 35q187 0 187 -203q0 -66 -19 -133t-55 -126.5t-98.5 -96t-139.5 -34.5l11 61q57 1 103 33t72 82t39.5 104.5t13.5 106.5q0 68 -29 105.5t-105 37.5q-71 0 -147 -37l-62 -319h-69z" />
    <glyph glyph-name="uni0495" unicode="&#x495;" horiz-adv-x="486" 
d="M24 0l98 503h302l-11 -58h-235l-36 -190q58 29 121 29q77 0 113.5 -44.5t36.5 -118.5q0 -95 -53.5 -186t-144.5 -141l-32 51q74 39 118.5 119t44.5 155q0 105 -102 105q-51 0 -115 -32l-37 -192h-68z" />
    <glyph glyph-name="uni0496" unicode="&#x496;" horiz-adv-x="911" 
d="M-35 0l294 372v2l-147 329h75l133 -305h99l60 305h69l-60 -305h94l244 305h86l-273 -335v-2l124 -304h92l-39 -202h-64l27 140h-66l-135 336h-102l-66 -336h-69l66 336h-94l-265 -336h-83z" />
    <glyph glyph-name="uni0497" unicode="&#x497;" horiz-adv-x="759" 
d="M-35 0l218 263v2l-107 238h70l97 -216h81l42 216h66l-42 -216h79l174 216h80l-203 -250v-2l91 -191h85l-35 -180h-63l23 120h-55l-107 227h-81l-44 -227h-66l44 227h-81l-186 -227h-80z" />
    <glyph glyph-name="uni0498" unicode="&#x498;" horiz-adv-x="535" 
d="M-7 80l43 47q55 -75 157 -75q82 0 140 47.5t58 120.5q0 55 -35.5 83t-94.5 28h-92l12 60h74q66 0 119.5 43.5t53.5 108.5q0 47 -31 77.5t-92 30.5q-84 0 -161 -57l-29 52q93 69 192 69q92 0 143 -43t51 -119q0 -68 -39 -116t-102 -70v-2q103 -33 103 -143
q0 -91 -65.5 -155t-159.5 -76l-26 -131h-64l24 130q-121 11 -179 90z" />
    <glyph glyph-name="uni0499" unicode="&#x499;" horiz-adv-x="440" 
d="M-15 59l38 47q19 -22 54.5 -41t77.5 -19q54 0 95.5 31.5t41.5 85.5q0 70 -102 70h-65l10 54h58q52 0 90 26.5t38 76.5q0 67 -93 67q-68 0 -127 -45l-26 48q71 55 166 55q68 0 109 -30.5t41 -86.5q0 -47 -26 -82.5t-73 -51.5v-2q71 -24 71 -101q0 -71 -51 -118t-127 -54
l-21 -109h-63l21 111q-83 12 -137 68z" />
    <glyph glyph-name="uni049A" unicode="&#x49a;" horiz-adv-x="633" 
d="M43 0l137 703h70l-60 -305h114l253 305h82l-279 -335v-2l127 -304h89l-39 -202h-64l27 140h-62l-137 336h-123l-66 -336h-69z" />
    <glyph glyph-name="uni049B" unicode="&#x49b;" horiz-adv-x="528" 
d="M24 0l98 503h68l-42 -213h79l190 213h84l-223 -248v-2l110 -193h78l-35 -180h-64l23 120h-46l-126 230h-81l-45 -230h-68z" />
    <glyph glyph-name="uni049C" unicode="&#x49c;" horiz-adv-x="661" 
d="M43 0l137 703h70l-60 -305h79l24 125h57l-24 -125h55l241 305h86l-277 -344v-2l154 -357h-74l-143 336h-55l-24 -125h-56l24 125h-79l-66 -336h-69z" />
    <glyph glyph-name="uni049D" unicode="&#x49d;" horiz-adv-x="561" 
d="M24 0l98 503h68l-42 -213h62l21 106h54l-21 -106h33l187 213h85l-222 -247v-2l144 -254h-78l-126 230h-34l-21 -108h-54l21 108h-62l-45 -230h-68z" />
    <glyph glyph-name="uni049E" unicode="&#x49e;" horiz-adv-x="596" 
d="M55 529l9 55h97l24 119h70l-24 -119h104l-10 -55h-104l-26 -131h114l253 305h82l-279 -335v-2l153 -366h-75l-137 336h-123l-66 -336h-69l103 529h-96z" />
    <glyph glyph-name="uni049F" unicode="&#x49f;" horiz-adv-x="495" 
d="M63 529l11 53h64l24 121h68l-24 -121h125l-11 -53h-124l-43 -218h77l189 192h86l-219 -221v-2l136 -280h-74l-120 251h-86l-50 -251h-68l104 529h-65z" />
    <glyph glyph-name="uni04A0" unicode="&#x4a0;" horiz-adv-x="728" 
d="M179 0l126 641h-222l12 62h291l-60 -305h118l246 305h86l-279 -339v-2l153 -362h-75l-140 336h-121l-65 -336h-70z" />
    <glyph glyph-name="uni04A1" unicode="&#x4a1;" horiz-adv-x="558" 
d="M89 0l87 444h-139l11 59h207l-42 -213h79l189 213h85l-222 -248v-2l144 -253h-79l-127 230h-80l-45 -230h-68z" />
    <glyph glyph-name="uni04A2" unicode="&#x4a2;" horiz-adv-x="773" 
d="M44 0l136 703h70l-63 -320h408l62 320h69l-124 -641h91l-39 -202h-65l28 140h-97l62 321h-407l-62 -321h-69z" />
    <glyph glyph-name="uni04A3" unicode="&#x4a3;" horiz-adv-x="616" 
d="M24 0l98 503h68l-43 -215h294l42 215h69l-87 -443h80l-35 -180h-64l23 120h-83l44 228h-294l-44 -228h-68z" />
    <glyph glyph-name="uni04A4" unicode="&#x4a4;" horiz-adv-x="925" 
d="M43 0l137 703h70l-63 -320h367l63 320h370l-13 -62h-300l-125 -641h-69l62 321h-367l-63 -321h-69z" />
    <glyph glyph-name="uni04A5" unicode="&#x4a5;" horiz-adv-x="718" 
d="M24 0l98 503h68l-42 -215h262l41 215h283l-12 -59h-214l-86 -444h-68l44 228h-262l-44 -228h-68z" />
    <glyph glyph-name="uni04A6" unicode="&#x4a6;" horiz-adv-x="992" 
d="M44 0l136 703h473l-61 -309q72 35 154 35q186 0 186 -207q0 -67 -19 -135t-55 -128t-98.5 -97t-139.5 -36l11 61q58 1 103.5 33.5t71.5 83.5t39.5 106t13.5 108q0 71 -29 109.5t-104 38.5q-64 0 -147 -37l-63 -329h-69l124 642h-333l-125 -642h-69z" />
    <glyph glyph-name="uni04A7" unicode="&#x4a7;" horiz-adv-x="796" 
d="M24 0l98 503h367l-43 -224q64 30 126 30q79 0 116.5 -48t37.5 -129q0 -103 -56.5 -195.5t-149.5 -142.5l-25 52q72 42 117 119.5t45 163.5q0 118 -107 118q-59 0 -117 -33l-41 -214h-68l85 443h-231l-86 -443h-68z" />
    <glyph glyph-name="uni04A8" unicode="&#x4a8;" horiz-adv-x="921" 
d="M63 290q0 88 30.5 164t80 126.5t102 83t107.5 49.5l25 -62q-48 -14 -93.5 -42.5t-87.5 -71.5t-67.5 -107.5t-25.5 -138.5q0 -102 63.5 -170t176.5 -68q54 0 116 19q-123 91 -123 260q0 155 97.5 263t220.5 108q93 0 148.5 -60t55.5 -164q0 -122 -70.5 -230t-181.5 -178
q46 -11 95 -11h72l-11 -60h-67q-93 0 -164 31q-97 -43 -190 -43q-140 0 -224.5 84t-84.5 218zM438 332q0 -76 31.5 -136t92.5 -95q110 55 182.5 156.5t72.5 219.5q0 77 -38.5 119t-97.5 42q-88 0 -165.5 -85t-77.5 -221z" />
    <glyph glyph-name="uni04A9" unicode="&#x4a9;" horiz-adv-x="784" 
d="M39 236q0 101 65 175.5t157 102.5l20 -59q-70 -22 -122.5 -78.5t-52.5 -140.5q0 -82 54 -135.5t140 -53.5q58 0 121 20q-113 80 -113 221q0 93 67 160t165 67q85 0 133 -53.5t48 -130.5q0 -79 -44.5 -147.5t-118.5 -116.5q40 -10 90 -10h54l-11 -57h-51q-80 0 -152 30
q-96 -42 -192 -42q-114 0 -185.5 70t-71.5 178zM375 289q0 -132 113 -195q74 38 120 99t46 137q0 51 -30 89t-92 38t-109.5 -47t-47.5 -121z" />
    <glyph glyph-name="uni04AA" unicode="&#x4aa;" horiz-adv-x="719" 
d="M61 290q0 114 59 212.5t155.5 155.5t203.5 57q70 0 137.5 -22.5t109.5 -68.5l-44 -49q-77 75 -202 75q-140 0 -243.5 -106.5t-103.5 -251.5q0 -105 63.5 -172t169.5 -67q65 0 130 25t116 68l34 -54q-46 -43 -119 -71t-145 -32l-25 -129h-64l25 131q-120 13 -188.5 95
t-68.5 204z" />
    <glyph glyph-name="uni04AB" unicode="&#x4ab;" horiz-adv-x="544" 
d="M35 202q0 133 93.5 223t215.5 90q53 0 102 -18t80 -54l-41 -46q-23 26 -61 41.5t-77 15.5q-94 0 -168 -71.5t-74 -175.5q0 -71 45.5 -114t118.5 -43q98 0 175 69l22 -56q-36 -33 -87.5 -53.5t-104.5 -21.5l-20 -108h-64l22 113q-81 14 -129 70t-48 139z" />
    <glyph glyph-name="uni04AC" unicode="&#x4ac;" horiz-adv-x="602" 
d="M207 0l125 641h-252l12 62h573l-12 -62h-252l-112 -579h91l-39 -202h-64l27 140h-97z" />
    <glyph glyph-name="uni04AD" unicode="&#x4ad;" horiz-adv-x="482" 
d="M147 0l86 443h-183l12 60h435l-12 -60h-184l-74 -383h79l-35 -180h-64l24 120h-84z" />
    <glyph glyph-name="uni04AE" unicode="&#x4ae;" horiz-adv-x="563" 
d="M189 0l59 302l-158 401h75l98 -255l28 -84h2q31 45 59 83l197 256h84l-316 -403l-59 -300h-69z" />
    <glyph glyph-name="uni04AF" unicode="&#x4af;" horiz-adv-x="507" 
d="M169 31l-106 472h68l74 -338l7 -58h2q14 31 31 58l205 338h75l-289 -472l-46 -231h-66z" />
    <glyph glyph-name="uni04B0" unicode="&#x4b0;" horiz-adv-x="562" 
d="M112 250l11 55h125l-159 398h75l99 -255l27 -84h2q30 47 59 84l199 255h83l-313 -398h128l-11 -55h-129l-49 -250h-70l49 250h-126z" />
    <glyph glyph-name="uni04B1" unicode="&#x4b1;" horiz-adv-x="506" 
d="M48 0l11 54h106l-100 449h68l73 -338l8 -58h2q14 31 30 58l202 338h76l-274 -449h106l-11 -54h-115l-39 -200h-67l40 200h-116z" />
    <glyph glyph-name="uni04B2" unicode="&#x4b2;" horiz-adv-x="614" 
d="M-38 0l295 371l-139 332h74l84 -206l31 -80h2q25 37 57 79l165 207h84l-274 -340l129 -301h88l-39 -202h-64l27 140h-59l-101 240l-30 77h-2q-21 -33 -55 -75l-193 -242h-80z" />
    <glyph glyph-name="uni04B3" unicode="&#x4b3;" horiz-adv-x="511" 
d="M-37 0l229 264l-120 239h75l79 -165l13 -30h1q10 14 20 27l142 168h82l-211 -245l100 -198h73l-35 -180h-64l24 120h-40l-92 185l-12 30h-2q-9 -15 -21 -28l-160 -187h-81z" />
    <glyph glyph-name="uni04B4" unicode="&#x4b4;" horiz-adv-x="888" 
d="M180 0l125 641h-222l12 62h513l-12 -62h-222l-112 -579h386l125 641h69l-124 -641h88l-40 -202h-64l27 140h-549z" />
    <glyph glyph-name="uni04B5" unicode="&#x4b5;" horiz-adv-x="721" 
d="M137 0l85 443h-172l12 60h412l-12 -60h-172l-74 -383h286l86 443h68l-86 -443h72l-35 -180h-64l24 120h-430z" />
    <glyph glyph-name="uni04B6" unicode="&#x4b6;" horiz-adv-x="641" 
d="M256 277q-86 0 -130 39.5t-44 109.5q0 24 6 53l44 224h70l-42 -213q-5 -22 -5 -48q0 -101 115 -101q101 0 195 59l59 303h70l-125 -641h92l-39 -202h-65l28 140h-98l57 294l8 33h-2q-103 -50 -194 -50z" />
    <glyph glyph-name="uni04B7" unicode="&#x4b7;" horiz-adv-x="524" 
d="M194 184q-73 0 -108.5 31.5t-35.5 85.5q0 22 4 42l31 160h68l-29 -149q-5 -32 -5 -37q0 -72 88 -72q81 0 142 42l42 216h69l-87 -443h86l-35 -180h-64l24 120h-90l37 190l8 32h-2q-29 -16 -71 -27t-72 -11z" />
    <glyph glyph-name="uni04B8" unicode="&#x4b8;" horiz-adv-x="621" 
d="M226 169l21 109q-82 2 -124 41t-42 107q0 24 6 53l44 224h70l-42 -213q-5 -22 -5 -48q0 -48 25 -73t80 -28l28 144h57l-28 -141q81 11 156 56l59 303h70l-138 -703h-70l59 296l8 33h-2q-77 -39 -154 -48l-22 -112h-56z" />
    <glyph glyph-name="uni04B9" unicode="&#x4b9;" horiz-adv-x="512" 
d="M169 104l15 80q-68 4 -101 35.5t-33 84.5q0 18 5 45l30 154h68l-29 -148q-4 -24 -4 -36q0 -68 76 -74l25 125h54l-24 -122q64 9 110 39l42 216h68l-97 -503h-68l37 190l8 32h-2q-49 -25 -110 -35l-16 -83h-54z" />
    <glyph glyph-name="uni04BA" unicode="&#x4ba;" horiz-adv-x="612" 
d="M43 0l137 703h70l-50 -258l-10 -34h2q99 48 197 48q82 0 123.5 -38.5t41.5 -104.5q0 -27 -6 -60l-50 -256h-70l49 247q6 36 6 51q0 97 -113 97q-53 0 -106 -17t-85 -37l-67 -341h-69z" />
    <glyph glyph-name="uni04BB" unicode="&#x4bb;" horiz-adv-x="593" 
d="M24 0l137 703h68l-52 -272l-13 -45h2q25 47 85 88t135 41q70 0 107 -33t37 -97q0 -28 -8 -66l-61 -319h-68l58 301q8 46 8 67q0 41 -23.5 62t-63.5 21q-82 0 -149.5 -64.5t-85.5 -153.5l-45 -233h-68z" />
    <glyph glyph-name="uni04BC" unicode="&#x4bc;" horiz-adv-x="855" 
d="M79 478q0 55 42 153h69q-45 -94 -45 -148q0 -69 68 -69h4q39 129 140 215t234 86q110 0 173 -62.5t63 -175.5q0 -43 -17 -121h-533q-13 -54 -5 -108t30 -97.5t71 -70.5t117 -27q62 0 125.5 22.5t109.5 63.5l33 -56q-42 -38 -114 -66.5t-156 -28.5q-136 0 -213.5 79
t-77.5 212q0 41 7 77h-5q-55 0 -87.5 32t-32.5 90zM291 414h460q6 42 6 63q0 76 -42.5 125.5t-128.5 49.5q-101 0 -182 -67.5t-113 -170.5z" />
    <glyph glyph-name="uni04BD" unicode="&#x4bd;" horiz-adv-x="662" 
d="M50 347q0 53 33 112h62q-36 -55 -36 -106q0 -49 51 -49h1q30 91 105 151t173 60q89 0 135.5 -49.5t46.5 -132.5q0 -35 -15 -84h-385q-5 -19 -5 -44q0 -68 42 -111.5t119 -43.5q87 0 164 60l22 -56q-33 -26 -85 -46t-105 -20q-100 0 -164 57.5t-64 156.5q0 23 3 47
q-98 2 -98 98zM233 303h315q3 15 3 36q0 59 -31.5 89.5t-83.5 30.5q-64 0 -120 -41t-83 -115z" />
    <glyph glyph-name="uni04BE" unicode="&#x4be;" horiz-adv-x="855" 
d="M79 478q0 55 42 153h69q-45 -94 -45 -148q0 -69 68 -69h4q39 129 140 215t234 86q110 0 173 -62.5t63 -175.5q0 -43 -17 -121h-533q-13 -54 -5 -108t30 -97.5t71 -70.5t117 -27q62 0 125.5 22.5t109.5 63.5l33 -56q-41 -38 -113.5 -66t-155.5 -29l-24 -128h-65l26 133
q-109 17 -169 93t-60 193q0 41 7 77h-5q-55 0 -87.5 32t-32.5 90zM291 414h460q6 42 6 63q0 76 -42.5 125.5t-128.5 49.5q-101 0 -182 -67.5t-113 -170.5z" />
    <glyph glyph-name="uni04BF" unicode="&#x4bf;" horiz-adv-x="662" 
d="M50 347q0 53 33 112h62q-36 -55 -36 -106q0 -49 51 -49h1q30 91 105 151t173 60q89 0 135.5 -49.5t46.5 -132.5q0 -35 -15 -84h-385q-5 -19 -5 -44q0 -68 42 -111.5t119 -43.5q87 0 164 60l22 -56q-33 -26 -85 -46t-105 -20h-2l-21 -108h-63l22 115q-75 16 -119.5 70.5
t-44.5 136.5q0 23 3 47q-98 2 -98 98zM233 303h315q3 15 3 36q0 59 -31.5 89.5t-83.5 30.5q-64 0 -120 -41t-83 -115z" />
    <glyph glyph-name="uni04C0" unicode="&#x4c0;" horiz-adv-x="270" 
d="M43 0l137 703h70l-138 -703h-69z" />
    <glyph glyph-name="uni04C1" unicode="&#x4c1;" horiz-adv-x="866" 
d="M-35 0l294 372v2l-147 329h75l133 -305h99l60 305h69l-60 -305h94l244 305h86l-273 -335v-2l149 -366h-75l-135 336h-102l-66 -336h-69l66 336h-94l-265 -336h-83zM525 736q-50 0 -84.5 27t-34.5 70q0 15 6 38h58q-4 -15 -4 -29q0 -26 17.5 -40.5t44.5 -14.5
q33 0 58.5 20.5t31.5 63.5h58q-10 -72 -52.5 -103.5t-98.5 -31.5z" />
    <glyph glyph-name="uni04C2" unicode="&#x4c2;" horiz-adv-x="717" 
d="M-35 0l218 263v2l-107 238h70l97 -216h81l42 216h66l-42 -216h79l174 216h80l-203 -250v-2l120 -251h-74l-107 227h-81l-44 -227h-66l44 227h-81l-186 -227h-80zM417 569q-50 0 -84.5 27t-34.5 70q0 15 6 38h58q-4 -15 -4 -29q0 -26 17.5 -40.5t44.5 -14.5
q33 0 58.5 20.5t31.5 63.5h58q-10 -72 -52.5 -103.5t-98.5 -31.5z" />
    <glyph glyph-name="uni04C3" unicode="&#x4c3;" horiz-adv-x="616" 
d="M44 0l136 703h70l-60 -305q84 0 114 -2l249 307h84l-262 -322q75 -23 116 -80.5t41 -140.5q0 -82 -34.5 -158t-104.5 -127t-159 -49l12 62q93 0 154 84.5t61 187.5q0 88 -53 132.5t-149 44.5h-80l-66 -337h-69z" />
    <glyph glyph-name="uni04C4" unicode="&#x4c4;" horiz-adv-x="504" 
d="M24 0l98 503h68l-42 -215q53 0 77 -2l192 217h86l-212 -233q124 -38 124 -176q0 -92 -53.5 -173.5t-142.5 -126.5l-30 53q70 33 114.5 101.5t44.5 143.5q0 136 -163 136h-49l-44 -228h-68z" />
    <glyph glyph-name="uni04C5" unicode="&#x4c5;" horiz-adv-x="694" 
d="M526 0h-91l126 641h-250l-20 -102q-26 -129 -54 -221t-68 -167.5t-94 -115t-124 -43.5l13 65q90 12 152.5 133t106.5 349l33 164h386l-125 -641h99l-9 -45l-97 -157h-59z" />
    <glyph glyph-name="uni04C6" unicode="&#x4c6;" horiz-adv-x="558" 
d="M-38 -4l11 61q124 22 177 294l29 152h308l-86 -444h78l-8 -43l-82 -136h-55l62 120h-75l1 2l86 442h-174l-18 -93q-35 -179 -96 -264.5t-158 -90.5z" />
    <glyph glyph-name="uni04C7" unicode="&#x4c7;" horiz-adv-x="748" 
d="M44 0l136 703h70l-63 -320h408l62 320h69l-130 -674q-41 -210 -223 -203l12 61q112 0 141 146l56 288h-407l-62 -321h-69z" />
    <glyph glyph-name="uni04C8" unicode="&#x4c8;" horiz-adv-x="593" 
d="M24 0l98 503h68l-42 -215h294l41 215h69l-90 -466q-18 -98 -66 -151.5t-123 -91.5l-30 53q60 29 98 72t52 121l37 188h-294l-44 -228h-68z" />
    <glyph glyph-name="uni04C9" unicode="&#x4c9;" horiz-adv-x="775" 
d="M43 0l137 703h70l-63 -320h408l62 320h69l-125 -641h104l-8 -45l-98 -157h-58l74 140h-96l63 321h-407l-63 -321h-69z" />
    <glyph glyph-name="uni04CA" unicode="&#x4ca;" horiz-adv-x="620" 
d="M24 0l98 503h68l-42 -215h294l41 215h69l-87 -444h87l-8 -43l-82 -136h-55l62 120h-83l44 228h-294l-44 -228h-68z" />
    <glyph glyph-name="uni04CB" unicode="&#x4cb;" horiz-adv-x="614" 
d="M256 277q-86 0 -130 39.5t-44 109.5q0 24 6 53l44 224h70l-42 -213q-5 -22 -5 -48q0 -101 115 -101q101 0 195 59l59 303h70l-137 -703h-98l-27 -140h-64l39 202h92l45 232l8 33h-2q-103 -50 -194 -50z" />
    <glyph glyph-name="uni04CC" unicode="&#x4cc;" horiz-adv-x="500" 
d="M197 -120l34 172h72l28 142l8 32h-2q-29 -16 -71 -27t-71 -11q-73 0 -109 31.5t-36 85.5q0 17 5 42l30 156h67l-28 -145q0 -5 -2 -18t-2 -19q0 -73 87 -73q79 0 143 43l41 212h68l-98 -503h-76l-24 -120h-64z" />
    <glyph glyph-name="uni04CD" unicode="&#x4cd;" horiz-adv-x="868" 
d="M16 0l194 703h69l104 -413l17 -86h2q28 49 51 86l265 413h74l-74 -641h100l-8 -45l-98 -157h-58l75 140h-87l58 492l17 98h-2q-33 -62 -56 -98l-236 -361h-65l-95 361l-19 100h-2q-10 -62 -20 -100l-136 -492h-70z" />
    <glyph glyph-name="uni04CE" unicode="&#x4ce;" horiz-adv-x="747" 
d="M5 0l139 503h69l92 -310l17 -71h2q22 39 44 71l212 310h74l-51 -444h88l-8 -43l-82 -136h-55l62 120h-77l38 325l16 87h-2q-16 -32 -45 -73l-194 -281h-62l-85 279q-6 17 -10.5 36t-6.5 29l-1 10h-2q-11 -60 -18 -87l-88 -325h-66z" />
    <glyph glyph-name="uni04CF" unicode="&#x4cf;" horiz-adv-x="232" 
d="M25 0l137 703h70l-138 -703h-69z" />
    <glyph glyph-name="uni04D0" unicode="&#x4d0;" horiz-adv-x="634" 
d="M-31 0l392 703h76l121 -703h-70l-37 224h-283l-124 -224h-75zM199 284h242l-42 255l-11 92h-2q-26 -59 -44 -92zM411 736q-50 0 -84.5 27t-34.5 70q0 15 6 38h58q-4 -15 -4 -29q0 -26 17.5 -40.5t44.5 -14.5q33 0 58.5 20.5t31.5 63.5h58q-10 -72 -52.5 -103.5
t-98.5 -31.5z" />
    <glyph glyph-name="uni04D1" unicode="&#x4d1;" horiz-adv-x="517" 
d="M4 115q0 57 32 98t86 61t107.5 28t112.5 8h33q5 27 5 54q0 90 -102 90q-81 0 -152 -48l-21 57q31 21 80.5 36.5t98.5 15.5q77 0 121.5 -35t44.5 -107q0 -26 -6 -56l-61 -317h-66l12 58l11 43h-2q-22 -41 -71 -77t-113 -36q-63 0 -106.5 34.5t-43.5 92.5zM73 124
q0 -34 24.5 -56.5t72.5 -22.5q66 0 120.5 59.5t70.5 131.5l4 20h-29q-263 0 -263 -132zM323 569q-50 0 -84.5 27t-34.5 70q0 15 6 38h58q-4 -15 -4 -29q0 -26 17.5 -40.5t44.5 -14.5q33 0 58.5 20.5t31.5 63.5h58q-10 -72 -52.5 -103.5t-98.5 -31.5z" />
    <glyph glyph-name="uni04D2" unicode="&#x4d2;" horiz-adv-x="634" 
d="M-31 0l392 703h76l121 -703h-70l-37 224h-283l-124 -224h-75zM199 284h242l-42 255l-11 92h-2q-26 -59 -44 -92zM458 785l17 86h62l-17 -86h-62zM307 785l16 86h62l-16 -86h-62z" />
    <glyph glyph-name="uni04D3" unicode="&#x4d3;" horiz-adv-x="517" 
d="M4 115q0 57 32 98t86 61t107.5 28t112.5 8h33q5 27 5 54q0 90 -102 90q-81 0 -152 -48l-21 57q31 21 80.5 36.5t98.5 15.5q77 0 121.5 -35t44.5 -107q0 -26 -6 -56l-61 -317h-66l12 58l11 43h-2q-22 -41 -71 -77t-113 -36q-63 0 -106.5 34.5t-43.5 92.5zM73 124
q0 -34 24.5 -56.5t72.5 -22.5q66 0 120.5 59.5t70.5 131.5l4 20h-29q-263 0 -263 -132zM362 618l17 86h62l-17 -86h-62zM211 618l16 86h62l-16 -86h-62z" />
    <glyph glyph-name="uni04D4" unicode="&#x4d4;" horiz-adv-x="852" 
d="M-40 0l424 703h487l-13 -62h-326l-50 -256h267l-12 -62h-267l-51 -261h344l-12 -62h-413l63 324h-170l-194 -324h-77zM267 384h145l51 257h-41z" />
    <glyph glyph-name="uni04D5" unicode="&#x4d5;" horiz-adv-x="866" 
d="M5 115q0 191 335 191h34q7 37 7 58q0 90 -106 90q-79 0 -148 -48l-21 57q79 52 176 52q135 0 154 -97h2q79 97 201 97q90 0 137 -49.5t47 -133.5q0 -34 -13 -80h-379q-6 -28 -4 -56q1 -70 42.5 -108t109.5 -38q86 0 165 60l21 -56q-33 -27 -86.5 -46.5t-100.5 -19.5
q-80 0 -135 37t-73 100h-2q-6 -14 -19.5 -32.5t-39 -44.5t-66 -43t-87.5 -17q-65 0 -108 33.5t-43 93.5zM445 306h306q3 16 3 34q0 59 -32.5 88.5t-82.5 29.5q-64 0 -116 -39.5t-78 -112.5zM75 123q0 -34 25 -56t71 -22q67 0 120 58.5t69 129.5l4 19h-58q-231 0 -231 -129z
" />
    <glyph glyph-name="uni04D6" unicode="&#x4d6;" horiz-adv-x="558" 
d="M43 0l137 703h396l-13 -62h-326l-50 -256h267l-12 -62h-266l-52 -261h344l-11 -62h-414zM396 736q-50 0 -84.5 27t-34.5 70q0 15 6 38h58q-4 -15 -4 -29q0 -26 17.5 -40.5t44.5 -14.5q33 0 58.5 20.5t31.5 63.5h58q-10 -72 -52.5 -103.5t-98.5 -31.5z" />
    <glyph glyph-name="uni04D7" unicode="&#x4d7;" horiz-adv-x="551" 
d="M35 200q0 126 84 220.5t208 94.5q91 0 137 -49.5t46 -132.5q0 -39 -14 -84h-386q-5 -27 -5 -45q0 -66 42.5 -110t118.5 -44q87 0 165 60l21 -56q-32 -27 -84 -46.5t-104 -19.5q-103 0 -166 58.5t-63 153.5zM123 303h315q3 15 3 36q0 59 -31.5 89.5t-82.5 30.5
q-65 0 -121.5 -41t-82.5 -115zM351 569q-50 0 -84.5 27t-34.5 70q0 15 6 38h58q-4 -15 -4 -29q0 -26 17.5 -40.5t44.5 -14.5q33 0 58.5 20.5t31.5 63.5h58q-10 -72 -52.5 -103.5t-98.5 -31.5z" />
    <glyph glyph-name="uni04D8" unicode="&#x4d8;" horiz-adv-x="719" 
d="M50 233q0 63 20 147h533q5 28 5 59q0 96 -55.5 153.5t-155.5 57.5q-56 0 -115.5 -20.5t-82 -34t-36.5 -24.5l-32 54q8 8 36.5 26t96.5 41t138 23q132 0 205 -76.5t73 -209.5q0 -77 -25.5 -154t-71.5 -141.5t-120.5 -105t-162.5 -40.5q-112 0 -181 62.5t-69 182.5z
M120 232q0 -87 44.5 -133.5t132.5 -46.5q113 0 191 73t103 196h-462q-9 -42 -9 -89z" />
    <glyph glyph-name="uni04D9" unicode="&#x4d9;" horiz-adv-x="554" 
d="M26 169q0 41 19 100h384q2 8 2 33q0 66 -42.5 109.5t-118.5 43.5q-45 0 -90 -17t-74 -42l-23 55q30 23 83.5 43.5t108.5 20.5q102 0 164.5 -59t62.5 -159q0 -122 -84 -215.5t-208 -93.5q-90 0 -137 50t-47 131zM93 164q0 -59 32 -89t85 -30q67 0 127 45.5t83 124.5h-320
q-7 -25 -7 -51z" />
    <glyph glyph-name="uni04DA" unicode="&#x4da;" horiz-adv-x="718" 
d="M48 237q0 47 19 127h534q8 33 6 68q-2 91 -57.5 154.5t-155.5 63.5q-62 0 -124 -22t-107 -58l-32 56q45 36 117.5 62.5t152.5 26.5q127 0 203 -83t76 -211q0 -102 -45.5 -200t-134.5 -165.5t-198 -67.5q-116 0 -185 66t-69 183zM118 235q0 -83 46.5 -133t141.5 -50
q98 0 174 71.5t108 181.5h-462q-8 -38 -8 -70zM491 785l17 86h62l-17 -86h-62zM340 785l16 86h62l-16 -86h-62z" />
    <glyph glyph-name="uni04DB" unicode="&#x4db;" horiz-adv-x="553" 
d="M373 618l17 86h62l-17 -86h-62zM222 618l16 86h62l-16 -86h-62zM26 169q0 41 19 100h384q2 8 2 33q0 66 -42.5 109.5t-118.5 43.5q-45 0 -90 -17t-74 -42l-23 55q30 23 83.5 43.5t108.5 20.5q102 0 164.5 -59t62.5 -159q0 -122 -84 -215.5t-208 -93.5q-90 0 -137 50
t-47 131zM93 164q0 -59 32 -89t85 -30q67 0 127 45.5t83 124.5h-320q-7 -25 -7 -51z" />
    <glyph glyph-name="uni04DC" unicode="&#x4dc;" horiz-adv-x="866" 
d="M573 785l17 86h62l-17 -86h-62zM422 785l16 86h62l-16 -86h-62zM-35 0l294 372v2l-147 329h75l133 -305h99l60 305h69l-60 -305h94l244 305h86l-273 -335v-2l149 -366h-75l-135 336h-102l-66 -336h-69l66 336h-94l-265 -336h-83z" />
    <glyph glyph-name="uni04DD" unicode="&#x4dd;" horiz-adv-x="717" 
d="M466 618l17 86h62l-17 -86h-62zM315 618l16 86h62l-16 -86h-62zM-35 0l218 263v2l-107 238h70l97 -216h81l42 216h66l-42 -216h79l174 216h80l-203 -250v-2l120 -251h-74l-107 227h-81l-44 -227h-66l44 227h-81l-186 -227h-80z" />
    <glyph glyph-name="uni04DE" unicode="&#x4de;" horiz-adv-x="534" 
d="M399 785l17 86h62l-17 -86h-62zM248 785l16 86h62l-16 -86h-62zM-7 80l43 47q55 -75 157 -75q82 0 140 47.5t58 120.5q0 55 -35.5 83t-94.5 28h-92l12 60h74q66 0 119.5 43.5t53.5 108.5q0 47 -31 77.5t-92 30.5q-84 0 -161 -57l-29 52q93 69 192 69q92 0 143 -43
t51 -119q0 -68 -39 -116t-102 -70v-2q103 -33 103 -143q0 -101 -78.5 -167.5t-185.5 -66.5q-60 0 -116 23.5t-90 68.5z" />
    <glyph glyph-name="uni04DF" unicode="&#x4df;" horiz-adv-x="438" 
d="M322 618l17 86h62l-17 -86h-62zM171 618l16 86h62l-16 -86h-62zM-15 59l38 47q19 -22 54.5 -41t77.5 -19q54 0 95.5 31.5t41.5 85.5q0 70 -102 70h-65l10 54h58q52 0 90 26.5t38 76.5q0 67 -93 67q-68 0 -127 -45l-26 48q71 55 166 55q68 0 109 -30.5t41 -86.5
q0 -47 -26 -82.5t-73 -51.5v-2q71 -24 71 -101t-59.5 -125t-142.5 -48q-107 0 -176 71z" />
    <glyph glyph-name="uni04E0" unicode="&#x4e0;" horiz-adv-x="520" 
d="M22 105q20 -21 62.5 -37.5t87.5 -16.5q85 0 147.5 49t62.5 125q0 55 -39.5 81t-130.5 26h-84l9 49l237 221l51 41l-1 2q-25 -2 -59 -2h-247l12 60h397l-10 -51l-254 -234l-35 -26v-2q224 5 224 -162q0 -101 -81.5 -169.5t-197.5 -68.5q-56 0 -106.5 20t-76.5 41z" />
    <glyph glyph-name="uni04E1" unicode="&#x4e1;" horiz-adv-x="473" 
d="M-43 -95q20 -21 62.5 -37.5t87.5 -16.5q85 0 147.5 49t62.5 125q0 55 -39.5 81t-130.5 26h-84l9 49l237 221l51 41l-1 2q-25 -2 -59 -2h-247l12 60h397l-10 -51l-254 -234l-35 -26v-2q224 5 224 -162q0 -101 -81.5 -169.5t-197.5 -68.5q-56 0 -106.5 20t-76.5 41z" />
    <glyph glyph-name="uni04E2" unicode="&#x4e2;" horiz-adv-x="751" 
d="M352 786l10 55h246l-9 -55h-247zM43 0l137 703h70l-98 -503l-24 -93h2q49 62 80 97l453 499h67l-138 -703h-69l98 503l23 93h-2q-46 -60 -77 -95l-455 -501h-67z" />
    <glyph glyph-name="uni04E3" unicode="&#x4e3;" horiz-adv-x="591" 
d="M238 618l10 55h246l-9 -55h-247zM24 0l98 503h65l-64 -328l-16 -73h2q37 46 65 76l311 325h65l-98 -503h-65l63 329l17 71h-2q-37 -45 -65 -74l-311 -326h-65z" />
    <glyph glyph-name="uni04E4" unicode="&#x4e4;" horiz-adv-x="751" 
d="M514 785l17 86h62l-17 -86h-62zM363 785l16 86h62l-16 -86h-62zM43 0l137 703h70l-98 -503l-24 -93h2q49 62 80 97l453 499h67l-138 -703h-69l98 503l23 93h-2q-46 -60 -77 -95l-455 -501h-67z" />
    <glyph glyph-name="uni04E5" unicode="&#x4e5;" horiz-adv-x="591" 
d="M407 618l17 86h62l-17 -86h-62zM256 618l16 86h62l-16 -86h-62zM24 0l98 503h65l-64 -328l-16 -73h2q37 46 65 76l311 325h65l-98 -503h-65l63 329l17 71h-2q-37 -45 -65 -74l-311 -326h-65z" />
    <glyph glyph-name="uni04E6" unicode="&#x4e6;" horiz-adv-x="825" 
d="M550 785l17 86h62l-17 -86h-62zM399 785l16 86h62l-16 -86h-62zM60 292q0 111 60.5 209.5t158 156t203.5 57.5q136 0 221 -83t85 -213q0 -113 -61 -213.5t-158.5 -159t-202.5 -58.5q-136 0 -221 85t-85 219zM132 294q0 -106 65 -173.5t169 -67.5q134 0 242 108.5
t108 254.5q0 103 -65.5 168.5t-168.5 65.5q-135 0 -242.5 -106t-107.5 -250z" />
    <glyph glyph-name="uni04E7" unicode="&#x4e7;" horiz-adv-x="624" 
d="M418 618l17 86h62l-17 -86h-62zM267 618l16 86h62l-16 -86h-62zM34 208q0 126 94 216.5t215 90.5q102 0 166 -60.5t64 -156.5q0 -127 -95 -218.5t-214 -91.5q-102 0 -166 61.5t-64 158.5zM104 210q0 -71 45 -115.5t116 -44.5q91 0 164.5 72t73.5 173q0 70 -45 114.5
t-116 44.5q-92 0 -165 -72t-73 -172z" />
    <glyph glyph-name="uni04E8" unicode="&#x4e8;" horiz-adv-x="825" 
d="M60 292q0 111 60.5 209.5t158 156t203.5 57.5q136 0 221 -83t85 -213q0 -113 -61 -213.5t-158.5 -159t-202.5 -58.5q-136 0 -221 85t-85 219zM131 294q0 -107 65.5 -174.5t169.5 -67.5q111 0 208.5 78.5t129.5 195.5h-571q-2 -22 -2 -32zM482 651q-113 0 -210 -76
t-129 -190h572q2 20 2 31q0 104 -65.5 169.5t-169.5 65.5z" />
    <glyph glyph-name="uni04E9" unicode="&#x4e9;" horiz-adv-x="624" 
d="M34 209q0 126 94.5 216t216.5 90q100 0 164 -61t64 -158q0 -126 -94.5 -217t-215.5 -91q-101 0 -165 61.5t-64 159.5zM100 211q0 -74 46 -119.5t118 -45.5q76 0 143.5 52t90.5 131h-398v-18zM343 458q-77 0 -143.5 -50.5t-89.5 -128.5h396q1 5 1 15q0 73 -45.5 118.5
t-118.5 45.5z" />
    <glyph glyph-name="uni04EA" unicode="&#x4ea;" horiz-adv-x="825" 
d="M60 292q0 111 60.5 209.5t158 156t203.5 57.5q136 0 221 -83t85 -213q0 -113 -61 -213.5t-158.5 -159t-202.5 -58.5q-136 0 -221 85t-85 219zM131 294q0 -107 65.5 -174.5t169.5 -67.5q111 0 208.5 78.5t129.5 195.5h-571q-2 -22 -2 -32zM482 651q-113 0 -210 -76
t-129 -190h572q2 20 2 31q0 104 -65.5 169.5t-169.5 65.5zM400 785l16 86h62l-16 -86h-62zM551 785l17 86h62l-17 -86h-62z" />
    <glyph glyph-name="uni04EB" unicode="&#x4eb;" horiz-adv-x="624" 
d="M34 209q0 126 94.5 216t216.5 90q100 0 164 -61t64 -158q0 -126 -94.5 -217t-215.5 -91q-101 0 -165 61.5t-64 159.5zM100 211q0 -74 46 -119.5t118 -45.5q76 0 143.5 52t90.5 131h-398v-18zM343 458q-77 0 -143.5 -50.5t-89.5 -128.5h396q1 5 1 15q0 73 -45.5 118.5
t-118.5 45.5zM268 618l16 86h62l-16 -86h-62zM419 618l17 86h62l-17 -86h-62z" />
    <glyph glyph-name="uni04EC" unicode="&#x4ec;" horiz-adv-x="716" 
d="M195 322l12 60h397q2 24 2 36q0 103 -61 168t-169 65q-127 0 -229 -79l-34 51q111 92 268 92q135 0 216.5 -82.5t81.5 -212.5q0 -112 -59 -212t-158 -160t-210 -60q-72 0 -141.5 27t-111.5 80l43 47q33 -40 91 -65t122 -25q114 0 209 77t128 193h-397zM312 785l16 86h62
l-16 -86h-62zM463 785l17 86h62l-17 -86h-62z" />
    <glyph glyph-name="uni04ED" unicode="&#x4ed;" horiz-adv-x="540" 
d="M151 224l10 54h260q0 4 0.5 11t0.5 10q0 75 -46.5 116t-116.5 41q-88 0 -158 -61l-32 48q36 33 89 52.5t107 19.5q100 0 162 -60.5t62 -158.5q0 -121 -91 -214.5t-223 -93.5q-53 0 -103 20t-79 57l33 50q23 -31 64 -49.5t88 -18.5q81 0 144.5 50t87.5 127h-259zM206 618
l16 86h62l-16 -86h-62zM357 618l17 86h62l-17 -86h-62z" />
    <glyph glyph-name="uni04EE" unicode="&#x4ee;" horiz-adv-x="588" 
d="M263 786l10 55h246l-9 -55h-247zM29 32l38 52q37 -34 78 -34q32 0 55 23t52 73l-171 557h72l118 -392l23 -93h2q26 50 50 92l222 393h78l-344 -592q-72 -123 -161 -123q-56 0 -112 44z" />
    <glyph glyph-name="uni04EF" unicode="&#x4ef;" horiz-adv-x="527" 
d="M-38 -129q22 -20 56 -20q61 0 112 81l45 73l-113 498h71l78 -376l8 -53h1q14 28 28 52l218 377h77l-368 -610q-61 -103 -155 -103q-50 0 -93 30zM205 618l10 55h246l-9 -55h-247z" />
    <glyph glyph-name="uni04F0" unicode="&#x4f0;" horiz-adv-x="588" 
d="M429 785l17 86h62l-17 -86h-62zM278 785l16 86h62l-16 -86h-62zM29 32l38 52q37 -34 78 -34q32 0 55 23t52 73l-171 557h72l118 -392l23 -93h2q26 50 50 92l222 393h78l-344 -592q-72 -123 -161 -123q-56 0 -112 44z" />
    <glyph glyph-name="uni04F1" unicode="&#x4f1;" horiz-adv-x="527" 
d="M-38 -129q22 -20 56 -20q61 0 112 81l45 73l-113 498h71l78 -376l8 -53h1q14 28 28 52l218 377h77l-368 -610q-61 -103 -155 -103q-50 0 -93 30zM369 618l17 86h62l-17 -86h-62zM218 618l16 86h62l-16 -86h-62z" />
    <glyph glyph-name="uni04F2" unicode="&#x4f2;" horiz-adv-x="588" 
d="M29 32l38 52q37 -34 78 -34q32 0 55 23t52 73l-171 557h72l118 -392l23 -93h2q26 50 50 92l222 393h78l-344 -592q-72 -123 -161 -123q-56 0 -112 44zM409 752l93 119h82l-110 -119h-65zM275 752l89 119h72l-91 -119h-70z" />
    <glyph glyph-name="uni04F3" unicode="&#x4f3;" horiz-adv-x="527" 
d="M-38 -129q22 -20 56 -20q61 0 112 81l45 73l-113 498h71l78 -376l8 -53h1q14 28 28 52l218 377h77l-368 -610q-61 -103 -155 -103q-50 0 -93 30zM342 585l93 119h82l-110 -119h-65zM208 585l89 119h72l-91 -119h-70z" />
    <glyph glyph-name="uni04F4" unicode="&#x4f4;" horiz-adv-x="614" 
d="M430 785l17 86h62l-17 -86h-62zM279 785l16 86h62l-16 -86h-62zM256 277q-86 0 -130 39.5t-44 109.5q0 24 6 53l44 224h70l-42 -213q-5 -22 -5 -48q0 -101 115 -101q101 0 195 59l59 303h70l-137 -703h-70l57 294l8 33h-2q-103 -50 -194 -50z" />
    <glyph glyph-name="uni04F5" unicode="&#x4f5;" horiz-adv-x="500" 
d="M345 618l17 86h62l-17 -86h-62zM194 618l16 86h62l-16 -86h-62zM194 184q-73 0 -108.5 31.5t-35.5 85.5q0 22 4 42l31 160h68l-29 -149q-5 -32 -5 -37q0 -72 88 -72q81 0 142 42l42 216h69l-98 -503h-68l37 190l8 32h-2q-29 -16 -71 -27t-72 -11z" />
    <glyph glyph-name="uni04F6" unicode="&#x4f6;" horiz-adv-x="490" 
d="M44 0l136 703h370l-12 -62h-301l-112 -579h92l-40 -202h-64l27 140h-96z" />
    <glyph glyph-name="uni04F7" unicode="&#x4f7;" horiz-adv-x="408" 
d="M24 0l98 503h299l-12 -59h-231l-75 -384h80l-35 -180h-64l24 120h-84z" />
    <glyph glyph-name="uni04F8" unicode="&#x4f8;" horiz-adv-x="813" 
d="M546 785l17 86h62l-17 -86h-62zM395 785l16 86h62l-16 -86h-62zM585 0l138 703h69l-138 -703h-69zM43 0l137 703h70l-56 -284h153q81 0 129.5 -44t48.5 -125q0 -107 -72 -178.5t-172 -71.5h-238zM124 62h155q73 0 123.5 50.5t50.5 133.5q0 52 -32 81.5t-87 29.5h-153z
" />
    <glyph glyph-name="uni04F9" unicode="&#x4f9;" horiz-adv-x="668" 
d="M440 618l17 86h62l-17 -86h-62zM289 618l16 86h62l-16 -86h-62zM461 0l98 503h68l-98 -503h-68zM24 0l98 503h68l-38 -192h104q68 0 111 -30.5t43 -98.5q0 -80 -56 -131t-149 -51h-181zM102 54h100q60 0 98.5 33.5t38.5 89.5q0 80 -96 80h-101z" />
    <glyph glyph-name="uni0524" unicode="&#x524;" horiz-adv-x="764" 
d="M44 0l136 703h537l-125 -641h92l-39 -202h-65l28 140h-97l125 641h-399l-124 -641h-69z" />
    <glyph glyph-name="uni0525" unicode="&#x525;" horiz-adv-x="607" 
d="M24 0l98 503h420l-86 -443h79l-35 -180h-64l24 120h-83l85 443h-284l-86 -443h-68z" />
    <glyph glyph-name="uni1E9E" unicode="&#x1e9e;" horiz-adv-x="667" 
d="M38 0l101 522q16 80 75.5 130.5t139.5 50.5h313l-9 -48l-200 -223l-33 -35v-2q77 -3 126.5 -42t49.5 -122q0 -70 -44 -131t-112 -85q-42 -15 -125 -15h-122l12 62h115q67 0 94 10q48 17 79.5 61.5t31.5 95.5q0 108 -142 108h-60l10 49l172 196q17 20 31 34.5t19 19.5l6 5
v2q-6 -2 -42 -2h-168q-54 0 -95.5 -35.5t-52.5 -88.5l-101 -517h-69z" />
    <glyph glyph-name="thinspace" unicode="&#x2009;" horiz-adv-x="12" 
 />
    <glyph glyph-name="endash" unicode="&#x2013;" horiz-adv-x="649" 
d="M67 255l10 58h500l-10 -58h-500z" />
    <glyph glyph-name="emdash" unicode="&#x2014;" horiz-adv-x="848" 
d="M66 255l11 58h700l-11 -58h-700z" />
    <glyph glyph-name="quoteleft" unicode="&#x2018;" horiz-adv-x="242" 
d="M115 541l89 171h57l-71 -171h-75z" />
    <glyph glyph-name="quoteright" unicode="&#x2019;" horiz-adv-x="238" 
d="M118 541l71 171h75l-89 -171h-57z" />
    <glyph glyph-name="quotesinglbase" unicode="&#x201a;" horiz-adv-x="256" 
d="M59 82h74l-89 -172h-57z" />
    <glyph glyph-name="quotedblleft" unicode="&#x201c;" horiz-adv-x="361" 
d="M235 541l89 171h57l-72 -171h-74zM115 541l89 171h57l-71 -171h-75z" />
    <glyph glyph-name="quotedblright" unicode="&#x201d;" horiz-adv-x="357" 
d="M237 541l72 171h75l-89 -171h-58zM118 541l71 171h75l-89 -171h-57z" />
    <glyph glyph-name="quotedblbase" unicode="&#x201e;" horiz-adv-x="375" 
d="M106 -90l72 172h75l-89 -172h-58zM-13 -90l72 172h74l-89 -172h-57z" />
    <glyph glyph-name="dagger" unicode="&#x2020;" horiz-adv-x="405" 
d="M100 -50l96 495h-117l12 58h117l38 200h67l-39 -200h122l-12 -58h-121l-96 -495h-67z" />
    <glyph glyph-name="daggerdbl" unicode="&#x2021;" horiz-adv-x="424" 
d="M110 -50l44 229h-117l11 58h117l41 208h-117l12 58h117l38 200h66l-38 -200h121l-11 -58h-121l-41 -208h121l-12 -58h-121l-43 -229h-67z" />
    <glyph glyph-name="bullet" unicode="&#x2022;" horiz-adv-x="460" 
d="M228 148q-59 0 -100.5 42t-41.5 101t41.5 101t100.5 42t101 -42t42 -101t-42 -101t-101 -42z" />
    <glyph glyph-name="ellipsis" unicode="&#x2026;" horiz-adv-x="700" 
d="M488 0l17 83h80l-16 -83h-81zM253 0l17 83h80l-17 -83h-80zM18 0l17 83h80l-17 -83h-80z" />
    <glyph glyph-name="perthousand" unicode="&#x2030;" horiz-adv-x="1056" 
d="M234 437q-56 0 -90 33.5t-34 89.5q0 59 50 107t113 48q56 0 89.5 -34t33.5 -88q0 -61 -50 -108.5t-112 -47.5zM11 0l665 703h77l-665 -703h-77zM238 493q39 0 69 30t30 70q0 29 -19 47.5t-49 18.5q-38 0 -68.5 -30.5t-30.5 -69.5q0 -28 19 -47t49 -19zM702 111
q0 59 50 107t113 48q55 0 89 -34t34 -88q0 -61 -49.5 -108.5t-112.5 -47.5q-56 0 -90 33.5t-34 89.5zM364 111q0 59 50 107t113 48q56 0 90 -34t34 -88q0 -61 -50 -108.5t-112 -47.5q-57 0 -91 33.5t-34 89.5zM762 110q0 -29 19 -47.5t49 -18.5q39 0 68.5 29.5t29.5 69.5
q0 29 -18.5 48t-48.5 19q-38 0 -68.5 -30.5t-30.5 -69.5zM424 110q0 -29 19 -47.5t50 -18.5q39 0 68.5 29.5t29.5 69.5q0 29 -19 48t-49 19q-38 0 -68.5 -30.5t-30.5 -69.5z" />
    <glyph glyph-name="guilsinglleft" unicode="&#x2039;" horiz-adv-x="340" 
d="M175 77l-129 207l192 204h79l-200 -209l127 -202h-69z" />
    <glyph glyph-name="guilsinglright" unicode="&#x203a;" horiz-adv-x="338" 
d="M17 77l199 209l-127 202h69l129 -207l-192 -204h-78z" />
    <glyph glyph-name="fraction" unicode="&#x2044;" horiz-adv-x="159" 
d="M-113 0h-63l473 703h62z" />
    <glyph glyph-name="zerosuperior" unicode="&#x2070;" 
d="M223 413q-128 0 -128 142q0 46 10 96.5t31.5 101t62 83.5t94.5 33q127 0 127 -145q0 -45 -10 -95t-31.5 -100.5t-62 -83t-93.5 -32.5zM223 465q37 0 65.5 26.5t44 67.5t23 83t7.5 80q0 95 -71 95q-49 0 -82.5 -47t-45.5 -103t-12 -110q0 -92 71 -92z" />
    <glyph glyph-name="foursuperior" unicode="&#x2074;" 
d="M259 423l22 114h-213l7 38l266 284h58l-53 -272h65l-9 -50h-65l-23 -114h-55zM149 587h142l26 136l16 62h-2q-21 -27 -42 -49l-140 -147v-2z" />
    <glyph glyph-name="fivesuperior" unicode="&#x2075;" 
d="M214 413q-41 0 -77.5 18t-57.5 51l42 33q11 -21 36 -35.5t57 -14.5q44 0 81 33.5t37 79.5q0 34 -24.5 56t-61.5 22q-44 0 -82 -24l-32 13l66 214h219l-10 -51h-172l-24 -78l-13 -37h2q27 12 55 12q59 0 96.5 -35.5t37.5 -90.5q0 -65 -53 -115.5t-122 -50.5z" />
    <glyph glyph-name="sixsuperior" unicode="&#x2076;" 
d="M232 413q-63 0 -98 42t-35 113q0 42 16.5 93t45.5 98t75.5 78.5t100.5 31.5q55 0 91 -23l-28 -44q-32 15 -63 15q-53 0 -96.5 -44.5t-65.5 -109.5h2q42 40 103 40q53 0 85.5 -31.5t32.5 -84.5q0 -78 -50.5 -126t-115.5 -48zM233 465q47 0 77.5 35.5t30.5 84.5
q0 33 -20 52t-55 19q-41 0 -76 -27.5t-35 -63.5q0 -40 21 -70t57 -30z" />
    <glyph glyph-name="sevensuperior" unicode="&#x2077;" 
d="M89 423l238 328l45 57v2q-20 -2 -51 -2h-171l10 51h290l-8 -38l-288 -398h-65z" />
    <glyph glyph-name="eightsuperior" unicode="&#x2078;" 
d="M223 413q-58 0 -98.5 30.5t-40.5 84.5q0 33 21 65.5t39.5 48t37.5 26.5q-37 30 -37 72q0 60 47 94.5t105 34.5q54 0 89.5 -26.5t35.5 -72.5q0 -67 -81 -136q49 -34 49 -82q0 -56 -50.5 -97.5t-116.5 -41.5zM300 656q66 53 66 108q0 26 -21 40t-51 14q-35 0 -64.5 -20
t-29.5 -55q0 -13 4.5 -23t18 -20t20 -14.5t30 -16t27.5 -13.5zM224 463q40 0 74.5 25.5t34.5 61.5q0 17 -12 31.5t-23.5 21.5t-39 21t-36.5 19q-81 -47 -81 -111q0 -32 24.5 -50.5t58.5 -18.5z" />
    <glyph glyph-name="ninesuperior" unicode="&#x2079;" 
d="M86 435l28 44q22 -14 64 -14q53 0 96 44t65 109h-2q-43 -40 -103 -40q-53 0 -85 32t-32 85q0 77 50 125.5t115 48.5q63 0 98.5 -42.5t35.5 -113.5q0 -42 -16.5 -92.5t-45.5 -97.5t-76 -78.5t-101 -31.5t-91 22zM248 625q40 0 75.5 28t35.5 64q0 40 -20.5 70t-57.5 30
q-47 0 -77.5 -36t-30.5 -85q0 -32 20.5 -51.5t54.5 -19.5z" />
    <glyph glyph-name="zeroinferior" unicode="&#x2080;" 
d="M110 -167q-128 0 -128 142q0 46 10 96.5t31.5 101t62 83.5t94.5 33q127 0 127 -145q0 -45 -10 -95t-31.5 -100.5t-62 -83t-93.5 -32.5zM110 -115q37 0 65.5 26.5t44 67.5t23 83t7.5 80q0 95 -71 95q-49 0 -82.5 -47t-45.5 -103t-12 -110q0 -92 71 -92z" />
    <glyph glyph-name="oneinferior" unicode="&#x2081;" 
d="M-8 -157l10 50h94l55 285l7 24h-2q-5 -8 -25 -24l-46 -38l-29 40l119 99h52l-75 -386h92l-10 -50h-242z" />
    <glyph glyph-name="twoinferior" unicode="&#x2082;" 
d="M-35 -157q1 55 30 97.5t69.5 68.5t81 49t68.5 52.5t28 64.5q0 27 -18.5 44.5t-49.5 17.5q-45 0 -100 -49l-31 38q61 63 134 63q57 0 90 -30.5t33 -79.5q0 -44 -24 -78.5t-60.5 -57.5t-73.5 -43.5t-68 -47.5t-40 -59h219l-10 -50h-278z" />
    <glyph glyph-name="threeinferior" unicode="&#x2083;" 
d="M105 -167q-88 0 -145 66l39 35q43 -49 107 -49q41 0 73.5 30t32.5 74q0 32 -25 50.5t-59 18.5h-33l-9 30l121 116l30 25v2q-19 -3 -37 -3h-152l10 51h262l-7 -37l-146 -139q37 -5 69.5 -33t32.5 -80q0 -62 -48 -109.5t-116 -47.5z" />
    <glyph glyph-name="fourinferior" unicode="&#x2084;" 
d="M146 -157l22 114h-213l7 38l266 284h58l-53 -272h65l-9 -50h-65l-23 -114h-55zM36 7h142l26 136l16 62h-2q-21 -27 -42 -49l-140 -147v-2z" />
    <glyph glyph-name="fiveinferior" unicode="&#x2085;" 
d="M101 -167q-41 0 -77.5 18t-57.5 51l42 33q11 -21 36 -35.5t57 -14.5q44 0 81 33.5t37 79.5q0 34 -24.5 56t-61.5 22q-44 0 -82 -24l-32 13l66 214h219l-10 -51h-172l-24 -78l-13 -37h2q27 12 55 12q59 0 96.5 -35.5t37.5 -90.5q0 -65 -53 -115.5t-122 -50.5z" />
    <glyph glyph-name="sixinferior" unicode="&#x2086;" 
d="M120 -167q-63 0 -98 42t-35 113q0 42 16.5 93t45.5 98t75.5 78.5t100.5 31.5q55 0 91 -23l-28 -44q-32 15 -63 15q-53 0 -96.5 -44.5t-65.5 -109.5h2q42 40 103 40q53 0 85.5 -31.5t32.5 -84.5q0 -78 -50.5 -126t-115.5 -48zM121 -115q47 0 77.5 35.5t30.5 84.5
q0 33 -20 52t-55 19q-41 0 -76 -27.5t-35 -63.5q0 -40 21 -70t57 -30z" />
    <glyph glyph-name="seveninferior" unicode="&#x2087;" 
d="M-23 -157l238 328l45 57v2q-20 -2 -51 -2h-171l10 51h290l-8 -38l-288 -398h-65z" />
    <glyph glyph-name="eightinferior" unicode="&#x2088;" 
d="M110 -166q-58 0 -98.5 30.5t-40.5 84.5q0 33 21 65.5t39.5 48t37.5 26.5q-37 30 -37 72q0 60 47 94.5t105 34.5q54 0 89.5 -26.5t35.5 -72.5q0 -67 -81 -136q49 -34 49 -82q0 -56 -50.5 -97.5t-116.5 -41.5zM187 77q66 53 66 108q0 26 -21 40t-51 14q-35 0 -64.5 -20
t-29.5 -55q0 -13 4.5 -23t18 -20t20 -14.5t30 -16t27.5 -13.5zM111 -116q40 0 74.5 25.5t34.5 61.5q0 17 -12 31.5t-23.5 21.5t-39 21t-36.5 19q-81 -47 -81 -111q0 -32 24.5 -50.5t58.5 -18.5z" />
    <glyph glyph-name="nineinferior" unicode="&#x2089;" 
d="M-26 -145l28 44q22 -14 64 -14q53 0 96 44t65 109h-2q-43 -40 -103 -40q-53 0 -85 32t-32 85q0 77 50 125.5t115 48.5q63 0 98.5 -42.5t35.5 -113.5q0 -42 -16.5 -92.5t-45.5 -97.5t-76 -78.5t-101 -31.5t-91 22zM136 45q40 0 75.5 28t35.5 64q0 39 -20.5 69.5
t-57.5 30.5q-47 0 -77.5 -36t-30.5 -85q0 -32 20.5 -51.5t54.5 -19.5z" />
    <glyph glyph-name="Euro" unicode="&#x20ac;" horiz-adv-x="568" 
d="M20 266l10 51h55q3 38 14 81h-53l10 51h61q50 118 153.5 192t224.5 74q51 0 105 -14l-29 -62q-35 10 -77 10q-93 0 -175.5 -55.5t-125.5 -144.5h306l-19 -51h-307q-12 -37 -17 -81h293l-20 -51h-270q5 -93 62 -152t159 -59q54 0 92 13l3 -66q-45 -14 -98 -14
q-127 0 -207.5 77t-85.5 201h-64z" />
    <glyph glyph-name="numero" unicode="&#x2116;" horiz-adv-x="1031" 
d="M747 453q0 59 46.5 106t108.5 47q51 0 83 -32t32 -80q0 -58 -47 -105t-109 -47q-51 0 -82.5 31.5t-31.5 79.5zM805 458q0 -27 17 -45t44 -18q35 0 64 28.5t29 67.5q0 27 -17 44t-45 17q-36 0 -64 -28t-28 -66zM710 221l10 53h244l-10 -53h-244zM38 0l137 703h62l261 -506
l39 -95h2q4 58 12 95l98 506h70l-138 -703h-61l-261 506l-39 95h-2q-5 -58 -12 -95l-99 -506h-69z" />
    <glyph glyph-name="trademark" unicode="&#x2122;" horiz-adv-x="1039" 
d="M540 265l35 438h52l115 -251l14 -41h2q5 22 14 41l115 251h52l34 -438h-55l-25 297l1 29h-2l-112 -244h-46l-112 244h-2l1 -29l-25 -297h-56zM290 265v386h-156v52h370v-52h-157v-386h-57z" />
    <glyph glyph-name="minus" unicode="&#x2212;" horiz-adv-x="568" 
d="M28 255v58h506v-58h-506z" />
    <glyph glyph-name="infinity" unicode="&#x221e;" horiz-adv-x="473" 
d="M246 176q-71 0 -122 51t-51 122q0 72 50.5 122t122.5 50q71 0 121.5 -50t50.5 -122q0 -71 -50.5 -122t-121.5 -51z" />
    <glyph glyph-name="approxequal" unicode="&#x2248;" horiz-adv-x="568" 
d="M69 321l-33 44q69 69 146 69q50 0 107.5 -35t90.5 -35q61 0 113 56l33 -44q-67 -69 -146 -69q-50 0 -107.5 35t-90.5 35q-59 0 -113 -56zM69 148l-33 43q69 69 146 69q50 0 107.5 -35t90.5 -35q61 0 113 56l33 -44q-67 -69 -146 -69q-50 0 -107.5 35t-90.5 35
q-60 0 -113 -55z" />
    <glyph glyph-name="notequal" unicode="&#x2260;" horiz-adv-x="568" 
d="M103 83l62 85h-118v58h159l85 116h-244v58h285l86 116l42 -29l-65 -87h118v-58h-158l-86 -116h244v-58h-285l-83 -114z" />
    <glyph glyph-name="lessequal" unicode="&#x2264;" horiz-adv-x="568" 
d="M18 259v50l452 202v-67l-368 -159v-2l368 -159v-67zM19 -104h451v-58h-451v58z" />
    <glyph glyph-name="greaterequal" unicode="&#x2265;" horiz-adv-x="568" 
d="M37 57v67l367 159v2l-367 159v67l452 -202v-50zM36 -104h451v-58h-451v58z" />
    <glyph glyph-name="commaaccent" unicode="&#xf6c3;" horiz-adv-x="335" 
d="M67 -63h66v-14q0 -55 -44 -125h-56q37 63 37 111q0 13 -3 28z" />
    <glyph glyph-name="cyrbreve" unicode="&#xf6d4;" horiz-adv-x="276" 
d="M268 736q-50 0 -84.5 27t-34.5 70q0 15 6 38h58q-4 -15 -4 -29q0 -26 17.5 -40.5t44.5 -14.5q33 0 58.5 20.5t31.5 63.5h58q-10 -72 -52.5 -103.5t-98.5 -31.5z" />
    <glyph glyph-name="apple" unicode="&#xf8ff;" horiz-adv-x="1130" 
d="M167 -5v152l-126 72v278l126 71v151l265 142l134 -71l132 71l265 -142v-151l124 -71v-278l-124 -72v-152l-265 -141l-132 71l-134 -71zM207 30l238 -126l121 66l118 -66l238 126v139l114 64v249l-114 66v136l-238 126l-118 -64l-121 64l-238 -126v-136l-114 -66v-249
l114 -64v-139zM241 64v121l-99 60v225l99 58v123l215 114l110 -59l107 59l214 -114v-123l100 -58v-225l-100 -60v-121l-214 -114l-107 58l-110 -58zM446 91h43v228h228v40h-228v192h199q17 0 23 -6.5t6 -22.5v-42h42v54q0 30 -13 43.5t-45 13.5h-320v-40h65v-460z" />
    <glyph glyph-name="zero.tnum" horiz-adv-x="568" 
d="M38 215q0 47 7 99.5t22 110t40.5 108.5t59.5 92t83 65.5t106 24.5q197 0 197 -228q0 -58 -9.5 -121.5t-33.5 -132t-59 -122t-91 -88.5t-125 -35q-197 0 -197 227zM109 215q0 -162 128 -162q52 0 95 30.5t70 77.5t45.5 106.5t26 114.5t7.5 104q0 163 -128 163
q-62 0 -111 -43t-76.5 -110t-42 -139.5t-14.5 -141.5z" />
    <glyph glyph-name="one.tnum" horiz-adv-x="568" 
d="M53 0l11 62h157l100 509l9 39h-2q-11 -14 -44 -42l-87 -73l-38 50l192 158h64l-125 -641h154l-12 -62h-379z" />
    <glyph glyph-name="two.tnum" horiz-adv-x="568" 
d="M10 0q1 44 16.5 84.5t36 69t57.5 59.5t64 49.5t73 46.5q111 68 143 95q71 60 71 130q0 54 -35 84.5t-90 30.5q-50 0 -96.5 -26t-79.5 -69l-50 40q40 53 101 87t132 34q83 0 136.5 -47t53.5 -127q0 -29 -9 -56.5t-18.5 -47t-34.5 -44.5t-38.5 -37.5t-49.5 -37t-48 -31.5
t-53 -32q-44 -26 -69 -43t-56 -42t-48 -51.5t-23 -56.5h366l-13 -62h-439z" />
    <glyph glyph-name="three.tnum" horiz-adv-x="568" 
d="M8 84l47 48q68 -77 172 -77q74 0 132.5 52.5t58.5 128.5q0 58 -42 89t-108 31h-54l-9 41l215 206l45 39v2q-21 -3 -58 -3h-259l12 62h411l-9 -46l-257 -244q30 -1 59 -10t58.5 -28t48 -54.5t18.5 -83.5q0 -100 -78.5 -174.5t-185.5 -74.5q-64 0 -121.5 24.5t-95.5 71.5z
" />
    <glyph glyph-name="four.tnum" horiz-adv-x="568" 
d="M3 195l8 45l429 463h81l-87 -448h100l-12 -60h-100l-38 -195h-69l38 195h-350zM103 255h262l58 295l16 67h-2q-23 -29 -45 -54l-289 -306v-2z" />
    <glyph glyph-name="five.tnum" horiz-adv-x="568" 
d="M18 87l50 45q56 -77 152 -77q83 0 145 57t62 136q0 62 -42 99.5t-109 37.5q-34 0 -68 -9.5t-50 -19.5l-17 -10l-43 16l104 341h342l-12 -62h-280l-55 -178l-14 -40h2q43 25 109 25q91 0 148 -55t57 -143q0 -107 -83.5 -184.5t-197.5 -77.5q-61 0 -114.5 25.5t-85.5 73.5z
" />
    <glyph glyph-name="six.tnum" horiz-adv-x="568" 
d="M47 241q0 66 25.5 145.5t71 154t121.5 124.5t165 50q76 0 135 -29l-35 -58q-40 21 -99 21q-103 0 -179.5 -83.5t-109.5 -197.5h2q32 38 81.5 60t101.5 22q87 0 138 -50.5t51 -135.5q0 -106 -72 -191t-184 -85q-99 0 -156 69t-57 184zM118 228q0 -69 38 -122t102 -53
q79 0 133.5 61.5t54.5 148.5q0 58 -35 91.5t-98 33.5q-67 0 -131 -46.5t-64 -113.5z" />
    <glyph glyph-name="seven.tnum" horiz-adv-x="568" 
d="M56 0l397 576q12 17 25 33t20 24l7 8v2q-18 -2 -54 -2h-323l12 62h457l-9 -48l-454 -655h-78z" />
    <glyph glyph-name="eight.tnum" horiz-adv-x="568" 
d="M25 174q0 45 21.5 87.5t53.5 71t51.5 43t33.5 21.5q-66 50 -66 119q0 78 66.5 138.5t172.5 60.5q92 0 143 -42t51 -115q0 -38 -16.5 -77.5t-43.5 -71.5t-41 -46t-28 -26q79 -53 79 -126q0 -93 -78.5 -158t-186.5 -65q-93 0 -152.5 49.5t-59.5 136.5zM368 368
q112 94 112 186q0 45 -33.5 71t-90.5 26q-72 0 -118.5 -39.5t-46.5 -94.5q0 -22 9 -40.5t31 -34.5t37.5 -25t51 -25.5t48.5 -23.5zM98 176q0 -57 40.5 -90.5t99.5 -33.5q74 0 132.5 44.5t58.5 113.5q0 22 -10.5 41t-33 34.5t-42 26t-53 27t-51.5 25.5q-18 -10 -35.5 -22.5
t-44.5 -36.5t-44 -58t-17 -71z" />
    <glyph glyph-name="nine.tnum" horiz-adv-x="568" 
d="M26 17l35 58q47 -22 99 -22q70 0 131 43t99 104.5t59 134.5h-2q-30 -36 -80 -59t-103 -23q-87 0 -138 50.5t-51 134.5q0 106 72.5 191.5t184.5 85.5q99 0 155.5 -69t56.5 -184q0 -66 -25.5 -145.5t-71 -154t-121.5 -124.5t-165 -50q-80 0 -135 29zM276 315q67 0 132 46.5
t65 113.5q0 69 -37.5 121.5t-102.5 52.5q-79 0 -133.5 -60.5t-54.5 -148.5q0 -58 35 -91.5t96 -33.5z" />
    <glyph glyph-name="hyphen.case" horiz-adv-x="434" 
d="M79 318l11 61h284l-11 -61h-284z" />
    <glyph glyph-name="parenleft.case" horiz-adv-x="278" 
d="M104 -65q-49 130 -49 265q0 312 204 560h66q-207 -261 -207 -561q0 -137 47 -264h-61z" />
    <glyph glyph-name="parenright.case" horiz-adv-x="278" 
d="M-27 -65q207 261 207 561q0 139 -46 264h60q49 -126 49 -266q0 -313 -204 -559h-66z" />
    <glyph glyph-name="bracketleft.case" horiz-adv-x="282" 
d="M22 -65l160 825h136l-11 -56h-73l-138 -713h73l-11 -56h-136z" />
    <glyph glyph-name="bracketright.case" horiz-adv-x="281" 
d="M-5 -9h72l138 713h-72l11 56h135l-160 -825h-134z" />
    <glyph glyph-name="braceleft.case" horiz-adv-x="339" 
d="M88 60q0 14 6 56l18 92q3 16 3 30q0 70 -66 84l12 62q41 7 69.5 38t37.5 77l17 85q36 176 183 176h15l-10 -56h-9q-12 0 -24.5 -3.5t-32.5 -14t-36 -38.5t-24 -69l-19 -101q-8 -44 -36 -77.5t-69 -46.5v-2q26 -14 42 -41t16 -60q0 -13 -3 -29l-21 -107q-5 -20 -5 -44
q0 -81 73 -81h9l-11 -56q-4 -1 -16 -1q-15 0 -31.5 4.5t-38 16t-35.5 39t-14 67.5z" />
    <glyph glyph-name="braceright.case" horiz-adv-x="338" 
d="M-1 -10q7 0 15 1.5t23.5 8.5t28.5 19t26 37t19 59l22 112q9 47 36.5 81t68.5 46v2q-57 31 -57 98q0 13 3 29l18 96q5 28 5 44q0 35 -15.5 54.5t-29.5 23t-29 3.5h-9l11 56q5 1 16 1q15 0 31.5 -4.5t38 -16t35.5 -39t14 -67.5q0 -24 -6 -56l-16 -80q-3 -18 -3 -31
q0 -33 17.5 -55.5t48.5 -28.5l-12 -62q-39 -7 -68.5 -37.5t-38.5 -77.5l-19 -96q-35 -177 -183 -177q-9 0 -15 1l11 56h13z" />
    <glyph glyph-name="at.case" horiz-adv-x="777" 
d="M64 283q0 114 61 215t159.5 160.5t205.5 59.5q115 0 166.5 -43.5t51.5 -114.5q0 -20 -3 -39l-60 -307h71l-11 -56h-259q-80 0 -128 46.5t-48 117.5q0 85 70 152.5t162 67.5h139q2 12 2 19q0 43 -37.5 70.5t-113.5 27.5q-141 0 -249.5 -113t-108.5 -260
q0 -106 66.5 -174.5t177.5 -68.5l-12 -58q-130 0 -216 85t-86 213zM341 323q0 -47 31 -78t81 -31h124l54 275h-122q-66 0 -117 -50.5t-51 -115.5z" />
    <glyph glyph-name="guillemotleft.case" horiz-adv-x="523" 
d="M363 137l-129 207l206 204h79l-214 -209l126 -202h-68zM187 137l-129 207l192 204h79l-200 -209l127 -202h-69z" />
    <glyph glyph-name="guillemotright.case" horiz-adv-x="524" 
d="M214 137l199 209l-126 202h69l128 -207l-192 -204h-78zM23 137l215 209l-127 202h69l128 -207l-206 -204h-79z" />
    <glyph glyph-name="guilsinglleft.case" horiz-adv-x="341" 
d="M187 137l-129 207l192 204h79l-200 -209l127 -202h-69z" />
    <glyph glyph-name="guilsinglright.case" horiz-adv-x="337" 
d="M27 137l200 209l-127 202h69l129 -207l-192 -204h-79z" />
    <glyph glyph-name="endash.case" horiz-adv-x="652" 
d="M79 315l11 58h499l-10 -58h-500z" />
    <glyph glyph-name="emdash.case" horiz-adv-x="851" 
d="M79 315l10 58h700l-11 -58h-699z" />
    <glyph glyph-name="periodcentered.case" horiz-adv-x="229" 
d="M75 305l16 83h80l-15 -83h-81z" />
    <glyph glyph-name="questiondown.case" horiz-adv-x="451" 
d="M285 624l16 79h78l-16 -79h-78zM21 140q0 49 22 89.5t55 68.5t67 53.5t61.5 57.5t35.5 68l9 42h67l-9 -45q-10 -46 -38 -84t-60.5 -64t-63.5 -51.5t-52 -57.5t-21 -70q0 -41 29.5 -67.5t79.5 -26.5q68 0 130 42l29 -55q-75 -52 -166 -52q-79 0 -127 41.5t-48 110.5z" />
    <glyph glyph-name="exclamdown.case" horiz-adv-x="261" 
d="M154 624l16 79h79l-16 -79h-79zM38 0l104 519h64l-98 -519h-70z" />
    <glyph glyph-name="bullet.case" horiz-adv-x="459" 
d="M239 209q-59 0 -101 42t-42 101t42 101t101 42t100.5 -42t41.5 -101t-41.5 -101t-100.5 -42z" />
    <glyph glyph-name="zero.p_osf" horiz-adv-x="585" 
d="M46 203q0 83 33.5 162t101 134.5t153.5 55.5q97 0 146.5 -61.5t49.5 -155.5q0 -82 -33 -161t-100.5 -134t-153.5 -55q-99 0 -148 60.5t-49 154.5zM116 206q0 -68 32.5 -112t96.5 -44t114.5 45.5t75.5 110t25 129.5q0 69 -32.5 114t-96.5 45q-63 0 -114 -46.5t-76 -111.5
t-25 -130z" />
    <glyph glyph-name="one.p_osf" horiz-adv-x="464" 
d="M14 0l12 60h156l68 354l12 54h-2q-19 -14 -45 -28l-114 -61l-23 52l202 112h62l-93 -483h139l-12 -60h-362z" />
    <glyph glyph-name="two.p_osf" horiz-adv-x="532" 
d="M8 0l9 49q207 122 297.5 201t90.5 155q0 44 -32 66t-82 22q-81 0 -171 -80l-32 51q42 40 98 65.5t112 25.5q88 0 133 -40.5t45 -102.5q0 -93 -82 -172.5t-262 -179.5v-2q20 2 57 2h248l-12 -60h-417z" />
    <glyph glyph-name="three.p_osf" horiz-adv-x="529" 
d="M-26 -38l46 44q53 -72 154 -72q72 0 131.5 47.5t59.5 121.5q0 55 -43.5 84t-109.5 29h-52l-9 41l205 190q10 10 21.5 19t17.5 13l6 4v2q-20 -2 -57 -2h-227l11 60h384l-8 -42l-255 -230q30 -1 60.5 -9.5t60 -26.5t48 -51.5t18.5 -77.5q0 -98 -79 -166t-184 -68
q-59 0 -113.5 23t-85.5 67z" />
    <glyph glyph-name="four.p_osf" horiz-adv-x="583" 
d="M-17 37l9 45l418 461h76l-87 -446h108l-12 -60h-108l-29 -153h-68l30 153h-337zM83 97h249l57 292l16 66h-2q-24 -33 -47 -59l-273 -297v-2z" />
    <glyph glyph-name="five.p_osf" horiz-adv-x="538" 
d="M-14 -28l47 41q22 -33 61 -52t83 -19q78 0 142.5 49.5t64.5 133.5q0 57 -41.5 89t-103.5 32q-70 0 -135 -35l-42 15l99 317h331l-12 -60h-269l-51 -162l-14 -37h2q52 21 107 21q86 0 143 -47t57 -129q0 -110 -84 -179t-194 -69q-59 0 -110.5 23.5t-80.5 67.5z" />
    <glyph glyph-name="six.p_osf" horiz-adv-x="590" 
d="M54 222q0 51 15 110.5t47 119.5t75.5 109t106 79.5t133.5 30.5q74 0 134 -28l-34 -54q-34 21 -99 21q-103 0 -179 -79.5t-107 -189.5h2q33 37 82.5 58t101.5 21q87 0 139 -47.5t52 -126.5q0 -100 -74.5 -179t-184.5 -79q-98 0 -154 64t-56 170zM124 212q0 -64 38 -113
t104 -49q78 0 132 55.5t54 137.5q0 55 -35.5 86.5t-99.5 31.5q-71 0 -132 -45t-61 -104z" />
    <glyph glyph-name="seven.p_osf" horiz-adv-x="506" 
d="M10 -116l376 539l47 60v2q-17 -2 -52 -2h-308l11 60h444l-9 -45l-430 -614h-79z" />
    <glyph glyph-name="eight.p_osf" horiz-adv-x="587" 
d="M37 162q0 42 19 80.5t50.5 66.5t48.5 40.5t36 23.5q-64 47 -64 111q0 73 65 130t167 57q89 0 139.5 -39t50.5 -106q0 -101 -123 -208q77 -49 77 -120q0 -84 -77.5 -147t-180.5 -63q-90 0 -149 47t-59 127zM373 346q106 87 106 173q0 43 -33 67t-89 24q-69 0 -115 -36.5
t-46 -87.5q0 -21 9 -37.5t30.5 -31.5t37.5 -24t51 -24.5t49 -22.5zM108 166q0 -53 40 -85t98 -32q67 0 126.5 43t59.5 104q0 21 -10.5 38.5t-32.5 32.5t-41 25t-53 25t-51 24q-136 -75 -136 -175z" />
    <glyph glyph-name="nine.p_osf" horiz-adv-x="575" 
d="M44 -46q36 -20 99 -20q103 0 178.5 79t107.5 189h-2q-33 -37 -82.5 -58t-101.5 -21q-88 0 -139.5 47t-51.5 127q0 100 74.5 179t184.5 79q98 0 154 -63.5t56 -170.5q0 -65 -25 -140.5t-70.5 -145.5t-120 -116.5t-161.5 -46.5q-80 0 -134 29zM256 182q71 0 133 45t62 104
q0 64 -38.5 113.5t-104.5 49.5q-78 0 -132 -56.5t-54 -137.5q0 -54 35.5 -86t98.5 -32z" />
    <glyph glyph-name="zero.t_osf" horiz-adv-x="568" 
d="M38 203q0 83 33.5 162t101 134.5t153.5 55.5q97 0 146.5 -61.5t49.5 -155.5q0 -82 -33 -161t-100.5 -134t-153.5 -55q-99 0 -148 60.5t-49 154.5zM108 206q0 -68 32.5 -112t96.5 -44t114.5 45.5t75.5 110t25 129.5q0 69 -32.5 114t-96.5 45q-63 0 -114 -46.5t-76 -111.5
t-25 -130z" />
    <glyph glyph-name="one.t_osf" horiz-adv-x="568" 
d="M65 0l12 60h156l68 354l12 54h-2q-19 -14 -45 -28l-114 -61l-23 52l202 112h62l-93 -483h139l-12 -60h-362z" />
    <glyph glyph-name="two.t_osf" horiz-adv-x="568" 
d="M25 0l9 49q207 122 297.5 201t90.5 155q0 44 -32 66t-82 22q-81 0 -171 -80l-32 51q42 40 98 65.5t112 25.5q88 0 133 -40.5t45 -102.5q0 -93 -82 -172.5t-262 -179.5v-2q20 2 57 2h248l-12 -60h-417z" />
    <glyph glyph-name="three.t_osf" horiz-adv-x="568" 
d="M-7 -38l46 44q53 -72 154 -72q72 0 131.5 47.5t59.5 121.5q0 55 -43.5 84t-109.5 29h-52l-9 41l205 190q10 10 21.5 19t17.5 13l6 4v2q-20 -2 -57 -2h-227l11 60h384l-8 -42l-255 -230q30 -1 60.5 -9.5t60 -26.5t48 -51.5t18.5 -77.5q0 -98 -79 -166t-184 -68
q-59 0 -113.5 23t-85.5 67z" />
    <glyph glyph-name="four.t_osf" horiz-adv-x="568" 
d="M-24 37l9 45l418 461h76l-87 -446h108l-12 -60h-108l-29 -153h-68l30 153h-337zM76 97h249l57 292l16 66h-2q-24 -33 -47 -59l-273 -297v-2z" />
    <glyph glyph-name="five.t_osf" horiz-adv-x="568" 
d="M0 -28l47 41q22 -33 61 -52t83 -19q78 0 142.5 49.5t64.5 133.5q0 57 -41.5 89t-103.5 32q-70 0 -135 -35l-42 15l99 317h331l-12 -60h-269l-51 -162l-14 -37h2q53 21 107 21q86 0 143 -47t57 -129q0 -110 -84 -179t-194 -69q-59 0 -110.5 23.5t-80.5 67.5z" />
    <glyph glyph-name="six.t_osf" horiz-adv-x="568" 
d="M44 222q0 51 15 110.5t47 119.5t75.5 109t106 79.5t133.5 30.5q74 0 134 -28l-34 -54q-34 21 -99 21q-103 0 -179 -79.5t-107 -189.5h2q33 37 82.5 58t101.5 21q87 0 139 -47.5t52 -126.5q0 -100 -74.5 -179t-184.5 -79q-98 0 -154 64t-56 170zM114 212q0 -64 38 -113
t104 -49q78 0 132 55.5t54 137.5q0 55 -35.5 86.5t-99.5 31.5q-71 0 -132 -45t-61 -104z" />
    <glyph glyph-name="seven.t_osf" horiz-adv-x="568" 
d="M40 -116l376 539l47 60v2q-17 -2 -52 -2h-308l11 60h444l-9 -45l-430 -614h-79z" />
    <glyph glyph-name="eight.t_osf" horiz-adv-x="568" 
d="M29 162q0 42 19 80.5t50.5 66.5t48.5 40.5t36 23.5q-64 47 -64 111q0 73 65 130t167 57q89 0 139.5 -39t50.5 -106q0 -101 -123 -208q77 -49 77 -120q0 -84 -77.5 -147t-180.5 -63q-90 0 -149 47t-59 127zM365 346q106 87 106 173q0 43 -33 67t-89 24q-69 0 -115 -36.5
t-46 -87.5q0 -21 9 -37.5t30.5 -31.5t37.5 -24t51 -24.5t49 -22.5zM100 166q0 -53 40 -85t98 -32q67 0 126.5 43t59.5 104q0 21 -10.5 38.5t-32.5 32.5t-41 25t-53 25t-51 24q-136 -75 -136 -175z" />
    <glyph glyph-name="nine.t_osf" horiz-adv-x="568" 
d="M41 -46q36 -20 99 -20q103 0 178.5 79t107.5 189h-2q-33 -37 -82.5 -58t-101.5 -21q-88 0 -139.5 47t-51.5 127q0 100 74.5 179t184.5 79q98 0 154 -63.5t56 -170.5q0 -65 -25 -140.5t-70.5 -145.5t-120 -116.5t-161.5 -46.5q-80 0 -134 29zM253 182q71 0 133 45t62 104
q0 64 -38.5 113.5t-104.5 49.5q-78 0 -132 -56.5t-54 -137.5q0 -54 35.5 -86t98.5 -32z" />
    <glyph glyph-name="dollar.osf" horiz-adv-x="507" 
d="M6 85l46 45q66 -79 161 -79q55 0 98.5 30.5t43.5 81.5q0 29 -26.5 51t-64.5 38.5t-75.5 35.5t-64 50.5t-26.5 74.5q0 71 55.5 118.5t140.5 53.5l17 86h56l-18 -87q83 -10 134 -61l-41 -49q-20 22 -57 36t-76 14q-55 0 -97.5 -27.5t-42.5 -81.5q0 -30 26.5 -52t64.5 -38
t75.5 -34t64 -50t26.5 -76q0 -73 -58 -123t-144 -52l-18 -93h-56l19 96q-110 16 -163 92z" />
    <glyph glyph-name="cent.osf" horiz-adv-x="553" 
d="M203 -26l17 85q-80 11 -127.5 64t-47.5 134q0 112 79.5 191.5t188.5 91.5l17 85h57l-18 -85q97 -10 154 -78l-41 -48q-21 30 -58.5 47.5t-81.5 17.5q-89 0 -157.5 -63t-68.5 -155q0 -65 43 -104t113 -39q93 0 165 67l25 -55q-82 -72 -186 -75l-16 -81h-57z" />
    <glyph glyph-name="sterling.osf" horiz-adv-x="586" 
d="M1 0l10 60h64l36 185h-45l10 52h45l22 112q16 80 82 129t155 49q98 0 161 -54l-44 -47q-44 38 -120 38q-66 0 -111.5 -36t-55.5 -89l-21 -102h231l-10 -52h-230l-36 -185h338l-11 -60h-470z" />
    <glyph glyph-name="yen.osf" horiz-adv-x="600" 
d="M72 151l10 51h167l5 27l-22 51h-135l10 51h104l-102 246h75l83 -209l30 -83h2q29 46 57 83l162 209h84l-197 -246h104l-11 -51h-135l-40 -51l-5 -27h166l-10 -51h-166l-29 -151h-69l29 151h-167z" />
    <glyph glyph-name="florin.osf" horiz-adv-x="501" 
d="M-88 -62q22 -5 62 -5q18 0 35.5 4.5t40 16.5t42 40t30.5 68l72 256h-89l11 57h95l33 118q16 56 43.5 94.5t59.5 55.5t57.5 23t51.5 6q43 0 92 -9l-12 -58q-30 6 -79 6q-111 0 -148 -128l-31 -108h125l-11 -57h-130l-76 -269q-16 -56 -43.5 -94t-60 -54.5t-57.5 -22.5
t-51 -6q-32 0 -74 7z" />
    <glyph glyph-name="Euro.osf" horiz-adv-x="601" 
d="M35 203l10 49h64q2 36 10 68h-61l9 49h69q41 95 128 156.5t210 61.5q54 0 104 -15l-27 -56q-35 10 -77 10q-91 0 -158.5 -44t-102.5 -113h277l-20 -49h-279q-10 -30 -13 -68h268l-20 -49h-243q9 -68 60 -110.5t140 -42.5q46 0 90 13l3 -61q-40 -14 -95 -14
q-121 0 -190.5 60.5t-79.5 154.5h-76z" />
    <glyph glyph-name="zero.numerator" 
d="M193 258q-128 0 -128 142q0 46 10 96.5t31.5 101t62 83.5t94.5 33q127 0 127 -145q0 -45 -10 -95t-31.5 -100.5t-62 -83t-93.5 -32.5zM193 310q37 0 65.5 26.5t44 67.5t23 83t7.5 80q0 95 -71 95q-49 0 -82.5 -47t-45.5 -103t-12 -110q0 -92 71 -92z" />
    <glyph glyph-name="one.numerator" 
d="M75 268l10 50h94l55 285l7 24h-2q-5 -8 -25 -24l-46 -38l-29 40l119 99h52l-75 -386h92l-10 -50h-242z" />
    <glyph glyph-name="two.numerator" 
d="M48 268q1 55 30 97.5t69.5 68.5t81 49t68.5 52.5t28 64.5q0 27 -18.5 44.5t-49.5 17.5q-45 0 -100 -49l-31 38q61 63 134 63q57 0 90 -30.5t33 -79.5q0 -44 -24 -78.5t-60.5 -57.5t-73.5 -43.5t-68 -47.5t-40 -59h219l-10 -50h-278z" />
    <glyph glyph-name="three.numerator" 
d="M188 258q-88 0 -145 66l39 35q43 -49 107 -49q41 0 73.5 30t32.5 74q0 32 -25 50.5t-59 18.5h-33l-9 30l121 116l30 25v2q-19 -3 -37 -3h-152l10 51h262l-7 -37l-146 -139q37 -5 69.5 -33t32.5 -80q0 -62 -48 -109.5t-116 -47.5z" />
    <glyph glyph-name="four.numerator" 
d="M230 268l22 114h-213l7 38l266 284h58l-53 -272h65l-9 -50h-65l-23 -114h-55zM120 432h142l26 136l16 62h-2q-21 -27 -42 -49l-140 -147v-2z" />
    <glyph glyph-name="five.numerator" 
d="M184 258q-41 0 -77.5 18t-57.5 51l42 33q11 -21 36 -35.5t57 -14.5q44 0 81 33.5t37 79.5q0 34 -24.5 56t-61.5 22q-44 0 -82 -24l-32 13l66 214h219l-10 -51h-172l-24 -78l-13 -37h2q27 12 55 12q59 0 96.5 -35.5t37.5 -90.5q0 -65 -53 -115.5t-122 -50.5z" />
    <glyph glyph-name="six.numerator" 
d="M203 258q-63 0 -98 42t-35 113q0 42 16.5 93t45.5 98t75.5 78.5t100.5 31.5q55 0 91 -23l-28 -44q-32 15 -63 15q-53 0 -96.5 -44.5t-65.5 -109.5h2q42 40 103 40q53 0 85.5 -31.5t32.5 -84.5q0 -78 -50.5 -126t-115.5 -48zM204 310q47 0 77.5 35.5t30.5 84.5
q0 33 -20 52t-55 19q-41 0 -76 -27.5t-35 -63.5q0 -40 21 -70t57 -30z" />
    <glyph glyph-name="seven.numerator" 
d="M60 268l238 328l45 57v2q-20 -2 -51 -2h-171l10 51h290l-8 -38l-288 -398h-65z" />
    <glyph glyph-name="eight.numerator" 
d="M193 257q-58 0 -98.5 30.5t-40.5 84.5q0 33 21 65.5t39.5 48t37.5 26.5q-37 30 -37 72q0 60 47 94.5t105 34.5q54 0 89.5 -26.5t35.5 -72.5q0 -67 -81 -136q49 -34 49 -82q0 -56 -50.5 -97.5t-116.5 -41.5zM270 500q66 53 66 108q0 26 -21 40t-51 14q-35 0 -64.5 -20
t-29.5 -55q0 -13 4.5 -23t18 -20t20 -14.5t30 -16t27.5 -13.5zM194 307q40 0 74.5 25.5t34.5 61.5q0 17 -12 31.5t-23.5 21.5t-39 21t-36.5 19q-81 -47 -81 -111q0 -32 24.5 -50.5t58.5 -18.5z" />
    <glyph glyph-name="nine.numerator" 
d="M56 280l28 44q22 -14 64 -14q53 0 96 44t65 109h-2q-43 -40 -103 -40q-53 0 -85 32t-32 85q0 77 50 125.5t115 48.5q63 0 98.5 -42.5t35.5 -113.5q0 -42 -16.5 -92.5t-45.5 -97.5t-76 -78.5t-101 -31.5t-91 22zM218 470q40 0 75.5 28t35.5 64q0 40 -20.5 70t-57.5 30
q-47 0 -77.5 -36t-30.5 -85q0 -32 20.5 -51.5t54.5 -19.5z" />
    <glyph glyph-name="zero.denominator" 
d="M141 -10q-128 0 -128 142q0 46 10 96.5t31.5 101t62 83.5t94.5 33q127 0 127 -145q0 -45 -10 -95t-31.5 -100.5t-62 -83t-93.5 -32.5zM141 42q37 0 65.5 26.5t44 67.5t23 83t7.5 80q0 95 -71 95q-49 0 -82.5 -47t-45.5 -103t-12 -110q0 -92 71 -92z" />
    <glyph glyph-name="one.denominator" 
d="M22 0l10 50h94l55 285l7 24h-2q-5 -8 -25 -24l-46 -38l-29 40l119 99h52l-75 -386h92l-10 -50h-242z" />
    <glyph glyph-name="two.denominator" 
d="M-5 0q1 55 30 97.5t69.5 68.5t81 49t68.5 52.5t28 64.5q0 27 -18.5 44.5t-49.5 17.5q-45 0 -100 -49l-31 38q61 63 134 63q57 0 90 -30.5t33 -79.5q0 -44 -24 -78.5t-60.5 -57.5t-73.5 -43.5t-68 -47.5t-40 -59h219l-10 -50h-278z" />
    <glyph glyph-name="three.denominator" 
d="M135 -10q-88 0 -145 66l39 35q43 -49 107 -49q41 0 73.5 30t32.5 74q0 32 -25 50.5t-59 18.5h-33l-9 30l121 116l30 25v2q-19 -3 -37 -3h-152l10 51h262l-7 -37l-146 -139q37 -5 69.5 -33t32.5 -80q0 -62 -48 -109.5t-116 -47.5z" />
    <glyph glyph-name="four.denominator" 
d="M177 0l22 114h-213l7 38l266 284h58l-53 -272h65l-9 -50h-65l-23 -114h-55zM67 164h142l26 136l16 62h-2q-21 -27 -42 -49l-140 -147v-2z" />
    <glyph glyph-name="five.denominator" 
d="M132 -10q-41 0 -77.5 18t-57.5 51l42 33q11 -21 36 -35.5t57 -14.5q44 0 81 33.5t37 79.5q0 34 -24.5 56t-61.5 22q-44 0 -82 -24l-32 13l66 214h219l-10 -51h-172l-24 -78l-13 -37h2q27 12 55 12q59 0 96.5 -35.5t37.5 -90.5q0 -65 -53 -115.5t-122 -50.5z" />
    <glyph glyph-name="six.denominator" 
d="M150 -10q-63 0 -98 42t-35 113q0 42 16.5 93t45.5 98t75.5 78.5t100.5 31.5q55 0 91 -23l-28 -44q-32 15 -63 15q-53 0 -96.5 -44.5t-65.5 -109.5h2q42 40 103 40q53 0 85.5 -31.5t32.5 -84.5q0 -78 -50.5 -126t-115.5 -48zM151 42q47 0 77.5 35.5t30.5 84.5q0 33 -20 52
t-55 19q-41 0 -76 -27.5t-35 -63.5q0 -40 21 -70t57 -30z" />
    <glyph glyph-name="seven.denominator" 
d="M7 0l238 328l45 57v2q-20 -2 -51 -2h-171l10 51h290l-8 -38l-288 -398h-65z" />
    <glyph glyph-name="eight.denominator" 
d="M141 -10q-58 0 -98.5 30.5t-40.5 84.5q0 33 21 65.5t39.5 48t37.5 26.5q-37 30 -37 72q0 60 47 94.5t105 34.5q54 0 89.5 -26.5t35.5 -72.5q0 -67 -81 -136q49 -34 49 -82q0 -56 -50.5 -97.5t-116.5 -41.5zM218 233q66 53 66 108q0 26 -21 40t-51 14q-35 0 -64.5 -20
t-29.5 -55q0 -13 4.5 -23t18 -20t20 -14.5t30 -16t27.5 -13.5zM142 40q40 0 74.5 25.5t34.5 61.5q0 17 -12 31.5t-23.5 21.5t-39 21t-36.5 19q-81 -47 -81 -111q0 -32 24.5 -50.5t58.5 -18.5z" />
    <glyph glyph-name="nine.denominator" 
d="M4 12l28 44q22 -14 64 -14q53 0 96 44t65 109h-2q-43 -40 -103 -40q-53 0 -85 32t-32 85q0 77 50 125.5t115 48.5q63 0 98.5 -42.5t35.5 -113.5q0 -42 -16.5 -92.5t-45.5 -97.5t-76 -78.5t-101 -31.5t-91 22zM166 202q40 0 75.5 28t35.5 64q0 40 -20.5 70t-57.5 30
q-47 0 -77.5 -36t-30.5 -85q0 -32 20.5 -51.5t54.5 -19.5z" />
    <glyph glyph-name="uni0433.BUL" horiz-adv-x="438" 
d="M7 106q0 48 33.5 84t81.5 57.5t95.5 40.5t81 45t33.5 60q0 31 -24 46t-62 15q-80 0 -134 -44l-28 51q69 54 167 54q67 0 108 -30t41 -87q0 -49 -33.5 -85t-81 -57.5t-95 -40t-81 -44.5t-33.5 -59q0 -63 90 -63q93 0 160 60l33 -51q-87 -70 -199 -70q-70 0 -111.5 31
t-41.5 87z" />
    <glyph glyph-name="uni0434.BUL" horiz-adv-x="581" 
d="M38 -115q53 -33 132 -33q78 0 134 39t72 118l10 46l11 41h-2q-61 -93 -167 -93q-89 0 -140 54.5t-51 145.5q0 74 29.5 143.5t91.5 119t143 49.5q57 0 101 -21t59 -68h2q-1 11 1 22l11 55h66l-97 -497q-22 -112 -96.5 -164t-172.5 -52q-97 0 -170 42zM107 207
q0 -67 34.5 -105t97.5 -38t109 44t66 103t20 120q0 123 -128 123q-91 0 -145 -75t-54 -172z" />
    <glyph glyph-name="uni0436.BUL" horiz-adv-x="719" 
d="M-36 0l219 264v2l-107 237h70l97 -216h82l82 416h65l-81 -416h81l172 216h80l-201 -250v-2l119 -251h-74l-106 227h-83l-44 -227h-66l44 227h-80l-187 -227h-82z" />
    <glyph glyph-name="uni0438.BUL" horiz-adv-x="588" 
d="M47 118q0 23 7 67l62 318h68l-58 -299q-8 -42 -8 -69q0 -83 89 -83q81 0 146 67t81 153l45 231h68l-97 -503h-67l14 72l13 47h-2q-27 -48 -85 -89.5t-135 -41.5q-63 0 -102 31t-39 99z" />
    <glyph glyph-name="uni0439.BUL" horiz-adv-x="588" 
d="M47 118q0 23 7 67l62 318h68l-58 -299q-8 -42 -8 -69q0 -83 89 -83q81 0 146 67t81 153l45 231h68l-97 -503h-67l14 72l13 47h-2q-27 -48 -85 -89.5t-135 -41.5q-63 0 -102 31t-39 99zM351 569q-50 0 -84.5 27t-34.5 70q0 15 6 38h58q-4 -15 -4 -29q0 -26 17.5 -40.5
t44.5 -14.5q33 0 58.5 20.5t31.5 63.5h58q-10 -72 -52.5 -103.5t-98.5 -31.5z" />
    <glyph glyph-name="uni043A.BUL" horiz-adv-x="495" 
d="M24 0l138 703h68l-77 -392h77l189 192h86l-219 -221v-2l136 -280h-74l-120 251h-86l-50 -251h-68z" />
    <glyph glyph-name="uni043B.BUL" horiz-adv-x="509" 
d="M-32 0l290 503h74l94 -503h-69l-67 369l-5 60h-2q-15 -35 -30 -60l-211 -369h-74z" />
    <glyph glyph-name="uni043F.BUL" horiz-adv-x="593" 
d="M24 0l98 503h67l-13 -72l-14 -47h2q24 47 85 89t137 42q70 0 107 -33t37 -97q0 -28 -8 -66l-61 -319h-68l58 301q8 46 8 67q0 41 -23.5 62t-63.5 21q-83 0 -150 -64.5t-85 -153.5l-45 -233h-68z" />
    <glyph glyph-name="uni0442.BUL" horiz-adv-x="915" 
d="M24 0l98 503h67l-15 -74l-12 -45h2q29 55 87 93t120 38q68 0 99 -32t33 -94h2q31 54 88 90t119 36q68 0 104 -33.5t36 -97.5q0 -28 -8 -68l-61 -316h-68l58 302q8 38 8 64q0 86 -87 86q-76 0 -135.5 -66t-74.5 -148l-46 -238h-68l58 302q8 38 8 66q0 84 -84 84
q-75 0 -136 -65.5t-78 -149.5l-46 -237h-68z" />
    <glyph glyph-name="uni0446.BUL" horiz-adv-x="613" 
d="M47 118q0 23 7 67l62 318h68l-58 -301q-8 -37 -8 -67q0 -83 86 -83q83 0 150 64t84 154l45 233h68l-86 -443h78l-35 -180h-64l23 120h-80l13 72l14 47h-2q-25 -47 -85.5 -89t-136.5 -42q-69 0 -106 33t-37 97z" />
    <glyph glyph-name="uni0448.BUL" horiz-adv-x="915" 
d="M874 502l-98 -503h-67l15 74l12 45h-2q-29 -55 -87 -93t-120 -38q-68 0 -99 32t-33 94h-2q-31 -54 -88 -90t-119 -36q-68 0 -104 33.5t-36 97.5q0 28 8 68l61 316h68l-58 -302q-8 -38 -8 -64q0 -86 87 -86q76 0 135.5 66t74.5 148l46 238h68l-58 -302q-8 -38 -8 -66
q0 -84 84 -84q75 0 136 65.5t78 149.5l46 237h68z" />
    <glyph glyph-name="uni0449.BUL" horiz-adv-x="936" 
d="M874 502l-87 -442h79l-35 -180h-64l23 120h-14v-1h-67l15 74l12 45h-2q-29 -55 -87 -93t-120 -38q-68 0 -99 32t-33 94h-2q-31 -54 -88 -90t-119 -36q-68 0 -104 33.5t-36 97.5q0 28 8 68l61 316h68l-58 -302q-8 -38 -8 -64q0 -86 87 -86q76 0 135.5 66t74.5 148l46 238
h68l-58 -302q-8 -38 -8 -66q0 -84 84 -84q75 0 136 65.5t78 149.5l46 237h68z" />
    <glyph glyph-name="uni044A.BUL" horiz-adv-x="561" 
d="M110 139q0 23 6 49l49 256h-112l11 59h180l-28 -147q-4 -23 -11 -48h2q59 61 151 61q67 0 108.5 -38t41.5 -110q0 -93 -66 -163t-168 -70q-76 0 -120 40.5t-44 110.5zM179 151q-2 -48 24 -77t76 -29q68 0 113 51.5t45 119.5q0 96 -96 96q-66 0 -113.5 -47t-48.5 -114z
" />
    <glyph glyph-name="uni044C.BUL" horiz-adv-x="501" 
d="M50 139q0 21 5 49l61 315h68l-29 -147q-4 -23 -11 -48h2q59 61 151 61q68 0 109.5 -38t41.5 -110q0 -93 -66 -163t-168 -70q-76 0 -120 40.5t-44 110.5zM118 148q0 -48 26 -75.5t74 -27.5q68 0 113.5 51.5t45.5 119.5q0 96 -96 96q-67 0 -115 -48t-48 -116z" />
    <glyph glyph-name="uni044E.BUL" horiz-adv-x="807" 
d="M235 208v14h-100l-43 -222h-68l137 703h68l-83 -422h98q25 101 109 167.5t182 66.5t159.5 -60.5t61.5 -156.5q0 -127 -92 -218.5t-208 -91.5q-98 0 -159.5 61.5t-61.5 158.5zM305 210q0 -71 42.5 -115.5t109.5 -44.5q88 0 158.5 72t70.5 173q0 70 -42.5 114.5
t-109.5 44.5q-88 0 -158.5 -72t-70.5 -172z" />
    <glyph glyph-name="uni0432.BUL" horiz-adv-x="581" 
d="M52 178q0 20 8 64l38 196q23 121 95.5 199t181.5 78q70 0 113.5 -32.5t43.5 -87.5q0 -59 -48.5 -103t-116.5 -72v-2q27 -2 52.5 -11t50 -26.5t39.5 -50t15 -74.5q0 -108 -84 -188t-198 -80q-93 0 -141.5 53.5t-48.5 136.5zM145 347h2q28 42 97 73l79 35q141 65 141 135
q0 34 -27.5 50.5t-67.5 16.5q-80 0 -133 -60.5t-71 -150.5zM118 176q0 -61 35.5 -93.5t93.5 -32.5q85 0 145.5 64t60.5 142q0 61 -39.5 89.5t-94.5 28.5q-86 0 -143.5 -58.5t-57.5 -139.5z" />
    <glyph glyph-name="uni0437.BUL" horiz-adv-x="434" 
d="M-36 -112q48 -37 111 -37q81 0 140 52.5t59 128.5q0 116 -149 116h-51l11 57h51q68 0 123.5 45t55.5 111q0 44 -27.5 69t-74.5 25q-68 0 -133 -53l-30 50q81 63 175 63q77 0 119 -41t42 -103t-40 -114t-102 -78v-2q101 -37 101 -145q0 -99 -78.5 -170.5t-184.5 -71.5
q-93 0 -151 45z" />
    <glyph glyph-name="uni0414.ALT" horiz-adv-x="698" 
d="M-69 -140l39 202h71l351 641h73l101 -641h73l-39 -202h-66l28 140h-539l-27 -140h-65zM117 62h378l-71 468l-9 90h-2q-25 -57 -42 -90z" />
    <glyph glyph-name="uni041B.ALT" horiz-adv-x="616" 
d="M-36 0l388 703h73l115 -703h-70l-86 530l-7 90h-2q-25 -57 -43 -90l-290 -530h-78z" />
    <glyph glyph-name="uni0434.ALT" horiz-adv-x="579" 
d="M-57 -120l35 178h55l259 445h76l85 -445h58l-35 -178h-64l24 120h-406l-23 -120h-64zM105 58h281l-60 315l-6 60h-2q-16 -35 -30 -60z" />
    <glyph glyph-name="uni043B.ALT" horiz-adv-x="509" 
d="M-32 0l290 503h74l94 -503h-69l-67 369l-5 60h-2q-15 -35 -30 -60l-211 -369h-74z" />
    <glyph glyph-name="uni0409.ALT" horiz-adv-x="863" 
d="M-34 0l426 703h160l-59 -300h135q86 0 138 -45.5t52 -124.5q0 -95 -71.5 -164t-177.5 -69h-223l125 641h-38l-390 -641h-77zM427 62h138q75 0 128.5 48t53.5 119q0 55 -35 83.5t-93 28.5h-138z" />
    <glyph glyph-name="uni0459.ALT" horiz-adv-x="714" 
d="M-30 0l310 503h158l-38 -195h103q155 0 155 -130q0 -82 -58 -130t-148 -48h-180l87 447h-41l-276 -447h-72zM350 54h102q58 0 97.5 31t39.5 88q0 81 -97 81h-102z" />
    <glyph glyph-name="uni04C5.ALT" horiz-adv-x="675" 
d="M-36 0l387 703h73l106 -641h100l-9 -45l-96 -157h-56l73 140h-73l-86 530l-8 90h-2q-24 -57 -42 -90l-291 -530h-76z" />
    <glyph glyph-name="uni04C6.ALT" horiz-adv-x="556" 
d="M-32 0l290 503h73l84 -444h91l-8 -43l-83 -136h-53l63 120h-68l-68 369l-5 60h-2q-16 -35 -29 -60l-211 -369h-74z" />
    </font>
</defs>
</svg>
