<?xml version="1.0" standalone="no"?>
<!DOCTYPE svg PUBLIC "-//W3C//DTD SVG 1.1//EN" "http://www.w3.org/Graphics/SVG/1.1/DTD/svg11.dtd" >
<svg xmlns="http://www.w3.org/2000/svg" xmlns:xlink="http://www.w3.org/1999/xlink" version="1.1">
<metadata>
Created by FontForge 20170731 at Wed Feb  5 06:25:25 2014
 By Aleksey,,,
Copyright (c) 2012 by Jos Buivenga. All rights reserved.
</metadata>
<defs>
<font id="MuseoSansCyrillic-100" horiz-adv-x="376" >
  <font-face 
    font-family="Museo Sans Cyrillic"
    font-weight="100"
    font-stretch="normal"
    units-per-em="1000"
    panose-1="2 0 0 0 0 0 0 0 0 0"
    ascent="770"
    descent="-230"
    x-height="500"
    cap-height="700"
    bbox="-114 -212 1088 874"
    underline-thickness="50"
    underline-position="-200"
    unicode-range="U+0020-FB04"
  />
<missing-glyph horiz-adv-x="510" 
d="M505 0h-500v700h500v-700zM85 650l170 -255l170 255h-340zM455 605l-170 -255l170 -255v510zM55 605v-510l170 255zM255 305l-170 -255h340z" />
    <glyph glyph-name="f_f" unicode="ff" horiz-adv-x="612" 
d="M144 0h-42v462h-63v38h63v20q0 116 61 155q48 30 97 30q14 0 26 -2v-39q-8 2 -23 2q-39 0 -74 -24q-45 -28 -45 -121v-21h263v20q0 116 61 155q48 30 97 30q14 0 26 -2v-39q-8 2 -23 2q-39 0 -74 -24q-45 -28 -45 -121v-21h137v-38h-137v-462h-42v462h-263v-462z" />
    <glyph glyph-name="fi" unicode="fi" horiz-adv-x="514" 
d="M144 0h-42v462h-63v38h63v20q0 116 61 155q48 30 97 30q4 0 26 -2v-39q-10 2 -23 2q-39 0 -74 -24q-45 -28 -45 -121v-21h284v-500h-42v462h-242v-462zM432 627h-50v73h50v-73z" />
    <glyph glyph-name="fl" unicode="fl" horiz-adv-x="521" 
d="M144 0h-42v459h-63v38h63v23q0 116 61 155q48 30 97 30q4 0 26 -2v-39q-10 2 -23 2q-39 0 -74 -24q-45 -28 -45 -121v-24h137v-38h-137v-459zM381 101v599h42v-586q0 -78 59 -78q11 0 15 1v-39q-10 -2 -18 -2q-14 0 -28 3.5t-31.5 13.5t-28 32.5t-10.5 55.5z" />
    <glyph glyph-name="f_f_i" unicode="ffi" horiz-adv-x="819" 
d="M144 0h-42v462h-63v38h63v20q0 116 61 155q48 30 97 30q4 0 26 -2v-39q-10 2 -23 2q-39 0 -74 -24q-45 -28 -45 -121v-21h263v20q0 116 61 155q48 30 97 30q4 0 26 -2v-39q-10 2 -23 2q-39 0 -74 -24q-45 -28 -45 -121v-21h284v-500h-42v462h-242v-462h-42v462h-263v-462
zM737 627h-50v73h50v-73z" />
    <glyph glyph-name="f_f_l" unicode="ffl" horiz-adv-x="826" 
d="M144 0h-42v462h-63v38h63v20q0 116 61 155q48 30 97 30q4 0 26 -2v-39q-10 2 -23 2q-39 0 -74 -24q-45 -28 -45 -121v-21h263v20q0 116 61 155q48 30 97 30q4 0 26 -2v-39q-10 2 -23 2q-39 0 -74 -24q-45 -28 -45 -121v-21h137v-38h-137v-462h-42v462h-263v-462zM686 101
v599h42v-586q0 -78 59 -78q11 0 15 1v-39q-10 -2 -18 -2q-14 0 -28 3.5t-31.5 13.5t-28 32.5t-10.5 55.5z" />
    <glyph glyph-name="f_j" unicode="fj" horiz-adv-x="514" 
d="M144 0h-42v462h-63v38h63v20q0 116 61 155q48 30 97 30q4 0 26 -2v-39q-10 2 -23 2q-39 0 -74 -24q-45 -28 -45 -121v-21h284v-520q0 -116 -62 -155q-45 -30 -97 -30q-1 0 -25 2v39q8 -2 22 -2q40 0 74 24q46 28 46 121v483h-242v-462zM432 627h-50v73h50v-73z" />
    <glyph glyph-name=".notdef" horiz-adv-x="510" 
d="M505 0h-500v700h500v-700zM85 650l170 -255l170 255h-340zM455 605l-170 -255l170 -255v510zM55 605v-510l170 255zM255 305l-170 -255h340z" />
    <glyph glyph-name=".null" horiz-adv-x="0" 
 />
    <glyph glyph-name="nonmarkingreturn" horiz-adv-x="333" 
 />
    <glyph glyph-name="space" unicode=" " horiz-adv-x="250" 
 />
    <glyph glyph-name="exclam" unicode="!" horiz-adv-x="250" 
d="M146 175h-43v525h43v-525zM155 0h-59v61h59v-61z" />
    <glyph glyph-name="quotedbl" unicode="&#x22;" horiz-adv-x="313" 
d="M230 558h-43v151h43v-151zM126 558h-43v151h43v-151z" />
    <glyph glyph-name="numbersign" unicode="#" horiz-adv-x="731" 
d="M211 0h-43l35 199h-152l7 40h152l39 221h-152l7 40h152l35 200h43l-35 -200h189l35 200h43l-35 -200h149l-7 -40h-149l-39 -221h149l-7 -40h-149l-35 -199h-43l35 199h-189zM292 460l-39 -221h189l39 221h-189z" />
    <glyph glyph-name="dollar" unicode="$" horiz-adv-x="560" 
d="M72 75l29 33q33 -35 84 -56.5t103 -21.5q67 0 111 38q45 38 45 100q0 45 -26.5 79t-67 53.5t-87 41.5t-87 43t-67 58.5t-26.5 87.5q0 66 50 118t132 61v95h43v-94q97 -4 163 -64l-24 -37q-65 60 -153 60q-74 0 -120 -42t-46 -96q0 -88 127 -140q113 -45 155 -76
q80 -59 79 -146q0 -73 -50 -123.5t-131 -57.5v-93h-43v93q-119 8 -193 86z" />
    <glyph glyph-name="percent" unicode="%" horiz-adv-x="696" 
d="M282 489q-38 -38 -92 -38t-92 38t-38 92t38 92q37 39 92 39t92 -39q39 -37 39 -92t-39 -92zM110 0h-52l531 700h52zM128 517q25 -26 62 -26t62 26q26 26 26 64t-26 64q-25 27 -62 27t-62 -27q-25 -26 -25 -64t25 -64zM414 26q-38 38 -38 92t38 92q38 39 92 39t92 -39
q39 -38 39 -92q0 -55 -39 -92q-38 -38 -92 -38t-92 38zM444 182q-25 -26 -25 -64t25 -64t62 -26t62 26q26 26 26 64t-26 64q-25 27 -62 27t-62 -27z" />
    <glyph glyph-name="ampersand" unicode="&#x26;" horiz-adv-x="656" 
d="M64 191q0 67 35.5 119t96.5 69v2q-101 41 -101 157q0 78 55 126t149 48q35 0 74 -10l-14 -38q-37 8 -63 8q-68 0 -112 -37t-44 -96q0 -46 28 -89q35 -52 143 -52h163v102h43v-102h97v-40h-97v-112q0 -127 -58.5 -192.5t-164.5 -65.5q-102 0 -166 57q-64 58 -64 146z
M109 193q0 -71 51 -117t134 -46q180 0 180 216v112h-161q-99 0 -151.5 -44t-52.5 -121z" />
    <glyph glyph-name="quotesingle" unicode="'" horiz-adv-x="209" 
d="M126 558h-43v151h43v-151z" />
    <glyph glyph-name="parenleft" unicode="(" horiz-adv-x="264" 
d="M216 -95h-44q-110 194 -110 430q0 208 110 390h44q-113 -191 -113 -391q0 -230 113 -429z" />
    <glyph glyph-name="parenright" unicode=")" horiz-adv-x="264" 
d="M92 -95h-44q113 199 113 429q0 200 -113 391h44q110 -182 110 -390q0 -236 -110 -430z" />
    <glyph glyph-name="asterisk" unicode="*" horiz-adv-x="496" 
d="M247 477l-93 -133l-36 25l99 130v2l-156 47l13 42l155 -54l-5 164h47l-5 -164l156 53l14 -41l-157 -47v-2l98 -130l-35 -26l-93 134h-2z" />
    <glyph glyph-name="plus" unicode="+" horiz-adv-x="560" 
d="M259 263h-237v40h237v263h43v-263h236v-40h-236v-263h-43v263z" />
    <glyph glyph-name="comma" unicode="," horiz-adv-x="253" 
d="M94 -94h-42l53 155h56z" />
    <glyph glyph-name="hyphen" unicode="-" horiz-adv-x="432" 
d="M354 263h-276v40h276v-40z" />
    <glyph glyph-name="period" unicode="." horiz-adv-x="217" 
d="M139 0h-61v63h61v-63z" />
    <glyph glyph-name="slash" unicode="/" horiz-adv-x="389" 
d="M90 -42h-44l253 782h44z" />
    <glyph glyph-name="zero" unicode="0" horiz-adv-x="612" 
d="M542 350q0 -362 -236 -362t-236 362t236 362t236 -362zM497 350q0 320 -191 320t-191 -320q0 -143 39 -227q43 -93 152 -93t152 93q39 84 39 227z" />
    <glyph glyph-name="one" unicode="1" horiz-adv-x="452" 
d="M415 0h-357v40h159v570l1 35h-2q-8 -13 -37 -43l-83 -83l-30 29l151 152h43v-660h155v-40z" />
    <glyph glyph-name="two" unicode="2" horiz-adv-x="555" 
d="M490 0h-426q-3 20 -3 37q0 67 38.5 121.5t93.5 93t109.5 75.5t93 86t38.5 107q0 66 -45 108t-118 42q-50 0 -96 -27t-74 -73l-32 22q30 54 85.5 87t117.5 33q98 0 152 -56q55 -55 55 -136q0 -57 -28 -104q-9 -15 -21 -30t-21 -25.5t-27.5 -25t-26.5 -21t-31.5 -23.5
t-30.5 -22l-90 -64q-43 -31 -69.5 -74.5t-26.5 -90.5h383v-40z" />
    <glyph glyph-name="three" unicode="3" horiz-adv-x="557" 
d="M54 85l32 32q34 -38 85 -62.5t103 -24.5q70 0 122 48q53 50 53 124q0 78 -56 122q-55 45 -131 45h-48l-12 30l196 229l31 32v2q-26 -2 -54 -2h-287v40h401v-30l-226 -261q77 0 146 -41q39 -22 62 -65.5t23 -100.5q0 -89 -66 -152q-65 -62 -156 -62q-60 0 -117.5 26
t-100.5 71z" />
    <glyph glyph-name="four" unicode="4" horiz-adv-x="593" 
d="M401 200h-360v30l363 470h40v-460h104v-40h-104v-200h-43v200zM101 242v-2h300v328l3 63h-2q-14 -22 -35 -48z" />
    <glyph glyph-name="five" unicode="5" horiz-adv-x="549" 
d="M58 89l35 27q56 -86 162 -86q83 0 138 52q56 53 56 131q0 79 -56 132t-138 53q-77 0 -136 -42l-32 11l40 333h325v-40h-287l-25 -209l-7 -43h2q50 32 120 32q100 0 169 -66q70 -66 70 -161q0 -94 -70 -160q-71 -65 -169 -65q-60 0 -112.5 26.5t-84.5 74.5z" />
    <glyph glyph-name="six" unicode="6" horiz-adv-x="583" 
d="M66 314q0 140 69 263q35 62 95.5 98.5t135.5 36.5q67 0 123 -28l-21 -39q-43 25 -105 25q-75 0 -134 -50q-106 -91 -118 -272h2q29 44 82.5 70t115.5 26q94 0 154 -61q61 -61 61 -165q0 -106 -63 -168q-62 -62 -152 -62q-112 0 -179 94q-66 94 -66 232zM316 30
q74 0 119 53q46 53 46 137q0 83 -47 132.5t-125 49.5q-76 0 -135 -43q-59 -44 -59 -106q0 -28 12.5 -64.5t35.5 -72.5t63.5 -61t89.5 -25z" />
    <glyph glyph-name="seven" unicode="7" horiz-adv-x="518" 
d="M158 0h-45l292 595l37 65v2q-26 -2 -55 -2h-340v40h443v-30z" />
    <glyph glyph-name="eight" unicode="8" horiz-adv-x="589" 
d="M63 195q0 86 53 142q37 40 71 60q-90 55 -90 142q0 73 54 123q56 50 152 50q95 0 151.5 -48.5t56.5 -127.5q0 -46 -21 -92q-31 -68 -74 -107q104 -59 104 -150q0 -83 -66 -141q-64 -58 -159 -58q-91 0 -162 56q-70 57 -70 151zM376 356q90 86 90 177q0 63 -45 100
t-118 37t-117 -36.5t-44 -92.5q0 -58 53 -97q25 -17 51 -31l66 -30q41 -16 64 -27zM108 198q0 -74 56 -121t129 -47q70 0 126 44q56 45 56 110q0 63 -57 100q-24 16 -55 31q-21 11 -69 31q-34 14 -66 29q-25 -12 -70 -54q-50 -50 -50 -123z" />
    <glyph glyph-name="nine" unicode="9" horiz-adv-x="583" 
d="M94 16l21 39q43 -25 103 -25q77 0 135 49q107 94 119 273h-2q-29 -44 -82.5 -70t-115.5 -26q-94 0 -155 61q-60 61 -60 162q0 109 62 171t153 62q113 0 179 -94t66 -233t-69 -262q-35 -62 -96 -98.5t-136 -36.5q-67 0 -122 28zM274 298q77 0 136 44q58 45 58 95
q0 80 -56 157q-55 76 -139 76q-78 0 -124.5 -52.5t-46.5 -138.5q0 -83 47 -132t125 -49z" />
    <glyph glyph-name="colon" unicode=":" horiz-adv-x="213" 
d="M135 441h-57v59h57v-59zM135 0h-57v59h57v-59z" />
    <glyph glyph-name="semicolon" unicode=";" horiz-adv-x="275" 
d="M180 441h-57v59h57v-59zM119 -94h-41l45 155h52z" />
    <glyph glyph-name="less" unicode="&#x3c;" horiz-adv-x="560" 
d="M487 68l-439 197v36l439 197v-48l-377 -166v-2l377 -166v-48z" />
    <glyph glyph-name="equal" unicode="=" horiz-adv-x="560" 
d="M508 343h-456v40h456v-40zM508 183h-456v40h456v-40z" />
    <glyph glyph-name="greater" unicode="&#x3e;" horiz-adv-x="560" 
d="M512 265l-439 -197v48l377 166v2l-377 166v48l439 -197v-36z" />
    <glyph glyph-name="question" unicode="?" horiz-adv-x="435" 
d="M205 175h-43v44q0 84 63 143q3 3 22 20t24.5 22.5t20.5 21.5t20.5 25.5t14 25t11.5 31.5t3 33q0 55 -41.5 92t-104.5 37q-70 0 -127 -42l-23 34q27 22 68.5 36t80.5 14q86 0 138 -49q54 -49 54 -123q0 -85 -64 -144q-6 -5 -30.5 -28t-34 -33t-25 -30.5t-21.5 -41
t-6 -44.5v-44zM213 0h-59v61h59v-61z" />
    <glyph glyph-name="at" unicode="@" horiz-adv-x="761" 
d="M63 243q0 151 102 258t244 107q121 0 176 -51q56 -51 56 -126v-344h70v-40h-265q-80 0 -137 57q-56 58 -56 137q0 80 56 138q57 58 137 58h150q-3 60 -48 95.5t-133 35.5q-129 0 -218 -95t-89 -230q0 -136 88 -230q88 -93 219 -93v-42q-145 0 -249 107q-103 106 -103 258
zM451 87h145v310h-143q-65 0 -110 -46q-45 -47 -45 -110t44 -109q45 -45 109 -45z" />
    <glyph glyph-name="A" unicode="A" horiz-adv-x="624" 
d="M73 0h-46l262 700h46l262 -700h-46l-91 242h-297zM285 566l-107 -284h267l-106 284l-26 84h-2q-13 -47 -26 -84z" />
    <glyph glyph-name="B" unicode="B" horiz-adv-x="608" 
d="M352 0h-245v700h235q78 0 127 -48q50 -48 50 -127q0 -110 -91 -153v-2q54 -15 86.5 -63t32.5 -114q0 -88 -55 -140q-56 -53 -140 -53zM150 660v-272h191q60 0 96.5 37.5t36.5 99.5t-36.5 98.5t-97.5 36.5h-190zM150 348v-308h198q71 0 112.5 41t41.5 112q0 69 -43 112
t-112 43h-197z" />
    <glyph glyph-name="C" unicode="C" horiz-adv-x="719" 
d="M60 355q0 152 98 255q98 102 249 102q156 0 250 -88l-26 -32q-42 37 -102 58t-121 21q-132 0 -218 -90q-85 -88 -85 -226q0 -139 85 -233q86 -93 221 -93q139 0 237 95l27 -30q-109 -106 -264 -106q-156 0 -253 106q-98 107 -98 261z" />
    <glyph glyph-name="D" unicode="D" horiz-adv-x="738" 
d="M327 0h-220v700h220q158 0 253 -93q96 -93 96 -257q0 -165 -95 -258q-95 -92 -254 -92zM150 660v-620h170q142 0 226 81q85 81 85 229q0 147 -85 228q-83 82 -226 82h-170z" />
    <glyph glyph-name="E" unicode="E" horiz-adv-x="556" 
d="M509 0h-402v700h383v-40h-340v-287h279v-40h-279v-293h359v-40z" />
    <glyph glyph-name="F" unicode="F" horiz-adv-x="498" 
d="M150 0h-43v700h353v-40h-310v-292h268v-40h-268v-328z" />
    <glyph glyph-name="G" unicode="G" horiz-adv-x="754" 
d="M60 350q0 153 100 257q100 105 249 105q147 0 244 -79l-26 -33q-39 32 -99 51.5t-119 19.5q-131 0 -218 -92q-86 -92 -86 -229q0 -138 84 -229q86 -92 214 -92q68 0 131.5 30.5t108.5 84.5v135h-125v40h168v-319h-43v61l1 30h-2q-42 -47 -105.5 -75t-133.5 -28
q-146 0 -245 104q-98 106 -98 258z" />
    <glyph glyph-name="H" unicode="H" horiz-adv-x="744" 
d="M150 0h-43v700h43v-329h444v329h43v-700h-43v331h-444v-331z" />
    <glyph glyph-name="I" unicode="I" horiz-adv-x="257" 
d="M150 0h-43v700h43v-700z" />
    <glyph glyph-name="J" unicode="J" horiz-adv-x="509" 
d="M35 191v22h43v-23q0 -71 37.5 -116t105.5 -45q65 0 105 40.5t40 120.5v470h-167v40h210v-509q0 -105 -55 -154q-53 -49 -132 -49q-78 0 -133 49q-54 50 -54 154z" />
    <glyph glyph-name="K" unicode="K" horiz-adv-x="570" 
d="M150 0h-43v700h43v-312h130l200 312h52l-215 -330v-2l229 -368h-52l-214 348h-130v-348z" />
    <glyph glyph-name="L" unicode="L" horiz-adv-x="508" 
d="M484 0h-377v700h43v-660h334v-40z" />
    <glyph glyph-name="M" unicode="M" horiz-adv-x="834" 
d="M123 0h-43l56 700h42l204 -440l34 -79h2q19 48 34 79l204 440h42l56 -700h-43l-43 534l-3 93h-2q-19 -59 -36 -93l-188 -399h-44l-187 399l-37 95h-2q0 -61 -3 -95z" />
    <glyph glyph-name="N" unicode="N" horiz-adv-x="750" 
d="M150 0h-43v700h40l399 -549l57 -88h2q-5 58 -5 88v549h43v-700h-40l-399 549l-57 88h-2q5 -58 5 -88v-549z" />
    <glyph glyph-name="O" unicode="O" horiz-adv-x="826" 
d="M59 355q0 150 102 254q102 103 252 103t252 -103q102 -104 102 -254q0 -155 -102 -261t-252 -106t-252 106t-102 261zM104 355q0 -138 88 -232t221 -94q132 0 220 94q89 95 89 232q0 134 -89 225q-88 91 -220 91q-133 0 -221 -91q-88 -89 -88 -225z" />
    <glyph glyph-name="P" unicode="P" horiz-adv-x="589" 
d="M150 0h-43v700h230q92 0 153 -56q60 -56 60 -148q0 -94 -60 -150q-61 -56 -153 -56h-187v-290zM150 660v-330h185q78 0 124 44t46 122q0 77 -45.5 120.5t-124.5 43.5h-185z" />
    <glyph glyph-name="Q" unicode="Q" horiz-adv-x="827" 
d="M60 354q0 151 101 255q102 103 251 103q154 0 254 -103q102 -103 102 -255q0 -148 -92 -249l90 -93l-28 -27l-89 92q-98 -89 -237 -89q-151 0 -251 106q-101 107 -101 260zM105 354q0 -137 88 -231t219 -94q122 0 208 78l-90 93l28 27l89 -92q76 91 76 219q0 135 -89 226
q-88 91 -222 91q-131 0 -219 -91t-88 -226z" />
    <glyph glyph-name="R" unicode="R" horiz-adv-x="607" 
d="M150 0h-43v700h205q84 0 126 -21q45 -22 71 -66.5t26 -101.5q0 -74 -38.5 -126.5t-101.5 -66.5v-2q5 -5 16 -25l157 -291h-51l-166 310h-201v-310zM150 660v-310h190q68 0 109 44.5t41 116.5q0 46 -22 82t-60 53q-33 14 -98 14h-160z" />
    <glyph glyph-name="S" unicode="S" horiz-adv-x="524" 
d="M52 75l29 33q78 -78 184 -78q70 0 114.5 38t44.5 100q0 99 -127 151q-8 3 -30.5 12.5t-32.5 14t-31 14.5t-31.5 16.5t-28 18t-26.5 21t-20.5 23t-17 27t-9.5 31t-4 35.5q0 80 60 130q62 50 151 50q109 0 177 -65l-24 -37q-27 27 -70 43.5t-85 16.5q-69 0 -116 -37
q-48 -37 -48 -98q0 -91 126 -144q111 -44 152 -73q81 -58 80 -145q0 -80 -56 -133q-55 -52 -149 -52q-125 0 -212 87z" />
    <glyph glyph-name="T" unicode="T" horiz-adv-x="601" 
d="M322 0h-43v660h-261v40h565v-40h-261v-660z" />
    <glyph glyph-name="U" unicode="U" horiz-adv-x="721" 
d="M99 240v460h43v-458q0 -98 59 -155.5t159 -57.5t159.5 58t59.5 157v456h43v-460q0 -115 -73 -184q-73 -68 -188 -68q-117 0 -190 69q-72 69 -72 183z" />
    <glyph glyph-name="V" unicode="V" horiz-adv-x="621" 
d="M334 0h-47l-262 700h46l211 -566l27 -84h2q15 51 27 84l212 566h46z" />
    <glyph glyph-name="W" unicode="W" horiz-adv-x="914" 
d="M279 0h-54l-184 700h45l148 -570l17 -75h2q10 47 19 75l160 570h48l160 -570l19 -75h2q6 34 17 75l153 570h45l-189 -700h-54l-148 528l-27 111h-4q-14 -66 -27 -111z" />
    <glyph glyph-name="X" unicode="X" horiz-adv-x="555" 
d="M72 0h-51l226 370l-201 330h52l134 -223l46 -78h2q25 49 43 78l135 223h52l-203 -330l227 -370h-51l-162 266l-45 75h-2q-24 -47 -42 -76z" />
    <glyph glyph-name="Y" unicode="Y" horiz-adv-x="567" 
d="M305 0h-43v304l-238 396h49l166 -276l43 -79h2q23 47 43 79l166 276h49l-237 -396v-304z" />
    <glyph glyph-name="Z" unicode="Z" horiz-adv-x="565" 
d="M523 0h-488v34l385 562l48 64v2q-22 -2 -51 -2h-361v40h464v-34l-385 -562l-48 -64v-2q22 2 51 2h385v-40z" />
    <glyph glyph-name="bracketleft" unicode="[" horiz-adv-x="265" 
d="M206 -95h-108v820h108v-40h-65v-740h65v-40z" />
    <glyph glyph-name="backslash" unicode="\" horiz-adv-x="389" 
d="M343 -42h-44l-253 782h44z" />
    <glyph glyph-name="bracketright" unicode="]" horiz-adv-x="265" 
d="M59 -95v40h65v740h-65v40h108v-820h-108z" />
    <glyph glyph-name="asciicircum" unicode="^" horiz-adv-x="600" 
d="M123 252h-46l197 448h32l197 -448h-46l-167 388z" />
    <glyph glyph-name="underscore" unicode="_" horiz-adv-x="582" 
d="M43 -40v40h496v-40h-496z" />
    <glyph glyph-name="grave" unicode="`" horiz-adv-x="509" 
d="M316 750h-44l-79 111h56z" />
    <glyph glyph-name="a" unicode="a" horiz-adv-x="508" 
d="M41 133q0 98 94 139q55 23 116 28q47 5 100 5h33v17q0 149 -137 149q-80 0 -143 -48l-24 34q29 25 75 40t94 15q87 0 132 -48t45 -141v-323h-42v66l4 45h-2q-21 -54 -68 -88.5t-107 -34.5q-69 0 -119 37q-51 37 -51 108zM85 136q0 -45 35 -77t93 -32q77 0 124 65
q47 67 47 147v27h-32q-38 0 -51 -1q-23 0 -56 -4q-36 -3 -60 -12q-43 -13 -73 -41t-27 -72z" />
    <glyph glyph-name="b" unicode="b" horiz-adv-x="578" 
d="M129 0h-42v700h42v-260l-4 -41h2q23 52 71 82.5t110 30.5q99 0 157 -72q59 -73 59 -190q0 -118 -63 -190q-62 -72 -161 -72q-56 0 -103 31t-70 82h-2q4 -16 4 -44v-57zM128 249q0 -91 45 -155q47 -65 129 -65q76 0 127 59q51 60 51 162q0 101 -49 160q-48 61 -125 61
q-79 0 -128.5 -57.5t-49.5 -164.5z" />
    <glyph glyph-name="c" unicode="c" horiz-adv-x="540" 
d="M310 512q114 0 179 -71l-26 -34q-27 29 -68.5 46.5t-84.5 17.5q-90 0 -152 -62t-62 -160q0 -97 62 -159q61 -61 152 -61q48 0 92.5 19t74.5 53l22 -35q-32 -36 -82.5 -57t-106.5 -21q-109 0 -184 72q-74 74 -74 189t75 189q77 74 183 74z" />
    <glyph glyph-name="d" unicode="d" horiz-adv-x="578" 
d="M278 512q56 0 102.5 -30.5t70.5 -82.5h2q-4 16 -4 41v260h42v-700h-42v63l4 38h-2q-23 -51 -70 -82t-111 -31q-100 0 -158 72q-58 71 -58 190q0 117 62 190q63 72 162 72zM98 250q0 -100 48 -161q50 -60 126 -60q79 0 128.5 57.5t49.5 164.5q0 91 -46 155q-45 65 -128 65
q-76 0 -127 -60q-51 -59 -51 -161z" />
    <glyph glyph-name="e" unicode="e" horiz-adv-x="549" 
d="M52 249q0 121 71 192t172 71q97 0 150 -66q54 -64 54 -162q0 -3 -2 -27h-401q0 -106 61 -167t153 -61t155 63l23 -35q-33 -31 -81.5 -50t-96.5 -19q-109 0 -184 72q-74 74 -74 189zM99 296h356q-4 85 -48 131t-113 46q-74 0 -128.5 -47.5t-66.5 -129.5z" />
    <glyph glyph-name="f" unicode="f" horiz-adv-x="307" 
d="M144 0h-42v459h-63v38h63v23q0 116 61 155q48 30 97 30q4 0 26 -2v-39q-10 2 -23 2q-39 0 -74 -24q-45 -28 -45 -121v-24h137v-38h-137v-459z" />
    <glyph glyph-name="g" unicode="g" horiz-adv-x="571" 
d="M98 -171l20 37q65 -35 134 -35q88 0 139 43.5t51 128.5v58l4 41h-2q-50 -102 -168 -102q-98 0 -160 71t-62 187q0 118 58 185q58 69 157 69q60 0 107 -25.5t67 -72.5h2q-3 8 -3 19v67h42v-497q0 -107 -66 -160q-65 -53 -163 -53q-81 0 -157 39zM98 258q0 -99 49.5 -158
t131.5 -59q76 0 120 53.5t44 163.5q0 213 -174 213q-81 0 -126 -56t-45 -157z" />
    <glyph glyph-name="h" unicode="h" horiz-adv-x="586" 
d="M129 0h-42v700h42v-288l-4 -41h2q16 46 73 94q56 47 139 47q90 0 127.5 -48t37.5 -147v-317h-42v302q0 58 -11 96q-21 73 -112 73q-88 0 -149 -64t-61 -161v-246z" />
    <glyph glyph-name="i" unicode="i" horiz-adv-x="216" 
d="M133 627h-50v73h50v-73zM129 0h-42v500h42v-500z" />
    <glyph glyph-name="j" unicode="j" horiz-adv-x="216" 
d="M133 627h-50v73h50v-73zM87 -21v521h42v-520q0 -116 -62 -155q-45 -30 -97 -30q-1 0 -25 2v39q8 -2 22 -2q40 0 74 24q46 28 46 121z" />
    <glyph glyph-name="k" unicode="k" horiz-adv-x="473" 
d="M129 0h-42v700h42v-397h89l162 197h55l-181 -215v-2l198 -283h-53l-181 264h-89v-264z" />
    <glyph glyph-name="l" unicode="l" horiz-adv-x="227" 
d="M87 101v599h42v-586q0 -78 59 -78q11 0 15 1v-39q-10 -2 -18 -2q-14 0 -28 3.5t-31.5 13.5t-28 32.5t-10.5 55.5z" />
    <glyph glyph-name="m" unicode="m" horiz-adv-x="918" 
d="M129 0h-42v500h42v-88l-4 -41h2q20 57 76 98q58 43 116 43q73 0 111.5 -33.5t46.5 -102.5h2q22 54 75 95t115 41q90 0 128.5 -48t38.5 -147v-317h-42v302q0 87 -27.5 129t-97.5 42q-78 0 -132 -69t-54 -155v-249h-42v302q0 62 -12 97q-22 74 -110 74q-79 0 -135 -69
q-55 -68 -55 -155v-249z" />
    <glyph glyph-name="n" unicode="n" horiz-adv-x="586" 
d="M129 0h-42v500h42v-88l-4 -41h2q16 46 73 94q56 47 139 47q90 0 127.5 -48t37.5 -147v-317h-42v302q0 58 -11 96q-21 73 -112 73q-88 0 -149 -64q-61 -62 -61 -158v-249z" />
    <glyph glyph-name="o" unicode="o" horiz-adv-x="620" 
d="M51 253q0 109 75 184q76 75 184 75t183 -75q76 -75 76 -184q0 -112 -76 -188q-75 -77 -183 -77q-107 0 -184 77q-75 77 -75 188zM95 253q0 -95 62 -160q63 -64 153 -64q91 0 152 64q63 65 63 160q0 92 -63 155q-62 63 -152 63t-153 -63q-62 -64 -62 -155z" />
    <glyph glyph-name="p" unicode="p" horiz-adv-x="578" 
d="M129 -200h-42v700h42v-60l-3 -40h2q22 52 70 82t110 30q99 0 157 -72q59 -73 59 -190t-62 -190q-62 -72 -160 -72q-57 0 -104 30t-71 83h-2q4 -16 4 -44v-257zM128 249q0 -88 47 -155q47 -65 127 -65q76 0 127 59q51 60 51 162q0 101 -49 160q-48 61 -125 61
q-79 0 -128.5 -57.5t-49.5 -164.5z" />
    <glyph glyph-name="q" unicode="q" horiz-adv-x="578" 
d="M278 512q57 0 103 -30.5t69 -81.5h2q-3 17 -3 40v60h42v-700h-42v257l4 44h-2q-23 -50 -69 -81.5t-112 -31.5q-100 0 -158 72q-58 71 -58 190q0 117 62 190q63 72 162 72zM98 250q0 -100 48 -161q50 -60 126 -60q79 0 128.5 57.5t49.5 164.5q0 91 -46 155q-45 65 -128 65
q-76 0 -127 -60q-51 -59 -51 -161z" />
    <glyph glyph-name="r" unicode="r" horiz-adv-x="340" 
d="M129 0h-42v500h42v-95l-4 -41h2q21 63 63 101.5t97 38.5q15 0 29 -3v-42q-8 2 -23 2q-55 0 -94 -41q-70 -74 -70 -204v-216z" />
    <glyph glyph-name="s" unicode="s" horiz-adv-x="430" 
d="M41 60l27 32q60 -63 155 -63q50 0 82.5 25.5t32.5 68.5q0 61 -97 98q-93 34 -124 57q-54 40 -54 99q0 65 46 99q47 36 114 36q95 0 148 -54l-25 -34q-44 47 -126 47q-50 0 -81.5 -23.5t-31.5 -67.5q0 -62 97 -100q91 -34 122 -55q55 -41 56 -102q0 -60 -45 -97.5
t-115 -37.5q-115 0 -181 72z" />
    <glyph glyph-name="t" unicode="t" horiz-adv-x="304" 
d="M102 181v278h-66v38h66v142h42v-142h131v-38h-131v-275q0 -92 45 -125q34 -24 74 -24q13 0 23 2v-39q-10 -2 -25 -2q-19 0 -37 3t-41 14.5t-40 30.5t-29 54.5t-12 82.5z" />
    <glyph glyph-name="u" unicode="u" horiz-adv-x="580" 
d="M81 183v317h42v-302q0 -58 11 -97q22 -72 112 -72t147 67q58 67 58 160v244h42v-500h-42v88l4 41h-2q-17 -49 -72 -95t-135 -46q-88 0 -126.5 47t-38.5 148z" />
    <glyph glyph-name="v" unicode="v" horiz-adv-x="496" 
d="M268 0h-40l-197 500h45l154 -392l17 -54h2q7 26 17 54l154 392h44z" />
    <glyph glyph-name="w" unicode="w" horiz-adv-x="823" 
d="M255 0h-45l-176 500h45l136 -392l17 -54h2l17 54l137 390h47l137 -390l17 -54h2q6 23 17 54l136 392h45l-176 -500h-45l-139 388l-17 54h-2q-7 -26 -17 -54z" />
    <glyph glyph-name="x" unicode="x" horiz-adv-x="462" 
d="M74 0h-52l180 264l-161 236h51l121 -182l17 -28h2l17 28l121 182h51l-161 -236l180 -264h-52l-138 207l-18 29h-2q-9 -16 -18 -29z" />
    <glyph glyph-name="y" unicode="y" horiz-adv-x="517" 
d="M22 -182l19 36q29 -24 62 -24q61 0 98 90l36 83l-207 497h45l165 -399l18 -47h2q11 34 17 47l165 399h45l-257 -617q-39 -93 -127 -93q-43 0 -71 21z" />
    <glyph glyph-name="z" unicode="z" horiz-adv-x="487" 
d="M448 0h-410v34l303 381l39 46v2q-24 -2 -51 -2h-278v39h386v-34l-304 -381l-40 -46v-2q26 2 52 2h303v-39z" />
    <glyph glyph-name="braceleft" unicode="{" horiz-adv-x="326" 
d="M132 88v94q0 47 -22 78.5t-63 40.5v40q85 19 85 119v81q0 58 15.5 99t41.5 57q42 27 79 27h9v-39h-6q-26 0 -56 -21q-40 -28 -40 -122v-93q0 -91 -79 -127v-2q79 -31 79 -127v-106q0 -94 40 -122q30 -21 56 -21h6v-39q-2 -1 -9 -1q-31 0 -61 16q-72 33 -75 168z" />
    <glyph glyph-name="bar" unicode="|" horiz-adv-x="235" 
d="M139 -155h-43v940h43v-940z" />
    <glyph glyph-name="braceright" unicode="}" horiz-adv-x="326" 
d="M49 -95v39h6q26 0 56 21q40 28 40 122v106q0 96 79 127v2q-35 15 -57 49t-22 78v93q0 94 -40 122q-30 21 -56 21h-6v39h9q37 0 79 -27q26 -16 41.5 -57t15.5 -99v-81q0 -46 22 -78t63 -41v-40q-41 -8 -63 -40t-22 -79v-94q0 -94 -39 -139q-44 -48 -97 -45z" />
    <glyph glyph-name="asciitilde" unicode="~" horiz-adv-x="593" 
d="M119 213h-40q0 72 30.5 108t84.5 36q31 0 55.5 -11.5t40 -27.5t30 -32t35 -27.5t45.5 -11.5q31 0 49 21q26 30 26 85h40q0 -72 -30.5 -108t-84.5 -36q-31 0 -55.5 11.5t-40 27.5t-30 32t-35 27.5t-45.5 11.5q-31 0 -49 -21q-26 -30 -26 -85z" />
    <glyph glyph-name="uni00A0" unicode="&#xa0;" horiz-adv-x="250" 
 />
    <glyph glyph-name="exclamdown" unicode="&#xa1;" horiz-adv-x="227" 
d="M92 325h43v-525h-43v525zM83 500h59v-61h-59v61z" />
    <glyph glyph-name="cent" unicode="&#xa2;" horiz-adv-x="560" 
d="M312 -13h-43v84q-102 9 -156 86q-53 79 -53 193q0 115 53 192q54 78 156 87v83h43v-83q122 -11 185 -142l-41 -16q-56 116 -163 116q-92 0 -140 -64t-48 -173t48 -173t140 -64q107 0 163 116l41 -16q-64 -132 -185 -142v-84z" />
    <glyph glyph-name="sterling" unicode="&#xa3;" horiz-adv-x="560" 
d="M509 0h-459v40h65v293h-45v40h45v162q0 75 56 126q55 51 141 51q82 0 147 -51l-29 -33q-50 42 -119 42q-70 0 -111.5 -39t-41.5 -100v-158h198v-40h-198v-293h351v-40z" />
    <glyph glyph-name="currency" unicode="&#xa4;" horiz-adv-x="585" 
d="M176 0h-43v190h-74v40h74v80h-74v40h74v350h197q92 0 153 -53q60 -53 60 -141q0 -89 -60 -143q-61 -53 -153 -53h-154v-80h255v-40h-255v-190zM176 660v-310h152q78 0 124 42t46 114t-45.5 113t-124.5 41h-152z" />
    <glyph glyph-name="yen" unicode="&#xa5;" horiz-adv-x="560" 
d="M259 222h-163v40h163v42l-29 48h-134v40h110l-185 308h49l166 -276l43 -79h2q23 47 43 79l166 276h49l-185 -308h108v-40h-132l-28 -48v-42h160v-40h-160v-222h-43v222z" />
    <glyph glyph-name="section" unicode="&#xa7;" horiz-adv-x="387" 
d="M184 62h-42l-67 474q-2 22 -2 25q0 64 44 108q44 43 114 43q53 0 93 -33l-26 -32q-32 24 -68 24q-49 0 -81 -31.5t-32 -81.5q0 -3 2 -21zM63 -29l26 32q30 -24 68 -24q49 0 80.5 31.5t31.5 81.5q0 16 -1 21l-65 475h42l67 -474q2 -24 2 -25q0 -65 -45 -108
q-44 -43 -113 -43q-48 0 -93 33z" />
    <glyph glyph-name="dieresis" unicode="&#xa8;" horiz-adv-x="509" 
d="M346 788h-46v73h46v-73zM209 788h-46v73h46v-73z" />
    <glyph glyph-name="copyright" unicode="&#xa9;" horiz-adv-x="835" 
d="M64 350q0 152 103 256q103 106 249 106q149 0 252 -106q104 -106 104 -256q0 -151 -104 -257q-104 -105 -252 -105q-147 0 -250 105q-102 105 -102 257zM109 350q0 -137 88 -228q89 -92 219 -92q132 0 221 92q90 92 90 228t-90 227q-88 93 -221 93q-130 0 -219 -93
q-88 -91 -88 -227zM428 560q47 0 91 -24t72 -64l-33 -29q-21 33 -56 53.5t-73 20.5q-81 0 -126 -50q-45 -49 -45 -117t45 -118q45 -49 126 -49q38 0 72.5 20t56.5 54l33 -29q-25 -38 -70.5 -63t-92.5 -25q-101 0 -158 62t-57 147t57 148t158 63z" />
    <glyph glyph-name="ordfeminine" unicode="&#xaa;" horiz-adv-x="423" 
d="M197 382q-47 0 -79 25t-32 68q0 111 194 111h14v4q0 83 -76 83q-45 0 -86 -29l-22 30q45 36 109 36q114 0 114 -120v-202h-39v51h-2q-13 -24 -38.5 -40.5t-56.5 -16.5zM198 419q44 0 69 37q27 38 27 84v10h-13q-154 0 -154 -71q0 -26 19 -43t52 -17zM336 263h-253v37h253
v-37z" />
    <glyph glyph-name="guillemotleft" unicode="&#xab;" horiz-adv-x="494" 
d="M379 77l-164 205l164 206h53l-164 -206l164 -205h-53zM272 77h-53l-164 205l164 206h53l-164 -206z" />
    <glyph glyph-name="logicalnot" unicode="&#xac;" horiz-adv-x="629" 
d="M504 343h-414v40h456v-219h-42v179z" />
    <glyph glyph-name="uni00AD" unicode="&#xad;" horiz-adv-x="432" 
d="M354 263h-276v40h276v-40z" />
    <glyph glyph-name="registered" unicode="&#xae;" horiz-adv-x="835" 
d="M64 350q0 152 103 256q103 106 249 106q149 0 252 -106q104 -106 104 -256q0 -151 -104 -257q-104 -105 -252 -105q-147 0 -250 105q-102 105 -102 257zM109 350q0 -137 88 -228q89 -92 219 -92q132 0 221 92q90 92 90 228t-90 227q-88 93 -221 93q-130 0 -219 -93
q-88 -91 -88 -227zM344 150h-44v400h133q51 0 83.5 -32t32.5 -84q0 -41 -21.5 -70t-55.5 -37v-2q2 -2 13 -22l79 -153h-49l-85 167h-86v-167zM344 510v-155h84q35 0 55.5 21t20.5 58q0 36 -20.5 56t-55.5 20h-84z" />
    <glyph glyph-name="overscore" unicode="&#xaf;" horiz-adv-x="509" 
d="M374 786h-239v40h239v-40z" />
    <glyph glyph-name="degree" unicode="&#xb0;" horiz-adv-x="388" 
d="M286 487q-38 -38 -92 -38t-92 38t-38 92t38 92q38 39 92 39t92 -39q39 -37 39 -92t-39 -92zM132 515q25 -26 62 -26t62 26q26 26 26 64t-26 64q-25 27 -62 27t-62 -27q-25 -26 -25 -64t25 -64z" />
    <glyph glyph-name="plusminus" unicode="&#xb1;" horiz-adv-x="560" 
d="M259 263h-237v40h237v263h43v-263h236v-40h-236v-263h-43v263zM42 -153v40h476v-40h-476z" />
    <glyph glyph-name="twosuperior" unicode="&#xb2;" 
d="M320 423h-266q-2 24 -2 27q0 83 78 139q7 5 37.5 25t41.5 29t30 27t26.5 36t7.5 38q0 36 -26 61.5t-65 25.5q-53 0 -94 -50l-24 26q19 26 51.5 43t66.5 17q60 0 95 -34.5t35 -88.5q0 -76 -77 -128q-8 -6 -37 -24.5t-41 -28t-31 -27.5t-26.5 -36.5t-8.5 -40.5h229v-36z
" />
    <glyph glyph-name="threesuperior" unicode="&#xb3;" 
d="M179 413q-91 0 -138 65l28 26q16 -23 46.5 -39t64.5 -16q39 0 71 29q32 30 32 72t-32 69t-75 27h-32l-11 24l108 127l25 25v2q-18 -3 -38 -3h-164v36h255v-26l-128 -150q52 -5 91 -35q40 -31 40 -96q0 -57 -43 -97q-41 -40 -100 -40z" />
    <glyph glyph-name="acute" unicode="&#xb4;" horiz-adv-x="509" 
d="M237 750h-44l67 111h56z" />
    <glyph glyph-name="mu" unicode="&#xb5;" horiz-adv-x="578" 
d="M132 39h-2q6 -51 6 -72v-167h-42v700h42v-302q0 -70 19 -116q24 -53 103 -53q92 0 149 67q57 68 57 160v244h42v-500h-42v83l2 41h-2q-7 -19 -28 -48q-17 -24 -39 -41q-55 -47 -140 -47q-91 0 -125 51z" />
    <glyph glyph-name="mu" unicode="&#x3bc;" horiz-adv-x="578" 
d="M132 39h-2q6 -51 6 -72v-167h-42v700h42v-302q0 -70 19 -116q24 -53 103 -53q92 0 149 67q57 68 57 160v244h42v-500h-42v83l2 41h-2q-7 -19 -28 -48q-17 -24 -39 -41q-55 -47 -140 -47q-91 0 -125 51z" />
    <glyph glyph-name="paragraph" unicode="&#xb6;" horiz-adv-x="543" 
d="M324 -50h-42v291q-99 0 -169 67q-71 68 -71 163q0 96 70 162q70 67 169 67h210v-40h-167v-710zM428 -50h-42v647h42v-647z" />
    <glyph glyph-name="middot" unicode="&#xb7;" horiz-adv-x="217" 
d="M139 255h-61v63h61v-63z" />
    <glyph glyph-name="cedilla" unicode="&#xb8;" horiz-adv-x="509" 
d="M221 -92l-12 -1l24 111l32 -5v-8l-12 -65q31 -5 50 -23t19 -45q0 -38 -25 -57t-66 -19q-27 0 -44 4v38q18 -5 41 -5q54 0 54 37q0 38 -61 38z" />
    <glyph glyph-name="onesuperior" unicode="&#xb9;" 
d="M310 423h-227v36h96v325l1 22h-1q-6 -10 -23 -27l-44 -43l-26 27l93 94h38v-398h93v-36z" />
    <glyph glyph-name="ordmasculine" unicode="&#xba;" horiz-adv-x="488" 
d="M80 549q0 68 47 115q49 47 116 47q68 0 115 -47q48 -46 48 -115q0 -70 -48 -118q-46 -48 -115 -48q-68 0 -116 48q-47 49 -47 118zM367 549q0 54 -36 89.5t-88 35.5t-88 -35.5t-36 -89.5q0 -55 36 -92t88 -37t88 37t36 92zM392 263h-294v37h294v-37z" />
    <glyph glyph-name="guillemotright" unicode="&#xbb;" horiz-adv-x="494" 
d="M275 77h-53l164 205l-164 206h53l164 -206zM115 77h-53l164 205l-164 206h53l164 -206z" />
    <glyph glyph-name="onequarter" unicode="&#xbc;" horiz-adv-x="911" 
d="M799 0h-38v121h-215v26l222 287h31v-277h68v-36h-68v-121zM601 159v-2h160v147l3 65h-2q-16 -26 -35 -50zM290 266h-227v36h96v325l1 22h-1q-6 -10 -23 -27l-44 -43l-26 27l93 94h38v-398h93v-36zM630 700l-335 -700h-44l336 700h43z" />
    <glyph glyph-name="onehalf" unicode="&#xbd;" horiz-adv-x="899" 
d="M630 700l-335 -700h-44l336 700h43zM290 266h-227v36h96v325l1 22h-1q-6 -10 -23 -27l-44 -43l-26 27l93 94h38v-398h93v-36zM842 0h-266q-2 24 -2 27q0 38 16.5 69.5t41 51.5t53 40.5t53 37.5t41 41.5t16.5 53.5q0 36 -26 61.5t-65 25.5q-53 0 -94 -50l-24 26
q19 26 51.5 43t66.5 17q60 0 95 -35t35 -88q0 -76 -77 -128q-8 -6 -37 -24.5t-41 -28t-31 -27.5t-26.5 -36.5t-8.5 -40.5h229v-36z" />
    <glyph glyph-name="threequarters" unicode="&#xbe;" horiz-adv-x="934" 
d="M822 0h-38v121h-215v26l222 287h31v-277h68v-36h-68v-121zM624 159v-2h160v147l3 65h-2q-16 -26 -35 -50zM189 256q-91 0 -138 65l28 26q16 -23 46.5 -39t64.5 -16q39 0 71 29q32 30 32 72t-32 69t-75 27h-32l-11 24l108 127l25 25v2q-18 -3 -38 -3h-164v36h255v-26
l-128 -150q52 -5 91 -35q40 -31 40 -96q0 -57 -43 -97q-41 -40 -100 -40zM653 700l-335 -700h-44l336 700h43z" />
    <glyph glyph-name="questiondown" unicode="&#xbf;" horiz-adv-x="425" 
d="M224 325h43v-44q0 -84 -63 -143q-6 -6 -25.5 -24t-27.5 -26t-23 -26t-22 -31t-12.5 -32.5t-5.5 -39.5q0 -55 41.5 -92t104.5 -37q70 0 127 42l23 -34q-27 -22 -68.5 -36t-80.5 -14q-86 0 -139 49q-53 50 -53 123q0 85 63 144q5 5 26.5 24t28.5 26t23 25.5t22 31t12 31.5
t6 39v44zM216 500h59v-61h-59v61z" />
    <glyph glyph-name="Agrave" unicode="&#xc0;" horiz-adv-x="624" 
d="M73 0h-46l262 700h46l262 -700h-46l-91 242h-297zM285 566l-107 -284h267l-106 284l-26 84h-2q-13 -47 -26 -84zM334 750h-44l-79 111h56z" />
    <glyph glyph-name="Aacute" unicode="&#xc1;" horiz-adv-x="624" 
d="M73 0h-46l262 700h46l262 -700h-46l-91 242h-297zM285 566l-107 -284h267l-106 284l-26 84h-2q-13 -47 -26 -84zM333 750h-44l67 111h56z" />
    <glyph glyph-name="Acircumflex" unicode="&#xc2;" horiz-adv-x="624" 
d="M73 0h-46l262 700h46l262 -700h-46l-91 242h-297zM285 566l-107 -284h267l-106 284l-26 84h-2q-13 -47 -26 -84zM255 750h-49l80 111h52l80 -111h-49l-56 80h-2z" />
    <glyph glyph-name="Atilde" unicode="&#xc3;" horiz-adv-x="624" 
d="M73 0h-46l262 700h46l262 -700h-46l-91 242h-297zM285 566l-107 -284h267l-106 284l-26 84h-2q-13 -47 -26 -84zM208 753h-40q0 108 83 108q23 0 41.5 -11.5t29 -25.5t25.5 -25.5t30 -11.5q40 0 40 71h40q0 -108 -83 -108q-23 0 -41.5 11.5t-29 25.5t-25.5 25.5t-30 11.5
q-40 0 -40 -71z" />
    <glyph glyph-name="Adieresis" unicode="&#xc4;" horiz-adv-x="624" 
d="M73 0h-46l262 700h46l262 -700h-46l-91 242h-297zM285 566l-107 -284h267l-106 284l-26 84h-2q-13 -47 -26 -84zM404 788h-46v73h46v-73zM267 788h-46v73h46v-73z" />
    <glyph glyph-name="Aring" unicode="&#xc5;" horiz-adv-x="624" 
d="M73 0h-46l262 700h46l262 -700h-46l-91 242h-297zM285 566l-107 -284h267l-106 284l-26 84h-2q-13 -47 -26 -84zM359 759q-19 -19 -47 -19t-48 19q-19 19 -19 48t19 48q20 19 48 19t47 -19q20 -19 20 -48t-20 -48zM344 807q0 20 -16 28.5t-32 0t-16 -28.5t16 -28t32 0
t16 28z" />
    <glyph glyph-name="AE" unicode="&#xc6;" horiz-adv-x="825" 
d="M69 0h-46l287 700h449v-40h-340v-287h279v-40h-279v-293h359v-40h-402v333h-171zM340 660l-118 -287h154v287h-36z" />
    <glyph glyph-name="Ccedilla" unicode="&#xc7;" horiz-adv-x="720" 
d="M378 -92l-12 -1l17 82q-143 11 -233 114q-89 104 -89 252q0 152 98 255q97 102 249 102q156 0 250 -88l-26 -32q-42 37 -102 58t-121 21q-132 0 -218 -90q-85 -88 -85 -226q0 -139 85 -233q86 -93 221 -93q139 0 237 95l27 -30q-106 -103 -257 -106l-9 -48q31 -5 50 -23
t19 -45q0 -38 -25 -57t-66 -19q-27 0 -44 4v38q18 -5 41 -5q54 0 54 37q0 38 -61 38z" />
    <glyph glyph-name="Egrave" unicode="&#xc8;" horiz-adv-x="556" 
d="M509 0h-402v700h383v-40h-340v-287h279v-40h-279v-293h359v-40zM333 750h-44l-79 111h56z" />
    <glyph glyph-name="Eacute" unicode="&#xc9;" horiz-adv-x="556" 
d="M509 0h-402v700h383v-40h-340v-287h279v-40h-279v-293h359v-40zM332 750h-44l67 111h56z" />
    <glyph glyph-name="Ecircumflex" unicode="&#xca;" horiz-adv-x="556" 
d="M254 750h-49l80 111h52l80 -111h-49l-56 80h-2zM509 0h-402v700h383v-40h-340v-287h279v-40h-279v-293h359v-40z" />
    <glyph glyph-name="Edieresis" unicode="&#xcb;" horiz-adv-x="556" 
d="M509 0h-402v700h383v-40h-340v-287h279v-40h-279v-293h359v-40zM403 788h-46v73h46v-73zM266 788h-46v73h46v-73z" />
    <glyph glyph-name="Igrave" unicode="&#xcc;" horiz-adv-x="257" 
d="M151 750h-44l-79 111h56zM150 0h-43v700h43v-700z" />
    <glyph glyph-name="Iacute" unicode="&#xcd;" horiz-adv-x="257" 
d="M150 0h-43v700h43v-700zM150 750h-44l67 111h56z" />
    <glyph glyph-name="Icircumflex" unicode="&#xce;" horiz-adv-x="257" 
d="M72 750h-49l80 111h52l80 -111h-49l-56 80h-2zM150 0h-43v700h43v-700z" />
    <glyph glyph-name="Idieresis" unicode="&#xcf;" horiz-adv-x="257" 
d="M150 0h-43v700h43v-700zM221 788h-46v73h46v-73zM84 788h-46v73h46v-73z" />
    <glyph glyph-name="Eth" unicode="&#xd0;" horiz-adv-x="744" 
d="M333 0h-220v333h-60v40h60v327h220q159 0 253 -93q96 -93 96 -257q0 -165 -95 -258q-95 -92 -254 -92zM156 333v-293h170q142 0 226 81q85 81 85 229q0 147 -85 228q-83 82 -226 82h-170v-287h183v-40h-183z" />
    <glyph glyph-name="Ntilde" unicode="&#xd1;" horiz-adv-x="750" 
d="M150 0h-43v700h40l399 -549l57 -88h2q-5 58 -5 88v549h43v-700h-40l-399 549l-57 88h-2q5 -58 5 -88v-549zM271 753h-40q0 108 83 108q23 0 41.5 -11.5t29 -25.5t25.5 -25.5t30 -11.5q40 0 40 71h40q0 -108 -83 -108q-23 0 -41.5 11.5t-29 25.5t-25.5 25.5t-30 11.5
q-40 0 -40 -71z" />
    <glyph glyph-name="Ograve" unicode="&#xd2;" horiz-adv-x="826" 
d="M59 355q0 150 102 254q102 103 252 103t252 -103q102 -104 102 -254q0 -155 -102 -261t-252 -106t-252 106t-102 261zM104 355q0 -138 88 -232t221 -94q132 0 220 94q89 95 89 232q0 134 -89 225q-88 91 -220 91q-133 0 -221 -91q-88 -89 -88 -225zM435 750h-44l-79 111
h56z" />
    <glyph glyph-name="Oacute" unicode="&#xd3;" horiz-adv-x="826" 
d="M59 355q0 150 102 254q102 103 252 103t252 -103q102 -104 102 -254q0 -155 -102 -261t-252 -106t-252 106t-102 261zM104 355q0 -138 88 -232t221 -94q132 0 220 94q89 95 89 232q0 134 -89 225q-88 91 -220 91q-133 0 -221 -91q-88 -89 -88 -225zM434 750h-44l67 111
h56z" />
    <glyph glyph-name="Ocircumflex" unicode="&#xd4;" horiz-adv-x="826" 
d="M356 750h-49l80 111h52l80 -111h-49l-56 80h-2zM59 355q0 150 102 254q102 103 252 103t252 -103q102 -104 102 -254q0 -155 -102 -261t-252 -106t-252 106t-102 261zM104 355q0 -138 88 -232t221 -94q132 0 220 94q89 95 89 232q0 134 -89 225q-88 91 -220 91
q-133 0 -221 -91q-88 -89 -88 -225z" />
    <glyph glyph-name="Otilde" unicode="&#xd5;" horiz-adv-x="826" 
d="M59 355q0 150 102 254q102 103 252 103t252 -103q102 -104 102 -254q0 -155 -102 -261t-252 -106t-252 106t-102 261zM104 355q0 -138 88 -232t221 -94q132 0 220 94q89 95 89 232q0 134 -89 225q-88 91 -220 91q-133 0 -221 -91q-88 -89 -88 -225zM309 753h-40
q0 108 83 108q23 0 41.5 -11.5t29 -25.5t25.5 -25.5t30 -11.5q40 0 40 71h40q0 -108 -83 -108q-23 0 -41.5 11.5t-29 25.5t-25.5 25.5t-30 11.5q-40 0 -40 -71z" />
    <glyph glyph-name="Odieresis" unicode="&#xd6;" horiz-adv-x="826" 
d="M59 355q0 150 102 254q102 103 252 103t252 -103q102 -104 102 -254q0 -155 -102 -261t-252 -106t-252 106t-102 261zM104 355q0 -138 88 -232t221 -94q132 0 220 94q89 95 89 232q0 134 -89 225q-88 91 -220 91q-133 0 -221 -91q-88 -89 -88 -225zM505 788h-46v73h46
v-73zM368 788h-46v73h46v-73z" />
    <glyph glyph-name="multiply" unicode="&#xd7;" horiz-adv-x="560" 
d="M58 0l-30 28l224 255l-224 255l30 28l222 -252l222 252l30 -28l-225 -255l225 -255l-30 -28l-222 252z" />
    <glyph glyph-name="Oslash" unicode="&#xd8;" horiz-adv-x="825" 
d="M172 -23l-35 24l50 70q-60 51 -94 125.5t-34 157.5q0 151 103 254q104 104 251 104q103 0 192 -57l49 69l34 -25l-49 -69q128 -107 128 -276q0 -153 -104 -260q-103 -106 -250 -106q-104 0 -192 58zM212 106l368 515q-76 50 -167 50q-129 0 -219 -92q-90 -91 -90 -225
q0 -73 28.5 -138t79.5 -110zM614 596l-369 -516q73 -51 167 -51q129 0 219 94q91 94 91 230q0 150 -108 243z" />
    <glyph glyph-name="Ugrave" unicode="&#xd9;" horiz-adv-x="721" 
d="M99 240v460h43v-458q0 -98 59 -155.5t159 -57.5t159.5 58t59.5 157v456h43v-460q0 -115 -73 -184q-73 -68 -188 -68q-117 0 -190 69q-72 69 -72 183zM382 750h-44l-79 111h56z" />
    <glyph glyph-name="Uacute" unicode="&#xda;" horiz-adv-x="721" 
d="M99 240v460h43v-458q0 -98 59 -155.5t159 -57.5t159.5 58t59.5 157v456h43v-460q0 -115 -73 -184q-73 -68 -188 -68q-117 0 -190 69q-72 69 -72 183zM381 750h-44l67 111h56z" />
    <glyph glyph-name="Ucircumflex" unicode="&#xdb;" horiz-adv-x="721" 
d="M303 750h-49l80 111h52l80 -111h-49l-56 80h-2zM99 240v460h43v-458q0 -98 59 -155.5t159 -57.5t159.5 58t59.5 157v456h43v-460q0 -115 -73 -184q-73 -68 -188 -68q-117 0 -190 69q-72 69 -72 183z" />
    <glyph glyph-name="Udieresis" unicode="&#xdc;" horiz-adv-x="721" 
d="M99 240v460h43v-458q0 -98 59 -155.5t159 -57.5t159.5 58t59.5 157v456h43v-460q0 -115 -73 -184q-73 -68 -188 -68q-117 0 -190 69q-72 69 -72 183zM452 788h-46v73h46v-73zM315 788h-46v73h46v-73z" />
    <glyph glyph-name="Yacute" unicode="&#xdd;" horiz-adv-x="567" 
d="M305 0h-43v304l-238 396h49l166 -276l43 -79h2q23 47 43 79l166 276h49l-237 -396v-304zM304 750h-44l67 111h56z" />
    <glyph glyph-name="Thorn" unicode="&#xde;" horiz-adv-x="593" 
d="M150 0h-43v700h43v-130h187q92 0 153 -56q60 -55 60 -148q0 -94 -60 -150q-61 -56 -155 -56h-185v-160zM150 530v-330h185q78 0 124 44t46 122q0 77 -45.5 120.5t-124.5 43.5h-185z" />
    <glyph glyph-name="germandbls" unicode="&#xdf;" horiz-adv-x="562" 
d="M129 0h-42v532q0 83 56 131q56 49 132 49q73 0 117 -42q44 -41 44 -96q0 -35 -18 -67.5t-43 -52.5q-60 -50 -60 -86q0 -24 33 -51q38 -29 72 -49q40 -22 73 -60t33 -80q0 -66 -45 -100q-46 -35 -109 -35q-92 0 -154 35v46q64 -40 155 -40q48 0 78.5 25t30.5 69
q1 35 -32 67t-73 53t-73 52.5t-33 65.5q0 54 60 104q61 49 61 104q0 40 -32.5 68.5t-86.5 28.5q-58 0 -101 -39q-43 -37 -43 -103v-529z" />
    <glyph glyph-name="agrave" unicode="&#xe0;" horiz-adv-x="508" 
d="M41 133q0 98 94 139q55 23 116 28q47 5 100 5h33v17q0 149 -137 149q-80 0 -143 -48l-24 34q29 25 75 40t94 15q87 0 132 -48t45 -141v-323h-42v66l4 45h-2q-21 -54 -68 -88.5t-107 -34.5q-69 0 -119 37q-51 37 -51 108zM85 136q0 -45 35 -77t93 -32q77 0 124 65
q47 67 47 147v27h-32q-38 0 -51 -1q-23 0 -56 -4q-36 -3 -60 -12q-43 -13 -73 -41t-27 -72zM271 589h-44l-79 111h56z" />
    <glyph glyph-name="aacute" unicode="&#xe1;" horiz-adv-x="508" 
d="M41 133q0 98 94 139q55 23 116 28q47 5 100 5h33v17q0 149 -137 149q-80 0 -143 -48l-24 34q29 25 75 40t94 15q87 0 132 -48t45 -141v-323h-42v66l4 45h-2q-21 -54 -68 -88.5t-107 -34.5q-69 0 -119 37q-51 37 -51 108zM85 136q0 -45 35 -77t93 -32q77 0 124 65
q47 67 47 147v27h-32q-38 0 -51 -1q-23 0 -56 -4q-36 -3 -60 -12q-43 -13 -73 -41t-27 -72zM269 589h-44l67 111h56z" />
    <glyph glyph-name="acircumflex" unicode="&#xe2;" horiz-adv-x="508" 
d="M41 133q0 98 94 139q55 23 116 28q47 5 100 5h33v17q0 149 -137 149q-80 0 -143 -48l-24 34q29 25 75 40t94 15q87 0 132 -48t45 -141v-323h-42v66l4 45h-2q-21 -54 -68 -88.5t-107 -34.5q-69 0 -119 37q-51 37 -51 108zM85 136q0 -45 35 -77t93 -32q77 0 124 65
q47 67 47 147v27h-32q-38 0 -51 -1q-23 0 -56 -4q-36 -3 -60 -12q-43 -13 -73 -41t-27 -72zM192 589h-49l80 111h52l80 -111h-49l-56 80h-2z" />
    <glyph glyph-name="atilde" unicode="&#xe3;" horiz-adv-x="508" 
d="M41 133q0 98 94 139q55 23 116 28q47 5 100 5h33v17q0 149 -137 149q-80 0 -143 -48l-24 34q29 25 75 40t94 15q87 0 132 -48t45 -141v-323h-42v66l4 45h-2q-21 -54 -68 -88.5t-107 -34.5q-69 0 -119 37q-51 37 -51 108zM85 136q0 -45 35 -77t93 -32q77 0 124 65
q47 67 47 147v27h-32q-38 0 -51 -1q-23 0 -56 -4q-36 -3 -60 -12q-43 -13 -73 -41t-27 -72zM145 592h-40q0 108 83 108q23 0 41.5 -11.5t29 -25.5t25.5 -25.5t30 -11.5q40 0 40 71h40q0 -108 -83 -108q-23 0 -41.5 11.5t-29 25.5t-25.5 25.5t-30 11.5q-40 0 -40 -71z" />
    <glyph glyph-name="adieresis" unicode="&#xe4;" horiz-adv-x="508" 
d="M41 133q0 98 94 139q55 23 116 28q47 5 100 5h33v17q0 149 -137 149q-80 0 -143 -48l-24 34q29 25 75 40t94 15q87 0 132 -48t45 -141v-323h-42v66l4 45h-2q-21 -54 -68 -88.5t-107 -34.5q-69 0 -119 37q-51 37 -51 108zM85 136q0 -45 35 -77t93 -32q77 0 124 65
q47 67 47 147v27h-32q-38 0 -51 -1q-23 0 -56 -4q-36 -3 -60 -12q-43 -13 -73 -41t-27 -72zM341 627h-46v73h46v-73zM204 627h-46v73h46v-73z" />
    <glyph glyph-name="aring" unicode="&#xe5;" horiz-adv-x="508" 
d="M41 133q0 98 94 139q55 23 116 28q47 5 100 5h33v17q0 149 -137 149q-80 0 -143 -48l-24 34q29 25 75 40t94 15q87 0 132 -48t45 -141v-323h-42v66l4 45h-2q-21 -54 -68 -88.5t-107 -34.5q-69 0 -119 37q-51 37 -51 108zM85 136q0 -45 35 -77t93 -32q77 0 124 65
q47 67 47 147v27h-32q-38 0 -51 -1q-23 0 -56 -4q-36 -3 -60 -12q-43 -13 -73 -41t-27 -72zM297 598q-19 -19 -48 -19t-48 19q-19 20 -19 48t19 47q19 20 48 20t48 -20q19 -19 19 -47t-19 -48zM281 646q0 20 -16 28.5t-32 0t-16 -28.5t16 -28t32 0t16 28z" />
    <glyph glyph-name="ae" unicode="&#xe6;" horiz-adv-x="869" 
d="M42 133q0 97 82 134q48 23 109 28q47 5 111 5h40v22q0 149 -141 149q-77 0 -139 -48l-24 34q61 55 165 55q143 0 172 -117h2q61 117 198 117q97 0 149 -64q53 -65 53 -159q0 -6 -2 -28h-391q0 -109 56 -170.5t148 -61.5t155 63l23 -35q-33 -31 -81.5 -50t-96.5 -19
q-78 0 -138 40.5t-87 112.5h-2q-6 -32 -45 -86q-21 -29 -59.5 -48t-84.5 -19q-73 0 -123 38q-49 37 -49 107zM430 300h345q-4 83 -48.5 127.5t-112.5 44.5q-73 0 -122.5 -45t-61.5 -127zM86 136q0 -46 35 -77.5t93 -31.5q76 0 123 65q47 67 47 147v22h-69q-68 0 -120 -10
q-104 -20 -109 -115z" />
    <glyph glyph-name="ccedilla" unicode="&#xe7;" horiz-adv-x="542" 
d="M275 -92l-12 -1l18 83q-101 11 -164 80q-64 70 -64 179q0 115 75 189q77 74 183 74q114 0 179 -71l-26 -34q-27 29 -68.5 46.5t-84.5 17.5q-90 0 -152 -62t-62 -160q0 -97 62 -159q61 -61 152 -61q47 0 92 19t75 53l22 -35q-67 -76 -184 -78l-9 -48q31 -5 50 -23t19 -45
q0 -38 -25 -57t-66 -19q-27 0 -44 4v38q18 -5 41 -5q54 0 54 37q0 38 -61 38z" />
    <glyph glyph-name="egrave" unicode="&#xe8;" horiz-adv-x="549" 
d="M52 249q0 121 71 192t172 71q97 0 150 -66q54 -64 54 -162q0 -3 -2 -27h-401q0 -106 61 -167t153 -61t155 63l23 -35q-33 -31 -81.5 -50t-96.5 -19q-109 0 -184 72q-74 74 -74 189zM99 296h356q-4 85 -48 131t-113 46q-74 0 -128.5 -47.5t-66.5 -129.5zM320 589h-44
l-79 111h56z" />
    <glyph glyph-name="eacute" unicode="&#xe9;" horiz-adv-x="549" 
d="M52 249q0 121 71 192t172 71q97 0 150 -66q54 -64 54 -162q0 -3 -2 -27h-401q0 -106 61 -167t153 -61t155 63l23 -35q-33 -31 -81.5 -50t-96.5 -19q-109 0 -184 72q-74 74 -74 189zM99 296h356q-4 85 -48 131t-113 46q-74 0 -128.5 -47.5t-66.5 -129.5zM318 589h-44
l67 111h56z" />
    <glyph glyph-name="ecircumflex" unicode="&#xea;" horiz-adv-x="549" 
d="M52 249q0 121 71 192t172 71q97 0 150 -66q54 -64 54 -162q0 -3 -2 -27h-401q0 -106 61 -167t153 -61t155 63l23 -35q-33 -31 -81.5 -50t-96.5 -19q-109 0 -184 72q-74 74 -74 189zM99 296h356q-4 85 -48 131t-113 46q-74 0 -128.5 -47.5t-66.5 -129.5zM240 589h-49
l80 111h52l80 -111h-49l-56 80h-2z" />
    <glyph glyph-name="edieresis" unicode="&#xeb;" horiz-adv-x="549" 
d="M52 249q0 121 71 192t172 71q97 0 150 -66q54 -64 54 -162q0 -3 -2 -27h-401q0 -106 61 -167t153 -61t155 63l23 -35q-33 -31 -81.5 -50t-96.5 -19q-109 0 -184 72q-74 74 -74 189zM99 296h356q-4 85 -48 131t-113 46q-74 0 -128.5 -47.5t-66.5 -129.5zM389 627h-46v73
h46v-73zM252 627h-46v73h46v-73z" />
    <glyph glyph-name="igrave" unicode="&#xec;" horiz-adv-x="216" 
d="M131 589h-44l-79 111h56zM129 0h-42v500h42v-500z" />
    <glyph glyph-name="iacute" unicode="&#xed;" horiz-adv-x="216" 
d="M129 0h-42v500h42v-500zM130 589h-44l67 111h56z" />
    <glyph glyph-name="icircumflex" unicode="&#xee;" horiz-adv-x="216" 
d="M52 589h-49l80 111h52l80 -111h-49l-56 80h-2zM129 0h-42v500h42v-500z" />
    <glyph glyph-name="idieresis" unicode="&#xef;" horiz-adv-x="216" 
d="M129 0h-42v500h42v-500zM201 627h-46v73h46v-73zM64 627h-46v73h46v-73z" />
    <glyph glyph-name="eth" unicode="&#xf0;" horiz-adv-x="577" 
d="M295 468q46 0 87.5 -15.5t58.5 -34.5l16 -16h2q-36 112 -137 183l-172 -80l-17 37l146 68q-66 34 -153 57l12 38q113 -28 188 -74l123 58l17 -37l-101 -47q156 -118 156 -335q1 -70 -24 -132.5t-82 -106t-136 -43.5q-103 0 -164 72q-61 73 -61 170q0 96 63 167
q65 71 178 71zM281 28q65 0 111 37q85 71 85 198q0 71 -51 118q-50 47 -132 47q-94 0 -145 -59t-51 -139t50 -142q49 -60 133 -60z" />
    <glyph glyph-name="ntilde" unicode="&#xf1;" horiz-adv-x="586" 
d="M129 0h-42v500h42v-88l-4 -41h2q16 46 73 94q56 47 139 47q90 0 127.5 -48t37.5 -147v-317h-42v302q0 58 -11 96q-21 73 -112 73q-88 0 -149 -64q-61 -62 -61 -158v-249zM203 592h-40q0 108 83 108q23 0 41.5 -11.5t29 -25.5t25.5 -25.5t30 -11.5q40 0 40 71h40
q0 -108 -83 -108q-23 0 -41.5 11.5t-29 25.5t-25.5 25.5t-30 11.5q-40 0 -40 -71z" />
    <glyph glyph-name="ograve" unicode="&#xf2;" horiz-adv-x="620" 
d="M51 253q0 109 75 184q76 75 184 75t183 -75q76 -75 76 -184q0 -112 -76 -188q-75 -77 -183 -77q-107 0 -184 77q-75 77 -75 188zM95 253q0 -95 62 -160q63 -64 153 -64q91 0 152 64q63 65 63 160q0 92 -63 155q-62 63 -152 63t-153 -63q-62 -64 -62 -155zM332 589h-44
l-79 111h56z" />
    <glyph glyph-name="oacute" unicode="&#xf3;" horiz-adv-x="620" 
d="M51 253q0 109 75 184q76 75 184 75t183 -75q76 -75 76 -184q0 -112 -76 -188q-75 -77 -183 -77q-107 0 -184 77q-75 77 -75 188zM95 253q0 -95 62 -160q63 -64 153 -64q91 0 152 64q63 65 63 160q0 92 -63 155q-62 63 -152 63t-153 -63q-62 -64 -62 -155zM331 589h-44
l67 111h56z" />
    <glyph glyph-name="ocircumflex" unicode="&#xf4;" horiz-adv-x="620" 
d="M253 589h-49l80 111h52l80 -111h-49l-56 80h-2zM51 253q0 109 75 184q76 75 184 75t183 -75q76 -75 76 -184q0 -112 -76 -188q-75 -77 -183 -77q-107 0 -184 77q-75 77 -75 188zM95 253q0 -95 62 -160q63 -64 153 -64q91 0 152 64q63 65 63 160q0 92 -63 155
q-62 63 -152 63t-153 -63q-62 -64 -62 -155z" />
    <glyph glyph-name="otilde" unicode="&#xf5;" horiz-adv-x="620" 
d="M51 253q0 109 75 184q76 75 184 75t183 -75q76 -75 76 -184q0 -112 -76 -188q-75 -77 -183 -77q-107 0 -184 77q-75 77 -75 188zM95 253q0 -95 62 -160q63 -64 153 -64q91 0 152 64q63 65 63 160q0 92 -63 155q-62 63 -152 63t-153 -63q-62 -64 -62 -155zM206 592h-40
q0 108 83 108q23 0 41.5 -11.5t29 -25.5t25.5 -25.5t30 -11.5q40 0 40 71h40q0 -108 -83 -108q-23 0 -41.5 11.5t-29 25.5t-25.5 25.5t-30 11.5q-40 0 -40 -71z" />
    <glyph glyph-name="odieresis" unicode="&#xf6;" horiz-adv-x="620" 
d="M51 253q0 109 75 184q76 75 184 75t183 -75q76 -75 76 -184q0 -112 -76 -188q-75 -77 -183 -77q-107 0 -184 77q-75 77 -75 188zM95 253q0 -95 62 -160q63 -64 153 -64q91 0 152 64q63 65 63 160q0 92 -63 155q-62 63 -152 63t-153 -63q-62 -64 -62 -155zM402 627h-46v73
h46v-73zM265 627h-46v73h46v-73z" />
    <glyph glyph-name="divide" unicode="&#xf7;" horiz-adv-x="560" 
d="M308 431h-57v59h57v-59zM308 76h-57v59h57v-59zM518 263h-476v40h476v-40z" />
    <glyph glyph-name="oslash" unicode="&#xf8;" horiz-adv-x="621" 
d="M144 -29l-34 26l36 51q-94 78 -94 205q0 109 75 184q77 75 184 75q77 0 138 -39l38 53l34 -26l-38 -53q87 -77 87 -194q0 -112 -76 -188q-75 -77 -183 -77q-71 0 -130 35zM170 82l255 357q-53 32 -114 32q-90 0 -153 -63q-62 -64 -62 -155q0 -103 74 -171zM458 412
l-253 -355q47 -28 106 -28q91 0 152 64q63 65 63 160q0 96 -68 159z" />
    <glyph glyph-name="ugrave" unicode="&#xf9;" horiz-adv-x="580" 
d="M81 183v317h42v-302q0 -58 11 -97q22 -72 112 -72t147 67q58 67 58 160v244h42v-500h-42v88l4 41h-2q-17 -49 -72 -95t-135 -46q-88 0 -126.5 47t-38.5 148zM310 589h-44l-79 111h56z" />
    <glyph glyph-name="uacute" unicode="&#xfa;" horiz-adv-x="580" 
d="M81 183v317h42v-302q0 -58 11 -97q22 -72 112 -72t147 67q58 67 58 160v244h42v-500h-42v88l4 41h-2q-17 -49 -72 -95t-135 -46q-88 0 -126.5 47t-38.5 148zM308 589h-44l67 111h56z" />
    <glyph glyph-name="ucircumflex" unicode="&#xfb;" horiz-adv-x="580" 
d="M81 183v317h42v-302q0 -58 11 -97q22 -72 112 -72t147 67q58 67 58 160v244h42v-500h-42v88l4 41h-2q-17 -49 -72 -95t-135 -46q-88 0 -126.5 47t-38.5 148zM230 589h-49l80 111h52l80 -111h-49l-56 80h-2z" />
    <glyph glyph-name="udieresis" unicode="&#xfc;" horiz-adv-x="580" 
d="M81 183v317h42v-302q0 -58 11 -97q22 -72 112 -72t147 67q58 67 58 160v244h42v-500h-42v88l4 41h-2q-17 -49 -72 -95t-135 -46q-88 0 -126.5 47t-38.5 148zM379 627h-46v73h46v-73zM242 627h-46v73h46v-73z" />
    <glyph glyph-name="yacute" unicode="&#xfd;" horiz-adv-x="517" 
d="M22 -182l19 36q29 -24 62 -24q61 0 98 90l36 83l-207 497h45l165 -399l18 -47h2q11 34 17 47l165 399h45l-257 -617q-39 -93 -127 -93q-43 0 -71 21zM280 589h-44l67 111h56z" />
    <glyph glyph-name="thorn" unicode="&#xfe;" horiz-adv-x="578" 
d="M129 -200h-42v900h42v-255l-1 -40h2q19 47 67.5 77t110.5 30q99 0 157 -72q59 -73 59 -190t-62 -190q-62 -72 -160 -72q-56 0 -104 29.5t-69 78.5h-2q2 -24 2 -44v-252zM128 249q0 -88 47 -155q46 -66 127 -66q76 0 127 60t51 162q0 101 -49 160q-48 61 -125 61
q-79 0 -128.5 -57.5t-49.5 -164.5z" />
    <glyph glyph-name="ydieresis" unicode="&#xff;" horiz-adv-x="517" 
d="M22 -182l19 36q29 -24 62 -24q61 0 98 90l36 83l-207 497h45l165 -399l18 -47h2q11 34 17 47l165 399h45l-257 -617q-39 -93 -127 -93q-43 0 -71 21zM351 627h-46v73h46v-73zM214 627h-46v73h46v-73z" />
    <glyph glyph-name="Amacron" unicode="&#x100;" horiz-adv-x="624" 
d="M73 0h-46l262 700h46l262 -700h-46l-91 242h-297zM285 566l-107 -284h267l-106 284l-26 84h-2q-13 -47 -26 -84zM432 786h-239v40h239v-40z" />
    <glyph glyph-name="amacron" unicode="&#x101;" horiz-adv-x="508" 
d="M41 133q0 98 94 139q55 23 116 28q47 5 100 5h33v17q0 149 -137 149q-80 0 -143 -48l-24 34q29 25 75 40t94 15q87 0 132 -48t45 -141v-323h-42v66l4 45h-2q-21 -54 -68 -88.5t-107 -34.5q-69 0 -119 37q-51 37 -51 108zM85 136q0 -45 35 -77t93 -32q77 0 124 65
q47 67 47 147v27h-32q-38 0 -51 -1q-23 0 -56 -4q-36 -3 -60 -12q-43 -13 -73 -41t-27 -72zM369 625h-239v40h239v-40z" />
    <glyph glyph-name="Abreve" unicode="&#x102;" horiz-adv-x="624" 
d="M73 0h-46l262 700h46l262 -700h-46l-91 242h-297zM285 566l-107 -284h267l-106 284l-26 84h-2q-13 -47 -26 -84zM211 845v16h40v-14q0 -30 16.5 -46t44.5 -16t44.5 16t16.5 47v13h40v-16q3 -61 -49 -86.5t-104 0t-49 86.5z" />
    <glyph glyph-name="abreve" unicode="&#x103;" horiz-adv-x="508" 
d="M41 133q0 98 94 139q55 23 116 28q47 5 100 5h33v17q0 149 -137 149q-80 0 -143 -48l-24 34q29 25 75 40t94 15q87 0 132 -48t45 -141v-323h-42v66l4 45h-2q-21 -54 -68 -88.5t-107 -34.5q-69 0 -119 37q-51 37 -51 108zM85 136q0 -45 35 -77t93 -32q77 0 124 65
q47 67 47 147v27h-32q-38 0 -51 -1q-23 0 -56 -4q-36 -3 -60 -12q-43 -13 -73 -41t-27 -72zM148 684v16h40v-14q0 -30 16.5 -46t44.5 -16t44.5 16t16.5 47v13h40v-16q3 -61 -49 -86.5t-104 0t-49 86.5z" />
    <glyph glyph-name="Aogonek" unicode="&#x104;" horiz-adv-x="624" 
d="M73 0h-46l262 700h46l262 -700q-80 -59 -80 -109q0 -20 16 -35t35 -18l17 -3l-9 -39q-12 0 -36 8q-68 19 -68 83q0 66 76 120l-88 235h-297zM285 566l-107 -284h267l-106 284l-26 84h-2q-13 -47 -26 -84z" />
    <glyph glyph-name="aogonek" unicode="&#x105;" horiz-adv-x="508" 
d="M41 133q0 98 94 139q55 23 116 28q47 5 100 5h33v17q0 149 -137 149q-80 0 -143 -48l-24 34q29 25 75 40t94 15q87 0 132 -48t45 -141v-323q-80 -59 -80 -109q0 -20 16 -35t35 -18l17 -3l-9 -39q-12 0 -36 8q-68 19 -68 83q0 63 83 120v59l4 45h-2q-21 -54 -68 -88.5
t-107 -34.5q-69 0 -119 37q-51 37 -51 108zM85 136q0 -45 35 -77t93 -32q77 0 124 65q47 67 47 147v27h-32q-38 0 -51 -1q-23 0 -56 -4q-36 -3 -60 -12q-43 -13 -73 -41t-27 -72z" />
    <glyph glyph-name="Cacute" unicode="&#x106;" horiz-adv-x="719" 
d="M60 355q0 152 98 255q98 102 249 102q156 0 250 -88l-26 -32q-42 37 -102 58t-121 21q-132 0 -218 -90q-85 -88 -85 -226q0 -139 85 -233q86 -93 221 -93q139 0 237 95l27 -30q-109 -106 -264 -106q-156 0 -253 106q-98 107 -98 261zM423 750h-44l67 111h56z" />
    <glyph glyph-name="cacute" unicode="&#x107;" horiz-adv-x="540" 
d="M310 512q114 0 179 -71l-26 -34q-27 29 -68.5 46.5t-84.5 17.5q-90 0 -152 -62t-62 -160q0 -97 62 -159q61 -61 152 -61q48 0 92.5 19t74.5 53l22 -35q-32 -36 -82.5 -57t-106.5 -21q-109 0 -184 72q-74 74 -74 189t75 189q77 74 183 74zM313 589h-44l67 111h56z" />
    <glyph glyph-name="Ccircumflex" unicode="&#x108;" horiz-adv-x="719" 
d="M345 750h-49l80 111h52l80 -111h-49l-56 80h-2zM60 355q0 152 98 255q98 102 249 102q156 0 250 -88l-26 -32q-42 37 -102 58t-121 21q-132 0 -218 -90q-85 -88 -85 -226q0 -139 85 -233q86 -93 221 -93q139 0 237 95l27 -30q-109 -106 -264 -106q-156 0 -253 106
q-98 107 -98 261z" />
    <glyph glyph-name="ccircumflex" unicode="&#x109;" horiz-adv-x="540" 
d="M235 589h-49l80 111h52l80 -111h-49l-56 80h-2zM310 512q114 0 179 -71l-26 -34q-27 29 -68.5 46.5t-84.5 17.5q-90 0 -152 -62t-62 -160q0 -97 62 -159q61 -61 152 -61q48 0 92.5 19t74.5 53l22 -35q-32 -36 -82.5 -57t-106.5 -21q-109 0 -184 72q-74 74 -74 189t75 189
q77 74 183 74z" />
    <glyph glyph-name="Cdotaccent" unicode="&#x10a;" horiz-adv-x="719" 
d="M60 355q0 152 98 255q98 102 249 102q156 0 250 -88l-26 -32q-42 37 -102 58t-121 21q-132 0 -218 -90q-85 -88 -85 -226q0 -139 85 -233q86 -93 221 -93q139 0 237 95l27 -30q-109 -106 -264 -106q-156 0 -253 106q-98 107 -98 261zM425 788h-46v73h46v-73z" />
    <glyph glyph-name="cdotaccent" unicode="&#x10b;" horiz-adv-x="540" 
d="M310 512q114 0 179 -71l-26 -34q-27 29 -68.5 46.5t-84.5 17.5q-90 0 -152 -62t-62 -160q0 -97 62 -159q61 -61 152 -61q48 0 92.5 19t74.5 53l22 -35q-32 -36 -82.5 -57t-106.5 -21q-109 0 -184 72q-74 74 -74 189t75 189q77 74 183 74zM315 627h-46v73h46v-73z" />
    <glyph glyph-name="Ccaron" unicode="&#x10c;" horiz-adv-x="719" 
d="M428 750h-52l-80 111h49l56 -80h2l56 80h49zM60 355q0 152 98 255q98 102 249 102q156 0 250 -88l-26 -32q-42 37 -102 58t-121 21q-132 0 -218 -90q-85 -88 -85 -226q0 -139 85 -233q86 -93 221 -93q139 0 237 95l27 -30q-109 -106 -264 -106q-156 0 -253 106
q-98 107 -98 261z" />
    <glyph glyph-name="ccaron" unicode="&#x10d;" horiz-adv-x="540" 
d="M318 589h-52l-80 111h49l56 -80h2l56 80h49zM310 512q114 0 179 -71l-26 -34q-27 29 -68.5 46.5t-84.5 17.5q-90 0 -152 -62t-62 -160q0 -97 62 -159q61 -61 152 -61q48 0 92.5 19t74.5 53l22 -35q-32 -36 -82.5 -57t-106.5 -21q-109 0 -184 72q-74 74 -74 189t75 189
q77 74 183 74z" />
    <glyph glyph-name="Dcaron" unicode="&#x10e;" horiz-adv-x="738" 
d="M367 750h-52l-80 111h49l56 -80h2l56 80h49zM327 0h-220v700h220q158 0 253 -93q96 -93 96 -257q0 -165 -95 -258q-95 -92 -254 -92zM150 660v-620h170q142 0 226 81q85 81 85 229q0 147 -85 228q-83 82 -226 82h-170z" />
    <glyph glyph-name="dcaron" unicode="&#x10f;" horiz-adv-x="578" 
d="M278 512q56 0 102.5 -30.5t70.5 -82.5h2q-4 16 -4 41v260h42v-700h-42v63l4 38h-2q-23 -51 -70 -82t-111 -31q-100 0 -158 72q-58 71 -58 190q0 117 62 190q63 72 162 72zM98 250q0 -100 48 -161q50 -60 126 -60q79 0 128.5 57.5t49.5 164.5q0 91 -46 155q-45 65 -128 65
q-76 0 -127 -60q-51 -59 -51 -161zM558 700h48q6 -25 6 -47q0 -39 -22 -87h-39q18 46 18 78q0 26 -11 56z" />
    <glyph glyph-name="Dcroat" unicode="&#x110;" horiz-adv-x="744" 
d="M333 0h-220v333h-60v40h60v327h220q159 0 253 -93q96 -93 96 -257q0 -165 -95 -258q-95 -92 -254 -92zM156 333v-293h170q142 0 226 81q85 81 85 229q0 147 -85 228q-83 82 -226 82h-170v-287h183v-40h-183z" />
    <glyph glyph-name="dslash" unicode="&#x111;" horiz-adv-x="578" 
d="M278 512q56 0 102 -29t69 -79h2q-2 24 -2 41v124h-133v40h133v91h42v-91h83v-40h-83v-569h-42v58l2 38h-2q-20 -47 -67.5 -77.5t-111.5 -30.5q-100 0 -158 72q-58 71 -58 190q0 117 62 190q63 72 162 72zM98 250q0 -100 48 -161q50 -60 126 -60q79 0 128.5 57.5
t49.5 164.5q0 91 -46 155q-45 66 -128 66q-76 0 -127 -60t-51 -162z" />
    <glyph glyph-name="Emacron" unicode="&#x112;" horiz-adv-x="556" 
d="M509 0h-402v700h383v-40h-340v-287h279v-40h-279v-293h359v-40zM431 786h-239v40h239v-40z" />
    <glyph glyph-name="emacron" unicode="&#x113;" horiz-adv-x="549" 
d="M52 249q0 121 71 192t172 71q97 0 150 -66q54 -64 54 -162q0 -3 -2 -27h-401q0 -106 61 -167t153 -61t155 63l23 -35q-33 -31 -81.5 -50t-96.5 -19q-109 0 -184 72q-74 74 -74 189zM99 296h356q-4 85 -48 131t-113 46q-74 0 -128.5 -47.5t-66.5 -129.5zM417 625h-239v40
h239v-40z" />
    <glyph glyph-name="Ebreve" unicode="&#x114;" horiz-adv-x="556" 
d="M509 0h-402v700h383v-40h-340v-287h279v-40h-279v-293h359v-40zM210 845v16h40v-14q0 -30 16.5 -46t44.5 -16t44.5 16t16.5 47v13h40v-16q3 -61 -49 -86.5t-104 0t-49 86.5z" />
    <glyph glyph-name="ebreve" unicode="&#x115;" horiz-adv-x="549" 
d="M52 249q0 121 71 192t172 71q97 0 150 -66q54 -64 54 -162q0 -3 -2 -27h-401q0 -106 61 -167t153 -61t155 63l23 -35q-33 -31 -81.5 -50t-96.5 -19q-109 0 -184 72q-74 74 -74 189zM99 296h356q-4 85 -48 131t-113 46q-74 0 -128.5 -47.5t-66.5 -129.5zM196 684v16h40
v-14q0 -30 16.5 -46t44.5 -16t44.5 16t16.5 47v13h40v-16q3 -61 -49 -86.5t-104 0t-49 86.5z" />
    <glyph glyph-name="Edotaccent" unicode="&#x116;" horiz-adv-x="556" 
d="M509 0h-402v700h383v-40h-340v-287h279v-40h-279v-293h359v-40zM334 788h-46v73h46v-73z" />
    <glyph glyph-name="edotaccent" unicode="&#x117;" horiz-adv-x="549" 
d="M52 249q0 121 71 192t172 71q97 0 150 -66q54 -64 54 -162q0 -3 -2 -27h-401q0 -106 61 -167t153 -61t155 63l23 -35q-33 -31 -81.5 -50t-96.5 -19q-109 0 -184 72q-74 74 -74 189zM99 296h356q-4 85 -48 131t-113 46q-74 0 -128.5 -47.5t-66.5 -129.5zM320 627h-46v73
h46v-73z" />
    <glyph glyph-name="Eogonek" unicode="&#x118;" horiz-adv-x="556" 
d="M458 0h-351v700h383v-40h-340v-287h279v-40h-279v-293h359v-40q-80 -59 -80 -109q0 -20 16 -35t35 -18l17 -3l-9 -39q-12 0 -36 8q-68 19 -68 83q0 60 74 113z" />
    <glyph glyph-name="eogonek" unicode="&#x119;" horiz-adv-x="550" 
d="M52 249q0 121 71 192t172 71q97 0 150 -66q54 -64 54 -162l-2 -27h-401q0 -106 61 -167t153 -61q88 0 155 63l23 -35q-9 -9 -56 -42q-98 -67 -98 -124q0 -20 16 -35t35 -18l17 -3l-9 -39q-12 0 -36 8q-68 19 -68 83q0 52 56 105q-17 -4 -35 -4q-109 0 -184 72
q-74 74 -74 189zM99 296h356q-4 85 -48 131t-113 46q-74 0 -128.5 -47.5t-66.5 -129.5z" />
    <glyph glyph-name="Ecaron" unicode="&#x11a;" horiz-adv-x="556" 
d="M337 750h-52l-80 111h49l56 -80h2l56 80h49zM509 0h-402v700h383v-40h-340v-287h279v-40h-279v-293h359v-40z" />
    <glyph glyph-name="ecaron" unicode="&#x11b;" horiz-adv-x="549" 
d="M52 249q0 121 71 192t172 71q97 0 150 -66q54 -64 54 -162q0 -3 -2 -27h-401q0 -106 61 -167t153 -61t155 63l23 -35q-33 -31 -81.5 -50t-96.5 -19q-109 0 -184 72q-74 74 -74 189zM99 296h356q-4 85 -48 131t-113 46q-74 0 -128.5 -47.5t-66.5 -129.5zM323 589h-52
l-80 111h49l56 -80h2l56 80h49z" />
    <glyph glyph-name="Gcircumflex" unicode="&#x11c;" horiz-adv-x="754" 
d="M60 350q0 153 100 257q100 105 249 105q147 0 244 -79l-26 -33q-39 32 -99 51.5t-119 19.5q-131 0 -218 -92q-86 -92 -86 -229q0 -138 84 -229q86 -92 214 -92q68 0 131.5 30.5t108.5 84.5v135h-125v40h168v-319h-43v61l1 30h-2q-42 -47 -105.5 -75t-133.5 -28
q-146 0 -245 104q-98 106 -98 258zM341 750h-49l80 111h52l80 -111h-49l-56 80h-2z" />
    <glyph glyph-name="gcircumflex" unicode="&#x11d;" horiz-adv-x="571" 
d="M98 -171l20 37q65 -35 134 -35q88 0 139 43.5t51 128.5v58l4 41h-2q-50 -102 -168 -102q-98 0 -160 71t-62 187q0 118 58 185q58 69 157 69q60 0 107 -25.5t67 -72.5h2q-3 8 -3 19v67h42v-497q0 -107 -66 -160q-65 -53 -163 -53q-81 0 -157 39zM98 258q0 -99 49.5 -158
t131.5 -59q76 0 120 53.5t44 163.5q0 213 -174 213q-81 0 -126 -56t-45 -157zM222 589h-49l80 111h52l80 -111h-49l-56 80h-2z" />
    <glyph glyph-name="Gbreve" unicode="&#x11e;" horiz-adv-x="754" 
d="M60 350q0 153 100 257q100 105 249 105q147 0 244 -79l-26 -33q-39 32 -99 51.5t-119 19.5q-131 0 -218 -92q-86 -92 -86 -229q0 -138 84 -229q86 -92 214 -92q68 0 131.5 30.5t108.5 84.5v135h-125v40h168v-319h-43v61l1 30h-2q-42 -47 -105.5 -75t-133.5 -28
q-146 0 -245 104q-98 106 -98 258zM297 845v16h40v-14q0 -30 16.5 -46t44.5 -16t44.5 16t16.5 47v13h40v-16q3 -61 -49 -86.5t-104 0t-49 86.5z" />
    <glyph glyph-name="gbreve" unicode="&#x11f;" horiz-adv-x="571" 
d="M98 -171l20 37q65 -35 134 -35q88 0 139 43.5t51 128.5v58l4 41h-2q-50 -102 -168 -102q-98 0 -160 71t-62 187q0 118 58 185q58 69 157 69q60 0 107 -25.5t67 -72.5h2q-3 8 -3 19v67h42v-497q0 -107 -66 -160q-65 -53 -163 -53q-81 0 -157 39zM98 258q0 -99 49.5 -158
t131.5 -59q76 0 120 53.5t44 163.5q0 213 -174 213q-81 0 -126 -56t-45 -157zM178 684v16h40v-14q0 -30 16.5 -46t44.5 -16t44.5 16t16.5 47v13h40v-16q3 -61 -49 -86.5t-104 0t-49 86.5z" />
    <glyph glyph-name="Gdotaccent" unicode="&#x120;" horiz-adv-x="754" 
d="M60 350q0 153 100 257q100 105 249 105q147 0 244 -79l-26 -33q-39 32 -99 51.5t-119 19.5q-131 0 -218 -92q-86 -92 -86 -229q0 -138 84 -229q86 -92 214 -92q68 0 131.5 30.5t108.5 84.5v135h-125v40h168v-319h-43v61l1 30h-2q-42 -47 -105.5 -75t-133.5 -28
q-146 0 -245 104q-98 106 -98 258zM421 788h-46v73h46v-73z" />
    <glyph glyph-name="gdotaccent" unicode="&#x121;" horiz-adv-x="571" 
d="M98 -171l20 37q65 -35 134 -35q88 0 139 43.5t51 128.5v58l4 41h-2q-50 -102 -168 -102q-98 0 -160 71t-62 187q0 118 58 185q58 69 157 69q60 0 107 -25.5t67 -72.5h2q-3 8 -3 19v67h42v-497q0 -107 -66 -160q-65 -53 -163 -53q-81 0 -157 39zM98 258q0 -99 49.5 -158
t131.5 -59q76 0 120 53.5t44 163.5q0 213 -174 213q-81 0 -126 -56t-45 -157zM302 627h-46v73h46v-73z" />
    <glyph glyph-name="Gcommaaccent" unicode="&#x122;" horiz-adv-x="754" 
d="M60 350q0 153 100 257q100 105 249 105q147 0 244 -79l-26 -33q-39 32 -99 51.5t-119 19.5q-131 0 -218 -92q-86 -92 -86 -229q0 -138 84 -229q86 -92 214 -92q68 0 131.5 30.5t108.5 84.5v135h-125v40h168v-319h-43v61l1 30h-2q-42 -47 -105.5 -75t-133.5 -28
q-146 0 -245 104q-98 106 -98 258zM379 -66h48q6 -25 6 -47q0 -39 -22 -87h-39q18 46 18 78q0 26 -11 56z" />
    <glyph glyph-name="gcommaaccent" unicode="&#x123;" horiz-adv-x="571" 
d="M98 -171l20 37q65 -35 134 -35q88 0 139 43.5t51 128.5v58l4 41h-2q-50 -102 -168 -102q-98 0 -160 71t-62 187q0 118 58 185q58 69 157 69q60 0 107 -25.5t67 -72.5h2q-3 8 -3 19v67h42v-497q0 -107 -66 -160q-65 -53 -163 -53q-81 0 -157 39zM98 258q0 -99 49.5 -158
t131.5 -59q76 0 120 53.5t44 163.5q0 213 -174 213q-81 0 -126 -56t-45 -157zM305 566h-48q-6 26 -6 47q0 39 22 87h39q-18 -46 -18 -78q0 -26 11 -56z" />
    <glyph glyph-name="Hcircumflex" unicode="&#x124;" horiz-adv-x="744" 
d="M315 750h-49l80 111h52l80 -111h-49l-56 80h-2zM150 0h-43v700h43v-329h444v329h43v-700h-43v331h-444v-331z" />
    <glyph glyph-name="hcircumflex" unicode="&#x125;" horiz-adv-x="586" 
d="M129 0h-42v700h42v-288l-4 -41h2q16 46 73 94q56 47 139 47q90 0 127.5 -48t37.5 -147v-317h-42v302q0 58 -11 96q-21 73 -112 73q-88 0 -149 -64t-61 -161v-246zM52 750h-49l80 111h52l80 -111h-49l-56 80h-2z" />
    <glyph glyph-name="Hbar" unicode="&#x126;" horiz-adv-x="756" 
d="M156 0h-43v511h-65v40h65v149h43v-149h444v149h43v-149h65v-40h-65v-511h-43v331h-444v-331zM156 511v-140h444v140h-444z" />
    <glyph glyph-name="hbar" unicode="&#x127;" horiz-adv-x="586" 
d="M129 0h-42v569h-81v40h81v91h42v-91h133v-40h-133v-152l-2 -41h2q17 48 72 91q55 45 138 45q90 0 127.5 -48t37.5 -147v-317h-42v302q0 58 -11 96q-21 73 -112 73q-88 0 -150 -65q-60 -64 -60 -157v-249z" />
    <glyph glyph-name="Itilde" unicode="&#x128;" horiz-adv-x="257" 
d="M25 753h-40q0 108 83 108q23 0 41.5 -11.5t29 -25.5t25.5 -25.5t30 -11.5q40 0 40 71h40q0 -108 -83 -108q-23 0 -41.5 11.5t-29 25.5t-25.5 25.5t-30 11.5q-40 0 -40 -71zM150 0h-43v700h43v-700z" />
    <glyph glyph-name="itilde" unicode="&#x129;" horiz-adv-x="216" 
d="M5 592h-40q0 108 83 108q23 0 41.5 -11.5t29 -25.5t25.5 -25.5t30 -11.5q40 0 40 71h40q0 -108 -83 -108q-23 0 -41.5 11.5t-29 25.5t-25.5 25.5t-30 11.5q-40 0 -40 -71zM129 0h-42v500h42v-500z" />
    <glyph glyph-name="Imacron" unicode="&#x12a;" horiz-adv-x="257" 
d="M150 0h-43v700h43v-700zM249 786h-239v40h239v-40z" />
    <glyph glyph-name="imacron" unicode="&#x12b;" horiz-adv-x="216" 
d="M129 0h-42v500h42v-500zM228 625h-239v40h239v-40z" />
    <glyph glyph-name="Ibreve" unicode="&#x12c;" horiz-adv-x="257" 
d="M28 845v16h40v-14q0 -30 16.5 -46t44.5 -16t44.5 16t16.5 47v13h40v-16q3 -61 -49 -86.5t-104 0t-49 86.5zM150 0h-43v700h43v-700z" />
    <glyph glyph-name="ibreve" unicode="&#x12d;" horiz-adv-x="216" 
d="M8 684v16h40v-14q0 -30 16.5 -46t44.5 -16t44.5 16t16.5 47v13h40v-16q3 -61 -49 -86.5t-104 0t-49 86.5zM129 0h-42v500h42v-500z" />
    <glyph glyph-name="Iogonek" unicode="&#x12e;" horiz-adv-x="257" 
d="M25 -113q0 33 24 65.5t58 55.5v692h43v-700q-80 -59 -80 -109q0 -20 16 -35t35 -18l17 -3l-9 -39q-12 0 -36 8q-68 19 -68 83z" />
    <glyph glyph-name="iogonek" unicode="&#x12f;" horiz-adv-x="217" 
d="M5 -113q0 63 83 120v493h42v-500q-80 -59 -80 -109q0 -20 16 -35t35 -18l17 -3l-9 -39q-12 0 -36 8q-68 19 -68 83zM134 627h-50v73h50v-73z" />
    <glyph glyph-name="Idot" unicode="&#x130;" horiz-adv-x="257" 
d="M152 788h-46v73h46v-73zM150 0h-43v700h43v-700z" />
    <glyph glyph-name="dotlessi" unicode="&#x131;" horiz-adv-x="216" 
d="M129 0h-42v500h42v-500z" />
    <glyph glyph-name="IJ" unicode="&#x132;" horiz-adv-x="556" 
d="M259 -5v42q154 0 154 181v482h43v-482q0 -223 -197 -223zM150 0h-43v700h43v-700z" />
    <glyph glyph-name="ij" unicode="&#x133;" horiz-adv-x="432" 
d="M349 627h-50v73h50v-73zM303 -21v521h42v-520q0 -116 -62 -155q-45 -30 -97 -30q-1 0 -25 2v39q8 -2 22 -2q40 0 74 24q46 28 46 121zM133 627h-50v73h50v-73zM129 0h-42v500h42v-500z" />
    <glyph glyph-name="Jcircumflex" unicode="&#x134;" horiz-adv-x="509" 
d="M247 750h-49l80 111h52l80 -111h-49l-56 80h-2zM35 191v22h43v-23q0 -71 37.5 -116t105.5 -45q65 0 105 40.5t40 120.5v470h-167v40h210v-509q0 -105 -55 -154q-53 -49 -132 -49q-78 0 -133 49q-54 50 -54 154z" />
    <glyph glyph-name="jcircumflex" unicode="&#x135;" horiz-adv-x="216" 
d="M47 589h-49l80 111h52l80 -111h-49l-56 80h-2zM87 -21v521h42v-520q0 -116 -62 -155q-45 -30 -97 -30q-13 0 -25 2v39q18 -2 22 -2q40 0 74 24q46 28 46 121z" />
    <glyph glyph-name="Kcommaaccent" unicode="&#x136;" horiz-adv-x="570" 
d="M150 0h-43v700h43v-312h130l200 312h52l-215 -330v-2l229 -368h-52l-214 348h-130v-348zM276 -66h48q6 -25 6 -47q0 -39 -22 -87h-39q18 46 18 78q0 26 -11 56z" />
    <glyph glyph-name="kcommaaccent" unicode="&#x137;" horiz-adv-x="473" 
d="M129 0h-42v700h42v-397h89l162 197h55l-181 -215v-2l198 -283h-53l-181 264h-89v-264zM225 -66h48q6 -25 6 -47q0 -39 -22 -87h-39q18 46 18 78q0 26 -11 56z" />
    <glyph glyph-name="kgreenlandic" unicode="&#x138;" horiz-adv-x="471" 
d="M129 0h-42v500h42v-213h86l173 213h57l-191 -230v-2l188 -268h-55l-172 250h-86v-250z" />
    <glyph glyph-name="Lacute" unicode="&#x139;" horiz-adv-x="508" 
d="M484 0h-377v700h43v-660h334v-40zM150 750h-44l67 111h56z" />
    <glyph glyph-name="lacute" unicode="&#x13a;" horiz-adv-x="227" 
d="M87 101v599h42v-586q0 -78 59 -78q11 0 15 1v-39q-10 -2 -18 -2q-14 0 -28 3.5t-31.5 13.5t-28 32.5t-10.5 55.5zM131 750h-44l67 111h56z" />
    <glyph glyph-name="Lcommaaccent" unicode="&#x13b;" horiz-adv-x="508" 
d="M484 0h-377v700h43v-660h334v-40zM278 -66h48q6 -25 6 -47q0 -39 -22 -87h-39q18 46 18 78q0 26 -11 56z" />
    <glyph glyph-name="lcommaaccent" unicode="&#x13c;" horiz-adv-x="227" 
d="M116 -66h48q6 -26 6 -47q0 -39 -22 -87h-39q18 46 18 78q0 26 -11 56zM87 101v599h42v-586q0 -78 59 -78q11 0 15 1v-39q-10 -2 -18 -2q-14 0 -28 3.5t-31.5 13.5t-28 32.5t-10.5 55.5z" />
    <glyph glyph-name="Lcaron" unicode="&#x13d;" horiz-adv-x="508" 
d="M484 0h-377v700h43v-660h334v-40zM247 700h48q6 -25 6 -47q0 -39 -22 -87h-39q18 46 18 78q0 26 -11 56z" />
    <glyph glyph-name="lcaron" unicode="&#x13e;" horiz-adv-x="227" 
d="M87 101v599h42v-586q0 -78 59 -78q11 0 15 1v-39q-10 -2 -18 -2q-14 0 -28 3.5t-31.5 13.5t-28 32.5t-10.5 55.5zM197 700h48q6 -25 6 -47q0 -39 -22 -87h-39q18 46 18 78q0 26 -11 56z" />
    <glyph glyph-name="Ldot" unicode="&#x13f;" horiz-adv-x="508" 
d="M484 0h-377v700h43v-660h334v-40zM344 334h-61v63h61v-63z" />
    <glyph glyph-name="ldot" unicode="&#x140;" horiz-adv-x="233" 
d="M87 101v599h42v-586q0 -78 59 -78q11 0 15 1v-39q-10 -2 -18 -2q-14 0 -28 3.5t-31.5 13.5t-28 32.5t-10.5 55.5zM255 334h-61v63h61v-63z" />
    <glyph glyph-name="Lslash" unicode="&#x141;" horiz-adv-x="514" 
d="M490 0h-377v370l-65 -37v47l65 37v283h43v-258l115 67v-48l-115 -66v-355h334v-40z" />
    <glyph glyph-name="lslash" unicode="&#x142;" horiz-adv-x="251" 
d="M104 384l-89 -51v47l89 51v269h42v-244l92 53v-48l-92 -53v-294q0 -78 59 -78l15 1v-39q-12 -2 -18 -2q-14 0 -28 3.5t-31.5 13.5t-28 32.5t-10.5 55.5v283z" />
    <glyph glyph-name="Nacute" unicode="&#x143;" horiz-adv-x="750" 
d="M150 0h-43v700h40l399 -549l57 -88h2q-5 58 -5 88v549h43v-700h-40l-399 549l-57 88h-2q5 -58 5 -88v-549zM396 750h-44l67 111h56z" />
    <glyph glyph-name="nacute" unicode="&#x144;" horiz-adv-x="586" 
d="M129 0h-42v500h42v-88l-4 -41h2q16 46 73 94q56 47 139 47q90 0 127.5 -48t37.5 -147v-317h-42v302q0 58 -11 96q-21 73 -112 73q-88 0 -149 -64q-61 -62 -61 -158v-249zM328 589h-44l67 111h56z" />
    <glyph glyph-name="Ncommaaccent" unicode="&#x145;" horiz-adv-x="750" 
d="M150 0h-43v700h40l399 -549l57 -88h2q-5 58 -5 88v549h43v-700h-40l-399 549l-57 88h-2q5 -58 5 -88v-549zM350 -66h48q6 -25 6 -47q0 -39 -22 -87h-39q18 46 18 78q0 26 -11 56z" />
    <glyph glyph-name="ncommaaccent" unicode="&#x146;" horiz-adv-x="586" 
d="M129 0h-42v500h42v-88l-4 -41h2q16 46 73 94q56 47 139 47q90 0 127.5 -48t37.5 -147v-317h-42v302q0 58 -11 96q-21 73 -112 73q-88 0 -149 -64q-61 -62 -61 -158v-249zM271 -66h48q6 -25 6 -47q0 -39 -22 -87h-39q18 46 18 78q0 26 -11 56z" />
    <glyph glyph-name="Ncaron" unicode="&#x147;" horiz-adv-x="750" 
d="M150 0h-43v700h40l399 -549l57 -88h2q-5 58 -5 88v549h43v-700h-40l-399 549l-57 88h-2q5 -58 5 -88v-549zM401 750h-52l-80 111h49l56 -80h2l56 80h49z" />
    <glyph glyph-name="ncaron" unicode="&#x148;" horiz-adv-x="586" 
d="M333 589h-52l-80 111h49l56 -80h2l56 80h49zM129 0h-42v500h42v-88l-4 -41h2q16 46 73 94q56 47 139 47q90 0 127.5 -48t37.5 -147v-317h-42v302q0 58 -11 96q-21 73 -112 73q-88 0 -149 -64q-61 -62 -61 -158v-249z" />
    <glyph glyph-name="napostrophe" unicode="&#x149;" horiz-adv-x="586" 
d="M129 0h-42v500h42v-88l-4 -41h2q16 46 73 94q56 47 139 47q90 0 127.5 -48t37.5 -147v-317h-42v302q0 58 -11 96q-21 73 -112 73q-88 0 -149 -64q-61 -62 -61 -158v-249zM31 700h48q6 -25 6 -47q0 -39 -22 -87h-39q18 46 18 78q0 26 -11 56z" />
    <glyph glyph-name="Eng" unicode="&#x14a;" horiz-adv-x="750" 
d="M150 0h-43v700h40l399 -549l57 -88h2q-5 58 -5 88v549h43v-702q0 -104 -55 -153q-55 -50 -132 -50v42q64 0 104 41.5t40 125.5l-396 545l-57 88h-2q5 -58 5 -88v-549z" />
    <glyph glyph-name="eng" unicode="&#x14b;" horiz-adv-x="586" 
d="M129 0h-42v500h42v-83l-2 -41h2q17 48 72 91q55 45 138 45q90 0 127.5 -48t37.5 -147v-342q0 -116 -62 -155q-45 -30 -97 -30l-25 2v39q12 -2 22 -2q40 0 74 24q46 28 46 121v328q0 58 -11 96q-21 73 -112 73q-88 0 -150 -65q-60 -64 -60 -157v-249z" />
    <glyph glyph-name="Omacron" unicode="&#x14c;" horiz-adv-x="826" 
d="M59 355q0 150 102 254q102 103 252 103t252 -103q102 -104 102 -254q0 -155 -102 -261t-252 -106t-252 106t-102 261zM104 355q0 -138 88 -232t221 -94q132 0 220 94q89 95 89 232q0 134 -89 225q-88 91 -220 91q-133 0 -221 -91q-88 -89 -88 -225zM533 786h-239v40h239
v-40z" />
    <glyph glyph-name="omacron" unicode="&#x14d;" horiz-adv-x="620" 
d="M51 253q0 109 75 184q76 75 184 75t183 -75q76 -75 76 -184q0 -112 -76 -188q-75 -77 -183 -77q-107 0 -184 77q-75 77 -75 188zM95 253q0 -95 62 -160q63 -64 153 -64q91 0 152 64q63 65 63 160q0 92 -63 155q-62 63 -152 63t-153 -63q-62 -64 -62 -155zM430 625h-239
v40h239v-40z" />
    <glyph glyph-name="Obreve" unicode="&#x14e;" horiz-adv-x="826" 
d="M59 355q0 150 102 254q102 103 252 103t252 -103q102 -104 102 -254q0 -155 -102 -261t-252 -106t-252 106t-102 261zM104 355q0 -138 88 -232t221 -94q132 0 220 94q89 95 89 232q0 134 -89 225q-88 91 -220 91q-133 0 -221 -91q-88 -89 -88 -225zM312 845v16h40v-14
q0 -30 16.5 -46t44.5 -16t44.5 16t16.5 47v13h40v-16q3 -61 -49 -86.5t-104 0t-49 86.5z" />
    <glyph glyph-name="obreve" unicode="&#x14f;" horiz-adv-x="620" 
d="M51 253q0 109 75 184q76 75 184 75t183 -75q76 -75 76 -184q0 -112 -76 -188q-75 -77 -183 -77q-107 0 -184 77q-75 77 -75 188zM95 253q0 -95 62 -160q63 -64 153 -64q91 0 152 64q63 65 63 160q0 92 -63 155q-62 63 -152 63t-153 -63q-62 -64 -62 -155zM209 684v16h40
v-14q0 -30 16.5 -46t44.5 -16t44.5 16t16.5 47v13h40v-16q3 -61 -49 -86.5t-104 0t-49 86.5z" />
    <glyph glyph-name="Ohungarumlaut" unicode="&#x150;" horiz-adv-x="826" 
d="M59 355q0 150 102 254q102 103 252 103t252 -103q102 -104 102 -254q0 -155 -102 -261t-252 -106t-252 106t-102 261zM104 355q0 -138 88 -232t221 -94q132 0 220 94q89 95 89 232q0 134 -89 225q-88 91 -220 91q-133 0 -221 -91q-88 -89 -88 -225zM477 750h-44l67 111
h56zM365 750h-47l62 111h50z" />
    <glyph glyph-name="ohungarumlaut" unicode="&#x151;" horiz-adv-x="620" 
d="M51 253q0 109 75 184q76 75 184 75t183 -75q76 -75 76 -184q0 -112 -76 -188q-75 -77 -183 -77q-107 0 -184 77q-75 77 -75 188zM95 253q0 -95 62 -160q63 -64 153 -64q91 0 152 64q63 65 63 160q0 92 -63 155q-62 63 -152 63t-153 -63q-62 -64 -62 -155zM374 589h-44
l67 111h56zM262 589h-47l62 111h50z" />
    <glyph glyph-name="OE" unicode="&#x152;" horiz-adv-x="931" 
d="M60 350q0 152 99 256t253 104q13 0 60 -5t56 -5h337v-40h-340v-287h279v-40h-279v-293h359v-40h-355q-8 0 -56 -5t-61 -5q-154 0 -253 103t-99 257zM105 350q0 -138 85 -229q86 -90 222 -90q36 0 60 6l10 2v622q-35 8 -70 8q-137 0 -222 -91t-85 -228z" />
    <glyph glyph-name="oe" unicode="&#x153;" horiz-adv-x="1022" 
d="M310 512q77 0 140 -40t94 -109h2q29 71 88 110t134 39q98 0 150 -66q54 -64 54 -162l-2 -27h-401q3 -109 64 -168q61 -60 150 -60t155 63l23 -35q-33 -32 -81 -50.5t-97 -18.5q-79 0 -142.5 40t-93.5 110h-2q-31 -70 -94 -110t-141 -40q-108 0 -183 72q-75 74 -75 189
t75 189q77 74 183 74zM572 296h356q-4 85 -48 131t-113 46q-74 0 -128.5 -47.5t-66.5 -129.5zM525 254q0 96 -63 156q-62 61 -152 61t-152 -62t-62 -160q0 -97 62 -159q61 -61 152 -61q90 0 152 62q63 62 63 163z" />
    <glyph glyph-name="Racute" unicode="&#x154;" horiz-adv-x="607" 
d="M150 0h-43v700h205q84 0 126 -21q45 -22 71 -66.5t26 -101.5q0 -74 -38.5 -126.5t-101.5 -66.5v-2q5 -5 16 -25l157 -291h-51l-166 310h-201v-310zM150 660v-310h190q68 0 109 44.5t41 116.5q0 46 -22 82t-60 53q-33 14 -98 14h-160zM318 750h-44l67 111h56z" />
    <glyph glyph-name="racute" unicode="&#x155;" horiz-adv-x="340" 
d="M129 0h-42v500h42v-95l-4 -41h2q21 63 63 101.5t97 38.5q15 0 29 -3v-42q-8 2 -23 2q-55 0 -94 -41q-70 -74 -70 -204v-216zM226 589h-44l67 111h56z" />
    <glyph glyph-name="Rcommaaccent" unicode="&#x156;" horiz-adv-x="607" 
d="M150 0h-43v700h205q84 0 126 -21q45 -22 71 -66.5t26 -101.5q0 -74 -38.5 -126.5t-101.5 -66.5v-2q5 -5 16 -25l157 -291h-51l-166 310h-201v-310zM150 660v-310h190q68 0 109 44.5t41 116.5q0 46 -22 82t-60 53q-33 14 -98 14h-160zM292 -66h48q6 -25 6 -47
q0 -39 -22 -87h-39q18 46 18 78q0 26 -11 56z" />
    <glyph glyph-name="rcommaaccent" unicode="&#x157;" horiz-adv-x="340" 
d="M129 0h-42v500h42v-95l-4 -41h2q21 63 63 101.5t97 38.5q15 0 29 -3v-42q-8 2 -23 2q-55 0 -94 -41q-70 -74 -70 -204v-216zM85 -66h48q6 -26 6 -47q0 -39 -22 -87h-39q18 46 18 78q0 26 -11 56z" />
    <glyph glyph-name="Rcaron" unicode="&#x158;" horiz-adv-x="607" 
d="M150 0h-43v700h205q84 0 126 -21q45 -22 71 -66.5t26 -101.5q0 -74 -38.5 -126.5t-101.5 -66.5v-2q5 -5 16 -25l157 -291h-51l-166 310h-201v-310zM150 660v-310h190q68 0 109 44.5t41 116.5q0 46 -22 82t-60 53q-33 14 -98 14h-160zM323 750h-52l-80 111h49l56 -80h2
l56 80h49z" />
    <glyph glyph-name="rcaron" unicode="&#x159;" horiz-adv-x="340" 
d="M231 589h-52l-80 111h49l56 -80h2l56 80h49zM129 0h-42v500h42v-95l-4 -41h2q21 63 63 101.5t97 38.5q15 0 29 -3v-42q-8 2 -23 2q-55 0 -94 -41q-70 -74 -70 -204v-216z" />
    <glyph glyph-name="Sacute" unicode="&#x15a;" horiz-adv-x="524" 
d="M52 75l29 33q78 -78 184 -78q70 0 114.5 38t44.5 100q0 99 -127 151q-8 3 -30.5 12.5t-32.5 14t-31 14.5t-31.5 16.5t-28 18t-26.5 21t-20.5 23t-17 27t-9.5 31t-4 35.5q0 80 60 130q62 50 151 50q109 0 177 -65l-24 -37q-27 27 -70 43.5t-85 16.5q-69 0 -116 -37
q-48 -37 -48 -98q0 -91 126 -144q111 -44 152 -73q81 -58 80 -145q0 -80 -56 -133q-55 -52 -149 -52q-125 0 -212 87zM285 750h-44l67 111h56z" />
    <glyph glyph-name="sacute" unicode="&#x15b;" horiz-adv-x="430" 
d="M41 60l27 32q60 -63 155 -63q50 0 82.5 25.5t32.5 68.5q0 61 -97 98q-93 34 -124 57q-54 40 -54 99q0 65 46 99q47 36 114 36q95 0 148 -54l-25 -34q-44 47 -126 47q-50 0 -81.5 -23.5t-31.5 -67.5q0 -62 97 -100q91 -34 122 -55q55 -41 56 -102q0 -60 -45 -97.5
t-115 -37.5q-115 0 -181 72zM241 589h-44l67 111h56z" />
    <glyph glyph-name="Scircumflex" unicode="&#x15c;" horiz-adv-x="524" 
d="M52 75l29 33q78 -78 184 -78q70 0 114.5 38t44.5 100q0 99 -127 151q-8 3 -30.5 12.5t-32.5 14t-31 14.5t-31.5 16.5t-28 18t-26.5 21t-20.5 23t-17 27t-9.5 31t-4 35.5q0 80 60 130q62 50 151 50q109 0 177 -65l-24 -37q-27 27 -70 43.5t-85 16.5q-69 0 -116 -37
q-48 -37 -48 -98q0 -91 126 -144q111 -44 152 -73q81 -58 80 -145q0 -80 -56 -133q-55 -52 -149 -52q-125 0 -212 87zM208 750h-49l80 111h52l80 -111h-49l-56 80h-2z" />
    <glyph glyph-name="scircumflex" unicode="&#x15d;" horiz-adv-x="430" 
d="M41 60l27 32q60 -63 155 -63q50 0 82.5 25.5t32.5 68.5q0 61 -97 98q-93 34 -124 57q-54 40 -54 99q0 65 46 99q47 36 114 36q95 0 148 -54l-25 -34q-44 47 -126 47q-50 0 -81.5 -23.5t-31.5 -67.5q0 -62 97 -100q91 -34 122 -55q55 -41 56 -102q0 -60 -45 -97.5
t-115 -37.5q-115 0 -181 72zM164 589h-49l80 111h52l80 -111h-49l-56 80h-2z" />
    <glyph glyph-name="Scedilla" unicode="&#x15e;" horiz-adv-x="525" 
d="M240 -92l-12 -1l17 82q-114 6 -193 86l29 33q78 -78 184 -78q70 0 114.5 38t44.5 100q0 99 -127 151q-8 3 -30.5 12.5t-32.5 14t-31 14.5t-31.5 16.5t-28 18t-26.5 21t-20.5 23t-17 27t-9.5 31t-4 35.5q0 80 60 130q62 50 151 50q109 0 177 -65l-24 -37q-27 27 -70 43.5
t-85 16.5q-69 0 -116 -37q-48 -37 -48 -98q0 -91 126 -144q111 -44 152 -73q81 -58 80 -145q0 -77 -51 -129q-49 -50 -137 -55l-9 -49q31 -5 50 -23t19 -45q0 -38 -25 -57t-66 -19q-27 0 -44 4v38q18 -5 41 -5q54 0 54 37q0 38 -61 38z" />
    <glyph glyph-name="scedilla" unicode="&#x15f;" horiz-adv-x="432" 
d="M195 -92l-12 -1l17 82q-102 9 -158 71l27 32q60 -63 155 -63q50 0 82.5 25.5t32.5 68.5q0 61 -97 98q-93 34 -124 57q-54 40 -54 99q0 65 46 99q46 36 114 36q96 0 148 -54l-25 -34q-44 47 -126 47q-50 0 -81.5 -23.5t-31.5 -67.5q0 -62 97 -100q91 -34 122 -55
q55 -41 56 -102q0 -56 -41.5 -93t-105.5 -41l-9 -49q31 -5 50 -23t19 -45q0 -38 -25 -57t-66 -19q-27 0 -44 4v38q18 -5 41 -5q54 0 54 37q0 38 -61 38z" />
    <glyph glyph-name="Scaron" unicode="&#x160;" horiz-adv-x="524" 
d="M52 75l29 33q78 -78 184 -78q70 0 114.5 38t44.5 100q0 99 -127 151q-8 3 -30.5 12.5t-32.5 14t-31 14.5t-31.5 16.5t-28 18t-26.5 21t-20.5 23t-17 27t-9.5 31t-4 35.5q0 80 60 130q62 50 151 50q109 0 177 -65l-24 -37q-27 27 -70 43.5t-85 16.5q-69 0 -116 -37
q-48 -37 -48 -98q0 -91 126 -144q111 -44 152 -73q81 -58 80 -145q0 -80 -56 -133q-55 -52 -149 -52q-125 0 -212 87zM291 750h-52l-80 111h49l56 -80h2l56 80h49z" />
    <glyph glyph-name="scaron" unicode="&#x161;" horiz-adv-x="430" 
d="M41 60l27 32q60 -63 155 -63q50 0 82.5 25.5t32.5 68.5q0 61 -97 98q-93 34 -124 57q-54 40 -54 99q0 65 46 99q47 36 114 36q95 0 148 -54l-25 -34q-44 47 -126 47q-50 0 -81.5 -23.5t-31.5 -67.5q0 -62 97 -100q91 -34 122 -55q55 -41 56 -102q0 -60 -45 -97.5
t-115 -37.5q-115 0 -181 72zM247 589h-52l-80 111h49l56 -80h2l56 80h49z" />
    <glyph glyph-name="Tcommaaccent" unicode="&#x162;" horiz-adv-x="601" 
d="M282 0h-3v660h-261v40h565v-40h-261v-660h-5l-11 -60q31 -5 50 -23t19 -45q0 -38 -25 -57t-66 -19q-27 0 -44 4v38q18 -5 41 -5q54 0 54 37q0 38 -61 38l-12 -1z" />
    <glyph glyph-name="tcommaaccent" unicode="&#x163;" horiz-adv-x="304" 
d="M164 -92l-12 -1l24 110q-74 44 -74 164v278h-66v38h66v142h42v-142h131v-38h-131v-275q0 -92 45 -125q34 -24 74 -24q13 0 23 2v-39q-10 -2 -25 -2q-27 0 -54 7l-11 -63q31 -5 50 -23t19 -45q0 -38 -25 -57t-66 -19q-27 0 -44 4v38q18 -5 41 -5q54 0 54 37q0 38 -61 38z
" />
    <glyph glyph-name="Tcaron" unicode="&#x164;" horiz-adv-x="601" 
d="M326 750h-52l-80 111h49l56 -80h2l56 80h49zM322 0h-43v660h-261v40h565v-40h-261v-660z" />
    <glyph glyph-name="tcaron" unicode="&#x165;" horiz-adv-x="304" 
d="M102 181v278h-66v38h66v142h42v-142h131v-38h-131v-275q0 -92 45 -125q34 -24 74 -24q13 0 23 2v-39q-10 -2 -25 -2q-19 0 -37 3t-41 14.5t-40 30.5t-29 54.5t-12 82.5zM217 700h48q6 -25 6 -47q0 -39 -22 -87h-39q18 46 18 78q0 26 -11 56z" />
    <glyph glyph-name="Tbar" unicode="&#x166;" horiz-adv-x="611" 
d="M327 0h-43v337h-166v40h166v283h-261v40h565v-40h-261v-283h170v-40h-170v-337z" />
    <glyph glyph-name="tbar" unicode="&#x167;" horiz-adv-x="309" 
d="M104 295h-66v40h66v124h-66v38h66v142h42v-142h131v-38h-131v-124h131v-40h-131v-111q0 -92 45 -125q34 -24 74 -24l23 2v-39q-14 -2 -25 -2q-19 0 -37 3t-41 14.5t-40 30.5t-29 54.5t-12 82.5v114z" />
    <glyph glyph-name="Utilde" unicode="&#x168;" horiz-adv-x="721" 
d="M256 753h-40q0 108 83 108q23 0 41.5 -11.5t29 -25.5t25.5 -25.5t30 -11.5q40 0 40 71h40q0 -108 -83 -108q-23 0 -41.5 11.5t-29 25.5t-25.5 25.5t-30 11.5q-40 0 -40 -71zM99 240v460h43v-458q0 -98 59 -155.5t159 -57.5t159.5 58t59.5 157v456h43v-460
q0 -115 -73 -184q-73 -68 -188 -68q-117 0 -190 69q-72 69 -72 183z" />
    <glyph glyph-name="utilde" unicode="&#x169;" horiz-adv-x="580" 
d="M81 183v317h42v-302q0 -58 11 -97q22 -72 112 -72t147 67q58 67 58 160v244h42v-500h-42v88l4 41h-2q-17 -49 -72 -95t-135 -46q-88 0 -126.5 47t-38.5 148zM183 592h-40q0 108 83 108q23 0 41.5 -11.5t29 -25.5t25.5 -25.5t30 -11.5q40 0 40 71h40q0 -108 -83 -108
q-23 0 -41.5 11.5t-29 25.5t-25.5 25.5t-30 11.5q-40 0 -40 -71z" />
    <glyph glyph-name="Umacron" unicode="&#x16a;" horiz-adv-x="721" 
d="M99 240v460h43v-458q0 -98 59 -155.5t159 -57.5t159.5 58t59.5 157v456h43v-460q0 -115 -73 -184q-73 -68 -188 -68q-117 0 -190 69q-72 69 -72 183zM480 786h-239v40h239v-40z" />
    <glyph glyph-name="umacron" unicode="&#x16b;" horiz-adv-x="580" 
d="M81 183v317h42v-302q0 -58 11 -97q22 -72 112 -72t147 67q58 67 58 160v244h42v-500h-42v88l4 41h-2q-17 -49 -72 -95t-135 -46q-88 0 -126.5 47t-38.5 148zM407 625h-239v40h239v-40z" />
    <glyph glyph-name="Ubreve" unicode="&#x16c;" horiz-adv-x="721" 
d="M99 240v460h43v-458q0 -98 59 -155.5t159 -57.5t159.5 58t59.5 157v456h43v-460q0 -115 -73 -184q-73 -68 -188 -68q-117 0 -190 69q-72 69 -72 183zM259 845v16h40v-14q0 -30 16.5 -46t44.5 -16t44.5 16t16.5 47v13h40v-16q3 -61 -49 -86.5t-104 0t-49 86.5z" />
    <glyph glyph-name="ubreve" unicode="&#x16d;" horiz-adv-x="580" 
d="M81 183v317h42v-302q0 -58 11 -97q22 -72 112 -72t147 67q58 67 58 160v244h42v-500h-42v88l4 41h-2q-17 -49 -72 -95t-135 -46q-88 0 -126.5 47t-38.5 148zM186 684v16h40v-14q0 -30 16.5 -46t44.5 -16t44.5 16t16.5 47v13h40v-16q3 -61 -49 -86.5t-104 0t-49 86.5z" />
    <glyph glyph-name="Uring" unicode="&#x16e;" horiz-adv-x="721" 
d="M99 240v460h43v-458q0 -98 59 -155.5t159 -57.5t159.5 58t59.5 157v456h43v-460q0 -115 -73 -184q-73 -68 -188 -68q-117 0 -190 69q-72 69 -72 183zM407 759q-19 -19 -47 -19t-48 19q-19 19 -19 48t19 48q20 19 48 19t47 -19q20 -19 20 -48t-20 -48zM392 807
q0 20 -16 28.5t-32 0t-16 -28.5t16 -28t32 0t16 28z" />
    <glyph glyph-name="uring" unicode="&#x16f;" horiz-adv-x="580" 
d="M81 183v317h42v-302q0 -58 11 -97q22 -72 112 -72t147 67q58 67 58 160v244h42v-500h-42v88l4 41h-2q-17 -49 -72 -95t-135 -46q-88 0 -126.5 47t-38.5 148zM335 598q-19 -19 -48 -19t-48 19q-19 20 -19 48t19 47q19 20 48 20t48 -20q19 -19 19 -47t-19 -48zM319 646
q0 20 -16 28.5t-32 0t-16 -28.5t16 -28t32 0t16 28z" />
    <glyph glyph-name="Uhungarumlaut" unicode="&#x170;" horiz-adv-x="721" 
d="M99 240v460h43v-458q0 -98 59 -155.5t159 -57.5t159.5 58t59.5 157v456h43v-460q0 -115 -73 -184q-73 -68 -188 -68q-117 0 -190 69q-72 69 -72 183zM424 750h-44l67 111h56zM312 750h-47l62 111h50z" />
    <glyph glyph-name="uhungarumlaut" unicode="&#x171;" horiz-adv-x="580" 
d="M81 183v317h42v-302q0 -58 11 -97q22 -72 112 -72t147 67q58 67 58 160v244h42v-500h-42v88l4 41h-2q-17 -49 -72 -95t-135 -46q-88 0 -126.5 47t-38.5 148zM351 589h-44l67 111h56zM239 589h-47l62 111h50z" />
    <glyph glyph-name="Uogonek" unicode="&#x172;" horiz-adv-x="721" 
d="M99 240v460h43v-458q0 -98 59 -155.5t159 -57.5t159.5 58t59.5 157v456h43v-460q0 -80 -33 -131.5t-98 -93.5q-19 -11 -56 -37q-55 -42 -55 -87q0 -20 16 -35t35 -18l17 -3l-9 -39q-12 0 -36 8q-68 19 -68 83q0 51 53 102q-12 -1 -27 -1q-117 0 -190 69q-72 69 -72 183z
" />
    <glyph glyph-name="uogonek" unicode="&#x173;" horiz-adv-x="580" 
d="M81 183v317h42v-302q0 -58 11 -97q22 -72 112 -72t147 67q58 67 58 160v244h42v-500q-80 -59 -80 -109q0 -20 16 -35t35 -18l17 -3l-9 -39q-12 0 -36 8q-68 19 -68 83q0 63 83 120v81l4 41h-2q-17 -49 -72 -95t-135 -46q-88 0 -126.5 47t-38.5 148z" />
    <glyph glyph-name="Wcircumflex" unicode="&#x174;" horiz-adv-x="914" 
d="M279 0h-54l-184 700h45l148 -570l17 -75h2q10 47 19 75l160 570h48l160 -570l19 -75h2q6 34 17 75l153 570h45l-189 -700h-54l-148 528l-27 111h-4q-14 -66 -27 -111zM410 750h-49l80 111h52l80 -111h-49l-56 80h-2z" />
    <glyph glyph-name="wcircumflex" unicode="&#x175;" horiz-adv-x="823" 
d="M255 0h-45l-176 500h45l136 -392l17 -54h2l17 54l137 390h47l137 -390l17 -54h2q6 23 17 54l136 392h45l-176 -500h-45l-139 388l-17 54h-2q-7 -26 -17 -54zM354 589h-49l80 111h52l80 -111h-49l-56 80h-2z" />
    <glyph glyph-name="Ycircumflex" unicode="&#x176;" horiz-adv-x="567" 
d="M305 0h-43v304l-238 396h49l166 -276l43 -79h2q23 47 43 79l166 276h49l-237 -396v-304zM226 750h-49l80 111h52l80 -111h-49l-56 80h-2z" />
    <glyph glyph-name="ycircumflex" unicode="&#x177;" horiz-adv-x="517" 
d="M22 -182l19 36q29 -24 62 -24q61 0 98 90l36 83l-207 497h45l165 -399l18 -47h2q11 34 17 47l165 399h45l-257 -617q-39 -93 -127 -93q-43 0 -71 21zM203 589h-49l80 111h52l80 -111h-49l-56 80h-2z" />
    <glyph glyph-name="Ydieresis" unicode="&#x178;" horiz-adv-x="567" 
d="M305 0h-43v304l-238 396h49l166 -276l43 -79h2q23 47 43 79l166 276h49l-237 -396v-304zM369 788h-46v73h46v-73zM232 788h-46v73h46v-73z" />
    <glyph glyph-name="Zacute" unicode="&#x179;" horiz-adv-x="565" 
d="M523 0h-488v34l385 562l48 64v2q-22 -2 -51 -2h-361v40h464v-34l-385 -562l-48 -64v-2q22 2 51 2h385v-40zM315 750h-44l67 111h56z" />
    <glyph glyph-name="zacute" unicode="&#x17a;" horiz-adv-x="487" 
d="M448 0h-410v34l303 381l39 46v2q-24 -2 -51 -2h-278v39h386v-34l-304 -381l-40 -46v-2q26 2 52 2h303v-39zM263 589h-44l67 111h56z" />
    <glyph glyph-name="Zdotaccent" unicode="&#x17b;" horiz-adv-x="565" 
d="M523 0h-488v34l385 562l48 64v2q-22 -2 -51 -2h-361v40h464v-34l-385 -562l-48 -64v-2q22 2 51 2h385v-40zM317 788h-46v73h46v-73z" />
    <glyph glyph-name="zdotaccent" unicode="&#x17c;" horiz-adv-x="487" 
d="M448 0h-410v34l303 381l39 46v2q-24 -2 -51 -2h-278v39h386v-34l-304 -381l-40 -46v-2q26 2 52 2h303v-39zM266 627h-46v73h46v-73z" />
    <glyph glyph-name="Zcaron" unicode="&#x17d;" horiz-adv-x="565" 
d="M523 0h-488v34l385 562l48 64v2q-22 -2 -51 -2h-361v40h464v-34l-385 -562l-48 -64v-2q22 2 51 2h385v-40zM320 750h-52l-80 111h49l56 -80h2l56 80h49z" />
    <glyph glyph-name="zcaron" unicode="&#x17e;" horiz-adv-x="487" 
d="M448 0h-410v34l303 381l39 46v2q-24 -2 -51 -2h-278v39h386v-34l-304 -381l-40 -46v-2q26 2 52 2h303v-39zM269 589h-52l-80 111h49l56 -80h2l56 80h49z" />
    <glyph glyph-name="longs" unicode="&#x17f;" horiz-adv-x="251" 
d="M144 0h-42v459h-63v38h63v23q0 116 61 155q48 30 97 30l26 -2v-39q-12 2 -23 2q-39 0 -74 -24q-45 -28 -45 -121v-521z" />
    <glyph glyph-name="florin" unicode="&#x192;" horiz-adv-x="560" 
d="M36 -96v39q30 -5 62 -5q19 0 36.5 5t39 18.5t36 45t18.5 76.5l26 295h-96v38h99l10 111q5 58 25.5 98t49.5 57.5t53 23.5t48 6q40 0 70 -6l11 -1v-39q-39 7 -82 7q-39 0 -76 -24q-47 -29 -55 -121l-11 -112h133v-38h-136l-26 -294q-11 -117 -75 -155q-49 -30 -99 -30z
" />
    <glyph glyph-name="Scommaaccent" unicode="&#x218;" horiz-adv-x="524" 
d="M52 75l29 33q78 -78 184 -78q70 0 114.5 38t44.5 100q0 99 -127 151q-8 3 -30.5 12.5t-32.5 14t-31 14.5t-31.5 16.5t-28 18t-26.5 21t-20.5 23t-17 27t-9.5 31t-4 35.5q0 80 60 130q62 50 151 50q109 0 177 -65l-24 -37q-27 27 -70 43.5t-85 16.5q-69 0 -116 -37
q-48 -37 -48 -98q0 -91 126 -144q111 -44 152 -73q81 -58 80 -145q0 -80 -56 -133q-55 -52 -149 -52q-125 0 -212 87zM238 -66h48q6 -25 6 -47q0 -39 -22 -87h-39q18 46 18 78q0 26 -11 56z" />
    <glyph glyph-name="scommaaccent" unicode="&#x219;" horiz-adv-x="430" 
d="M41 60l27 32q60 -63 155 -63q50 0 82.5 25.5t32.5 68.5q0 61 -97 98q-93 34 -124 57q-54 40 -54 99q0 65 46 99q47 36 114 36q95 0 148 -54l-25 -34q-44 47 -126 47q-50 0 -81.5 -23.5t-31.5 -67.5q0 -62 97 -100q91 -34 122 -55q55 -41 56 -102q0 -60 -45 -97.5
t-115 -37.5q-115 0 -181 72zM195 -66h48q6 -26 6 -47q0 -39 -22 -87h-39q18 46 18 78q0 26 -11 56z" />
    <glyph glyph-name="uni021A" unicode="&#x21a;" horiz-adv-x="601" 
d="M322 0h-43v660h-261v40h565v-40h-261v-660zM277 -66h48q6 -25 6 -47q0 -39 -22 -87h-39q18 46 18 78q0 26 -11 56z" />
    <glyph glyph-name="uni021B" unicode="&#x21b;" horiz-adv-x="304" 
d="M102 181v278h-66v38h66v142h42v-142h131v-38h-131v-275q0 -92 45 -125q34 -24 74 -24q13 0 23 2v-39q-10 -2 -25 -2q-19 0 -37 3t-41 14.5t-40 30.5t-29 54.5t-12 82.5zM172 -66h48q6 -26 6 -47q0 -39 -22 -87h-39q18 46 18 78q0 26 -11 56z" />
    <glyph glyph-name="circumflex" unicode="&#x2c6;" horiz-adv-x="508" 
d="M197 750h-49l80 111h52l80 -111h-49l-56 80h-2z" />
    <glyph glyph-name="caron" unicode="&#x2c7;" horiz-adv-x="508" 
d="M280 750h-52l-80 111h49l56 -80h2l56 80h49z" />
    <glyph glyph-name="breve" unicode="&#x2d8;" horiz-adv-x="510" 
d="M154 845v16h40v-14q0 -30 16.5 -46t44.5 -16t44.5 16t16.5 47v13h40v-16q3 -61 -49 -86.5t-104 0t-49 86.5z" />
    <glyph glyph-name="dotaccent" unicode="&#x2d9;" horiz-adv-x="510" 
d="M278 788h-46v73h46v-73z" />
    <glyph glyph-name="ring" unicode="&#x2da;" horiz-adv-x="510" 
d="M303 759q-19 -19 -48 -19t-48 19t-19 48t19 48t48 19t48 -19t19 -48t-19 -48zM287 807q0 20 -16 28.5t-32 0t-16 -28.5t16 -28t32 0t16 28z" />
    <glyph glyph-name="ogonek" unicode="&#x2db;" horiz-adv-x="509" 
d="M187 -113q0 41 29 75.5t57 51.5l10 6l39 -13l-25 -18q-13 -9 -40 -41q-25 -31 -25 -57q0 -20 16 -35t35 -18l17 -3l-9 -39q-12 0 -36 8q-68 19 -68 83z" />
    <glyph glyph-name="tilde" unicode="&#x2dc;" horiz-adv-x="509" 
d="M150 753h-40q0 108 83 108q23 0 41.5 -11.5t29 -25.5t25.5 -25.5t30 -11.5q40 0 40 71h40q0 -108 -83 -108q-23 0 -41.5 11.5t-29 25.5t-25.5 25.5t-30 11.5q-40 0 -40 -71z" />
    <glyph glyph-name="hungarumlaut" unicode="&#x2dd;" horiz-adv-x="509" 
d="M295 750h-44l67 111h56zM183 750h-47l62 111h50z" />
    <glyph glyph-name="uni0400" unicode="&#x400;" horiz-adv-x="556" 
d="M509 0h-402v700h383v-40h-340v-287h279v-40h-279v-293h359v-40zM346 750h-44l-79 111h56z" />
    <glyph glyph-name="uni0401" unicode="&#x401;" horiz-adv-x="556" 
d="M509 0h-402v700h383v-40h-340v-287h279v-40h-279v-293h359v-40zM398 788h-46v73h46v-73zM261 788h-46v73h46v-73z" />
    <glyph glyph-name="uni0402" unicode="&#x402;" horiz-adv-x="718" 
d="M266 0h-43v660h-206v40h493v-40h-244v-259l-1 -30h2q95 46 188 46q105 0 163 -56t58 -152q0 -113 -64 -167q-63 -54 -154 -54q-9 0 -47 2v39q24 -2 44 -2q76 0 126 43q52 43 52 139q0 78 -45 122.5t-133 44.5q-49 0 -94 -13q-50 -15 -71 -25l-24 -13v-325z" />
    <glyph glyph-name="uni0403" unicode="&#x403;" horiz-adv-x="476" 
d="M150 0h-43v700h353v-40h-310v-660zM296 750h-44l67 111h56z" />
    <glyph glyph-name="uni0404" unicode="&#x404;" horiz-adv-x="717" 
d="M60 355q0 152 99 254q100 103 248 103q93 0 160 -31q58 -27 81 -48l9 -9l-26 -32q-11 11 -38 27q-24 14 -46 24q-60 28 -139 28q-126 0 -212 -85q-87 -87 -91 -215h422v-40h-421q7 -128 94 -216q86 -86 211 -86q78 0 138 28t89 57l10 10l27 -30q-18 -18 -44 -37
q-28 -20 -54 -32q-72 -37 -166 -37q-151 0 -251 106t-100 261z" />
    <glyph glyph-name="uni0405" unicode="&#x405;" horiz-adv-x="524" 
d="M52 75l29 33q78 -78 184 -78q70 0 114.5 38t44.5 100q0 99 -127 151q-8 3 -30.5 12.5t-32.5 14t-31 14.5t-31.5 16.5t-28 18t-26.5 21t-20.5 23t-17 27t-9.5 31t-4 35.5q0 80 60 130q62 50 151 50q109 0 177 -65l-24 -37q-27 27 -70 43.5t-85 16.5q-69 0 -116 -37
q-48 -37 -48 -98q0 -91 126 -144q111 -44 152 -73q81 -58 80 -145q0 -80 -56 -133q-55 -52 -149 -52q-125 0 -212 87z" />
    <glyph glyph-name="uni0406" unicode="&#x406;" horiz-adv-x="257" 
d="M150 0h-43v700h43v-700z" />
    <glyph glyph-name="uni0407" unicode="&#x407;" horiz-adv-x="257" 
d="M150 0h-43v700h43v-700zM221 788h-46v73h46v-73zM84 788h-46v73h46v-73z" />
    <glyph glyph-name="uni0408" unicode="&#x408;" horiz-adv-x="509" 
d="M35 191v22h43v-23q0 -71 37.5 -116t105.5 -45q65 0 105 40.5t40 120.5v470h-167v40h210v-509q0 -105 -55 -154q-53 -49 -132 -49q-78 0 -133 49q-54 50 -54 154z" />
    <glyph glyph-name="uni0409" unicode="&#x409;" horiz-adv-x="923" 
d="M22 -8v42q105 14 141 166q33 136 33 381v119h329v-310h148q96 0 154 -52t58 -143q0 -89 -60 -142q-59 -53 -146 -53h-197v660h-244v-79q0 -91 -3 -158q-8 -168 -34 -254q-52 -169 -179 -177zM525 350v-310h150q74 0 119.5 41t45.5 114q0 71 -46 113t-119 42h-150z" />
    <glyph glyph-name="uni040A" unicode="&#x40a;" horiz-adv-x="988" 
d="M150 0h-43v700h43v-311h394v311h43v-310h158q91 0 147 -52q58 -52 58 -143q0 -89 -60 -142q-59 -53 -146 -53h-200v349h-394v-349zM587 350v-310h153q74 0 119.5 41t45.5 114q0 71 -46 113t-119 42h-153z" />
    <glyph glyph-name="uni040B" unicode="&#x40b;" horiz-adv-x="712" 
d="M266 0h-43v660h-206v40h492v-40h-243v-264l-2 -33h2q92 54 201 54q189 0 189 -193v-224h-43v217q0 81 -35.5 120t-110.5 39q-58 0 -115 -20q-56 -20 -86 -41v-315z" />
    <glyph glyph-name="uni040C" unicode="&#x40c;" horiz-adv-x="571" 
d="M150 0h-43v700h43v-312h130l200 312h52l-215 -330v-2l229 -368h-52l-214 348h-130v-348zM316 750h-44l67 111h56z" />
    <glyph glyph-name="uni040D" unicode="&#x40d;" horiz-adv-x="750" 
d="M147 0h-40v700h43v-549l-5 -88h2q35 55 61 91l395 546h40v-700h-43v549l5 88h-2q-33 -52 -58 -88zM404 750h-44l-79 111h56z" />
    <glyph glyph-name="uni040E" unicode="&#x40e;" horiz-adv-x="576" 
d="M90 28l23 34q49 -34 82 -34q34 0 53.5 24t42.5 86l-280 562h48l212 -426l40 -90h2q12 36 32 90l160 426h47l-235 -606q-42 -106 -122 -106q-49 0 -105 40zM167 843v18h42v-15q0 -33 21.5 -52.5t54.5 -19.5q32 0 54.5 20t22.5 53v14h41v-18q0 -49 -34 -79t-84 -30t-84 30
t-34 79z" />
    <glyph glyph-name="uni040F" unicode="&#x40f;" horiz-adv-x="717" 
d="M337 0h-230v700h43v-660h417v660h43v-700h-230v-140h-43v140z" />
    <glyph glyph-name="uni0410" unicode="&#x410;" horiz-adv-x="624" 
d="M73 0h-46l262 700h46l262 -700h-46l-91 242h-297zM285 566l-107 -284h267l-106 284l-26 84h-2q-13 -47 -26 -84z" />
    <glyph glyph-name="uni0411" unicode="&#x411;" horiz-adv-x="584" 
d="M337 0h-230v700h382v-40h-339v-260h180q92 0 147 -52t55 -149q0 -91 -55 -145q-54 -54 -140 -54zM150 360v-320h183q72 0 113 42t41 117q0 74 -42.5 117.5t-112.5 43.5h-182z" />
    <glyph glyph-name="uni0412" unicode="&#x412;" horiz-adv-x="608" 
d="M352 0h-245v700h235q78 0 127 -48q50 -48 50 -127q0 -110 -91 -153v-2q54 -15 86.5 -63t32.5 -114q0 -88 -55 -140q-56 -53 -140 -53zM150 660v-272h191q60 0 96.5 37.5t36.5 99.5t-36.5 98.5t-97.5 36.5h-190zM150 348v-308h198q71 0 112.5 41t41.5 112q0 69 -43 112
t-112 43h-197z" />
    <glyph glyph-name="uni0413" unicode="&#x413;" horiz-adv-x="476" 
d="M150 0h-43v700h353v-40h-310v-660z" />
    <glyph glyph-name="uni0414" unicode="&#x414;" horiz-adv-x="682" 
d="M123 40h394v620h-277v-88q0 -182 -26 -312t-91 -220zM4 -140v180h70q82 102 105 258q12 76 15 135q4 53 4 138v129h362v-660h78v-180h-42v140h-549v-140h-43z" />
    <glyph glyph-name="uni0415" unicode="&#x415;" horiz-adv-x="556" 
d="M509 0h-402v700h383v-40h-340v-287h279v-40h-279v-293h359v-40z" />
    <glyph glyph-name="uni0416" unicode="&#x416;" horiz-adv-x="819" 
d="M76 0h-50l215 368v2l-201 330h50l188 -312h110v312h43v-312h110l188 312h50l-201 -330v-2l215 -368h-50l-202 348h-110v-348h-43v348h-110z" />
    <glyph glyph-name="uni0417" unicode="&#x417;" horiz-adv-x="530" 
d="M36 74l29 34q30 -34 78 -56t98 -22q79 0 132 45t53 119q0 70 -48 110q-47 41 -118 41h-89v40h71q66 0 112 40q47 41 47 105q0 63 -40 101.5t-115 38.5q-94 0 -165 -60l-24 37q80 65 189 65q95 0 147.5 -48.5t52.5 -130.5q0 -112 -109 -160v-2q62 -15 98 -62t36 -115
q0 -92 -66 -149q-65 -57 -165 -57q-59 0 -115 23.5t-89 62.5z" />
    <glyph glyph-name="uni0418" unicode="&#x418;" horiz-adv-x="750" 
d="M147 0h-40v700h43v-549l-5 -88h2q35 55 61 91l395 546h40v-700h-43v549l5 88h-2q-33 -52 -58 -88z" />
    <glyph glyph-name="uni0419" unicode="&#x419;" horiz-adv-x="750" 
d="M147 0h-40v700h43v-549l-5 -88h2q35 55 61 91l395 546h40v-700h-43v549l5 88h-2q-33 -52 -58 -88zM258 843v18h42v-15q0 -33 21.5 -52.5t54.5 -19.5q32 0 54.5 20t22.5 53v14h41v-18q0 -49 -34 -79t-84 -30t-84 30t-34 79z" />
    <glyph glyph-name="uni041A" unicode="&#x41a;" horiz-adv-x="571" 
d="M150 0h-43v700h43v-312h130l200 312h52l-215 -330v-2l229 -368h-52l-214 348h-130v-348z" />
    <glyph glyph-name="uni041B" unicode="&#x41b;" horiz-adv-x="652" 
d="M9 -8v42q105 14 141 166q33 136 33 381v119h362v-700h-43v660h-277v-79q0 -91 -3 -158q-8 -168 -34 -254q-52 -169 -179 -177z" />
    <glyph glyph-name="uni041C" unicode="&#x41c;" horiz-adv-x="834" 
d="M123 0h-43l56 700h42l204 -440l34 -79h2q19 48 34 79l204 440h42l56 -700h-43l-43 534l-3 93h-2q-19 -59 -36 -93l-188 -399h-44l-187 399l-37 95h-2q0 -61 -3 -95z" />
    <glyph glyph-name="uni041D" unicode="&#x41d;" horiz-adv-x="744" 
d="M150 0h-43v700h43v-329h444v329h43v-700h-43v331h-444v-331z" />
    <glyph glyph-name="uni041E" unicode="&#x41e;" horiz-adv-x="826" 
d="M59 355q0 150 103 253q104 104 251 104q146 0 250 -104t104 -253q0 -154 -104 -261q-103 -106 -250 -106q-148 0 -251 106t-103 261zM104 355q0 -137 90 -232q90 -94 219 -94t219 94t90 232q0 133 -90 225q-90 91 -219 91t-219 -91q-90 -92 -90 -225z" />
    <glyph glyph-name="uni041F" unicode="&#x41f;" horiz-adv-x="734" 
d="M150 0h-43v700h520v-700h-43v660h-434v-660z" />
    <glyph glyph-name="uni0420" unicode="&#x420;" horiz-adv-x="589" 
d="M150 0h-43v700h230q92 0 153 -56q60 -56 60 -148q0 -94 -60 -150q-61 -56 -153 -56h-187v-290zM150 660v-330h185q78 0 124 44t46 122q0 77 -45.5 120.5t-124.5 43.5h-185z" />
    <glyph glyph-name="uni0421" unicode="&#x421;" horiz-adv-x="719" 
d="M60 355q0 152 98 255q98 102 249 102q156 0 250 -88l-26 -32q-42 37 -102 58t-121 21q-132 0 -218 -90q-85 -88 -85 -226q0 -139 85 -233q86 -93 221 -93q139 0 237 95l27 -30q-109 -106 -264 -106q-156 0 -253 106q-98 107 -98 261z" />
    <glyph glyph-name="uni0422" unicode="&#x422;" horiz-adv-x="601" 
d="M322 0h-43v660h-261v40h565v-40h-261v-660z" />
    <glyph glyph-name="uni0423" unicode="&#x423;" horiz-adv-x="576" 
d="M90 28l23 34q49 -34 82 -34q34 0 53.5 24t42.5 86l-280 562h48l212 -426l40 -90h2q12 36 32 90l160 426h47l-235 -606q-42 -106 -122 -106q-49 0 -105 40z" />
    <glyph glyph-name="uni0424" unicode="&#x424;" horiz-adv-x="809" 
d="M383 663v87h43v-87q151 0 242 -79q92 -78 92 -213q0 -136 -92 -214t-242 -78v-91h-43v91q-151 0 -243 78q-91 78 -91 214t91 214q92 78 243 78zM426 625v-508q136 0 212.5 67t76.5 187t-76.5 187t-212.5 67zM383 117v508q-136 0 -212.5 -67t-76.5 -187t76.5 -187
t212.5 -67z" />
    <glyph glyph-name="uni0425" unicode="&#x425;" horiz-adv-x="555" 
d="M72 0h-51l226 370l-201 330h52l134 -223l45 -76h2q17 31 44 76l135 223h52l-203 -330l227 -370h-51l-162 266l-44 74h-2l-43 -75z" />
    <glyph glyph-name="uni0426" unicode="&#x426;" horiz-adv-x="732" 
d="M646 0h-539v700h43v-660h417v660h43v-660h78v-180h-42v140z" />
    <glyph glyph-name="uni0427" unicode="&#x427;" horiz-adv-x="600" 
d="M266 283q-206 0 -206 193v224h43v-217q0 -81 39 -120t124 -39q48 0 99 17.5t85 41.5v317h43v-700h-43v305l2 33h-2q-94 -55 -184 -55z" />
    <glyph glyph-name="uni0428" unicode="&#x428;" horiz-adv-x="983" 
d="M876 0h-769v700h43v-660h320v660h43v-660h320v660h43v-700z" />
    <glyph glyph-name="uni0429" unicode="&#x429;" horiz-adv-x="1004" 
d="M919 0h-812v700h43v-660h320v660h43v-660h320v660h43v-660h86v-180h-43v140z" />
    <glyph glyph-name="uni042A" unicode="&#x42a;" horiz-adv-x="652" 
d="M417 0h-220v660h-186v40h229v-300h170q92 0 147 -52t55 -149q0 -91 -55 -145q-54 -54 -140 -54zM240 360v-320h173q72 0 113 42t41 117q0 74 -42.5 117.5t-112.5 43.5h-172z" />
    <glyph glyph-name="uni042B" unicode="&#x42b;" horiz-adv-x="785" 
d="M327 0h-220v700h43v-300h170q92 0 147 -52t55 -149q0 -91 -55 -145q-54 -54 -140 -54zM150 360v-320h173q72 0 113 42t41 117q0 74 -42.5 117.5t-112.5 43.5h-172zM678 0h-43v700h43v-700z" />
    <glyph glyph-name="uni042C" unicode="&#x42c;" horiz-adv-x="562" 
d="M327 0h-220v700h43v-300h170q92 0 147 -52t55 -149q0 -91 -55 -145q-54 -54 -140 -54zM150 360v-320h173q72 0 113 42t41 117q0 74 -42.5 117.5t-112.5 43.5h-172z" />
    <glyph glyph-name="uni042D" unicode="&#x42d;" horiz-adv-x="717" 
d="M42 94l27 30q39 -42 103 -68q66 -27 135 -27q124 0 210 86q87 88 94 216h-421v40h422q-6 129 -92 215q-85 85 -212 85q-130 0 -222 -79l-26 32q44 41 110.5 64.5t136.5 23.5q149 0 250 -102q100 -101 100 -255q0 -155 -100 -261t-250 -106q-74 0 -145.5 28t-119.5 78z
" />
    <glyph glyph-name="uni042E" unicode="&#x42e;" horiz-adv-x="1036" 
d="M150 0h-43v700h43v-329h138q6 145 106 242q100 99 238 99q142 0 243 -104t101 -253q0 -154 -101 -261q-100 -106 -243 -106q-136 0 -236 98q-100 100 -107 245h-139v-331zM333 355q0 -137 87 -231q88 -94 212 -94t211 94q88 94 88 231q0 133 -88 224q-87 91 -211 91
t-212 -91q-87 -92 -87 -224z" />
    <glyph glyph-name="uni042F" unicode="&#x42f;" horiz-adv-x="601" 
d="M84 0h-51l175 288l16 25v2q-72 18 -110 69t-38 127q0 57 26 101.5t71 66.5q42 21 126 21h195v-700h-43v310h-179zM271 350h180v310h-150q-65 0 -98 -14q-38 -17 -60 -53t-22 -82q0 -72 41 -116.5t109 -44.5z" />
    <glyph glyph-name="uni0430" unicode="&#x430;" horiz-adv-x="508" 
d="M41 133q0 98 94 139q55 23 116 28q47 5 100 5h33v17q0 149 -137 149q-80 0 -143 -48l-24 34q29 25 75 40t94 15q87 0 132 -48t45 -141v-323h-42v66l4 45h-2q-21 -54 -68 -88.5t-107 -34.5q-69 0 -119 37q-51 37 -51 108zM85 136q0 -45 35 -77t93 -32q77 0 124 65
q47 67 47 147v27h-32q-38 0 -51 -1q-23 0 -56 -4q-36 -3 -60 -12q-43 -13 -73 -41t-27 -72z" />
    <glyph glyph-name="uni0431" unicode="&#x431;" horiz-adv-x="567" 
d="M65 279q0 125 33 204q38 86 154 145l191 95l19 -37l-194 -96q-89 -44 -125 -105q-35 -60 -42 -154h2q58 121 198 121q92 0 151 -62t59 -169q0 -103 -62 -168t-158 -65q-114 0 -170 80t-56 211zM115 223q0 -90 50 -143q51 -52 126 -52q76 0 125 52q51 52 51 140
q0 87 -50 140q-49 52 -121 52q-80 0 -131 -55q-50 -55 -50 -134z" />
    <glyph glyph-name="uni0432" unicode="&#x432;" horiz-adv-x="487" 
d="M257 0h-170v500h157q78 0 121 -32.5t43 -94.5q0 -83 -80 -110v-2q49 -9 78 -42.5t29 -80.5q0 -63 -47.5 -100.5t-130.5 -37.5zM129 462v-184h117q117 0 117 95q0 89 -121 89h-113zM129 239v-200h124q138 0 138 99q0 101 -139 101h-123z" />
    <glyph glyph-name="uni0433" unicode="&#x433;" horiz-adv-x="396" 
d="M129 0h-42v500h284v-38h-242v-462z" />
    <glyph glyph-name="uni0434" unicode="&#x434;" horiz-adv-x="553" 
d="M121 39h288v423h-198v-33q0 -258 -90 -390zM10 -120v159h61q98 125 98 390v71h282v-461h70v-159h-42v120h-427v-120h-42z" />
    <glyph glyph-name="uni0435" unicode="&#x435;" horiz-adv-x="549" 
d="M52 249q0 121 71 192t172 71q97 0 150 -66q54 -64 54 -162q0 -3 -2 -27h-401q0 -106 61 -167t153 -61t155 63l23 -35q-33 -31 -81.5 -50t-96.5 -19q-109 0 -184 72q-74 74 -74 189zM99 296h356q-4 85 -48 131t-113 46q-74 0 -128.5 -47.5t-66.5 -129.5z" />
    <glyph glyph-name="uni0436" unicode="&#x436;" horiz-adv-x="692" 
d="M76 0h-53l176 255v2l-159 243h49l146 -224h90v224h42v-224h90l146 224h49l-159 -243v-2l176 -255h-53l-161 237h-88v-237h-42v237h-88z" />
    <glyph glyph-name="uni0437" unicode="&#x437;" horiz-adv-x="431" 
d="M34 60l27 32q57 -64 138 -64q55 0 95 28q41 29 41 83q0 49 -36 75t-103 26h-60v39h54q60 0 93 24.5t33 71.5t-31.5 71.5t-84.5 24.5q-71 0 -123 -47l-25 34q61 54 152 54q72 0 114.5 -34.5t42.5 -98.5q0 -87 -81 -115v-2q47 -10 73 -41.5t26 -80.5q0 -71 -53 -112
q-52 -40 -127 -40q-95 0 -165 72z" />
    <glyph glyph-name="uni0438" unicode="&#x438;" horiz-adv-x="584" 
d="M126 0h-39v500h42v-356l-3 -81h2l57 81l273 356h39v-500h-42v357l3 78h-2l-57 -78z" />
    <glyph glyph-name="uni0439" unicode="&#x439;" horiz-adv-x="584" 
d="M126 0h-39v500h42v-356l-3 -81h2l57 81l273 356h39v-500h-42v357l3 78h-2l-57 -78zM174 682v18h42v-15q0 -33 21.5 -52.5t54.5 -19.5q32 0 54.5 20t22.5 53v14h41v-18q0 -49 -34 -79t-84 -30t-84 30t-34 79z" />
    <glyph glyph-name="uni043A" unicode="&#x43a;" horiz-adv-x="471" 
d="M129 0h-42v500h42v-221h87l164 221h53l-181 -238v-2l201 -260h-55l-182 240h-87v-240z" />
    <glyph glyph-name="uni043B" unicode="&#x43b;" horiz-adv-x="513" 
d="M20 -4v39q67 11 96.5 88t29.5 228v149h280v-500h-42v461h-196v-110q0 -178 -40.5 -261.5t-127.5 -93.5z" />
    <glyph glyph-name="uni043C" unicode="&#x43c;" horiz-adv-x="705" 
d="M110 0h-42l40 500h40l169 -331l34 -73h2q11 27 34 73l170 331h40l40 -500h-42l-28 347l-1 86h-2q-10 -29 -33 -72l-157 -306h-43l-157 304l-33 74h-2q1 -50 -1 -86z" />
    <glyph glyph-name="uni043D" unicode="&#x43d;" horiz-adv-x="585" 
d="M129 0h-42v500h42v-223h327v223h42v-500h-42v238h-327v-238z" />
    <glyph glyph-name="uni043E" unicode="&#x43e;" horiz-adv-x="620" 
d="M51 253q0 109 75 184q76 75 184 75t183 -75q76 -75 76 -184q0 -112 -76 -188q-75 -77 -183 -77q-107 0 -184 77q-75 77 -75 188zM95 253q0 -95 62 -160q63 -64 153 -64q91 0 152 64q63 65 63 160q0 92 -63 155q-62 63 -152 63t-153 -63q-62 -64 -62 -155z" />
    <glyph glyph-name="uni043F" unicode="&#x43f;" horiz-adv-x="575" 
d="M129 0h-42v500h401v-500h-42v461h-317v-461z" />
    <glyph glyph-name="uni0440" unicode="&#x440;" horiz-adv-x="578" 
d="M129 -200h-42v700h42v-60l-3 -40h2q22 52 70 82t110 30q99 0 157 -72q59 -73 59 -190t-62 -190q-62 -72 -160 -72q-57 0 -104 30t-71 83h-2q4 -16 4 -44v-257zM128 249q0 -88 47 -155q47 -65 127 -65q76 0 127 59q51 60 51 162q0 101 -49 160q-48 61 -125 61
q-79 0 -128.5 -57.5t-49.5 -164.5z" />
    <glyph glyph-name="uni0441" unicode="&#x441;" horiz-adv-x="540" 
d="M310 512q114 0 179 -71l-26 -34q-27 29 -68.5 46.5t-84.5 17.5q-90 0 -152 -62t-62 -160q0 -97 62 -159q61 -61 152 -61q48 0 92.5 19t74.5 53l22 -35q-32 -36 -82.5 -57t-106.5 -21q-109 0 -184 72q-74 74 -74 189t75 189q77 74 183 74z" />
    <glyph glyph-name="uni0442" unicode="&#x442;" horiz-adv-x="472" 
d="M257 0h-42v461h-190v39h422v-39h-190v-461z" />
    <glyph glyph-name="uni0443" unicode="&#x443;" horiz-adv-x="517" 
d="M22 -182l19 36q29 -24 62 -24q61 0 98 90l36 83l-207 497h45l165 -399l18 -47h2q11 34 17 47l165 399h45l-257 -617q-39 -93 -127 -93q-43 0 -71 21z" />
    <glyph glyph-name="uni0444" unicode="&#x444;" horiz-adv-x="684" 
d="M53 253q0 111 74 182q73 70 194 76v189h42v-189q121 -6 194 -76q74 -71 74 -182q0 -115 -75 -187q-74 -71 -193 -77v-189h-42v189q-118 6 -194 77q-74 72 -74 187zM363 470v-441q101 6 162 66q62 60 62 158q0 95 -62 154q-61 59 -162 63zM97 253q0 -98 61 -158t163 -66
v441q-102 -5 -163 -63t-61 -154z" />
    <glyph glyph-name="uni0445" unicode="&#x445;" horiz-adv-x="462" 
d="M74 0h-52l180 264l-161 236h51l121 -182l17 -28h2l17 28l121 182h51l-161 -236l180 -264h-52l-138 207l-18 29h-2q-9 -16 -18 -29z" />
    <glyph glyph-name="uni0446" unicode="&#x446;" horiz-adv-x="584" 
d="M510 0h-423v500h42v-461h311v461h42v-461h70v-159h-42v120z" />
    <glyph glyph-name="uni0447" unicode="&#x447;" horiz-adv-x="484" 
d="M218 190q-167 0 -167 155v155h42v-155q0 -52 25 -83t100 -31q76 0 137 45v224h42v-500h-42v199l2 34h-2q-24 -17 -66 -31q-41 -12 -71 -12z" />
    <glyph glyph-name="uni0448" unicode="&#x448;" horiz-adv-x="780" 
d="M693 0h-606v500h42v-461h240v461h42v-461h240v461h42v-500z" />
    <glyph glyph-name="uni0449" unicode="&#x449;" horiz-adv-x="795" 
d="M721 0h-634v500h42v-461h240v461h42v-461h240v461h42v-461h70v-159h-42v120z" />
    <glyph glyph-name="uni044A" unicode="&#x44a;" horiz-adv-x="518" 
d="M309 0h-155v462h-141v38h183v-200h115q32 0 59.5 -7t53.5 -22.5t41 -46.5t15 -75q0 -69 -44 -109t-127 -40zM196 261v-222h113q127 0 127 110q0 112 -125 112h-115z" />
    <glyph glyph-name="uni044B" unicode="&#x44b;" horiz-adv-x="634" 
d="M242 0h-155v500h42v-200h115q32 0 59.5 -7t53.5 -22.5t41 -46.5t15 -75q0 -69 -44 -109t-127 -40zM129 261v-222h113q127 0 127 110q0 112 -125 112h-115zM547 0h-42v500h42v-500z" />
    <glyph glyph-name="uni044C" unicode="&#x44c;" horiz-adv-x="451" 
d="M242 0h-155v500h42v-200h115q32 0 59.5 -7t53.5 -22.5t41 -46.5t15 -75q0 -69 -44 -109t-127 -40zM129 261v-222h113q127 0 127 110q0 112 -125 112h-115z" />
    <glyph glyph-name="uni044D" unicode="&#x44d;" horiz-adv-x="539" 
d="M40 66l22 35q61 -72 169 -72q85 0 144 55t67 146h-275v39h275q-8 92 -68 146q-61 56 -143 56q-90 0 -155 -64l-26 34q30 33 78.5 52t101.5 19q106 0 182 -74q75 -74 75 -189t-75 -189q-74 -72 -183 -72q-117 0 -189 78z" />
    <glyph glyph-name="uni044E" unicode="&#x44e;" horiz-adv-x="785" 
d="M129 0h-42v500h42v-231h107q6 102 78 173q71 70 171 70q103 0 176 -75q73 -74 73 -184q0 -112 -73 -188q-74 -77 -176 -77q-99 0 -169 69q-72 72 -79 173h-108v-230zM280 253q0 -95 60 -160q60 -64 145 -64t145 64q60 65 60 160q0 92 -60 155t-145 63t-145 -63t-60 -155z
" />
    <glyph glyph-name="uni044F" unicode="&#x44f;" horiz-adv-x="479" 
d="M88 0h-53l125 177l23 30v2q-51 7 -86.5 46t-35.5 97q0 71 47.5 109.5t129.5 38.5h154v-500h-42v202h-122zM234 240h116v222h-110q-134 0 -134 -110q0 -51 35.5 -81.5t92.5 -30.5z" />
    <glyph glyph-name="uni0450" unicode="&#x450;" horiz-adv-x="549" 
d="M52 249q0 121 71 192t172 71q97 0 150 -66q54 -64 54 -162q0 -3 -2 -27h-401q0 -106 61 -167t153 -61t155 63l23 -35q-33 -31 -81.5 -50t-96.5 -19q-109 0 -184 72q-74 74 -74 189zM99 296h356q-4 85 -48 131t-113 46q-74 0 -128.5 -47.5t-66.5 -129.5zM330 589h-44
l-79 111h56z" />
    <glyph glyph-name="uni0451" unicode="&#x451;" horiz-adv-x="549" 
d="M52 249q0 121 71 192t172 71q97 0 150 -66q54 -64 54 -162q0 -3 -2 -27h-401q0 -106 61 -167t153 -61t155 63l23 -35q-33 -31 -81.5 -50t-96.5 -19q-109 0 -184 72q-74 74 -74 189zM99 296h356q-4 85 -48 131t-113 46q-74 0 -128.5 -47.5t-66.5 -129.5zM380 627h-46v73
h46v-73zM243 627h-46v73h46v-73z" />
    <glyph glyph-name="uni0452" unicode="&#x452;" horiz-adv-x="586" 
d="M129 0h-42v576h-66v38h66v86h42v-86h238v-38h-238v-209l-2 -41h2q17 48 72 91q55 45 138 45q90 0 127.5 -48t37.5 -147v-293q0 -116 -62 -155q-45 -30 -97 -30l-25 2v39q12 -2 22 -2q40 0 74 24q46 28 46 121v279q0 58 -11 96q-21 73 -112 73q-70 0 -127 -45
q-56 -44 -75 -114q-8 -30 -8 -68v-194z" />
    <glyph glyph-name="uni0453" unicode="&#x453;" horiz-adv-x="396" 
d="M129 0h-42v500h284v-38h-242v-462zM234 589h-44l67 111h56z" />
    <glyph glyph-name="uni0454" unicode="&#x454;" horiz-adv-x="539" 
d="M310 512q49 0 94.5 -17t65.5 -37l19 -17l-26 -34q-5 6 -19 17q-14 12 -52 29q-39 18 -82 18q-84 0 -145 -54q-61 -55 -68 -142h275v-39h-276q5 -94 65 -150q61 -57 149 -57q45 0 87.5 17t62.5 37l17 18l22 -35q-17 -17 -31 -28q-70 -50 -158 -50q-109 0 -184 72
q-74 74 -74 189t75 189q77 74 183 74z" />
    <glyph glyph-name="uni0455" unicode="&#x455;" horiz-adv-x="430" 
d="M41 60l27 32q60 -63 155 -63q50 0 82.5 25.5t32.5 68.5q0 61 -97 98q-93 34 -124 57q-54 40 -54 99q0 65 46 99q47 36 114 36q95 0 148 -54l-25 -34q-44 47 -126 47q-50 0 -81.5 -23.5t-31.5 -67.5q0 -62 97 -100q91 -34 122 -55q55 -41 56 -102q0 -60 -45 -97.5
t-115 -37.5q-115 0 -181 72z" />
    <glyph glyph-name="uni0456" unicode="&#x456;" horiz-adv-x="216" 
d="M133 627h-50v73h50v-73zM129 0h-42v500h42v-500z" />
    <glyph glyph-name="uni0457" unicode="&#x457;" horiz-adv-x="216" 
d="M129 0h-42v500h42v-500zM200 627h-46v73h46v-73zM63 627h-46v73h46v-73z" />
    <glyph glyph-name="uni0458" unicode="&#x458;" horiz-adv-x="216" 
d="M133 627h-50v73h50v-73zM87 -21v521h42v-520q0 -116 -62 -155q-45 -30 -97 -30q-1 0 -25 2v39q8 -2 22 -2q40 0 74 24q46 28 46 121z" />
    <glyph glyph-name="uni0459" unicode="&#x459;" horiz-adv-x="705" 
d="M31 -4v39q67 11 96.5 88t29.5 228v149h226v-200h115q32 0 59.5 -7t53.5 -22.5t41 -46.5t15 -75q0 -69 -44 -109t-127 -40h-155v461h-142v-110q0 -178 -40.5 -261.5t-127.5 -93.5zM383 261v-222h113q127 0 127 110q0 112 -125 112h-115z" />
    <glyph glyph-name="uni045A" unicode="&#x45a;" horiz-adv-x="779" 
d="M129 0h-42v500h42v-206h287v206h42v-206h109q32 0 60.5 -7t55.5 -22t43 -44.5t16 -69.5q0 -70 -44 -110.5t-127 -40.5h-155v255h-287v-255zM458 255v-216h113q127 0 127 112q0 104 -131 104h-109z" />
    <glyph glyph-name="uni045B" unicode="&#x45b;" horiz-adv-x="586" 
d="M129 0h-42v576h-66v38h66v86h42v-86h238v-38h-238v-209l-2 -41h2q17 48 72 91q55 45 138 45q90 0 127.5 -48t37.5 -147v-267h-42v252q0 58 -11 96q-21 73 -112 73q-70 0 -127 -45q-56 -44 -75 -114q-8 -30 -8 -68v-194z" />
    <glyph glyph-name="uni045C" unicode="&#x45c;" horiz-adv-x="471" 
d="M129 0h-42v500h42v-221h87l164 221h53l-181 -238v-2l201 -260h-55l-182 240h-87v-240zM258 589h-44l67 111h56z" />
    <glyph glyph-name="uni045D" unicode="&#x45d;" horiz-adv-x="584" 
d="M126 0h-39v500h42v-356l-3 -81h2l57 81l273 356h39v-500h-42v357l3 78h-2l-57 -78zM341 589h-44l-79 111h56z" />
    <glyph glyph-name="uni045E" unicode="&#x45e;" horiz-adv-x="517" 
d="M22 -182l19 36q29 -24 62 -24q61 0 98 90l36 83l-207 497h45l165 -399l18 -47h2q11 34 17 47l165 399h45l-257 -617q-39 -93 -127 -93q-43 0 -71 21zM141 682v18h42v-15q0 -33 21.5 -52.5t54.5 -19.5q32 0 54.5 20t22.5 53v14h41v-18q0 -49 -34 -79t-84 -30t-84 30
t-34 79z" />
    <glyph glyph-name="uni045F" unicode="&#x45f;" horiz-adv-x="550" 
d="M254 0h-167v500h42v-461h292v461h42v-500h-167v-120h-42v120z" />
    <glyph glyph-name="uni0462" unicode="&#x462;" horiz-adv-x="668" 
d="M423 0h-217v540h-190v40h190v120h43v-120h203v-40h-203v-140h173q90 0 148 -52q59 -53 59 -143q0 -95 -60 -150q-58 -55 -146 -55zM249 360v-320h170q74 0 119.5 44t45.5 121q0 71 -46 113t-119 42h-170z" />
    <glyph glyph-name="uni0463" unicode="&#x463;" horiz-adv-x="489" 
d="M278 0h-155v462h-121v38h121v200h42v-200h170v-38h-170v-162h115q32 0 59.5 -7t53.5 -22.5t41 -46.5t15 -75q0 -69 -44 -109t-127 -40zM165 261v-222h113q127 0 127 110q0 112 -125 112h-115z" />
    <glyph glyph-name="uni0472" unicode="&#x472;" horiz-adv-x="826" 
d="M59 355q0 150 102 254q102 103 252 103t252 -103q102 -104 102 -254q0 -155 -102 -261t-252 -106t-252 106t-102 261zM721 335h-617q8 -131 94 -219q89 -87 215 -87q127 0 214 87q86 88 94 219zM104 375h617q-7 127 -94 211q-86 85 -214 85q-127 0 -214 -84t-95 -212z
" />
    <glyph glyph-name="uni0473" unicode="&#x473;" horiz-adv-x="620" 
d="M51 253q0 109 75 184q76 75 184 75t183 -75q76 -75 76 -184q0 -112 -76 -188q-75 -77 -183 -77q-107 0 -184 77q-75 77 -75 188zM310 29q84 0 145 58t69 146h-429q7 -88 68 -146t147 -58zM95 272h429q-8 86 -68 142q-61 57 -146 57q-86 0 -147 -57q-60 -56 -68 -142z" />
    <glyph glyph-name="uni0474" unicode="&#x474;" horiz-adv-x="680" 
d="M334 0h-47l-262 700h47l210 -566l27 -84h2l27 84l163 471q22 63 49 79q26 16 94 16h24v-41h-21h-34q-21 0 -25 -3q-30 -12 -45 -63z" />
    <glyph glyph-name="uni0475" unicode="&#x475;" horiz-adv-x="539" 
d="M268 0h-40l-197 500h45l154 -392l17 -54h2l17 54l107 305q17 49 44 68t79 19h21v-41h-21q-37 0 -54 -11.5t-31 -49.5z" />
    <glyph glyph-name="uni048A" unicode="&#x48a;" horiz-adv-x="767" 
d="M147 0h-40v700h43v-549l-5 -88h2q35 55 61 91l395 546h40v-660h90v-33l-60 -147h-40l49 140h-82v549l5 88h-2q-33 -52 -58 -88zM259 843v18h42v-15q0 -33 21.5 -52.5t54.5 -19.5q32 0 54.5 20t22.5 53v14h41v-18q0 -49 -34 -79t-84 -30t-84 30t-34 79z" />
    <glyph glyph-name="uni048B" unicode="&#x48b;" horiz-adv-x="599" 
d="M126 0h-39v500h42v-356l-3 -81h2l57 81l273 356h39v-462h70v-33l-51 -125h-38l42 120h-65v357l3 78h-2l-57 -78zM177 682v18h42v-15q0 -33 21.5 -52.5t54.5 -19.5q32 0 54.5 20t22.5 53v14h41v-18q0 -49 -34 -79t-84 -30t-84 30t-34 79z" />
    <glyph glyph-name="uni048C" unicode="&#x48c;" horiz-adv-x="649" 
d="M405 0h-227v586h-164v40h164v124h43v-124h170v-40h-170v-176h183q90 0 148 -55q59 -56 59 -150q0 -95 -60 -150q-58 -55 -146 -55zM221 370v-330h180q74 0 119.5 44t45.5 121q0 76 -46 120.5t-119 44.5h-180z" />
    <glyph glyph-name="uni048D" unicode="&#x48d;" horiz-adv-x="499" 
d="M288 0h-155v462h-121v38h121v200h42v-200h170v-38h-170v-162h115q32 0 59.5 -7t53.5 -22.5t41 -46.5t15 -75q0 -69 -44 -109t-127 -40zM175 261v-222h113q127 0 127 110q0 112 -125 112h-115z" />
    <glyph glyph-name="uni048E" unicode="&#x48e;" horiz-adv-x="609" 
d="M150 0h-43v700h230q92 0 153 -56q60 -56 60 -148q0 -100 -69 -158l63 -90l-32 -23l-63 91q-50 -26 -112 -26h-187v-290zM425 350l-71 104l32 23l72 -104q47 44 47 123q0 77 -45.5 120.5t-124.5 43.5h-185v-330h185q53 0 90 20z" />
    <glyph glyph-name="uni048F" unicode="&#x48f;" horiz-adv-x="588" 
d="M129 -200h-42v700h42v-60l-3 -40h2q9 20 23 39q58 73 157 73t157 -72q59 -73 59 -190q0 -118 -63 -191l57 -69l-30 -26l-56 67q-55 -43 -130 -43q-67 0 -109 33t-61 69l-5 11h-2q4 -16 4 -44v-257zM404 64l-71 86l30 26l69 -83q48 59 48 157q0 101 -49 160
q-48 61 -125 61q-79 0 -128.5 -57.5t-49.5 -164.5q0 -88 47 -155q47 -65 127 -65q58 0 102 35z" />
    <glyph glyph-name="uni0490" unicode="&#x490;" horiz-adv-x="477" 
d="M150 0h-43v700h312v80h42v-120h-311v-660z" />
    <glyph glyph-name="uni0491" unicode="&#x491;" horiz-adv-x="386" 
d="M129 0h-42v500h234v70h40v-108h-232v-462z" />
    <glyph glyph-name="uni0492" unicode="&#x492;" horiz-adv-x="488" 
d="M156 0h-43v328h-65v40h65v332h353v-40h-310v-292h163v-40h-163v-328z" />
    <glyph glyph-name="uni0493" unicode="&#x493;" horiz-adv-x="400" 
d="M129 0h-42v231h-64v38h64v231h284v-38h-242v-193h135v-38h-135v-231z" />
    <glyph glyph-name="uni0494" unicode="&#x494;" horiz-adv-x="582" 
d="M150 0h-43v700h353v-40h-310v-282q18 11 67 26q43 13 84 13q76 0 126 -27q102 -54 102 -251q0 -161 -64 -234q-64 -75 -164 -75v39q72 0 125 53q60 60 60 217q0 129 -44.5 183.5t-140.5 54.5q-73 0 -151 -39v-338z" />
    <glyph glyph-name="uni0495" unicode="&#x495;" horiz-adv-x="473" 
d="M129 0h-42v500h283v-39h-241v-214q65 33 125 33q51 0 88 -19t55 -51t26 -66.5t8 -73.5q0 -181 -136 -275l-23 34q117 78 117 241q0 79 -33 124t-102 45q-67 0 -125 -35v-204z" />
    <glyph glyph-name="uni0496" unicode="&#x496;" horiz-adv-x="863" 
d="M76 0h-50l215 368v2l-201 330h50l188 -312h110v312h43v-312h110l188 312h50l-201 -330v-2l191 -328h81v-180h-42v140h-65l-202 348h-110v-348h-43v348h-110z" />
    <glyph glyph-name="uni0497" unicode="&#x497;" horiz-adv-x="724" 
d="M76 0h-53l176 255v2l-159 243h49l146 -224h90v224h42v-224h90l146 224h49l-159 -243v-2l149 -216h62v-159h-42v120h-46l-161 237h-88v-237h-42v237h-88z" />
    <glyph glyph-name="uni0498" unicode="&#x498;" horiz-adv-x="532" 
d="M36 74l29 34q30 -34 78 -56t98 -22q79 0 132 45t53 119q0 70 -48 110q-47 41 -118 41h-89v40h71q66 0 112 40q47 41 47 105q0 63 -40 101.5t-115 38.5q-94 0 -165 -60l-24 37q80 65 189 65q95 0 147.5 -48.5t52.5 -130.5q0 -112 -109 -160v-2q62 -15 98 -62t36 -115
q0 -87 -58 -142q-57 -56 -147 -63v-129h-42v129q-55 3 -106.5 26t-81.5 59z" />
    <glyph glyph-name="uni0499" unicode="&#x499;" horiz-adv-x="433" 
d="M35 60l27 32q57 -64 138 -64q55 0 95 28q41 29 41 83q0 49 -36 75t-103 26h-60v39h54q61 0 93.5 24.5t32.5 71.5t-31.5 71.5t-84.5 24.5q-71 0 -123 -47l-25 34q62 54 152 54q72 0 114.5 -34.5t42.5 -98.5q0 -87 -81 -115v-2q47 -10 73 -41.5t26 -80.5
q0 -62 -41.5 -101.5t-107.5 -48.5v-110h-42v108q-91 4 -154 72z" />
    <glyph glyph-name="uni049A" unicode="&#x49a;" horiz-adv-x="616" 
d="M150 0h-43v700h43v-312h130l200 312h52l-215 -330v-2l204 -328h82v-180h-42v140h-67l-214 348h-130v-348z" />
    <glyph glyph-name="uni049B" unicode="&#x49b;" horiz-adv-x="501" 
d="M129 0h-42v500h42v-221h87l164 221h53l-181 -238v-2l171 -221h60v-159h-42v120h-43l-182 240h-87v-240z" />
    <glyph glyph-name="uni049C" unicode="&#x49c;" horiz-adv-x="629" 
d="M150 0h-43v700h43v-312h86v130h41v-130h61l200 312h52l-215 -330v-2l229 -368h-52l-214 348h-61v-130h-41v130h-86v-348z" />
    <glyph glyph-name="uni049D" unicode="&#x49d;" horiz-adv-x="531" 
d="M129 0h-42v500h42v-221h70v109h39v-109h38l164 221h53l-181 -238v-2l201 -260h-55l-182 240h-38v-111h-39v111h-70v-240z" />
    <glyph glyph-name="uni049E" unicode="&#x49e;" horiz-adv-x="576" 
d="M112 533h-106v40h106v127h43v-127h112v-40h-112v-145h130l200 312h52l-215 -330v-2l229 -368h-52l-214 348h-130v-348h-43v533z" />
    <glyph glyph-name="uni049F" unicode="&#x49f;" horiz-adv-x="472" 
d="M129 0h-42v530h-63v38h63v132h42v-132h136v-38h-136v-227h89l162 197h55l-181 -215v-2l198 -283h-53l-181 264h-89v-264z" />
    <glyph glyph-name="uni04A0" unicode="&#x4a0;" horiz-adv-x="714" 
d="M293 0h-43v660h-231v40h274v-312h130l200 312h52l-215 -330v-2l229 -368h-52l-214 348h-130v-348z" />
    <glyph glyph-name="uni04A1" unicode="&#x4a1;" horiz-adv-x="538" 
d="M196 0h-42v462h-141v38h183v-221h87l164 221h53l-181 -238v-2l201 -260h-55l-182 240h-87v-240z" />
    <glyph glyph-name="uni04A2" unicode="&#x4a2;" horiz-adv-x="765" 
d="M150 0h-43v700h43v-329h444v329h43v-660h86v-180h-42v140h-87v331h-444v-331z" />
    <glyph glyph-name="uni04A3" unicode="&#x4a3;" horiz-adv-x="601" 
d="M129 0h-42v500h42v-223h327v223h42v-461h75v-159h-42v120h-75v238h-327v-238z" />
    <glyph glyph-name="uni04A4" unicode="&#x4a4;" horiz-adv-x="913" 
d="M150 0h-43v700h43v-329h394v329h353v-40h-310v-660h-43v331h-394v-331z" />
    <glyph glyph-name="uni04A5" unicode="&#x4a5;" horiz-adv-x="705" 
d="M129 0h-42v500h42v-223h287v223h264v-38h-222v-462h-42v238h-287v-238z" />
    <glyph glyph-name="uni04A6" unicode="&#x4a6;" horiz-adv-x="991" 
d="M150 0h-43v700h457v-312q18 11 67 26q43 13 84 13q76 0 126 -28q102 -57 102 -260q0 -161 -64 -234q-65 -75 -164 -75v39q72 0 125 53q60 60 60 217q0 133 -44.5 190.5t-140.5 57.5q-67 0 -151 -39v-348h-43v660h-371v-660z" />
    <glyph glyph-name="uni04A7" unicode="&#x4a7;" horiz-adv-x="781" 
d="M129 0h-42v500h341v-233q64 33 125 33q54 0 92.5 -19.5t58 -53.5t28 -69.5t8.5 -77.5q0 -188 -136 -285l-23 34q117 83 117 251q0 83 -35 131t-110 48q-67 0 -125 -35v-224h-42v461h-257v-461z" />
    <glyph glyph-name="uni04A8" unicode="&#x4a8;" horiz-adv-x="929" 
d="M61 358q0 155 91 249q83 86 189 105v-41q-95 -22 -166 -104q-69 -79 -69 -209q0 -141 79 -235q80 -93 214 -93q78 0 160 33q-91 54 -141.5 143t-50.5 199q0 73 23.5 133t62.5 94q79 68 167 68q103 0 174 -74t71 -221q0 -104 -58 -193q-59 -88 -153 -147q74 -25 162 -25
h39v-40h-39q-118 0 -208 39q-104 -51 -208 -51q-153 0 -246 101q-93 102 -93 269zM412 405q0 -104 51 -188.5t143 -131.5q95 53 154 137q60 86 60 183q0 131 -59 193q-58 61 -141 61q-34 0 -69 -15t-67 -44t-52 -80t-20 -115z" />
    <glyph glyph-name="uni04A9" unicode="&#x4a9;" horiz-adv-x="756" 
d="M53 255q0 100 56 167q57 67 131 90l13 -38q-61 -20 -108 -76q-48 -56 -48 -143q0 -103 59 -164.5t172 -61.5q66 0 128 24q-72 40 -113 105.5t-41 146.5q0 85 58 146t144 61t140 -56t54 -151q0 -73 -40 -138t-110 -111q51 -15 108 -15h42v-41h-42q-82 0 -154 30
q-86 -42 -174 -42q-137 0 -206 76t-69 191zM346 305q0 -75 42 -136t114 -95q71 39 111.5 99.5t40.5 131.5q0 77 -41.5 121.5t-108.5 44.5q-64 0 -111 -47t-47 -119z" />
    <glyph glyph-name="uni04AA" unicode="&#x4aa;" horiz-adv-x="720" 
d="M61 355q0 152 98 255q97 102 249 102q156 0 250 -88l-26 -32q-42 37 -102 58t-121 21q-132 0 -218 -90q-85 -88 -85 -226q0 -139 85 -233q86 -93 221 -93q139 0 237 95l27 -30q-104 -100 -246 -105v-129h-42v129q-145 9 -237 113q-90 104 -90 253z" />
    <glyph glyph-name="uni04AB" unicode="&#x4ab;" horiz-adv-x="542" 
d="M53 249q0 115 75 189q77 74 183 74q114 0 179 -71l-26 -34q-27 29 -68.5 46.5t-84.5 17.5q-90 0 -152 -62t-62 -160q0 -97 62 -159q61 -61 152 -61q47 0 92 19t75 53l22 -35q-64 -74 -177 -78v-108h-42v110q-101 11 -164 80q-64 70 -64 179z" />
    <glyph glyph-name="uni04AC" unicode="&#x4ac;" horiz-adv-x="600" 
d="M364 0h-87v660h-261v40h565v-40h-261v-620h86v-180h-42v140z" />
    <glyph glyph-name="uni04AD" unicode="&#x4ad;" horiz-adv-x="475" 
d="M290 0h-75v461h-190v39h422v-39h-190v-422h75v-159h-42v120z" />
    <glyph glyph-name="uni04AE" unicode="&#x4ae;" horiz-adv-x="555" 
d="M299 0h-43v304l-238 396h49l166 -276l43 -79h2q23 47 43 79l166 276h49l-237 -396v-304z" />
    <glyph glyph-name="uni04AF" unicode="&#x4af;" horiz-adv-x="498" 
d="M229 -200v239l-199 461h45l154 -359l19 -51h2q5 17 19 51l154 359h44l-198 -461v-239h-40z" />
    <glyph glyph-name="uni04B0" unicode="&#x4b0;" horiz-adv-x="555" 
d="M256 265h-135v39h135l-238 396h49l166 -276l43 -79h2q23 47 43 79l166 276h49l-237 -396h130v-39h-130v-265h-43v265z" />
    <glyph glyph-name="uni04B1" unicode="&#x4b1;" horiz-adv-x="497" 
d="M229 0h-114v39h114l-197 461h45l152 -359l19 -51h2q5 17 19 51l152 359h44l-196 -461h114v-39h-114v-200h-40v200z" />
    <glyph glyph-name="uni04B2" unicode="&#x4b2;" horiz-adv-x="601" 
d="M72 0h-51l226 370l-201 330h52l134 -223l46 -78h2q25 49 43 78l135 223h52l-203 -330l202 -330h81v-180h-42v140h-65l-162 266l-45 75h-2q-24 -47 -42 -76z" />
    <glyph glyph-name="uni04B3" unicode="&#x4b3;" horiz-adv-x="493" 
d="M74 0h-52l180 264l-161 236h51l121 -182l17 -28h2l17 28l121 182h51l-161 -236l153 -225h60v-159h-42v120h-43l-138 207l-18 29h-2q-9 -16 -18 -29z" />
    <glyph glyph-name="uni04B4" unicode="&#x4b4;" horiz-adv-x="881" 
d="M797 0h-547v660h-231v40h505v-40h-231v-620h417v660h43v-660h86v-180h-42v140z" />
    <glyph glyph-name="uni04B5" unicode="&#x4b5;" horiz-adv-x="708" 
d="M634 0h-423v461h-186v39h414v-39h-186v-422h311v461h42v-461h70v-159h-42v120z" />
    <glyph glyph-name="uni04B6" unicode="&#x4b6;" horiz-adv-x="621" 
d="M266 283q-206 0 -206 193v224h43v-217q0 -81 39 -120t124 -39q48 0 99 17.5t85 41.5v317h43v-660h86v-180h-42v140h-87v305l2 33h-2q-94 -55 -184 -55z" />
    <glyph glyph-name="uni04B7" unicode="&#x4b7;" horiz-adv-x="505" 
d="M218 190q-167 0 -167 155v155h42v-155q0 -52 25 -83t100 -31q76 0 137 45v224h42v-461h83v-159h-42v120h-83v199l2 34h-2q-24 -17 -66 -31q-41 -12 -71 -12z" />
    <glyph glyph-name="uni04B8" unicode="&#x4b8;" horiz-adv-x="599" 
d="M301 170h-41v113q-201 1 -201 193v224h43v-217q0 -80 38 -119t120 -40v146h41v-144q85 12 148 57v317h43v-700h-43v305l2 33h-2q-68 -41 -148 -53v-115z" />
    <glyph glyph-name="uni04B9" unicode="&#x4b9;" horiz-adv-x="484" 
d="M253 109h-39v81q-163 1 -163 155v155h42v-155q0 -55 26.5 -84t94.5 -30v127h39v-124q57 9 102 42v224h42v-500h-42v199l2 34h-2q-40 -28 -102 -40v-84z" />
    <glyph glyph-name="uni04BA" unicode="&#x4ba;" horiz-adv-x="605" 
d="M150 0h-43v700h43v-261l-2 -33h2q92 54 201 54q189 0 189 -193v-267h-43v260q0 81 -35.5 120t-110.5 39q-58 0 -115 -20q-56 -20 -86 -41v-358z" />
    <glyph glyph-name="uni04BB" unicode="&#x4bb;" horiz-adv-x="586" 
d="M129 0h-42v700h42v-288l-4 -41h2q16 46 73 94q56 47 139 47q90 0 127.5 -48t37.5 -147v-317h-42v302q0 58 -11 96q-21 73 -112 73q-88 0 -149 -64t-61 -161v-246z" />
    <glyph glyph-name="uni04BC" unicode="&#x4bc;" horiz-adv-x="846" 
d="M50 505q0 45 6 77l9 45h44l-9 -45q-7 -32 -7 -77q0 -44 23 -71t64 -27h15q16 130 101 218q84 87 213 87q123 0 198 -83q76 -82 76 -234v-28h-547q-3 -81 20.5 -146.5t64.5 -106.5t92 -63t106 -22q129 0 227 81l10 10l24 -37q-16 -15 -43 -33q-22 -15 -53 -29
q-76 -33 -166 -33q-143 0 -235 98t-92 259v22h-12q-60 0 -94.5 37.5t-34.5 100.5zM240 407h497q0 69 -23 127q-23 61 -77 99t-128 38q-109 0 -181 -75t-88 -189z" />
    <glyph glyph-name="uni04BD" unicode="&#x4bd;" horiz-adv-x="652" 
d="M45 376q0 37 14 79h42q-15 -35 -15 -76q0 -82 62 -82h10q15 100 82 157q67 58 158 58q98 0 150 -66q54 -64 54 -162l-2 -27h-401q0 -106 61 -167t153 -61q40 0 79 14.5t58 32.5l18 16l23 -35q-8 -8 -23 -20q-12 -10 -61 -30q-45 -19 -94 -19q-109 0 -184 72
q-74 74 -74 189v8h-9q-101 0 -101 119zM202 296h356q-4 85 -48 131t-113 46q-74 0 -128.5 -47.5t-66.5 -129.5z" />
    <glyph glyph-name="uni04BE" unicode="&#x4be;" horiz-adv-x="846" 
d="M50 505q0 45 6 77l9 45h44l-9 -45q-7 -32 -7 -77q0 -44 23 -71t64 -27h15q16 130 101 218q84 87 213 87q123 0 198 -83q76 -82 76 -234v-28h-547q-3 -81 20.5 -146.5t64.5 -106.5t92 -63t106 -22q129 0 227 81l10 10l24 -37q-15 -15 -41 -32q-20 -13 -51 -28
q-74 -34 -157 -35v-128h-42v129q-133 11 -215 107q-83 98 -83 249v22h-12q-60 0 -94.5 37.5t-34.5 100.5zM240 407h497q0 69 -23 127q-23 61 -77 99t-128 38q-109 0 -181 -75t-88 -189z" />
    <glyph glyph-name="uni04BF" unicode="&#x4bf;" horiz-adv-x="653" 
d="M46 376q0 37 14 79h42q-15 -35 -15 -76q0 -82 62 -82h10q15 100 82 157q67 58 158 58q97 0 150 -66q54 -64 54 -162l-2 -27h-401q0 -106 61 -167t153 -61q40 0 79 14.5t59 32.5l17 16l23 -35q-8 -8 -23 -20q-12 -10 -61 -30q-45 -19 -94 -19h-2v-108h-42v112
q-92 13 -154 83q-60 71 -60 174v8h-9q-101 0 -101 119zM203 296h356q-4 85 -48 131t-113 46q-74 0 -128.5 -47.5t-66.5 -129.5z" />
    <glyph glyph-name="uni04C0" unicode="&#x4c0;" horiz-adv-x="257" 
d="M150 0h-43v700h43v-700z" />
    <glyph glyph-name="uni04C1" unicode="&#x4c1;" horiz-adv-x="819" 
d="M76 0h-50l215 368v2l-201 330h50l188 -312h110v312h43v-312h110l188 312h50l-201 -330v-2l215 -368h-50l-202 348h-110v-348h-43v348h-110zM291 843v18h42v-15q0 -33 21.5 -52.5t54.5 -19.5q32 0 54.5 20t22.5 53v14h41v-18q0 -49 -34 -79t-84 -30t-84 30t-34 79z" />
    <glyph glyph-name="uni04C2" unicode="&#x4c2;" horiz-adv-x="692" 
d="M76 0h-53l176 255v2l-159 243h49l146 -224h90v224h42v-224h90l146 224h49l-159 -243v-2l176 -255h-53l-161 237h-88v-237h-42v237h-88zM228 682v18h42v-15q0 -33 21.5 -52.5t54.5 -19.5q32 0 54.5 20t22.5 53v14h41v-18q0 -49 -34 -79t-84 -30t-84 30t-34 79z" />
    <glyph glyph-name="uni04C3" unicode="&#x4c3;" horiz-adv-x="596" 
d="M150 0h-43v700h43v-312h130l200 312h52l-207 -323q108 -25 160 -93q20 -24 35 -62q20 -47 20 -105q0 -139 -66 -213q-65 -74 -162 -74v39q77 0 131 59q54 58 54 189q0 122 -77 176q-76 55 -194 55h-76v-348z" />
    <glyph glyph-name="uni04C4" unicode="&#x4c4;" horiz-adv-x="482" 
d="M129 0h-42v500h42v-223h85l166 223h53l-173 -227v-2q172 -42 172 -228q0 -167 -139 -248l-22 36q117 61 117 212q0 99 -54.5 147t-154.5 48h-50v-238z" />
    <glyph glyph-name="uni04C5" unicode="&#x4c5;" horiz-adv-x="669" 
d="M9 -8v42q105 14 141 166q33 136 33 381v119h362v-660h90v-33l-60 -147h-40l49 140h-82v660h-277v-79q0 -91 -3 -158q-8 -168 -34 -254q-52 -169 -179 -177z" />
    <glyph glyph-name="uni04C6" unicode="&#x4c6;" horiz-adv-x="528" 
d="M20 -4v39q67 11 96.5 88t29.5 228v149h280v-462h70v-33l-51 -125h-38l42 120h-65v461h-196v-110q0 -178 -40.5 -261.5t-127.5 -93.5z" />
    <glyph glyph-name="uni04C7" unicode="&#x4c7;" horiz-adv-x="744" 
d="M150 0h-43v700h43v-329h444v329h43v-685q0 -58 -17.5 -98t-45 -57.5t-51.5 -23.5t-48 -6v39q39 0 73 24q46 28 46 121v317h-444v-331z" />
    <glyph glyph-name="uni04C8" unicode="&#x4c8;" horiz-adv-x="586" 
d="M129 0h-42v500h42v-223h327v223h43v-467q0 -98 -38 -151t-101 -87l-22 36q118 55 118 202v205h-327v-238z" />
    <glyph glyph-name="uni04C9" unicode="&#x4c9;" horiz-adv-x="761" 
d="M150 0h-43v700h43v-329h444v329h43v-660h90v-33l-60 -147h-40l49 140h-82v331h-444v-331z" />
    <glyph glyph-name="uni04CA" unicode="&#x4ca;" horiz-adv-x="600" 
d="M129 0h-42v500h42v-223h327v223h42v-462h70v-33l-51 -125h-38l42 120h-65v238h-327v-238z" />
    <glyph glyph-name="uni04CB" unicode="&#x4cb;" horiz-adv-x="600" 
d="M266 283q-206 0 -206 193v224h43v-217q0 -81 39 -120t124 -39q48 0 99 17.5t85 41.5v317h43v-700h-87v-140h-42v180h86v265l2 33h-2q-94 -55 -184 -55z" />
    <glyph glyph-name="uni04CC" unicode="&#x4cc;" horiz-adv-x="492" 
d="M288 -120v159h75v159l2 34h-2q-27 -16 -74 -30q-47 -12 -78 -12q-160 0 -160 155v155h42v-155q0 -55 26.5 -84.5t91.5 -29.5q83 0 152 45v224h42v-500h-75v-120h-42z" />
    <glyph glyph-name="uni04CD" unicode="&#x4cd;" horiz-adv-x="851" 
d="M123 0h-43l56 700h42l204 -440l34 -79h2q19 48 34 79l204 440h42l53 -660h88v-33l-60 -147h-40l49 140h-77l-43 534l-3 93h-2q-19 -59 -36 -93l-188 -399h-44l-187 399l-37 95h-2q0 -61 -3 -95z" />
    <glyph glyph-name="uni04CE" unicode="&#x4ce;" horiz-adv-x="720" 
d="M110 0h-42l40 500h40l169 -331l34 -73h2q11 27 34 73l170 331h40l37 -462h68v-33l-51 -125h-38l42 120h-60l-28 347l-1 86h-2q-10 -29 -33 -72l-157 -306h-43l-157 304l-33 74h-2q1 -50 -1 -86z" />
    <glyph glyph-name="uni04CF" unicode="&#x4cf;" horiz-adv-x="216" 
d="M129 0h-42v700h42v-700z" />
    <glyph glyph-name="uni04D0" unicode="&#x4d0;" horiz-adv-x="624" 
d="M73 0h-46l262 700h46l262 -700h-46l-91 242h-297zM285 566l-107 -284h267l-106 284l-26 84h-2q-13 -47 -26 -84zM194 843v18h42v-15q0 -33 21.5 -52.5t54.5 -19.5q32 0 54.5 20t22.5 53v14h41v-18q0 -49 -34 -79t-84 -30t-84 30t-34 79z" />
    <glyph glyph-name="uni04D1" unicode="&#x4d1;" horiz-adv-x="509" 
d="M42 133q0 98 94 139q55 23 116 28q47 5 100 5h33v17q0 149 -137 149q-80 0 -143 -48l-24 34q29 25 75 40t94 15q87 0 132 -48t45 -141v-323h-42v66l4 45h-2q-21 -54 -68 -88.5t-107 -34.5q-69 0 -119 37q-51 37 -51 108zM86 136q0 -45 35 -77t93 -32q77 0 124 65
q47 67 47 147v27h-32q-38 0 -51 -1q-23 0 -56 -4q-36 -3 -60 -12q-43 -13 -73 -41t-27 -72zM141 682v18h42v-15q0 -33 21.5 -52.5t54.5 -19.5q32 0 54.5 20t22.5 53v14h41v-18q0 -49 -34 -79t-84 -30t-84 30t-34 79z" />
    <glyph glyph-name="uni04D2" unicode="&#x4d2;" horiz-adv-x="624" 
d="M73 0h-46l262 700h46l262 -700h-46l-91 242h-297zM285 566l-107 -284h267l-106 284l-26 84h-2q-13 -47 -26 -84zM404 788h-46v73h46v-73zM267 788h-46v73h46v-73z" />
    <glyph glyph-name="uni04D3" unicode="&#x4d3;" horiz-adv-x="509" 
d="M42 133q0 98 94 139q55 23 116 28q47 5 100 5h33v17q0 149 -137 149q-80 0 -143 -48l-24 34q29 25 75 40t94 15q87 0 132 -48t45 -141v-323h-42v66l4 45h-2q-21 -54 -68 -88.5t-107 -34.5q-69 0 -119 37q-51 37 -51 108zM86 136q0 -45 35 -77t93 -32q77 0 124 65
q47 67 47 147v27h-32q-38 0 -51 -1q-23 0 -56 -4q-36 -3 -60 -12q-43 -13 -73 -41t-27 -72zM343 627h-46v73h46v-73zM206 627h-46v73h46v-73z" />
    <glyph glyph-name="uni04D4" unicode="&#x4d4;" horiz-adv-x="823" 
d="M67 0h-46l287 700h449v-40h-340v-287h279v-40h-279v-293h359v-40h-402v333h-171zM338 660l-118 -287h154v287h-36z" />
    <glyph glyph-name="uni04D5" unicode="&#x4d5;" horiz-adv-x="870" 
d="M43 133q0 97 82 134q48 23 109 28q47 5 111 5h40v22q0 149 -141 149q-78 0 -139 -48l-24 34q61 55 165 55q144 0 172 -117h2q62 117 198 117q97 0 149 -64q53 -65 53 -159q0 -6 -2 -28h-391q0 -109 56 -170.5t148 -61.5t155 63l23 -35q-33 -31 -81.5 -50t-96.5 -19
q-78 0 -138 40.5t-87 112.5h-2q-6 -32 -45 -86q-21 -29 -59.5 -48t-84.5 -19q-73 0 -123 38q-49 37 -49 107zM431 300h345q-4 83 -48.5 127.5t-112.5 44.5q-73 0 -122.5 -45t-61.5 -127zM87 136q0 -46 35 -77.5t93 -31.5q76 0 123 65q47 67 47 147v22h-69q-68 0 -120 -10
q-104 -20 -109 -115z" />
    <glyph glyph-name="uni04D6" unicode="&#x4d6;" horiz-adv-x="556" 
d="M509 0h-402v700h383v-40h-340v-287h279v-40h-279v-293h359v-40zM185 843v18h42v-15q0 -33 21.5 -52.5t54.5 -19.5q32 0 54.5 20t22.5 53v14h41v-18q0 -49 -34 -79t-84 -30t-84 30t-34 79z" />
    <glyph glyph-name="uni04D7" unicode="&#x4d7;" horiz-adv-x="549" 
d="M52 249q0 121 71 192t172 71q97 0 150 -66q54 -64 54 -162q0 -3 -2 -27h-401q0 -106 61 -167t153 -61t155 63l23 -35q-33 -31 -81.5 -50t-96.5 -19q-109 0 -184 72q-74 74 -74 189zM99 296h356q-4 85 -48 131t-113 46q-74 0 -128.5 -47.5t-66.5 -129.5zM172 682v18h42
v-15q0 -33 21.5 -52.5t54.5 -19.5q32 0 54.5 20t22.5 53v14h41v-18q0 -49 -34 -79t-84 -30t-84 30t-34 79z" />
    <glyph glyph-name="uni04D8" unicode="&#x4d8;" horiz-adv-x="718" 
d="M59 343l1 28h551q0 131 -77 216q-76 84 -196 84q-77 0 -134.5 -23t-88.5 -48l-10 -8l-26 32q10 10 42 30q27 17 53 27q72 31 165 31q140 0 228 -97q89 -98 89 -260q0 -160 -83 -264q-82 -103 -225 -103q-136 0 -212.5 89t-76.5 266zM609 331h-504q0 -301 252 -301
q111 0 181 82q71 83 71 219z" />
    <glyph glyph-name="uni04D9" unicode="&#x4d9;" horiz-adv-x="551" 
d="M51 232l2 27h401q0 91 -56 152q-56 60 -138 60q-44 0 -88 -14.5t-67 -32.5l-20 -16l-23 35q16 13 25 19q15 11 69 31q51 19 105 19q101 0 169 -72q68 -73 68 -189q0 -127 -67 -195q-68 -68 -166 -68q-103 0 -158.5 65.5t-55.5 178.5zM451 220h-356q7 -193 171 -193
q73 0 126 49q55 50 59 144z" />
    <glyph glyph-name="uni04DA" unicode="&#x4da;" horiz-adv-x="718" 
d="M449 788h-46v73h46v-73zM312 788h-46v73h46v-73zM59 343l1 28h551q0 131 -77 216q-76 84 -196 84q-77 0 -134.5 -23t-88.5 -48l-10 -8l-26 32q10 10 42 30q27 17 53 27q72 31 165 31q140 0 228 -97q89 -98 89 -260q0 -160 -83 -264q-82 -103 -225 -103q-136 0 -212.5 89
t-76.5 266zM609 331h-504q0 -301 252 -301q111 0 181 82q71 83 71 219z" />
    <glyph glyph-name="uni04DB" unicode="&#x4db;" horiz-adv-x="551" 
d="M358 627h-46v73h46v-73zM221 627h-46v73h46v-73zM51 232l2 27h401q0 91 -56 152q-56 60 -138 60q-44 0 -88 -14.5t-67 -32.5l-20 -16l-23 35q16 13 25 19q15 11 69 31q51 19 105 19q101 0 169 -72q68 -73 68 -189q0 -127 -67 -195q-68 -68 -166 -68q-103 0 -158.5 65.5
t-55.5 178.5zM451 220h-356q7 -193 171 -193q73 0 126 49q55 50 59 144z" />
    <glyph glyph-name="uni04DC" unicode="&#x4dc;" horiz-adv-x="819" 
d="M502 788h-46v73h46v-73zM365 788h-46v73h46v-73zM76 0h-50l215 368v2l-201 330h50l188 -312h110v312h43v-312h110l188 312h50l-201 -330v-2l215 -368h-50l-202 348h-110v-348h-43v348h-110z" />
    <glyph glyph-name="uni04DD" unicode="&#x4dd;" horiz-adv-x="692" 
d="M437 627h-46v73h46v-73zM300 627h-46v73h46v-73zM76 0h-53l176 255v2l-159 243h49l146 -224h90v224h42v-224h90l146 224h49l-159 -243v-2l176 -255h-53l-161 237h-88v-237h-42v237h-88z" />
    <glyph glyph-name="uni04DE" unicode="&#x4de;" horiz-adv-x="530" 
d="M354 788h-46v73h46v-73zM217 788h-46v73h46v-73zM36 74l29 34q30 -34 78 -56t98 -22q79 0 132 45t53 119q0 70 -48 110q-47 41 -118 41h-89v40h71q66 0 112 40q47 41 47 105q0 63 -40 101.5t-115 38.5q-94 0 -165 -60l-24 37q80 65 189 65q95 0 147.5 -48.5t52.5 -130.5
q0 -112 -109 -160v-2q62 -15 98 -62t36 -115q0 -92 -66 -149q-65 -57 -165 -57q-59 0 -115 23.5t-89 62.5z" />
    <glyph glyph-name="uni04DF" unicode="&#x4df;" horiz-adv-x="431" 
d="M305 627h-46v73h46v-73zM168 627h-46v73h46v-73zM34 60l27 32q57 -64 138 -64q55 0 95 28q41 29 41 83q0 49 -36 75t-103 26h-60v39h54q60 0 93 24.5t33 71.5t-31.5 71.5t-84.5 24.5q-71 0 -123 -47l-25 34q61 54 152 54q72 0 114.5 -34.5t42.5 -98.5q0 -87 -81 -115v-2
q47 -10 73 -41.5t26 -80.5q0 -71 -53 -112q-52 -40 -127 -40q-95 0 -165 72z" />
    <glyph glyph-name="uni04E0" unicode="&#x4e0;" horiz-adv-x="516" 
d="M39 52l23 37q69 -58 164 -58q84 0 136 45q53 47 53 118q0 66 -32.5 101.5t-106.5 45.5q-25 4 -148 4v34l214 239l43 43l-1 2q-34 -2 -61 -2h-267v39h388v-30l-230 -257l-27 -26v-2q74 0 98 -4q175 -24 175 -181q0 -92 -65 -151t-169 -59q-101 0 -187 62z" />
    <glyph glyph-name="uni04E1" unicode="&#x4e1;" horiz-adv-x="473" 
d="M14 -148l23 37q69 -58 164 -58q84 0 136 46q53 45 53 117q0 66 -32.5 101.5t-106.5 45.5q-25 4 -148 4v34l214 239l43 43l-1 2q-34 -2 -61 -2h-267v39h388v-30l-230 -257l-27 -26v-2q74 0 98 -4q175 -24 175 -181q0 -92 -65 -151t-169 -59q-101 0 -187 62z" />
    <glyph glyph-name="uni04E2" unicode="&#x4e2;" horiz-adv-x="750" 
d="M147 0h-40v700h43v-549l-5 -88h2q35 55 61 91l395 546h40v-700h-43v549l5 88h-2q-33 -52 -58 -88zM496 787h-239v40h239v-40z" />
    <glyph glyph-name="uni04E3" unicode="&#x4e3;" horiz-adv-x="584" 
d="M126 0h-39v500h42v-356l-3 -81h2l57 81l273 356h39v-500h-42v357l3 78h-2l-57 -78zM413 625h-239v40h239v-40z" />
    <glyph glyph-name="uni04E4" unicode="&#x4e4;" horiz-adv-x="750" 
d="M466 788h-46v73h46v-73zM329 788h-46v73h46v-73zM147 0h-40v700h43v-549l-5 -88h2q35 55 61 91l395 546h40v-700h-43v549l5 88h-2q-33 -52 -58 -88z" />
    <glyph glyph-name="uni04E5" unicode="&#x4e5;" horiz-adv-x="584" 
d="M389 627h-46v73h46v-73zM252 627h-46v73h46v-73zM126 0h-39v500h42v-356l-3 -81h2l57 81l273 356h39v-500h-42v357l3 78h-2l-57 -78z" />
    <glyph glyph-name="uni04E6" unicode="&#x4e6;" horiz-adv-x="826" 
d="M59 355q0 150 102 254q102 103 252 103t252 -103q102 -104 102 -254q0 -155 -102 -261t-252 -106t-252 106t-102 261zM104 355q0 -138 88 -232t221 -94q132 0 220 94q89 95 89 232q0 134 -89 225q-88 91 -220 91q-133 0 -221 -91q-88 -89 -88 -225zM503 788h-46v73h46
v-73zM366 788h-46v73h46v-73z" />
    <glyph glyph-name="uni04E7" unicode="&#x4e7;" horiz-adv-x="620" 
d="M51 253q0 109 75 184q76 75 184 75t183 -75q76 -75 76 -184q0 -112 -76 -188q-75 -77 -183 -77q-107 0 -184 77q-75 77 -75 188zM95 253q0 -95 62 -160q63 -64 153 -64q91 0 152 64q63 65 63 160q0 92 -63 155q-62 63 -152 63t-153 -63q-62 -64 -62 -155zM403 627h-46v73
h46v-73zM266 627h-46v73h46v-73z" />
    <glyph glyph-name="uni04E8" unicode="&#x4e8;" horiz-adv-x="826" 
d="M59 355q0 150 102 254q102 103 252 103t252 -103q102 -104 102 -254q0 -155 -102 -261t-252 -106t-252 106t-102 261zM721 335h-617q8 -131 94 -219q89 -87 215 -87q127 0 214 87q86 88 94 219zM104 375h617q-7 127 -94 211q-86 85 -214 85q-127 0 -214 -84t-95 -212z
" />
    <glyph glyph-name="uni04E9" unicode="&#x4e9;" horiz-adv-x="620" 
d="M51 253q0 109 75 184q76 75 184 75t183 -75q76 -75 76 -184q0 -112 -76 -188q-75 -77 -183 -77q-107 0 -184 77q-75 77 -75 188zM310 29q84 0 145 58t69 146h-429q7 -88 68 -146t147 -58zM95 272h429q-8 86 -68 142q-61 57 -146 57q-86 0 -147 -57q-60 -56 -68 -142z" />
    <glyph glyph-name="uni04EA" unicode="&#x4ea;" horiz-adv-x="826" 
d="M59 355q0 150 102 254q102 103 252 103t252 -103q102 -104 102 -254q0 -155 -102 -261t-252 -106t-252 106t-102 261zM721 335h-617q8 -131 94 -219q89 -87 215 -87q127 0 214 87q86 88 94 219zM104 375h617q-7 127 -94 211q-86 85 -214 85q-127 0 -214 -84t-95 -212z
M368 788h-46v73h46v-73zM505 788h-46v73h46v-73z" />
    <glyph glyph-name="uni04EB" unicode="&#x4eb;" horiz-adv-x="620" 
d="M51 253q0 109 75 184q76 75 184 75t183 -75q76 -75 76 -184q0 -112 -76 -188q-75 -77 -183 -77q-107 0 -184 77q-75 77 -75 188zM310 29q84 0 145 58t69 146h-429q7 -88 68 -146t147 -58zM95 272h429q-8 86 -68 142q-61 57 -146 57q-86 0 -147 -57q-60 -56 -68 -142z
M261 627h-46v73h46v-73zM398 627h-46v73h46v-73z" />
    <glyph glyph-name="uni04EC" unicode="&#x4ec;" horiz-adv-x="717" 
d="M419 788h-46v73h46v-73zM282 788h-46v73h46v-73zM42 94l27 30q39 -42 103 -68q66 -27 135 -27q124 0 210 86q87 88 94 216h-421v40h422q-6 129 -92 215q-85 85 -212 85q-130 0 -222 -79l-26 32q44 41 110.5 64.5t136.5 23.5q149 0 250 -102q100 -101 100 -255
q0 -155 -100 -261t-250 -106q-74 0 -145.5 28t-119.5 78z" />
    <glyph glyph-name="uni04ED" unicode="&#x4ed;" horiz-adv-x="539" 
d="M343 627h-46v73h46v-73zM206 627h-46v73h46v-73zM40 66l22 35q61 -72 169 -72q85 0 144 55t67 146h-275v39h275q-8 92 -68 146q-61 56 -143 56q-90 0 -155 -64l-26 34q30 33 78.5 52t101.5 19q106 0 182 -74q75 -74 75 -189t-75 -189q-74 -72 -183 -72q-117 0 -189 78z
" />
    <glyph glyph-name="uni04EE" unicode="&#x4ee;" horiz-adv-x="576" 
d="M90 28l23 34q49 -34 82 -34q34 0 53.5 24t42.5 86l-280 562h48l212 -426l40 -90h2q12 36 32 90l160 426h47l-235 -606q-42 -106 -122 -106q-49 0 -105 40zM408 787h-239v40h239v-40z" />
    <glyph glyph-name="uni04EF" unicode="&#x4ef;" horiz-adv-x="517" 
d="M22 -182l19 36q29 -24 62 -24q61 0 98 90l36 83l-207 497h45l165 -399l18 -47h2q11 34 17 47l165 399h45l-257 -617q-39 -93 -127 -93q-43 0 -71 21zM378 625h-239v40h239v-40z" />
    <glyph glyph-name="uni04F0" unicode="&#x4f0;" horiz-adv-x="576" 
d="M380 788h-46v73h46v-73zM243 788h-46v73h46v-73zM90 28l23 34q49 -34 82 -34q34 0 53.5 24t42.5 86l-280 562h48l212 -426l40 -90h2q12 36 32 90l160 426h47l-235 -606q-42 -106 -122 -106q-49 0 -105 40z" />
    <glyph glyph-name="uni04F1" unicode="&#x4f1;" horiz-adv-x="517" 
d="M22 -182l19 36q29 -24 62 -24q61 0 98 90l36 83l-207 497h45l165 -399l18 -47h2q11 34 17 47l165 399h45l-257 -617q-39 -93 -127 -93q-43 0 -71 21zM350 627h-46v73h46v-73zM213 627h-46v73h46v-73z" />
    <glyph glyph-name="uni04F2" unicode="&#x4f2;" horiz-adv-x="576" 
d="M90 28l23 34q49 -34 82 -34q34 0 53.5 24t42.5 86l-280 562h48l212 -426l40 -90h2q12 36 32 90l160 426h47l-235 -606q-42 -106 -122 -106q-49 0 -105 40zM364 750h-44l67 111h56zM252 750h-47l62 111h50z" />
    <glyph glyph-name="uni04F3" unicode="&#x4f3;" horiz-adv-x="517" 
d="M22 -182l19 36q29 -24 62 -24q61 0 98 90l36 83l-207 497h45l165 -399l18 -47h2q11 34 17 47l165 399h45l-257 -617q-39 -93 -127 -93q-43 0 -71 21zM328 589h-44l67 111h56zM216 589h-47l62 111h50z" />
    <glyph glyph-name="uni04F4" unicode="&#x4f4;" horiz-adv-x="600" 
d="M375 788h-46v73h46v-73zM238 788h-46v73h46v-73zM266 283q-206 0 -206 193v224h43v-217q0 -81 39 -120t124 -39q48 0 99 17.5t85 41.5v317h43v-700h-43v305l2 33h-2q-94 -55 -184 -55z" />
    <glyph glyph-name="uni04F5" unicode="&#x4f5;" horiz-adv-x="484" 
d="M324 627h-46v73h46v-73zM187 627h-46v73h46v-73zM218 190q-167 0 -167 155v155h42v-155q0 -52 25 -83t100 -31q76 0 137 45v224h42v-500h-42v199l2 34h-2q-24 -17 -66 -31q-41 -12 -71 -12z" />
    <glyph glyph-name="uni04F6" unicode="&#x4f6;" horiz-adv-x="478" 
d="M194 0h-87v700h353v-40h-310v-620h86v-180h-42v140z" />
    <glyph glyph-name="uni04F7" unicode="&#x4f7;" horiz-adv-x="398" 
d="M162 0h-75v500h284v-38h-242v-423h75v-159h-42v120z" />
    <glyph glyph-name="uni04F8" unicode="&#x4f8;" horiz-adv-x="785" 
d="M485 788h-46v73h46v-73zM348 788h-46v73h46v-73zM678 0h-43v700h43v-700zM327 0h-220v700h43v-300h170q92 0 147 -52t55 -149q0 -91 -55 -145q-54 -54 -140 -54zM150 360v-320h173q72 0 113 42t41 117q0 74 -42.5 117.5t-112.5 43.5h-172z" />
    <glyph glyph-name="uni04F9" unicode="&#x4f9;" horiz-adv-x="634" 
d="M407 627h-46v73h46v-73zM270 627h-46v73h46v-73zM547 0h-42v500h42v-500zM242 0h-155v500h42v-200h115q32 0 59.5 -7t53.5 -22.5t41 -46.5t15 -75q0 -69 -44 -109t-127 -40zM129 261v-222h113q127 0 127 110q0 112 -125 112h-115z" />
    <glyph glyph-name="uni0524" unicode="&#x524;" horiz-adv-x="755" 
d="M150 0h-43v700h520v-660h86v-180h-42v140h-87v660h-434v-660z" />
    <glyph glyph-name="uni0525" unicode="&#x525;" horiz-adv-x="591" 
d="M129 0h-42v500h401v-461h75v-159h-42v120h-75v461h-317v-461z" />
    <glyph glyph-name="uni1E9E" unicode="&#x1e9e;" horiz-adv-x="656" 
d="M144 0h-43v525q0 73 51 124t124 51h299v-30l-173 -242l-27 -36v-2h36q81 0 136 -57q57 -57 57 -137t-57 -139q-55 -57 -136 -57h-171v40h169q64 0 107 45q43 46 43 111t-43 109q-42 45 -105 45h-93v32l156 220l44 58v2q-8 -2 -42 -2h-194q-60 0 -99 -39t-39 -96v-525z
" />
    <glyph glyph-name="thinspace" unicode="&#x2009;" horiz-adv-x="10" 
 />
    <glyph glyph-name="endash" unicode="&#x2013;" horiz-adv-x="632" 
d="M554 263h-476v40h476v-40z" />
    <glyph glyph-name="emdash" unicode="&#x2014;" horiz-adv-x="832" 
d="M754 263h-676v40h676v-40z" />
    <glyph glyph-name="quoteleft" unicode="&#x2018;" horiz-adv-x="228" 
d="M126 557h-52l48 151h39z" />
    <glyph glyph-name="quoteright" unicode="&#x2019;" horiz-adv-x="224" 
d="M115 557h-39l35 151h52z" />
    <glyph glyph-name="quotesinglbase" unicode="&#x201a;" horiz-adv-x="244" 
d="M106 -90h-39l35 151h52z" />
    <glyph glyph-name="quotedblleft" unicode="&#x201c;" horiz-adv-x="328" 
d="M226 557h-52l48 151h39zM126 557h-52l48 151h39z" />
    <glyph glyph-name="quotedblright" unicode="&#x201d;" horiz-adv-x="324" 
d="M215 557h-39l35 151h52zM115 557h-39l35 151h52z" />
    <glyph glyph-name="quotedblbase" unicode="&#x201e;" horiz-adv-x="344" 
d="M206 -90h-39l35 151h52zM106 -90h-39l35 151h52z" />
    <glyph glyph-name="dagger" unicode="&#x2020;" horiz-adv-x="379" 
d="M208 -50h-42v510h-114v40h114v200h42v-200h119v-40h-119v-510z" />
    <glyph glyph-name="daggerdbl" unicode="&#x2021;" horiz-adv-x="403" 
d="M178 186h-114v40h114v234h-114v40h114v200h42v-200h119v-40h-119v-234h119v-40h-119v-236h-42v236z" />
    <glyph glyph-name="bullet" unicode="&#x2022;" horiz-adv-x="444" 
d="M315 197q-38 -38 -93 -38q-54 0 -94 38q-38 40 -38 94q0 55 38 93q39 39 94 39q56 0 93 -39q39 -38 39 -93t-39 -94z" />
    <glyph glyph-name="ellipsis" unicode="&#x2026;" horiz-adv-x="643" 
d="M565 0h-61v63h61v-63zM352 0h-61v63h61v-63zM139 0h-61v63h61v-63z" />
    <glyph glyph-name="perthousand" unicode="&#x2030;" horiz-adv-x="995" 
d="M282 489q-38 -38 -92 -38t-92 38t-38 92t38 92q37 39 92 39t92 -39q39 -37 39 -92t-39 -92zM110 0h-52l531 700h52zM128 517q25 -26 62 -26t62 26q26 26 26 64t-26 64q-25 27 -62 27t-62 -27q-25 -26 -25 -64t25 -64zM734 26q-38 38 -38 92t38 92q38 39 92 39t92 -39
q39 -37 39 -92t-39 -92q-38 -38 -92 -38t-92 38zM414 26q-38 38 -38 92t38 92q38 39 92 39t92 -39q39 -38 39 -92q0 -55 -39 -92q-38 -38 -92 -38t-92 38zM764 182q-25 -26 -25 -64t25 -64t62 -26t62 26q26 26 26 64t-26 64q-25 27 -62 27t-62 -27zM444 182q-25 -26 -25 -64
t25 -64t62 -26t62 26q26 26 26 64t-26 64q-25 27 -62 27t-62 -27z" />
    <glyph glyph-name="guilsinglleft" unicode="&#x2039;" horiz-adv-x="334" 
d="M272 77h-53l-164 205l164 206h53l-164 -206z" />
    <glyph glyph-name="guilsinglright" unicode="&#x203a;" horiz-adv-x="334" 
d="M115 77h-53l164 205l-164 206h53l164 -206z" />
    <glyph glyph-name="fraction" unicode="&#x2044;" horiz-adv-x="150" 
d="M265 700l-335 -700h-44l336 700h43z" />
    <glyph glyph-name="zerosuperior" unicode="&#x2070;" 
d="M336 640q0 -227 -148 -227t-148 227t148 227t148 -227zM79 640q0 -191 109 -191t109 191t-109 191t-109 -191z" />
    <glyph glyph-name="foursuperior" unicode="&#x2074;" 
d="M278 423h-38v121h-215v26l222 287h31v-277h68v-36h-68v-121zM80 582v-2h160v147l3 65h-2q-16 -26 -35 -50z" />
    <glyph glyph-name="fivesuperior" unicode="&#x2075;" 
d="M175 413q-83 0 -129 70l32 21q14 -25 41 -40t56 -15q47 0 79.5 31t32.5 77q0 45 -33 76q-34 32 -79 32q-43 0 -81 -27l-26 10l26 209h206v-36h-174l-10 -91l-7 -43h2q31 14 65 14q64 0 107 -42t43 -102t-44 -102t-107 -42z" />
    <glyph glyph-name="sixsuperior" unicode="&#x2076;" 
d="M198 413q-71 0 -112 56q-40 56 -40 143q0 43 10.5 86t31.5 82t58.5 63t85.5 24q41 0 83 -20l-19 -32q-28 16 -65 16q-61 0 -98 -52q-38 -53 -47 -126h2q17 21 48.5 34.5t61.5 13.5q60 0 99 -38.5t39 -101.5q0 -68 -38.5 -108t-99.5 -40zM198 449q45 0 72 31.5t27 80.5
q0 47 -27.5 75.5t-72.5 28.5q-43 0 -77 -25q-33 -26 -33 -53q0 -49 31 -93q31 -45 80 -45z" />
    <glyph glyph-name="sevensuperior" unicode="&#x2077;" 
d="M119 423h-43l174 333l37 65v2q-26 -2 -55 -2h-178v36h279v-26z" />
    <glyph glyph-name="eightsuperior" unicode="&#x2078;" 
d="M188 413q-59 0 -103 35q-44 36 -44 98q0 30 16 58q25 40 61 61q-55 36 -55 93q0 50 37.5 79.5t92.5 29.5q53 0 92 -30q39 -29 39 -82q0 -29 -15 -59q-17 -36 -45 -61q67 -40 67 -99q0 -51 -42 -87q-41 -36 -101 -36zM179 674l54 -23q52 48 52 104q0 35 -26.5 55.5
t-66.5 20.5q-38 0 -64 -19.5t-26 -53.5q0 -27 31 -58q22 -16 46 -26zM188 449q41 0 72 25q32 26 32 61q0 36 -33 58q-13 10 -32 19q-8 5 -23 12t-32.5 14.5t-23.5 10.5q-68 -44 -68 -103q0 -43 31.5 -70t76.5 -27z" />
    <glyph glyph-name="ninesuperior" unicode="&#x2079;" 
d="M61 433l19 32q25 -16 65 -16q61 0 98 52q38 53 47 126h-2q-17 -21 -48.5 -34.5t-61.5 -13.5q-60 0 -99 38.5t-39 101.5q0 68 38.5 108t99.5 40q70 0 111 -57q41 -56 41 -142q0 -43 -10.5 -86t-31.5 -82t-58.5 -63t-85.5 -24q-45 0 -83 20zM179 615q44 0 76 25
q34 25 34 53q0 47 -32 93q-32 45 -79 45q-45 0 -72 -31.5t-27 -80.5q0 -47 27.5 -75.5t72.5 -28.5z" />
    <glyph glyph-name="zeroinferior" unicode="&#x2080;" 
d="M336 60q0 -227 -148 -227t-148 227t148 227t148 -227zM79 60q0 -191 109 -191t109 191t-109 191t-109 -191z" />
    <glyph glyph-name="oneinferior" unicode="&#x2081;" 
d="M310 -157h-227v36h96v325l1 22h-1q-6 -10 -23 -27l-44 -43l-26 27l93 94h38v-398h93v-36z" />
    <glyph glyph-name="twoinferior" unicode="&#x2082;" 
d="M320 -157h-266q-2 24 -2 27q0 83 78 139q7 5 37.5 25t41.5 29t30 27t26.5 36t7.5 38q0 36 -26 61.5t-65 25.5q-53 0 -94 -50l-24 26q19 26 51.5 43t66.5 17q60 0 95 -34.5t35 -88.5q0 -76 -77 -128q-8 -6 -37 -24.5t-41 -28t-31 -27.5t-26.5 -36.5t-8.5 -40.5h229v-36z
" />
    <glyph glyph-name="threeinferior" unicode="&#x2083;" 
d="M179 -168q-91 0 -138 65l28 26q16 -23 46.5 -39t64.5 -16q40 0 71 30q32 29 32 71t-32 69t-75 27h-32l-11 24l108 127l25 25v2q-18 -3 -38 -3h-164v36h255v-26l-128 -150q52 -5 91 -35q40 -31 40 -96q0 -57 -43 -97q-41 -40 -100 -40z" />
    <glyph glyph-name="fourinferior" unicode="&#x2084;" 
d="M278 -157h-38v121h-215v26l222 287h31v-277h68v-36h-68v-121zM80 2v-2h160v147l3 65h-2q-16 -26 -35 -50z" />
    <glyph glyph-name="fiveinferior" unicode="&#x2085;" 
d="M176 -167q-83 0 -129 70l32 21q14 -25 41 -40t56 -15q47 0 79.5 31t32.5 77q0 45 -33 76q-34 32 -79 32q-44 0 -81 -27l-26 10l26 209h206v-36h-174l-10 -91l-7 -43h2q31 14 65 14q63 0 107 -42q43 -42 43 -102t-44 -102q-43 -42 -107 -42z" />
    <glyph glyph-name="sixinferior" unicode="&#x2086;" 
d="M198 -167q-72 0 -112 57q-40 55 -40 142q0 43 10.5 86t31.5 82t58.5 63t85.5 24q41 0 83 -20l-19 -32q-28 16 -65 16q-61 0 -98 -52q-38 -53 -47 -126h2q17 21 48.5 34.5t61.5 13.5q60 0 99 -38.5t39 -101.5q0 -68 -38.5 -108t-99.5 -40zM198 -131q45 0 72 31.5t27 80.5
q0 47 -27.5 75.5t-72.5 28.5q-43 0 -77 -25q-33 -25 -33 -53q0 -49 31 -93q32 -45 80 -45z" />
    <glyph glyph-name="seveninferior" unicode="&#x2087;" 
d="M119 -158h-43l174 333l37 65v2q-26 -2 -55 -2h-178v36h279v-26z" />
    <glyph glyph-name="eightinferior" unicode="&#x2088;" 
d="M188 -166q-60 0 -103 36q-44 35 -44 97q0 30 16 58q25 40 61 61q-55 36 -55 93q0 50 37.5 79.5t92.5 29.5q53 0 92 -30q39 -28 39 -82q0 -29 -15 -59q-17 -36 -45 -61q67 -40 67 -99q0 -51 -42 -87q-41 -36 -101 -36zM179 95l54 -23q52 48 52 104q0 35 -26.5 55.5
t-66.5 20.5q-38 0 -64 -19.5t-26 -53.5q0 -27 31 -58q22 -16 46 -26zM188 -130q41 0 72 25q32 26 32 61q0 36 -33 58q-13 10 -32 19q-8 5 -23 12t-32.5 14.5t-23.5 10.5q-68 -44 -68 -103q0 -43 31.5 -70t76.5 -27z" />
    <glyph glyph-name="nineinferior" unicode="&#x2089;" 
d="M61 -147l19 32q25 -16 65 -16q61 0 98 52q38 53 47 126h-2q-17 -21 -48.5 -34.5t-61.5 -13.5q-60 0 -99 38.5t-39 101.5q0 68 38.5 108t99.5 40q70 0 111 -57q41 -56 41 -142q0 -43 -10.5 -86t-31.5 -82t-58.5 -63t-85.5 -24q-45 0 -83 20zM179 35q44 0 76 25
q34 25 34 53q0 47 -32 93q-32 45 -79 45q-45 0 -72 -31.5t-27 -80.5q0 -47 27.5 -75.5t72.5 -28.5z" />
    <glyph glyph-name="Euro" unicode="&#x20ac;" horiz-adv-x="560" 
d="M86 273h-59v40h54q-2 18 -2 42q0 29 3 47h-55v40h62q29 120 119 194q91 76 214 76q47 0 89 -11l-10 -42q-38 11 -79 11q-106 0 -183 -63q-77 -62 -104 -165h328l-8 -40h-328q-7 -36 -2 -89h314l-7 -40h-301q23 -109 102 -176t189 -67q50 0 88 13l12 -41q-44 -14 -100 -14
q-127 0 -219 79q-93 79 -117 206z" />
    <glyph glyph-name="numero" unicode="&#x2116;" horiz-adv-x="1015" 
d="M143 0h-43v700h40l399 -549l57 -88h2q-5 58 -5 88v549h43v-700h-40l-399 549l-57 88h-2q5 -58 5 -88v-549zM715 480q0 51 35 86q36 36 87 36t87 -36q36 -34 36 -86q0 -53 -36 -89t-87 -36t-87 36q-35 37 -35 89zM755 480q0 -37 24 -62t58 -25q35 0 59 25t24 62
q0 36 -24 59.5t-59 23.5q-34 0 -58 -23.5t-24 -59.5zM950 243h-226v37h226v-37z" />
    <glyph glyph-name="trademark" unicode="&#x2122;" horiz-adv-x="970" 
d="M505 264h-38l35 436h35l126 -270l14 -40h2q4 19 14 40l126 270h35l35 -436h-38l-28 328l1 28h-2l-127 -274h-34l-127 274h-2l1 -28zM265 264h-39v398h-160v38h360v-38h-161v-398z" />
    <glyph glyph-name="minus" unicode="&#x2212;" horiz-adv-x="560" 
d="M528 263h-496v40h496v-40z" />
    <glyph glyph-name="infinity" unicode="&#x221e;" horiz-adv-x="460" 
d="M346 232q-48 -48 -116 -48t-117 48q-48 50 -48 117q0 68 48 116q49 48 117 48t116 -48t48 -116q0 -67 -48 -117z" />
    <glyph glyph-name="approxequal" unicode="&#x2248;" horiz-adv-x="560" 
d="M65 321l-25 30q64 66 141 66q49 0 107 -35q59 -35 91 -35q60 0 116 56l25 -30q-64 -66 -141 -66q-49 0 -108 35q-58 35 -90 35q-60 0 -116 -56zM65 161l-25 30q64 66 141 66q49 0 107 -35q59 -35 91 -35q60 0 116 56l25 -30q-64 -66 -141 -66q-49 0 -108 35
q-58 35 -90 35q-60 0 -116 -56z" />
    <glyph glyph-name="notequal" unicode="&#x2260;" horiz-adv-x="560" 
d="M142 67l-33 25l68 91h-126v40h156l91 120h-247v40h277l90 119l33 -25l-71 -94h127v-40h-157l-91 -120h248v-40h-278z" />
    <glyph glyph-name="lessequal" unicode="&#x2264;" horiz-adv-x="560" 
d="M493 68l-439 197v36l439 197v-48l-377 -166v-2l377 -166v-48zM54 -153v40h439v-40h-439z" />
    <glyph glyph-name="greaterequal" unicode="&#x2265;" horiz-adv-x="560" 
d="M506 265l-439 -197v48l377 166v2l-377 166v48l439 -197v-36zM66 -153v40h439v-40h-439z" />
    <glyph glyph-name="commaaccent" unicode="&#xf6c3;" horiz-adv-x="335" 
d="M142 -66h48q6 -26 6 -47q0 -39 -22 -87h-39q18 46 18 78q0 26 -11 56z" />
    <glyph glyph-name="cyrbreve" unicode="&#xf6d4;" horiz-adv-x="276" 
d="M20 843v18h42v-15q0 -33 21.5 -52.5t54.5 -19.5q32 0 54.5 20t22.5 53v14h41v-18q0 -49 -34 -79t-84 -30t-84 30t-34 79z" />
    <glyph glyph-name="apple" unicode="&#xf8ff;" horiz-adv-x="1130" 
d="M433 -146l-265 141v152l-126 72v278l126 71v151l265 142l134 -71l132 71l265 -142v-151l124 -71v-278l-124 -72v-152l-265 -141l-132 71zM208 169v-139l238 -126l121 66l118 -66l238 126v139l114 64v249l-114 66v136l-238 126l-118 -64l-121 64l-238 -126v-136l-114 -66
v-249zM457 -50l-215 114v121l-99 60v225l99 58v123l215 114l110 -59l107 59l214 -114v-123l100 -58v-225l-100 -60v-121l-214 -114l-107 58zM447 551v-460h43v228h228v40h-228v192h199q17 0 23 -6.5t6 -22.5v-42h42v54q0 30 -13 43.5t-45 13.5h-320v-40h65z" />
    <glyph glyph-name="NULL" horiz-adv-x="0" 
 />
    <glyph glyph-name="CR" horiz-adv-x="333" 
 />
    <glyph glyph-name="zero.tnum" horiz-adv-x="560" 
d="M516 350q0 -362 -236 -362t-236 362t236 362t236 -362zM471 350q0 320 -191 320t-191 -320q0 -143 39 -227q43 -93 152 -93t152 93q39 84 39 227z" />
    <glyph glyph-name="one.tnum" horiz-adv-x="560" 
d="M469 0h-357v40h159v570l1 35h-2q-8 -13 -37 -43l-83 -83l-30 29l151 152h43v-660h155v-40z" />
    <glyph glyph-name="two.tnum" horiz-adv-x="560" 
d="M492 0h-426q-3 20 -3 37q0 67 38.5 121.5t93.5 93t109.5 75.5t93 86t38.5 107q0 66 -45 108t-118 42q-50 0 -96 -27t-74 -73l-32 22q30 54 85.5 87t117.5 33q98 0 152 -56q55 -55 55 -136q0 -57 -28 -104q-9 -15 -21 -30t-21 -25.5t-27.5 -25t-26.5 -21t-31.5 -23.5
t-30.5 -22l-90 -64q-43 -31 -69.5 -74.5t-26.5 -90.5h383v-40z" />
    <glyph glyph-name="three.tnum" horiz-adv-x="560" 
d="M55 85l32 32q34 -38 85 -62.5t103 -24.5q69 0 122 48q53 50 53 124q0 78 -56 122q-56 45 -131 45h-48l-12 30l196 229l31 32v2q-26 -2 -54 -2h-287v40h401v-30l-226 -261q77 0 146 -41q39 -22 62 -65.5t23 -100.5q0 -89 -66 -152q-65 -62 -156 -62q-60 0 -117.5 26
t-100.5 71z" />
    <glyph glyph-name="four.tnum" horiz-adv-x="560" 
d="M384 200h-360v30l363 470h40v-460h104v-40h-104v-200h-43v200zM84 242v-2h300v328l3 63h-2q-14 -22 -35 -48z" />
    <glyph glyph-name="five.tnum" horiz-adv-x="560" 
d="M63 89l35 27q56 -86 162 -86q83 0 138 52q56 53 56 131q0 79 -56 132t-138 53q-78 0 -136 -42l-32 11l40 333h325v-40h-287l-25 -209l-7 -43h2q50 32 120 32q100 0 169 -66q70 -66 70 -161q0 -94 -70 -160q-71 -65 -169 -65q-60 0 -112.5 26.5t-84.5 74.5z" />
    <glyph glyph-name="six.tnum" horiz-adv-x="560" 
d="M54 314q0 140 69 263q35 62 95.5 98.5t135.5 36.5q67 0 123 -28l-21 -39q-43 25 -105 25q-75 0 -134 -50q-106 -91 -118 -272h2q29 44 82.5 70t115.5 26q94 0 154 -61q61 -61 61 -165q0 -106 -63 -168q-62 -62 -152 -62q-112 0 -179 94q-66 94 -66 232zM304 30
q74 0 119 53q46 53 46 137q0 83 -47 132.5t-125 49.5q-76 0 -135 -43q-59 -44 -59 -106q0 -28 12.5 -64.5t35.5 -72.5t63.5 -61t89.5 -25z" />
    <glyph glyph-name="seven.tnum" horiz-adv-x="560" 
d="M179 0h-45l292 595l37 65v2q-26 -2 -55 -2h-340v40h443v-30z" />
    <glyph glyph-name="eight.tnum" horiz-adv-x="560" 
d="M48 195q0 86 53 142q37 40 71 60q-90 55 -90 142q0 73 54 123q56 50 152 50q95 0 151.5 -48.5t56.5 -127.5q0 -46 -21 -92q-31 -68 -74 -107q104 -59 104 -150q0 -83 -66 -141q-64 -58 -159 -58q-91 0 -162 56q-70 57 -70 151zM361 356q90 86 90 177q0 63 -45 100
t-118 37t-117 -36.5t-44 -92.5q0 -58 53 -97q25 -17 51 -31l66 -30q41 -16 64 -27zM93 198q0 -74 56 -121t129 -47q70 0 126 44q56 45 56 110q0 63 -57 100q-24 16 -55 31q-21 11 -69 31q-34 14 -66 29q-25 -12 -70 -54q-50 -50 -50 -123z" />
    <glyph glyph-name="nine.tnum" horiz-adv-x="560" 
d="M82 16l21 39q43 -25 103 -25q77 0 135 49q107 94 119 273h-2q-29 -44 -82.5 -70t-115.5 -26q-94 0 -155 61q-60 61 -60 162q0 109 62 171t153 62q113 0 179 -94t66 -233t-69 -262q-35 -62 -96 -98.5t-136 -36.5q-67 0 -122 28zM262 298q77 0 136 44q58 45 58 95
q0 80 -56 157q-55 76 -139 76q-78 0 -124.5 -52.5t-46.5 -138.5q0 -83 47 -132t125 -49z" />
    <glyph glyph-name="hyphen.case" horiz-adv-x="432" 
d="M354 329h-276v40h276v-40z" />
    <glyph glyph-name="parenleft.case" horiz-adv-x="264" 
d="M216 -65h-44q-110 194 -110 430q0 208 110 390h44q-113 -191 -113 -391q0 -230 113 -429z" />
    <glyph glyph-name="parenright.case" horiz-adv-x="264" 
d="M92 -65h-44q113 199 113 429q0 200 -113 391h44q110 -182 110 -390q0 -236 -110 -430z" />
    <glyph glyph-name="bracketleft.case" horiz-adv-x="265" 
d="M206 -65h-108v820h108v-40h-65v-740h65v-40z" />
    <glyph glyph-name="bracketright.case" horiz-adv-x="265" 
d="M59 -65v40h65v740h-65v40h108v-820h-108z" />
    <glyph glyph-name="braceleft.case" horiz-adv-x="326" 
d="M132 118v94q0 47 -22 78.5t-63 40.5v40q85 19 85 119v81q0 58 15.5 99t41.5 57q42 27 79 27h9v-39h-6q-26 0 -56 -21q-40 -28 -40 -122v-93q0 -91 -79 -127v-2q79 -31 79 -127v-106q0 -94 40 -122q30 -21 56 -21h6v-39q-2 -1 -9 -1q-31 0 -61 16q-72 33 -75 168z" />
    <glyph glyph-name="braceright.case" horiz-adv-x="326" 
d="M49 -65v39h6q26 0 56 21q40 28 40 122v106q0 96 79 127v2q-35 15 -57 49t-22 78v93q0 94 -40 122q-30 21 -56 21h-6v39h9q37 0 79 -27q26 -16 41.5 -57t15.5 -99v-81q0 -46 22 -78t63 -41v-40q-41 -8 -63 -40t-22 -79v-94q0 -94 -39 -139q-44 -48 -97 -45z" />
    <glyph glyph-name="at.case" horiz-adv-x="762" 
d="M63 350q0 152 102 258q102 107 244 107q121 0 176 -51q56 -51 56 -126v-344h70v-40h-265q-80 0 -137 57q-56 58 -56 137q0 80 56 138q57 58 137 58h150q-3 60 -48 95.5t-133 35.5q-129 0 -218 -95t-89 -230q0 -136 88 -230q88 -93 219 -93v-42q-146 0 -249 106t-103 259z
M451 194h145v310h-143q-65 0 -110 -46t-45 -110q0 -63 44 -109q45 -45 109 -45z" />
    <glyph glyph-name="guillemotleft.case" horiz-adv-x="495" 
d="M432 137h-53l-164 205l164 206h53l-164 -206zM272 137h-53l-164 205l164 206h53l-164 -206z" />
    <glyph glyph-name="guillemotright.case" horiz-adv-x="495" 
d="M276 137h-53l164 205l-164 206h53l164 -206zM116 137h-53l164 205l-164 206h53l164 -206z" />
    <glyph glyph-name="guilsinglleft.case" horiz-adv-x="335" 
d="M272 137h-53l-164 205l164 206h53l-164 -206z" />
    <glyph glyph-name="guilsinglright.case" horiz-adv-x="335" 
d="M116 137h-53l164 205l-164 206h53l164 -206z" />
    <glyph glyph-name="endash.case" horiz-adv-x="632" 
d="M554 323h-476v40h476v-40z" />
    <glyph glyph-name="emdash.case" horiz-adv-x="832" 
d="M754 323h-676v40h676v-40z" />
    <glyph glyph-name="periodcentered.case" horiz-adv-x="213" 
d="M135 317h-57v59h57v-59z" />
    <glyph glyph-name="questiondown.case" horiz-adv-x="435" 
d="M230 525h43v-44q0 -84 -63 -143q-6 -6 -25.5 -24t-27.5 -26t-23 -26t-22 -31t-12.5 -32.5t-5.5 -39.5q0 -55 41.5 -92t104.5 -37q70 0 127 42l23 -34q-27 -22 -68.5 -36t-80.5 -14q-86 0 -139 49q-53 50 -53 123q0 85 63 144q5 5 26.5 24t28.5 26t23 25.5t22 31t12 31.5
t6 39v44zM222 700h59v-61h-59v61z" />
    <glyph glyph-name="exclamdown.case" horiz-adv-x="248" 
d="M103 525h43v-525h-43v525zM94 700h59v-61h-59v61z" />
    <glyph glyph-name="bullet.case" horiz-adv-x="442" 
d="M314 257q-38 -38 -93 -38q-54 0 -94 38q-38 40 -38 94q0 55 38 93q39 39 94 39t93 -39q39 -38 39 -93t-39 -94z" />
    <glyph glyph-name="zero.p_osf" horiz-adv-x="584" 
d="M62 268q0 116 61 199q61 85 169 85t169 -85q61 -83 61 -199q0 -115 -61 -197q-60 -83 -169 -83q-108 0 -170 83q-60 82 -60 197zM155 439q-49 -70 -49 -169t49 -170q50 -71 137 -71t137 71q49 71 49 170t-49 169q-49 72 -137 72q-87 0 -137 -72z" />
    <glyph glyph-name="one.p_osf" horiz-adv-x="455" 
d="M416 0h-341v39h159v409l1 48h-2q-20 -15 -39 -26l-117 -71l-20 31l177 110h42v-501h140v-39z" />
    <glyph glyph-name="two.p_osf" horiz-adv-x="530" 
d="M473 0h-405v32q189 128 260 202q75 76 75 150q0 61 -41.5 94t-109.5 33q-84 0 -163 -79l-27 30q32 38 85.5 64t108.5 26q94 0 142 -50q49 -49 49 -113q0 -86 -70 -165q-69 -78 -235 -185v-2q26 2 54 2h277v-39z" />
    <glyph glyph-name="three.p_osf" horiz-adv-x="525" 
d="M46 -37l32 29q67 -79 170 -79q68 0 121 44t53 116q0 74 -55 113q-55 40 -133 40h-47l-12 32l192 213l31 30v2q-26 -2 -54 -2h-255v39h372v-28l-226 -245q76 0 146 -37q39 -19 62 -60.5t23 -96.5q0 -89 -65 -145t-155 -56q-121 0 -200 91z" />
    <glyph glyph-name="four.p_osf" horiz-adv-x="579" 
d="M382 41h-344v29l348 470h38v-460h113v-39h-113v-157h-42v157zM348 417l-252 -337h286v329l3 63h-2q-14 -28 -35 -55z" />
    <glyph glyph-name="five.p_osf" horiz-adv-x="531" 
d="M53 -24l35 24q24 -35 66.5 -55.5t89.5 -20.5q79 0 134 46q57 45 57 124q0 77 -56 121t-130 44q-68 0 -119 -29l-16 -9l-31 10l40 309h314v-39h-277l-24 -189l-7 -40h2q50 28 123 28q92 0 158 -54q67 -52 67 -151q0 -96 -67 -154t-167 -58q-58 0 -110 24.5t-82 68.5z" />
    <glyph glyph-name="six.p_osf" horiz-adv-x="585" 
d="M67 286q0 134 69 252q35 60 95.5 95t135.5 35q64 0 122 -26l-21 -38q-44 23 -103 23q-113 0 -181 -92q-66 -92 -74 -217h2q29 45 82 70.5t117 25.5q94 0 154 -57q61 -55 61 -150q0 -102 -62 -161q-61 -58 -153 -58q-112 0 -178 85t-66 213zM115 242q0 -74 56 -144
q55 -69 139 -69q79 0 125.5 49t46.5 129q0 75 -47.5 120.5t-125.5 45.5q-77 0 -136 -42q-58 -42 -58 -89z" />
    <glyph glyph-name="seven.p_osf" horiz-adv-x="500" 
d="M156 -116h-46l280 557l34 60v2q-26 -2 -55 -2h-325v39h429v-28z" />
    <glyph glyph-name="eight.p_osf" horiz-adv-x="580" 
d="M64 187q0 75 53 128q39 38 72 56q-93 53 -93 137q0 66 53 113q53 48 147 48q93 0 148.5 -45.5t55.5 -120.5q0 -69 -43 -124q-31 -41 -53 -60q107 -57 107 -144q0 -76 -65 -132q-64 -55 -156 -55q-91 0 -159 53q-67 54 -67 146zM365 338q91 75 91 165q0 56 -44.5 90.5
t-115.5 34.5q-69 0 -112.5 -34t-43.5 -86q3 -36 20 -60t54 -45q39 -19 45 -22l54 -22q42 -16 52 -21zM108 187q0 -71 54 -115q55 -43 128 -43q68 0 123 41q54 42 54 104q0 57 -55 91q-32 20 -52 29q-23 12 -67 29q-41 16 -64 27q-31 -16 -67 -48q-54 -46 -54 -115z" />
    <glyph glyph-name="nine.p_osf" horiz-adv-x="568" 
d="M89 -102l21 38q41 -23 103 -23q114 0 180 92q67 91 75 217h-2q-29 -45 -82 -70.5t-117 -25.5q-93 0 -155 56q-60 57 -60 151q0 102 62 161q61 58 153 58q112 0 178 -86t66 -212q0 -134 -69 -252q-35 -60 -95.5 -95t-135.5 -35q-65 0 -122 26zM269 167q77 0 136 42
q58 42 58 89q0 74 -56 144q-55 69 -139 69q-79 0 -125.5 -49t-46.5 -129q0 -75 47.5 -120.5t125.5 -45.5z" />
    <glyph glyph-name="zero.t_osf" horiz-adv-x="560" 
d="M50 268q0 116 61 199q61 85 169 85t169 -85q61 -83 61 -199q0 -115 -61 -197q-60 -83 -169 -83q-108 0 -170 83q-60 82 -60 197zM143 439q-49 -70 -49 -169t49 -170q50 -71 137 -71t137 71q49 71 49 170t-49 169q-50 72 -137 72q-88 0 -137 -72z" />
    <glyph glyph-name="one.t_osf" horiz-adv-x="560" 
d="M468 0h-341v39h159v409l1 48h-2q-20 -15 -39 -26l-117 -71l-20 31l177 110h42v-501h140v-39z" />
    <glyph glyph-name="two.t_osf" horiz-adv-x="560" 
d="M488 0h-405v32q189 128 260 202q75 76 75 150q0 61 -41.5 94t-109.5 33q-84 0 -163 -79l-27 30q32 38 85.5 64t108.5 26q94 0 142 -50q49 -49 49 -113q0 -86 -70 -165q-69 -78 -235 -185v-2q26 2 54 2h277v-39z" />
    <glyph glyph-name="three.t_osf" horiz-adv-x="560" 
d="M63 -37l32 29q67 -79 170 -79q68 0 121 44t53 116q0 74 -55 113q-55 40 -133 40h-47l-12 32l192 213l31 30v2q-26 -2 -54 -2h-255v39h372v-28l-226 -245q76 0 146 -37q39 -19 62 -60.5t23 -96.5q0 -89 -65 -145t-155 -56q-121 0 -200 91z" />
    <glyph glyph-name="four.t_osf" horiz-adv-x="560" 
d="M372 41h-344v29l348 470h38v-460h113v-39h-113v-157h-42v157zM338 417l-252 -337h286v329l3 63h-2q-14 -28 -35 -55z" />
    <glyph glyph-name="five.t_osf" horiz-adv-x="560" 
d="M67 -24l35 24q24 -35 66.5 -55.5t89.5 -20.5q79 0 134 46q57 45 57 124q0 77 -56 121t-130 44q-68 0 -119 -29l-16 -9l-31 10l40 309h314v-39h-277l-24 -189l-7 -40h2q50 28 123 28q92 0 158 -54q67 -52 67 -151q0 -96 -67 -154t-167 -58q-58 0 -110 24.5t-82 68.5z" />
    <glyph glyph-name="six.t_osf" horiz-adv-x="560" 
d="M54 286q0 134 69 252q35 60 95.5 95t135.5 35q64 0 122 -26l-21 -38q-44 23 -103 23q-113 0 -181 -92q-66 -92 -74 -217h2q29 45 82 70.5t117 25.5q94 0 154 -57q61 -55 61 -150q0 -102 -62 -161q-61 -58 -153 -58q-112 0 -178 85t-66 213zM102 242q0 -74 56 -144
q55 -69 139 -69q79 0 125.5 49t46.5 129q0 75 -47.5 120.5t-125.5 45.5t-136 -42t-58 -89z" />
    <glyph glyph-name="seven.t_osf" horiz-adv-x="560" 
d="M186 -116h-46l280 557l34 60v2q-26 -2 -55 -2h-325v39h429v-28z" />
    <glyph glyph-name="eight.t_osf" horiz-adv-x="560" 
d="M54 187q0 75 53 128q39 38 72 56q-93 53 -93 137q0 66 53 113q53 48 147 48q93 0 148.5 -45.5t55.5 -120.5q0 -69 -43 -124q-31 -41 -53 -60q107 -57 107 -144q0 -76 -65 -132q-64 -55 -156 -55q-91 0 -159 53q-67 54 -67 146zM355 338q91 75 91 165q0 56 -44.5 90.5
t-115.5 34.5q-69 0 -112.5 -34t-43.5 -86q3 -36 20 -60t54 -45q39 -19 45 -22l54 -22q42 -16 52 -21zM98 187q0 -71 54 -115q55 -43 128 -43q68 0 123 41q54 42 54 104q0 57 -55 91q-32 20 -52 29q-23 12 -67 29q-41 16 -64 27q-31 -16 -67 -48q-54 -46 -54 -115z" />
    <glyph glyph-name="nine.t_osf" horiz-adv-x="560" 
d="M85 -102l21 38q41 -23 103 -23q114 0 180 92q67 91 75 217h-2q-29 -45 -82 -70.5t-117 -25.5q-93 0 -155 56q-60 57 -60 151q0 102 62 161q61 58 153 58q112 0 178 -86t66 -212q0 -134 -69 -252q-35 -60 -95.5 -95t-135.5 -35q-65 0 -122 26zM265 167q77 0 136 42
q58 42 58 89q0 74 -56 144q-55 69 -139 69q-79 0 -125.5 -49t-46.5 -129q0 -75 47.5 -120.5t125.5 -45.5z" />
    <glyph glyph-name="dollar.osf" horiz-adv-x="497" 
d="M49 86l33 29q28 -37 77.5 -61.5t100.5 -24.5q59 0 97.5 30.5t38.5 82.5q0 72 -112 113q-3 1 -30 11t-33 12.5t-29.5 13t-31 16t-25.5 17t-24.5 21.5t-16 23.5t-12.5 29t-3 32.5q0 66 44.5 106.5t116.5 46.5v84h43v-84q94 -9 142 -60l-27 -33q-51 53 -142 53
q-59 0 -96 -28t-37 -81q0 -72 112 -115q104 -38 140 -62q65 -46 65 -116q0 -64 -48 -108q-46 -42 -121 -45v-93h-43v94q-51 5 -100 31t-79 65z" />
    <glyph glyph-name="cent.osf" horiz-adv-x="552" 
d="M314 -25h-43v83q-95 9 -158 74q-62 67 -62 166q0 100 62 165q63 65 158 74v87h43v-86q106 -7 170 -77l-23 -35q-26 33 -71 52.5t-91 19.5q-84 0 -145 -56q-59 -56 -59 -144q0 -89 59 -145q59 -55 145 -55q97 0 162 72l22 -35q-27 -32 -74.5 -54t-94.5 -24v-82z" />
    <glyph glyph-name="sterling.osf" horiz-adv-x="582" 
d="M514 0h-459v39h66v209h-46v39h46v121q0 75 56 126q57 51 145 51q90 0 157 -51l-29 -33q-55 43 -129 43q-73 0 -115.5 -39.5t-42.5 -100.5v-117h243v-39h-243v-209h351v-39z" />
    <glyph glyph-name="yen.osf" horiz-adv-x="585" 
d="M272 157h-168v40h168v32l-30 48h-138v40h114l-159 258h49l141 -232l43 -76h2q24 45 43 76l141 232h49l-158 -258h111v-40h-136l-29 -48v-32h165v-40h-165v-157h-43v157z" />
    <glyph glyph-name="florin.osf" horiz-adv-x="470" 
d="M-40 -123v39q30 -5 62 -5q40 0 75 24q48 28 56 121l24 275h-96v38h99l10 115q11 117 75 155q51 30 100 30q45 0 70 -5l11 -2v-39q-39 7 -82 7q-39 0 -76 -24q-47 -29 -55 -121l-11 -116h133v-38h-136l-24 -274q-11 -117 -75 -155q-49 -30 -99 -30z" />
    <glyph glyph-name="Euro.osf" horiz-adv-x="609" 
d="M129 208h-72v40h65q-5 44 -1 73h-64v40h70q22 97 99 160q77 64 205 64q47 0 92 -12l-11 -41q-42 11 -81 11q-101 0 -167.5 -49.5t-90.5 -132.5h301l-9 -40h-301q-6 -37 1 -73h288l-9 -40h-270q22 -81 89.5 -129.5t167.5 -48.5q49 0 88 13l12 -41q-48 -14 -100 -14
q-120 0 -199 62q-77 61 -103 158z" />
    <glyph glyph-name="zero.numerator" 
d="M336 483q0 -227 -148 -227t-148 227t148 227t148 -227zM79 483q0 -191 109 -191t109 191t-109 191t-109 -191z" />
    <glyph glyph-name="one.numerator" 
d="M310 266h-227v36h96v325l1 22h-1q-6 -10 -23 -27l-44 -43l-26 27l93 94h38v-398h93v-36z" />
    <glyph glyph-name="two.numerator" 
d="M320 266h-266q-2 24 -2 27q0 83 78 139q7 5 37.5 25t41.5 29t30 27t26.5 36t7.5 38q0 36 -26 61.5t-65 25.5q-53 0 -94 -50l-24 26q19 26 51.5 43t66.5 17q60 0 95 -35t35 -88q0 -76 -77 -128q-8 -6 -37 -24.5t-41 -28t-31 -27.5t-26.5 -36.5t-8.5 -40.5h229v-36z" />
    <glyph glyph-name="three.numerator" 
d="M179 256q-91 0 -138 65l28 26q16 -23 46.5 -39t64.5 -16q39 0 71 29q32 30 32 72t-32 69t-75 27h-32l-11 24l108 127l25 25v2q-18 -3 -38 -3h-164v36h255v-26l-128 -150q52 -5 91 -35q40 -31 40 -96q0 -57 -43 -97q-41 -40 -100 -40z" />
    <glyph glyph-name="four.numerator" 
d="M278 266h-38v121h-215v26l222 287h31v-277h68v-36h-68v-121zM80 425v-2h160v147l3 65h-2q-16 -26 -35 -50z" />
    <glyph glyph-name="five.numerator" 
d="M176 256q-83 0 -129 70l32 21q14 -25 41 -40t56 -15q47 0 79.5 31t32.5 77q0 44 -33 76q-34 32 -79 32q-44 0 -81 -27l-26 10l26 209h206v-36h-174l-10 -91l-7 -43h2q31 14 65 14q63 0 107 -42q43 -42 43 -102t-44 -102q-43 -42 -107 -42z" />
    <glyph glyph-name="six.numerator" 
d="M198 256q-71 0 -112 56q-40 56 -40 143q0 43 10.5 86t31.5 82t58.5 63t85.5 24q41 0 83 -20l-19 -32q-28 16 -65 16q-61 0 -98 -52q-38 -53 -47 -126h2q17 21 48.5 34.5t61.5 13.5q60 0 99 -39t39 -101q0 -68 -38.5 -108t-99.5 -40zM198 292q45 0 72 31.5t27 80.5
q0 47 -27.5 75.5t-72.5 28.5q-43 0 -77 -25q-33 -25 -33 -53q0 -49 31 -93q31 -45 80 -45z" />
    <glyph glyph-name="seven.numerator" 
d="M119 266h-43l174 333l37 65v2q-26 -2 -55 -2h-178v36h279v-26z" />
    <glyph glyph-name="eight.numerator" 
d="M188 255q-59 0 -103 35q-44 36 -44 98q0 30 16 58q25 40 61 61q-55 36 -55 93q0 50 37.5 79.5t92.5 29.5q53 0 92 -30q39 -29 39 -82q0 -29 -15 -59q-17 -36 -45 -61q67 -40 67 -99q0 -51 -42 -87q-41 -36 -101 -36zM179 516l54 -23q52 48 52 104q0 35 -26.5 55.5
t-66.5 20.5q-38 0 -64 -19.5t-26 -53.5q0 -27 31 -58q22 -16 46 -26zM188 291q41 0 72 25q32 26 32 61q0 36 -33 58q-13 10 -32 19q-8 5 -23 12t-32.5 14.5t-23.5 10.5q-68 -44 -68 -103q0 -43 31.5 -70t76.5 -27z" />
    <glyph glyph-name="nine.numerator" 
d="M61 276l19 32q25 -16 65 -16q61 0 98 52q38 53 47 126h-2q-17 -21 -48.5 -34.5t-61.5 -13.5q-60 0 -99 39t-39 101q0 68 38.5 108t99.5 40q70 0 111 -57q41 -56 41 -142q0 -43 -10.5 -86t-31.5 -82t-58.5 -63t-85.5 -24q-45 0 -83 20zM179 458q44 0 76 25q34 25 34 53
q0 47 -32 93q-32 45 -79 45q-45 0 -72 -31.5t-27 -80.5q0 -47 27.5 -75.5t72.5 -28.5z" />
    <glyph glyph-name="zero.denominator" 
d="M336 217q0 -227 -148 -227t-148 227t148 227t148 -227zM79 217q0 -191 109 -191t109 191t-109 191t-109 -191z" />
    <glyph glyph-name="one.denominator" 
d="M310 0h-227v36h96v325l1 22h-1q-6 -10 -23 -27l-44 -43l-26 27l93 94h38v-398h93v-36z" />
    <glyph glyph-name="two.denominator" 
d="M320 0h-266q-2 24 -2 27q0 83 78 139q7 5 37.5 25t41.5 29t30 27t26.5 36t7.5 38q0 36 -26 61.5t-65 25.5q-53 0 -94 -50l-24 26q19 26 51.5 43t66.5 17q60 0 95 -35t35 -88q0 -76 -77 -128q-8 -6 -37 -24.5t-41 -28t-31 -27.5t-26.5 -36.5t-8.5 -40.5h229v-36z" />
    <glyph glyph-name="three.denominator" 
d="M179 -10q-91 0 -138 65l28 26q16 -23 46.5 -39t64.5 -16q39 0 71 29q32 30 32 72t-32 69t-75 27h-32l-11 24l108 127l25 25v2q-18 -3 -38 -3h-164v36h255v-26l-128 -150q52 -5 91 -35q40 -31 40 -96q0 -57 -43 -97q-41 -40 -100 -40z" />
    <glyph glyph-name="four.denominator" 
d="M278 0h-38v121h-215v26l222 287h31v-277h68v-36h-68v-121zM80 159v-2h160v147l3 65h-2q-16 -26 -35 -50z" />
    <glyph glyph-name="five.denominator" 
d="M175 -10q-83 0 -129 70l32 21q14 -25 41 -40t56 -15q47 0 79.5 31t32.5 77q0 44 -33 76q-34 32 -79 32q-43 0 -81 -27l-26 10l26 209h206v-36h-174l-10 -91l-7 -43h2q31 14 65 14q64 0 107 -42t43 -102t-44 -102t-107 -42z" />
    <glyph glyph-name="six.denominator" 
d="M198 -10q-71 0 -112 56q-40 56 -40 143q0 43 10.5 86t31.5 82t58.5 63t85.5 24q41 0 83 -20l-19 -32q-28 16 -65 16q-61 0 -98 -52q-38 -53 -47 -126h2q17 21 48.5 34.5t61.5 13.5q60 0 99 -39t39 -101q0 -68 -38.5 -108t-99.5 -40zM198 26q45 0 72 31.5t27 80.5
q0 47 -27.5 75.5t-72.5 28.5q-43 0 -77 -25q-33 -26 -33 -53q0 -49 31 -93q32 -45 80 -45z" />
    <glyph glyph-name="seven.denominator" 
d="M119 0h-43l174 333l37 65v2q-26 -2 -55 -2h-178v36h279v-26z" />
    <glyph glyph-name="eight.denominator" 
d="M188 -10q-59 0 -103 35q-44 36 -44 98q0 30 16 58q25 40 61 61q-55 36 -55 93q0 50 37.5 79.5t92.5 29.5q53 0 92 -30q39 -29 39 -82q0 -29 -15 -59q-17 -36 -45 -61q67 -40 67 -99q0 -51 -42 -87q-41 -36 -101 -36zM179 251l54 -23q52 48 52 104q0 35 -26.5 55.5
t-66.5 20.5q-38 0 -64 -19.5t-26 -53.5q0 -27 31 -58q22 -16 46 -26zM188 26q41 0 72 25q32 26 32 61q0 36 -33 58q-13 10 -32 19q-8 5 -23 12t-32.5 14.5t-23.5 10.5q-68 -44 -68 -103q0 -43 31.5 -70t76.5 -27z" />
    <glyph glyph-name="nine.denominator" 
d="M61 10l19 32q25 -16 65 -16q61 0 98 52q38 53 47 126h-2q-17 -21 -48.5 -34.5t-61.5 -13.5q-60 0 -99 39t-39 101q0 68 38.5 108t99.5 40q70 0 111 -57q41 -56 41 -142q0 -43 -10.5 -86t-31.5 -82t-58.5 -63t-85.5 -24q-45 0 -83 20zM179 192q44 0 76 25q34 25 34 53
q0 47 -32 93q-32 45 -79 45q-45 0 -72 -31.5t-27 -80.5q0 -47 27.5 -75.5t72.5 -28.5z" />
    <glyph glyph-name="uni0433.BUL" horiz-adv-x="430" 
d="M47 111q0 39 20.5 69t51.5 47.5t67.5 35.5t67.5 33t51.5 39.5t20.5 54.5q0 40 -29.5 60.5t-78.5 20.5q-36 0 -68.5 -11t-48.5 -24l-14 -12l-25 34l17 15q12 9 52 24q41 15 84 15q72 0 113.5 -30.5t41.5 -89.5q0 -87 -98 -135q-12 -6 -40.5 -19t-43 -20t-36.5 -20t-33 -24
t-19.5 -27t-8.5 -34q0 -40 32 -62t83 -22q41 0 79.5 14.5t58.5 32.5l17 16l27 -32q0 -3 -18.5 -18.5t-63.5 -34t-99 -19.5q-72 0 -116 33t-44 90z" />
    <glyph glyph-name="uni0434.BUL" horiz-adv-x="571" 
d="M98 -171l20 37q65 -35 134 -35q88 0 139 43.5t51 128.5v58l4 41h-2q-50 -102 -168 -102q-98 0 -160 71t-62 187q0 118 58 185q58 69 157 69q60 0 107 -25.5t67 -72.5h2q-3 8 -3 19v67h42v-497q0 -107 -66 -160q-65 -53 -163 -53q-81 0 -157 39zM98 258q0 -99 49.5 -158
t131.5 -59q76 0 120 53.5t44 163.5q0 213 -174 213q-81 0 -126 -56t-45 -157z" />
    <glyph glyph-name="uni0436.BUL" horiz-adv-x="692" 
d="M76 0h-53l176 255v2l-159 243h49l146 -224h90v424h42v-424h90l146 224h49l-159 -243v-2l176 -255h-53l-161 237h-88v-237h-42v237h-88z" />
    <glyph glyph-name="uni0438.BUL" horiz-adv-x="580" 
d="M81 183v317h42v-302q0 -58 11 -97q22 -72 112 -72t147 67q58 67 58 160v244h42v-500h-42v88l4 41h-2q-17 -49 -72 -95t-135 -46q-88 0 -126.5 47t-38.5 148z" />
    <glyph glyph-name="uni0439.BUL" horiz-adv-x="580" 
d="M81 183v317h42v-302q0 -58 11 -97q22 -72 112 -72t147 67q58 67 58 160v244h42v-500h-42v88l4 41h-2q-17 -49 -72 -95t-135 -46q-88 0 -126.5 47t-38.5 148zM169 682v18h42v-15q0 -33 21.5 -52.5t54.5 -19.5q32 0 54.5 20t22.5 53v14h41v-18q0 -49 -34 -79t-84 -30
t-84 30t-34 79z" />
    <glyph glyph-name="uni043A.BUL" horiz-adv-x="472" 
d="M129 0h-42v700h42v-397h89l162 197h55l-181 -215v-2l198 -283h-53l-181 264h-89v-264z" />
    <glyph glyph-name="uni043B.BUL" horiz-adv-x="496" 
d="M76 0h-45l197 500h40l196 -500h-44l-154 392l-17 54h-2q-6 -26 -17 -54z" />
    <glyph glyph-name="uni043F.BUL" horiz-adv-x="586" 
d="M129 0h-42v500h42v-88l-4 -41h2q16 46 73 94q56 47 139 47q90 0 127.5 -48t37.5 -147v-317h-42v302q0 58 -11 96q-21 73 -112 73q-88 0 -149 -64q-61 -62 -61 -158v-249z" />
    <glyph glyph-name="uni0442.BUL" horiz-adv-x="918" 
d="M129 0h-42v500h42v-88l-4 -41h2q20 57 76 98q58 43 116 43q73 0 111.5 -33.5t46.5 -102.5h2q22 54 75 95t115 41q90 0 128.5 -48t38.5 -147v-317h-42v302q0 87 -27.5 129t-97.5 42q-78 0 -132 -69t-54 -155v-249h-42v302q0 62 -12 97q-22 74 -110 74q-79 0 -135 -69
q-55 -68 -55 -155v-249z" />
    <glyph glyph-name="uni0446.BUL" horiz-adv-x="596" 
d="M81 183v317h42v-302q0 -58 11 -97q22 -72 112 -72t147 67q58 67 58 160v244h42v-461h76v-159h-42v120h-76v88l4 41h-2q-17 -49 -72 -95t-135 -46q-88 0 -126.5 47t-38.5 148z" />
    <glyph glyph-name="uni0448.BUL" horiz-adv-x="917" 
d="M788 500h42v-500h-42v88l4 41h-2q-20 -57 -77 -99t-115 -42q-73 0 -111.5 33.5t-46.5 102.5h-2q-22 -56 -75 -96q-52 -40 -115 -40q-90 0 -128.5 48t-38.5 147v317h42v-302q0 -87 27.5 -129t97.5 -42q78 0 132 69t54 155v249h42v-302q0 -58 11 -97q25 -74 111 -74
q78 0 134 69q56 70 56 155v249z" />
    <glyph glyph-name="uni0449.BUL" horiz-adv-x="933" 
d="M788 500h42v-461h76v-159h-42v120h-76v88l4 41h-2q-20 -57 -77 -99t-115 -42q-73 0 -111.5 33.5t-46.5 102.5h-2q-22 -56 -75 -96q-52 -40 -115 -40q-90 0 -128.5 48t-38.5 147v317h42v-302q0 -87 27.5 -129t97.5 -42q78 0 132 69t54 155v249h42v-302q0 -58 11 -97
q25 -74 111 -74q78 0 134 69q56 70 56 155v249z" />
    <glyph glyph-name="uni044A.BUL" horiz-adv-x="559" 
d="M148 174v288h-117v38h159v-151q0 -39 -2 -55h2q21 33 61.5 53t89.5 20q81 0 128.5 -49t47.5 -142q0 -77 -50 -133q-49 -55 -139 -55t-135 54q-45 56 -45 132zM190 174q0 -65 37.5 -105.5t100.5 -40.5q64 0 104 41t40 107q0 75 -35.5 113t-95.5 38q-70 0 -110.5 -41.5
t-40.5 -111.5z" />
    <glyph glyph-name="uni044C.BUL" horiz-adv-x="492" 
d="M81 174v326h42v-151q0 -39 -2 -55h2q21 33 61.5 53t89.5 20q81 0 128.5 -49t47.5 -142q0 -77 -50 -133q-49 -55 -139 -55t-135 54q-45 56 -45 132zM123 174q0 -65 37.5 -105.5t100.5 -40.5q64 0 104 41t40 107q0 75 -35.5 113t-95.5 38q-70 0 -110.5 -41.5t-40.5 -111.5z
" />
    <glyph glyph-name="uni044E.BUL" horiz-adv-x="785" 
d="M129 0h-42v700h42v-431h107q6 102 78 173q71 70 171 70q103 0 176 -75q73 -74 73 -184q0 -112 -73 -188q-74 -77 -176 -77q-99 0 -169 69q-72 72 -79 173h-108v-230zM280 253q0 -95 60 -160q60 -64 145 -64t145 64q60 65 60 160q0 92 -60 155t-145 63t-145 -63t-60 -155z
" />
    <glyph glyph-name="uni0432.BUL" horiz-adv-x="572" 
d="M79 237v196q0 118 59 198q60 81 170 81q61 0 107 -34q47 -33 47 -90q0 -106 -141 -165v-2q64 -2 128 -43q33 -21 52.5 -61t19.5 -90q0 -103 -62 -171t-166 -68q-98 0 -156 63.5t-58 185.5zM118 433v-108h2q22 47 91 81l83 40q70 36 98 67t28 73q0 40 -36 63
q-35 23 -78 23q-50 0 -88 -20.5t-59 -55.5t-31 -76t-10 -87zM121 218q0 -91 49 -140q50 -50 123 -50q79 0 131 52q53 53 53 145q0 81 -54 122q-53 40 -123 40q-68 0 -124 -45q-55 -43 -55 -124z" />
    <glyph glyph-name="uni0437.BUL" horiz-adv-x="429" 
d="M25 -167l20 37q58 -40 121 -40q79 0 128 46.5t49 122.5t-51.5 117.5t-142.5 41.5h-45v38h45q71 0 117.5 40.5t46.5 106.5q0 59 -36 94t-94 35q-71 0 -130 -54l-23 32q70 62 157 62q81 0 125 -47q45 -48 46 -111q2 -55 -27 -101t-80 -70v-2q68 -20 102.5 -66.5
t34.5 -113.5q0 -90 -60 -150q-60 -61 -158 -61q-84 0 -145 43z" />
    <glyph glyph-name="uni0414.ALT" horiz-adv-x="690" 
d="M18 -140v180h72l232 660h46l232 -660h72v-180h-43v140h-568v-140h-43zM319 560l-183 -520h418l-183 520l-25 85h-2q-16 -60 -25 -85z" />
    <glyph glyph-name="uni041B.ALT" horiz-adv-x="606" 
d="M74 0h-46l252 700h46l252 -700h-46l-203 560l-25 85h-2q-11 -44 -25 -85z" />
    <glyph glyph-name="uni0434.ALT" horiz-adv-x="564" 
d="M27 -120v159h53l182 461h40l180 -461h55v-159h-42v120h-426v-120h-42zM264 392l-139 -353h313l-138 353l-17 54h-2q-7 -26 -17 -54z" />
    <glyph glyph-name="uni043B.ALT" horiz-adv-x="496" 
d="M76 0h-45l197 500h40l196 -500h-44l-154 392l-17 54h-2q-6 -26 -17 -54z" />
    <glyph glyph-name="uni0409.ALT" horiz-adv-x="836" 
d="M71 0h-47l303 700h111v-310h148q96 0 154 -52t58 -143q0 -89 -60 -142q-59 -53 -146 -53h-197v660h-38zM438 350v-310h150q74 0 119.5 41t45.5 114q0 71 -46 113t-119 42h-150z" />
    <glyph glyph-name="uni0459.ALT" horiz-adv-x="682" 
d="M75 0h-45l217 500h113v-200h115q32 0 59.5 -7t53.5 -22.5t41 -46.5t15 -75q0 -69 -44 -109t-127 -40h-155v461h-43zM360 261v-222h113q127 0 127 110q0 112 -125 112h-115z" />
    <glyph glyph-name="uni04C5.ALT" horiz-adv-x="651" 
d="M74 0h-46l252 700h46l237 -660h84v-33l-60 -147h-40l49 140h-64l-203 560l-25 85h-2q-11 -44 -25 -85z" />
    <glyph glyph-name="uni04C6.ALT" horiz-adv-x="537" 
d="M76 0h-45l197 500h40l181 -462h78v-33l-51 -125h-38l42 120h-60l-154 392l-17 54h-2q-6 -26 -17 -54z" />
    </font>
</defs>
</svg>
