<svg xmlns="http://www.w3.org/2000/svg" height="512" viewBox="-37 0 512 512.01829" width="512"><path d="M286.93 512.008c-3.309 0-10.47-7.824-12.871-10a110.697 110.697 0 0 1-11.704-12.352 110.192 110.192 0 0 1-17.136-29.57c-19.125-49.473.906-107.426 46.586-134.316a127.627 127.627 0 0 1 3.246-1.84c4.379-12.45 6.875-27.235 7.43-43.993.25-7.46 3.523-14.43 9.218-19.62 9.488-8.622 28.27-30.329 41.14-54.758 9.61-18.239-1.14-29.22-11.866-35.235-8.016-4.48-13.063-13.66-13.145-23.945C326.574 14.273 226.031 0 182.855 0 139.547 0 38.72 14.309 37.887 146.879c-.063 10.105-5.145 19.117-13.266 23.516-5.43 2.925-12.379 8.148-14.7 16.359-1.804 6.351-.487 13.465 3.923 21.101 12.508 21.704 30.023 43.215 40.152 52.434 5.625 5.11 8.988 12.379 9.254 19.969 1.95 55.914 24.621 75.308 37.969 81.89 12.867 6.329 20.867 18.278 20.867 31.168 0 15.536-7.856 29.825-21.012 38.207l-2.34 1.07-76.28 22.384C9.124 460.25.007 473.547.007 488.574.008 501.484 10.516 512 23.434 512c.007.008 263.468.008 263.496.008zm0 0" fill="#fff"/><path d="M347.445 329.152c-46.14 0-85.804 35.95-90.843 81.727-4.88 44.379 25.171 86.848 68.273 97.902a90.94 90.94 0 0 0 21.52 2.836l.02.348c.347 0 .675.055 1.022.055 50.415 0 91.43-41.016 91.43-91.43 0-50.414-41.008-91.438-91.422-91.438zm54.86 100.57H356.59v45.716a9.144 9.144 0 0 1-9.145 9.144 9.14 9.14 0 0 1-9.14-9.144v-45.715H292.59c-5.047 0-9.145-4.086-9.145-9.141a9.142 9.142 0 0 1 9.145-9.144h45.715v-45.715a9.137 9.137 0 0 1 9.14-9.141c5.047 0 9.145 4.086 9.145 9.14v45.716h45.715a9.138 9.138 0 0 1 9.14 9.144 9.137 9.137 0 0 1-9.14 9.14zm0 0" fill="#fff"/></svg>