<svg xmlns="http://www.w3.org/2000/svg" viewBox="0 0 512.001 512.001" width="512" height="512"><circle cx="255.996" cy="348.881" r="13.125" fill="#f67235"/><circle cx="143.634" cy="348.881" r="13.125" fill="#f67235"/><circle cx="368.371" cy="348.881" r="13.125" fill="#f67235"/><path d="M256 169.448c-17.168-.001-30.617 17.966-30.617 40.903 0 22.936 13.449 40.903 30.617 40.903 17.169 0 30.618-17.967 30.618-40.903S273.169 169.448 256 169.448zm-.001 64.152c-6.12 0-12.963-9.943-12.963-23.249 0-13.307 6.843-23.249 12.963-23.249 6.12 0 12.964 9.942 12.964 23.249 0 13.307-6.844 23.249-12.964 23.249z" fill="#f67235"/><path d="M477.253 106.738c-19.158 0-34.746 15.587-34.746 34.747 0 3.806.624 7.468 1.761 10.898-11.272 9.837-22.728 17.973-34.122 24.224a8.828 8.828 0 1 0 8.49 15.479c11.865-6.507 23.724-14.818 35.352-24.766a34.297 34.297 0 0 0 11.334 6.824l-29.813 88.262-.424-.002H157.356c-4.876 0-8.827 3.952-8.827 8.827s3.951 8.827 8.827 8.827h277.728c1.216 0 2.454.212 3.605.607 4.404 1.505 7.584 5.674 7.584 10.581 0 6.17-5.02 11.188-11.189 11.188H76.918c-6.168 0-11.188-5.018-11.188-11.188 0-4.908 3.181-9.079 7.612-10.589a11.269 11.269 0 0 1 3.576-.599h45.131a8.826 8.826 0 0 0 8.827-8.827 8.826 8.826 0 0 0-8.827-8.827H76.918a20.2 20.2 0 0 0-.425.004L46.68 174.144a34.335 34.335 0 0 0 11.333-6.822c13.503 11.559 27.249 20.861 40.962 27.71 23.055 11.515 45.243 15.606 65.964 12.155 30.546-5.086 57.045-26.351 78.855-63.245a34.12 34.12 0 0 0 5.254 1.498c4.585.917 9.334.927 13.92-.002l.053-.011a34.305 34.305 0 0 0 5.193-1.486c15.024 25.398 32.367 43.496 51.637 53.862 18.419 9.908 38.602 12.862 59.983 8.781a8.829 8.829 0 0 0 7.016-10.325c-.914-4.788-5.54-7.928-10.325-7.016-36.77 7.019-68.326-11.692-93.865-55.59 5.047-6.033 8.09-13.795 8.09-22.257 0-19.159-15.587-34.747-34.747-34.747-19.158 0-34.746 15.587-34.746 34.747 0 8.466 3.047 16.231 8.096 22.264-19.19 32.994-41.813 51.868-67.313 56.114-36.691 6.111-73.241-19.056-94.302-37.394a34.596 34.596 0 0 0 1.758-10.893c0-19.159-15.587-34.747-34.747-34.747C15.587 106.738 0 122.326 0 141.485c0 17.047 12.344 31.257 28.561 34.184l31.21 92.399c-7.09 5.26-11.696 13.689-11.696 23.175 0 12.825 8.416 23.717 20.015 27.455v60.358c-11.598 3.738-20.015 14.629-20.015 27.454 0 15.904 12.938 28.842 28.842 28.842h273.572a8.826 8.826 0 0 0 8.827-8.827 8.826 8.826 0 0 0-8.827-8.827H76.918c-6.168 0-11.188-5.018-11.188-11.188 0-6.169 5.02-11.188 11.188-11.188h358.166c6.17 0 11.189 5.018 11.189 11.188 0 6.17-5.02 11.188-11.189 11.188h-49.286a8.826 8.826 0 0 0-8.827 8.827 8.826 8.826 0 0 0 8.827 8.827h49.286c15.904 0 28.843-12.938 28.843-28.842 0-12.825-8.417-23.718-20.016-27.456v-60.357c11.599-3.738 20.016-14.629 20.016-27.456 0-9.487-4.607-17.917-11.698-23.176l31.21-92.398c16.217-2.927 28.562-17.136 28.562-34.184-.001-19.157-15.588-34.745-34.748-34.745zM256 94.301c9.425 0 17.093 7.668 17.093 17.093 0 9.899-8.642 17.779-18.363 17.014-8.8-.692-15.823-8.168-15.823-17.014 0-9.425 7.668-17.093 17.093-17.093zM39.71 157.762a15.727 15.727 0 0 1-4.963.817c-9.425 0-17.092-7.668-17.092-17.093s7.668-17.093 17.092-17.093c9.425 0 17.093 7.668 17.093 17.093 0 7.313-5.31 14.007-12.13 16.276zM426.256 377.67H85.745v-57.584h340.511v57.584zm50.997-219.093c-9.291 0-17.092-7.811-17.092-17.093 0-9.425 7.668-17.093 17.092-17.093s17.093 7.668 17.093 17.093-7.668 17.093-17.093 17.093z" fill="#f67235"/></svg>