<?xml version="1.0" encoding="iso-8859-1"?>
<!-- Generator: Adobe Illustrator 19.0.0, SVG Export Plug-In . SVG Version: 6.00 Build 0)  -->
<svg xmlns="http://www.w3.org/2000/svg" xmlns:xlink="http://www.w3.org/1999/xlink" version="1.1" id="Layer_1" x="0px" y="0px" viewBox="0 0 512.001 512.001" style="enable-background:new 0 0 512.001 512.001;" xml:space="preserve" width="512px" height="512px">
<g>
	<g>
		<circle cx="255.996" cy="348.881" r="13.125" fill="#f67235"/>
	</g>
</g>
<g>
	<g>
		<circle cx="143.634" cy="348.881" r="13.125" fill="#f67235"/>
	</g>
</g>
<g>
	<g>
		<circle cx="368.371" cy="348.881" r="13.125" fill="#f67235"/>
	</g>
</g>
<g>
	<g>
		<path d="M256,169.448c-17.168-0.001-30.617,17.966-30.617,40.903c0,22.936,13.449,40.903,30.617,40.903    c17.169,0,30.618-17.967,30.618-40.903S273.169,169.448,256,169.448z M255.999,233.6c-6.12,0-12.963-9.943-12.963-23.249    c0-13.307,6.843-23.249,12.963-23.249c6.12,0,12.964,9.942,12.964,23.249C268.963,223.658,262.119,233.6,255.999,233.6z" fill="#f67235"/>
	</g>
</g>
<g>
	<g>
		<path d="M477.253,106.738c-19.158,0-34.746,15.587-34.746,34.747c0,3.806,0.624,7.468,1.761,10.898    c-11.272,9.837-22.728,17.973-34.122,24.224c-4.275,2.344-5.839,7.71-3.495,11.985c2.346,4.273,7.712,5.838,11.985,3.494    c11.865-6.507,23.724-14.818,35.352-24.766c3.308,2.994,7.15,5.307,11.334,6.824l-29.813,88.262    c-0.141-0.001-0.282-0.002-0.424-0.002H157.356c-4.876,0-8.827,3.952-8.827,8.827s3.951,8.827,8.827,8.827h277.728    c1.216,0,2.454,0.212,3.605,0.607c4.404,1.505,7.584,5.674,7.584,10.581c0,6.17-5.02,11.188-11.189,11.188H76.918    c-6.168,0-11.188-5.018-11.188-11.188c0-4.908,3.181-9.079,7.612-10.589c1.142-0.386,2.369-0.599,3.576-0.599h45.131    c4.876,0,8.827-3.952,8.827-8.827c0-4.875-3.951-8.827-8.827-8.827H76.918c-0.141,0-0.282,0.001-0.425,0.004L46.68,174.144    c4.182-1.517,8.024-3.829,11.333-6.822c13.503,11.559,27.249,20.861,40.962,27.71c23.055,11.515,45.243,15.606,65.964,12.155    c30.546-5.086,57.045-26.351,78.855-63.245c1.681,0.632,3.411,1.122,5.176,1.483c0.026,0.006,0.052,0.011,0.078,0.015    c4.585,0.917,9.334,0.927,13.92-0.002c0.018-0.004,0.035-0.007,0.053-0.011c1.771-0.362,3.507-0.853,5.193-1.486    c15.024,25.398,32.367,43.496,51.637,53.862c18.419,9.908,38.602,12.862,59.983,8.781c4.788-0.914,7.929-5.538,7.016-10.325    c-0.914-4.788-5.54-7.928-10.325-7.016c-36.77,7.019-68.326-11.692-93.865-55.59c5.047-6.033,8.09-13.795,8.09-22.257    c0-19.159-15.587-34.747-34.747-34.747c-19.158,0-34.746,15.587-34.746,34.747c0,8.466,3.047,16.231,8.096,22.264    c-19.19,32.994-41.813,51.868-67.313,56.114c-36.691,6.111-73.241-19.056-94.302-37.394c1.135-3.428,1.758-7.089,1.758-10.893    c0-19.159-15.587-34.747-34.747-34.747C15.587,106.738,0,122.326,0,141.485c0,17.047,12.344,31.257,28.561,34.184l31.21,92.399    c-7.09,5.26-11.696,13.689-11.696,23.175c0,12.825,8.416,23.717,20.015,27.455v60.358c-11.598,3.738-20.015,14.629-20.015,27.454    c0,15.904,12.938,28.842,28.842,28.842h273.572c4.876,0,8.827-3.952,8.827-8.827c0-4.875-3.951-8.827-8.827-8.827H76.918    c-6.168,0-11.188-5.018-11.188-11.188c0-6.169,5.02-11.188,11.188-11.188h358.166c6.17,0,11.189,5.018,11.189,11.188    c0,6.17-5.02,11.188-11.189,11.188h-49.286c-4.876,0-8.827,3.952-8.827,8.827c0,4.875,3.951,8.827,8.827,8.827h49.286    c15.904,0,28.843-12.938,28.843-28.842c0-12.825-8.417-23.718-20.016-27.456v-60.357c11.599-3.738,20.016-14.629,20.016-27.456    c0-9.487-4.607-17.917-11.698-23.176l31.21-92.398c16.217-2.927,28.562-17.136,28.562-34.184    C512,122.326,496.413,106.738,477.253,106.738z M256,94.301c9.425,0,17.093,7.668,17.093,17.093    c0,9.899-8.642,17.779-18.363,17.014c-8.8-0.692-15.823-8.168-15.823-17.014C238.907,101.969,246.575,94.301,256,94.301z     M39.71,157.762c-1.589,0.528-3.259,0.817-4.963,0.817c-9.425,0-17.092-7.668-17.092-17.093c0-9.425,7.668-17.093,17.092-17.093    c9.425,0,17.093,7.668,17.093,17.093C51.84,148.799,46.53,155.493,39.71,157.762z M426.256,377.67H85.745v-57.584h340.511V377.67z     M477.253,158.577c-9.291,0-17.092-7.811-17.092-17.093c0-9.425,7.668-17.093,17.092-17.093s17.093,7.668,17.093,17.093    S486.678,158.577,477.253,158.577z" fill="#f67235"/>
	</g>
</g>
<g>
</g>
<g>
</g>
<g>
</g>
<g>
</g>
<g>
</g>
<g>
</g>
<g>
</g>
<g>
</g>
<g>
</g>
<g>
</g>
<g>
</g>
<g>
</g>
<g>
</g>
<g>
</g>
<g>
</g>
</svg>
