<svg xmlns="http://www.w3.org/2000/svg" viewBox="0 0 512 512" width="512" height="512"><path d="M166 449c-5.52 0-10 4.48-10 10s4.48 10 10 10 10-4.48 10-10-4.48-10-10-10zM319.502 116.36a10 10 0 0 0-8.073-6.806l-33.042-4.8-13.797-29.885a10 10 0 0 0-18.086-.153l-14.179 29.393-35.044 5.461a9.998 9.998 0 1 0-5.44 17.042l24.024 23.419-5.671 33.068a9.999 9.999 0 1 0 14.509 10.542l29.707-15.614 29.697 15.614a9.999 9.999 0 0 0 14.51-10.542l-5.671-33.068 24.026-23.42a9.998 9.998 0 0 0 2.53-10.251zm-44.282 23.019a10 10 0 0 0-2.875 8.851l3.135 18.279-16.415-8.63a9.996 9.996 0 0 0-9.306 0l-16.427 8.634 3.135-18.282a10 10 0 0 0-2.875-8.851l-13.468-13.128 20.466-3.191a10.001 10.001 0 0 0 7.467-5.536l7.254-15.038 7.19 15.574a10 10 0 0 0 7.642 5.705l18.358 2.667-13.281 12.946zM346 449H206c-5.523 0-10 4.477-10 10s4.477 10 10 10h140c5.523 0 10-4.477 10-10s-4.477-10-10-10z"/><path d="M466 19h-70.617l.592-8.286A10.002 10.002 0 0 0 386 0H126a9.999 9.999 0 0 0-9.974 10.714l.591 8.286H46c-16.542 0-30 13.346-30 29.75v27.92c0 41.076 12.844 80.292 37.144 113.408 24.299 33.116 57.854 57.135 97.038 69.462l18.049 5.672a127.973 127.973 0 0 0 28.155 20.085A30.02 30.02 0 0 0 196 290c0 13.036 8.361 24.152 20 28.28V343h-30c-16.542 0-30 13.458-30 30v33h-10c-16.542 0-30 13.458-30 30v66c0 5.523 4.477 10 10 10h260c5.523 0 10-4.477 10-10v-66c0-16.542-13.458-30-30-30h-10v-33c0-16.542-13.458-30-30-30h-30v-24.703c11.539-4.071 20-15.114 20-28.297 0-1.58-.14-3.148-.385-4.696a127.51 127.51 0 0 0 28.206-20.146c.155-.041.311-.078.465-.127l17.483-5.491c39.197-12.325 72.764-36.349 97.073-69.473C483.151 156.942 496 117.716 496 76.63V48.75C496 32.346 482.542 19 466 19zm-82.186 161.992L391.098 79h44.88c-.732 40.792-20.257 78.66-52.236 102.778.02-.262.054-.524.072-.786zm-255.629-.006c.019.272.046.544.067.816C96.21 157.701 76.728 120.005 76.02 79h44.882l7.283 101.986zM36 76.67V48.75C36 43.283 40.393 39 46 39h72.045l1.428 20H66c-5.523 0-10 4.477-10 10v7.68c0 55.182 29.542 105.511 77.322 132.234a127.544 127.544 0 0 0 12.144 27.785C79.54 211.163 36 148.216 36 76.67zM366 426c5.514 0 10 4.486 10 10v56H136v-56c0-5.514 4.486-10 10-10h220zm-40-63c5.514 0 10 4.486 10 10v33H176v-33c0-5.514 4.486-10 10-10h140zm-90-20v-23h40v23h-40zm50-43h-60c-5.514 0-10-4.486-10-10 0-5.477 4.441-10 10-10h60c5.456 0 10 4.44 10 10 0 5.522-4.478 10-10 10zm47.219-52.441a107.812 107.812 0 0 1-27.169 20.144C300.622 262.828 293.503 260 286 260h-60c-7.479 0-14.541 2.723-20.059 7.698a108.086 108.086 0 0 1-25.505-18.484c-18.884-18.434-30.42-43.094-32.301-69.647L136.742 20h238.516l-11.393 159.567c-1.853 25.913-12.812 49.819-30.646 67.992zM476 76.63c0 71.552-43.539 134.503-109.464 160.05a127.556 127.556 0 0 0 12.133-27.762l.002-.001C426.37 182.236 456 131.542 456 76.62V69c0-5.523-4.477-10-10-10h-53.474l1.428-20H466c5.607 0 10 4.283 10 9.75v27.88z"/></svg>