<svg xmlns="http://www.w3.org/2000/svg" height="512" viewBox="-64 0 512 512" width="512"><path d="M200 442c0 5.523-4.477 10-10 10s-10-4.477-10-10 4.477-10 10-10 10 4.477 10 10zm0 0"/><path d="M140.723 258.508c-33.282 24.953-56.078 64.87-61.621 107.515C62.977 366.5 50 379.758 50 396v38.906C20.57 443.582 0 470.54 0 502c0 5.523 4.477 10 10 10h360c5.523 0 10-4.477 10-10 0-31.457-20.566-58.418-50-67.094V396c0-15.867-12.387-28.89-27.996-29.926-3.274-15.797-1.766-30.14 2.836-45.074h53.2c4.378 0 8.245-2.848 9.55-7.027 13.035-41.86 25.41-92.657 7.113-165.88C353.352 62.688 271.04 0 201.738 0H151c-5.523 0-10 4.477-10 10v56.473c-32.207 4.68-57.328 31.636-59.332 64.757l-42.809 42.81c-11.722 11.722-11.726 30.706 0 42.433l24.485 24.476c15.515 15.528 40.351 15.465 55.844.547 6.28-5.05 25.718-33.426 56.89-22.23-9.125 15.187-21.195 28.625-35.355 39.242zM310 396v36h-80c-5.523 0-10 4.477-10 10s4.477 10 10 10h80c23.777 0 44.3 16.566 49.012 40H20.988c4.696-23.363 25.157-40 49.012-40h80c5.523 0 10-4.477 10-10s-4.477-10-10-10H70v-36c0-5.516 4.484-10 10-10h220c5.516 0 10 4.484 10 10zm45.297-243.055c16.082 64.34 7.148 108.75-4.652 148.055h-39.497c12.426-39.277 22.954-77.695 7.723-138.613-10.52-42.14-47.59-81.957-97.871-93.852V39.88a39.667 39.667 0 0 0-4.73-18.828c57.55 8.105 121.558 62 139.027 131.894zm-160.406 73.79c20.172 5.398 37.343-.91 50.457-7.387 4.953-2.446 6.984-8.446 4.539-13.399-2.446-4.953-8.442-6.98-13.395-4.535-15.8 7.805-29.344 10.524-45.453 2.531-18.351-9.18-37.328-9.652-54.867-1.379-14.73 6.95-23.625 17.317-30.574 24.243-7.77 7.77-20.34 7.773-28.11 0L53 202.329c-3.906-3.907-3.906-10.24 0-14.15l45.61-45.609a10 10 0 0 0 2.93-7.07c0-27.434 22.187-49.75 49.46-49.75 5.523 0 10-4.477 10-10V20h20.172C192.105 20 201 28.918 201 39.879v36.82a9.999 9.999 0 0 0 8.309 9.856c46.394 7.965 80.902 43.586 90.16 80.68 14.941 59.765 3.46 93.355-11.516 140.722-5.875 18.602-10.129 34.914-6.308 58.043H99.3c5.418-36.398 25.054-70.223 53.418-91.488 17.097-12.825 31.547-29.219 42.172-47.778zm0 0"/><path d="M160 136h-20c-5.523 0-10 4.477-10 10s4.477 10 10 10h20c5.523 0 10-4.477 10-10s-4.477-10-10-10zm0 0"/></svg>