<svg height="479pt" viewBox="0 -23 479.97602 479" width="479pt" xmlns="http://www.w3.org/2000/svg" xmlns:xlink="http://www.w3.org/1999/xlink"><linearGradient id="a"><stop offset="0" stop-color="#e93e3a"/><stop offset=".358" stop-color="#ed683c"/><stop offset=".7" stop-color="#f3903f"/><stop offset="1" stop-color="#fdc70c"/></linearGradient><linearGradient id="b" gradientUnits="userSpaceOnUse" x1="239.976" x2="239.976" xlink:href="#a" y1="429.96801" y2="-52.57599"/><linearGradient id="c" gradientUnits="userSpaceOnUse" x1="199.976" x2="199.976" xlink:href="#a" y1="429.96801" y2="-52.57599"/><linearGradient id="d" gradientUnits="userSpaceOnUse" x1="263.976" x2="263.976" xlink:href="#a" y1="429.96801" y2="-52.57599"/><linearGradient id="e" gradientUnits="userSpaceOnUse" x1="327.976" x2="327.976" xlink:href="#a" y1="429.96801" y2="-52.57599"/><linearGradient id="f" gradientUnits="userSpaceOnUse" x1="135.976" x2="135.976" xlink:href="#a" y1="429.96801" y2="-52.57599"/><linearGradient id="g" gradientUnits="userSpaceOnUse" x1="71.976" x2="71.976" xlink:href="#a" y1="429.96801" y2="-52.57599"/><linearGradient id="h" gradientUnits="userSpaceOnUse" x1="295.976" x2="295.976" xlink:href="#a" y1="429.96801" y2="-52.57599"/><linearGradient id="i" gradientUnits="userSpaceOnUse" x1="103.976" x2="103.976" xlink:href="#a" y1="429.96801" y2="-52.57599"/><path d="m479.921875 8.113281c-.027344-.394531-.089844-.785156-.179687-1.167969-.066407-.390624-.160157-.777343-.285157-1.152343-.042969-.121094-.042969-.25-.089843-.367188-.101563-.242187-.269532-.425781-.390626-.648437-.183593-.363282-.390624-.710938-.625-1.042969-.246093-.304687-.511718-.589844-.800781-.855469-.265625-.285156-.550781-.550781-.855469-.800781-.328124-.234375-.675781-.441406-1.039062-.621094-.222656-.121093-.410156-.289062-.648438-.394531-.238281-.101562-.246093-.046875-.367187-.085938-.347656-.113281-.703125-.195312-1.066406-.25-.414063-.097656-.835938-.160156-1.261719-.191406-.121094-.007812-.222656-.046875-.335938-.046875h-384c-2.121093 0-4.15625.84375-5.65625 2.34375l-80 80c-.636718.664063-1.152343 1.433594-1.527343 2.273438-.101563.246093-.191407.496093-.265625.75-.238282.679687-.382813 1.390625-.4296878 2.113281 0 .175781-.0976562.320312-.0976562.496094v336.023437c0 4.417969 3.582031 8 8 8h383.976562c1.175782-.007812 2.335938-.28125 3.390626-.800781.277343-.160156.546874-.339844.800781-.535156.714843-.445313 1.359375-1 1.902343-1.640625.121094-.144531.304688-.207031.417969-.359375l80-112c.972657-1.359375 1.492188-2.992188 1.488281-4.664063v-304c0-.128906-.046874-.25-.054687-.375zm-15.945313 61.0625-64 64v-41.375l64-64zm-448 27.3125h368v48h-368zm75.3125-80h361.375l-64 64h-361.375zm-75.3125 144h368v256h-368zm448 149.441407-64 89.597656v-243.726563l64-64zm0 0" fill="url(#b)"/><path d="m205.65625 114.808594c-.378906-.34375-.78125-.664063-1.199219-.960938-.445312-.300781-.929687-.542968-1.441406-.71875-.453125-.230468-.9375-.394531-1.441406-.480468-1.558594-.332032-3.179688-.164063-4.636719.480468-.96875.40625-1.863281.972656-2.640625 1.679688-.722656.765625-1.292969 1.660156-1.679687 2.640625-1.277344 2.976562-.613282 6.429687 1.679687 8.71875 2.289063 2.292969 5.742187 2.957031 8.71875 1.679687.96875-.40625 1.863281-.972656 2.640625-1.679687 2.289062-2.289063 2.957031-5.742188 1.679688-8.71875-.40625-.96875-.972657-1.863281-1.679688-2.640625zm0 0" fill="url(#c)"/><path d="m269.65625 114.808594c-3.207031-2.960938-8.152344-2.960938-11.359375 0-.707031.777344-1.273437 1.671875-1.679687 2.640625-1.277344 2.976562-.613282 6.429687 1.679687 8.71875.777344.707031 1.671875 1.273437 2.640625 1.679687 2.457031 1.054688 5.285156.796875 7.511719-.6875 2.226562-1.488281 3.554687-3.996094 3.527343-6.671875.027344-1.050781-.191406-2.089843-.640624-3.039062-.40625-.96875-.972657-1.863281-1.679688-2.640625zm0 0" fill="url(#d)"/><path d="m333.65625 114.808594c-.777344-.707032-1.671875-1.273438-2.640625-1.679688-2.980469-1.253906-6.417969-.589844-8.71875 1.679688-.707031.777344-1.273437 1.671875-1.679687 2.640625-.855469 1.9375-.855469 4.140625 0 6.078125.40625.96875.972656 1.859375 1.679687 2.640625.777344.707031 1.671875 1.273437 2.640625 1.679687 1.933594.855469 4.140625.855469 6.078125 0 .96875-.40625 1.863281-.972656 2.640625-1.679687.703125-.78125 1.273438-1.671875 1.679688-2.640625.855468-1.9375.855468-4.144532 0-6.078125-.40625-.96875-.972657-1.863281-1.679688-2.640625zm0 0" fill="url(#e)"/><path d="m141.65625 114.808594c-.777344-.707032-1.671875-1.273438-2.640625-1.679688-1.429687-.640625-3.027344-.808594-4.558594-.480468-.53125.074218-1.042969.234374-1.519531.480468-.492188.160156-.953125.402344-1.363281.71875-.457031.273438-.886719.597656-1.277344.960938-.707031.777344-1.273437 1.671875-1.679687 2.640625-1.277344 2.976562-.613282 6.429687 1.679687 8.71875.777344.707031 1.671875 1.273437 2.640625 1.679687 1.933594.851563 4.140625.851563 6.078125 0 .96875-.40625 1.863281-.972656 2.640625-1.679687.703125-.78125 1.273438-1.671875 1.679688-2.640625.855468-1.9375.855468-4.144532 0-6.078125-.386719-.980469-.957032-1.875-1.679688-2.640625zm0 0" fill="url(#f)"/><path d="m77.65625 114.808594c-.378906-.34375-.78125-.664063-1.199219-.960938-.445312-.300781-.929687-.542968-1.441406-.71875-.453125-.230468-.9375-.394531-1.441406-.480468-2.632813-.539063-5.363281.273437-7.277344 2.160156-.707031.777344-1.273437 1.671875-1.679687 2.640625-.449219.949219-.667969 1.988281-.640626 3.039062-.023437 2.128907.8125 4.175781 2.320313 5.679688.777344.707031 1.671875 1.273437 2.640625 1.679687 1.933594.851563 4.140625.851563 6.078125 0 .96875-.40625 1.863281-.972656 2.640625-1.679687 1.503906-1.503907 2.339844-3.550781 2.320312-5.679688.027344-1.050781-.191406-2.089843-.640624-3.039062-.40625-.96875-.972657-1.863281-1.679688-2.640625zm0 0" fill="url(#g)"/><path d="m227.6875 264.488281c-2.207031-3.828125-7.101562-5.136719-10.925781-2.929687l-8.800781 5.074218v-10.144531c0-4.417969-3.582032-8-8-8-4.417969 0-8 3.582031-8 8v10.144531l-8.800782-5.074218c-3.824218-2.171875-8.683594-.851563-10.882812 2.957031-2.199219 3.808594-.910156 8.675781 2.882812 10.898437l8.816406 5.074219-8.800781 5.070313c-2.496093 1.421875-4.039062 4.066406-4.046875 6.9375-.003906 2.871094 1.527344 5.527344 4.015625 6.957031 2.492188 1.429687 5.554688 1.414063 8.03125-.039063l8.800781-5.070312v10.144531c0 4.417969 3.582032 8 8 8 4.417969 0 8-3.582031 8-8v-10.144531l8.800782 5.070312c2.476562 1.453126 5.539062 1.46875 8.027344.039063 2.492187-1.429687 4.023437-4.085937 4.015624-6.957031-.003906-2.871094-1.546874-5.515625-4.042968-6.9375l-8.800782-5.070313 8.800782-5.074219c3.820312-2.210937 5.121094-7.105468 2.910156-10.925781zm0 0" fill="url(#c)"/><path d="m323.6875 264.488281c-2.207031-3.828125-7.101562-5.136719-10.925781-2.929687l-8.800781 5.074218v-10.144531c0-4.417969-3.582032-8-8-8-4.417969 0-8 3.582031-8 8v10.144531l-8.800782-5.074218c-3.824218-2.171875-8.683594-.851563-10.882812 2.957031-2.199219 3.808594-.910156 8.675781 2.882812 10.898437l8.816406 5.074219-8.800781 5.070313c-2.496093 1.421875-4.039062 4.066406-4.046875 6.9375-.003906 2.871094 1.527344 5.527344 4.015625 6.957031 2.492188 1.429687 5.554688 1.414063 8.03125-.039063l8.800781-5.070312v10.144531c0 4.417969 3.582032 8 8 8 4.417969 0 8-3.582031 8-8v-10.144531l8.800782 5.070312c2.476562 1.453126 5.539062 1.46875 8.027344.039063 2.492187-1.429687 4.023437-4.085937 4.015624-6.957031-.003906-2.871094-1.546874-5.515625-4.042968-6.9375l-8.800782-5.070313 8.800782-5.074219c3.820312-2.210937 5.121094-7.105468 2.910156-10.925781zm0 0" fill="url(#h)"/><path d="m131.6875 264.488281c-2.207031-3.828125-7.101562-5.136719-10.925781-2.929687l-8.800781 5.074218v-10.144531c0-4.417969-3.582032-8-8-8-4.417969 0-8 3.582031-8 8v10.144531l-8.800782-5.074218c-3.824218-2.171875-8.683594-.851563-10.882812 2.957031-2.199219 3.808594-.910156 8.675781 2.882812 10.898437l8.816406 5.074219-8.800781 5.070313c-2.496093 1.421875-4.039062 4.066406-4.046875 6.9375-.003906 2.871094 1.527344 5.527344 4.015625 6.957031 2.492188 1.429687 5.554688 1.414063 8.03125-.039063l8.800781-5.070312v10.144531c0 4.417969 3.582032 8 8 8 4.417969 0 8-3.582031 8-8v-10.144531l8.800782 5.070312c2.476562 1.453126 5.539062 1.46875 8.027344.039063 2.492187-1.429687 4.023437-4.085937 4.015624-6.957031-.003906-2.871094-1.546874-5.515625-4.042968-6.9375l-8.800782-5.070313 8.800782-5.074219c3.820312-2.210937 5.121094-7.105468 2.910156-10.925781zm0 0" fill="url(#i)"/></svg>