<svg height="479pt" viewBox="0 -23 479.97602 479" width="479pt" xmlns="http://www.w3.org/2000/svg" xmlns:xlink="http://www.w3.org/1999/xlink"><linearGradient id="a"><stop offset="0" stop-color="#e93e3a"/><stop offset=".358" stop-color="#ed683c"/><stop offset=".7" stop-color="#f3903f"/><stop offset="1" stop-color="#fdc70c"/></linearGradient><linearGradient id="b" gradientUnits="userSpaceOnUse" x1="239.976" x2="239.976" xlink:href="#a" y1="429.968" y2="-52.576"/><linearGradient id="c" gradientUnits="userSpaceOnUse" x1="199.976" x2="199.976" xlink:href="#a" y1="429.968" y2="-52.576"/><linearGradient id="d" gradientUnits="userSpaceOnUse" x1="263.976" x2="263.976" xlink:href="#a" y1="429.968" y2="-52.576"/><linearGradient id="e" gradientUnits="userSpaceOnUse" x1="327.976" x2="327.976" xlink:href="#a" y1="429.968" y2="-52.576"/><linearGradient id="f" gradientUnits="userSpaceOnUse" x1="135.976" x2="135.976" xlink:href="#a" y1="429.968" y2="-52.576"/><linearGradient id="g" gradientUnits="userSpaceOnUse" x1="71.976" x2="71.976" xlink:href="#a" y1="429.968" y2="-52.576"/><linearGradient id="h" gradientUnits="userSpaceOnUse" x1="295.976" x2="295.976" xlink:href="#a" y1="429.968" y2="-52.576"/><linearGradient id="i" gradientUnits="userSpaceOnUse" x1="103.976" x2="103.976" xlink:href="#a" y1="429.968" y2="-52.576"/><path d="M479.922 8.113a7.336 7.336 0 0 0-.18-1.168 7.759 7.759 0 0 0-.285-1.152c-.043-.121-.043-.25-.09-.367-.101-.242-.27-.426-.39-.649a8.276 8.276 0 0 0-.625-1.043 7.893 7.893 0 0 0-.801-.855 8.75 8.75 0 0 0-.856-.8 7.53 7.53 0 0 0-1.039-.622c-.222-.121-.41-.289-.648-.395-.238-.101-.246-.046-.367-.085a6.61 6.61 0 0 0-1.067-.25 8.065 8.065 0 0 0-1.261-.192c-.122-.008-.223-.047-.336-.047h-384a8.001 8.001 0 0 0-5.657 2.344l-80 80a7.99 7.99 0 0 0-1.527 2.273 7.44 7.44 0 0 0-.266.75 7.94 7.94 0 0 0-.43 2.114c0 .176-.097.32-.097.496v336.023a8 8 0 0 0 8 8h383.977a7.793 7.793 0 0 0 3.39-.8c.278-.16.547-.34.801-.536.715-.445 1.36-1 1.902-1.64.121-.145.305-.207.418-.36l80-112a7.984 7.984 0 0 0 1.489-4.664v-304c0-.129-.047-.25-.055-.375zm-15.945 61.063l-64 64V91.8l64-64zm-448 27.312h368v48h-368zm75.312-80h361.375l-64 64H27.29zm-75.312 144h368v256h-368zm448 149.442l-64 89.597V155.801l64-64zm0 0" fill="url(#b)"/><path d="M205.656 114.809a12.915 12.915 0 0 0-1.199-.961 6.186 6.186 0 0 0-1.441-.72 5.052 5.052 0 0 0-1.442-.48 7.561 7.561 0 0 0-4.637.48 9.224 9.224 0 0 0-2.64 1.68 8.262 8.262 0 0 0-1.68 2.641 7.91 7.91 0 0 0 1.68 8.719 7.91 7.91 0 0 0 8.719 1.68 9.224 9.224 0 0 0 2.64-1.68 7.916 7.916 0 0 0 1.68-8.719 9.224 9.224 0 0 0-1.68-2.64zm0 0" fill="url(#c)"/><path d="M269.656 114.809a8.374 8.374 0 0 0-11.36 0 9.224 9.224 0 0 0-1.679 2.64 7.91 7.91 0 0 0 1.68 8.719 9.224 9.224 0 0 0 2.64 1.68 7.917 7.917 0 0 0 11.04-7.36 6.69 6.69 0 0 0-.641-3.039 9.224 9.224 0 0 0-1.68-2.64zm0 0" fill="url(#d)"/><path d="M333.656 114.809a9.224 9.224 0 0 0-2.64-1.68 7.996 7.996 0 0 0-8.72 1.68 9.224 9.224 0 0 0-1.679 2.64 7.518 7.518 0 0 0 0 6.078c.406.97.973 1.86 1.68 2.641a9.224 9.224 0 0 0 2.64 1.68 7.518 7.518 0 0 0 6.079 0 9.224 9.224 0 0 0 2.64-1.68 9.364 9.364 0 0 0 1.68-2.64 7.518 7.518 0 0 0 0-6.079 9.224 9.224 0 0 0-1.68-2.64zm0 0" fill="url(#e)"/><path d="M141.656 114.809a9.224 9.224 0 0 0-2.64-1.68 7.373 7.373 0 0 0-4.559-.48 4.728 4.728 0 0 0-1.52.48 4.52 4.52 0 0 0-1.363.719 7.644 7.644 0 0 0-1.277.96 9.224 9.224 0 0 0-1.68 2.641 7.91 7.91 0 0 0 1.68 8.719 9.224 9.224 0 0 0 2.64 1.68 7.55 7.55 0 0 0 6.079 0 9.224 9.224 0 0 0 2.64-1.68 9.364 9.364 0 0 0 1.68-2.64 7.518 7.518 0 0 0 0-6.079 8.262 8.262 0 0 0-1.68-2.64zm0 0" fill="url(#f)"/><path d="M77.656 114.809a12.915 12.915 0 0 0-1.199-.961 6.186 6.186 0 0 0-1.441-.72 5.052 5.052 0 0 0-1.442-.48 8.067 8.067 0 0 0-7.277 2.16 9.224 9.224 0 0 0-1.68 2.641 6.69 6.69 0 0 0-.64 3.04 7.897 7.897 0 0 0 2.32 5.679 9.224 9.224 0 0 0 2.64 1.68 7.55 7.55 0 0 0 6.079 0 9.224 9.224 0 0 0 2.64-1.68 7.929 7.929 0 0 0 2.32-5.68 6.69 6.69 0 0 0-.64-3.039 9.224 9.224 0 0 0-1.68-2.64zm0 0" fill="url(#g)"/><path d="M227.688 264.488a8 8 0 0 0-10.926-2.93l-8.801 5.075v-10.145a8 8 0 0 0-16 0v10.145l-8.8-5.074a8.003 8.003 0 0 0-10.884 2.957 7.996 7.996 0 0 0 2.883 10.898l8.817 5.074-8.801 5.07a8.007 8.007 0 0 0-4.047 6.938 7.999 7.999 0 1 0 12.047 6.918l8.8-5.07v10.144a8 8 0 0 0 16 0v-10.144l8.801 5.07a7.994 7.994 0 0 0 12.043-6.918 7.995 7.995 0 0 0-4.043-6.937l-8.8-5.07 8.8-5.075c3.82-2.21 5.121-7.105 2.91-10.926zm0 0" fill="url(#c)"/><path d="M323.688 264.488a8 8 0 0 0-10.926-2.93l-8.801 5.075v-10.145a8 8 0 0 0-16 0v10.145l-8.8-5.074a8.003 8.003 0 0 0-10.884 2.957 7.996 7.996 0 0 0 2.883 10.898l8.817 5.074-8.801 5.07a8.007 8.007 0 0 0-4.047 6.938 7.999 7.999 0 1 0 12.047 6.918l8.8-5.07v10.144a8 8 0 0 0 16 0v-10.144l8.801 5.07a7.994 7.994 0 0 0 12.043-6.918 7.995 7.995 0 0 0-4.043-6.937l-8.8-5.07 8.8-5.075c3.82-2.21 5.121-7.105 2.91-10.926zm0 0" fill="url(#h)"/><path d="M131.688 264.488a8 8 0 0 0-10.926-2.93l-8.801 5.075v-10.145a8 8 0 0 0-16 0v10.145l-8.8-5.074a8.003 8.003 0 0 0-10.884 2.957 7.996 7.996 0 0 0 2.883 10.898l8.817 5.074-8.801 5.07a8.007 8.007 0 0 0-4.047 6.938 7.999 7.999 0 1 0 12.047 6.918l8.8-5.07v10.144a8 8 0 0 0 16 0v-10.144l8.801 5.07a7.994 7.994 0 0 0 12.043-6.918 7.995 7.995 0 0 0-4.043-6.937l-8.8-5.07 8.8-5.075c3.82-2.21 5.121-7.105 2.91-10.926zm0 0" fill="url(#i)"/></svg>