<svg xmlns="http://www.w3.org/2000/svg" viewBox="0 0 512.002 512.002" width="512" height="512"><path d="M128.497 336.827c-4.499-3.802-11.228-3.237-15.033 1.262a190.575 190.575 0 0 0-4.317 5.299c-3.638 4.634-2.831 11.339 1.803 14.976a10.611 10.611 0 0 0 6.579 2.277c3.163 0 6.292-1.401 8.397-4.08a167.643 167.643 0 0 1 3.831-4.701c3.803-4.5 3.239-11.23-1.26-15.033zM325.299 127.788a10.621 10.621 0 0 0 7.016 2.636c2.971 0 5.928-1.234 8.035-3.647a67.832 67.832 0 0 0 3.99-5.001c3.442-4.78 2.359-11.446-2.421-14.89-4.782-3.443-11.448-2.358-14.89 2.421a47.24 47.24 0 0 1-2.742 3.429c-3.877 4.438-3.423 11.176 1.012 15.052z"/><path d="M501.334 447.995H485.08c-1.812-39.245-13.6-77.268-34.378-110.568a230.163 230.163 0 0 0-81.219-78.058c1.372-3.602 2.658-7.61 3.891-12.111h21.99c20.007 0 36.283-16.277 36.283-36.284v-33.613c0-20.006-16.276-36.283-36.283-36.283h-3.785c.926-14.488.416-28.445-2.935-39.659-9.25-30.97-26.802-56.812-50.762-74.733C314.543 9.229 286.228.001 256.001 0c-30.226 0-58.541 9.228-81.883 26.688-23.957 17.921-41.512 43.761-50.764 74.732-3.35 11.214-3.859 25.171-2.933 39.66h-3.782c-20.007 0-36.283 16.276-36.283 36.283v33.613c0 20.007 16.276 36.284 36.283 36.284h21.988c1.233 4.502 2.52 8.509 3.89 12.111a230.153 230.153 0 0 0-81.218 78.059c-20.778 33.302-32.564 71.322-34.378 110.567H10.669c-5.891 0-10.667 4.777-10.667 10.667s4.776 10.667 10.667 10.667h96.596l10.52 35.067a10.667 10.667 0 0 0 10.217 7.601h209.926c.017 0 .032.003.048.003l.075-.003H384c4.71 0 8.864-3.09 10.217-7.601l10.52-35.067H501.334c5.891 0 10.667-4.777 10.667-10.667 0-5.892-4.775-10.669-10.667-10.669zM380.768 211.324c.56-3.404 1.405-7.806 2.382-12.904 2.017-10.512 4.419-23.041 6.211-36.007h6.004v-.001c8.243 0 14.949 6.706 14.949 14.949v33.613c0 8.244-6.706 14.951-14.949 14.951H378.19c.86-4.506 1.714-9.354 2.578-14.601zm-264.129 14.6v.001c-8.243 0-14.949-6.706-14.949-14.951v-33.613c0-8.243 6.706-14.949 14.949-14.949h6.002c1.792 12.959 4.193 25.485 6.208 35.992.978 5.103 1.824 9.51 2.384 12.918a589.858 589.858 0 0 0 2.578 14.602h-17.172zm25.08-86.162c-.807-12.25-.47-23.712 2.077-32.236C159.679 54.361 202.672 21.333 256 21.333c53.332.002 96.326 33.03 112.203 86.194 3.194 10.688 2.919 25.987 1.264 41.675a10.622 10.622 0 0 0-.318 2.544c0 .077.011.153.012.228-1.764 15.31-4.723 30.751-6.962 42.426-1.006 5.245-1.875 9.775-2.481 13.457-1.487 9.032-2.882 16.655-4.285 23.172-15.733 14.299-42.51 24.087-69.696 26.406-.771-5.134-5.187-9.074-10.536-9.074H256c-5.89 0-10.667 4.777-10.667 10.667v8.533c0 .115.014.227.018.34.006.213.013.427.031.638.014.148.036.292.057.439.027.203.054.405.092.604.031.159.07.316.109.473.044.178.085.356.138.532.05.171.109.336.169.503.054.156.108.314.171.467.068.173.148.34.227.51.067.142.131.285.203.422.086.165.182.327.277.487.08.134.158.27.243.401.1.151.206.298.313.444.096.132.192.264.293.393.107.133.219.26.332.387.115.131.231.262.353.388.11.114.226.222.341.331.135.128.271.255.413.375.115.098.237.19.355.284.153.117.303.235.461.344.125.086.254.166.383.247.16.102.321.204.487.295.141.079.286.151.431.223.16.081.321.162.487.236.164.071.334.135.505.201.153.058.304.117.462.169.191.063.385.113.58.165.146.038.289.079.437.112.204.045.413.077.621.111.115.018.225.046.34.061.067.008.135.014.203.021l.079.01a150.12 150.12 0 0 0 18.514 1.126c24.068 0 48.73-5.447 69.066-14.911-5.082 6.342-11.688 10.548-21.194 16.594-3.97 2.525-8.46 5.38-13.457 8.762-17.228 9.885-34.68 14.895-51.877 14.895-17.194 0-34.643-5.009-51.866-14.889-4.997-3.381-9.486-6.237-13.456-8.763-18.938-12.047-26.379-16.781-33.147-45.683a10.592 10.592 0 0 0-.492-2.153c-1.561-6.966-3.1-15.265-4.751-25.295-.606-3.685-1.476-8.221-2.483-13.472-1.796-9.372-4.059-21.174-5.794-33.385 19.584-2.734 61.573-9.824 89.863-23.396l7.005 16.807c.716 1.719 1.309 3.231 1.826 4.549 2.357 6 4.583 11.667 11.252 13.915a14.44 14.44 0 0 0 4.705.777c3.73 0 7.665-1.344 13.119-3.206 1.499-.513 3.189-1.09 5.097-1.719 7.397-2.439 22.243-9.801 36.305-19.149 4.906-3.262 6.238-9.883 2.976-14.788-3.263-4.907-9.884-6.237-14.788-2.976-13.119 8.722-26.127 14.99-31.179 16.655-1.989.657-3.747 1.258-5.307 1.79-.778.266-1.586.542-2.364.803-.555-1.411-1.188-3.023-1.951-4.853l-11.586-27.8a10.667 10.667 0 0 0-15.673-4.831c-23.073 15.048-70.397 23.174-91.588 26.184zm244.903 315.714a.226.226 0 0 1-.011.037l-10.546 35.15h-24.196l4.441-16.576c1.525-5.691-1.852-11.539-7.542-13.064-5.694-1.526-11.54 1.853-13.064 7.542l-5.92 22.097H135.939l-10.524-35.078c-.016-.053-.03-.106-.047-.158l-15.031-50.097h23.512l5.92 22.096c1.277 4.766 5.586 7.909 10.297 7.909.913 0 1.843-.118 2.767-.367 5.691-1.524 9.068-7.373 7.542-13.064l-4.441-16.575h245.732l-15.044 50.148zm24.518-7.481l15.081-50.266a10.669 10.669 0 0 0-10.217-13.733H96.002a10.667 10.667 0 0 0-10.217 13.733l15.081 50.266H48.271c3.579-71.001 42.769-134.694 104.613-169.987 4.619 5.669 10.165 10.182 17.119 14.945a187.7 187.7 0 0 0-29.485 19.017c-4.628 3.646-5.425 10.352-1.78 14.98a10.65 10.65 0 0 0 8.387 4.067c2.309 0 4.637-.747 6.593-2.287a166.368 166.368 0 0 1 26.987-17.306l9.878-5.067c.633.423 1.252.832 1.899 1.27l.654.411c20.615 11.9 41.762 17.935 62.859 17.935h.002c21.097 0 42.249-6.036 62.867-17.94l.653-.41c4.869-3.302 9.327-6.138 13.261-8.639 11.505-7.316 19.841-13.002 26.337-20.977 61.846 35.294 101.037 98.987 104.616 169.987H411.14z"/><path d="M156.003 446.808c-5.691 1.526-9.066 7.376-7.54 13.066l1.246 4.645c1.278 4.765 5.587 7.907 10.297 7.907.914 0 1.844-.118 2.769-.367 5.691-1.526 9.066-7.376 7.54-13.066l-1.246-4.645c-1.526-5.688-7.369-9.064-13.066-7.54zM351.935 449.181c.925.249 1.855.368 2.77.368 4.708 0 9.018-3.141 10.296-7.906l1.246-4.644c1.528-5.689-1.847-11.539-7.538-13.066-5.688-1.53-11.538 1.849-13.066 7.538l-1.246 4.644c-1.528 5.69 1.847 11.54 7.538 13.066z"/></svg>