<svg xmlns="http://www.w3.org/2000/svg" viewBox="0 0 512 512" width="512" height="512"><path d="M479.42 249.29l-60-120c-2.905-5.098-6.983-8.29-13.42-8.29H106c-6.272 0-10.466 3.112-13.42 8.29l-60 120c-2.778 5.9-1.827 11.829 2.11 16.56l210 241A15 15 0 0 0 256 512a15 15 0 0 0 11.31-5.15l210-241c3.912-4.707 4.905-10.629 2.11-16.56zM381.73 151l-38.29 76.58L286 151h95.73zM316 241H196l60-80 60 80zm-90-90l-57.44 76.58L130.27 151H226zm-120 18.54L141.73 241H70.27L106 169.54zM78.97 271h77.12l73.95 173.38L78.97 271zM256 428.77L188.71 271h134.58L256 428.77zm25.96 15.61L355.91 271h77.12L281.96 444.38zM370.27 241L406 169.54 441.73 241h-71.46zM256 0c-8.284 0-15 6.716-15 15v31c0 8.284 6.716 15 15 15s15-6.716 15-15V15c0-8.284-6.716-15-15-15zM192.36 66.147l-21.213-21.213c-5.857-5.858-15.355-5.858-21.213 0-5.858 5.858-5.858 15.355 0 21.213l21.213 21.213c5.857 5.858 15.356 5.859 21.213 0 5.858-5.858 5.858-15.355 0-21.213zM362.065 44.934c-5.857-5.858-15.355-5.858-21.213 0l-21.213 21.213c-5.858 5.858-5.858 15.355 0 21.213 5.857 5.858 15.356 5.859 21.213 0l21.213-21.213c5.858-5.858 5.858-15.355 0-21.213z" fill="#1e1e1e"/></svg>