<svg xmlns="http://www.w3.org/2000/svg" viewBox="0 0 369 369" width="512" height="512"><g fill="#FFF"><path d="M362.489 121.053c-2.231 0-3.905 1.168-4.52 1.67l-108.411 95.261c-2.106 1.896-4.741 2.898-7.62 2.898-2.887 0-5.62-1.026-7.741-2.932l-105.114-92.071c-.88-.834-2.961-2.486-5.605-2.486-.663 0-6.477.227-6.477 8.069v141.345c0 9.205 7.426 16.694 16.555 16.694h219.197c9.111 0 16.248-7.333 16.248-16.694V129.274c-.001-7.99-5.846-8.221-6.512-8.221z"/><path d="M126.985 92.471l105.779 91.261c.979.942 4.235 3.666 9.171 3.666 4.717 0 8.056-2.702 8.68-3.245l107.028-93.376.134-.121c1.456-1.366 4.485-4.208 3.043-7.855-.794-2.005-2.734-3.3-4.945-3.3H130.431c-2.709 0-5.115 1.539-6.132 3.921-.688 1.614-1.277 4.914 2.522 8.878l.164.171zM80 134.5H50c-5.514 0-10 4.486-10 10v7c0 5.514 4.486 10 10 10h30c5.514 0 10-4.486 10-10v-7c0-5.514-4.486-10-10-10zM80 178.5H30c-5.514 0-10 4.486-10 10v7c0 5.514 4.486 10 10 10h50c5.514 0 10-4.486 10-10v-7c0-5.514-4.486-10-10-10zM80 222.5H10c-5.514 0-10 4.486-10 10v7c0 5.514 4.486 10 10 10h70c5.514 0 10-4.486 10-10v-7c0-5.514-4.486-10-10-10z"/></g></svg>