<svg id="Слой_1" xmlns="http://www.w3.org/2000/svg" viewBox="0 0 512 512"><style>.st0{fill:url(#SVGID_1_)}.st1{fill:url(#SVGID_2_)}</style><linearGradient id="SVGID_1_" gradientUnits="userSpaceOnUse" x1="221.091" y1="186.182" x2="290.909" y2="186.182"><stop offset=".001" stop-color="#ea5037"/><stop offset="1" stop-color="#febd00"/></linearGradient><circle class="st0" cx="256" cy="186.2" r="34.9"/><linearGradient id="SVGID_2_" gradientUnits="userSpaceOnUse" y1="256" x2="512" y2="256"><stop offset=".001" stop-color="#ea5037"/><stop offset="1" stop-color="#febd00"/></linearGradient><path class="st1" d="M256 0C114 0 0 114 0 256s114 256 256 256 256-114 256-256S398 0 256 0zm116.4 407.3h-23.3c-7 0-11.6-4.7-11.6-11.6 0-80.3-11.6-104.7-81.5-104.7s-81.5 24.4-81.5 104.7c0 7-4.7 11.6-11.6 11.6h-23.3c-7 0-11.6-4.7-11.6-11.6 0-60.5 7-119.9 68.7-142 3.5-1.2 4.7-4.7 3.5-7 0-1.2-1.2-1.2-1.2-2.3-15.1-15.1-24.4-34.9-24.4-57 0-45.4 36.1-81.5 81.5-81.5s81.5 36.1 81.5 81.5c0 22.1-9.3 43.1-24.4 57-1.2 1.2-1.2 1.2-1.2 2.3-1.2 3.5 0 5.8 3.5 7 61.7 22.1 68.7 81.5 68.7 142-.2 6.9-4.9 11.6-11.8 11.6z"/></svg>