<svg id="Слой_1" xmlns="http://www.w3.org/2000/svg" viewBox="0 0 512 512"><style>.st0{fill:#f67235}</style><title>1</title><path class="st0" d="M200.6 234l-30.7 76.7c-1.7 4.2.4 9 4.7 10.7 2.5 1 5.3.7 7.6-.8l69.7-46.5 69.7 46.5c3.8 2.5 8.9 1.5 11.4-2.3 1.5-2.2 1.8-5.1.8-7.6L303.2 234l61-45.8c3.6-2.7 4.4-7.9 1.6-11.6-1.6-2.1-4-3.3-6.6-3.3h-75.9l-23.6-68.8c-1.5-4.3-6.2-6.6-10.5-5.1-2.4.8-4.3 2.8-5.2 5.2l-22.9 68.7h-76.6c-4.6 0-8.3 3.7-8.3 8.2 0 2.6 1.2 5.1 3.3 6.6l61.1 45.9zm26.5-44.1c3.6 0 6.7-2.3 7.8-5.6l17.1-51.2 17.6 51.2c1.1 3.3 4.3 5.6 7.8 5.6h57l-46.2 34.7c-3 2.2-4.1 6.2-2.7 9.7l23.2 57.9-52.2-34.8c-2.8-1.9-6.4-1.9-9.2 0l-52.2 34.8 23.2-57.9c1.4-3.4.2-7.4-2.7-9.6L169.4 190l57.7-.1z"/><path class="st0" d="M408.8 0H103.2C98.7 0 95 3.7 95 8.3v495.5c0 4.6 3.7 8.3 8.3 8.3 2 0 4-.7 5.5-2.1L252 382.5 403.5 510c3.5 2.9 8.7 2.4 11.6-1.1 1.2-1.5 1.9-3.3 1.9-5.2V8.3c0-4.6-3.7-8.3-8.2-8.3zm-8.3 486L257.2 365.3c-3.1-2.6-7.7-2.6-10.8.1L111.5 485.3V16.5h289V486z"/></svg>