<svg id="Слой_1" data-name="Слой 1" xmlns="http://www.w3.org/2000/svg" viewBox="0 0 512 512"><defs><style>.cls-1{fill:#f67235}.cls-2{fill:#fff}</style></defs><title>1</title><path class="cls-1" d="M200.57 234l-30.68 76.7a8.26 8.26 0 0 0 12.25 9.91l69.74-46.47 69.74 46.49a8.26 8.26 0 0 0 12.25-9.91L303.18 234l61-45.75a8.26 8.26 0 0 0-5-14.86H283.3l-23.61-68.75a8.24 8.24 0 0 0-15.62.08l-22.92 68.67h-76.63a8.26 8.26 0 0 0-5 14.86zm26.53-44.1a8.26 8.26 0 0 0 7.84-5.65L252 133.09l17.6 51.2a8.26 8.26 0 0 0 7.81 5.58h57.05l-46.25 34.68a8.26 8.26 0 0 0-2.71 9.68l23.16 57.89-52.2-34.8a8.24 8.24 0 0 0-9.17 0l-52.2 34.8 23.16-57.89a8.25 8.25 0 0 0-2.72-9.6l-46.23-34.7z"/><path class="cls-2" d="M408.78 0H103.23A8.26 8.26 0 0 0 95 8.26v495.47a8.26 8.26 0 0 0 13.75 6.18L252 382.52l151.46 127.53a8.26 8.26 0 0 0 13.54-6.32V8.26A8.26 8.26 0 0 0 408.78 0zm-8.26 486L257.2 365.29a8.26 8.26 0 0 0-10.81.14l-134.9 119.91V16.52h289z"/></svg>