<svg xmlns="http://www.w3.org/2000/svg" height="512" viewBox="-48 0 512 512" width="512"><g stroke="#000"><path d="M194.352 249.36l-22.61 45.816-50.562 7.347a14.992 14.992 0 0 0-12.11 10.207 15.007 15.007 0 0 0 3.793 15.38l36.586 35.66-8.637 50.359a15.003 15.003 0 1 0 21.766 15.816l45.223-23.777 45.222 23.777a15.013 15.013 0 0 0 6.98 1.723h.044c8.273-.012 14.976-6.723 14.976-15 0-1.152-.128-2.273-.375-3.352l-8.496-49.546 36.586-35.66a15.001 15.001 0 0 0-8.312-25.587l-50.563-7.343-22.61-45.82a15.004 15.004 0 0 0-26.901 0zm26.101 66.167a14.994 14.994 0 0 0 11.293 8.203l28.29 4.11-20.47 19.953a15.008 15.008 0 0 0-4.316 13.277l4.836 28.176-25.3-13.305a15.016 15.016 0 0 0-13.962 0l-25.304 13.305 4.835-28.176a15.008 15.008 0 0 0-4.316-13.277L155.57 327.84l28.29-4.11a14.988 14.988 0 0 0 11.292-8.203l12.653-25.632zm0 0"/><path d="M360.434 80.336h-63.399a54.808 54.808 0 0 0 6.102-25.168C303.137 24.746 278.387 0 247.969 0c-15.82 0-30.098 6.703-40.168 17.41C197.734 6.703 183.457 0 167.637 0c-30.422 0-55.168 24.746-55.168 55.168 0 9.062 2.21 17.613 6.101 25.168H55.168C24.746 80.336 0 105.082 0 135.5v40.164c0 8.285 6.715 15 15 15h1.066v266.168c0 30.422 24.747 55.168 55.168 55.168h273.133c30.418 0 55.168-24.746 55.168-55.168V190.664h1.067c8.285 0 15-6.715 15-15V135.5c0-30.418-24.747-55.164-55.168-55.164zm25.168 55.164v25.164H222.8v-50.328h137.633c13.878 0 25.168 11.289 25.168 25.164zM247.969 30c13.875 0 25.168 11.29 25.168 25.168 0 13.879-11.293 25.168-25.168 25.168H222.8V55.168C222.8 41.289 234.09 30 247.969 30zm-105.5 25.168c0-13.879 11.289-25.168 25.168-25.168 13.875 0 25.164 11.29 25.164 25.168v25.168h-25.164c-13.88 0-25.168-11.29-25.168-25.168zM30 135.5c0-13.875 11.29-25.164 25.168-25.164h137.633v50.328H30zm339.535 321.332c0 13.879-11.293 25.168-25.168 25.168H71.234c-13.875 0-25.168-11.29-25.168-25.168V190.664h323.47zm0 0"/></g></svg>