<svg xmlns="http://www.w3.org/2000/svg" height="512" viewBox="1 -7 512 511" width="512"><g stroke="#dc3e2a" fill="#dc3e2a"><path d="M191.797 443.332c9 0 16.336-7.297 16.336-16.336 0-8.984-7.278-16.344-16.336-16.344-9.102 0-16.344 7.395-16.344 16.344 0 9.059 7.36 16.336 16.344 16.336zm176.426 0c9.023 0 16.336-7.312 16.336-16.336 0-9.023-7.313-16.344-16.336-16.344-8.965 0-16.336 7.278-16.336 16.344 0 9.035 7.34 16.336 16.336 16.336zm0 0"/><path d="M417.137.5c-52.305 0-94.856 42.55-94.856 94.863a94.486 94.486 0 0 0 5.727 32.477l-198.375.012-5.235-24.418c-6.441-30.098-33.464-51.942-64.242-51.942H15.363C6.883 51.492 0 58.375 0 66.852c0 8.492 6.883 15.363 15.363 15.363h44.793c16.387 0 30.778 11.633 34.207 27.652l55.977 261.254c-17.07 12.688-28.153 33.016-28.153 55.875 0 38.383 31.227 69.61 69.61 69.61 33.11 0 60.887-23.227 67.898-54.247h40.63c7.015 31.02 34.788 54.246 67.898 54.246 38.386 0 69.609-31.226 69.609-69.609 0-38.383-31.223-69.61-69.61-69.61-33.109 0-60.882 23.227-67.898 54.247h-40.629c-8.191-36.23-43.746-59.945-80.636-53.078l-4.528-21.168h233.86a15.36 15.36 0 0 0 15.023-12.149l30.52-142.445C488.024 168.395 512 134.629 512 95.363 512 43.051 469.45.5 417.137.5zm-225.34 387.61c21.504 0 38.887 17.511 38.887 38.886 0 21.344-17.356 38.887-38.887 38.887-21.445 0-38.887-17.453-38.887-38.887 0-21.387 17.403-38.887 38.887-38.887zm137.539 38.886c0-21.539 17.527-38.887 38.887-38.887 21.445 0 38.886 17.442 38.886 38.887 0 21.434-17.441 38.887-38.886 38.887-21.504 0-38.887-17.512-38.887-38.887zm87.805-268.422c-53.48 0-64.137-47.097-64.137-63.21 0-35.364 28.77-64.141 64.133-64.141s64.14 28.777 64.14 64.14c0 29.938-22.207 63.211-64.136 63.211zM316.578 306.652h-69.242l-5.316-64.285h79.87zm-77.098-95.007l-4.382-53.07h93.718l-4.382 53.07zm-35.207-53.07l4.383 53.07h-61.07l-11.367-53.07zM167.945 306.66l-13.773-64.293h57.023l5.317 64.293zm228.032 0h-48.575l5.317-64.293h57.031zm20.359-95.015h-61.078l3.441-41.61c18.36 14.395 40.953 21.14 62.246 20.102zm0 0"/><path d="M454.938 80.004h-22.442V57.562c0-8.488-6.871-15.359-15.36-15.359-8.48 0-15.363 6.871-15.363 15.36v22.44h-22.43c-8.488 0-15.359 6.872-15.359 15.36 0 8.48 6.871 15.364 15.36 15.364h22.43v22.43c0 8.488 6.882 15.359 15.363 15.359 8.488 0 15.36-6.871 15.36-15.36v-22.43h22.44c8.489 0 15.36-6.882 15.36-15.363 0-8.488-6.871-15.36-15.36-15.36zm0 0"/></g></svg>