<svg width="22" height="21" viewBox="0 0 22 21" fill="none" xmlns="http://www.w3.org/2000/svg"><path d="M21.964 6.1C21.642 2.564 19.14 0 16.01 0c-2.086 0-3.996 1.123-5.07 2.922C9.873 1.1 8.042 0 5.99 0 2.86 0 .357 2.564.037 6.099c-.026.156-.13.978.187 2.318.456 1.933 1.51 3.69 3.046 5.082l7.664 6.956L18.73 13.5c1.537-1.393 2.59-3.15 3.046-5.083.317-1.34.213-2.161.188-2.318zm-1.012 2.123c-.416 1.765-1.381 3.373-2.788 4.648l-7.225 6.446-7.1-6.444c-1.41-1.277-2.375-2.885-2.791-4.65C.748 6.955.87 6.238.87 6.233l.007-.042C1.153 3.094 3.303.846 5.99.846c1.983 0 3.729 1.219 4.557 3.18l.39.923.39-.923c.815-1.931 2.653-3.18 4.683-3.18 2.687 0 4.837 2.249 5.118 5.385 0 .007.124.724-.176 1.992z" fill="#DC3E2A"/></svg>