<svg width="105" height="55" viewBox="0 0 105 55" fill="none" xmlns="http://www.w3.org/2000/svg"><g clip-path="url(#clip0)" fill="#EA882D"><path d="M30.681 5.293C20.273 3.999 5.84 5.736 1.353 16.978-.527 21.66-.934 28.308 3.34 32.032c5.018 4.362 11.632 3.493 17.838 3.742.142 2.855.993 5.886 1.862 8.546.301.94 1.4.975 1.95.248 1.1-1.453 1.578-3.333 2.04-5.071.23-.886.868-2.27.815-3.316.124 0 .23 0 .373-.053 8.333-3.068 20.249-.07 21.667-11.791C51.25 13.184 40.274 6.48 30.681 5.293zm16.047 22.625c-2.606 5.887-13.92 4.079-19.097 6.047-.55.213-.762.71-.744 1.17-1.295.23-1.437 1.844-1.703 2.926-.248.975-.478 2.004-.815 2.996-.568-2.27-1.046-4.574-1.968-6.667-.213-.478-.799-.39-1.082-.053-3.6-.833-7.093-.886-10.745-1.4-10.834-1.49-9.239-13.423-4.203-19.47 5.763-6.915 17.466-7.11 25.57-5.745 9.202 1.56 19.415 9.735 14.787 20.196z"/><path d="M16.017 16.18c-.284-.762-1.312-.993-1.773-.23-.887 1.471-.638 3.812-.727 5.46-.053.905-.124 1.88-.177 2.856-.905.142-1.791.212-2.713.283 0-.727-.018-1.454-.018-2.18 0-1.189.053-2.394.106-3.582.018-.515.071-1.029.16-1.543.142-.762.32-.55-.16-.32.603-.3.639-1.347 0-1.648-3.776-1.703-2.198 11.933-2.074 13.653.088 1.241 1.862 1.241 1.915 0 .053-.904.053-1.791.053-2.695.886.053 1.79.07 2.695.035.036.976.16 1.915.444 2.784.106.337.39.691.762.763.372.07.78.053 1.082-.178.212-.16.23-.39.141-.55.195-.69.054-1.383.018-2.163-.035-1.507.018-3.032.089-4.539.142-1.862.85-4.433.177-6.206zm6.171.177c-.018-.035-.053-.07-.071-.106-.302-.408-.639-.514-1.117-.461-.568.07-1.153.089-1.738.124-.284-.16-.692-.07-.833.248-.266.23-.32.62-.195.922-.639 3.99-.692 8.175-.727 12.182 0 .656.514 1.046 1.099 1.1 1.507.159 3.51-.125 3.387-2.075-.036-.603-.656-1.029-1.224-.71-.425.248-.71.426-1.028.515.018-.71.035-1.419.07-2.128.249.035.497.053.728.088.496.071.833-.053 1.134-.46l.018-.019c.178-.23.178-.727 0-.957l-.017-.018c-.302-.39-.639-.532-1.135-.46a7.787 7.787 0 0 1-.674.07c.07-2.216.088-4.433-.16-6.596.426.018.87.036 1.277.107.479.07.833-.054 1.117-.461.018-.036.053-.071.071-.107.16-.195.16-.585.018-.798zm5.355 10.993c-.461-.14-.94-.212-1.419-.3a104.08 104.08 0 0 0-.71-10.285.719.719 0 0 0-1.435 0c-.408 3.706-.107 7.518-.107 11.224 0 .514.355.958.834 1.1.957.265 1.844.478 2.819.195.993-.284.958-1.65.018-1.933zm5.017.763c-.23.107-.425.249-.62.337.018-3.865.124-7.784-.798-11.56-.177-.745-1.348-.586-1.33.177.124 4.184-.07 8.334-.142 12.518 0 .532.355.922.834 1.1 1.418.531 2.748.23 3.387-1.242.39-.886-.39-1.773-1.33-1.33zm6.58-10.621c-.693-.94-2.129-.354-2.093.568h-.107c-.496-.018-.727.425-.94.78-.691 1.188-1.028 2.695-1.347 4.007-.514 2.11-1.117 5.639 1.152 6.95 2.625 1.526 4.362-1.914 4.646-3.918.373-2.482.248-6.277-1.312-8.387zm-1.047 8.937c-.107.443-.833 2.021-1.383 1.152-.887-1.418.018-4.29.355-5.762a54.34 54.34 0 0 1 .585-2.288c0-.017 0-.035.017-.053.497 1.241.621 2.748.674 3.99.053.975-.017 1.986-.248 2.96z"/></g><path d="M37.719 44.085h-5.546v4.535h6.442V50h-8.13V37.203h8.042v1.389h-6.354v4.113h5.546v1.38zm7.172-1.978l3.067-4.904h1.986l-4.043 6.346L50.041 50h-2.004l-3.146-4.992L41.727 50H39.73l4.149-6.451-4.052-6.346h1.978l3.085 4.904zm8.797 2.883V50h-1.687V37.203h4.72c1.4 0 2.496.357 3.287 1.072.797.715 1.195 1.662 1.195 2.84 0 1.241-.39 2.2-1.169 2.873-.773.668-1.884 1.002-3.33 1.002h-3.016zm0-1.38h3.033c.902 0 1.594-.21 2.074-.633.48-.427.72-1.042.72-1.845 0-.762-.24-1.371-.72-1.828-.48-.457-1.14-.695-1.978-.712h-3.129v5.018zm14.362 1.213h-3.006V50h-1.696V37.203h4.236c1.441 0 2.549.328 3.322.984.78.657 1.17 1.612 1.17 2.866 0 .797-.218 1.49-.651 2.083-.428.591-1.026 1.034-1.793 1.327l3.006 5.431V50h-1.81l-2.778-5.177zm-3.006-1.38h2.593c.838 0 1.503-.216 1.995-.65.498-.434.747-1.014.747-1.74 0-.791-.237-1.398-.712-1.82-.469-.421-1.148-.635-2.04-.641h-2.583v4.851zm16.638.642h-5.546v4.535h6.442V50h-8.13V37.203h8.042v1.389h-6.354v4.113h5.546v1.38zm6.767.21c-1.447-.415-2.502-.925-3.164-1.528-.656-.61-.984-1.36-.984-2.25 0-1.008.401-1.84 1.204-2.497.809-.662 1.857-.993 3.146-.993.88 0 1.662.17 2.347.51.691.34 1.225.809 1.6 1.406.38.598.57 1.251.57 1.96h-1.695c0-.773-.246-1.38-.739-1.819-.492-.445-1.186-.668-2.083-.668-.832 0-1.482.185-1.95.554-.464.363-.695.87-.695 1.52 0 .522.22.964.659 1.327.445.358 1.198.686 2.259.985 1.066.299 1.898.63 2.496.993.603.357 1.049.776 1.336 1.257.293.48.44 1.046.44 1.696 0 1.037-.405 1.87-1.214 2.496-.808.621-1.89.932-3.243.932a6.06 6.06 0 0 1-2.46-.501c-.762-.34-1.351-.803-1.767-1.389a3.395 3.395 0 0 1-.615-1.995h1.696c0 .774.284 1.386.852 1.837.575.445 1.34.668 2.294.668.89 0 1.573-.182 2.048-.545.475-.363.712-.858.712-1.485 0-.627-.22-1.11-.66-1.45-.439-.346-1.236-.686-2.39-1.02zm10.688 0c-1.448-.415-2.502-.925-3.164-1.528-.657-.61-.985-1.36-.985-2.25 0-1.008.402-1.84 1.204-2.497.809-.662 1.858-.993 3.147-.993.879 0 1.661.17 2.347.51.691.34 1.224.809 1.599 1.406.381.598.571 1.251.571 1.96h-1.696c0-.773-.246-1.38-.738-1.819-.492-.445-1.187-.668-2.083-.668-.832 0-1.483.185-1.951.554-.463.363-.695.87-.695 1.52 0 .522.22.964.66 1.327.445.358 1.198.686 2.258.985 1.067.299 1.899.63 2.496.993.604.357 1.049.776 1.336 1.257.293.48.44 1.046.44 1.696 0 1.037-.404 1.87-1.213 2.496-.809.621-1.89.932-3.243.932a6.06 6.06 0 0 1-2.461-.501c-.762-.34-1.35-.803-1.767-1.389a3.395 3.395 0 0 1-.615-1.995h1.696c0 .774.284 1.386.853 1.837.574.445 1.339.668 2.294.668.89 0 1.573-.182 2.048-.545.474-.363.712-.858.712-1.485 0-.627-.22-1.11-.66-1.45-.439-.346-1.236-.686-2.39-1.02z" fill="#DC3E2A"/><defs><clipPath id="clip0"><path fill="#fff" d="M0 0h50v50H0z"/></clipPath></defs></svg>