<svg xmlns="http://www.w3.org/2000/svg" width="1000mm" height="1000mm" viewBox="0 0 1000 1000"><path d="M336.989 937.505c7.31-38.732 2.176-75.138-15.349-108.817-15.62-30.02-22.014-67.724-15.715-92.666 6.554-25.95 3.461-42.053-8.076-42.053-10.283 0-18.696-15.087-18.696-33.527s-6.555-33.527-14.567-33.527c-29.851 0-109.648-94.945-147.933-176.015-48.544-102.796-50.863-206.306-6.558-292.616 86.22-167.96 296.276-199.243 417.386-62.159 42.87 48.526 55.32 53.273 125.23 47.747 95.685-7.563 164.47 25.174 228.586 108.792 40.966 53.427 47.154 76.306 46.481 171.843-.912 129.322-40.893 219.353-133.17 299.873-33.017 28.81-60.03 63.927-60.03 78.039 0 14.111-11.241 25.657-24.98 25.657-33.987 0-49.846 72.361-25.69 117.218 25.984 48.253 4.255 68.044-27.717 25.244-14.229-19.047-22.373-57.005-18.876-87.981 4.229-37.456-.928-54.481-16.503-54.481-12.46 0-20.423-10.01-17.697-22.243 2.725-12.234-22.256-48.066-55.514-79.626-33.26-31.561-68.58-72.114-78.49-90.118-14.99-27.236-22.374-29.142-43.948-11.347-14.263 11.763-21.776 32.152-16.696 45.307 5.585 14.465-1.244 23.92-17.277 23.92-48.88 0-65.85 61.12-34.941 125.853 29.616 62.025 21.675 175.888-12.267 175.888-11.386 0-13.951-21.347-6.993-58.205zm359.285-153.084c-5.605-5.57-20.153-6.166-32.33-1.323-13.455 5.351-9.458 9.323 10.192 10.128 17.78.727 27.743-3.234 22.138-8.805zm97.252-112.8c110.729-114.85 139.486-281.611 67.413-390.929-41.39-62.778-126.445-107.789-193.832-102.575l-59.036 4.568-9.435 120.424c-7.454 95.14-20.35 137.875-61.418 203.532-51.865 82.918-51.912 83.216-20.713 130.483 85.24 129.138 174.998 140.315 277.02 34.496zm-228.342-22.935c-71.69-81.146-38.748-91.167 40.568-12.341 68.316 67.895 71.616 74.387 37.801 74.387-12.954 0-48.22-27.92-78.37-62.046zm270.6-252.567c0-16.3-19.25-57.789-42.778-92.199-47.48-69.443-33.85-83.872 22.71-24.04 41.634 44.044 68.889 145.874 39.043 145.874-10.437 0-18.976-13.335-18.976-29.635zm-177.11-171.525c-5.913-9.508 8.258-16.764 32.74-16.764 23.74 0 43.164 7.544 43.164 16.764 0 9.22-14.733 16.763-32.74 16.763s-37.43-7.543-43.164-16.763zm-299.751 425.72c-5.605-5.57-20.154-6.166-32.33-1.323-13.456 5.35-9.459 9.323 10.191 10.127 17.781.728 27.744-3.234 22.139-8.804zm80.31-76.558c63.713-49.806 126.316-189.484 126.441-282.109.25-185.384-185.266-307.572-331.99-218.661-69.461 42.09-107.15 100.298-118.264 182.651-20.394 151.115 106.578 354.515 221.307 354.515 31.879 0 75.98-15.658 102.507-36.396zM244.12 527.624c-44.926-44.649-63.817-85.106-39.738-85.106 10.109 0 125.374 117.744 125.374 128.07 0 20.707-43.558-1.146-85.636-42.964zm266.962-228.78c-6.958-7.032-12.65-27.336-12.65-45.12 0-17.785-16.01-54.68-35.576-81.989-19.566-27.308-31.457-53.745-26.423-58.747 29.125-28.946 100.503 91.575 92.53 156.235-2.877 23.323-10.923 36.651-17.88 29.62zM329.756 90.486c0-21.804 62.345-21.804 75.904 0 5.912 9.507-8.259 16.763-32.74 16.763-23.74 0-43.164-7.544-43.164-16.763z" fill="#fe2355"/></svg>