<svg xmlns="http://www.w3.org/2000/svg" width="1000mm" height="1000mm" viewBox="0 0 1000 1000"><path d="M348.994 944.579c6.994-39.181 2.073-76.008-14.684-110.077-14.94-30.367-21.057-68.507-15.032-93.738 6.269-26.25 3.293-42.54-7.726-42.54-9.83 0-17.88-15.261-17.88-33.914 0-18.653-6.268-33.915-13.933-33.915-28.557 0-104.879-96.044-141.504-178.052-46.43-103.985-48.65-208.692-6.268-296.001C214.436-13.562 415.358-45.206 531.2 93.464c41.009 49.087 52.919 53.889 119.789 48.3 91.524-7.652 157.315 25.464 218.649 110.05 39.186 54.045 45.1 77.188 44.46 173.83-.854 130.819-39.118 221.892-127.38 303.343-31.582 29.143-57.425 64.667-57.425 78.942 0 14.275-10.75 25.954-23.892 25.954-32.508 0-47.68 73.199-24.575 118.574 24.856 48.812 4.086 68.832-26.507 25.537-13.611-19.267-21.404-57.665-18.057-89 4.025-37.89-.915-55.111-15.787-55.111-11.916 0-19.532-10.125-16.928-22.5 2.622-12.376-21.289-48.622-53.102-80.548-31.813-31.925-65.596-72.948-75.072-91.16-14.343-27.551-21.404-29.479-42.039-11.478-13.641 11.9-20.83 32.523-15.97 45.831 5.365 14.632-1.22 24.197-16.526 24.197-46.76 0-62.987 61.827-33.424 127.309 28.332 62.743 20.734 177.923-11.732 177.923-10.89 0-13.348-21.594-6.69-58.878zm343.663-154.856c-5.366-5.633-19.275-6.236-30.922-1.34-12.874 5.416-9.05 9.432 9.744 10.246 17.014.737 26.538-3.275 21.178-8.906zm93.025-114.106c105.916-116.178 133.424-284.868 64.48-395.45-39.588-63.505-120.948-109.037-185.403-103.762l-56.467 4.62-9.025 121.819c-7.135 96.239-19.465 139.469-58.748 205.886-49.614 83.877-49.656 84.178-19.812 131.993 81.53 130.632 167.39 141.938 264.975 34.895zm-218.418-23.2c-68.572-82.084-37.063-92.221 38.808-12.484 65.346 68.68 68.498 75.249 36.155 75.249-12.391 0-46.125-28.244-74.963-62.764zM826.1 396.93c0-16.489-18.41-58.458-40.917-93.266-45.412-70.246-32.374-84.843 21.727-24.318 39.82 44.554 65.888 147.562 37.344 147.562-9.982 0-18.154-13.49-18.154-29.978zM656.692 223.42c-5.67-9.618 7.903-16.957 31.32-16.957 22.708 0 41.283 7.63 41.283 16.957 0 9.326-14.093 16.957-31.313 16.957-17.227 0-35.808-7.63-41.29-16.957zm-286.72 430.646c-5.367-5.634-19.276-6.236-30.923-1.34-12.867 5.416-9.044 9.431 9.75 10.245 17.007.737 26.539-3.268 21.173-8.906zm76.822-77.444c60.943-50.383 120.825-191.677 120.941-285.373 0-187.53-177.207-311.13-317.552-221.191-66.444 42.578-102.495 101.459-113.124 184.765-19.507 152.863 101.946 358.616 211.686 358.616 30.49 0 72.675-15.84 98.049-36.817zm-186.629-46.665c-42.978-45.166-61.047-86.091-38.015-86.091 9.672 0 119.923 119.105 119.923 129.551 0 20.947-41.66-1.16-81.908-43.46zm255.353-231.429c-6.653-7.112-12.098-27.651-12.098-45.641s-15.312-55.313-34.033-82.937c-18.715-27.625-30.088-54.367-25.27-59.427 27.856-29.281 96.129 92.634 88.506 158.043-2.744 23.592-10.452 37.075-17.105 29.962zM342.072 87.76c0-22.055 59.639-22.055 72.609 0 5.67 9.618-7.903 16.957-31.32 16.957-22.708 0-41.289-7.63-41.289-16.957z" fill="#7c7c7c"/><path d="M1300.615 568.147c.742-1.725 3.734-11.188 6.637-21.029l5.28-17.892-11.97-11.813c-13.518-13.34-22.498-28.242-25.377-42.114-1.789-8.619-1.4-9.41 4.636-9.41 3.623 0 13.576 3.426 22.12 7.614l15.532 7.614-4.797-6.36c-2.64-3.497-6.675-6.358-8.969-6.358-2.295 0-3.467-.992-2.604-2.204.862-1.212-2.087-2.84-6.555-3.615-5.245-.912-10.798-4.923-15.675-11.325-7.58-9.95-7.563-12.97.11-12.97 2.26 0 6.329-2.379 9.04-5.287 4.912-5.27 4.958-5.251 12.995 5.297 5.007 6.574 7.477 12.533 6.516 15.725-1.677 5.57 15.91 29.587 17.889 24.429.611-1.585-1.855-5.619-5.475-8.965-7.04-6.509-5.788-11.45 1.558-6.155 3.683 2.655 4.404 2.394 4.404-1.594 0-2.622-2.6-6.702-5.779-9.065-8.014-5.96-8.657-31.015-.72-28.155 6.356 2.29 9.532 2.29 15.889 0 7.935-2.86 7.292 22.194-.72 28.155-6.812 5.065-7.596 8.649-1.445 6.598 5.606-1.868 5.606 2.58 0 6.621-4.769 3.438-6.116 16.31-1.444 13.802 1.589-.853 2.888-4.428 2.888-7.945 0-4.27 1.27-5.97 3.82-5.121 5.078 1.693 10.646-6.401 8.745-12.715-.917-3.06 1.644-9.177 6.55-15.615 8.036-10.548 8.082-10.567 12.995-5.297 2.71 2.908 6.78 5.288 9.04 5.288 7.64 0 7.657 3.019.11 12.97-4.878 6.401-10.43 10.412-15.675 11.324-4.467.776-7.418 2.403-6.555 3.615.862 1.212-.306 2.204-2.603 2.204-2.294 0-6.331 2.861-8.969 6.359l-4.797 6.36 15.531-7.615c8.543-4.188 18.497-7.614 22.121-7.614 6.034 0 6.424.791 4.635 9.41-2.878 13.872-11.858 28.774-25.377 42.114l-11.971 11.813 5.28 17.892c2.905 9.84 5.891 19.304 6.638 21.029 1.026 2.375-5.457 3.137-26.706 3.137s-27.734-.762-26.706-3.137zm44.074-11.388c-1.015-4.727-3.356-11.58-5.19-15.229-3.253-6.474-3.357-6.376-4.314 4.09-1.145 12.53-6.419 11.847-6.419-.833 0-6.997-1.11-8.635-5.85-8.635-6.22 0-9.738 5.672-13.063 21.07l-1.956 9.059 19.324-.463 19.325-.463zm-10.834-27.35c-2.762-.628-7.962-.65-11.556-.047-3.594.6-1.333 1.114 5.023 1.142 6.355.028 9.295-.463 6.533-1.092zm-7.978-8.438c0-3.659-8.448-17.788-13.813-23.103-2.447-2.423-3.501-5.23-2.343-6.235 2.916-2.533 12.215 8.51 17.944 21.307 4.899 10.943 11.755 15.164 8.152 5.019-6.316-17.785-21.77-34.343-39.438-42.252-19.212-8.602-20.723-6.122-9.305 15.276 8.341 15.633 25.845 32.622 33.611 32.622 2.855 0 5.192-1.185 5.192-2.634zm-30.21-34.833c-2.895-4.068 3.394-5.305 7.124-1.4 2.903 3.037 2.726 3.736-.95 3.736-2.484 0-5.264-1.052-6.178-2.336zm56.855 25.548c13.347-12.274 27.17-40.778 19.777-40.778-6.308 0-24.786 9.607-33.099 17.208-8.245 7.539-8.287 7.733-3.61 16.292 2.602 4.765 4.732 9.904 4.732 11.42 0 4.589 4.29 3.132 12.2-4.142zm-50.301-58.998c.535-2.398-1.59-7.184-4.715-10.634-4.715-5.207-5.978-5.6-7.434-2.306-2.369 5.363-2.216 14.864.273 17.027 3.48 3.02 10.864.48 11.876-4.087zm63.602-.2c.557-2.509.196-7.39-.808-10.847l-1.817-6.285-5.662 6.252c-5.831 6.44-7.184 12.085-3.636 15.167 3.544 3.078 10.871.442 11.92-4.287zm-32.724-8.911c0-3.37-2.809-7.554-6.5-9.682-6.32-3.645-6.5-3.508-6.5 4.922 0 4.768.917 9.462 2.026 10.43 4.166 3.619 10.974.101 10.974-5.67z" fill="#7f7f7f"/><path d="M1185.992 536.969c-1.496-4.166-.116-40.78 1.535-40.78 2.072 0 2.894 39.394.867 41.56-1.022 1.092-1.823.832-2.402-.78zM1169.88 529c0-.902.69-1.64 1.534-1.64.844 0 1.535.738 1.535 1.64 0 .902-.69 1.64-1.535 1.64-.844 0-1.534-.738-1.534-1.64zm32.225 0c0-.902.69-1.64 1.535-1.64.844 0 1.534.738 1.534 1.64 0 .902-.69 1.64-1.535 1.64-.843 0-1.534-.738-1.534-1.64zm-31.334-5.33c-.302-1.127-1.298-6.801-2.215-12.609-.991-6.28-3.208-12.874-5.47-16.271-3.941-5.92-3.854-10.108.139-6.568 4.627 4.104 8.656 15.438 9.395 26.428.411 6.089.284 11.07-.279 11.07-.562 0-1.268-.922-1.569-2.05zm31.673-8.61c.732-11.417 4.659-22.645 9.387-26.838 4.025-3.57 4.064.67.064 6.683-2.45 3.68-4.551 10.087-5.702 17.386-2.44 15.477-4.666 17.123-3.746 2.77zm-46.375-5.74c0-.902.69-1.64 1.534-1.64.845 0 1.535.738 1.535 1.64 0 .902-.69 1.64-1.535 1.64-.844 0-1.535-.738-1.535-1.64zm58.313 0c0-.902.69-1.64 1.534-1.64.844 0 1.535.738 1.535 1.64 0 .902-.691 1.64-1.535 1.64s-1.534-.738-1.534-1.64zm-38.364-11.48c0-.901.69-1.64 1.534-1.64.844 0 1.535.739 1.535 1.64 0 .903-.69 1.64-1.535 1.64-.843 0-1.534-.737-1.534-1.64zm19.949 0c0-.901.69-1.64 1.535-1.64.843 0 1.534.739 1.534 1.64 0 .903-.69 1.64-1.535 1.64-.843 0-1.534-.737-1.534-1.64zm-48.722-9.357c-2.095-.431-3.452-1.902-3.452-3.742 0-1.667-.36-4.032-.799-5.254-.498-1.397 1.016-2.954 4.085-4.192 4.398-1.774 5.241-1.587 8.483 1.877 3.155 3.371 3.314 4.1 1.286 5.899-1.272 1.128-2.314 3.068-2.314 4.31 0 2.272-.928 2.412-7.289 1.102zm5.112-8.467c-.546-.942-2.022-1.289-3.282-.772-1.8.738-1.901 1.443-.476 3.278 2.032 2.615 5.415.358 3.758-2.506zm25.811 7.335c-.522-1.447-.562-3.69-.099-4.985.464-1.296-.498-4.18-2.137-6.409-3.87-5.258-3.808-5.542 1.507-6.79 2.47-.579 5.678-2.99 7.129-5.356l2.637-4.302 3.23 4.289c1.777 2.358 5.129 4.79 7.45 5.404 4.917 1.3 5.095 1.927 1.688 5.95-1.393 1.645-2.601 5.394-2.685 8.33-.128 4.392-.698 5.24-3.223 4.777-5.355-.98-9.127-.833-11.88.464-1.82.857-2.973.42-3.617-1.372zm14.73-6.812c0-1.85.695-4.105 1.545-5.013 1.037-1.108.133-2.766-2.745-5.041l-4.291-3.39-4.326 3.686c-2.74 2.335-3.703 4.099-2.626 4.81.936.618 1.701 2.74 1.701 4.717 0 3.013.867 3.593 5.37 3.593 4.393 0 5.372-.613 5.372-3.362zm27.621 6.973c0-1.314-1.04-3.313-2.313-4.441-2.027-1.799-1.869-2.528 1.286-5.899 3.212-3.433 4.11-3.64 8.354-1.929 4.231 1.707 4.656 2.468 3.864 6.928-1.08 6.081-.278 5.233-6.203 6.589-3.833.877-4.988.588-4.988-1.248zm5.84-7.908c-2.442-1.613-5.044.872-3.574 3.414.796 1.376 1.661 1.344 3.315-.122 1.791-1.589 1.843-2.246.261-3.292zm-63.385-9.643c-.522-.902.128-1.64 1.444-1.64 1.316 0 2.392.738 2.392 1.64 0 .902-.65 1.64-1.443 1.64-.795 0-1.871-.738-2.393-1.64zm49.873 0c0-.902.731-1.64 1.625-1.64s1.198.738.677 1.64c-.522.902-1.253 1.64-1.625 1.64-.372 0-.677-.738-.677-1.64zm-40.738-6.97c-.575-2.03-2.401-5.272-4.056-7.207-1.746-2.041-2.374-3.935-1.498-4.514 2.029-1.34 9.463 8.29 9.463 12.257 0 4.335-2.63 3.975-3.91-.535zm26.927.536c0-3.967 7.434-13.597 9.463-12.257.877.579.25 2.472-1.498 4.514-1.655 1.935-3.48 5.178-4.056 7.207-1.28 4.51-3.909 4.871-3.909.536zm-44.608-12.563c-2.731-3.517 0-8.062 4.877-8.062 2.7 0 3.806 1.034 4.187 3.914.82 6.195-5.3 8.996-9.064 4.148zm6.244-3.046c0-.398-.69-1.18-1.534-1.737-.844-.557-1.535-.231-1.535.724s.69 1.736 1.535 1.736c.844 0 1.534-.325 1.534-.723zm24.553 4.003c0-.902.69-1.64 1.535-1.64.843 0 1.534.738 1.534 1.64 0 .902-.69 1.64-1.534 1.64-.844 0-1.535-.738-1.535-1.64zm27.871.2c-1.128-.765-1.82-3.152-1.534-5.305.622-4.704 6.926-5.49 9.469-1.182 2.924 4.954-3.022 9.815-7.935 6.487zm4.355-5.12c0-.901-.308-1.64-.677-1.64-.371 0-1.104.739-1.625 1.64-.522.903-.215 1.64.677 1.64.893 0 1.625-.737 1.625-1.64z" fill="#7b7b7b"/><path d="M1240.531 663.46c18.781-16.27 34.818-29.583 35.638-29.583.821 0-13.879 13.312-32.66 29.582-18.782 16.27-34.818 29.582-35.638 29.582-.821 0 13.878-13.312 32.66-29.582zm22.83 25.294c-1.091-.943-2.216-8.757-2.499-17.364l-.518-15.648-2.03 16.72-2.03 16.72.315-16.72c.394-21.352 5.98-21.906 7.151-.71l.89 16.012 45.272.781 45.272.782-44.916.57c-24.704.315-45.809-.2-46.9-1.143zm-66.909-6.746l-6.404-5.89 36.409-30.766 36.408-30.767-35.01 30.923-35.008 30.923 6.636 5.733c3.65 3.153 5.902 5.732 5.005 5.732-.9 0-4.513-2.65-8.036-5.888zm158.34-22.407c0-14.856.494-20.933 1.091-13.505.608 7.427.608 19.582 0 27.01-.597 7.427-1.092 1.35-1.092-13.505zm-166.657-.644l-5.673-5.787 6.7 4.9c6.298 4.605 8.057 6.675 5.673 6.675-.563 0-3.58-2.604-6.7-5.788zm112.698-29.425c2.866-.647 7.556-.647 10.422 0 2.867.647.518 1.176-5.211 1.176-5.732 0-8.078-.53-5.211-1.176zm23.424-4.015c.247-4.158.72-4.555 1.68-1.41 1.013 3.325 5.41 4.6 18.266 5.302l16.932.923-18.612.486c-17.574.46-18.593.164-18.266-5.3zm-54.173-6.43l-7.219-7.075 8.19 6.237c7.653 5.828 9.554 7.911 7.218 7.911-.529 0-4.218-3.183-8.189-7.074zm-32.644.525c-2.1-2.186-5.949-3.275-8.553-2.42-3.816 1.254-4.006.922-.98-1.712 3.035-2.64 5.022-2.174 10.34 2.42 3.622 3.128 5.781 5.688 4.8 5.688-.98 0-3.505-1.79-5.607-3.976zm53.715.393c0-.556 2.08-1.7 4.621-2.543 2.65-.879 3.846-.448 2.802 1.01-1.749 2.445-7.423 3.616-7.423 1.533zm22.354-1.532c-1.046-1.459.158-1.89 2.803-1.011 5.159 1.71 6.102 3.553 1.82 3.553-1.542 0-3.621-1.144-4.623-2.542zm-48.134-23.834c-.934-1.302-.124-3.714 1.797-5.359 2.662-2.282 2.975-1.824 1.319 1.933-1.452 3.293-1.092 4.344 1.103 3.173 1.803-.963 3.982-.767 4.841.435.856 1.203-.45 2.186-2.903 2.186-2.457 0-5.23-1.065-6.161-2.368zm27.575 1.082c-.844-1.18.36-2.144 2.672-2.144 2.313 0 3.515.965 2.67 2.144-.844 1.179-2.044 2.143-2.67 2.143-.63 0-1.828-.964-2.672-2.143zm30.961.122c0-1.111 2.68-2.02 5.956-2.02 3.275 0 5.955.909 5.955 2.02 0 1.112-2.68 2.021-5.955 2.021-3.276 0-5.956-.909-5.956-2.02zm3.02-9.334c1.929-1.665 3.942-1.665 5.871 0 1.928 1.666.923 2.536-2.935 2.536-3.857 0-4.864-.87-2.935-2.536zm-25.354-1.506c1.013-1.415 2.432-2.573 3.153-2.573.72 0 1.314 1.158 1.314 2.573s-1.42 2.572-3.154 2.572-2.325-1.157-1.313-2.572zm-22.292-3.638c1.93-1.666 3.943-1.666 5.872 0 1.928 1.666.923 2.535-2.936 2.535-3.856 0-4.864-.87-2.936-2.535zm62.493-6.652c0-1.414 1.34-2.572 2.978-2.572 1.638 0 2.978 1.158 2.978 2.572 0 1.415-1.34 2.573-2.978 2.573-1.637 0-2.978-1.158-2.978-2.573z" fill="#a6a6a6"/><path d="M1194.93 685.826c-9.364-8.443-9.667-10.081-3.044-16.404 4.65-4.438 4.534-5.119-1.866-11.004-8.797-8.088-6.578-12.535 8.158-16.348 13.903-3.599 18.89-8.081 23.086-20.754 3.69-11.147 11.21-13.19 20.575-5.592 5.975 4.85 7.157 5.02 10.521 1.519 5.65-5.88 9.77-4.885 20.927 5.059 11.546 10.29 14.89 11.156 14.89 3.858 0-2.83 1.847-5.144 4.103-5.144 2.258 0 6.277-2.605 8.934-5.788l4.83-5.788 4.83 5.788c2.657 3.183 6.677 5.788 8.934 5.788 2.256 0 4.103 2.315 4.103 5.144 0 4.576 1.985 5.145 17.962 5.145h17.962l-.833 30.225-.844 30.225h-98.27l-.303-18.007-.304-18.006 1.796 16.72 1.796 16.72 44.442.715c33.556.54 45.032-.09 46.855-2.572 1.328-1.808 2.436-14.573 2.46-28.368v-25.08h-81.987l-34.15 29.582c-18.781 16.27-34.924 29.582-35.872 29.582-.945 0-5.326-3.247-9.728-7.215zm45.51-27.433l34.057-29.503-7.167-6.59-7.167-6.59-35.058 30.205-35.057 30.204 6.404 5.889c3.523 3.238 7.198 5.888 8.168 5.888.968 0 17.088-13.276 35.82-29.503zm-33.872-1.707c5.637-5.451 5.628-5.474-1.4-3.583-4.86 1.309-6.436 1.013-5.035-.944 1.125-1.566 3.968-2.848 6.328-2.848 2.36 0 4.29-1.157 4.29-2.572 0-2.916-4.384-3.21-14.143-.951-7.962 1.843-8.482 5.276-1.773 11.68 6.007 5.734 4.922 5.807 11.733-.782zm17.86-15.354c5.618-5.363 5.603-5.4-1.742-4.502-4.136.506-7.844 2.894-8.4 5.407-1.342 6.085 3.248 5.675 10.142-.905zm4.19-11.161c0-2.04 1.485-4.5 3.299-5.467 2.255-1.204 2.626.17 1.177 4.35l-2.12 6.11 6.93-5.788 6.929-5.788-6.586-5.688c-7.693-6.647-11.568-4.577-14.41 7.698-1.25 5.4-.754 8.28 1.432 8.28 1.843 0 3.35-1.669 3.35-3.707zm89.337-2.725c3.029-3.151 2.85-3.858-.98-3.858-2.575 0-6.09-2.026-7.809-4.502-2.977-4.287-3.274-4.287-6.251 0-1.72 2.476-5.234 4.502-7.81 4.502-3.825 0-4.004.707-.979 3.858 2.038 2.123 7.399 3.859 11.911 3.859s9.873-1.736 11.911-3.859zm-45.783-21.52c-.574-.897-1.883-4.687-2.915-8.423-1.496-5.418-.36-7.651 5.629-11.04 4.127-2.335 8.943-3.478 10.702-2.539 1.835.98-.675 3.329-5.88 5.507-7.906 3.307-8.623 4.431-5.545 8.688 4.2 5.81 14.014 6.532 14.014 1.032 0-2.122 1.419-3.859 3.153-3.859 1.735 0 2.326-1.157 1.314-2.572-1.013-1.415-.394-2.572 1.37-2.572 2.934 0 1.366 12.105-1.995 15.396-1.95 1.91-18.668 2.231-19.847.381zm53.355-13.028c-2.202-3.078 3.4-6.128 7.367-4.01 3.33 1.777 1.143 6.404-3.027 6.404-1.445 0-3.398-1.077-4.34-2.394zm-24.913-24.751c1.348-5.588 6.632-5.93 7.84-.507.631 2.815-.832 4.501-3.9 4.501-2.86 0-4.501-1.664-3.94-3.994z" fill="#7f7f7f"/></svg>