<svg xmlns="http://www.w3.org/2000/svg" width="1000mm" height="1000mm" viewBox="0 0 1000 1000"><path d="M338.985 976.437c4.755-11.662 23.915-75.63 42.508-142.151l33.817-120.947-76.668-79.856c-86.568-90.173-144.075-190.91-162.515-284.678-11.454-58.262-8.957-63.611 29.69-63.611 23.202 0 86.947 23.161 141.657 51.47l99.47 51.468-30.719-42.987c-16.9-23.644-42.746-42.988-57.437-42.988-14.698 0-22.201-6.704-16.677-14.898 5.524-8.193-13.363-19.19-41.977-24.436-33.592-6.162-69.15-33.275-100.385-76.553-48.543-67.26-48.431-87.67.698-87.67 14.482 0 40.537-16.085 57.9-35.746 31.46-35.621 31.753-35.496 83.218 35.809 32.069 44.437 47.886 84.72 41.733 106.295-10.741 37.66 101.882 200.007 114.56 165.137 3.915-10.711-11.881-37.982-35.062-60.602-45.08-43.998-37.067-77.402 9.979-41.602 23.586 17.943 28.201 16.18 28.201-10.776 0-17.728-16.65-45.305-37.005-61.282-51.326-40.293-55.445-209.655-4.615-190.323 40.704 15.486 61.046 15.486 101.756 0 50.816-19.332 46.697 150.03-4.614 190.323-43.62 34.243-48.641 58.465-9.252 44.606 35.9-12.63 35.9 17.44 0 44.755-30.536 23.237-39.165 110.248-9.244 93.296 10.174-5.764 18.496-29.933 18.496-53.705 0-28.86 8.124-40.362 24.46-34.617 32.522 11.445 68.177-43.27 56.003-85.953-5.874-20.68 10.531-62.03 41.949-105.552 51.466-71.305 51.76-71.43 83.22-35.809 17.361 19.66 43.416 35.747 57.898 35.747 48.92 0 49.032 20.408.7 87.67-31.237 43.277-66.794 70.392-100.387 76.552-28.607 5.244-47.5 16.243-41.977 24.436 5.524 8.194-1.957 14.898-16.67 14.898-14.691 0-40.543 19.344-57.437 42.988l-30.719 42.987 99.463-51.469c54.71-28.308 118.455-51.469 141.664-51.469 38.64 0 41.137 5.347 29.683 63.61-18.433 93.768-75.94 194.506-162.515 284.68l-76.667 79.855 33.816 120.947c18.6 66.52 37.726 130.489 42.508 142.15 6.573 16.056-34.949 21.205-171.025 21.205-136.083 0-177.612-5.149-171.032-21.204zm282.257-76.976c-6.503-31.96-21.496-78.287-33.236-102.947-20.838-43.765-21.502-43.104-27.628 27.642-7.335 84.71-41.11 80.086-41.11-5.629 0-47.298-7.104-58.37-37.459-58.37-39.844 0-62.367 38.342-83.66 142.429l-12.53 61.236 123.755-3.13 123.762-3.128zM551.86 714.577c-17.691-4.244-50.99-4.398-74.01-.32-23.012 4.058-8.537 7.53 32.166 7.72 40.704.191 59.528-3.13 41.844-7.378zm-51.095-57.04c0-24.734-54.102-120.246-88.457-156.169-15.67-16.384-22.425-35.353-15.006-42.154 18.67-17.12 78.227 57.524 114.917 144.036 31.369 73.97 75.275 102.503 52.2 33.926-40.446-120.22-139.419-232.15-252.56-285.617-123.034-58.146-132.712-41.38-59.59 103.265 53.416 105.678 165.515 220.519 215.247 220.519 18.285 0 33.249-8.012 33.249-17.805zM307.294 422.07c-18.537-27.5 21.74-35.857 45.628-9.467 18.593 20.537 17.46 25.258-6.084 25.258-15.909 0-33.711-7.106-39.564-15.79zm364.113 172.7c85.47-82.967 173.997-275.65 126.65-275.65-40.397 0-158.732 64.94-211.967 116.323-52.802 50.962-53.074 52.273-23.124 110.135 16.67 32.208 30.305 66.948 30.305 77.2 0 31.014 27.481 21.164 78.136-28.008zM349.27 195.956c3.427-16.212-10.18-48.56-30.194-71.885-30.194-35.2-38.285-37.85-47.606-15.588-15.174 36.251-14.194 100.48 1.749 115.1 22.278 20.421 69.57 3.243 76.051-27.627zm407.313-1.353c3.566-16.957 1.258-49.952-5.175-73.32l-11.635-42.49-36.257 42.266c-37.347 43.53-46.012 81.689-23.285 102.526 22.69 20.804 69.618 2.987 76.33-28.982zm-209.569-60.238c0-22.774-17.985-51.058-41.627-65.448-40.466-24.637-41.627-23.712-41.627 33.27 0 32.238 5.874 63.966 12.979 70.508 26.677 24.463 70.275.686 70.275-38.33z" fill="#7f7f7f"/><path d="M1240.531 663.46c18.781-16.27 34.818-29.583 35.638-29.583.821 0-13.879 13.312-32.66 29.582-18.782 16.27-34.818 29.582-35.638 29.582-.821 0 13.878-13.312 32.66-29.582zm22.83 25.294c-1.091-.943-2.216-8.757-2.499-17.364l-.518-15.648-2.03 16.72-2.03 16.72.315-16.72c.394-21.352 5.98-21.906 7.151-.71l.89 16.012 45.272.781 45.272.782-44.916.57c-24.704.315-45.809-.2-46.9-1.143zm-66.909-6.746l-6.404-5.89 36.409-30.766 36.408-30.767-35.01 30.923-35.008 30.923 6.636 5.733c3.65 3.153 5.902 5.732 5.005 5.732-.9 0-4.513-2.65-8.036-5.888zm158.34-22.407c0-14.856.494-20.933 1.091-13.505.608 7.427.608 19.582 0 27.01-.597 7.427-1.092 1.35-1.092-13.505zm-166.657-.644l-5.673-5.787 6.7 4.9c6.298 4.605 8.057 6.675 5.673 6.675-.563 0-3.58-2.604-6.7-5.788zm112.698-29.425c2.866-.647 7.556-.647 10.422 0 2.867.647.518 1.176-5.211 1.176-5.732 0-8.078-.53-5.211-1.176zm23.424-4.015c.247-4.158.72-4.555 1.68-1.41 1.013 3.325 5.41 4.6 18.266 5.302l16.932.923-18.612.486c-17.574.46-18.593.164-18.266-5.3zm-54.173-6.43l-7.219-7.075 8.19 6.237c7.653 5.828 9.554 7.911 7.218 7.911-.529 0-4.218-3.183-8.189-7.074zm-32.644.525c-2.1-2.186-5.949-3.275-8.553-2.42-3.816 1.254-4.006.922-.98-1.712 3.035-2.64 5.022-2.174 10.34 2.42 3.622 3.128 5.781 5.688 4.8 5.688-.98 0-3.505-1.79-5.607-3.976zm53.715.393c0-.556 2.08-1.7 4.621-2.543 2.65-.879 3.846-.448 2.802 1.01-1.749 2.445-7.423 3.616-7.423 1.533zm22.354-1.532c-1.046-1.459.158-1.89 2.803-1.011 5.159 1.71 6.102 3.553 1.82 3.553-1.542 0-3.621-1.144-4.623-2.542zm-48.134-23.834c-.934-1.302-.124-3.714 1.797-5.359 2.662-2.282 2.975-1.824 1.319 1.933-1.452 3.293-1.092 4.344 1.103 3.173 1.803-.963 3.982-.767 4.841.435.856 1.203-.45 2.186-2.903 2.186-2.457 0-5.23-1.065-6.161-2.368zm27.575 1.082c-.844-1.18.36-2.144 2.672-2.144 2.313 0 3.515.965 2.67 2.144-.844 1.179-2.044 2.143-2.67 2.143-.63 0-1.828-.964-2.672-2.143zm30.961.122c0-1.111 2.68-2.02 5.956-2.02 3.275 0 5.955.909 5.955 2.02 0 1.112-2.68 2.021-5.955 2.021-3.276 0-5.956-.909-5.956-2.02zm3.02-9.334c1.929-1.665 3.942-1.665 5.871 0 1.928 1.666.923 2.536-2.935 2.536-3.857 0-4.864-.87-2.935-2.536zm-25.354-1.506c1.013-1.415 2.432-2.573 3.153-2.573.72 0 1.314 1.158 1.314 2.573s-1.42 2.572-3.154 2.572-2.325-1.157-1.313-2.572zm-22.292-3.638c1.93-1.666 3.943-1.666 5.872 0 1.928 1.666.923 2.535-2.936 2.535-3.856 0-4.864-.87-2.936-2.535zm62.493-6.652c0-1.414 1.34-2.572 2.978-2.572 1.638 0 2.978 1.158 2.978 2.572 0 1.415-1.34 2.573-2.978 2.573-1.637 0-2.978-1.158-2.978-2.573z" fill="#a6a6a6"/><path d="M1194.93 685.826c-9.364-8.443-9.667-10.081-3.044-16.404 4.65-4.438 4.534-5.119-1.866-11.004-8.797-8.088-6.578-12.535 8.158-16.348 13.903-3.599 18.89-8.081 23.086-20.754 3.69-11.147 11.21-13.19 20.575-5.592 5.975 4.85 7.157 5.02 10.521 1.519 5.65-5.88 9.77-4.885 20.927 5.059 11.546 10.29 14.89 11.156 14.89 3.858 0-2.83 1.847-5.144 4.103-5.144 2.258 0 6.277-2.605 8.934-5.788l4.83-5.788 4.83 5.788c2.657 3.183 6.677 5.788 8.934 5.788 2.256 0 4.103 2.315 4.103 5.144 0 4.576 1.985 5.145 17.962 5.145h17.962l-.833 30.225-.844 30.225h-98.27l-.303-18.007-.304-18.006 1.796 16.72 1.796 16.72 44.442.715c33.556.54 45.032-.09 46.855-2.572 1.328-1.808 2.436-14.573 2.46-28.368v-25.08h-81.987l-34.15 29.582c-18.781 16.27-34.924 29.582-35.872 29.582-.945 0-5.326-3.247-9.728-7.215zm45.51-27.433l34.057-29.503-7.167-6.59-7.167-6.59-35.058 30.205-35.057 30.204 6.404 5.889c3.523 3.238 7.198 5.888 8.168 5.888.968 0 17.088-13.276 35.82-29.503zm-33.872-1.707c5.637-5.451 5.628-5.474-1.4-3.583-4.86 1.309-6.436 1.013-5.035-.944 1.125-1.566 3.968-2.848 6.328-2.848 2.36 0 4.29-1.157 4.29-2.572 0-2.916-4.384-3.21-14.143-.951-7.962 1.843-8.482 5.276-1.773 11.68 6.007 5.734 4.922 5.807 11.733-.782zm17.86-15.354c5.618-5.363 5.603-5.4-1.742-4.502-4.136.506-7.844 2.894-8.4 5.407-1.342 6.085 3.248 5.675 10.142-.905zm4.19-11.161c0-2.04 1.485-4.5 3.299-5.467 2.255-1.204 2.626.17 1.177 4.35l-2.12 6.11 6.93-5.788 6.929-5.788-6.586-5.688c-7.693-6.647-11.568-4.577-14.41 7.698-1.25 5.4-.754 8.28 1.432 8.28 1.843 0 3.35-1.669 3.35-3.707zm89.337-2.725c3.029-3.151 2.85-3.858-.98-3.858-2.575 0-6.09-2.026-7.809-4.502-2.977-4.287-3.274-4.287-6.251 0-1.72 2.476-5.234 4.502-7.81 4.502-3.825 0-4.004.707-.979 3.858 2.038 2.123 7.399 3.859 11.911 3.859s9.873-1.736 11.911-3.859zm-45.783-21.52c-.574-.897-1.883-4.687-2.915-8.423-1.496-5.418-.36-7.651 5.629-11.04 4.127-2.335 8.943-3.478 10.702-2.539 1.835.98-.675 3.329-5.88 5.507-7.906 3.307-8.623 4.431-5.545 8.688 4.2 5.81 14.014 6.532 14.014 1.032 0-2.122 1.419-3.859 3.153-3.859 1.735 0 2.326-1.157 1.314-2.572-1.013-1.415-.394-2.572 1.37-2.572 2.934 0 1.366 12.105-1.995 15.396-1.95 1.91-18.668 2.231-19.847.381zm53.355-13.028c-2.202-3.078 3.4-6.128 7.367-4.01 3.33 1.777 1.143 6.404-3.027 6.404-1.445 0-3.398-1.077-4.34-2.394zm-24.913-24.751c1.348-5.588 6.632-5.93 7.84-.507.631 2.815-.832 4.501-3.9 4.501-2.86 0-4.501-1.664-3.94-3.994z" fill="#7f7f7f"/></svg>