<svg xmlns="http://www.w3.org/2000/svg" width="1000mm" height="1000mm" viewBox="0 0 1000 1000"><path d="M299.696 973.095c5.697-11.606 28.487-75.27 50.646-141.473l40.287-120.37-91.343-79.475C196.141 542.033 127.623 441.775 105.66 348.455c-13.648-57.985-10.674-63.308 35.367-63.308 27.648 0 103.598 23.05 168.78 51.224l118.51 51.224-36.601-42.783c-20.132-23.53-50.926-42.783-68.433-42.783-17.507 0-26.447-6.672-19.866-14.827 6.58-8.154-15.924-19.098-50.01-24.32-40.024-6.13-82.388-33.116-119.605-76.187-57.842-66.94-57.707-87.252.58-87.252 17.252 0 48.295-16.01 68.982-35.576 37.483-35.452 37.83-35.327 99.149 35.638 38.214 44.226 57.06 84.316 49.728 105.788-12.798 37.48 121.387 199.054 136.49 164.35 4.64-10.66-14.158-37.8-41.773-60.313-53.713-43.788-44.168-77.033 11.887-41.404 28.097 17.859 33.598 16.103 33.598-10.724 0-17.644-19.84-45.09-44.087-60.99-61.152-40.101-66.056-208.656-5.51-189.416 48.502 15.412 72.734 15.412 121.237 0 60.546-19.24 55.642 149.315-5.51 189.416-51.97 34.08-57.956 58.187-11.022 44.393 42.768-12.569 42.768 17.358 0 44.542-36.385 23.127-46.664 109.722-11.022 92.852 12.124-5.739 22.043-29.79 22.043-53.45 0-28.721 9.682-40.17 29.136-34.452 38.756 11.39 81.232-43.063 66.728-85.543-7.028-20.58 12.552-61.734 49.98-105.05 61.319-70.964 61.665-71.089 99.148-35.637 20.688 19.567 51.73 35.576 68.983 35.576 58.286 0 58.421 20.312.58 87.252-37.217 43.071-79.581 70.057-119.605 76.188-34.086 5.22-56.591 16.165-50.01 24.32 6.58 8.154-2.36 14.826-19.866 14.826-17.507 0-48.302 19.252-68.433 42.783l-36.602 42.783 118.511-51.224c65.181-28.173 141.132-51.224 168.78-51.224 46.04 0 49.014 5.323 35.367 63.308-21.964 93.32-90.482 193.578-193.627 283.322L616.3 711.252l40.287 120.37c22.158 66.204 44.949 129.867 50.646 141.473 7.843 15.979-41.638 21.103-203.769 21.103-162.13 0-211.611-5.124-203.768-21.103zm336.291-76.61c-7.791-31.807-25.613-77.912-39.603-102.455-24.83-43.556-25.617-42.898-32.917 27.51-8.74 84.307-48.981 79.705-48.981-5.601 0-47.073-8.465-58.091-44.632-58.091-47.468 0-74.3 38.158-99.675 141.75l-14.928 60.943 147.451-3.111 147.451-3.112zm-82.669-184.001c-21.075-4.226-60.752-4.379-88.172-.34-27.42 4.037-10.177 7.495 38.318 7.682 48.495.187 70.93-3.117 49.854-7.342zm-60.875-56.768c0-24.617-64.456-119.673-105.391-155.425-18.67-16.306-26.715-35.185-17.878-41.953 22.248-17.039 93.202 57.25 136.916 143.35 37.377 73.617 89.687 102.014 62.197 33.764-48.192-119.647-166.115-231.045-300.909-284.256-146.592-57.869-158.12-41.183-71.006 102.773C260.02 559.143 393.576 673.437 452.83 673.437c21.787 0 39.613-7.974 39.613-17.72zM261.93 421.371c-22.086-27.37 25.907-35.686 54.368-9.422 22.148 20.439 20.798 25.137-7.223 25.137-18.955 0-40.17-7.072-47.145-15.715zm433.823 171.875c101.834-82.57 207.31-274.335 150.89-274.335-48.129 0-189.117 64.63-252.542 115.767-62.906 50.72-63.235 52.025-27.554 109.611 19.86 32.055 36.11 66.629 36.11 76.832 0 30.866 32.74 21.063 93.096-27.875zM311.947 196.334c4.057-16.135-12.13-48.329-35.971-71.542-35.98-35.032-45.62-37.669-56.721-15.514-18.077 36.079-16.914 100 2.084 114.551 26.538 20.325 82.882 3.227 90.608-27.495zm485.288-1.348c4.244-16.877 1.48-49.714-6.141-72.971l-13.858-42.286-43.202 42.064c-44.496 43.322-54.822 81.299-27.745 102.036 27.034 20.705 82.946 2.973 90.946-28.843zm-249.684-59.95c0-22.666-21.434-50.815-49.598-65.137-48.218-24.52-49.597-23.6-49.597 33.112 0 32.083 6.956 63.66 15.458 70.172 31.789 24.346 83.737.68 83.737-38.148z" fill="#fe2759"/></svg>