<svg xmlns="http://www.w3.org/2000/svg" width="1000mm" height="1000mm" viewBox="0 0 1000 1000"><path d="M2175.374 596.84c6.995-39.18 2.074-76.007-14.683-110.076-14.94-30.367-21.057-68.507-15.032-93.738 6.269-26.25 3.293-42.54-7.726-42.54-9.83 0-17.88-15.261-17.88-33.914 0-18.653-6.268-33.915-13.933-33.915-28.557 0-104.88-96.044-141.504-178.052-46.43-103.985-48.65-208.692-6.268-296.001 82.469-169.904 283.39-201.548 399.234-62.878 41.009 49.087 52.919 53.888 119.789 48.3 91.524-7.652 157.315 25.464 218.649 110.05 39.186 54.045 45.1 77.188 44.46 173.83-.854 130.819-39.118 221.892-127.38 303.343-31.582 29.143-57.425 64.667-57.425 78.942 0 14.275-10.75 25.954-23.892 25.954-32.508 0-47.68 73.199-24.575 118.574 24.856 48.812 4.086 68.832-26.508 25.537-13.61-19.268-21.403-57.666-18.056-89 4.025-37.89-.915-55.111-15.787-55.111-11.916 0-19.532-10.125-16.928-22.5 2.622-12.376-21.289-48.622-53.102-80.548-31.813-31.925-65.596-72.948-75.072-91.16-14.343-27.551-21.404-29.48-42.039-11.479-13.641 11.9-20.83 32.524-15.97 45.832 5.365 14.632-1.22 24.197-16.526 24.197-46.76 0-62.987 61.827-33.424 127.309 28.332 62.743 20.734 177.923-11.732 177.923-10.89 0-13.348-21.594-6.69-58.879zm343.664-154.855c-5.366-5.634-19.276-6.236-30.923-1.34-12.873 5.416-9.049 9.432 9.745 10.246 17.014.737 26.538-3.275 21.178-8.907zm93.024-114.106c105.917-116.178 133.425-284.868 64.48-395.45-39.587-63.505-120.947-109.037-185.402-103.762l-56.467 4.62-9.025 121.819c-7.135 96.239-19.465 139.469-58.748 205.886-49.614 83.877-49.656 84.178-19.812 131.993 81.53 130.632 167.39 141.938 264.974 34.895zm-218.417-23.2c-68.572-82.084-37.063-92.221 38.808-12.484 65.346 68.68 68.498 75.249 36.155 75.249-12.391 0-46.125-28.244-74.963-62.764zM2652.48 49.192c0-16.489-18.41-58.458-40.917-93.266-45.412-70.246-32.374-84.843 21.727-24.318 39.82 44.554 65.888 147.562 37.344 147.562-9.983 0-18.154-13.49-18.154-29.978zm-169.408-173.51c-5.67-9.618 7.903-16.958 31.32-16.958 22.708 0 41.283 7.631 41.283 16.958 0 9.326-14.093 16.957-31.314 16.957-17.226 0-35.807-7.631-41.289-16.957zm-286.72 430.646c-5.367-5.634-19.276-6.236-30.923-1.34-12.867 5.416-9.044 9.431 9.75 10.245 17.007.737 26.539-3.269 21.173-8.906zm76.822-77.444c60.943-50.383 120.825-191.677 120.941-285.373 0-187.53-177.207-311.13-317.552-221.192-66.444 42.58-102.495 101.46-113.124 184.766C1943.932 59.947 2065.385 265.7 2175.125 265.7c30.49 0 72.675-15.84 98.049-36.817zm-186.629-46.665c-42.978-45.166-61.047-86.092-38.015-86.092 9.672 0 119.923 119.106 119.923 129.552 0 20.947-41.66-1.16-81.908-43.46zM2341.898-49.21c-6.653-7.112-12.098-27.651-12.098-45.641s-15.312-55.313-34.033-82.937c-18.715-27.625-30.088-54.367-25.27-59.428 27.856-29.28 96.129 92.635 88.506 158.044-2.744 23.592-10.452 37.075-17.105 29.962zm-173.445-210.767c0-22.055 59.639-22.055 72.609 0 5.67 9.618-7.903 16.957-31.32 16.957-22.708 0-41.289-7.63-41.289-16.957z" fill="#7c7c7c"/><path d="M1300.615 568.147c.742-1.725 3.734-11.188 6.637-21.029l5.28-17.892-11.97-11.813c-13.518-13.34-22.498-28.242-25.377-42.114-1.789-8.619-1.4-9.41 4.636-9.41 3.623 0 13.576 3.426 22.12 7.614l15.532 7.614-4.797-6.36c-2.64-3.497-6.675-6.358-8.969-6.358-2.295 0-3.467-.992-2.604-2.204.862-1.212-2.087-2.84-6.555-3.615-5.245-.912-10.798-4.923-15.675-11.325-7.58-9.95-7.563-12.97.11-12.97 2.26 0 6.329-2.379 9.04-5.287 4.912-5.27 4.958-5.251 12.995 5.297 5.007 6.574 7.477 12.533 6.516 15.725-1.677 5.57 15.91 29.587 17.889 24.429.611-1.585-1.855-5.619-5.475-8.965-7.04-6.509-5.788-11.45 1.558-6.155 3.683 2.655 4.404 2.394 4.404-1.594 0-2.622-2.6-6.702-5.779-9.065-8.014-5.96-8.657-31.015-.72-28.155 6.356 2.29 9.532 2.29 15.889 0 7.935-2.86 7.292 22.194-.72 28.155-6.812 5.065-7.596 8.649-1.445 6.598 5.606-1.868 5.606 2.58 0 6.621-4.769 3.438-6.116 16.31-1.444 13.802 1.589-.853 2.888-4.428 2.888-7.945 0-4.27 1.27-5.97 3.82-5.121 5.078 1.693 10.646-6.401 8.745-12.715-.917-3.06 1.644-9.177 6.55-15.615 8.036-10.548 8.082-10.567 12.995-5.297 2.71 2.908 6.78 5.288 9.04 5.288 7.64 0 7.657 3.019.11 12.97-4.878 6.401-10.43 10.412-15.675 11.324-4.467.776-7.418 2.403-6.555 3.615.862 1.212-.306 2.204-2.603 2.204-2.294 0-6.331 2.861-8.969 6.359l-4.797 6.36 15.531-7.615c8.543-4.188 18.497-7.614 22.121-7.614 6.034 0 6.424.791 4.635 9.41-2.878 13.872-11.858 28.774-25.377 42.114l-11.971 11.813 5.28 17.892c2.905 9.84 5.891 19.304 6.638 21.029 1.026 2.375-5.457 3.137-26.706 3.137s-27.734-.762-26.706-3.137zm44.074-11.388c-1.015-4.727-3.356-11.58-5.19-15.229-3.253-6.474-3.357-6.376-4.314 4.09-1.145 12.53-6.419 11.847-6.419-.833 0-6.997-1.11-8.635-5.85-8.635-6.22 0-9.738 5.672-13.063 21.07l-1.956 9.059 19.324-.463 19.325-.463zm-10.834-27.35c-2.762-.628-7.962-.65-11.556-.047-3.594.6-1.333 1.114 5.023 1.142 6.355.028 9.295-.463 6.533-1.092zm-7.978-8.438c0-3.659-8.448-17.788-13.813-23.103-2.447-2.423-3.501-5.23-2.343-6.235 2.916-2.533 12.215 8.51 17.944 21.307 4.899 10.943 11.755 15.164 8.152 5.019-6.316-17.785-21.77-34.343-39.438-42.252-19.212-8.602-20.723-6.122-9.305 15.276 8.341 15.633 25.845 32.622 33.611 32.622 2.855 0 5.192-1.185 5.192-2.634zm-30.21-34.833c-2.895-4.068 3.394-5.305 7.124-1.4 2.903 3.037 2.726 3.736-.95 3.736-2.484 0-5.264-1.052-6.178-2.336zm56.855 25.548c13.347-12.274 27.17-40.778 19.777-40.778-6.308 0-24.786 9.607-33.099 17.208-8.245 7.539-8.287 7.733-3.61 16.292 2.602 4.765 4.732 9.904 4.732 11.42 0 4.589 4.29 3.132 12.2-4.142zm-50.301-58.998c.535-2.398-1.59-7.184-4.715-10.634-4.715-5.207-5.978-5.6-7.434-2.306-2.369 5.363-2.216 14.864.273 17.027 3.48 3.02 10.864.48 11.876-4.087zm63.602-.2c.557-2.509.196-7.39-.808-10.847l-1.817-6.285-5.662 6.252c-5.831 6.44-7.184 12.085-3.636 15.167 3.544 3.078 10.871.442 11.92-4.287zm-32.724-8.911c0-3.37-2.809-7.554-6.5-9.682-6.32-3.645-6.5-3.508-6.5 4.922 0 4.768.917 9.462 2.026 10.43 4.166 3.619 10.974.101 10.974-5.67z" fill="#7f7f7f"/><path d="M484.76 980.133c-16.516-42.963-1.281-420.626 16.95-420.622 22.882.006 31.957 406.33 9.575 428.675-11.284 11.262-20.134 8.574-26.525-8.053zm-177.9-82.192c0-9.303 7.627-16.916 16.943-16.916 9.318 0 16.946 7.613 16.946 16.916 0 9.304-7.628 16.915-16.946 16.915-9.316 0-16.944-7.611-16.944-16.915zm355.814 0c0-9.303 7.627-16.916 16.944-16.916 9.324 0 16.945 7.613 16.945 16.916 0 9.304-7.62 16.915-16.945 16.915-9.317 0-16.944-7.611-16.944-16.915zm-345.978-54.975c-3.33-11.63-14.326-70.153-24.45-130.053-10.945-64.772-35.427-132.788-60.403-167.831-43.514-61.061-42.554-104.261 1.537-67.75 51.091 42.333 95.579 159.243 103.732 272.6 4.546 62.798 3.138 114.178-3.074 114.178s-14-9.515-17.323-21.144zM666.42 754.16c8.081-117.768 51.436-233.57 103.641-276.828 44.443-36.821 44.872 6.92.707 68.932-27.05 37.956-50.252 104.042-62.958 179.327-26.947 159.644-51.513 176.614-41.356 28.57zm-512.057-59.204c0-9.303 7.627-16.915 16.944-16.915 9.325 0 16.946 7.612 16.946 16.915 0 9.304-7.621 16.916-16.946 16.916-9.317 0-16.944-7.612-16.944-16.916zm643.863 0c0-9.303 7.626-16.915 16.944-16.915 9.318 0 16.944 7.612 16.944 16.915 0 9.304-7.626 16.916-16.944 16.916-9.318 0-16.944-7.612-16.944-16.916zM374.632 576.548c0-9.303 7.627-16.915 16.944-16.915 9.318 0 16.946 7.612 16.946 16.915 0 9.304-7.628 16.916-16.946 16.916-9.317 0-16.944-7.612-16.944-16.916zm220.269 0c0-9.303 7.627-16.915 16.944-16.915 9.318 0 16.946 7.612 16.946 16.915 0 9.304-7.628 16.916-16.946 16.916-9.317 0-16.944-7.612-16.944-16.916zM56.94 480.034c-23.138-4.45-38.124-19.622-38.124-38.602 0-17.198-3.97-41.584-8.812-54.19C4.5 372.833 21.22 356.774 55.11 344.003c48.56-18.3 57.865-16.376 93.657 19.359 34.837 34.774 36.591 42.29 14.204 60.84-14.05 11.641-25.546 31.651-25.546 44.467 0 23.423-10.245 24.87-80.484 11.364zm56.437-87.342c-6.02-9.708-22.318-13.288-36.234-7.956-19.865 7.61-20.992 14.88-5.251 33.809 22.426 26.976 59.78 3.695 41.492-25.853zm285 75.661c-5.764-14.92-6.212-38.06-1.093-51.42 5.123-13.363-5.508-43.108-23.605-66.102-42.727-54.235-42.036-57.161 16.65-70.028 27.268-5.978 62.688-30.841 78.704-55.247l29.125-44.375 35.664 44.233c19.615 24.328 56.63 49.41 82.251 55.737 54.299 13.405 56.265 19.88 18.643 61.386-15.377 16.962-28.723 55.622-29.651 85.909-1.41 45.306-7.704 54.04-35.587 49.275-59.127-10.108-100.771-8.59-131.17 4.782-20.103 8.844-32.827 4.335-39.936-14.148zm162.633-70.262c0-19.072 7.679-42.34 17.06-51.708 11.457-11.432 1.473-28.528-30.31-51.998l-47.375-34.967-47.767 38.026c-30.26 24.084-40.883 42.275-28.99 49.613 10.329 6.375 18.782 28.266 18.782 48.65 0 31.078 9.568 37.06 59.3 37.06 48.49 0 59.3-6.322 59.3-34.676zm304.986 71.923c0-13.555-11.487-34.17-25.538-45.81-22.388-18.55-20.64-26.067 14.198-60.841 35.465-35.408 45.385-37.548 92.235-19.895 46.723 17.607 51.411 25.458 42.67 71.455-11.925 62.724-3.074 53.973-68.497 67.959-42.324 9.053-55.068 6.074-55.068-12.868zm64.488-81.566c-26.973-16.64-55.7 8.99-39.473 35.21 8.786 14.192 18.346 13.862 36.605-1.26 19.775-16.384 20.345-23.164 2.881-33.948zm-699.87-99.46c-5.764-9.304 1.408-16.917 15.939-16.917 14.53 0 26.416 7.613 26.416 16.916 0 9.304-7.173 16.915-15.94 16.915-8.772 0-20.659-7.611-26.416-16.915zm550.665 0c0-9.304 8.076-16.917 17.944-16.917 9.869 0 13.23 7.613 7.474 16.916-5.764 9.304-13.833 16.915-17.944 16.915-4.098 0-7.474-7.611-7.474-16.915zm-449.81-71.891c-6.34-20.933-26.507-54.384-44.777-74.335-19.282-21.06-26.217-40.59-16.541-46.563 22.4-13.819 104.48 85.504 104.48 126.424 0 44.716-29.03 41-43.162-5.524zm297.32 5.524c0-40.92 82.085-140.243 104.48-126.424 9.683 5.97 2.755 25.502-16.54 46.562-18.27 19.951-38.418 53.403-44.777 74.335-14.133 46.526-43.162 50.243-43.162 5.524zM136.247 93.04c-30.155-36.272 0-83.16 53.857-83.16 29.804 0 42.023 10.668 46.23 40.376 9.048 63.902-58.52 92.786-100.087 42.784zm68.95-31.415c0-4.104-7.626-12.163-16.943-17.913-9.318-5.748-16.946-2.391-16.946 7.46 0 9.851 7.628 17.912 16.946 17.912 9.317 0 16.944-3.356 16.944-7.459zm271.098 41.29c0-9.303 7.627-16.915 16.945-16.915 9.317 0 16.945 7.612 16.945 16.915 0 9.304-7.628 16.915-16.945 16.915-9.318 0-16.945-7.611-16.945-16.915zm307.74 2.059c-12.461-7.887-20.089-32.51-16.944-54.716 6.87-48.517 76.475-56.633 104.556-12.192 32.282 51.096-33.364 101.232-87.612 66.908zm48.08-52.803c0-9.303-3.394-16.915-7.473-16.915-4.098 0-12.186 7.612-17.943 16.915-5.764 9.303-2.37 16.915 7.473 16.915 9.869 0 17.943-7.612 17.943-16.915z" fill="#7b7b7b"/><path d="M1240.531 663.46c18.781-16.27 34.818-29.583 35.638-29.583.821 0-13.879 13.312-32.66 29.582-18.782 16.27-34.818 29.582-35.638 29.582-.821 0 13.878-13.312 32.66-29.582zm22.83 25.294c-1.091-.943-2.216-8.757-2.499-17.364l-.518-15.648-2.03 16.72-2.03 16.72.315-16.72c.394-21.352 5.98-21.906 7.151-.71l.89 16.012 45.272.781 45.272.782-44.916.57c-24.704.315-45.809-.2-46.9-1.143zm-66.909-6.746l-6.404-5.89 36.409-30.766 36.408-30.767-35.01 30.923-35.008 30.923 6.636 5.733c3.65 3.153 5.902 5.732 5.005 5.732-.9 0-4.513-2.65-8.036-5.888zm158.34-22.407c0-14.856.494-20.933 1.091-13.505.608 7.427.608 19.582 0 27.01-.597 7.427-1.092 1.35-1.092-13.505zm-166.657-.644l-5.673-5.787 6.7 4.9c6.298 4.605 8.057 6.675 5.673 6.675-.563 0-3.58-2.604-6.7-5.788zm112.698-29.425c2.866-.647 7.556-.647 10.422 0 2.867.647.518 1.176-5.211 1.176-5.732 0-8.078-.53-5.211-1.176zm23.424-4.015c.247-4.158.72-4.555 1.68-1.41 1.013 3.325 5.41 4.6 18.266 5.302l16.932.923-18.612.486c-17.574.46-18.593.164-18.266-5.3zm-54.173-6.43l-7.219-7.075 8.19 6.237c7.653 5.828 9.554 7.911 7.218 7.911-.529 0-4.218-3.183-8.189-7.074zm-32.644.525c-2.1-2.186-5.949-3.275-8.553-2.42-3.816 1.254-4.006.922-.98-1.712 3.035-2.64 5.022-2.174 10.34 2.42 3.622 3.128 5.781 5.688 4.8 5.688-.98 0-3.505-1.79-5.607-3.976zm53.715.393c0-.556 2.08-1.7 4.621-2.543 2.65-.879 3.846-.448 2.802 1.01-1.749 2.445-7.423 3.616-7.423 1.533zm22.354-1.532c-1.046-1.459.158-1.89 2.803-1.011 5.159 1.71 6.102 3.553 1.82 3.553-1.542 0-3.621-1.144-4.623-2.542zm-48.134-23.834c-.934-1.302-.124-3.714 1.797-5.359 2.662-2.282 2.975-1.824 1.319 1.933-1.452 3.293-1.092 4.344 1.103 3.173 1.803-.963 3.982-.767 4.841.435.856 1.203-.45 2.186-2.903 2.186-2.457 0-5.23-1.065-6.161-2.368zm27.575 1.082c-.844-1.18.36-2.144 2.672-2.144 2.313 0 3.515.965 2.67 2.144-.844 1.179-2.044 2.143-2.67 2.143-.63 0-1.828-.964-2.672-2.143zm30.961.122c0-1.111 2.68-2.02 5.956-2.02 3.275 0 5.955.909 5.955 2.02 0 1.112-2.68 2.021-5.955 2.021-3.276 0-5.956-.909-5.956-2.02zm3.02-9.334c1.929-1.665 3.942-1.665 5.871 0 1.928 1.666.923 2.536-2.935 2.536-3.857 0-4.864-.87-2.935-2.536zm-25.354-1.506c1.013-1.415 2.432-2.573 3.153-2.573.72 0 1.314 1.158 1.314 2.573s-1.42 2.572-3.154 2.572-2.325-1.157-1.313-2.572zm-22.292-3.638c1.93-1.666 3.943-1.666 5.872 0 1.928 1.666.923 2.535-2.936 2.535-3.856 0-4.864-.87-2.936-2.535zm62.493-6.652c0-1.414 1.34-2.572 2.978-2.572 1.638 0 2.978 1.158 2.978 2.572 0 1.415-1.34 2.573-2.978 2.573-1.637 0-2.978-1.158-2.978-2.573z" fill="#a6a6a6"/><path d="M1194.93 685.826c-9.364-8.443-9.667-10.081-3.044-16.404 4.65-4.438 4.534-5.119-1.866-11.004-8.797-8.088-6.578-12.535 8.158-16.348 13.903-3.599 18.89-8.081 23.086-20.754 3.69-11.147 11.21-13.19 20.575-5.592 5.975 4.85 7.157 5.02 10.521 1.519 5.65-5.88 9.77-4.885 20.927 5.059 11.546 10.29 14.89 11.156 14.89 3.858 0-2.83 1.847-5.144 4.103-5.144 2.258 0 6.277-2.605 8.934-5.788l4.83-5.788 4.83 5.788c2.657 3.183 6.677 5.788 8.934 5.788 2.256 0 4.103 2.315 4.103 5.144 0 4.576 1.985 5.145 17.962 5.145h17.962l-.833 30.225-.844 30.225h-98.27l-.303-18.007-.304-18.006 1.796 16.72 1.796 16.72 44.442.715c33.556.54 45.032-.09 46.855-2.572 1.328-1.808 2.436-14.573 2.46-28.368v-25.08h-81.987l-34.15 29.582c-18.781 16.27-34.924 29.582-35.872 29.582-.945 0-5.326-3.247-9.728-7.215zm45.51-27.433l34.057-29.503-7.167-6.59-7.167-6.59-35.058 30.205-35.057 30.204 6.404 5.889c3.523 3.238 7.198 5.888 8.168 5.888.968 0 17.088-13.276 35.82-29.503zm-33.872-1.707c5.637-5.451 5.628-5.474-1.4-3.583-4.86 1.309-6.436 1.013-5.035-.944 1.125-1.566 3.968-2.848 6.328-2.848 2.36 0 4.29-1.157 4.29-2.572 0-2.916-4.384-3.21-14.143-.951-7.962 1.843-8.482 5.276-1.773 11.68 6.007 5.734 4.922 5.807 11.733-.782zm17.86-15.354c5.618-5.363 5.603-5.4-1.742-4.502-4.136.506-7.844 2.894-8.4 5.407-1.342 6.085 3.248 5.675 10.142-.905zm4.19-11.161c0-2.04 1.485-4.5 3.299-5.467 2.255-1.204 2.626.17 1.177 4.35l-2.12 6.11 6.93-5.788 6.929-5.788-6.586-5.688c-7.693-6.647-11.568-4.577-14.41 7.698-1.25 5.4-.754 8.28 1.432 8.28 1.843 0 3.35-1.669 3.35-3.707zm89.337-2.725c3.029-3.151 2.85-3.858-.98-3.858-2.575 0-6.09-2.026-7.809-4.502-2.977-4.287-3.274-4.287-6.251 0-1.72 2.476-5.234 4.502-7.81 4.502-3.825 0-4.004.707-.979 3.858 2.038 2.123 7.399 3.859 11.911 3.859s9.873-1.736 11.911-3.859zm-45.783-21.52c-.574-.897-1.883-4.687-2.915-8.423-1.496-5.418-.36-7.651 5.629-11.04 4.127-2.335 8.943-3.478 10.702-2.539 1.835.98-.675 3.329-5.88 5.507-7.906 3.307-8.623 4.431-5.545 8.688 4.2 5.81 14.014 6.532 14.014 1.032 0-2.122 1.419-3.859 3.153-3.859 1.735 0 2.326-1.157 1.314-2.572-1.013-1.415-.394-2.572 1.37-2.572 2.934 0 1.366 12.105-1.995 15.396-1.95 1.91-18.668 2.231-19.847.381zm53.355-13.028c-2.202-3.078 3.4-6.128 7.367-4.01 3.33 1.777 1.143 6.404-3.027 6.404-1.445 0-3.398-1.077-4.34-2.394zm-24.913-24.751c1.348-5.588 6.632-5.93 7.84-.507.631 2.815-.832 4.501-3.9 4.501-2.86 0-4.501-1.664-3.94-3.994z" fill="#7f7f7f"/></svg>