<svg xmlns="http://www.w3.org/2000/svg" width="1000mm" height="1000mm" viewBox="0 0 1000 1000"><path d="M483.655 981.929c-16.626-43.216-1.3-423.1 17.07-423.095 23.038.007 32.172 408.718 9.637 431.195-11.358 11.329-20.272 8.625-26.707-8.1zm-179.11-82.675c0-9.358 7.677-17.015 17.06-17.015 9.382 0 17.059 7.657 17.059 17.015s-7.677 17.015-17.06 17.015c-9.382 0-17.058-7.657-17.058-17.015zm358.24 0c0-9.358 7.677-17.015 17.06-17.015 9.382 0 17.059 7.657 17.059 17.015s-7.677 17.015-17.06 17.015c-9.382 0-17.058-7.657-17.058-17.015zm-348.334-55.298c-3.346-11.698-14.423-70.566-24.616-130.818-11.022-65.152-35.667-133.568-60.813-168.818-43.814-61.42-42.843-104.873 1.524-68.148 51.44 42.581 96.23 160.18 104.437 274.202 4.546 63.168 3.155 114.85-3.092 114.85-6.246 0-14.094-9.57-17.44-21.268zm352.104-89.328c8.134-118.46 51.785-234.945 104.35-278.456 44.743-37.037 45.171 6.96.674 69.338-27.235 38.178-50.595 104.653-63.388 180.381-27.127 160.582-51.86 177.652-41.636 28.737zm-515.54-59.552c0-9.358 7.676-17.015 17.058-17.015 9.383 0 17.06 7.657 17.06 17.015s-7.677 17.015-17.06 17.015c-9.382 0-17.059-7.657-17.059-17.015zm648.243 0c0-9.358 7.677-17.015 17.06-17.015 9.382 0 17.058 7.657 17.058 17.015s-7.676 17.015-17.059 17.015c-9.382 0-17.059-7.657-17.059-17.015zM372.782 575.972c0-9.358 7.677-17.015 17.06-17.015 9.382 0 17.058 7.657 17.058 17.015s-7.676 17.015-17.059 17.015c-9.382 0-17.059-7.657-17.059-17.015zm221.768 0c0-9.358 7.676-17.015 17.059-17.015 9.382 0 17.059 7.657 17.059 17.015s-7.677 17.015-17.06 17.015c-9.382 0-17.058-7.657-17.058-17.015zM52.925 478.89c-23.297-4.476-38.383-19.737-38.383-38.829 0-17.3-3.992-41.83-8.87-54.51-5.576-14.492 11.29-30.645 45.412-43.491 48.891-18.406 58.257-16.472 94.295 19.473 35.07 34.978 36.835 42.54 14.295 61.198-14.145 11.709-25.719 31.837-25.719 44.728 0 23.56-10.314 25.016-81.03 11.43zm56.82-87.856c-6.05-9.764-22.465-13.366-36.478-8.002-20 7.654-21.138 14.967-5.294 34.007 22.578 27.134 60.191 3.72 41.773-26.005zm286.944 76.107c-5.774-15.008-6.268-38.284-1.097-51.724 5.171-13.44-5.523-43.36-23.763-66.49-43.024-54.553-42.323-57.497 16.758-70.44 27.457-6.015 63.117-31.022 79.245-55.572l29.322-44.635 35.903 44.493c19.747 24.472 57.015 49.7 82.816 56.065 54.667 13.484 56.647 19.997 18.765 61.746-15.48 17.063-28.915 55.949-29.853 86.414-1.403 45.573-7.754 54.36-35.824 49.565-59.533-10.167-101.462-8.64-132.064 4.809-20.243 8.896-33.055 4.362-40.208-14.231zm163.743-70.676c0-19.184 7.729-42.59 17.176-52.012 11.529-11.499 1.494-28.695-30.52-52.304l-47.698-35.172-48.094 38.25c-30.46 24.225-41.162 42.523-29.186 49.905 10.4 6.41 18.908 28.431 18.908 48.935 0 31.261 9.638 37.279 59.707 37.279 48.82 0 59.707-6.36 59.707-34.88zm307.062 72.346c0-13.635-11.573-34.371-25.718-46.08-22.54-18.659-20.775-26.22 14.295-61.198 35.708-35.616 45.697-37.769 92.862-20.012 47.042 17.71 51.763 25.608 42.962 71.876-12.002 63.092-3.122 54.29-68.959 68.358-42.616 9.106-55.442 6.112-55.442-12.944zm64.922-82.046c-27.153-16.738-56.082 9.044-39.74 35.417 8.846 14.275 18.473 13.944 36.851-1.27 19.91-16.48 20.486-23.3 2.889-34.147zM227.78 286.72c-5.799-9.358 1.425-17.015 16.052-17.015 14.628 0 26.596 7.657 26.596 17.015s-7.224 17.015-16.053 17.015c-8.828 0-20.796-7.657-26.595-17.015zm554.42 0c0-9.358 8.129-17.015 18.065-17.015 9.936 0 13.321 7.657 7.523 17.015-5.799 9.358-13.929 17.015-18.066 17.015-4.138 0-7.523-7.657-7.523-17.015zm-452.877-72.313c-6.402-21.056-26.688-54.703-45.08-74.772-19.415-21.185-26.4-40.828-16.653-46.836 22.55-13.9 105.192 86.006 105.192 127.167 0 44.979-29.23 41.24-43.459-5.56zm299.345 5.559c0-41.16 82.642-141.068 105.192-127.167 9.746 6.008 2.762 25.651-16.653 46.836-18.393 20.069-38.679 53.716-45.08 74.772-14.23 46.799-43.46 50.538-43.46 5.559zm-495.9-130.343c-30.358-36.485.214-83.648 54.224-83.648 30.011 0 42.31 10.73 46.545 40.613 9.112 64.278-58.918 93.331-100.768 43.035zm69.424-31.6c0-4.126-7.677-12.235-17.06-18.018-9.382-5.784-17.059-2.408-17.059 7.503 0 9.91 7.677 18.019 17.06 18.019 9.382 0 17.059-3.377 17.059-7.503zm272.944 41.534c0-9.359 7.677-17.015 17.06-17.015 9.382 0 17.058 7.656 17.058 17.015 0 9.358-7.676 17.014-17.059 17.014-9.382 0-17.059-7.656-17.059-17.014zm309.835 2.069c-12.549-7.934-20.225-32.701-17.059-55.038 6.919-48.803 76.992-56.967 105.264-12.263 32.503 51.395-33.592 101.827-88.205 67.3zm48.405-53.114c0-9.358-3.385-17.015-7.522-17.015-4.138 0-12.268 7.657-18.066 17.015-5.799 9.358-2.414 17.015 7.523 17.015 9.936 0 18.065-7.657 18.065-17.015z" fill="#fe2154"/></svg>