<svg xmlns="http://www.w3.org/2000/svg" width="1000mm" height="1000mm" viewBox="0 0 1000 1000"><g fill="#ff204f"><path d="M321.046 648.42c104.123-83.816 193.033-152.393 197.576-152.393 4.555 0-76.943 68.577-181.066 152.394-104.13 83.816-193.034 152.393-197.576 152.393-4.555 0 76.936-68.577 181.066-152.393zm126.573 130.308c-6.052-4.859-12.292-45.11-13.858-89.448l-2.87-80.614-11.257 86.135-11.257 86.135 1.748-86.135c2.184-109.996 33.152-112.85 39.647-3.655l4.93 82.481 250.995 4.027 250.989 4.026-249.017 2.941c-136.957 1.618-253.966-1.034-260.018-5.893zM76.671 743.974l-35.505-30.336L243.017 555.14l201.85-158.499-194.094 159.303L56.685 715.246l36.79 29.532c20.235 16.243 32.72 29.533 27.748 29.533-4.992 0-25.022-13.652-44.552-30.337zm877.837-115.43c0-76.529 2.746-107.836 6.053-69.572 3.37 38.264 3.37 100.878 0 139.142-3.307 38.264-6.053 6.957-6.053-69.57zm-923.95-3.314L-.89 595.414l37.146 25.244c34.911 23.723 44.664 34.388 31.448 34.388-3.12 0-19.842-13.417-37.145-29.816zM655.36 473.64c15.893-3.332 41.894-3.332 57.78 0 15.894 3.334 2.871 6.061-28.89 6.061-31.779 0-44.782-2.727-28.89-6.06zm129.863-20.68c1.373-21.42 3.993-23.465 9.316-7.262 5.616 17.124 29.994 23.699 101.265 27.31l93.871 4.756-103.18 2.506c-97.435 2.366-103.082.843-101.272-27.31zM484.89 419.83l-40.022-36.441 45.4 32.126c42.43 30.026 52.97 40.757 40.022 40.757-2.932 0-23.386-16.399-45.4-36.442zm-180.979 2.71c-11.643-11.264-32.983-16.874-47.422-12.466-21.153 6.459-22.208 4.747-5.429-8.82 16.823-13.598 27.842-11.201 57.325 12.466 20.08 16.115 32.048 29.3 26.606 29.3-5.428 0-19.43-9.216-31.08-20.48zm297.794 2.021c0-2.864 11.53-8.76 25.62-13.1 14.695-4.525 21.321-2.304 15.537 5.208-9.696 12.592-41.157 18.625-41.157 7.892zm123.934-7.892c-5.803-7.512.874-9.733 15.537-5.208 28.603 8.81 33.832 18.308 10.09 18.308-8.549 0-20.073-5.895-25.627-13.1zM458.782 293.89c-5.179-6.708-.686-19.131 9.96-27.607 14.762-11.756 16.497-9.395 7.312 9.955-8.05 16.968-6.052 22.38 6.115 16.348 9.996-4.959 22.076-3.95 26.844 2.243 4.742 6.193-2.496 11.26-16.099 11.26-13.621 0-28.99-5.49-34.157-12.198zm152.875 5.573c-4.68-6.074 1.997-11.043 14.813-11.043 12.823 0 19.487 4.97 14.807 11.043-4.68 6.073-11.337 11.043-14.807 11.043-3.494 0-10.133-4.97-14.813-11.043zm171.65.63c0-5.726 14.857-10.411 33.021-10.411 18.158 0 33.015 4.685 33.015 10.412 0 5.726-14.857 10.412-33.015 10.412-18.164 0-33.02-4.686-33.02-10.412zm16.748-48.084c10.688-8.582 21.851-8.582 32.546 0 10.69 8.582 5.117 13.063-16.273 13.063-21.384 0-26.968-4.48-16.273-13.063zm-140.57-7.761c5.616-7.289 13.484-13.252 17.484-13.252 3.993 0 7.282 5.963 7.282 13.252 0 7.288-7.869 13.251-17.484 13.251-9.616 0-12.892-5.963-7.282-13.251zM535.9 225.505c10.695-8.582 21.858-8.582 32.553 0 10.689 8.582 5.116 13.063-16.28 13.063-21.377 0-26.962-4.481-16.273-13.063zm346.464-34.265c0-7.288 7.431-13.251 16.51-13.251s16.51 5.963 16.51 13.251c0 7.289-7.431 13.252-16.51 13.252s-16.51-5.963-16.51-13.252z"/><path d="M68.235 763.647c-51.915-43.497-53.6-51.937-16.879-84.506 25.777-22.864 25.134-26.373-10.346-56.688-48.77-41.669-36.471-64.575 45.226-84.221 77.08-18.537 104.729-41.632 127.99-106.916 20.461-57.423 62.155-67.953 114.07-28.808 33.127 24.983 39.679 25.862 58.33 7.825 31.323-30.293 54.167-25.161 116.022 26.062 64.008 53.01 82.546 57.473 82.546 19.878 0-14.577 10.24-26.504 22.75-26.504 12.517 0 34.8-13.417 49.532-29.816l26.775-29.816 26.78 29.816c14.727 16.4 37.015 29.816 49.526 29.816 12.51 0 22.75 11.927 22.75 26.504 0 23.573 11.007 26.503 99.58 26.503h99.581l-4.617 155.706-4.68 155.706H428.364l-1.685-92.761-1.685-92.761 9.959 86.135 9.958 86.135 246.384 3.68c186.04 2.78 249.66-.465 259.769-13.25 7.363-9.313 13.503-75.074 13.64-146.136V496.027H510.16L320.84 648.42c-104.13 83.817-193.627 152.394-198.88 152.394-5.242 0-29.528-16.725-53.931-37.167zM320.54 622.324l188.816-151.987-39.735-33.95-39.735-33.949-194.363 155.6-194.357 155.6 35.505 30.336c19.53 16.685 39.903 30.337 45.282 30.337 5.366 0 94.738-68.395 198.587-151.987zm-187.786-8.794c31.249-28.084 31.199-28.201-7.762-18.457-26.944 6.738-35.68 5.216-27.917-4.865 6.24-8.07 22.001-14.671 35.086-14.671 13.085 0 23.786-5.964 23.786-13.252 0-15.02-24.31-16.538-78.415-4.9-44.14 9.495-47.023 27.18-9.828 60.176 33.302 29.536 27.287 29.91 65.05-4.03zm99.013-79.099c31.149-27.627 31.068-27.816-9.653-23.19-22.931 2.604-43.491 14.904-46.568 27.854-7.444 31.345 18.002 29.235 56.22-4.664zm23.237-57.499c0-10.502 8.23-23.176 18.282-28.163 12.505-6.203 14.564.874 6.527 22.408l-11.75 31.476 38.413-29.816 38.418-29.816-36.509-29.3c-42.655-34.243-64.139-23.581-79.894 39.653-6.933 27.816-4.18 42.653 7.943 42.653 10.215 0 18.57-8.593 18.57-19.095zm495.282-14.034c16.791-16.235 15.8-19.877-5.428-19.877-14.283 0-33.764-10.436-43.298-23.19-16.504-22.086-18.152-22.086-34.656 0-9.534 12.754-29.015 23.19-43.298 23.19-21.209 0-22.2 3.642-5.428 19.877 11.3 10.933 41.02 19.878 66.035 19.878 25.015 0 54.736-8.945 66.036-19.878zM496.464 352.031c-3.182-4.619-10.439-24.143-16.16-43.388-8.293-27.912-1.997-39.417 31.205-56.87 22.88-12.033 49.58-17.92 59.334-13.081 10.17 5.045-3.744 17.145-32.603 28.366-43.828 17.037-47.803 22.828-30.737 44.76 23.28 29.928 77.691 33.649 77.691 5.313 0-10.933 7.869-19.878 17.484-19.878 9.616 0 12.891-5.963 7.282-13.251-5.616-7.288-2.184-13.252 7.594-13.252 16.267 0 7.575 62.361-11.057 79.319-10.808 9.839-103.5 11.492-110.033 1.962zm295.803-67.113c-12.21-15.857 18.85-31.569 40.84-20.66 18.463 9.16 6.34 32.995-16.779 32.995-8.012 0-18.838-5.55-24.06-12.335zM654.15 157.412c7.469-28.784 36.765-30.545 43.466-2.613 3.495 14.505-4.617 23.19-21.62 23.19-15.862 0-24.96-8.571-21.846-20.577z"/></g></svg>