<svg xmlns="http://www.w3.org/2000/svg" width="1000mm" height="1000mm" viewBox="0 0 1000 1000"><path d="M328.136 626.826c104.123-83.816 193.033-152.393 197.576-152.393 4.555 0-76.943 68.577-181.066 152.393C240.516 710.643 151.612 779.22 147.07 779.22c-4.555 0 76.936-68.577 181.066-152.394zM454.71 757.134c-6.053-4.86-12.293-45.111-13.859-89.449l-2.87-80.613-11.257 86.135-11.256 86.135 1.747-86.135c2.184-109.996 33.152-112.85 39.647-3.655l4.93 82.48 250.995 4.028 250.989 4.026-249.017 2.94c-136.957 1.619-253.966-1.033-260.018-5.892zM83.76 722.38l-35.504-30.336 201.851-158.499 201.85-158.499L257.864 534.35 63.775 693.652l36.79 29.532c20.235 16.243 32.721 29.532 27.748 29.532-4.992 0-25.022-13.65-44.552-30.336zm877.839-115.43c0-76.528 2.746-107.835 6.053-69.57 3.37 38.263 3.37 100.877 0 139.14-3.307 38.265-6.053 6.958-6.053-69.57zm-923.95-3.313L6.2 573.82l37.146 25.244c34.911 23.723 44.664 34.388 31.448 34.388-3.12 0-19.842-13.417-37.145-29.816zm624.803-151.59c15.892-3.333 41.893-3.333 57.78 0 15.893 3.334 2.87 6.06-28.89 6.06-31.78 0-44.783-2.726-28.89-6.06zm129.862-20.68c1.373-21.42 3.993-23.465 9.316-7.263 5.616 17.125 29.994 23.7 101.265 27.31l93.871 4.757-103.18 2.506c-97.435 2.366-103.082.843-101.272-27.31zm-300.333-33.13l-40.022-36.442 45.4 32.126c42.43 30.027 52.97 40.758 40.022 40.758-2.932 0-23.386-16.399-45.4-36.442zM311 400.946c-11.643-11.264-32.983-16.874-47.422-12.467-21.153 6.46-22.208 4.748-5.429-8.82 16.823-13.598 27.842-11.2 57.325 12.466 20.08 16.116 32.048 29.301 26.607 29.301-5.43 0-19.431-9.216-31.08-20.48zm297.794 2.02c0-2.864 11.53-8.759 25.62-13.1 14.695-4.524 21.322-2.303 15.537 5.209-9.696 12.592-41.157 18.624-41.157 7.892zm123.934-7.891c-5.803-7.512.874-9.733 15.537-5.208 28.603 8.81 33.832 18.308 10.09 18.308-8.549 0-20.073-5.895-25.627-13.1zm-266.857-122.78c-5.179-6.708-.686-19.131 9.96-27.607 14.763-11.756 16.497-9.396 7.312 9.954-8.05 16.969-6.052 22.38 6.115 16.349 9.996-4.96 22.077-3.95 26.844 2.243 4.742 6.193-2.496 11.26-16.099 11.26-13.621 0-28.99-5.49-34.156-12.198zm152.875 5.572c-4.68-6.073 1.997-11.043 14.813-11.043 12.823 0 19.487 4.97 14.807 11.043-4.68 6.074-11.337 11.043-14.807 11.043-3.494 0-10.133-4.969-14.813-11.043zm171.65.632c0-5.727 14.857-10.412 33.021-10.412 18.158 0 33.015 4.685 33.015 10.412 0 5.726-14.857 10.412-33.015 10.412-18.164 0-33.02-4.686-33.02-10.412zm16.748-48.085c10.689-8.582 21.852-8.582 32.546 0 10.69 8.582 5.117 13.062-16.273 13.062-21.384 0-26.968-4.48-16.273-13.062zm-140.57-7.761c5.616-7.289 13.484-13.252 17.484-13.252 3.993 0 7.282 5.963 7.282 13.252 0 7.288-7.869 13.251-17.484 13.251-9.616 0-12.892-5.963-7.282-13.251zM542.99 203.91c10.695-8.582 21.858-8.582 32.553 0 10.689 8.582 5.116 13.062-16.28 13.062-21.377 0-26.962-4.48-16.273-13.062zm346.464-34.265c0-7.288 7.431-13.251 16.51-13.251 9.08 0 16.51 5.963 16.51 13.251 0 7.289-7.43 13.252-16.51 13.252-9.079 0-16.51-5.963-16.51-13.252z" fill="#a6a6a6"/><path d="M75.325 742.053c-51.915-43.497-53.6-51.937-16.879-84.506 25.777-22.864 25.134-26.373-10.345-56.688-48.77-41.67-36.472-64.575 45.225-84.221 77.08-18.537 104.729-41.632 127.99-106.916 20.461-57.423 62.155-67.953 114.07-28.808 33.127 24.983 39.679 25.862 58.33 7.825 31.323-30.294 54.167-25.162 116.022 26.062 64.008 53.009 82.546 57.473 82.546 19.877 0-14.576 10.24-26.503 22.75-26.503 12.517 0 34.8-13.417 49.532-29.816l26.775-29.816 26.78 29.816c14.727 16.399 37.015 29.816 49.526 29.816 12.51 0 22.75 11.927 22.75 26.503 0 23.574 11.007 26.503 99.58 26.503h99.582l-4.618 155.707-4.68 155.706H435.454l-1.685-92.761-1.685-92.761 9.959 86.135L452 759.342l246.384 3.68c186.04 2.78 249.66-.465 259.769-13.251 7.363-9.313 13.503-75.073 13.64-146.135V474.433H517.25L327.93 626.826C223.8 710.643 134.303 779.22 129.05 779.22c-5.242 0-29.527-16.725-53.931-37.167zM327.63 600.729l188.816-151.987-39.735-33.949-39.735-33.949-194.363 155.6-194.357 155.6 35.505 30.336c19.53 16.685 39.903 30.336 45.282 30.336 5.366 0 94.739-68.394 198.587-151.987zm-187.786-8.793c31.249-28.084 31.199-28.202-7.762-18.458-26.944 6.74-35.68 5.217-27.917-4.864 6.24-8.07 22.001-14.672 35.086-14.672 13.085 0 23.786-5.963 23.786-13.251 0-15.02-24.31-16.539-78.415-4.9-44.14 9.495-47.023 27.18-9.828 60.176 33.302 29.536 27.287 29.909 65.05-4.03zm99.013-79.1c31.149-27.626 31.068-27.815-9.653-23.19-22.931 2.605-43.491 14.905-46.568 27.855-7.444 31.345 18.002 29.234 56.22-4.664zm23.237-57.498c0-10.503 8.23-23.176 18.282-28.163 12.505-6.204 14.564.874 6.527 22.408l-11.75 31.476 38.413-29.816 38.418-29.816-36.509-29.301c-42.655-34.242-64.139-23.58-79.894 39.653-6.932 27.817-4.18 42.654 7.943 42.654 10.215 0 18.57-8.593 18.57-19.095zm495.282-14.034c16.792-16.236 15.8-19.877-5.428-19.877-14.283 0-33.764-10.436-43.298-23.19-16.504-22.087-18.152-22.087-34.656 0-9.534 12.754-29.015 23.19-43.298 23.19-21.209 0-22.2 3.641-5.428 19.877 11.3 10.933 41.02 19.877 66.035 19.877 25.016 0 54.736-8.944 66.036-19.877zM503.555 330.436c-3.183-4.618-10.44-24.142-16.162-43.387-8.292-27.912-1.996-39.418 31.206-56.87 22.88-12.034 49.58-17.92 59.334-13.082 10.17 5.045-3.744 17.145-32.603 28.367-43.828 17.037-47.803 22.828-30.737 44.76 23.28 29.928 77.691 33.649 77.691 5.313 0-10.933 7.869-19.878 17.484-19.878 9.616 0 12.891-5.963 7.282-13.251-5.616-7.289-2.184-13.252 7.594-13.252 16.267 0 7.575 62.36-11.057 79.318-10.807 9.84-103.5 11.493-110.032 1.963zm295.803-67.113c-12.212-15.857 18.85-31.568 40.839-20.66 18.463 9.16 6.34 32.996-16.779 32.996-8.012 0-18.838-5.551-24.06-12.336zM661.24 135.818c7.469-28.784 36.765-30.545 43.466-2.613 3.495 14.505-4.617 23.19-21.62 23.19-15.862 0-24.96-8.572-21.846-20.577z" fill="#7f7f7f"/></svg>