<svg width="21" height="20" fill="none" xmlns="http://www.w3.org/2000/svg"><path d="M21 12.26V20h-4.53v-7.22c0-1.812-.645-3.047-2.264-3.047a2.455 2.455 0 00-2.299 1.63 3.094 3.094 0 00-.147 1.128V20H7.259s.056-12.225 0-13.488h4.5v1.906l-.033.045h.034v-.045a4.459 4.459 0 011.71-1.694 4.48 4.48 0 012.344-.562c2.96 0 5.186 1.93 5.186 6.07v.028zM2.548.007C1.008.007 0 1.011 0 2.337a2.311 2.311 0 00.742 1.716 2.328 2.328 0 001.772.614c1.574 0 2.548-1.033 2.548-2.33A2.317 2.317 0 004.318.622a2.334 2.334 0 00-1.77-.615zM.249 20h4.53V6.512H.249V20z" fill="#F1F2F2"/></svg>