<svg width="375" height="87" fill="none" xmlns="http://www.w3.org/2000/svg"><path d="M0 64.002c1.52 0 2.735-.342 3.647-1.026.911-.746 1.64-1.68 2.188-2.799.607-1.182 1.306-2.923 2.096-5.225l.912-2.612L27.623 0h2.188l20.33 53.087a41.544 41.544 0 011.732 5.504c.486 1.928.699 3.514.638 4.758l6.199-.373v4.105H37.833v-3.079c3.586-.062 5.379-1.555 5.379-4.478 0-1.182-.304-2.643-.912-4.385l-4.467-12.222H16.774c-.911 2.55-3.342 9.89-4.558 13.995a69.327 69.327 0 01-2.28 6.437l7.112-.373v4.105H0v-3.079zm37.833-21.085l-6.472-17.82-4.103-11.476h-.182l-3.83 10.543-4.922 14.181-1.55 4.572h21.06z" fill="url(#paint0_linear)"/><path fill-rule="evenodd" clip-rule="evenodd" d="M65.628 64.002c2.127-.062 3.647-.56 4.558-1.492.912-.933 1.428-2.022 1.55-3.266.121-1.306.182-3.545.182-6.717V41.11C36.14 43.13 10.563 52.837 4.435 55.163c-.937.356-1.42.539-1.414.495-.004.036.54-.239 1.577-.762 6.786-3.427 34.641-17.494 67.32-24.478V12.222c0-2.612.091-4.851.274-6.717l-6.564.373V1.773H86.14V4.85c-2.127.063-3.647.56-4.558 1.493a5.383 5.383 0 00-1.55 3.359c-.122 1.244-.182 3.452-.182 6.624v12.559c3.752-.646 7.55-1.183 11.368-1.588 8.677-.767 15.781-.304 21.268.994v-16.07c0-2.612.092-4.851.274-6.717l-6.564.373V1.773h20.512V4.85c-2.127.063-3.646.56-4.558 1.493a5.384 5.384 0 00-1.55 3.359c-.121 1.244-.182 3.452-.182 6.624v15.005c5.294 3.153 7.013 7.624 5.016 12.146-1.049 2.377-2.643 3.275-5.016 3.321v9.18c0 3.296-.091 5.753-.274 7.37l6.564-.373v4.105h-20.512v-3.079c2.127-.062 3.647-.56 4.558-1.492.912-.933 1.429-2.022 1.55-3.266.122-1.306.182-3.545.182-6.717v-7.083l-1.284-.317c-7.052-1.746-17.099-4.233-31.352-4.25v15.102c0 3.296-.092 5.753-.274 7.37l6.564-.373v4.105H65.628v-3.079zm163.188 4.274c-2.919 0-5.532-.728-7.839-2.185-2.308-1.456-4.12-3.524-5.439-6.202-1.318-2.678-1.977-5.802-1.977-9.373 0-3.759.777-7.142 2.33-10.149 1.554-3.007 3.697-5.356 6.427-7.047 2.778-1.692 5.91-2.537 9.394-2.537a16.4 16.4 0 014.449.634c1.554.376 2.826.822 3.814 1.339v-9.655c0-1.786.071-3.313.212-4.581l-5.014.282v-2.96c2.778 0 4.755-.165 5.932-.494 1.225-.329 2.166-.798 2.825-1.41h2.049v45.74c0 1.503-.095 3.1-.283 4.792l5.015-.282v2.96h-10.1c-.235-1.268-.4-2.49-.494-3.665-1.366 1.504-3.037 2.679-5.015 3.524-1.93.846-4.026 1.269-6.286 1.269zm2.543-3.453c1.506 0 3.037-.423 4.591-1.27 1.6-.892 2.942-2.02 4.025-3.382-.047-.752-.07-2.044-.07-3.876l.07-20.297c-2.213-1.645-4.826-2.467-7.839-2.467-3.39 0-6.121 1.41-8.193 4.229-2.072 2.772-3.108 6.46-3.108 11.065 0 4.792.918 8.668 2.755 11.628 1.836 2.913 4.426 4.37 7.769 4.37zm-94.997 1.127c1.836 1.55 4.473 2.326 7.91 2.326 3.955 0 7.651-1.715 11.088-5.145.189 1.973.353 3.312.495 4.017h10.099v-2.96l-5.014.282c.188-1.691.282-3.289.282-4.792l.071-15.857c.047-4.51-.871-7.8-2.754-9.867-1.884-2.114-4.803-3.171-8.758-3.171-2.637 0-5.038.375-7.204 1.127-2.119.752-3.791 1.786-5.015 3.101-1.177 1.269-1.765 2.678-1.765 4.229 0 1.033.282 1.88.847 2.537.565.61 1.342.916 2.331.916.989 0 1.742-.305 2.26-.916.518-.658.777-1.34.777-2.044 0-1.127-.306-2.02-.918-2.678.612-1.222 1.577-2.138 2.895-2.749a9.8 9.8 0 014.167-.916c2.92 0 4.827.87 5.721 2.608.895 1.691 1.342 4.064 1.342 7.118v4.37c-3.343-.048-6.686.399-10.029 1.339-3.296.892-6.05 2.278-8.263 4.157-2.166 1.88-3.249 4.182-3.249 6.907 0 2.49.894 4.51 2.684 6.061zm14.408-2.678c-1.46.658-3.085.987-4.874.987-1.601 0-2.919-.47-3.955-1.41s-1.554-2.279-1.554-4.017c0-2.96 1.507-5.145 4.52-6.554 3.014-1.457 6.451-2.255 10.312-2.396l-.071 6.624c0 1.692.024 2.89.071 3.595-1.507 1.41-2.99 2.466-4.449 3.171zm22.927.775c-.565.658-1.53.987-2.896.987v2.114h14.408v-2.89l-4.449.212c.188-1.08.282-2.678.282-4.792l.071-17.972c0-1.315-.024-2.231-.071-2.748 1.083-1.363 2.449-2.467 4.097-3.313 1.695-.845 3.39-1.268 5.085-1.268 2.731 0 4.732 1.034 6.003 3.1 1.271 2.021 1.931 5.052 1.978 9.092v9.867c0 2.255-.071 3.923-.212 5.004-.094 1.033-.447 1.903-1.06 2.607-.565.658-1.53.987-2.895.987v2.114h14.408v-2.89l-4.45.212c.188-1.08.283-2.678.283-4.792V46.569c0-5.403-.942-9.373-2.825-11.91-1.884-2.584-4.874-3.876-8.97-3.876-1.978 0-4.002.446-6.074 1.339a19.572 19.572 0 00-5.438 3.383c-.095-1.974-.189-3.407-.283-4.3h-2.048c-.706.658-1.577 1.152-2.613 1.48-1.036.282-2.943.423-5.721.423v2.96l5.014-.282c-.188 1.081-.282 2.608-.282 4.581l-.071 16.069c-.047 2.35-.117 4.04-.212 5.074-.094.987-.447 1.833-1.059 2.537zm84.405 0c-.565.658-1.53.987-2.895.987v2.114h14.408v-2.89l-4.45.212c.235-1.362.353-2.96.353-4.792l-.07-45.74h-2.049c-.659.612-1.601 1.082-2.825 1.41-1.177.33-3.178.494-6.003.494v2.96l5.014-.282c-.141 1.268-.211 2.795-.211 4.58v33.336c0 2.255-.071 3.923-.212 5.004-.094 1.033-.448 1.903-1.06 2.607zm24.046-39.819c-.989 0-1.86-.399-2.613-1.198a4.313 4.313 0 01-1.13-2.96c0-1.127.377-2.114 1.13-2.96.8-.845 1.695-1.268 2.684-1.268 1.083 0 1.977.423 2.684 1.268.753.799 1.13 1.786 1.13 2.96 0 1.128-.401 2.115-1.201 2.96-.753.799-1.648 1.198-2.684 1.198zm-6.992 40.806c1.366 0 2.331-.329 2.896-.987.612-.704.965-1.574 1.059-2.607.141-1.081.212-2.749.212-5.004V40.367c0-1.362.094-2.89.283-4.58l-5.015.281v-2.96c2.778 0 4.756-.164 5.933-.493 1.224-.329 2.166-.799 2.825-1.41h2.048v28.473c0 2.114-.094 3.712-.282 4.792l4.449-.211v2.89h-14.408v-2.115zm22.76-.987c-.565.658-1.531.987-2.896.987v2.114h14.408v-2.89l-4.449.212c.188-1.08.282-2.678.282-4.792l.071-17.972c0-1.315-.024-2.231-.071-2.748 1.083-1.363 2.448-2.467 4.096-3.313 1.695-.845 3.391-1.268 5.086-1.268 2.73 0 4.732 1.034 6.003 3.1 1.271 2.021 1.93 5.052 1.977 9.092v9.867c0 2.255-.07 3.923-.211 5.004-.095 1.033-.448 1.903-1.06 2.607-.565.658-1.53.987-2.896.987v2.114h14.408v-2.89l-4.449.212c.188-1.08.282-2.678.282-4.792V46.569c0-5.403-.941-9.373-2.825-11.91-1.883-2.584-4.873-3.876-8.969-3.876-1.978 0-4.003.446-6.074 1.339a19.592 19.592 0 00-5.439 3.383c-.094-1.974-.188-3.407-.282-4.3h-2.048c-.707.658-1.578 1.152-2.614 1.48-1.035.282-2.942.423-5.72.423v2.96l5.014-.282c-.188 1.081-.282 2.608-.282 4.581l-.071 16.069c-.047 2.35-.118 4.04-.212 5.074-.094.987-.447 1.833-1.059 2.537zm57.026 22.2c-4.049 0-7.392-.446-10.029-1.339-2.637-.893-4.567-2.067-5.792-3.524-1.224-1.456-1.836-3.007-1.836-4.651 0-1.973.659-3.712 1.978-5.215 1.318-1.457 2.825-2.537 4.52-3.242-1.601-.517-2.825-1.222-3.673-2.114-.8-.893-1.201-2.044-1.201-3.454 0-1.691.66-3.242 1.978-4.651 1.366-1.41 3.061-2.279 5.085-2.608-2.213-1.033-3.955-2.466-5.226-4.299-1.271-1.88-1.907-4.017-1.907-6.413 0-2.725.706-5.145 2.119-7.26a15.207 15.207 0 015.579-4.932c2.307-1.175 4.709-1.762 7.204-1.762 3.202 0 6.192.869 8.97 2.607.706-2.02 1.836-3.665 3.39-4.933 1.601-1.269 3.32-1.903 5.156-1.903 1.177 0 2.095.329 2.754.987.66.61.989 1.456.989 2.537 0 .658-.259 1.315-.777 1.973-.471.611-1.177.916-2.119.916-.8 0-1.483-.234-2.048-.704a2.998 2.998 0 01-1.059-1.762c-1.13.14-2.025.657-2.684 1.55-.659.846-1.13 1.88-1.413 3.101a11.617 11.617 0 012.755 3.806 10.99 10.99 0 01.989 4.58c0 2.585-.683 4.91-2.049 6.978-1.365 2.067-3.201 3.688-5.509 4.863-2.26 1.174-4.708 1.762-7.345 1.762a24.29 24.29 0 01-2.33-.141 12.342 12.342 0 00-2.402-.212c-1.554 0-2.872.353-3.955 1.057-1.036.658-1.554 1.48-1.554 2.467 0 1.363.848 2.279 2.543 2.749 1.742.422 4.685.704 8.828.845 5.792.282 10.124 1.222 12.996 2.82 2.919 1.55 4.379 4.134 4.379 7.752 0 2.396-.848 4.487-2.543 6.272-1.648 1.785-3.814 3.148-6.498 4.088a24.426 24.426 0 01-8.263 1.41zm-.989-31.644c2.543 0 4.473-.892 5.792-2.678 1.365-1.785 2.048-4.11 2.048-6.977 0-3.289-.73-6.06-2.19-8.316-1.412-2.255-3.413-3.383-6.003-3.383-2.496 0-4.45.94-5.862 2.82-1.413 1.832-2.119 4.204-2.119 7.117 0 3.43.73 6.202 2.19 8.316 1.506 2.068 3.554 3.101 6.144 3.101zm.918 28.896c2.59 0 4.85-.353 6.781-1.057 1.977-.658 3.484-1.574 4.52-2.75 1.036-1.127 1.553-2.372 1.553-3.734 0-2.397-1.153-4.04-3.46-4.934-2.26-.892-5.627-1.41-10.1-1.55-2.966-.094-5.391-.282-7.275-.564-1.271.846-2.26 1.88-2.966 3.101-.706 1.222-1.059 2.514-1.059 3.876 0 2.302 1.083 4.135 3.248 5.497 2.213 1.41 5.133 2.115 8.758 2.115z" fill="url(#paint1_linear)"/><defs><linearGradient id="paint0_linear" x1="2.231" y1="25.938" x2="55.858" y2="18.463" gradientUnits="userSpaceOnUse"><stop stop-color="#AEAEAE"/><stop offset=".156" stop-color="#F4F4F4"/><stop offset=".437" stop-color="#C7C7C7"/><stop offset=".564" stop-color="#F4F4F4"/><stop offset=".685" stop-color="#D1D1D1"/><stop offset="1" stop-color="#AEAEAE"/></linearGradient><linearGradient id="paint1_linear" x1="3.021" y1="86.247" x2="75.675" y2="-101.784" gradientUnits="userSpaceOnUse"><stop stop-color="#A27730"/><stop offset=".276" stop-color="#EBC55F"/><stop offset=".564" stop-color="#FEF7BF"/><stop offset="1" stop-color="#E1C065"/></linearGradient></defs></svg>