<svg width="27" height="20" fill="none" xmlns="http://www.w3.org/2000/svg"><path d="M13.575 10.8h0a.988.988 0 01-.598.188c-.225 0-.425-.068-.552-.18l-.005-.004-.006-.005L2.056 2.75c.104-.207.305-.353.529-.353h21.002c.19 0 .37.115.472.27L13.575 10.8zm-2.158 1.31h0l.002.001c.465.362 1.026.512 1.575.512.537 0 1.152-.144 1.58-.516l.85-.656 7.722 5.991H3.024l7.63-5.943.763.61zM23.587.75H2.54A2.188 2.188 0 00.363 2.926v13.895c0 1.193.983 2.176 2.176 2.176h21.048a2.188 2.188 0 002.176-2.176V2.93c.05-1.204-.945-2.181-2.176-2.181zm.576 15.377l-7.367-5.725 7.367-5.683v11.407zm-22.154-.002V4.812l7.276 5.635-7.276 5.678z" fill="url(#paint0_linear)" stroke="url(#paint1_linear)" stroke-width=".5"/><defs><linearGradient id="paint0_linear" x1=".613" y1="18.747" x2="22.898" y2=".368" gradientUnits="userSpaceOnUse"><stop stop-color="#A27730"/><stop offset=".276" stop-color="#EBC55F"/><stop offset=".564" stop-color="#FEF7BF"/><stop offset="1" stop-color="#E1C065"/></linearGradient><linearGradient id="paint1_linear" x1=".613" y1="18.747" x2="22.898" y2=".368" gradientUnits="userSpaceOnUse"><stop stop-color="#A27730"/><stop offset=".276" stop-color="#EBC55F"/><stop offset=".564" stop-color="#FEF7BF"/><stop offset="1" stop-color="#E1C065"/></linearGradient></defs></svg>