<svg width="18" height="32" fill="none" xmlns="http://www.w3.org/2000/svg"><path d="M9.69 14.044c-4.014-1.048-5.305-2.133-5.305-3.822 0-1.938 1.786-3.289 4.774-3.289 3.147 0 4.314 1.511 4.42 3.734h3.908c-.123-3.058-1.98-5.867-5.676-6.774V0H6.507v3.84C3.077 4.587.318 6.827.318 10.258c0 4.106 3.377 6.15 8.31 7.342 4.421 1.067 5.305 2.631 5.305 4.284 0 1.227-.866 3.183-4.774 3.183-3.642 0-5.075-1.636-5.269-3.734H0c.212 3.894 3.112 6.08 6.507 6.81V32h5.304v-3.822C15.26 27.52 18 25.51 18 21.867c0-5.05-4.297-6.774-8.31-7.823z" fill="#000"/></svg>