<svg width="10" height="29" fill="none" xmlns="http://www.w3.org/2000/svg"><path d="M2.717 9.62c-.906 3.587-.808 7.368.258 10.765l3.132-.317c.385-.039.74.179.913.546a11.958 11.958 0 002.216 3.166c.403.41.42 1.144.04 1.633l-2.417 3.102c-.38.489-1.021.554-1.424.144C-1.433 21.666-1.73 9.234 4.77.89 5.15.4 5.792.335 6.194.745l2.56 2.606c.403.41.42 1.145.04 1.634a14.648 14.648 0 00-2.055 3.597c-.162.393-.49.68-.89.72l-3.132.318z" fill="url(#paint0_linear)"/><defs><linearGradient id="paint0_linear" x1="-7" y1="15.998" x2="15.889" y2="20.526" gradientUnits="userSpaceOnUse"><stop stop-color="#A27730"/><stop offset=".276" stop-color="#EBC55F"/><stop offset=".564" stop-color="#FEF7BF"/><stop offset="1" stop-color="#E1C065"/></linearGradient></defs></svg>