<svg width="26" height="22" fill="none" xmlns="http://www.w3.org/2000/svg"><path d="M25.858 1.351a16.239 16.239 0 01-.383 1.98c-1.184 5.607-2.372 11.218-3.564 16.833a2.963 2.963 0 01-.313.935 1.05 1.05 0 01-1.237.528 2.473 2.473 0 01-.911-.447c-1.794-1.33-3.593-2.653-5.381-3.988a.348.348 0 00-.58.04c-.883.877-1.783 1.742-2.665 2.607a1.572 1.572 0 01-1.201.517.621.621 0 01-.65-.488l-1.632-5.2c-.191-.581-.388-1.162-.58-1.742a.517.517 0 00-.389-.383l-5.265-1.655a2.704 2.704 0 01-.667-.278.633.633 0 01-.105-1.161 3.158 3.158 0 011.028-.58l7.174-2.764L24.018.161l.122-.046c.97-.36 1.707.145 1.718 1.236zM9.663 18.684a.145.145 0 00.087-.157c.122-1.26.244-2.519.349-3.779a1.05 1.05 0 01.365-.766c3.363-3.018 6.72-6.044 10.071-9.078.215-.192.43-.383.639-.58.081-.082.197-.175.128-.308-.07-.134-.215-.134-.349-.122-.25.043-.486.145-.69.296L7.835 12.02a.379.379 0 00-.18.534c.51 1.533 1.01 3.071 1.51 4.603l.498 1.527z" fill="#FEFEFE"/></svg>