<svg width="49" height="42" fill="none" xmlns="http://www.w3.org/2000/svg"><path fill-rule="evenodd" clip-rule="evenodd" d="M17.855 28.099c0 .61.046 1.218.135 1.82-.357.02-.719.036-1.076.031a19.109 19.109 0 01-2.797-.212.26.26 0 00-.068 0 16.308 16.308 0 01-.698-.119 4.556 4.556 0 00-2.813.6l-4.333 2.668s.62-2.161.967-3.8a2.327 2.327 0 00-.807-2.405C2.487 23.936 0 19.717 0 14.996 0 6.722 7.565 0 16.904 0c8.91 0 16.19 6.112 16.847 13.863-8.806.207-15.896 6.51-15.896 14.236zm7.917-16.087a1.971 1.971 0 11-3.942 0 1.971 1.971 0 013.942 0zm-14.742 1.97a1.97 1.97 0 100-3.94 1.97 1.97 0 000 3.94z" fill="#2DC100"/><path fill-rule="evenodd" clip-rule="evenodd" d="M41.885 40.768a5.28 5.28 0 00-2.586-.574c-.3-.01-.6.001-.9.03a16.93 16.93 0 01-4.172.518c-8.155 0-14.769-5.683-14.769-12.669 0-6.986 6.609-12.674 14.769-12.674S49 21.077 49 28.073c0 3.697-1.851 7.027-4.799 9.344a2.627 2.627 0 00-.765 3.025c.564 1.334.533 1.51.48 1.51a.073.073 0 01-.04 0l-1.991-1.184zM36.49 24.536a1.675 1.675 0 103.35 0 1.675 1.675 0 00-3.35 0zm-10.424 0a1.675 1.675 0 103.35 0 1.675 1.675 0 00-3.35 0z" fill="#2DC100"/></svg>