<?xml version="1.0" encoding="UTF-8" standalone="no"?>
<svg
   xmlns:dc="http://purl.org/dc/elements/1.1/"
   xmlns:cc="http://creativecommons.org/ns#"
   xmlns:rdf="http://www.w3.org/1999/02/22-rdf-syntax-ns#"
   xmlns:svg="http://www.w3.org/2000/svg"
   xmlns="http://www.w3.org/2000/svg"
   id="svg8"
   version="1.1"
   viewBox="0 0 105.83333 105.83334"
   height="400"
   width="400">
  <defs
     id="defs2" />
  <metadata
     id="metadata5">
    <rdf:RDF>
      <cc:Work
         rdf:about="">
        <dc:format>image/svg+xml</dc:format>
        <dc:type
           rdf:resource="http://purl.org/dc/dcmitype/StillImage" />
        <dc:title></dc:title>
      </cc:Work>
    </rdf:RDF>
  </metadata>
  <g
     transform="translate(0,-191.16665)"
     id="layer1">
    <g
       transform="matrix(1.0017919,0,0,0.99799188,-0.11844753,0.14827548)"
       id="g826">
      <path
         id="path838"
         d="m 47.194218,297.09205 c 0.327421,-0.0631 0.863203,-0.0631 1.190625,0 0.327422,0.0631 0.05953,0.11466 -0.595313,0.11466 -0.654844,0 -0.922734,-0.0516 -0.595312,-0.11466 z m -6.068881,-1.05235 c 0.190995,-0.0764 0.419198,-0.067 0.507119,0.0209 0.08792,0.0879 -0.06835,0.15046 -0.347266,0.13897 -0.308226,-0.0127 -0.370919,-0.0754 -0.159853,-0.15985 z M 19.709946,285.70325 c -0.329107,-0.41965 -0.319749,-0.429 0.0999,-0.0999 0.254661,0.19972 0.463021,0.40808 0.463021,0.46302 0,0.21777 -0.217272,0.0776 -0.562916,-0.36312 z m -8.202084,-8.20209 c -0.329107,-0.41964 -0.319749,-0.429 0.0999,-0.0999 0.440729,0.34564 0.580887,0.56292 0.363126,0.56292 -0.05494,0 -0.263302,-0.20836 -0.463021,-0.46303 z m 40.193141,-5.81776 c 0.768864,-0.0536 1.959489,-0.053 2.645834,10e-4 0.686345,0.0543 0.05728,0.0982 -1.397932,0.0975 -1.455208,-8e-4 -2.016765,-0.0451 -1.247902,-0.0987 z m -17.020797,-7.01453 -1.045885,-1.12448 1.124479,1.04589 c 1.045755,0.97266 1.246063,1.20307 1.045885,1.20307 -0.04323,0 -0.549243,-0.50601 -1.124479,-1.12448 z m 32.950239,-5.68854 -4.627372,-4.69635 4.696354,4.62737 c 4.363252,4.29916 4.815928,4.76533 4.627373,4.76533 -0.03794,0 -2.151299,-2.11335 -4.696355,-4.69635 z M 52.618176,258.7318 c 0.254662,-0.0666 0.671381,-0.0666 0.926042,0 0.254661,0.0666 0.0463,0.121 -0.463021,0.121 -0.509323,0 -0.717682,-0.0544 -0.463021,-0.121 z M 1.2437487,256.11401 c 0.012696,-0.30823 0.07539,-0.37092 0.1598524,-0.15985 0.07643,0.19099 0.067031,0.4192 -0.020888,0.50712 -0.087919,0.0879 -0.1504528,-0.0684 -0.1389644,-0.34727 z m 50.7070693,-1.62412 c 0.469696,-0.0584 1.303134,-0.0594 1.852083,-0.002 0.548947,0.0573 0.16465,0.10509 -0.853996,0.10627 -1.018645,0.001 -1.467786,-0.0457 -0.998087,-0.10414 z m -5.253372,-2.12414 c -0.329107,-0.41965 -0.319749,-0.42901 0.0999,-0.0999 0.254661,0.19972 0.46302,0.40808 0.46302,0.46302 0,0.21776 -0.217273,0.0776 -0.562917,-0.36312 z m 12.270731,0.0453 c 0.417144,-0.49551 0.463021,-1.29301 0.463021,-8.04896 0,-6.75595 -0.04588,-7.55345 -0.463021,-8.04896 -0.462553,-0.54944 -0.462421,-0.54949 0.132291,-0.046 0.591815,0.50107 0.595313,0.54861 0.595313,8.09493 0,7.54632 -0.0035,7.59386 -0.595313,8.09493 -0.594712,0.50352 -0.594844,0.50347 -0.132291,-0.046 z m -38.761461,-1.6326 c 3.674401,-0.0415 9.687058,-0.0415 13.361459,0 3.674401,0.0415 0.668073,0.0754 -6.68073,0.0754 -7.348802,0 -10.35513,-0.034 -6.680729,-0.0754 z M 0.23659014,249.65377 c 0,-0.65485 0.051598,-0.92274 0.11466219,-0.59532 0.0630642,0.32743 0.0630642,0.86321 0,1.19063 -0.0630642,0.32742 -0.11466219,0.0595 -0.11466219,-0.59531 z M 38.613798,244.3621 c 0,-0.94589 0.04802,-1.33284 0.106714,-0.8599 0.05869,0.47295 0.05869,1.24685 0,1.7198 -0.05869,0.47294 -0.106714,0.086 -0.106714,-0.8599 z M 0.23659014,239.07043 c 0,-0.65484 0.051598,-0.92273 0.11466219,-0.59531 0.0630642,0.32742 0.0630642,0.8632 0,1.19063 -0.0630642,0.32742 -0.11466219,0.0595 -0.11466219,-0.59532 z M 20.206716,237.81387 c 3.674401,-0.0415 9.687058,-0.0415 13.361459,0 3.674401,0.0415 0.668073,0.0754 -6.68073,0.0754 -7.348802,0 -10.35513,-0.034 -6.680729,-0.0754 z m 26.259897,-1.22458 c 0,-0.0549 0.20836,-0.2633 0.463021,-0.46302 0.419645,-0.32911 0.429004,-0.31975 0.0999,0.0999 -0.345643,0.44073 -0.562917,0.58089 -0.562917,0.36313 z m 5.759427,-2.47311 c 0.475549,-0.0589 1.189924,-0.0577 1.5875,0.003 0.397576,0.0604 0.0085,0.10855 -0.864635,0.10707 -0.873125,-0.002 -1.198414,-0.0509 -0.722865,-0.10977 z m 15.27495,-4.30616 c 2.470645,-2.47386 4.551611,-4.49792 4.624372,-4.49792 0.07276,0 -1.889144,2.02406 -4.359789,4.49792 -2.470645,2.47385 -4.551611,4.49791 -4.624372,4.49791 -0.07276,0 1.889144,-2.02406 4.359789,-4.49791 z m -66.2572413,2.75607 c 0.012696,-0.30822 0.07539,-0.37092 0.1598524,-0.15985 0.07643,0.19099 0.067031,0.4192 -0.020888,0.50712 -0.087919,0.0879 -0.1504528,-0.0684 -0.1389644,-0.34727 z m 13.7583343,-0.26458 c 0.01269,-0.30823 0.07539,-0.37092 0.159852,-0.15985 0.07643,0.19099 0.06703,0.41919 -0.02089,0.50712 -0.08792,0.0879 -0.150452,-0.0684 -0.138964,-0.34727 z m 19.55828,-8.18004 c 0.493654,-0.50932 0.957085,-0.92604 1.029845,-0.92604 0.07276,0 -0.271608,0.41672 -0.765262,0.92604 -0.493654,0.50933 -0.957085,0.92605 -1.029846,0.92605 -0.07276,0 0.271608,-0.41672 0.765263,-0.92605 z M 18.685362,224.0048 c 0,-0.13693 0.117698,-0.32171 0.261552,-0.41062 0.149982,-0.0927 0.194339,0.0135 0.103985,0.24897 -0.175893,0.45837 -0.365537,0.54223 -0.365537,0.16165 z m 2.116666,-3.29051 c 0,-0.0549 0.20836,-0.2633 0.463021,-0.46303 0.419644,-0.3291 0.429003,-0.31974 0.0999,0.0999 -0.345643,0.44073 -0.562916,0.58089 -0.562916,0.36313 z m 24.556643,-2.72668 c 0.190994,-0.0764 0.419198,-0.067 0.507119,0.0209 0.08792,0.0879 -0.06835,0.15046 -0.347266,0.13897 -0.308226,-0.0127 -0.370919,-0.0754 -0.159853,-0.15985 z m 14.816667,0 c 0.190995,-0.0764 0.419198,-0.067 0.507119,0.0209 0.08792,0.0879 -0.06835,0.15046 -0.347265,0.13897 -0.308227,-0.0127 -0.37092,-0.0754 -0.159854,-0.15985 z m -8.211627,-1.07167 c 0.62231,-0.0559 1.574811,-0.0551 2.116667,0.002 0.541856,0.0568 0.03269,0.10258 -1.131473,0.10162 -1.164166,-9.5e-4 -1.607505,-0.0475 -0.985194,-0.10337 z m -40.4221,-5.72665 c 0,-0.0549 0.20836,-0.26331 0.463021,-0.46302 0.419644,-0.32911 0.429002,-0.31975 0.09989,0.0999 -0.345644,0.44073 -0.562916,0.58089 -0.562916,0.36313 z m 50.750394,-5.6371 c 0.190995,-0.0764 0.419198,-0.067 0.507119,0.0209 0.08792,0.0879 -0.06835,0.15045 -0.347266,0.13896 -0.308226,-0.0127 -0.370919,-0.0754 -0.159853,-0.15985 z m 25.292181,-1.20832 -0.504028,-0.59531 0.595312,0.50402 c 0.327422,0.27722 0.595313,0.54511 0.595313,0.59532 0,0.21173 -0.212934,0.0554 -0.686597,-0.50403 z m -36.55351,0.13406 c 1.127787,-0.0496 2.973256,-0.0496 4.101042,0 1.127787,0.0496 0.205052,0.0902 -2.050521,0.0902 -2.255573,0 -3.178307,-0.0406 -2.050521,-0.0902 z m 34.825106,-1.58927 c -0.329107,-0.41964 -0.319749,-0.429 0.0999,-0.0999 0.44073,0.34564 0.580888,0.56291 0.363125,0.56291 -0.05494,0 -0.2633,-0.20836 -0.463021,-0.46302 z M 41.125337,192.58761 c 0.190995,-0.0764 0.419198,-0.067 0.507119,0.0209 0.08792,0.0879 -0.06835,0.15046 -0.347266,0.13897 -0.308226,-0.0127 -0.370919,-0.0754 -0.159853,-0.15985 z m 4.497917,-0.79375 c 0.190995,-0.0764 0.419198,-0.067 0.507119,0.0209 0.08792,0.0879 -0.06835,0.15046 -0.347266,0.13897 -0.308226,-0.0127 -0.370919,-0.0754 -0.159853,-0.15985 z m 14.552084,0 c 0.190995,-0.0764 0.419198,-0.067 0.507119,0.0209 0.08792,0.0879 -0.06835,0.15046 -0.347265,0.13897 -0.308227,-0.0127 -0.37092,-0.0754 -0.159854,-0.15985 z m -12.314627,-0.2672 c 0.257432,-0.0671 0.614619,-0.0627 0.79375,0.01 0.179131,0.0725 -0.03149,0.12737 -0.468056,0.12197 -0.436562,-0.005 -0.583126,-0.0647 -0.325694,-0.13177 z m 9.525001,0 c 0.257431,-0.0671 0.614619,-0.0627 0.79375,0.01 0.179131,0.0725 -0.03149,0.12737 -0.468056,0.12197 -0.436563,-0.005 -0.583126,-0.0647 -0.325694,-0.13177 z"
         style="fill:#fbecd1;stroke-width:0.26458335" />
      <path
         id="path836"
         d="m 53.021034,295.00102 c -0.278064,-4.74625 -2.539871,-8.2186 -7.247502,-11.12645 -0.392202,-0.24226 -0.273471,-0.25338 0.56079,-0.0525 0.582083,0.14014 2.9752,0.32434 5.318038,0.40933 6.950721,0.25213 12.515589,-0.90227 18.626755,-3.86401 2.551583,-1.23662 2.444287,-1.1728 5.674326,-3.3747 2.939706,-2.00399 7.986242,-7.07633 9.927979,-9.97877 4.751917,-7.10297 6.969687,-14.29443 6.985586,-22.6518 0.0065,-3.4183 -0.572424,-8.38527 -1.156365,-9.92115 -0.141359,-0.3718 -0.312705,-0.98312 -0.380775,-1.35849 -0.430032,-2.37149 -2.952541,-7.65142 -5.397889,-11.29846 -1.915684,-2.85709 -6.201717,-7.38993 -8.787348,-9.29336 -1.792377,-1.31948 -1.783233,-1.37965 0.121849,-0.80172 3.804642,1.15418 8.606079,-0.15477 11.822926,-3.22313 l 1.508625,-1.43898 2.231101,2.59421 c 1.867181,2.17106 3.620376,4.55049 5.43019,7.36985 0.406911,0.63389 3.32392,6.51798 3.86287,7.79206 0.93553,2.21158 2.3555,7.18024 2.98675,10.45104 0.69809,3.61709 0.73274,14.16989 0.0578,17.5948 -0.27245,1.38245 -0.55926,2.87073 -0.63736,3.30729 -0.23984,1.34059 -1.77964,6.29332 -2.46777,7.9375 -0.48961,1.16985 -3.54101,7.20389 -4.083117,8.07422 -3.577477,5.74347 -8.935118,11.45298 -14.448058,15.39696 -2.31148,1.65364 -6.945049,4.28284 -9.047886,5.13399 -0.929431,0.3762 -1.808935,0.77244 -1.954456,0.88055 -0.429879,0.31934 -6.184821,2.07336 -8.334375,2.54019 -2.102684,0.45665 -4.682858,0.77771 -8.626275,1.07341 l -2.408568,0.1806 z"
         style="fill:#e2e2e2;stroke-width:0.26458335" />
      <path
         id="path834"
         d="m 45.744044,296.83083 c 0.257432,-0.0671 0.614619,-0.0627 0.79375,0.01 0.179131,0.0725 -0.03149,0.12736 -0.468056,0.12197 -0.436562,-0.005 -0.583125,-0.0647 -0.325694,-0.13177 z M 21.56203,287.02617 c -0.329108,-0.41965 -0.31975,-0.42901 0.09989,-0.0999 0.254662,0.19972 0.463021,0.40808 0.463021,0.46302 0,0.21776 -0.217272,0.0776 -0.562915,-0.36312 z m 27.536174,-0.52917 -0.911799,-0.99219 0.992188,0.9118 c 0.923507,0.84868 1.11384,1.07258 0.911799,1.07258 -0.04422,0 -0.490699,-0.44649 -0.992188,-0.99219 z M 10.184946,275.64908 c -0.3291081,-0.41964 -0.3197497,-0.429 0.09989,-0.0999 0.254662,0.19972 0.463021,0.40808 0.463021,0.46302 0,0.21776 -0.217272,0.0776 -0.562915,-0.36313 z m 16.933333,-0.79375 c -0.329108,-0.41964 -0.319749,-0.429 0.0999,-0.0999 0.254661,0.19973 0.463021,0.40809 0.463021,0.46303 0,0.21776 -0.217274,0.0776 -0.562917,-0.36313 z m 22.060314,-3.42353 c 0.254661,-0.0666 0.67138,-0.0666 0.926041,0 0.254662,0.0666 0.0463,0.121 -0.46302,0.121 -0.509323,0 -0.717683,-0.0544 -0.463021,-0.121 z m 6.884202,-0.001 c 0.257432,-0.0671 0.614619,-0.0627 0.79375,0.01 0.179131,0.0725 -0.03149,0.12736 -0.468056,0.12197 -0.436563,-0.005 -0.583126,-0.0647 -0.325694,-0.13178 z m -33.442432,-1.07333 c -0.329108,-0.41964 -0.319749,-0.429 0.0999,-0.0999 0.254661,0.19972 0.463021,0.40808 0.463021,0.46302 0,0.21776 -0.217273,0.0776 -0.562916,-0.36313 z m 21.944558,0.0177 c 0.190994,-0.0764 0.419197,-0.067 0.507119,0.0209 0.08792,0.0879 -0.06835,0.15045 -0.347266,0.13896 -0.308226,-0.0127 -0.37092,-0.0754 -0.159853,-0.15985 z m 16.404167,0 c 0.190995,-0.0764 0.419198,-0.067 0.507119,0.0209 0.08792,0.0879 -0.06835,0.15045 -0.347265,0.13896 -0.308227,-0.0127 -0.37092,-0.0754 -0.159854,-0.15985 z M 21.56203,269.0345 c -0.329108,-0.41965 -0.31975,-0.42901 0.09989,-0.0999 0.254662,0.19972 0.463021,0.40808 0.463021,0.46302 0,0.21776 -0.217272,0.0776 -0.562915,-0.36312 z m 48.452502,-3.32394 c 0,-0.0455 0.386953,-0.43249 0.859895,-0.8599 l 0.859896,-0.7771 -0.777105,0.8599 c -0.724371,0.80154 -0.942686,0.98151 -0.942686,0.7771 z m -55.277033,-9.86113 c 0.0127,-0.30823 0.07539,-0.37092 0.159853,-0.15986 0.07643,0.191 0.06703,0.4192 -0.02089,0.50712 -0.08792,0.0879 -0.150453,-0.0684 -0.138963,-0.34726 z m 47.604115,-0.7717 c 0.341776,-0.36381 0.68094,-0.66146 0.7537,-0.66146 0.07276,0 -0.147341,0.29765 -0.489116,0.66146 -0.341776,0.3638 -0.68094,0.66145 -0.7537,0.66145 -0.07276,0 0.147341,-0.29765 0.489116,-0.66145 z m -11.691276,-0.8422 c 0.190994,-0.0764 0.419198,-0.067 0.507119,0.0209 0.08792,0.0879 -0.06835,0.15046 -0.347266,0.13897 -0.308226,-0.0127 -0.370919,-0.0754 -0.159853,-0.15985 z M 0.48069066,251.37356 c 0.005392,-0.43656 0.0646903,-0.58313 0.13177362,-0.3257 0.0670834,0.25744 0.0626716,0.61462 -0.009804,0.79375 -0.0724755,0.17914 -0.12736188,-0.0315 -0.12196962,-0.46805 z m -0.009804,-13.89063 c 0,-0.3638 0.0600535,-0.51263 0.13345214,-0.33073 0.0733987,0.1819 0.0733987,0.47956 0,0.66146 -0.0733987,0.1819 -0.13345214,0.0331 -0.13345214,-0.33073 z m 61.85070134,-3.9026 -0.641432,-0.72761 0.727604,0.64144 c 0.680056,0.59951 0.84894,0.81377 0.641432,0.81377 -0.04739,0 -0.374814,-0.32742 -0.727604,-0.7276 z M 44.085363,233.1497 c 0,-0.0549 0.20836,-0.2633 0.463021,-0.46302 0.419645,-0.3291 0.429003,-0.31975 0.0999,0.0999 -0.345644,0.44073 -0.562917,0.58089 -0.562917,0.36312 z m 26.973259,-9.09437 -0.911799,-0.99219 0.992188,0.9118 c 0.545703,0.50149 0.992187,0.94797 0.992187,0.99219 0,0.20204 -0.223895,0.0117 -1.072576,-0.9118 z m -49.727427,-4.13479 c 0,-0.0549 0.20836,-0.2633 0.463021,-0.46303 0.419644,-0.3291 0.429002,-0.31974 0.0999,0.0999 -0.345644,0.44073 -0.562916,0.58089 -0.562916,0.36313 z m 28.111981,-2.72833 c 0.254662,-0.0665 0.67138,-0.0665 0.926042,0 0.254661,0.0666 0.0463,0.121 -0.463021,0.121 -0.509323,0 -0.717682,-0.0545 -0.463021,-0.121 z m 6.085417,0 c 0.254662,-0.0665 0.67138,-0.0665 0.926042,0 0.254661,0.0666 0.0463,0.121 -0.463021,0.121 -0.509323,0 -0.717682,-0.0545 -0.463021,-0.121 z m 23.151043,-5.28451 c 0.181901,-0.0734 0.479558,-0.0734 0.661459,0 0.181901,0.0734 0.03307,0.13345 -0.33073,0.13345 -0.363802,0 -0.51263,-0.06 -0.330729,-0.13345 z m 2.66237,-0.006 c 0.190995,-0.0764 0.419201,-0.067 0.507119,0.0209 0.08792,0.0879 -0.06835,0.15045 -0.347265,0.13896 -0.308227,-0.0127 -0.37092,-0.0754 -0.159854,-0.15985 z m -67.683728,-3.06703 c 0,-0.04 0.922734,-0.96275 2.050521,-2.05052 l 2.050521,-1.97775 -1.977753,2.05052 c -1.836894,1.90448 -2.123289,2.17124 -2.123289,1.97775 z m 27.467059,-2.7538 c 0.190995,-0.0764 0.419198,-0.067 0.507119,0.0209 0.08792,0.0879 -0.06835,0.15045 -0.347266,0.13896 -0.308226,-0.0127 -0.370919,-0.0754 -0.159853,-0.15985 z"
         style="fill:#fcda9f;stroke-width:0.26458335" />
      <path
         id="path832"
         d="m 52.8986,295.82356 c 0.0016,-0.87312 0.05088,-1.19841 0.109765,-0.72286 0.05889,0.47554 0.05767,1.18992 -0.0027,1.5875 -0.06037,0.39757 -0.108551,0.008 -0.107067,-0.86464 z m -8.614799,0.75082 c 0.181901,-0.0734 0.479557,-0.0734 0.661458,0 0.181901,0.0734 0.03307,0.13345 -0.330729,0.13345 -0.363802,0 -0.51263,-0.0601 -0.330729,-0.13345 z M 22.35578,287.55533 c -0.329108,-0.41964 -0.31975,-0.429 0.09989,-0.0999 0.254662,0.19972 0.463021,0.40808 0.463021,0.46302 0,0.21776 -0.217272,0.0776 -0.562915,-0.36313 z m -6.845419,-5.75469 c -1.084122,-1.0914 -1.9116,-1.98437 -1.838839,-1.98437 0.07276,0 1.0193,0.89297 2.103423,1.98437 1.084122,1.09141 1.9116,1.98438 1.83884,1.98438 -0.07276,0 -1.019301,-0.89297 -2.103424,-1.98438 z m -3.208749,-3.50573 c -0.329107,-0.41964 -0.319749,-0.429 0.0999,-0.0999 0.440729,0.34564 0.580887,0.56292 0.363126,0.56292 -0.05494,0 -0.263302,-0.20836 -0.463021,-0.46303 z m 12.461523,-5.55625 -1.712148,-1.78593 1.785938,1.71214 c 1.658854,1.59032 1.906886,1.85973 1.712148,1.85973 -0.04058,0 -0.844256,-0.80367 -1.785938,-1.78594 z m 23.097576,-1.57241 c 0.257432,-0.0671 0.614619,-0.0627 0.79375,0.01 0.179131,0.0725 -0.03149,0.12737 -0.468056,0.12197 -0.436562,-0.005 -0.583126,-0.0647 -0.325694,-0.13177 z m 9.652257,0.008 c 0.181901,-0.0734 0.479558,-0.0734 0.661459,0 0.181901,0.0734 0.03307,0.13345 -0.33073,0.13345 -0.363802,0 -0.51263,-0.06 -0.330729,-0.13345 z m 11.707813,-4.95175 c 0,-0.0549 0.20836,-0.2633 0.463021,-0.46302 0.419645,-0.32911 0.429004,-0.31975 0.0999,0.0999 -0.345643,0.44073 -0.562917,0.58088 -0.562917,0.36312 z M 42.99328,254.747 c -0.329108,-0.41965 -0.319749,-0.42901 0.0999,-0.0999 0.254661,0.19972 0.463021,0.40808 0.463021,0.46302 0,0.21776 -0.217274,0.0776 -0.562917,-0.36312 z M 0.714582,252.67443 c 0.0126958,-0.30823 0.0753905,-0.37092 0.15985242,-0.15986 0.0764303,0.191 0.0670307,0.4192 -0.0208881,0.50712 -0.0879189,0.0879 -0.15045278,-0.0684 -0.13896432,-0.34726 z m -0.52916671,-4.49792 c 0.0126957,-0.30823 0.0753905,-0.37092 0.15985244,-0.15985 0.0764303,0.19099 0.0670307,0.4192 -0.0208882,0.50712 -0.0879188,0.0879 -0.15045277,-0.0684 -0.13896424,-0.34727 z M 43.159322,233.77877 c 0.26339,-0.29105 0.538421,-0.52917 0.611182,-0.52917 0.07276,0 -0.08321,0.23812 -0.346599,0.52917 -0.26339,0.29104 -0.538422,0.52916 -0.611182,0.52916 -0.07276,0 0.08321,-0.23812 0.346599,-0.52916 z m 26.433196,-10.91407 -0.504028,-0.59531 0.595312,0.50403 c 0.559446,0.47366 0.715762,0.6866 0.504029,0.6866 -0.05021,0 -0.318098,-0.2679 -0.595313,-0.59532 z M 22.52182,218.43293 c 0.263389,-0.29104 0.538421,-0.52917 0.611181,-0.52917 0.07276,0 -0.08321,0.23813 -0.346597,0.52917 -0.263389,0.29104 -0.538421,0.52917 -0.611181,0.52917 -0.07276,0 0.08321,-0.23813 0.346597,-0.52917 z m 1.984375,-2.24896 c 0.790423,-0.80036 1.496664,-1.45521 1.569424,-1.45521 0.07276,0 -0.514418,0.65485 -1.30484,1.45521 -0.790423,0.80037 -1.496664,1.45521 -1.569424,1.45521 -0.07276,0 0.514418,-0.65484 1.30484,-1.45521 z m 23.481773,1.27998 c 0.181901,-0.0734 0.479557,-0.0734 0.661458,0 0.181901,0.0734 0.03307,0.13346 -0.330729,0.13346 -0.363802,0 -0.51263,-0.0601 -0.330729,-0.13346 z m 9.260417,0 c 0.181901,-0.0734 0.479557,-0.0734 0.661458,0 0.181901,0.0734 0.03307,0.13346 -0.330729,0.13346 -0.363802,0 -0.51263,-0.0601 -0.330729,-0.13346 z m -30.096356,-3.66123 c 0.341775,-0.3638 0.680939,-0.66146 0.7537,-0.66146 0.07276,0 -0.147341,0.29766 -0.489117,0.66146 -0.341775,0.36381 -0.680939,0.66146 -0.7537,0.66146 -0.07276,0 0.147341,-0.29765 0.489117,-0.66146 z m 52.718232,-1.90217 c 0.254662,-0.0666 0.671381,-0.0666 0.926042,0 0.254662,0.0665 0.0463,0.121 -0.463021,0.121 -0.509323,0 -0.717682,-0.0545 -0.463021,-0.121 z m -2.232422,-0.26294 c 0.190995,-0.0764 0.419201,-0.067 0.507119,0.0209 0.08792,0.0879 -0.06835,0.15045 -0.347265,0.13896 -0.308227,-0.0127 -0.37092,-0.0754 -0.159854,-0.15985 z m -65.037894,-1.50666 c 0,-0.0549 0.208359,-0.2633 0.46302,-0.46302 0.419644,-0.32911 0.429003,-0.31975 0.0999,0.0999 -0.345643,0.44073 -0.562915,0.58088 -0.562915,0.36312 z m 76.586698,-1.94845 1.039382,-1.12232 -0.773147,-0.86206 -0.77315,-0.86206 0.915517,0.86049 0.915516,0.86049 -1.181751,1.12389 -1.181751,1.12388 z m -25.307138,-2.36573 c 0.190995,-0.0764 0.419198,-0.067 0.507119,0.0209 0.08792,0.0879 -0.06835,0.15046 -0.347266,0.13897 -0.308226,-0.0127 -0.370919,-0.0754 -0.159853,-0.15986 z m -3.175,-0.79375 c 0.190995,-0.0764 0.419198,-0.067 0.507119,0.0209 0.08792,0.0879 -0.06835,0.15046 -0.347266,0.13897 -0.308226,-0.0127 -0.370919,-0.0754 -0.159853,-0.15986 z m -14.022918,-0.26458 c 0.190995,-0.0764 0.419198,-0.067 0.507119,0.0209 0.08792,0.0879 -0.06835,0.15045 -0.347265,0.13896 -0.308227,-0.0127 -0.37092,-0.0754 -0.159854,-0.15985 z m 12.154298,0.006 c 0.181901,-0.0734 0.479557,-0.0734 0.661458,0 0.181901,0.0734 0.03307,0.13345 -0.330729,0.13345 -0.363802,0 -0.51263,-0.0601 -0.330729,-0.13345 z M 18.55307,204.14543 c 0.263389,-0.29104 0.53842,-0.52917 0.611181,-0.52917 0.07276,0 -0.08321,0.23813 -0.346598,0.52917 -0.263389,0.29104 -0.53842,0.52917 -0.611181,0.52917 -0.07276,0 0.08321,-0.23813 0.346598,-0.52917 z m 40.299351,-12.35157 c 0.190995,-0.0764 0.419198,-0.067 0.507119,0.0209 0.08792,0.0879 -0.06835,0.15046 -0.347265,0.13897 -0.308227,-0.0127 -0.37092,-0.0754 -0.159854,-0.15985 z m -9.40421,-0.2672 c 0.257432,-0.0671 0.614619,-0.0627 0.79375,0.01 0.179131,0.0725 -0.03149,0.12737 -0.468056,0.12197 -0.436562,-0.005 -0.583126,-0.0647 -0.325694,-0.13177 z m 6.35,0 c 0.257432,-0.0671 0.61462,-0.0627 0.793751,0.01 0.17913,0.0725 -0.03149,0.12737 -0.468056,0.12197 -0.436563,-0.005 -0.583126,-0.0647 -0.325695,-0.13177 z"
         style="fill:#fdc866;stroke-width:0.26458335" />
      <path
         id="path830"
         d="m 49.443176,297.09638 c 0.254662,-0.0665 0.67138,-0.0665 0.926042,0 0.254661,0.0666 0.0463,0.12101 -0.463021,0.12101 -0.509323,0 -0.717682,-0.0545 -0.463021,-0.12101 z m -5.936589,-0.7921 c 0.190995,-0.0764 0.419198,-0.067 0.507119,0.0209 0.08792,0.0879 -0.06835,0.15045 -0.347266,0.13896 -0.308226,-0.0127 -0.370919,-0.0754 -0.159853,-0.15985 z m -23.655739,-10.73332 -0.504028,-0.59532 0.595313,0.50403 c 0.559446,0.47367 0.715761,0.6866 0.504028,0.6866 -0.05021,0 -0.318098,-0.26789 -0.595313,-0.59531 z m -1.5875,-1.32292 -0.504028,-0.59531 0.595312,0.50403 c 0.559447,0.47366 0.715762,0.68659 0.504029,0.68659 -0.05021,0 -0.318098,-0.26789 -0.595313,-0.59531 z m -5.167986,-5.15938 c -0.329107,-0.41964 -0.319749,-0.429 0.0999,-0.0999 0.254662,0.19972 0.463021,0.40808 0.463021,0.46302 0,0.21776 -0.217272,0.0776 -0.562916,-0.36313 z m -1.322916,-1.5875 c -0.329108,-0.41964 -0.31975,-0.429 0.09989,-0.0999 0.254662,0.19972 0.463021,0.40808 0.463021,0.46302 0,0.21776 -0.217272,0.0776 -0.562915,-0.36313 z m 56.654585,-10.74937 c 0,-0.0549 0.20836,-0.2633 0.463021,-0.46302 0.419645,-0.32911 0.429004,-0.31975 0.0999,0.0999 -0.345643,0.44073 -0.562917,0.58089 -0.562917,0.36313 z M 38.26453,259.04648 c 2.397786,-2.4011 4.419142,-4.36563 4.491903,-4.36563 0.07276,0 -1.829534,1.96453 -4.22732,4.36563 -2.397787,2.40109 -4.419143,4.36562 -4.491903,4.36562 -0.07276,0 1.829533,-1.96453 4.22732,-4.36562 z m 11.327474,-0.57762 c 0.190995,-0.0764 0.419198,-0.067 0.507119,0.0209 0.08792,0.0879 -0.06835,0.15045 -0.347265,0.13896 -0.308227,-0.0127 -0.37092,-0.0754 -0.159854,-0.15985 z m 6.350001,0 c 0.190994,-0.0764 0.419198,-0.067 0.507119,0.0209 0.08792,0.0879 -0.06835,0.15045 -0.347266,0.13896 -0.308226,-0.0127 -0.370919,-0.0754 -0.159853,-0.15985 z m -41.733672,-3.94235 c 0.01269,-0.30823 0.07539,-0.37092 0.159852,-0.15985 0.07643,0.19099 0.06703,0.4192 -0.02089,0.50712 -0.08792,0.0879 -0.150453,-0.0684 -0.138964,-0.34727 z M 0.97916535,253.73276 c 0.0126958,-0.30823 0.0753904,-0.37092 0.15985245,-0.15985 0.07643,0.19099 0.067031,0.4192 -0.020888,0.50712 -0.087919,0.0879 -0.15045277,-0.0684 -0.13896445,-0.34727 z m 45.85918465,-1.49931 -0.504028,-0.59531 0.595312,0.50403 c 0.559446,0.47366 0.715762,0.6866 0.504029,0.6866 -0.05021,0 -0.318098,-0.26789 -0.595313,-0.59532 z M 0.44999865,250.29318 c 0.0126958,-0.30823 0.0753905,-0.37092 0.15985242,-0.15986 0.0764303,0.191 0.0670307,0.4192 -0.0208881,0.50712 -0.0879189,0.0879 -0.15045278,-0.0684 -0.13896432,-0.34726 z M 38.814585,247.64734 c 0.0127,-0.30822 0.07539,-0.37092 0.159851,-0.15985 0.07643,0.191 0.06703,0.4192 -0.02088,0.50712 -0.08792,0.0879 -0.150453,-0.0683 -0.138964,-0.34727 z M 0.20630345,247.27252 c 0,-0.36381 0.0600535,-0.51263 0.13345213,-0.33073 0.0733987,0.1819 0.0733987,0.47955 0,0.66146 -0.0733987,0.1819 -0.13345213,0.0331 -0.13345213,-0.33073 z m 0,-5.82084 c 0,-0.3638 0.0600535,-0.51263 0.13345213,-0.33073 0.0733987,0.18191 0.0733987,0.47956 0,0.66146 -0.0733987,0.1819 -0.13345213,0.0331 -0.13345213,-0.33073 z M 38.814585,241.03276 c 0.0127,-0.30823 0.07539,-0.37092 0.159851,-0.15985 0.07643,0.19099 0.06703,0.41919 -0.02088,0.50712 -0.08792,0.0879 -0.150453,-0.0684 -0.138964,-0.34727 z M 0.47088679,238.54127 c 0,-0.36381 0.0600535,-0.51263 0.13345214,-0.33073 0.0733987,0.1819 0.0733987,0.47955 0,0.66146 -0.0733987,0.1819 -0.13345214,0.0331 -0.13345214,-0.33073 z m 45.99572621,-1.6874 c 0,-0.0549 0.20836,-0.2633 0.463021,-0.46302 0.419645,-0.32911 0.429004,-0.31975 0.0999,0.0999 -0.345643,0.44073 -0.562917,0.58088 -0.562917,0.36312 z M 0.97916535,234.94734 c 0.0126958,-0.30822 0.0753904,-0.37092 0.15985245,-0.15985 0.07643,0.19099 0.067031,0.4192 -0.020888,0.50712 -0.087919,0.0879 -0.15045277,-0.0684 -0.13896445,-0.34727 z m 37.28235565,-5.33576 -4.362617,-4.43177 4.431771,4.36261 c 2.437474,2.39944 4.431771,4.39374 4.431771,4.43178 0,0.18879 -0.447873,-0.24532 -4.500925,-4.36262 z m 11.595067,0.54686 c 0.190994,-0.0764 0.419197,-0.067 0.507119,0.0209 0.08792,0.0879 -0.06835,0.15045 -0.347266,0.13896 -0.308226,-0.0127 -0.37092,-0.0754 -0.159853,-0.15985 z m 5.820833,0 c 0.190995,-0.0764 0.419198,-0.067 0.507119,0.0209 0.08792,0.0879 -0.06835,0.15045 -0.347265,0.13896 -0.308227,-0.0127 -0.37092,-0.0754 -0.159854,-0.15985 z m -35.669143,-8.6504 c 0,-0.0549 0.20836,-0.2633 0.463021,-0.46303 0.419644,-0.3291 0.429003,-0.31974 0.0999,0.0999 -0.345643,0.44073 -0.562916,0.58089 -0.562916,0.36313 z m 22.439976,-15.95585 c 0.190995,-0.0764 0.419198,-0.067 0.507119,0.0209 0.08792,0.0879 -0.06835,0.15045 -0.347266,0.13896 -0.308226,-0.0127 -0.370919,-0.0754 -0.159853,-0.15985 z m 44.995028,-1.07603 c -0.329107,-0.41964 -0.319749,-0.429 0.0999,-0.0999 0.44073,0.34564 0.580888,0.56291 0.363125,0.56291 -0.05494,0 -0.2633,-0.20836 -0.463021,-0.46302 z m -39.455314,0.0232 c 0.181901,-0.0734 0.479557,-0.0734 0.661458,0 0.181901,0.0734 0.03307,0.13345 -0.330729,0.13345 -0.363802,0 -0.51263,-0.0601 -0.330729,-0.13345 z m 9.260417,0 c 0.181901,-0.0734 0.479557,-0.0734 0.661458,0 0.181901,0.0734 0.03307,0.13345 -0.330729,0.13345 -0.363802,0 -0.51263,-0.0601 -0.330729,-0.13345 z m -5.284674,-0.28343 c 0.62231,-0.0559 1.574811,-0.0551 2.116667,0.002 0.541856,0.0568 0.03269,0.10258 -1.131473,0.10162 -1.164166,-9.5e-4 -1.607505,-0.0475 -0.985194,-0.10337 z m -32.749183,-0.43499 c 0,-0.0549 0.20836,-0.2633 0.463021,-0.46302 0.419644,-0.32911 0.429003,-0.31975 0.0999,0.0999 -0.345644,0.44073 -0.562916,0.58088 -0.562916,0.36312 z m 26.144143,-11.72251 c 0.190994,-0.0764 0.419198,-0.067 0.507119,0.0209 0.08792,0.0879 -0.06835,0.15045 -0.347266,0.13896 -0.308226,-0.0127 -0.370919,-0.0754 -0.159853,-0.15985 z m 2.116666,-0.26458 c 0.190995,-0.0764 0.419198,-0.067 0.507119,0.0209 0.08792,0.0879 -0.06835,0.15046 -0.347265,0.13897 -0.308227,-0.0127 -0.37092,-0.0754 -0.159854,-0.15985 z m 10.583334,0 c 0.190995,-0.0764 0.419198,-0.067 0.507119,0.0209 0.08792,0.0879 -0.06835,0.15046 -0.347265,0.13897 -0.308227,-0.0127 -0.37092,-0.0754 -0.159854,-0.15985 z m -7.292578,-0.26623 c 0.254661,-0.0665 0.67138,-0.0665 0.926042,0 0.254661,0.0666 0.0463,0.121 -0.463021,0.121 -0.509323,0 -0.717683,-0.0545 -0.463021,-0.121 z m 3.439583,0 c 0.254662,-0.0665 0.671381,-0.0665 0.926042,0 0.254662,0.0666 0.0463,0.121 -0.463021,0.121 -0.509323,0 -0.717682,-0.0545 -0.463021,-0.121 z"
         style="fill:#fdb62c;stroke-width:0.26458335" />
      <path
         id="path828"
         d="m 48.715572,297.01175 c -4.999221,-0.45106 -9.630588,-1.49493 -14.419793,-3.25012 -1.677178,-0.61466 -7.223096,-3.25312 -8.202084,-3.90213 -0.363802,-0.24117 -1.613958,-1.07416 -2.778125,-1.85108 -8.895956,-5.9368 -16.2249408,-15.3922 -19.8851903,-25.65465 -2.50633773,-7.02716 -3.62060204,-14.95092 -3.02600479,-21.51853 0.72305289,-7.98646 2.11284789,-13.133 5.29940119,-19.62418 4.3485169,-8.85817 9.9995339,-15.32182 18.2732529,-20.90102 2.994827,-2.01949 8.970664,-4.89885 12.567709,-6.05554 15.659434,-5.03553 32.173907,-2.75581 45.772919,6.31868 2.85091,1.90238 7.805209,6.00659 7.805209,6.46594 0,0.12775 -0.625078,0.79663 -1.389062,1.48639 -2.772845,2.50348 -6.518011,3.63752 -10.221898,3.09521 -2.186479,-0.32013 -2.967183,-0.62652 -6.380708,-2.50413 -4.795578,-2.6378 -10.072082,-4.21627 -15.773067,-4.71853 -14.608028,-1.28696 -28.388817,5.43394 -36.7209,17.90881 -2.199365,3.29291 -4.933413,9.45597 -5.323894,12.00106 -0.05582,0.3638 -0.269402,1.3163 -0.474634,2.11667 l -0.37315,1.45521 13.193237,0.0686 c 7.256283,0.0377 13.19324,0.17142 13.19324,0.2971 0,0.12567 -0.263427,0.80918 -0.585394,1.5189 -0.506277,1.11601 -0.584144,1.7374 -0.576151,4.5977 0.0078,2.77865 0.101335,3.53089 0.585393,4.70615 0.316884,0.76937 0.576152,1.45398 0.576152,1.52135 0,0.0674 -5.936208,0.1225 -13.191571,0.1225 H 13.468888 l 0.460896,2.18281 c 3.039959,14.39731 14.024348,26.06543 28.450567,30.2215 3.186862,0.91811 4.93286,1.84045 6.611747,3.49272 2.485936,2.44654 3.824516,5.60013 3.824516,9.01027 v 1.65937 l -0.992188,-0.038 c -0.545703,-0.0209 -1.944687,-0.12396 -3.108854,-0.229 z m 0,-25.82298 c -1.018646,-0.20663 -2.030677,-0.41849 -2.248959,-0.4708 -0.218281,-0.0523 -0.786304,-0.18509 -1.262277,-0.29508 -0.475969,-0.10998 -0.929481,-0.30365 -1.007803,-0.43038 -0.07832,-0.12672 -0.36385,-0.23041 -0.63451,-0.23041 -0.439754,0 -0.841526,-0.16622 -2.783952,-1.15177 -0.291041,-0.14767 -0.886354,-0.44562 -1.322916,-0.66211 -0.436563,-0.21649 -0.853282,-0.46409 -0.926042,-0.55022 -0.07276,-0.0861 -0.807154,-0.61454 -1.631987,-1.17426 -0.824834,-0.55972 -1.832399,-1.36494 -2.239034,-1.78938 l -0.739339,-0.7717 4.451822,-4.45761 4.451823,-4.45761 1.640653,1.2418 c 0.902359,0.683 2.466446,1.57546 3.475752,1.98327 1.653471,0.66807 2.149353,0.74178 5.010102,0.74475 2.632068,0.003 3.423844,-0.0944 4.630209,-0.56777 2.077744,-0.81539 3.316457,-1.5304 4.441487,-2.56372 0.540358,-0.49632 1.043315,-0.90296 1.117682,-0.90365 0.07437,-8e-4 2.15796,2.02719 4.630208,4.50641 l 4.494999,4.50767 -0.661458,0.53129 c -4.573837,3.67377 -8.476203,5.7895 -11.928892,6.46742 -3.826938,0.7514 -5.104273,0.91574 -6.951901,0.89441 -1.18447,-0.0137 -2.987021,-0.19392 -4.005667,-0.40055 z m 1.180782,-17.31242 c -0.805778,-0.28874 -1.907106,-0.88936 -2.447396,-1.33471 l -0.982345,-0.80973 v -7.36555 -7.36555 l 0.789623,-0.66443 c 0.956389,-0.80475 3.421192,-1.77545 4.987322,-1.96413 1.517139,-0.18278 3.803992,0.38558 5.600139,1.39182 l 1.455209,0.81524 0.07011,7.70553 0.07011,7.70554 -0.687377,0.54069 c -2.10552,1.6562 -6.236404,2.28375 -8.855388,1.34528 z m -11.516445,-24.34785 -4.451853,-4.45764 0.514591,-0.56978 c 1.611786,-1.78462 6.429489,-4.63052 9.806014,-5.79256 1.789108,-0.61573 1.868067,-0.63429 5.260661,-1.23641 6.295017,-1.11725 13.907842,0.91201 19.766974,5.26905 3.345252,2.48763 3.510543,1.7897 -1.642705,6.93625 l -4.480574,4.47477 -0.734136,-0.64973 c -0.403776,-0.35735 -0.794703,-0.71554 -0.868723,-0.79598 -0.308631,-0.3354 -2.31839,-1.46639 -3.177294,-1.78801 -2.119696,-0.79374 -2.867774,-0.89028 -6.066097,-0.78286 -2.932446,0.0985 -3.51268,0.19773 -4.896948,0.83745 -0.863688,0.39913 -2.247075,1.24036 -3.074197,1.8694 l -1.503857,1.14369 z"
         style="fill:#fdb119;stroke-width:0.26458335" />
    </g>
  </g>
</svg>
